<svg width="250" height="280" viewBox="1629 100 250 280" fill="none" xmlns="http://www.w3.org/2000/svg">
<rect x="1629" y="100" width="250" height="280" fill="#FCFCFC"/>
<path d="M1667.58 261.668H1667.63C1668.9 265.943 1670.3 269.881 1672.19 273.742L1672.29 273.975V274.156C1671.36 278.017 1667.68 280.867 1663.61 280.867C1659.55 280.867 1656.1 278.198 1654.93 274.519L1644.13 240.474C1643.48 238.738 1643.2 236.95 1643.2 234.981C1643.2 226.094 1650.43 218.865 1659.31 218.865C1661 218.865 1662.6 219.15 1664.05 219.565C1664.11 219.565 1664.62 219.798 1664.62 219.798V220.213C1664.29 222.233 1664.05 222.985 1663.93 225.135" stroke="black" stroke-width="10.0788" stroke-linecap="round" stroke-linejoin="round" stroke-dasharray="3.83 16.12"/>
<path d="M1652.55 238.998L1657.16 253.689C1657.63 255.243 1659.13 256.461 1660.87 256.461C1662.32 256.461 1663.59 255.658 1664.29 254.492L1664.39 254.207C1662.71 248.533 1661.72 242.522 1661.72 236.122C1661.72 234.205 1661.78 232.261 1662.01 230.396C1661.08 229.981 1660.09 229.696 1659.06 229.696C1655.25 229.696 1652.11 232.805 1652.11 236.64C1652.11 237.443 1652.29 238.246 1652.53 238.998H1652.55Z" stroke="black" stroke-width="10.0788" stroke-linecap="round" stroke-linejoin="round" stroke-dasharray="3.83 16.12"/>
<path d="M1672.04 187.568C1668.51 192.361 1666.03 200.445 1664.06 208.27C1663.59 210.187 1662.79 214.281 1662.37 218.608C1663.18 218.789 1663.98 219.022 1664.81 219.359H1664.86L1665.27 219.463C1669.45 217.494 1672.55 211.249 1674.63 199.642C1675.61 194.149 1675.43 190.444 1675.15 188.501C1674.11 188.216 1673.02 187.853 1672.04 187.568Z" stroke="black" stroke-width="10.0788" stroke-linecap="round" stroke-linejoin="round" stroke-dasharray="3.83 16.12"/>
<path d="M1697.63 224.956C1699.58 224.956 1701.16 223.375 1701.16 221.432C1701.16 219.489 1699.58 217.908 1697.63 217.908C1695.69 217.908 1694.11 219.489 1694.11 221.432C1694.11 223.375 1695.69 224.956 1697.63 224.956Z" stroke="black" stroke-width="10.0788" stroke-linecap="round" stroke-linejoin="round" stroke-dasharray="3.83 16.12"/>
<path d="M1684.63 224.152C1687.58 220.291 1692.25 217.804 1697.45 217.804C1703 217.804 1707.92 220.628 1710.8 224.903" stroke="black" stroke-width="10.0788" stroke-linecap="round" stroke-linejoin="round" stroke-dasharray="3.83 16.12"/>
<path d="M1705.67 229.645C1703.36 230.915 1700.64 231.666 1697.82 231.666C1694.99 231.666 1692.22 230.863 1689.84 229.516" stroke="black" stroke-width="10.0788" stroke-linecap="round" stroke-linejoin="round" stroke-dasharray="3.83 16.12"/>
<path d="M1734.22 265.71C1731.27 269.57 1726.6 272.058 1721.39 272.058C1715.85 272.058 1710.93 269.234 1708.05 264.958" stroke="black" stroke-width="10.0788" stroke-linecap="round" stroke-linejoin="round" stroke-dasharray="3.83 16.12"/>
<path d="M1767.05 195.496C1766.24 188.915 1765.83 187.412 1765.83 187.412C1753.57 191.687 1738.55 194.071 1721.63 194.278C1705.61 194.563 1688.46 192.205 1675.51 188.5L1675.22 189.019C1675.4 191.169 1675.4 195.263 1674.65 199.641C1672.63 211.197 1668.98 217.675 1664.88 219.644C1664.19 224.333 1663.8 229.23 1663.8 234.153C1663.8 275.479 1689.63 308.98 1721.52 308.98C1753.42 308.98 1779.25 275.453 1779.25 234.153C1779.25 229.127 1778.84 224.204 1778.16 219.462C1773.32 215.99 1768.68 208.088 1767.12 195.418L1767.07 195.47H1767.05V195.496Z" stroke="black" stroke-width="10.0788" stroke-linecap="round" stroke-linejoin="round" stroke-dasharray="3.83 16.12"/>
<path d="M1745.21 224.956C1747.15 224.956 1748.73 223.375 1748.73 221.432C1748.73 219.489 1747.15 217.908 1745.21 217.908C1743.26 217.908 1741.68 219.489 1741.68 221.432C1741.68 223.375 1743.26 224.956 1745.21 224.956Z" stroke="black" stroke-width="10.0788" stroke-linecap="round" stroke-linejoin="round" stroke-dasharray="3.83 16.12"/>
<path d="M1753.11 229.645C1750.8 230.915 1748.08 231.666 1745.26 231.666C1742.43 231.666 1739.66 230.863 1737.28 229.516" stroke="black" stroke-width="10.0788" stroke-linecap="round" stroke-linejoin="round" stroke-dasharray="3.83 16.12"/>
<path d="M1732.15 224.152C1735.1 220.291 1739.76 217.804 1744.97 217.804C1750.52 217.804 1755.44 220.628 1758.31 224.903" stroke="black" stroke-width="10.0788" stroke-linecap="round" stroke-linejoin="round" stroke-dasharray="3.83 16.12"/>
<path d="M1790.21 238.894C1790.49 238.142 1790.62 237.339 1790.62 236.536C1790.62 232.727 1787.52 229.592 1783.68 229.592C1782.64 229.592 1781.66 229.825 1780.73 230.292C1780.91 232.131 1781.01 234.049 1781.01 236.018C1781.01 242.366 1780.03 248.454 1778.34 253.999L1778.45 254.336C1779.15 255.502 1780.36 256.305 1781.87 256.305C1783.6 256.305 1785.11 255.139 1785.57 253.533L1790.18 238.842V238.894H1790.21Z" stroke="black" stroke-width="10.0788" stroke-linecap="round" stroke-linejoin="round" stroke-dasharray="3.83 16.12"/>
<path d="M1778.78 224.955C1778.6 222.804 1778.45 222.131 1778.08 220.032V219.617C1778.08 219.617 1778.55 219.436 1778.65 219.384C1780.16 218.918 1781.76 218.685 1783.39 218.685C1792.31 218.685 1799.51 225.913 1799.51 234.8C1799.51 236.718 1799.23 238.557 1798.58 240.293L1787.77 274.338C1786.61 278.044 1783.21 280.686 1779.09 280.686C1774.97 280.686 1771.35 277.862 1770.36 273.976V273.794L1770.54 273.561C1772.46 269.701 1773.83 265.814 1775.1 261.487H1775.16" stroke="black" stroke-width="10.0788" stroke-linecap="round" stroke-linejoin="round" stroke-dasharray="3.83 16.12"/>
<path d="M1640.61 369.271V301.828" stroke="black" stroke-width="10.0788" stroke-linecap="round" stroke-linejoin="round" stroke-dasharray="3.83 16.12"/>
<path d="M1651 369.22V309.861" stroke="black" stroke-width="10.0788" stroke-linecap="round" stroke-linejoin="round" stroke-dasharray="3.83 16.12"/>
<path d="M1631.51 301.828V369.271" stroke="black" stroke-width="10.0788" stroke-linecap="round" stroke-linejoin="round" stroke-dasharray="3.83 16.12"/>
<path d="M1655.74 294.651V369.271" stroke="black" stroke-width="10.0788" stroke-linecap="round" stroke-linejoin="round" stroke-dasharray="3.83 16.12"/>
<path d="M1614.54 322.271L1700.59 322.375" stroke="black" stroke-width="10.0788" stroke-linecap="round" stroke-linejoin="round" stroke-dasharray="3.83 16.12"/>
<path d="M1614.54 345.797L1712.22 345.901" stroke="black" stroke-width="10.0788" stroke-linecap="round" stroke-linejoin="round" stroke-dasharray="3.83 16.12"/>
<path d="M1665.97 292.346V369.271" stroke="black" stroke-width="10.0788" stroke-linecap="round" stroke-linejoin="round" stroke-dasharray="3.83 16.12"/>
<path d="M1691.86 299.108V369.272" stroke="black" stroke-width="10.0788" stroke-linecap="round" stroke-linejoin="round" stroke-dasharray="3.83 16.12"/>
<path d="M1702.25 322.35V369.272" stroke="black" stroke-width="10.0788" stroke-linecap="round" stroke-linejoin="round" stroke-dasharray="3.83 16.12"/>
<path d="M1759.48 290.946C1780.47 291.982 1800.29 295.739 1816.64 304.134L1816.46 304.03C1826.17 309.394 1831.48 320.276 1831.48 333.567V334.785V332.868V369.219H1610.89V332.868V334.785V333.567C1610.89 320.276 1616.15 309.42 1625.92 304.03L1625.74 304.134C1642.08 295.765 1662.27 291.361 1683.31 290.324C1693.49 301.88 1706.83 308.927 1721.39 308.927C1735.96 308.927 1747.41 302.45 1757.87 292.216L1759.56 290.817L1759.51 290.92L1759.48 290.946Z" stroke="black" stroke-width="10.0788" stroke-linecap="round" stroke-linejoin="round" stroke-dasharray="3.83 16.12"/>
<path d="M1767.05 195.496C1766.24 188.915 1765.83 187.412 1765.83 187.412C1753.57 191.687 1738.55 194.071 1721.63 194.278C1705.61 194.563 1688.46 192.205 1675.51 188.5L1675.22 189.019C1675.4 191.169 1675.4 195.263 1674.65 199.641C1672.63 211.197 1668.98 217.675 1664.88 219.644C1664.19 224.333 1663.8 229.23 1663.8 234.153C1663.8 275.479 1689.63 308.98 1721.52 308.98C1753.42 308.98 1779.25 275.453 1779.25 234.153C1779.25 229.127 1778.84 224.204 1778.16 219.462C1773.32 215.99 1768.68 208.088 1767.12 195.418L1767.07 195.47H1767.05V195.496Z" stroke="black" stroke-width="10.0788" stroke-linecap="round" stroke-linejoin="round" stroke-dasharray="3.83 16.12"/>
<path d="M1721.45 309.058C1711.16 309.058 1701.52 305.534 1693.18 299.471L1721.21 367.95L1750.15 299.108C1741.65 305.404 1731.89 309.058 1721.42 309.058H1721.45Z" stroke="black" stroke-width="10.0788" stroke-linecap="round" stroke-linejoin="round" stroke-dasharray="3.83 16.12"/>
<path d="M1740.64 369.272V322.35" stroke="black" stroke-width="10.0788" stroke-linecap="round" stroke-linejoin="round" stroke-dasharray="3.83 16.12"/>
<path d="M1730.51 345.85L1765.65 345.901" stroke="black" stroke-width="10.0788" stroke-linecap="round" stroke-linejoin="round" stroke-dasharray="3.83 16.12"/>
<path d="M1751.03 369.272V299.108" stroke="black" stroke-width="10.0788" stroke-linecap="round" stroke-linejoin="round" stroke-dasharray="3.83 16.12"/>
<path d="M1776.92 341.289V293.615" stroke="black" stroke-width="10.0788" stroke-linecap="round" stroke-linejoin="round" stroke-dasharray="3.83 16.12"/>
<path d="M1765.65 369.271V345.978C1765.65 343.776 1767.44 342.04 1769.59 342.04H1797.57C1799.77 342.04 1801.51 343.828 1801.51 345.978V369.271H1765.65Z" stroke="black" stroke-width="10.0788" stroke-linecap="round" stroke-linejoin="round" stroke-dasharray="3.83 16.12"/>
<path d="M1741.5 322.271L1827.55 322.375" stroke="black" stroke-width="10.0788" stroke-linecap="round" stroke-linejoin="round" stroke-dasharray="3.83 16.12"/>
<path d="M1787.15 341.29V294.238" stroke="black" stroke-width="10.0788" stroke-linecap="round" stroke-linejoin="round" stroke-dasharray="3.83 16.12"/>
<path d="M1811.38 369.271V301.828" stroke="black" stroke-width="10.0788" stroke-linecap="round" stroke-linejoin="round" stroke-dasharray="3.83 16.12"/>
<path d="M1801.48 345.797L1828.63 345.901" stroke="black" stroke-width="10.0788" stroke-linecap="round" stroke-linejoin="round" stroke-dasharray="3.83 16.12"/>
<path d="M1821.77 369.22V309.861" stroke="black" stroke-width="10.0788" stroke-linecap="round" stroke-linejoin="round" stroke-dasharray="3.83 16.12"/>
<path d="M1676.85 324.24C1712.92 324.24 1742.15 295.014 1742.15 258.948C1742.15 222.882 1712.92 193.656 1676.85 193.656C1640.79 193.656 1611.56 222.882 1611.56 258.948C1611.56 295.014 1640.79 324.24 1676.85 324.24Z" stroke="black" stroke-width="10.0788" stroke-linecap="round" stroke-linejoin="round" stroke-dasharray="3.83 16.12"/>
<path d="M1707.07 200.91C1718.98 207.077 1728.86 216.897 1735.07 228.789L1735.31 228.271L1755.13 181.323L1707.14 200.91H1707.07Z" stroke="black" stroke-width="10.0788" stroke-linecap="round" stroke-linejoin="round" stroke-dasharray="3.83 16.12"/>
<path d="M1739.43 239.309C1741.4 245.527 1742.46 252.082 1742.46 258.948C1742.46 265.814 1741.35 272.654 1739.32 279.002L1787.26 259.363L1739.45 239.257V239.309H1739.43Z" stroke="black" stroke-width="10.0788" stroke-linecap="round" stroke-linejoin="round" stroke-dasharray="3.83 16.12"/>
</svg>
