<svg width="343" height="206" viewBox="1504 806 343 206" fill="none" xmlns="http://www.w3.org/2000/svg">
<rect x="1504" y="806" width="343" height="206" fill="#FCFCFC"/>
<path d="M1677.44 911.329H1677.5C1678.84 915.865 1680.33 920.043 1682.33 924.139L1682.44 924.386V924.578C1681.45 928.674 1677.55 931.698 1673.26 931.698C1668.97 931.698 1665.29 928.867 1664.08 924.963L1652.62 888.871C1651.93 887.029 1651.63 885.133 1651.63 883.044C1651.63 873.615 1659.3 865.946 1668.73 865.946C1670.51 865.946 1672.22 866.248 1673.76 866.688C1673.81 866.688 1674.36 866.935 1674.36 866.935V867.375C1674 869.519 1673.76 870.316 1673.62 872.598" stroke="black" stroke-width="2.74883" stroke-linecap="round" stroke-linejoin="round" stroke-dasharray="3.82 15.42"/>
<path d="M1682.14 832.74C1678.4 837.825 1675.76 846.402 1673.68 854.676C1673.18 856.71 1672.33 861.053 1671.89 865.643C1672.74 865.836 1673.59 866.083 1674.47 866.441H1674.53L1674.97 866.551C1679.39 864.461 1682.69 857.837 1684.89 845.522C1685.94 839.694 1685.74 835.764 1685.44 833.702C1684.34 833.4 1683.19 833.015 1682.14 832.712V832.74Z" stroke="black" stroke-width="2.74883" stroke-linecap="round" stroke-linejoin="round" stroke-dasharray="3.82 15.42"/>
<path d="M1709.3 872.405C1711.36 872.405 1713.04 870.728 1713.04 868.667C1713.04 866.605 1711.36 864.928 1709.3 864.928C1707.24 864.928 1705.56 866.605 1705.56 868.667C1705.56 870.728 1707.24 872.405 1709.3 872.405Z" stroke="black" stroke-width="2.74883" stroke-linecap="round" stroke-linejoin="round" stroke-dasharray="3.82 15.42"/>
<path d="M1697.48 858.442C1700.56 855.61 1704.65 853.851 1709.14 853.851C1713.92 853.851 1718.21 855.803 1721.34 858.991" stroke="black" stroke-width="2.74883" stroke-linecap="round" stroke-linejoin="round" stroke-dasharray="3.82 15.42"/>
<path d="M1695.53 871.553C1698.66 867.457 1703.61 864.818 1709.14 864.818C1715.02 864.818 1720.24 867.814 1723.29 872.35" stroke="black" stroke-width="2.74883" stroke-linecap="round" stroke-linejoin="round" stroke-dasharray="3.82 15.42"/>
<path d="M1782.91 841.151C1782.06 834.169 1781.62 832.575 1781.62 832.575C1768.62 837.11 1752.7 839.612 1734.73 839.859C1717.74 840.161 1699.54 837.66 1685.83 833.729L1685.52 834.279C1685.72 836.533 1685.72 840.904 1684.92 845.549C1682.77 857.809 1678.9 864.681 1674.55 866.743C1673.81 871.718 1673.4 876.913 1673.4 882.136C1673.4 925.953 1700.81 961.495 1734.62 961.495C1768.43 961.495 1795.83 925.953 1795.83 882.136C1795.83 876.803 1795.39 871.608 1794.68 866.578C1789.54 862.894 1784.62 854.51 1782.97 841.069L1782.91 841.124V841.151Z" stroke="black" stroke-width="2.74883" stroke-linecap="round" stroke-linejoin="round" stroke-dasharray="3.82 15.42"/>
<path d="M1794.62 866.715C1789.79 862.674 1785 856.407 1782.91 841.096C1781.92 834.114 1781.62 832.52 1781.62 832.52C1768.26 836.945 1752.32 839.639 1734.73 839.804C1715.35 840.051 1695.06 836.973 1680.74 832.08C1680.49 832.025 1680.38 831.64 1680.55 831.475C1689.48 817.511 1712.41 807.753 1736.38 807.45C1752.43 807.258 1768.07 812.288 1778.79 819.27C1779.23 819.518 1779.59 819.765 1780.03 820.067C1787.56 825.4 1797.13 838.759 1799.76 852.009C1800.26 854.51 1801.22 860.338 1801.41 865.725C1798.36 865.725 1794.68 866.715 1794.68 866.715H1794.62Z" stroke="black" stroke-width="2.74883" stroke-linecap="round" stroke-linejoin="round" stroke-dasharray="3.82 15.42"/>
<path d="M1759.74 872.405C1761.8 872.405 1763.48 870.728 1763.48 868.667C1763.48 866.605 1761.8 864.928 1759.74 864.928C1757.68 864.928 1756 866.605 1756 868.667C1756 870.728 1757.68 872.405 1759.74 872.405Z" stroke="black" stroke-width="2.74883" stroke-linecap="round" stroke-linejoin="round" stroke-dasharray="3.82 15.42"/>
<path d="M1747.87 858.442C1750.92 855.61 1755.04 853.851 1759.52 853.851C1764.31 853.851 1768.59 855.803 1771.73 858.991" stroke="black" stroke-width="2.74883" stroke-linecap="round" stroke-linejoin="round" stroke-dasharray="3.82 15.42"/>
<path d="M1745.89 871.553C1749.02 867.457 1753.97 864.818 1759.49 864.818C1765.38 864.818 1770.6 867.814 1773.65 872.35" stroke="black" stroke-width="2.74883" stroke-linecap="round" stroke-linejoin="round" stroke-dasharray="3.82 15.42"/>
<path d="M1795.37 872.406C1795.17 870.124 1795.01 869.409 1794.63 867.183V866.743C1794.63 866.743 1795.12 866.551 1795.23 866.496C1796.82 866.001 1798.53 865.753 1800.26 865.753C1809.69 865.753 1817.36 873.423 1817.36 882.851C1817.36 884.885 1817.06 886.837 1816.37 888.679L1804.91 924.771C1803.67 928.702 1800.07 931.506 1795.72 931.506C1791.38 931.506 1787.51 928.509 1786.46 924.386V924.194L1786.65 923.946C1788.69 919.85 1790.14 915.727 1791.49 911.137H1791.55" stroke="black" stroke-width="2.74883" stroke-linecap="round" stroke-linejoin="round" stroke-dasharray="3.82 15.42"/>
<path d="M1649.43 915.618C1646.3 919.714 1641.35 922.353 1635.82 922.353C1629.94 922.353 1624.72 919.356 1621.67 914.821" stroke="black" stroke-width="2.74883" stroke-linecap="round" stroke-linejoin="round" stroke-dasharray="3.82 15.42"/>
<path d="M1661.06 872.405C1663.12 872.405 1664.8 870.728 1664.8 868.667C1664.8 866.605 1663.12 864.928 1661.06 864.928C1659 864.928 1657.32 866.605 1657.32 868.667C1657.32 870.728 1659 872.405 1661.06 872.405Z" stroke="black" stroke-width="2.74883" stroke-linecap="round" stroke-linejoin="round" stroke-dasharray="3.82 15.42"/>
<path d="M1669.47 877.354C1667.02 878.701 1664.14 879.498 1661.14 879.498C1658.14 879.498 1655.2 878.646 1652.67 877.244" stroke="black" stroke-width="2.74883" stroke-linecap="round" stroke-linejoin="round" stroke-dasharray="3.82 15.42"/>
<path d="M1647.23 871.553C1650.37 867.457 1655.31 864.818 1660.84 864.818C1666.72 864.818 1671.94 867.814 1675 872.35" stroke="black" stroke-width="2.74883" stroke-linecap="round" stroke-linejoin="round" stroke-dasharray="3.82 15.42"/>
<path d="M1708.8 887.168C1709.11 886.37 1709.24 885.518 1709.24 884.666C1709.24 880.625 1705.95 877.299 1701.88 877.299C1700.78 877.299 1699.73 877.547 1698.74 878.041C1698.94 879.993 1699.05 882.027 1699.05 884.116C1699.05 890.851 1698 897.283 1696.21 903.166L1696.32 903.523C1697.07 904.76 1698.36 905.612 1699.95 905.612C1701.8 905.612 1703.39 904.375 1703.88 902.671L1708.78 887.113V887.168H1708.8Z" stroke="black" stroke-width="2.74883" stroke-linecap="round" stroke-linejoin="round" stroke-dasharray="3.82 15.42"/>
<path d="M1696.68 872.406C1696.49 870.124 1696.32 869.409 1695.94 867.183V866.743C1695.94 866.743 1696.43 866.551 1696.54 866.496C1698.14 866.001 1699.84 865.753 1701.57 865.753C1711 865.753 1718.67 873.423 1718.67 882.851C1718.67 884.885 1718.37 886.837 1717.68 888.679L1706.22 924.771C1704.98 928.702 1701.38 931.506 1697.04 931.506C1692.7 931.506 1688.82 928.509 1687.78 924.386V924.194L1687.97 923.946C1690 919.85 1691.46 915.727 1692.81 911.137H1692.86" stroke="black" stroke-width="2.74883" stroke-linecap="round" stroke-linejoin="round" stroke-dasharray="3.82 15.42"/>
<path d="M1639.2 953.91V1025.43" stroke="black" stroke-width="2.74883" stroke-linecap="round" stroke-linejoin="round" stroke-dasharray="3.82 15.42"/>
<path d="M1664.88 946.323V1025.43" stroke="black" stroke-width="2.74883" stroke-linecap="round" stroke-linejoin="round" stroke-dasharray="3.82 15.42"/>
<path d="M1677.44 911.33H1677.5C1678.84 915.866 1680.33 920.044 1682.33 924.14L1682.44 924.387V924.579C1681.45 928.675 1677.55 931.699 1673.26 931.699C1668.97 931.699 1665.29 928.868 1664.08 924.964L1652.62 888.872C1651.93 887.03 1651.63 885.134 1651.63 883.045C1651.63 873.616 1659.3 865.947 1668.73 865.947C1670.51 865.947 1672.22 866.249 1673.76 866.689C1673.81 866.689 1674.36 866.936 1674.36 866.936V867.376C1674 869.52 1673.76 870.317 1673.62 872.599" stroke="black" stroke-width="2.74883" stroke-linecap="round" stroke-linejoin="round" stroke-dasharray="3.82 15.42"/>
<path d="M1643.85 951.82H1704.57" stroke="black" stroke-width="2.74883" stroke-linecap="round" stroke-linejoin="round" stroke-dasharray="3.82 15.42"/>
<path d="M1675.71 943.876V1025.46" stroke="black" stroke-width="2.74883" stroke-linecap="round" stroke-linejoin="round" stroke-dasharray="3.82 15.42"/>
<path d="M1703.17 951.023V1025.43" stroke="black" stroke-width="2.74883" stroke-linecap="round" stroke-linejoin="round" stroke-dasharray="3.82 15.42"/>
<path d="M1748.11 915.619C1744.98 919.715 1740.03 922.354 1734.51 922.354C1728.62 922.354 1723.4 919.357 1720.35 914.822" stroke="black" stroke-width="2.74883" stroke-linecap="round" stroke-linejoin="round" stroke-dasharray="3.82 15.42"/>
<path d="M1782.91 841.153C1782.06 834.171 1781.62 832.577 1781.62 832.577C1768.62 837.112 1752.7 839.614 1734.73 839.861C1717.74 840.163 1699.54 837.662 1685.83 833.731L1685.52 834.281C1685.72 836.535 1685.72 840.906 1684.92 845.551C1682.77 857.811 1678.9 864.683 1674.55 866.745C1673.81 871.72 1673.4 876.915 1673.4 882.138C1673.4 925.955 1700.81 961.497 1734.62 961.497C1768.43 961.497 1795.83 925.955 1795.83 882.138C1795.83 876.805 1795.39 871.61 1794.68 866.58C1789.54 862.896 1784.62 854.512 1782.97 841.071L1782.91 841.126V841.153Z" stroke="black" stroke-width="2.74883" stroke-linecap="round" stroke-linejoin="round" stroke-dasharray="3.82 15.42"/>
<path d="M1734.56 961.578C1723.65 961.578 1713.42 957.84 1704.6 951.408L1734.31 1024.03L1765.02 951.05C1756 957.73 1745.64 961.578 1734.56 961.578Z" stroke="black" stroke-width="2.74883" stroke-linecap="round" stroke-linejoin="round" stroke-dasharray="3.82 15.42"/>
<path d="M1765.93 1025.43V951.023" stroke="black" stroke-width="2.74883" stroke-linecap="round" stroke-linejoin="round" stroke-dasharray="3.82 15.42"/>
<path d="M1793.39 995.774V945.223" stroke="black" stroke-width="2.74883" stroke-linecap="round" stroke-linejoin="round" stroke-dasharray="3.82 15.42"/>
<path d="M1766.42 951.82H1825.14" stroke="black" stroke-width="2.74883" stroke-linecap="round" stroke-linejoin="round" stroke-dasharray="3.82 15.42"/>
<path d="M1795.37 872.407C1795.17 870.125 1795.01 869.41 1794.63 867.184V866.744C1794.63 866.744 1795.12 866.552 1795.23 866.497C1796.82 866.002 1798.53 865.754 1800.26 865.754C1809.69 865.754 1817.36 873.424 1817.36 882.852C1817.36 884.886 1817.06 886.838 1816.37 888.68L1804.91 924.772C1803.67 928.703 1800.07 931.506 1795.72 931.506C1791.38 931.506 1787.51 928.51 1786.46 924.387V924.195L1786.65 923.947C1788.69 919.851 1790.14 915.728 1791.49 911.138H1791.55" stroke="black" stroke-width="2.74883" stroke-linecap="round" stroke-linejoin="round" stroke-dasharray="3.82 15.42"/>
<path d="M1804.24 995.775V945.883" stroke="black" stroke-width="2.74883" stroke-linecap="round" stroke-linejoin="round" stroke-dasharray="3.82 15.42"/>
<path d="M1829.92 1025.43V953.91" stroke="black" stroke-width="2.74883" stroke-linecap="round" stroke-linejoin="round" stroke-dasharray="3.82 15.42"/>
<path d="M1656.22 1025.43V975.679" stroke="black" stroke-width="2.74883" stroke-linecap="round" stroke-linejoin="round" stroke-dasharray="3.82 15.42"/>
<path d="M1645.5 1000.61L1682.77 1000.67" stroke="black" stroke-width="2.74883" stroke-linecap="round" stroke-linejoin="round" stroke-dasharray="3.82 15.42"/>
<path d="M1667.27 1025.43V951.021" stroke="black" stroke-width="2.74883" stroke-linecap="round" stroke-linejoin="round" stroke-dasharray="3.82 15.42"/>
<path d="M1694.73 995.773V945.222" stroke="black" stroke-width="2.74883" stroke-linecap="round" stroke-linejoin="round" stroke-dasharray="3.82 15.42"/>
<path d="M1682.77 1025.43V1000.72C1682.77 998.384 1684.67 996.542 1686.95 996.542H1716.61C1718.95 996.542 1720.79 998.439 1720.79 1000.72V1025.43H1682.8H1682.77Z" stroke="black" stroke-width="2.74883" stroke-linecap="round" stroke-linejoin="round" stroke-dasharray="3.82 15.42"/>
<path d="M1657.15 975.625L1748.42 975.734" stroke="black" stroke-width="2.74883" stroke-linecap="round" stroke-linejoin="round" stroke-dasharray="3.82 15.42"/>
<path d="M1705.56 995.773V945.881" stroke="black" stroke-width="2.74883" stroke-linecap="round" stroke-linejoin="round" stroke-dasharray="3.82 15.42"/>
<path d="M1731.24 1025.43V953.908" stroke="black" stroke-width="2.74883" stroke-linecap="round" stroke-linejoin="round" stroke-dasharray="3.82 15.42"/>
<path d="M1720.76 1000.56L1749.57 1000.67" stroke="black" stroke-width="2.74883" stroke-linecap="round" stroke-linejoin="round" stroke-dasharray="3.82 15.42"/>
<path d="M1742.29 1025.38V962.429" stroke="black" stroke-width="2.74883" stroke-linecap="round" stroke-linejoin="round" stroke-dasharray="3.82 15.42"/>
</svg>
