<svg width="1920" height="1080" viewBox="0 0 1920 1080" fill="none" xmlns="http://www.w3.org/2000/svg">
<rect width="1920" height="1080" fill="#FCFCFC"/>
<path d="M93.899 69.9266H93.668L93.437 64.6976C93.311 61.6316 92.828 61.0646 90.455 61.0646L87.557 61.0646L88.481 68.0786L87.977 69.6326L83.609 69.6326V69.2546L84.344 67.2176H86.843L85.562 61.0646L83.84 61.0646L83.735 60.4766C83.735 60.3086 85.121 57.4736 85.247 57.3896H86.087L86.213 58.1036C86.297 58.6286 86.339 58.6706 86.759 58.6706L91.484 58.6706C94.361 58.6706 95.159 59.5316 95.222 62.7026C95.264 64.3196 95.201 67.5116 95.096 69.1076C95.054 69.1916 93.983 69.9266 93.899 69.9266ZM100.397 69.9266H100.145L100.04 64.0256C100.019 61.9466 99.8092 61.5686 98.5912 60.9596L97.0582 60.1616C97.0372 60.0356 97.6252 57.8516 97.7092 57.7256H98.1082C98.8012 58.0196 99.3262 58.2506 100.124 58.6706C101.615 59.4686 101.909 59.9726 101.888 62.4506C101.867 64.0676 101.741 67.5116 101.636 69.0656C101.594 69.1286 100.481 69.9056 100.397 69.9266ZM106.664 65.6846L105.278 66.0416L105.131 65.8316L106.013 63.6896C106.622 62.2406 106.517 61.7576 105.404 61.0646L103.787 60.0566C103.787 59.9096 104.585 57.7886 104.669 57.7256L105.068 57.7256C105.95 58.2086 106.58 58.5866 107.315 59.0696C108.701 60.0566 108.869 61.1066 107.945 63.1856C107.504 64.1726 107.021 65.1176 106.664 65.6846ZM117.162 69.8846H116.658L116.49 67.2386C118.443 64.7816 119.598 62.8076 119.598 61.8626C119.598 61.2956 119.304 61.0646 118.59 61.0646L110.61 61.0646L110.505 60.4766C110.505 60.2876 111.912 57.4736 112.038 57.3896H112.815L112.941 58.1036C113.025 58.6076 113.067 58.6706 113.487 58.6706L118.947 58.6706C120.69 58.6706 121.299 59.2586 121.299 60.8756C121.299 63.6686 119.85 66.8396 117.162 69.8846ZM112.332 73.2446H111.891C111.618 70.4936 111.45 64.9286 111.618 63.4796C111.702 63.3746 113.13 62.4086 113.193 62.4296L113.529 62.4926C113.55 65.6846 113.676 69.1286 113.886 71.7956C113.781 71.9426 112.395 73.2656 112.332 73.2446ZM127.188 69.6326H122.652V69.2546L123.387 67.2176H126.684L126.516 64.0046C126.411 62.1566 126.159 61.7366 124.689 60.9596L123.051 60.0986C123.03 59.9726 123.555 57.8726 123.66 57.7256H124.143C124.941 58.0826 125.466 58.3136 126.117 58.6916C127.755 59.5946 128.133 60.3086 128.175 62.6606C128.196 64.0676 128.112 66.2936 127.965 67.5536L127.188 69.6326ZM138.167 57.7676H138.587C138.839 58.5866 138.944 59.5946 138.944 60.6026C138.944 62.9966 138.314 65.6636 137.159 67.3856C136.193 68.8556 133.232 70.5356 129.893 71.5016L129.767 71.1446L130.418 68.7716C131.573 68.3936 132.644 67.9736 133.568 67.5536C132.917 65.3486 131.657 62.3456 130.334 59.9516C130.334 59.8256 131.573 57.7676 131.678 57.7256H132.098C133.127 59.6786 134.345 63.7106 134.87 66.8816C135.5 66.5036 135.983 66.1466 136.235 65.8316C136.718 65.2646 136.97 64.4456 136.97 63.2906C136.97 62.2826 136.781 60.9806 136.403 59.3426C136.424 59.2376 138.041 57.7886 138.167 57.7676ZM156.503 69.6326L146.402 69.6326C146.381 68.9186 146.36 67.8056 146.36 66.3356C146.36 63.1436 146.444 59.3846 146.57 57.6416L148.145 57.4526L148.271 58.0826C148.355 58.5656 148.46 58.6706 148.901 58.6706L153.374 58.6706C155.537 58.6706 156.587 59.6156 156.713 61.6946C156.776 62.5766 156.755 63.3326 156.755 64.2986C156.755 65.9156 156.65 68.2886 156.503 69.6326ZM148.019 61.0646L148.292 67.2176L155.18 67.2176C155.096 65.0336 155.033 64.0676 154.907 62.9336C154.781 61.6526 154.13 61.0646 152.807 61.0646L148.019 61.0646ZM161.42 65.6846L160.034 66.0416L159.887 65.8316L160.769 63.6896C161.378 62.2406 161.273 61.7576 160.16 61.0646L158.543 60.0566C158.543 59.9096 159.341 57.7886 159.425 57.7256H159.824C160.706 58.2086 161.336 58.5866 162.071 59.0696C163.457 60.0566 163.625 61.1066 162.701 63.1856C162.26 64.1726 161.777 65.1176 161.42 65.6846ZM167.613 65.6846L166.227 66.0416L166.08 65.8316L166.962 63.6896C167.571 62.2406 167.466 61.7576 166.353 61.0646L164.736 60.0566C164.736 59.9096 165.534 57.7886 165.618 57.7256H166.017C166.899 58.2086 167.529 58.5866 168.264 59.0696C169.65 60.0566 169.818 61.1066 168.894 63.1856C168.453 64.1726 167.97 65.1176 167.613 65.6846ZM175.34 69.6326H170.804V69.2546L171.539 67.2176H174.836L174.668 64.0046C174.563 62.1566 174.311 61.7366 172.841 60.9596L171.203 60.0986C171.182 59.9726 171.707 57.8726 171.812 57.7256H172.295C173.093 58.0826 173.618 58.3136 174.269 58.6916C175.907 59.5946 176.285 60.3086 176.327 62.6606C176.348 64.0676 176.264 66.2936 176.117 67.5536L175.34 69.6326ZM181.11 69.9056H180.774C179.934 67.3436 179.514 65.2016 179.514 63.5006C179.514 62.5346 179.661 61.7156 179.934 61.0016C179.22 60.7496 178.569 60.4346 178.191 60.1406C178.17 60.0356 178.695 58.4816 179.01 57.7256H179.304C180.942 58.6496 182.244 59.0276 184.428 59.1956L183.378 61.5896C182.622 61.6106 181.719 61.4426 181.467 61.4426C180.963 61.4216 180.774 61.6946 180.774 62.3666C180.774 63.6266 181.362 65.4956 182.559 67.9526C182.517 68.1206 181.194 69.8846 181.11 69.9056ZM189.176 69.9266H188.924L188.819 64.0256C188.798 61.9466 188.588 61.5686 187.37 60.9596L185.837 60.1616C185.816 60.0356 186.404 57.8516 186.488 57.7256H186.887C187.58 58.0196 188.105 58.2506 188.903 58.6706C190.394 59.4686 190.688 59.9726 190.667 62.4506C190.646 64.0676 190.52 67.5116 190.415 69.0656C190.373 69.1286 189.26 69.9056 189.176 69.9266ZM201.574 64.9706C202.33 65.8316 203.149 66.7976 204.052 67.8686C204.052 68.0366 203.359 69.9056 203.233 70.0736L202.876 70.0736C200.797 67.5116 198.949 65.4746 196.828 63.3956C196.093 64.0886 195.799 65.1176 195.715 67.0496L195.652 69.3176L193.825 69.8426L193.342 69.8426C193.405 68.6036 193.447 68.2676 193.51 67.2596C193.762 64.8236 194.308 63.5636 195.715 62.3456C194.917 61.5896 194.056 60.8126 193.132 59.9936C193.111 59.8886 193.867 57.9356 193.972 57.7676H194.371C196.597 59.6996 198.445 61.4846 200.65 63.9206C201.217 62.6816 201.364 62.0936 201.364 61.3166C201.364 60.7076 201.301 60.2456 201.133 59.3216C201.28 59.0906 202.897 57.8096 203.002 57.7886L203.506 57.8516C203.695 58.4396 203.779 59.0486 203.779 59.7206C203.779 61.3166 203.107 62.9546 201.574 64.9706ZM220.863 69.9266H220.632L220.401 64.6976C220.275 61.6316 219.792 61.0646 217.419 61.0646L214.521 61.0646L215.445 68.0786L214.941 69.6326H210.573V69.2546L211.308 67.2176H213.807L212.526 61.0646L210.804 61.0646L210.699 60.4766C210.699 60.3086 212.085 57.4736 212.211 57.3896L213.051 57.3896L213.177 58.1036C213.261 58.6286 213.303 58.6706 213.723 58.6706L218.448 58.6706C221.325 58.6706 222.123 59.5316 222.186 62.7026C222.228 64.3196 222.165 67.5116 222.06 69.1076C222.018 69.1916 220.947 69.9266 220.863 69.9266ZM227.361 69.9266H227.109L227.004 64.0256C226.983 61.9466 226.773 61.5686 225.555 60.9596L224.022 60.1616C224.001 60.0356 224.589 57.8516 224.673 57.7256H225.072C225.765 58.0196 226.29 58.2506 227.088 58.6706C228.579 59.4686 228.873 59.9726 228.852 62.4506C228.831 64.0676 228.705 67.5116 228.6 69.0656C228.558 69.1286 227.445 69.9056 227.361 69.9266ZM240.22 59.3636C240.22 60.8966 239.485 62.4086 237.91 64.2146C238.624 65.1806 239.296 66.1466 240.136 67.3646L239.317 69.6326L231.064 69.6326V69.2546L231.841 67.2176L238.099 67.2176V67.0916C236.398 65.2226 234.823 63.6686 231.19 60.3086C231.148 60.1826 231.904 57.8516 231.988 57.7256H232.408C234.655 60.2036 236.02 61.7786 237.133 63.1856C237.679 62.2406 237.868 61.7366 237.868 61.0016C237.868 60.5396 237.784 60.0146 237.616 59.1116C237.763 58.9436 239.422 57.7886 239.506 57.7676H239.968C240.136 58.2926 240.22 58.8176 240.22 59.3636ZM251.167 69.6326L242.179 69.6326V69.2546L242.935 67.2176L248.941 67.2176L248.731 62.8496C248.668 61.5686 248.122 61.0646 246.82 61.0646L242.389 61.0646L242.284 60.4556C242.284 60.2876 243.67 57.4526 243.817 57.3896H244.594L244.72 58.1036C244.804 58.6286 244.867 58.6706 245.245 58.6706L247.765 58.6706C249.676 58.6706 250.495 59.4476 250.516 61.3376C250.516 63.5006 250.474 65.4746 250.495 66.0206C250.516 67.0916 250.537 67.1966 251.482 67.4276L251.839 67.5326L251.167 69.6326ZM264.08 57.7886H264.416C264.752 58.6706 264.92 59.5736 264.92 60.5606C264.92 65.3486 261.161 69.9266 257.192 69.9266C254.714 69.9266 254.462 68.1416 253.958 64.9496C253.643 62.8706 253.454 61.2326 252.908 59.6156C252.887 59.5106 254.21 57.8306 254.336 57.8096H254.651C255.05 58.6286 255.239 59.8046 255.554 63.7946C257.612 62.8706 258.053 62.3876 257.969 61.4216C257.906 61.0226 257.822 60.5396 257.549 59.2796C257.591 59.1536 259.04 57.8096 259.103 57.8096H259.46C259.754 58.7756 259.901 59.6156 259.901 60.3086C259.901 62.5976 258.431 63.7736 255.722 65.4326C255.974 66.9866 256.436 67.3856 257.591 67.3856C260.258 67.3856 262.925 64.6766 262.925 62.0096C262.925 61.2536 262.799 60.4346 262.463 59.3426C262.484 59.2166 263.954 57.8096 264.08 57.7886ZM277.938 63.7736C277.959 65.0546 277.896 66.4196 277.728 67.8476L277.035 69.6326L270.672 69.6326V69.2336L271.386 67.2176L276.552 67.1966C276.531 62.5766 275.628 60.7496 273.297 60.7496C271.071 60.7496 269.853 63.1226 268.95 69.2756L267.459 69.9056H266.913C267.27 67.3226 268.236 64.2356 269.349 61.9886L266.85 60.1826C266.829 60.0566 267.417 57.8306 267.48 57.7466H267.942L271.05 59.9516L271.911 58.4816C272.709 58.3766 273.276 58.3136 273.822 58.3136C276.72 58.3136 277.833 59.7836 277.938 63.7736ZM294.917 69.9266H294.686L294.455 64.6976C294.329 61.6316 293.846 61.0646 291.473 61.0646H288.575L289.499 68.0786L288.995 69.6326L284.627 69.6326V69.2546L285.362 67.2176L287.861 67.2176L286.58 61.0646H284.858L284.753 60.4766C284.753 60.3086 286.139 57.4736 286.265 57.3896H287.105L287.231 58.1036C287.315 58.6286 287.357 58.6706 287.777 58.6706L292.502 58.6706C295.379 58.6706 296.177 59.5316 296.24 62.7026C296.282 64.3196 296.219 67.5116 296.114 69.1076C296.072 69.1916 295.001 69.9266 294.917 69.9266ZM305.615 69.9266H305.279C305.216 67.2386 305.216 65.9576 305.174 64.5086C305.048 61.5476 304.67 61.0646 302.528 61.0646L298.349 61.0646L298.244 60.4766C298.244 60.3086 299.63 57.4736 299.756 57.3896L300.554 57.3896L300.68 58.1036C300.764 58.6076 300.806 58.6706 301.205 58.6706H303.515C306.245 58.6706 307.001 59.4686 307.022 62.3666C307.022 64.6346 306.896 67.6796 306.77 69.0656C306.707 69.1706 305.678 69.9056 305.615 69.9266ZM319.259 69.9266H319.028L318.797 64.6976C318.671 61.6316 318.188 61.0646 315.815 61.0646H312.917L313.841 68.0786L313.337 69.6326L308.969 69.6326V69.2546L309.704 67.2176H312.203L310.922 61.0646H309.2L309.095 60.4766C309.095 60.3086 310.481 57.4736 310.607 57.3896H311.447L311.573 58.1036C311.657 58.6286 311.699 58.6706 312.119 58.6706L316.844 58.6706C319.721 58.6706 320.519 59.5316 320.582 62.7026C320.624 64.3196 320.561 67.5116 320.456 69.1076C320.414 69.1916 319.343 69.9266 319.259 69.9266ZM330.777 69.6326L322.587 69.6326V69.2546L323.301 67.2176L330.357 67.2176C330.357 66.4196 330.336 65.7686 330.21 64.6136C329.979 61.9676 329.643 61.4846 327.459 60.7496C326.577 60.4136 325.947 60.2456 325.233 60.1196C324.897 61.9256 324.981 62.1776 326.052 62.6816L326.808 63.0386L326.472 65.0966L325.968 65.0966C323.931 64.3196 323.406 63.8156 323.406 62.5976C323.406 61.6736 324.036 59.5946 324.876 57.7256H325.863L327.753 58.2506C331.26 59.2166 331.785 59.9306 331.785 64.0466C331.785 65.1176 331.68 66.8186 331.533 67.6376L330.777 69.6326ZM336.832 69.9266H336.58L336.475 64.0256C336.454 61.9466 336.244 61.5686 335.026 60.9596L333.493 60.1616C333.472 60.0356 334.06 57.8516 334.144 57.7256H334.543C335.236 58.0196 335.761 58.2506 336.559 58.6706C338.05 59.4686 338.344 59.9726 338.323 62.4506C338.302 64.0676 338.176 67.5116 338.071 69.0656C338.029 69.1286 336.916 69.9056 336.832 69.9266ZM347.591 69.6326L340.451 69.6326V69.2546L341.186 67.2176L346.499 67.2176C347.171 67.2176 347.36 67.0496 347.528 66.3986C347.633 65.9366 347.717 65.0126 347.717 64.4246C347.717 61.9046 346.877 61.0646 344.462 61.0646L340.724 61.0646L340.619 60.4556C340.619 60.2876 342.026 57.4526 342.152 57.3896H342.95L343.076 58.1036C343.16 58.6076 343.202 58.6706 343.601 58.6706L345.302 58.6706C348.284 58.6706 349.313 59.8046 349.313 63.0176C349.313 65.2436 348.62 67.8476 347.591 69.6326ZM362.205 63.7736C362.226 65.0546 362.163 66.4196 361.995 67.8476L361.302 69.6326L354.939 69.6326V69.2336L355.653 67.2176L360.819 67.1966C360.798 62.5766 359.895 60.7496 357.564 60.7496C355.338 60.7496 354.12 63.1226 353.217 69.2756L351.726 69.9056H351.18C351.537 67.3226 352.503 64.2356 353.616 61.9886L351.117 60.1826C351.096 60.0566 351.684 57.8306 351.747 57.7466H352.209L355.317 59.9516L356.178 58.4816C356.976 58.3766 357.543 58.3136 358.089 58.3136C360.987 58.3136 362.1 59.7836 362.205 63.7736Z" fill="black"/>
<path fill-rule="evenodd" clip-rule="evenodd" d="M97.7678 993.232C98.7441 994.209 98.7441 995.791 97.7678 996.768L89.5355 1005L97.7678 1013.23C98.7441 1014.21 98.7441 1015.79 97.7678 1016.77C96.7915 1017.74 95.2085 1017.74 94.2322 1016.77L84.2322 1006.77C83.2559 1005.79 83.2559 1004.21 84.2322 1003.23L94.2322 993.232C95.2085 992.256 96.7915 992.256 97.7678 993.232Z" fill="#101828"/>
<path fill-rule="evenodd" clip-rule="evenodd" d="M1410.23 1016.77C1409.26 1015.79 1409.26 1014.21 1410.23 1013.23L1418.46 1005L1410.23 996.768C1409.26 995.791 1409.26 994.209 1410.23 993.232C1411.21 992.256 1412.79 992.256 1413.77 993.232L1423.77 1003.23C1424.74 1004.21 1424.74 1005.79 1423.77 1006.77L1413.77 1016.77C1412.79 1017.74 1411.21 1017.74 1410.23 1016.77Z" fill="#101828"/>
<path d="M93.8563 202.01H82.8663L82.8663 142.65L93.8563 142.65V147.06L87.9063 147.06L87.9063 197.6H93.8563V202.01Z" fill="black"/>
<path d="M115.956 192.98C106.576 192.98 100.836 185.63 100.906 173.87C100.836 161.55 108.606 150.98 117.776 150.98C127.156 150.98 132.896 158.12 132.826 169.95C132.896 182.34 125.196 192.98 115.956 192.98ZM119.806 186.89C122.816 186.12 125.336 180.31 125.336 173.59C125.336 163.65 120.366 156.23 114.066 156.93C110.986 157.7 108.466 163.58 108.466 170.23C108.466 180.24 113.436 187.59 119.806 186.89ZM155.468 192.98C146.088 192.98 140.348 185.63 140.418 173.87C140.348 161.55 148.118 150.98 157.288 150.98C166.668 150.98 172.408 158.12 172.338 169.95C172.408 182.34 164.708 192.98 155.468 192.98ZM159.318 186.89C162.328 186.12 164.848 180.31 164.848 173.59C164.848 163.65 159.878 156.23 153.578 156.93C150.498 157.7 147.978 163.58 147.978 170.23C147.978 180.24 152.948 187.59 159.318 186.89ZM204.429 192H196.799L197.009 181.92L179.369 181.92L178.599 177.02L196.169 150.35L204.499 152.31L204.429 175.2L211.569 175.2L208.979 181.92L204.429 181.92V192ZM197.289 156.3L185.389 175.2L197.079 175.2L197.289 156.3Z" fill="black"/>
<path d="M772.333 192.91H771.213C770.723 179.26 770.583 174.5 770.233 169.11C770.093 165.26 768.203 163.44 764.283 163.44L741.043 163.44L740.693 161.48C740.693 160.92 745.383 151.47 745.733 151.19H748.393L748.813 153.57C749.093 155.32 749.233 155.46 750.633 155.46L766.593 155.46C773.663 155.46 776.673 158.4 776.813 165.54C776.883 167.01 776.883 168.9 776.883 170.86C776.883 177.58 776.603 186.05 776.253 190.25C776.043 190.53 772.683 192.84 772.333 192.91ZM745.173 192.91H743.773C743.563 189.48 743.423 185.7 743.423 182.27C743.423 177.86 743.563 173.87 743.913 171.14C744.123 170.86 748.883 167.85 749.163 167.92L750.283 168.13C750.143 176.53 750.213 183.53 750.493 189.34C750.283 189.69 745.523 192.91 745.173 192.91ZM792.69 178.84L788.07 180.03L787.58 179.33L790.52 172.19C792.55 167.36 792.2 165.75 788.49 163.44L783.1 160.08C783.1 159.59 785.76 152.52 786.04 152.31H787.37C790.31 153.92 792.41 155.18 794.86 156.79C799.48 160.08 800.04 163.58 796.96 170.51C795.49 173.8 793.88 176.95 792.69 178.84ZM827.683 192.84H826.003L825.443 184.02C831.953 175.83 835.803 169.25 835.803 166.1C835.803 164.21 834.823 163.44 832.443 163.44L805.843 163.44L805.493 161.48C805.493 160.85 810.183 151.47 810.603 151.19H813.193L813.613 153.57C813.893 155.25 814.033 155.46 815.433 155.46L833.633 155.46C839.443 155.46 841.473 157.42 841.473 162.81C841.473 172.12 836.643 182.69 827.683 192.84ZM811.583 204.04H810.113C809.203 194.87 808.643 176.32 809.203 171.49C809.483 171.14 814.243 167.92 814.453 167.99L815.573 168.2C815.643 178.84 816.063 190.32 816.763 199.21C816.413 199.7 811.793 204.11 811.583 204.04ZM872.413 192.98H871.293C871.083 184.02 871.083 179.75 870.943 174.92C870.523 165.05 869.263 163.44 862.123 163.44L848.193 163.44L847.843 161.48C847.843 160.92 852.463 151.47 852.883 151.19L855.543 151.19L855.963 153.57C856.243 155.25 856.383 155.46 857.713 155.46H865.413C874.513 155.46 877.033 158.12 877.103 167.78C877.103 175.34 876.683 185.49 876.263 190.11C876.053 190.46 872.623 192.91 872.413 192.98ZM894.164 192.98H893.324L892.974 173.31C892.904 166.38 892.204 165.12 888.144 163.09L883.034 160.43C882.964 160.01 884.924 152.73 885.204 152.31L886.534 152.31C888.844 153.29 890.594 154.06 893.254 155.46C898.224 158.12 899.204 159.8 899.134 168.06C899.064 173.45 898.644 184.93 898.294 190.11C898.154 190.32 894.444 192.91 894.164 192.98ZM920.153 192.98C912.453 192.98 911.193 186.82 910.143 178C908.673 165.89 908.183 162.18 906.993 158.47C907.133 157.98 911.053 152.87 911.613 152.45H912.943C913.853 154.55 914.273 157.77 915.113 168.55C915.953 179.75 916.793 184.37 921.623 184.37C928.483 184.37 936.463 175.76 936.463 168.41C936.463 164.49 934.013 162.32 929.533 162.32C927.223 162.32 924.353 162.95 921.203 164.21V156.58C924.633 154.83 928.203 153.92 931.353 153.92C938.143 153.92 942.063 157.84 942.063 164.84C942.063 179.54 931.563 192.98 920.153 192.98ZM971.254 201.31L965.864 203.76C968.314 196.13 969.504 190.74 969.644 186.12L978.254 182.27C977.834 188.15 975.314 194.87 971.254 201.31ZM1017.54 192.91L1016.42 192.91C1015.93 179.26 1015.79 174.5 1015.44 169.11C1015.3 165.26 1013.41 163.44 1009.49 163.44L986.248 163.44L985.898 161.48C985.898 160.92 990.588 151.47 990.938 151.19H993.598L994.018 153.57C994.298 155.32 994.438 155.46 995.838 155.46L1011.8 155.46C1018.87 155.46 1021.88 158.4 1022.02 165.54C1022.09 167.01 1022.09 168.9 1022.09 170.86C1022.09 177.58 1021.81 186.05 1021.46 190.25C1021.25 190.53 1017.89 192.84 1017.54 192.91ZM990.378 192.91H988.978C988.768 189.48 988.628 185.7 988.628 182.27C988.628 177.86 988.768 173.87 989.118 171.14C989.328 170.86 994.088 167.85 994.368 167.92L995.488 168.13C995.348 176.53 995.418 183.53 995.698 189.34C995.488 189.69 990.728 192.91 990.378 192.91ZM1066.87 152.52H1067.99C1069.11 155.46 1069.67 158.47 1069.67 161.76C1069.67 177.72 1057.14 192.98 1043.91 192.98C1035.65 192.98 1034.81 187.03 1033.13 176.39C1032.08 169.46 1031.45 164 1029.63 158.61C1029.56 158.26 1033.97 152.66 1034.39 152.59H1035.44C1036.77 155.32 1037.4 159.24 1038.45 172.54C1045.31 169.46 1046.78 167.85 1046.5 164.63C1046.29 163.3 1046.01 161.69 1045.1 157.49C1045.24 157.07 1050.07 152.59 1050.28 152.59H1051.47C1052.45 155.81 1052.94 158.61 1052.94 160.92C1052.94 168.55 1048.04 172.47 1039.01 178C1039.85 183.18 1041.39 184.51 1045.24 184.51C1054.13 184.51 1063.02 175.48 1063.02 166.59C1063.02 164.07 1062.6 161.34 1061.48 157.7C1061.55 157.28 1066.45 152.59 1066.87 152.52ZM1101.82 192L1074.52 192V190.74L1076.9 183.95L1100.42 183.95C1100.42 181.29 1100.35 179.12 1099.93 175.27C1099.16 166.45 1098.04 164.84 1090.76 162.39C1087.82 161.27 1085.72 160.71 1083.34 160.29C1082.22 166.31 1082.5 167.15 1086.07 168.83L1088.59 170.02L1087.47 176.88L1085.79 176.88C1079 174.29 1077.25 172.61 1077.25 168.55C1077.25 165.47 1079.35 158.54 1082.15 152.31H1085.44L1091.74 154.06C1103.43 157.28 1105.18 159.66 1105.18 173.38C1105.18 176.95 1104.83 182.62 1104.34 185.35L1101.82 192ZM1122.01 192.98H1121.17L1120.82 173.31C1120.75 166.38 1120.05 165.12 1115.99 163.09L1110.88 160.43C1110.81 160.01 1112.77 152.73 1113.05 152.31H1114.38C1116.69 153.29 1118.44 154.06 1121.1 155.46C1126.07 158.12 1127.05 159.8 1126.98 168.06C1126.91 173.45 1126.49 184.93 1126.14 190.11C1126 190.32 1122.29 192.91 1122.01 192.98ZM1138.69 192.98H1137.71C1137.57 191.79 1137.5 189.27 1137.5 184.02C1137.5 172.68 1137.85 157.49 1138.27 152.17L1143.66 151.54L1144.08 153.57C1144.43 155.18 1144.71 155.46 1146.18 155.46L1157.31 155.46C1167.88 155.46 1170.54 158.96 1170.54 172.96C1170.54 178 1170.4 184.65 1170.05 190.11C1169.84 190.32 1166.41 192.91 1166.13 192.98H1165.15C1164.87 185.28 1164.66 181.22 1164.52 177.09C1163.82 165.61 1162.14 163.44 1153.67 163.44L1143.45 163.44L1144.5 189.41C1144.36 189.69 1139.11 192.91 1138.69 192.98ZM1200.53 201.31L1195.14 203.76C1197.59 196.13 1198.78 190.74 1198.92 186.12L1207.53 182.27C1207.11 188.15 1204.59 194.87 1200.53 201.31ZM1234.95 159.03C1234.95 164.77 1231.94 170.02 1224.94 177.65C1227.81 184.23 1230.19 190.81 1231.73 196.76L1227.6 203.13H1226.2C1222.7 189.41 1214.09 170.93 1206.04 159.52C1206.04 159.17 1209.19 152.52 1209.54 152.31H1210.94C1215.28 158.4 1219.48 165.89 1223.12 173.52C1226.27 168.97 1227.53 167.01 1227.53 164.21C1227.53 162.46 1227.04 160.43 1226.13 157.14C1226.69 156.37 1232.08 152.45 1232.43 152.45H1233.76C1234.53 154.83 1234.95 156.93 1234.95 159.03ZM1250.83 178.84L1246.21 180.03L1245.72 179.33L1248.66 172.19C1250.69 167.36 1250.34 165.75 1246.63 163.44L1241.24 160.08C1241.24 159.59 1243.9 152.52 1244.18 152.31H1245.51C1248.45 153.92 1250.55 155.18 1253 156.79C1257.62 160.08 1258.18 163.58 1255.1 170.51C1253.63 173.8 1252.02 176.95 1250.83 178.84ZM1285.83 192.84L1284.15 192.84L1283.59 184.02C1290.1 175.83 1293.95 169.25 1293.95 166.1C1293.95 164.21 1292.97 163.44 1290.59 163.44L1263.99 163.44L1263.64 161.48C1263.64 160.85 1268.33 151.47 1268.75 151.19H1271.34L1271.76 153.57C1272.04 155.25 1272.18 155.46 1273.58 155.46L1291.78 155.46C1297.59 155.46 1299.62 157.42 1299.62 162.81C1299.62 172.12 1294.79 182.69 1285.83 192.84ZM1269.73 204.04H1268.26C1267.35 194.87 1266.79 176.32 1267.35 171.49C1267.63 171.14 1272.39 167.92 1272.6 167.99L1273.72 168.2C1273.79 178.84 1274.21 190.32 1274.91 199.21C1274.56 199.7 1269.94 204.11 1269.73 204.04Z" fill="black"/>
<path d="M1419.31 202.01H1408.25V197.6H1414.2L1414.2 147.06L1408.25 147.06V142.65L1419.31 142.65L1419.31 202.01Z" fill="black"/>
<path d="M1134.52 272.536V267.856H1130.56V266.182H1136.48V272.536H1134.52ZM1142.63 277L1141.55 266.182H1143.42L1143.94 271.366C1144.91 271.276 1145.62 270.646 1145.76 269.278L1146.05 266.182H1147.87L1147.58 269.422C1147.38 271.816 1146.23 272.788 1144.09 272.896L1144.34 275.344H1144.57C1147.78 275.344 1149.49 273.976 1149.95 269.062L1150.22 266.182H1152.1L1151.79 269.404C1151.25 275.326 1148.75 277 1143.73 277H1142.63ZM1159.48 272.536V267.856H1155.52V266.182H1161.45V272.536H1159.48ZM1174.43 277C1173.37 275.146 1172.2 273.274 1170.96 271.438C1169.84 271.816 1169.39 272.59 1169.19 273.976L1168.96 277H1167.07L1167.34 274.084C1167.64 271.816 1168.51 270.898 1170 270.286C1168.99 268.9 1167.99 267.568 1166.87 266.182H1169.08C1170.31 267.73 1171.41 269.296 1172.58 270.988C1173.67 270.61 1174.14 270.196 1174.38 268.342L1174.52 266.182H1176.37L1176.25 268.342C1175.91 270.79 1175.08 271.546 1173.49 272.104C1174.57 273.724 1175.58 275.362 1176.64 277H1174.43Z" fill="black"/>
<path d="M1240.68 279.592V267.856H1237.35V266.182H1242.64V279.592H1240.68ZM1252.94 277V267.856H1249.2V266.182H1254.92V277H1252.94ZM1267.51 271.042C1267.51 268.63 1266.86 267.856 1264.33 267.856H1260.74V266.182H1264.92C1268.12 266.182 1269.49 267.712 1269.49 270.772V277H1267.51V271.042ZM1273.55 277V275.344H1276.25C1279.07 275.344 1280.3 273.94 1280.3 271.42C1280.3 268.72 1278.8 267.856 1276.25 267.856H1273.55V266.182H1276.25C1280.28 266.182 1282.26 267.892 1282.26 271.42C1282.26 275.182 1280.23 277 1276.25 277H1273.55ZM1290.6 272.536V267.856H1286.64V266.182L1292.56 266.182V272.536L1290.6 272.536ZM1300.96 272.464C1300.31 269.962 1301.08 268.72 1302.54 267.856H1298.92V266.182H1306.82V267.838H1305.46C1304.16 267.838 1303.48 268.27 1303.08 268.864C1302.58 269.584 1302.54 270.466 1302.99 272.284L1304.12 277H1302.11L1300.96 272.464ZM1317.63 277V267.856H1310.88V266.182H1319.61V277H1317.63ZM1310.99 277V270.772H1312.95V277H1310.99ZM1342.39 271.042C1342.39 268.63 1341.75 267.856 1339.21 267.856H1335.63V266.182H1339.8C1343.01 266.182 1344.37 267.712 1344.37 270.772V277H1342.39V271.042ZM1352.79 277V267.856H1349.04V266.182H1354.77V277H1352.79ZM1364.8 277L1367.75 267.856H1360.5V266.182H1370.36V266.236L1366.8 277H1364.8ZM1360.7 279.808V270.772H1362.68V279.808H1360.7ZM1373.05 277L1374.81 267.856H1372.78V266.182H1378.11C1381.17 266.182 1382.46 267.712 1382.46 270.772V277H1377.37V275.344H1380.57V271.042C1380.57 268.63 1379.98 267.856 1377.55 267.856H1376.7L1374.9 277H1373.05Z" fill="black"/>
<path d="M1137.74 331.505H1137.5L1137.39 322.41C1137.37 320.389 1137.18 320.002 1135.95 319.378L1134.34 318.518C1134.32 318.411 1134.98 315.874 1135.09 315.723H1135.56C1136.42 316.067 1136.92 316.304 1137.63 316.712C1139.26 317.572 1139.5 318.131 1139.46 320.84C1139.43 324.323 1139.3 328.516 1139.18 330.516C1139.11 330.623 1137.8 331.505 1137.74 331.505ZM1144.22 324.13L1142.54 324.624L1142.34 324.431L1143.31 322.195C1143.94 320.733 1143.85 320.238 1142.82 319.55L1141.21 318.475C1141.18 318.325 1142.13 315.831 1142.24 315.723H1142.67C1143.55 316.239 1144.15 316.605 1144.84 317.078C1146.43 318.239 1146.58 319.292 1145.51 321.636C1145.08 322.603 1144.6 323.485 1144.22 324.13ZM1150.54 324.13L1148.86 324.624L1148.66 324.431L1149.63 322.195C1150.26 320.733 1150.17 320.238 1149.14 319.55L1147.53 318.475C1147.5 318.325 1148.45 315.831 1148.56 315.723H1148.99C1149.87 316.239 1150.47 316.605 1151.16 317.078C1152.75 318.239 1152.9 319.292 1151.83 321.636C1151.4 322.603 1150.92 323.485 1150.54 324.13ZM1162.34 315.766H1162.79C1163.09 316.691 1163.22 317.766 1163.22 318.884C1163.22 321.292 1162.57 323.915 1161.43 325.635C1160.42 327.204 1157.26 328.946 1153.67 329.935L1153.54 329.441L1154.32 326.839C1155.46 326.473 1156.53 326.043 1157.48 325.635C1156.79 323.42 1155.54 320.561 1154.25 318.239C1154.25 318.088 1155.61 315.766 1155.72 315.723H1156.21C1157.16 317.422 1158.45 321.55 1159.05 324.818C1159.61 324.495 1160.02 324.194 1160.25 323.915C1160.72 323.377 1160.96 322.646 1160.96 321.55C1160.96 320.539 1160.75 319.228 1160.34 317.529C1160.36 317.4 1162.19 315.788 1162.34 315.766ZM1176.42 321.937C1176.44 323.291 1176.35 324.753 1176.16 326.065L1175.45 328H1168.89V327.548L1169.73 325.183L1174.87 325.162C1174.8 320.948 1173.86 319.206 1171.62 319.206C1169.32 319.206 1168.16 321.442 1167.26 327.591L1165.67 328.258H1165.08C1165.45 325.57 1166.4 322.539 1167.54 320.389L1164.98 318.54C1164.93 318.432 1165.6 315.874 1165.69 315.766H1166.22L1169.36 318.002L1170.18 316.54C1170.95 316.433 1171.6 316.39 1172.18 316.39C1175.19 316.39 1176.33 317.895 1176.42 321.937Z" fill="black"/>
<path d="M1460.88 831V829.506H1464.44V825.618L1464.48 821.946L1460.88 823.89V822.09L1464.82 819.786H1466.37V829.506H1469.18V831H1460.88ZM1477.5 831.306C1474.53 831.306 1472.82 829.092 1472.82 825.186C1472.82 821.55 1474.53 819.462 1477.5 819.462C1480.47 819.462 1482.18 821.55 1482.18 825.186C1482.18 829.092 1480.47 831.306 1477.5 831.306ZM1477.5 829.704C1479.32 829.704 1480.27 828.102 1480.27 825.186C1480.27 822.504 1479.32 821.082 1477.5 821.082C1475.66 821.082 1474.75 822.504 1474.75 825.186C1474.75 828.102 1475.66 829.704 1477.5 829.704ZM1477.5 826.428C1476.98 826.428 1476.58 826.032 1476.58 825.276C1476.58 824.556 1476.98 824.124 1477.5 824.124C1478.04 824.124 1478.42 824.556 1478.42 825.276C1478.42 826.032 1478.04 826.428 1477.5 826.428ZM1489.98 831.306C1487.01 831.306 1485.3 829.092 1485.3 825.186C1485.3 821.55 1487.01 819.462 1489.98 819.462C1492.95 819.462 1494.66 821.55 1494.66 825.186C1494.66 829.092 1492.95 831.306 1489.98 831.306ZM1489.98 829.704C1491.8 829.704 1492.75 828.102 1492.75 825.186C1492.75 822.504 1491.8 821.082 1489.98 821.082C1488.14 821.082 1487.23 822.504 1487.23 825.186C1487.23 828.102 1488.14 829.704 1489.98 829.704ZM1489.98 826.428C1489.46 826.428 1489.06 826.032 1489.06 825.276C1489.06 824.556 1489.46 824.124 1489.98 824.124C1490.52 824.124 1490.9 824.556 1490.9 825.276C1490.9 826.032 1490.52 826.428 1489.98 826.428ZM1497.91 831L1505.41 819.786H1507.05L1499.53 831H1497.91ZM1505.07 831.18C1503.79 831.18 1503.07 830.154 1503.07 828.534C1503.07 827.022 1503.79 826.068 1505.07 826.068C1506.31 826.068 1507.05 827.022 1507.05 828.534C1507.05 830.154 1506.31 831.18 1505.07 831.18ZM1505.07 830.082C1505.59 830.082 1505.88 829.506 1505.88 828.534C1505.88 827.706 1505.59 827.184 1505.07 827.184C1504.53 827.184 1504.26 827.706 1504.26 828.534C1504.26 829.506 1504.53 830.082 1505.07 830.082ZM1499.9 824.646C1498.63 824.646 1497.91 823.638 1497.91 822.036C1497.91 820.524 1498.63 819.552 1499.9 819.552C1501.16 819.552 1501.88 820.524 1501.88 822.036C1501.88 823.638 1501.16 824.646 1499.9 824.646ZM1499.9 823.584C1500.43 823.584 1500.7 822.99 1500.7 822.036C1500.7 821.19 1500.43 820.686 1499.9 820.686C1499.36 820.686 1499.09 821.19 1499.09 822.036C1499.08 822.99 1499.36 823.584 1499.9 823.584Z" fill="black"/>
<path d="M1546.72 833.592V821.856H1543.39V820.182H1548.68V833.592H1546.72ZM1558.98 831V821.856H1555.24V820.182H1560.96V831H1558.98ZM1573.55 825.042C1573.55 822.63 1572.9 821.856 1570.36 821.856H1566.78V820.182H1570.96C1574.16 820.182 1575.53 821.712 1575.53 824.772V831H1573.55V825.042ZM1579.59 831V829.344H1582.29C1585.11 829.344 1586.34 827.94 1586.34 825.42C1586.34 822.72 1584.84 821.856 1582.29 821.856H1579.59V820.182H1582.29C1586.32 820.182 1588.3 821.892 1588.3 825.42C1588.3 829.182 1586.26 831 1582.29 831H1579.59ZM1596.64 826.536V821.856H1592.68V820.182H1598.6V826.536H1596.64ZM1607 826.464C1606.35 823.962 1607.12 822.72 1608.58 821.856H1604.96V820.182H1612.86V821.838H1611.5C1610.2 821.838 1609.52 822.27 1609.12 822.864C1608.62 823.584 1608.58 824.466 1609.03 826.284L1610.16 831H1608.15L1607 826.464ZM1623.67 831V821.856H1616.92V820.182H1625.65V831H1623.67ZM1617.03 831V824.772H1618.99V831H1617.03ZM1648.85 831V821.856H1644.69V827.526C1644.69 830.01 1643.95 831 1641.74 831H1640.75V829.344H1641.54C1642.42 829.344 1642.73 829.074 1642.73 827.922V821.856H1641V820.182H1650.81V831H1648.85ZM1658.83 831V821.856H1655.08V820.182H1660.81V831H1658.83ZM1673.39 825.042C1673.39 822.63 1672.75 821.856 1670.21 821.856H1666.63V820.182H1670.8C1674.01 820.182 1675.37 821.712 1675.37 824.772V831H1673.39V825.042ZM1684 826.536V821.856H1680.04V820.182H1685.96V826.536H1684ZM1697.4 831V821.856H1691.39V820.182H1701.25V821.856H1699.36V831H1697.4ZM1711.25 831V821.856H1707.09V827.526C1707.09 830.01 1706.35 831 1704.14 831H1703.15V829.344H1703.94C1704.82 829.344 1705.13 829.074 1705.13 827.922V821.856L1703.4 821.856V820.182L1713.21 820.182V831H1711.25Z" fill="black"/>
<path d="M1460.88 882V880.506H1464.44V876.618L1464.48 872.946L1460.88 874.89V873.09L1464.82 870.786H1466.37V880.506H1469.18V882L1460.88 882ZM1477.5 882.306C1474.53 882.306 1472.82 880.092 1472.82 876.186C1472.82 872.55 1474.53 870.462 1477.5 870.462C1480.47 870.462 1482.18 872.55 1482.18 876.186C1482.18 880.092 1480.47 882.306 1477.5 882.306ZM1477.5 880.704C1479.32 880.704 1480.27 879.102 1480.27 876.186C1480.27 873.504 1479.32 872.082 1477.5 872.082C1475.66 872.082 1474.75 873.504 1474.75 876.186C1474.75 879.102 1475.66 880.704 1477.5 880.704ZM1477.5 877.428C1476.98 877.428 1476.58 877.032 1476.58 876.276C1476.58 875.556 1476.98 875.124 1477.5 875.124C1478.04 875.124 1478.42 875.556 1478.42 876.276C1478.42 877.032 1478.04 877.428 1477.5 877.428ZM1489.98 882.306C1487.01 882.306 1485.3 880.092 1485.3 876.186C1485.3 872.55 1487.01 870.462 1489.98 870.462C1492.95 870.462 1494.66 872.55 1494.66 876.186C1494.66 880.092 1492.95 882.306 1489.98 882.306ZM1489.98 880.704C1491.8 880.704 1492.75 879.102 1492.75 876.186C1492.75 873.504 1491.8 872.082 1489.98 872.082C1488.14 872.082 1487.23 873.504 1487.23 876.186C1487.23 879.102 1488.14 880.704 1489.98 880.704ZM1489.98 877.428C1489.46 877.428 1489.06 877.032 1489.06 876.276C1489.06 875.556 1489.46 875.124 1489.98 875.124C1490.52 875.124 1490.9 875.556 1490.9 876.276C1490.9 877.032 1490.52 877.428 1489.98 877.428ZM1497.91 882L1505.41 870.786H1507.05L1499.53 882H1497.91ZM1505.07 882.18C1503.79 882.18 1503.07 881.154 1503.07 879.534C1503.07 878.022 1503.79 877.068 1505.07 877.068C1506.31 877.068 1507.05 878.022 1507.05 879.534C1507.05 881.154 1506.31 882.18 1505.07 882.18ZM1505.07 881.082C1505.59 881.082 1505.88 880.506 1505.88 879.534C1505.88 878.706 1505.59 878.184 1505.07 878.184C1504.53 878.184 1504.26 878.706 1504.26 879.534C1504.26 880.506 1504.53 881.082 1505.07 881.082ZM1499.9 875.646C1498.63 875.646 1497.91 874.638 1497.91 873.036C1497.91 871.524 1498.63 870.552 1499.9 870.552C1501.16 870.552 1501.88 871.524 1501.88 873.036C1501.88 874.638 1501.16 875.646 1499.9 875.646ZM1499.9 874.584C1500.43 874.584 1500.7 873.99 1500.7 873.036C1500.7 872.19 1500.43 871.686 1499.9 871.686C1499.36 871.686 1499.09 872.19 1499.09 873.036C1499.08 873.99 1499.36 874.584 1499.9 874.584Z" fill="black"/>
<path d="M1546.72 884.592V872.856H1543.39V871.182H1548.68V884.592H1546.72ZM1558.98 882V872.856H1555.24V871.182H1560.96V882H1558.98ZM1573.55 876.042C1573.55 873.63 1572.9 872.856 1570.36 872.856H1566.78V871.182H1570.96C1574.16 871.182 1575.53 872.712 1575.53 875.772V882H1573.55V876.042ZM1579.59 882V880.344H1582.29C1585.11 880.344 1586.34 878.94 1586.34 876.42C1586.34 873.72 1584.84 872.856 1582.29 872.856H1579.59V871.182H1582.29C1586.32 871.182 1588.3 872.892 1588.3 876.42C1588.3 880.182 1586.26 882 1582.29 882H1579.59ZM1596.64 877.536V872.856H1592.68V871.182H1598.6V877.536H1596.64ZM1607 877.464C1606.35 874.962 1607.12 873.72 1608.58 872.856H1604.96V871.182H1612.86V872.838H1611.5C1610.2 872.838 1609.52 873.27 1609.12 873.864C1608.62 874.584 1608.58 875.466 1609.03 877.284L1610.16 882H1608.15L1607 877.464ZM1623.67 882V872.856H1616.92V871.182H1625.65V882H1623.67ZM1617.03 882V875.772H1618.99V882H1617.03ZM1648.85 882V872.856H1644.69V878.526C1644.69 881.01 1643.95 882 1641.74 882H1640.75V880.344H1641.54C1642.42 880.344 1642.73 880.074 1642.73 878.922V872.856H1641V871.182H1650.81V882H1648.85ZM1658.83 882V872.856H1655.08V871.182H1660.81V882H1658.83ZM1673.39 876.042C1673.39 873.63 1672.75 872.856 1670.21 872.856H1666.63V871.182H1670.8C1674.01 871.182 1675.37 872.712 1675.37 875.772V882H1673.39V876.042ZM1684 877.536V872.856H1680.04V871.182H1685.96V877.536H1684ZM1698.55 882V872.856H1691.8V871.182H1700.53V882H1698.55ZM1691.91 882V875.772H1693.87V882H1691.91ZM1704.39 882V880.344L1709.99 880.344V872.856L1704.39 872.856V871.182L1711.97 871.182V880.344H1714.06V882L1704.39 882Z" fill="black"/>
<path d="M1460.88 933V931.506L1464.44 931.506V927.618L1464.48 923.946L1460.88 925.89V924.09L1464.82 921.786H1466.37V931.506H1469.18V933L1460.88 933ZM1477.5 933.306C1474.53 933.306 1472.82 931.092 1472.82 927.186C1472.82 923.55 1474.53 921.462 1477.5 921.462C1480.47 921.462 1482.18 923.55 1482.18 927.186C1482.18 931.092 1480.47 933.306 1477.5 933.306ZM1477.5 931.704C1479.32 931.704 1480.27 930.102 1480.27 927.186C1480.27 924.504 1479.32 923.082 1477.5 923.082C1475.66 923.082 1474.75 924.504 1474.75 927.186C1474.75 930.102 1475.66 931.704 1477.5 931.704ZM1477.5 928.428C1476.98 928.428 1476.58 928.032 1476.58 927.276C1476.58 926.556 1476.98 926.124 1477.5 926.124C1478.04 926.124 1478.42 926.556 1478.42 927.276C1478.42 928.032 1478.04 928.428 1477.5 928.428ZM1489.98 933.306C1487.01 933.306 1485.3 931.092 1485.3 927.186C1485.3 923.55 1487.01 921.462 1489.98 921.462C1492.95 921.462 1494.66 923.55 1494.66 927.186C1494.66 931.092 1492.95 933.306 1489.98 933.306ZM1489.98 931.704C1491.8 931.704 1492.75 930.102 1492.75 927.186C1492.75 924.504 1491.8 923.082 1489.98 923.082C1488.14 923.082 1487.23 924.504 1487.23 927.186C1487.23 930.102 1488.14 931.704 1489.98 931.704ZM1489.98 928.428C1489.46 928.428 1489.06 928.032 1489.06 927.276C1489.06 926.556 1489.46 926.124 1489.98 926.124C1490.52 926.124 1490.9 926.556 1490.9 927.276C1490.9 928.032 1490.52 928.428 1489.98 928.428ZM1497.91 933L1505.41 921.786H1507.05L1499.53 933H1497.91ZM1505.07 933.18C1503.79 933.18 1503.07 932.154 1503.07 930.534C1503.07 929.022 1503.79 928.068 1505.07 928.068C1506.31 928.068 1507.05 929.022 1507.05 930.534C1507.05 932.154 1506.31 933.18 1505.07 933.18ZM1505.07 932.082C1505.59 932.082 1505.88 931.506 1505.88 930.534C1505.88 929.706 1505.59 929.184 1505.07 929.184C1504.53 929.184 1504.26 929.706 1504.26 930.534C1504.26 931.506 1504.53 932.082 1505.07 932.082ZM1499.9 926.646C1498.63 926.646 1497.91 925.638 1497.91 924.036C1497.91 922.524 1498.63 921.552 1499.9 921.552C1501.16 921.552 1501.88 922.524 1501.88 924.036C1501.88 925.638 1501.16 926.646 1499.9 926.646ZM1499.9 925.584C1500.43 925.584 1500.7 924.99 1500.7 924.036C1500.7 923.19 1500.43 922.686 1499.9 922.686C1499.36 922.686 1499.09 923.19 1499.09 924.036C1499.08 924.99 1499.36 925.584 1499.9 925.584Z" fill="black"/>
<path d="M1559.2 935.592V923.856H1555.87V922.182H1561.16V935.592H1559.2ZM1571.46 933V923.856H1567.72V922.182L1573.44 922.182V933L1571.46 933ZM1586.03 927.042C1586.03 924.63 1585.38 923.856 1582.84 923.856H1579.26V922.182H1583.44C1586.64 922.182 1588.01 923.712 1588.01 926.772V933H1586.03V927.042ZM1592.07 933V931.344H1594.77C1597.59 931.344 1598.82 929.94 1598.82 927.42C1598.82 924.72 1597.32 923.856 1594.77 923.856H1592.07V922.182H1594.77C1598.8 922.182 1600.78 923.892 1600.78 927.42C1600.78 931.182 1598.75 933 1594.77 933H1592.07ZM1609.12 928.536V923.856H1605.16V922.182H1611.08V928.536H1609.12ZM1619.48 928.464C1618.83 925.962 1619.6 924.72 1621.06 923.856H1617.44V922.182H1625.34V923.838H1623.98C1622.68 923.838 1622 924.27 1621.6 924.864C1621.1 925.584 1621.06 926.466 1621.51 928.284L1622.64 933H1620.63L1619.48 928.464ZM1636.15 933V923.856H1629.4V922.182L1638.13 922.182V933L1636.15 933ZM1629.51 933V926.772H1631.47V933H1629.51ZM1661.33 933V923.856H1657.17V929.526C1657.17 932.01 1656.43 933 1654.22 933H1653.23V931.344H1654.02C1654.9 931.344 1655.21 931.074 1655.21 929.922V923.856H1653.48V922.182H1663.29V933H1661.33ZM1666.43 933V931.344H1669.24L1666.57 922.182H1668.55L1671.18 931.2C1672.76 930.822 1673.36 929.49 1673.63 925.854L1673.9 922.182H1675.9L1675.57 925.854C1675.12 930.93 1673.86 933 1669.79 933H1666.43ZM1679.43 933V931.344H1686.29V926.628C1686.29 924.522 1685.73 923.856 1683.73 923.856H1681.39V928.104H1679.43V922.182H1684.11C1687.03 922.182 1688.25 923.55 1688.25 926.358V933H1679.43ZM1692.11 933L1691.03 922.182H1692.9L1693.42 927.366C1694.4 927.276 1695.1 926.646 1695.24 925.278L1695.53 922.182H1697.35L1697.06 925.422C1696.86 927.816 1695.71 928.788 1693.57 928.896L1693.82 931.344H1694.05C1697.26 931.344 1698.97 929.976 1699.44 925.062L1699.71 922.182H1701.58L1701.27 925.404C1700.73 931.326 1698.23 933 1693.21 933H1692.11ZM1711.03 933V923.856L1704.28 923.856V922.182L1713.01 922.182V933H1711.03ZM1704.39 933V926.772L1706.35 926.772V933L1704.39 933Z" fill="black"/>
<path d="M1732.66 581.788C1748.67 581.597 1764.28 586.386 1776 593.85C1776.75 594.306 1777.37 594.714 1777.71 594.947L1778 595.146L1778.32 595.376C1784.54 599.786 1789.68 605.887 1793.41 611.652C1796.82 616.915 1800.12 623.55 1802.04 631.019C1810.03 638.188 1815.06 648.593 1815.06 660.167C1815.06 664.031 1814.52 668.366 1812.97 672.849L1809.54 683.657C1810.16 683.95 1810.78 684.248 1811.4 684.556C1811.89 684.793 1812.38 685.043 1812.87 685.312C1812.98 685.374 1813.09 685.439 1813.2 685.502L1813.2 685.5L1813.33 685.574C1813.34 685.577 1813.34 685.582 1813.35 685.586C1830.56 695.364 1837.44 713.119 1837.82 729.139C1837.83 729.448 1837.84 729.758 1837.84 730.069V755.981C1837.84 771.248 1825.46 783.624 1810.2 783.625H1797.33C1796.86 783.649 1796.38 783.662 1795.89 783.662C1795.41 783.662 1794.93 783.649 1794.46 783.625H1790.29C1789.81 783.65 1789.32 783.663 1788.83 783.663H1763.29C1762.8 783.663 1762.32 783.65 1761.84 783.625H1754.3C1753.82 783.649 1753.34 783.662 1752.86 783.662C1752.38 783.662 1751.9 783.649 1751.42 783.625H1746.89C1746.42 783.649 1745.94 783.662 1745.45 783.662C1744.97 783.662 1744.49 783.649 1744.01 783.625H1719.52C1719.05 783.649 1718.57 783.662 1718.08 783.662C1717.6 783.662 1717.12 783.649 1716.65 783.625H1712.1C1711.62 783.649 1711.14 783.662 1710.66 783.662C1710.18 783.662 1709.7 783.649 1709.22 783.625H1693.66C1693.18 783.65 1692.7 783.662 1692.21 783.662C1691.72 783.662 1691.24 783.65 1690.76 783.625H1686.35C1685.87 783.649 1685.39 783.662 1684.91 783.662C1684.43 783.662 1683.95 783.649 1683.47 783.625H1668.61C1668.29 783.636 1667.97 783.643 1667.64 783.643C1667.32 783.643 1667 783.636 1666.68 783.625H1652.94C1637.67 783.624 1625.29 771.248 1625.29 755.981V730.069L1625.3 729.355C1625.3 729.275 1625.31 729.195 1625.31 729.116C1625.7 713.153 1632.54 695.337 1649.84 685.55L1649.93 685.5L1649.93 685.501C1650.05 685.433 1650.17 685.363 1650.29 685.297C1650.82 685.006 1651.35 684.735 1651.89 684.482C1652.54 684.16 1653.19 683.847 1653.84 683.539L1650.48 672.944C1649.04 668.788 1648.46 664.76 1648.39 661.033L1648.38 660.24L1648.4 659.23C1648.73 646.025 1655.62 634.438 1665.92 627.599C1666.52 625.706 1667.22 623.645 1668.08 621.528C1668.64 617.571 1670.12 613.28 1673.16 609.207C1680.14 599.146 1690.28 592.631 1699.54 588.662C1709.64 584.336 1721.11 581.947 1732.61 581.789L1732.66 581.788ZM1702.92 599.347C1703.46 599.496 1704 599.661 1704.53 599.843C1704.73 599.909 1704.92 599.975 1705.12 600.04C1704.47 599.803 1703.79 599.586 1703.09 599.391L1702.92 599.347ZM1702.29 599.182C1702.25 599.172 1702.21 599.161 1702.17 599.151L1701.58 599.012L1702.29 599.182Z" fill="black"/>
<path d="M1343.32 507.861C1351.5 508.069 1358.51 513.02 1361.69 520.063H1365.36C1375.18 520.064 1383.12 528.003 1383.12 537.818V610.38C1383.12 620.195 1375.18 628.135 1365.36 628.135H1289.29C1285.96 628.135 1282.85 627.223 1280.2 625.638C1277.78 627.159 1274.93 628.041 1271.87 628.041H1260.09C1259.92 628.047 1259.75 628.051 1259.57 628.051H1203.47C1203.3 628.051 1203.13 628.046 1202.96 628.041H1190.73C1187.98 628.041 1185.4 627.329 1183.15 626.082C1180.88 627.368 1178.26 628.103 1175.46 628.104H1167.9C1167.72 628.11 1167.54 628.114 1167.36 628.114C1167.18 628.114 1167 628.11 1166.82 628.104H1163.9C1163.72 628.109 1163.54 628.113 1163.37 628.113H1148.92C1148.74 628.113 1148.56 628.109 1148.39 628.104H1143.55C1143.37 628.109 1143.19 628.113 1143.02 628.113C1142.84 628.113 1142.66 628.109 1142.49 628.104H1139.36C1139.18 628.11 1139 628.113 1138.82 628.113C1138.64 628.113 1138.47 628.11 1138.29 628.104H1124.16C1123.89 628.118 1123.62 628.124 1123.34 628.124C1123.07 628.124 1122.79 628.118 1122.52 628.104H1119.95C1119.68 628.117 1119.41 628.124 1119.14 628.124C1118.87 628.124 1118.6 628.117 1118.34 628.104H1109.26C1109.08 628.11 1108.89 628.114 1108.71 628.114C1108.52 628.114 1108.34 628.11 1108.15 628.104H1105.38C1105.11 628.117 1104.85 628.124 1104.58 628.124C1104.31 628.124 1104.04 628.117 1103.77 628.104H1095.35C1095.17 628.11 1094.99 628.114 1094.81 628.114C1094.63 628.114 1094.45 628.11 1094.27 628.104H1086.48C1080.37 628.104 1075.08 624.603 1072.51 619.5C1066.36 624.714 1058.51 627.97 1049.57 628.066C1049.47 628.069 1049.36 628.07 1049.25 628.07C1049.22 628.07 1049.19 628.072 1049.16 628.072C1049.16 628.072 1049.16 628.071 1049.16 628.071C1049.16 628.071 1049.16 628.072 1049.16 628.072C1045.2 628.072 1041.41 627.41 1037.88 626.231C1034.44 627.378 1030.75 628.023 1026.85 628.066C1026.71 628.07 1026.57 628.072 1026.43 628.072C1022.58 628.072 1018.9 627.451 1015.46 626.337C1012 627.458 1008.27 628.072 1004.34 628.072C991.402 628.072 980.689 621.473 974.082 611.848C973.821 612.041 973.557 612.227 973.288 612.408C971.742 621.315 963.988 628.019 954.689 628.02C946.629 628.019 939.823 623.001 937.091 615.988H933.042C930.308 623.039 923.47 628.02 915.437 628.02C905.886 628.019 898.153 621.003 896.775 612.016C895.919 611.309 895.16 610.547 894.502 609.765C892.347 607.199 891.346 604.474 891.115 603.875C891.01 603.604 890.912 603.329 890.823 603.053L883.566 580.648C883.537 580.572 883.511 580.495 883.483 580.419C882.598 580.542 881.708 580.591 880.821 580.562H844.21V608.993C844.21 618.998 836.492 627.978 825.528 627.979C820.516 627.979 815.556 625.965 811.944 622.063C808.363 618.195 806.918 613.384 806.917 608.993V535.697C805.98 533.463 805.435 531.023 805.371 528.463L805.364 527.945L805.371 527.428C805.645 516.591 814.509 507.896 825.413 507.896L825.93 507.903C834.507 508.12 841.74 513.719 844.384 521.449H881.325C885.165 521.449 888.763 522.855 891.541 525.251C899.926 514.959 912.604 508.297 926.856 508.011C927.491 507.972 928.127 507.972 928.762 508.011C954.122 508.517 974.581 529.239 974.581 554.771C974.58 563.407 967.579 570.408 958.943 570.408H947.005V573.952H961.299C963.516 573.952 965.768 574.321 967.937 575.032C973.221 559.434 987.693 549.171 1004.28 549.171C1007.28 549.171 1010.18 549.502 1012.99 550.143C1013.12 550.172 1013.25 550.204 1013.38 550.235C1013.48 550.259 1013.58 550.282 1013.68 550.307C1014.24 550.443 1014.79 550.591 1015.34 550.752C1018.87 549.711 1022.59 549.161 1026.41 549.161C1030.35 549.161 1034.15 549.735 1037.76 550.839C1041.38 549.742 1045.2 549.161 1049.11 549.161C1054.25 549.161 1059.14 550.134 1063.7 551.985C1064 552.107 1064.3 552.238 1064.59 552.377C1073.51 556.232 1080.73 563.394 1084.57 572.714C1084.61 572.69 1084.65 572.667 1084.69 572.644C1084.7 572.641 1084.7 572.638 1084.7 572.636L1084.78 572.594L1084.78 572.595C1084.85 572.557 1084.91 572.517 1084.98 572.479C1085.27 572.319 1085.57 572.169 1085.87 572.028C1086.24 571.841 1086.62 571.658 1087 571.479L1085.1 565.49C1084.29 563.139 1083.96 560.861 1083.92 558.753L1083.91 558.305L1083.92 557.733C1084.11 550.259 1088.01 543.701 1093.85 539.833C1094.18 538.772 1094.57 537.619 1095.05 536.433C1095.36 534.209 1096.18 531.796 1097.88 529.502C1101.83 523.766 1107.59 520.058 1112.86 517.802C1118.56 515.355 1125.05 514.003 1131.56 513.914C1131.57 513.914 1131.58 513.914 1131.59 513.914C1140.66 513.806 1149.5 516.522 1156.13 520.754C1156.35 520.886 1156.55 521.01 1156.71 521.117L1157.23 521.471L1157.42 521.601C1160.94 524.096 1163.85 527.546 1165.96 530.808C1167.88 533.785 1169.75 537.538 1170.83 541.764C1175.36 545.819 1178.2 551.706 1178.2 558.253C1178.2 560.431 1177.9 562.872 1177.03 565.397L1175.08 571.547C1175.41 571.704 1175.74 571.863 1176.07 572.027C1176.37 572.171 1176.68 572.323 1176.97 572.488C1177.04 572.523 1177.1 572.56 1177.16 572.595L1177.16 572.594L1177.23 572.636C1177.24 572.639 1177.24 572.642 1177.25 572.645C1179.91 574.155 1182.13 576.002 1183.96 578.073C1185.12 577.027 1186.41 576.064 1187.85 575.203C1186.73 571.983 1186.17 568.567 1186.17 565.144C1186.17 564.949 1186.17 564.755 1186.17 564.562C1184.15 560.439 1183.14 555.852 1183.14 551.288C1183.14 544.679 1185.32 537.537 1190.04 532.108C1193.3 522.36 1201.47 516.618 1209.1 514.468L1209.2 514.438C1210.77 514.006 1212.41 513.76 1213.99 513.651C1214.99 512.874 1216.08 512.141 1217.26 511.477C1222.09 508.756 1227.04 507.959 1231.56 507.959C1236.15 507.959 1241.04 508.803 1245.78 511.246C1247.24 511.993 1248.58 512.845 1249.83 513.779C1251.73 513.943 1253.69 514.329 1255.59 514.999L1255.59 514.997C1255.62 515.006 1255.64 515.016 1255.67 515.025C1255.68 515.029 1255.69 515.032 1255.7 515.036L1255.7 515.037C1259.52 516.385 1264.13 518.733 1267.93 523.052C1270.09 525.499 1271.7 528.257 1272.79 531.228C1275.41 524.681 1281.8 520.064 1289.29 520.063H1292.96C1296.21 512.867 1303.45 507.854 1311.86 507.854L1312.39 507.861C1318.32 508.012 1323.64 510.659 1327.32 514.789C1331.12 510.535 1336.64 507.854 1342.79 507.854L1343.32 507.861ZM1115.68 524.128C1115.77 524.158 1115.86 524.186 1115.95 524.216C1115.79 524.16 1115.63 524.107 1115.47 524.057L1115.33 524.015C1115.45 524.051 1115.56 524.089 1115.68 524.128Z" fill="black"/>
<path d="M1550 69.4688V60.3247L1545.85 60.3247V65.9947C1545.85 68.4787 1545.11 69.4688 1542.89 69.4688H1541.9V67.8127H1542.7C1543.58 67.8127 1543.88 67.5427 1543.88 66.3907V60.3247L1542.16 60.3247V58.6507L1551.97 58.6507V69.4688H1550ZM1559.98 69.4688V60.3247L1556.24 60.3247V58.6507L1561.96 58.6507V69.4688H1559.98ZM1568.32 69.4688V67.8127L1572.68 67.8127V60.3247L1569.46 60.3247V58.6507L1574.64 58.6507V69.4688L1568.32 69.4688ZM1584.94 69.4688V60.3247L1581.2 60.3247V58.6507L1586.92 58.6507V69.4688L1584.94 69.4688ZM1599.51 63.5107C1599.51 61.0987 1598.86 60.3247 1596.33 60.3247L1592.74 60.3247V58.6507L1596.92 58.6507C1600.12 58.6507 1601.49 60.1807 1601.49 63.2407V69.4688H1599.51V63.5107ZM1605.55 69.4688V67.8127H1608.25C1611.07 67.8127 1612.3 66.4087 1612.3 63.8887C1612.3 61.1887 1610.8 60.3247 1608.25 60.3247H1605.55V58.6507H1608.25C1612.28 58.6507 1614.26 60.3607 1614.26 63.8887C1614.26 67.6507 1612.23 69.4688 1608.25 69.4688H1605.55ZM1622.6 65.0047V60.3247L1618.64 60.3247V58.6507L1624.56 58.6507V65.0047H1622.6ZM1632.96 64.9327C1632.31 62.4307 1633.08 61.1887 1634.54 60.3247L1630.92 60.3247V58.6507L1638.82 58.6507V60.3067L1637.46 60.3067C1636.16 60.3067 1635.48 60.7387 1635.08 61.3327C1634.58 62.0527 1634.54 62.9347 1634.99 64.7527L1636.12 69.4688L1634.11 69.4688L1632.96 64.9327ZM1658.06 69.4688L1661.77 60.3247L1655.47 60.3247V55.2307H1657.43V58.6507L1664.38 58.6507V58.7047L1660.08 69.4688H1658.06ZM1670.54 69.4688L1674.25 60.3247L1667.95 60.3247V55.2307H1669.91V58.6507L1676.86 58.6507V58.7047L1672.56 69.4688H1670.54ZM1684.79 69.4688V60.3247L1681.04 60.3247V58.6507L1686.77 58.6507V69.4688L1684.79 69.4688ZM1692.8 69.4688V58.6507L1697.48 58.6507C1700.71 58.6507 1702.06 60.1807 1702.06 63.2407V69.4688L1700.08 69.4688V63.5107C1700.08 61.0987 1699.43 60.3247 1696.89 60.3247L1694.78 60.3247V69.4688H1692.8ZM1705.05 69.4688L1706.81 60.3247H1704.78V58.6507L1710.11 58.6507C1713.17 58.6507 1714.46 60.1807 1714.46 63.2407V69.4688L1709.37 69.4688V67.8127L1712.57 67.8127V63.5107C1712.57 61.0987 1711.98 60.3247 1709.55 60.3247L1708.7 60.3247L1706.9 69.4688H1705.05Z" fill="black"/>
<path d="M1768.49 72.0608V61.3687L1765.29 61.3687V58.6507L1771.78 58.6507V72.0608H1768.49ZM1780.5 69.4688V61.3687H1776.81V58.6507L1783.78 58.6507V69.4688L1780.5 69.4688ZM1792.8 64.8067V61.3687H1789.53V58.6507L1796.08 58.6507V64.8067H1792.8ZM1801.65 69.4688V66.7687H1804.06C1806.42 66.7687 1806.87 65.7607 1806.87 63.9067C1806.87 61.9807 1806.06 61.3687 1804.06 61.3687H1801.65V58.6507H1804.18C1808.23 58.6507 1810.14 60.3788 1810.14 63.9067C1810.14 67.7587 1808.38 69.4688 1804.18 69.4688H1801.65ZM1819.73 63.4387C1819.73 61.8367 1819.33 61.3687 1817.66 61.3687L1813.32 61.3687V58.6507L1818.03 58.6507C1822.01 58.6507 1823 59.9648 1823 63.6547V69.4688H1819.73V63.4387ZM1832.48 69.4688C1831.56 67.8487 1830.98 66.3187 1829.96 64.6087C1829.36 64.9867 1829.22 65.4907 1829.11 66.6607L1828.88 69.4688H1825.55L1825.94 66.5527C1826.23 64.2667 1826.84 63.3847 1828.53 62.6467C1827.53 61.3327 1826.45 60.0007 1825.31 58.6507L1829.18 58.6507C1830.3 60.0187 1831.05 61.3147 1831.9 62.7367C1832.21 62.5207 1832.4 62.1067 1832.51 61.3687L1832.84 58.6507L1836.09 58.6507L1835.79 60.9187C1835.45 63.2587 1834.65 64.1587 1833.2 64.6627C1834.24 66.2107 1835.25 67.8667 1836.2 69.4688L1832.48 69.4688Z" fill="black"/>
<path d="M708.511 328.019H708.137C708.005 323.927 707.939 322.475 707.851 320.825C707.785 319.637 707.213 319.087 706.025 319.087H698.743L698.633 318.383C698.633 318.185 700.239 314.929 700.371 314.819H701.361L701.493 315.611C701.581 316.183 701.625 316.227 702.065 316.227H706.861C709.105 316.227 710.073 317.173 710.095 319.395C710.117 319.901 710.117 320.473 710.117 321.089C710.117 323.223 710.051 325.863 709.919 327.139C709.853 327.227 708.621 327.997 708.511 328.019ZM700.019 328.019H699.557C699.513 327.095 699.469 326.105 699.469 325.225C699.469 323.729 699.535 322.409 699.645 321.419C699.711 321.309 701.383 320.275 701.515 320.275L701.867 320.341C701.845 323.553 701.845 325.225 701.911 326.809C701.845 326.941 700.173 327.997 700.019 328.019ZM724.085 315.237H724.437C724.811 316.227 724.987 317.151 725.009 318.229C725.009 323.201 721.027 328.019 716.869 328.019C714.493 328.019 713.987 326.523 713.437 323.025C713.085 320.803 712.931 319.285 712.315 317.393C712.293 317.261 713.767 315.303 713.899 315.259H714.317C714.713 316.117 714.955 317.481 715.285 321.419C717.155 320.561 717.529 320.143 717.485 319.263C717.463 318.889 717.375 318.295 717.089 316.997C717.111 316.865 718.783 315.259 718.871 315.259H719.311C719.619 316.271 719.795 317.151 719.795 317.899C719.795 320.187 718.321 321.529 715.483 323.245C715.725 324.653 716.187 325.049 717.309 325.049C719.949 325.049 722.677 322.409 722.677 319.835C722.677 318.911 722.523 318.097 722.171 316.997C722.215 316.843 723.931 315.259 724.085 315.237ZM734.938 327.733H726.27V327.293L727.15 324.851H734.366C734.366 324.235 734.344 323.729 734.212 322.387C733.97 319.901 733.64 319.439 731.462 318.691C730.362 318.295 729.746 318.119 729.13 318.009C728.822 319.571 728.91 319.769 729.966 320.275L730.758 320.649L730.428 323.025H729.79C727.656 322.211 727.128 321.705 727.128 320.385C727.106 319.439 727.678 317.591 728.668 315.171H729.79L731.946 315.765C735.51 316.733 736.016 317.481 736.016 321.639C736.016 322.827 735.906 324.609 735.774 325.467L734.938 327.733ZM741.088 328.019H740.802L740.67 322.035C740.648 319.945 740.45 319.571 739.196 318.911L737.546 318.053C737.524 317.921 738.206 315.347 738.316 315.171H738.778C739.57 315.523 740.164 315.787 740.956 316.205C742.562 317.063 742.87 317.591 742.826 320.407C742.804 322.431 742.65 325.665 742.518 327.051C742.474 327.139 741.198 328.019 741.088 328.019ZM746.311 328.019H745.937C745.893 327.711 745.893 327.249 745.893 325.665C745.893 322.233 746.025 317.173 746.157 315.149L748.005 314.973L748.137 315.611C748.269 316.161 748.335 316.227 748.775 316.227H752.119C755.573 316.227 756.409 317.305 756.409 321.859C756.409 323.157 756.343 324.873 756.233 327.073C756.167 327.161 754.957 327.997 754.869 328.019H754.539C754.451 325.907 754.385 324.653 754.319 323.377C754.099 319.703 753.593 319.087 750.865 319.087H747.939L748.313 326.765C748.247 326.875 746.421 328.019 746.311 328.019ZM760.838 328.041L760.288 327.997L760.596 324.675C763.654 322.519 765.392 320.693 765.414 319.659C765.414 319.285 765.172 319.087 764.666 319.087H760.244C759.43 319.087 759.078 319.043 758.594 318.911C758.308 317.349 758.198 314.137 758.308 312.135L760.464 311.607C760.508 312.795 760.574 314.401 760.618 315.215C760.706 316.007 760.926 316.227 761.674 316.227H765.084C766.8 316.227 767.372 316.777 767.372 318.471C767.372 321.529 764.996 324.983 760.838 328.041ZM777.353 328.019H777.067L776.935 322.035C776.913 319.945 776.715 319.571 775.461 318.911L773.811 318.053C773.789 317.921 774.471 315.347 774.581 315.171H775.043C775.835 315.523 776.429 315.787 777.221 316.205C778.827 317.063 779.135 317.591 779.091 320.407C779.069 322.431 778.915 325.665 778.783 327.051C778.739 327.139 777.463 328.019 777.353 328.019ZM785.743 327.733H780.837V327.293L781.695 324.851H785.149L785.017 322.013C784.907 320.187 784.621 319.703 783.081 318.889L781.387 317.987C781.321 317.855 781.937 315.303 782.047 315.171H782.597C783.389 315.501 783.983 315.765 784.753 316.227C786.513 317.173 786.843 317.855 786.865 320.517C786.909 321.859 786.799 323.905 786.623 325.335L785.743 327.733ZM799.421 328.019H799.135L798.871 322.739C798.739 319.659 798.233 319.087 795.769 319.087H792.997L793.899 325.973L793.327 327.733H788.641V327.271L789.521 324.851H792.029L790.709 319.087H788.883L788.751 318.383C788.751 318.207 790.357 314.951 790.511 314.819H791.545L791.677 315.611C791.765 316.183 791.809 316.227 792.249 316.227H796.979C799.993 316.227 800.851 317.151 800.917 320.429C800.961 322.057 800.873 325.379 800.763 327.139C800.719 327.249 799.531 328.019 799.421 328.019ZM806.099 328.019H805.813L805.681 322.035C805.659 319.945 805.461 319.571 804.207 318.911L802.557 318.053C802.535 317.921 803.217 315.347 803.327 315.171H803.789C804.581 315.523 805.175 315.787 805.967 316.205C807.573 317.063 807.881 317.591 807.837 320.407C807.815 322.431 807.661 325.665 807.529 327.051C807.485 327.139 806.209 328.019 806.099 328.019ZM819.198 322.673C820.056 323.641 820.892 324.631 821.706 325.621C821.706 325.753 820.848 328.063 820.716 328.217H820.298C818.56 326.039 816.404 323.685 814.094 321.485C813.478 322.145 813.258 323.157 813.192 325.071L813.126 327.315L811.058 327.931H810.486C810.53 326.941 810.552 326.545 810.662 325.225C810.882 322.783 811.41 321.485 812.774 320.231C811.938 319.461 811.08 318.691 810.222 317.965C810.178 317.877 810.992 315.589 811.146 315.259L811.564 315.259C813.632 316.953 815.898 319.109 818.12 321.485C818.538 320.407 818.67 319.901 818.67 319.263C818.648 318.669 818.626 318.339 818.384 317.063C818.582 316.821 820.43 315.281 820.54 315.281L821.134 315.347C821.332 315.941 821.442 316.557 821.442 317.283C821.442 318.911 820.738 320.583 819.198 322.673ZM831.515 328.019H831.229L831.097 322.035C831.075 319.945 830.877 319.571 829.623 318.911L827.973 318.053C827.951 317.921 828.633 315.347 828.743 315.171H829.205C829.997 315.523 830.591 315.787 831.383 316.205C832.989 317.063 833.297 317.591 833.253 320.407C833.231 322.431 833.077 325.665 832.945 327.051C832.901 327.139 831.625 328.019 831.515 328.019ZM836.738 328.019H836.364C836.32 327.711 836.32 327.249 836.32 325.665C836.32 322.233 836.452 317.173 836.584 315.149L838.432 314.973L838.564 315.611C838.696 316.161 838.762 316.227 839.202 316.227H842.546C846 316.227 846.836 317.305 846.836 321.859C846.836 323.157 846.77 324.873 846.66 327.073C846.594 327.161 845.384 327.997 845.296 328.019H844.966C844.878 325.907 844.812 324.653 844.746 323.377C844.526 319.703 844.02 319.087 841.292 319.087H838.366L838.74 326.765C838.674 326.875 836.848 328.019 836.738 328.019ZM856.258 328.019H855.664L855.444 325.005C857.292 322.695 858.546 320.605 858.546 319.813C858.546 319.307 858.26 319.087 857.622 319.087H849.174L849.042 318.383C849.042 318.185 850.67 314.929 850.802 314.819H851.77L851.902 315.611C851.99 316.183 852.034 316.227 852.474 316.227H858.062C859.888 316.227 860.526 316.843 860.526 318.537C860.526 321.529 859.03 324.851 856.258 328.019ZM850.956 331.583H850.494C850.23 328.525 850.076 323.135 850.23 321.529C850.318 321.419 851.968 320.297 852.078 320.297L852.452 320.363C852.496 324.081 852.606 326.171 852.804 329.911C852.65 330.131 851.066 331.583 850.956 331.583ZM864.994 328.041L864.444 327.997L864.752 324.675C867.81 322.519 869.548 320.693 869.57 319.659C869.57 319.285 869.328 319.087 868.822 319.087H864.4C863.586 319.087 863.234 319.043 862.75 318.911C862.464 317.349 862.354 314.137 862.464 312.135L864.62 311.607C864.664 312.795 864.73 314.401 864.774 315.215C864.862 316.007 865.082 316.227 865.83 316.227H869.24C870.956 316.227 871.528 316.777 871.528 318.471C871.528 321.529 869.152 324.983 864.994 328.041ZM887.626 322.673C888.484 323.641 889.32 324.631 890.134 325.621C890.134 325.753 889.276 328.063 889.144 328.217H888.726C886.988 326.039 884.832 323.685 882.522 321.485C881.906 322.145 881.686 323.157 881.62 325.071L881.554 327.315L879.486 327.931L878.914 327.931C878.958 326.941 878.98 326.545 879.09 325.225C879.31 322.783 879.838 321.485 881.202 320.231C880.366 319.461 879.508 318.691 878.65 317.965C878.606 317.877 879.42 315.589 879.574 315.259H879.992C882.06 316.953 884.326 319.109 886.548 321.485C886.966 320.407 887.098 319.901 887.098 319.263C887.076 318.669 887.054 318.339 886.812 317.063C887.01 316.821 888.858 315.281 888.968 315.281L889.562 315.347C889.76 315.941 889.87 316.557 889.87 317.283C889.87 318.911 889.166 320.583 887.626 322.673ZM902.417 328.019H902.131L901.867 322.739C901.735 319.659 901.229 319.087 898.765 319.087H895.993L896.895 325.973L896.323 327.733H891.637V327.271L892.517 324.851H895.025L893.705 319.087H891.879L891.747 318.383C891.747 318.207 893.353 314.951 893.507 314.819H894.541L894.673 315.611C894.761 316.183 894.805 316.227 895.245 316.227H899.975C902.989 316.227 903.847 317.151 903.913 320.429C903.957 322.057 903.869 325.379 903.759 327.139C903.715 327.249 902.527 328.019 902.417 328.019ZM915.498 327.733L906.038 327.733V327.293L906.918 324.851L913.122 324.851L912.902 320.803C912.836 319.571 912.308 319.065 911.032 319.065L906.17 319.065L906.038 318.383C906.038 318.185 907.644 314.929 907.798 314.819H908.766L908.898 315.611C908.986 316.183 909.052 316.227 909.47 316.227L912.022 316.227C914.09 316.227 914.926 316.997 914.948 318.977C914.948 321.133 914.904 323.157 914.926 323.707C914.948 324.807 914.992 324.917 915.982 325.159L916.312 325.247L915.498 327.733ZM921.496 328.041C919.934 328.041 919.098 327.183 918.636 325.071C918.262 323.399 918.064 320.869 917.976 317.965C917.954 317.723 917.932 316.205 917.932 315.171L919.736 314.973L919.89 315.611C920.044 316.161 920.066 316.227 920.506 316.227H925.192C927.678 316.227 928.448 316.931 928.448 319.197C928.448 323.795 925.126 328.041 921.496 328.041ZM921.98 324.983C924.004 324.983 926.402 322.607 926.402 320.649C926.402 319.461 925.896 319.087 924.246 319.087H919.626C920.33 324.125 920.682 324.983 921.98 324.983ZM933.566 328.019H933.28L933.148 322.035C933.126 319.945 932.928 319.571 931.674 318.911L930.024 318.053C930.002 317.921 930.684 315.347 930.794 315.171H931.256C932.048 315.523 932.642 315.787 933.434 316.205C935.04 317.063 935.348 317.591 935.304 320.407C935.282 322.431 935.128 325.665 934.996 327.051C934.952 327.139 933.676 328.019 933.566 328.019ZM951.842 322.673C952.7 323.641 953.536 324.631 954.35 325.621C954.35 325.753 953.492 328.063 953.36 328.217H952.942C951.204 326.039 949.048 323.685 946.738 321.485C946.122 322.145 945.902 323.157 945.836 325.071L945.77 327.315L943.702 327.931H943.13C943.174 326.941 943.196 326.545 943.306 325.225C943.526 322.783 944.054 321.485 945.418 320.231C944.582 319.461 943.724 318.691 942.866 317.965C942.822 317.877 943.636 315.589 943.79 315.259H944.208C946.276 316.953 948.542 319.109 950.764 321.485C951.182 320.407 951.314 319.901 951.314 319.263C951.292 318.669 951.27 318.339 951.028 317.063C951.226 316.821 953.074 315.281 953.184 315.281L953.778 315.347C953.976 315.941 954.086 316.557 954.086 317.283C954.086 318.911 953.382 320.583 951.842 322.673ZM965.513 327.733H956.053V327.293L956.933 324.851H963.137L962.917 320.803C962.851 319.571 962.323 319.065 961.047 319.065H956.185L956.053 318.383C956.053 318.185 957.659 314.929 957.813 314.819H958.781L958.913 315.611C959.001 316.183 959.067 316.227 959.485 316.227H962.037C964.105 316.227 964.941 316.997 964.963 318.977C964.963 321.133 964.919 323.157 964.941 323.707C964.963 324.807 965.007 324.917 965.997 325.159L966.327 325.247L965.513 327.733ZM971.511 328.041C969.949 328.041 969.113 327.183 968.651 325.071C968.277 323.399 968.079 320.869 967.991 317.965C967.969 317.723 967.947 316.205 967.947 315.171L969.751 314.973L969.905 315.611C970.059 316.161 970.081 316.227 970.521 316.227H975.207C977.693 316.227 978.463 316.931 978.463 319.197C978.463 323.795 975.141 328.041 971.511 328.041ZM971.995 324.983C974.019 324.983 976.417 322.607 976.417 320.649C976.417 319.461 975.911 319.087 974.261 319.087H969.641C970.345 324.125 970.697 324.983 971.995 324.983ZM994.355 317.327C994.355 319.131 993.409 320.803 991.187 323.245C992.045 325.181 992.727 327.161 993.211 328.987L991.759 331.209H991.231C990.109 326.963 987.381 321.155 984.961 317.811C984.961 317.657 986.149 315.237 986.281 315.171H986.699C988.085 317.107 989.427 319.417 990.549 321.837C991.385 320.561 991.715 319.945 991.715 319.131C991.715 318.537 991.539 317.855 991.275 316.799C991.407 316.557 993.387 315.193 993.497 315.215H993.981C994.223 315.963 994.355 316.645 994.355 317.327ZM999.259 323.773L997.543 324.279L997.345 324.081L998.335 321.793C998.973 320.297 998.885 319.791 997.829 319.087L996.179 317.987C996.157 317.833 997.125 315.281 997.235 315.171H997.675C998.577 315.699 999.193 316.073 999.897 316.557C1001.53 317.745 1001.68 318.823 1000.58 321.221C1000.14 322.211 999.655 323.113 999.259 323.773ZM1010.32 328.019H1009.73L1009.51 325.005C1011.36 322.695 1012.61 320.605 1012.61 319.813C1012.61 319.307 1012.32 319.087 1011.69 319.087H1003.24L1003.11 318.383C1003.11 318.185 1004.73 314.929 1004.87 314.819H1005.83L1005.97 315.611C1006.05 316.183 1006.1 316.227 1006.54 316.227L1012.13 316.227C1013.95 316.227 1014.59 316.843 1014.59 318.537C1014.59 321.529 1013.09 324.851 1010.32 328.019ZM1005.02 331.583H1004.56C1004.29 328.525 1004.14 323.135 1004.29 321.529C1004.38 321.419 1006.03 320.297 1006.14 320.297L1006.52 320.363C1006.56 324.081 1006.67 326.171 1006.87 329.911C1006.71 330.131 1005.13 331.583 1005.02 331.583ZM1023.87 328.041L1023.32 327.997L1023.63 324.675C1026.69 322.519 1028.43 320.693 1028.45 319.659C1028.45 319.285 1028.21 319.087 1027.7 319.087H1023.28C1022.46 319.087 1022.11 319.043 1021.63 318.911C1021.34 317.349 1021.23 314.137 1021.34 312.135L1023.5 311.607C1023.54 312.795 1023.61 314.401 1023.65 315.215C1023.74 316.007 1023.96 316.227 1024.71 316.227H1028.12C1029.83 316.227 1030.41 316.777 1030.41 318.471C1030.41 321.529 1028.03 324.983 1023.87 328.041ZM1039.61 327.733H1032.04V327.293L1032.92 324.851H1038.38C1039.08 324.851 1039.28 324.675 1039.45 324.059C1039.56 323.575 1039.65 322.849 1039.65 322.233C1039.65 319.879 1038.77 319.087 1036.29 319.087H1032.35L1032.22 318.383C1032.22 318.185 1033.84 314.929 1033.98 314.819H1034.97L1035.1 315.611C1035.19 316.161 1035.25 316.227 1035.67 316.227H1037.34C1040.33 316.227 1041.41 317.415 1041.41 320.803C1041.41 323.069 1040.69 325.819 1039.61 327.733ZM1052.57 327.733L1043.11 327.733V327.293L1043.99 324.851L1050.19 324.851L1049.97 320.803C1049.91 319.571 1049.38 319.065 1048.1 319.065L1043.24 319.065L1043.11 318.383C1043.11 318.185 1044.71 314.929 1044.87 314.819H1045.84L1045.97 315.611C1046.06 316.183 1046.12 316.227 1046.54 316.227H1049.09C1051.16 316.227 1052 316.997 1052.02 318.977C1052.02 321.133 1051.97 323.157 1052 323.707C1052.02 324.807 1052.06 324.917 1053.05 325.159L1053.38 325.247L1052.57 327.733ZM973.799 353.195C972.809 353.195 971.995 352.403 971.995 351.413C971.995 350.401 972.809 349.609 973.799 349.609C974.789 349.609 975.603 350.401 975.603 351.413C975.603 352.403 974.789 353.195 973.799 353.195ZM988.023 353.019H987.649C987.517 348.927 987.451 347.475 987.363 345.825C987.297 344.637 986.725 344.087 985.537 344.087H978.255L978.145 343.383C978.145 343.185 979.751 339.929 979.883 339.819H980.873L981.005 340.611C981.093 341.183 981.137 341.227 981.577 341.227H986.373C988.617 341.227 989.585 342.173 989.607 344.395C989.629 344.901 989.629 345.473 989.629 346.089C989.629 348.223 989.563 350.863 989.431 352.139C989.365 352.227 988.133 352.997 988.023 353.019ZM979.531 353.019H979.069C979.025 352.095 978.981 351.105 978.981 350.225C978.981 348.729 979.047 347.409 979.157 346.419C979.223 346.309 980.895 345.275 981.027 345.275L981.379 345.341C981.357 348.553 981.357 350.225 981.423 351.809C981.357 351.941 979.685 352.997 979.531 353.019ZM994.533 348.773L992.817 349.279L992.619 349.081L993.609 346.793C994.247 345.297 994.159 344.791 993.103 344.087L991.453 342.987C991.431 342.833 992.399 340.281 992.509 340.171H992.949C993.851 340.699 994.467 341.073 995.171 341.557C996.799 342.745 996.953 343.823 995.853 346.221C995.413 347.211 994.929 348.113 994.533 348.773ZM1005.6 353.019H1005L1004.78 350.005C1006.63 347.695 1007.88 345.605 1007.88 344.813C1007.88 344.307 1007.6 344.087 1006.96 344.087H998.512L998.38 343.383C998.38 343.185 1000.01 339.929 1000.14 339.819H1001.11L1001.24 340.611C1001.33 341.183 1001.37 341.227 1001.81 341.227H1007.4C1009.23 341.227 1009.86 341.843 1009.86 343.537C1009.86 346.529 1008.37 349.851 1005.6 353.019ZM1000.29 356.583H999.832C999.568 353.525 999.414 348.135 999.568 346.529C999.656 346.419 1001.31 345.297 1001.42 345.297L1001.79 345.363C1001.83 349.081 1001.94 351.171 1002.14 354.911C1001.99 355.131 1000.4 356.583 1000.29 356.583ZM1019.39 353.019H1019.04C1018.97 350.313 1018.95 349.037 1018.91 347.541C1018.8 344.571 1018.42 344.087 1016.2 344.087L1011.82 344.087L1011.69 343.383C1011.69 343.185 1013.3 339.929 1013.45 339.819H1014.42L1014.57 340.611C1014.66 341.161 1014.71 341.227 1015.15 341.227H1017.54C1020.12 341.227 1021 342.129 1021.04 344.879C1021.06 347.167 1020.91 350.467 1020.76 352.029C1020.69 352.139 1019.48 352.997 1019.39 353.019ZM1026.19 353.019H1025.9L1025.77 347.035C1025.75 344.945 1025.55 344.571 1024.29 343.911L1022.64 343.053C1022.62 342.921 1023.3 340.347 1023.41 340.171H1023.88C1024.67 340.523 1025.26 340.787 1026.05 341.205C1027.66 342.063 1027.97 342.591 1027.92 345.407C1027.9 347.431 1027.75 350.665 1027.62 352.051C1027.57 352.139 1026.3 353.019 1026.19 353.019ZM1034.33 353.019C1032.13 353.019 1031.54 351.435 1031.19 348.289C1030.77 344.571 1030.61 343.405 1030.26 342.239C1030.37 341.997 1031.58 340.391 1031.78 340.237H1032.24C1032.46 340.787 1032.59 341.733 1032.79 344.087C1033.12 347.761 1033.23 349.917 1034.88 349.917C1036.91 349.917 1039.3 347.475 1039.3 345.473C1039.3 344.351 1038.56 343.735 1037.19 343.735C1036.49 343.735 1035.63 343.911 1034.77 344.285V341.513C1035.85 340.985 1036.91 340.699 1037.9 340.699C1040.03 340.699 1041.28 341.953 1041.28 344.109C1041.28 348.729 1037.92 353.019 1034.33 353.019ZM1052.57 352.733H1043.11V352.293L1043.99 349.851H1050.19L1049.97 345.803C1049.91 344.571 1049.38 344.065 1048.1 344.065H1043.24L1043.11 343.383C1043.11 343.185 1044.71 339.929 1044.87 339.819H1045.84L1045.97 340.611C1046.06 341.183 1046.12 341.227 1046.54 341.227H1049.09C1051.16 341.227 1052 341.997 1052.02 343.977C1052.02 346.133 1051.97 348.157 1052 348.707C1052.02 349.807 1052.06 349.917 1053.05 350.159L1053.38 350.247L1052.57 352.733Z" fill="black"/>
</svg>
