<svg width="208" height="195" viewBox="1623.290 579.597 216.550 206.066" fill="none" xmlns="http://www.w3.org/2000/svg">
<rect x="1623.290" y="579.597" width="216.550" height="206.066" fill="#FCFCFC"/>
<path d="M1732.66 581.788C1748.67 581.597 1764.28 586.386 1776 593.85C1776.75 594.306 1777.37 594.714 1777.71 594.947L1778 595.146L1778.32 595.376C1784.54 599.786 1789.68 605.887 1793.41 611.652C1796.82 616.915 1800.12 623.55 1802.04 631.019C1810.03 638.188 1815.06 648.593 1815.06 660.167C1815.06 664.031 1814.52 668.366 1812.97 672.849L1809.54 683.657C1810.16 683.95 1810.78 684.248 1811.4 684.556C1811.89 684.793 1812.38 685.043 1812.87 685.312C1812.98 685.374 1813.09 685.439 1813.2 685.502L1813.2 685.5L1813.33 685.574C1813.34 685.577 1813.34 685.582 1813.35 685.586C1830.56 695.364 1837.44 713.119 1837.82 729.139C1837.83 729.448 1837.84 729.758 1837.84 730.069V755.981C1837.84 771.248 1825.46 783.624 1810.2 783.625H1797.33C1796.86 783.649 1796.38 783.662 1795.89 783.662C1795.41 783.662 1794.93 783.649 1794.46 783.625H1790.29C1789.81 783.65 1789.32 783.663 1788.83 783.663H1763.29C1762.8 783.663 1762.32 783.65 1761.84 783.625H1754.3C1753.82 783.649 1753.34 783.662 1752.86 783.662C1752.38 783.662 1751.9 783.649 1751.42 783.625H1746.89C1746.42 783.649 1745.94 783.662 1745.45 783.662C1744.97 783.662 1744.49 783.649 1744.01 783.625H1719.52C1719.05 783.649 1718.57 783.662 1718.08 783.662C1717.6 783.662 1717.12 783.649 1716.65 783.625H1712.1C1711.62 783.649 1711.14 783.662 1710.66 783.662C1710.18 783.662 1709.7 783.649 1709.22 783.625H1693.66C1693.18 783.65 1692.7 783.662 1692.21 783.662C1691.72 783.662 1691.24 783.65 1690.76 783.625H1686.35C1685.87 783.649 1685.39 783.662 1684.91 783.662C1684.43 783.662 1683.95 783.649 1683.47 783.625H1668.61C1668.29 783.636 1667.97 783.643 1667.64 783.643C1667.32 783.643 1667 783.636 1666.68 783.625H1652.94C1637.67 783.624 1625.29 771.248 1625.29 755.981V730.069L1625.3 729.355C1625.3 729.275 1625.31 729.195 1625.31 729.116C1625.7 713.153 1632.54 695.337 1649.84 685.55L1649.93 685.5L1649.93 685.501C1650.05 685.433 1650.17 685.363 1650.29 685.297C1650.82 685.006 1651.35 684.735 1651.89 684.482C1652.54 684.16 1653.19 683.847 1653.84 683.539L1650.48 672.944C1649.04 668.788 1648.46 664.76 1648.39 661.033L1648.38 660.24L1648.4 659.23C1648.73 646.025 1655.62 634.438 1665.92 627.599C1666.52 625.706 1667.22 623.645 1668.08 621.528C1668.64 617.571 1670.12 613.28 1673.16 609.207C1680.14 599.146 1690.28 592.631 1699.54 588.662C1709.64 584.336 1721.11 581.947 1732.61 581.789L1732.66 581.788ZM1702.92 599.347C1703.46 599.496 1704 599.661 1704.53 599.843C1704.73 599.909 1704.92 599.975 1705.12 600.04C1704.47 599.803 1703.79 599.586 1703.09 599.391L1702.92 599.347ZM1702.29 599.182C1702.25 599.172 1702.21 599.161 1702.17 599.151L1701.58 599.012L1702.29 599.182Z" fill="black"/>
</svg>
