<svg width="208" height="195" viewBox="1577.40 472.57 297.06 152.86" xmlns="http://www.w3.org/2000/svg">
<rect x="1577.40" y="472.57" width="297.06" height="152.86" fill="#FCFCFC"/>
<path d="M1838.54 621.424H1613.32C1595.69 621.424 1581.4 607.115 1581.4 589.506V551.173C1581.98 526.595 1593.81 505.686 1613.27 494.968C1614.01 494.572 1614.75 494.202 1615.51 493.859C1635.07 484.17 1659.28 478.389 1685.68 477.069C1695.42 476.567 1704.8 480.553 1711.24 487.866C1713.93 490.902 1719.42 496.024 1726.15 496.024C1729.43 496.024 1733.57 495.417 1741.07 488.077C1741.7 487.444 1742.36 486.863 1743.05 486.282L1744.77 484.857C1751.92 478.943 1761.03 476.62 1769.66 477.861C1796.09 479.471 1817.97 484.725 1836.45 493.859C1837.19 494.202 1837.93 494.572 1838.67 494.968C1858.08 505.713 1869.88 526.595 1870.46 551.121V589.453C1870.46 607.089 1856.15 621.371 1838.54 621.371V621.424ZM1745.32 557.562H1806.62V553.074C1806.62 551.833 1806.49 550.909 1806.36 550.249C1798.12 546.501 1787.85 543.887 1775.68 542.461C1766.07 549.853 1756.01 554.869 1745.35 557.536H1745.32V557.562ZM1645.24 557.562H1707.23C1696.01 554.764 1685.39 549.51 1675.86 542.013C1664.27 543.544 1653.98 546.342 1645.5 550.276C1645.37 550.909 1645.24 551.86 1645.24 553.101V557.589V557.562Z" fill="black"/>
<path d="M1838.54 621.424H1613.32C1595.69 621.424 1581.4 607.116 1581.4 589.507V551.174C1581.98 526.596 1593.81 505.687 1613.27 494.968C1614.01 494.572 1614.75 494.203 1615.51 493.86C1635.07 484.171 1659.28 478.389 1685.68 477.069C1695.42 476.568 1704.8 480.554 1711.24 487.867C1713.93 490.903 1719.42 496.024 1726.15 496.024C1729.43 496.024 1733.57 495.417 1741.07 488.078C1741.7 487.444 1742.36 486.864 1743.05 486.283L1744.77 484.857C1751.92 478.944 1761.03 476.62 1769.66 477.861C1796.09 479.472 1817.97 484.725 1836.45 493.86C1837.19 494.203 1837.93 494.572 1838.67 494.968C1858.08 505.713 1869.88 526.596 1870.46 551.121V589.454C1870.46 607.089 1856.15 621.372 1838.54 621.372V621.424ZM1745.32 557.563H1806.62V553.075C1806.62 551.834 1806.49 550.91 1806.36 550.25C1798.12 546.501 1787.85 543.888 1775.68 542.462C1766.07 549.854 1756.01 554.87 1745.35 557.536H1745.32V557.563ZM1645.24 557.563H1707.23C1696.01 554.764 1685.39 549.511 1675.86 542.013C1664.27 543.544 1653.98 546.343 1645.5 550.276C1645.37 550.91 1645.24 551.86 1645.24 553.101V557.589V557.563Z" fill="black"/>
<path d="M1726.26 559.94C1676.15 559.94 1635.39 511.337 1635.39 451.594C1635.39 445.232 1635.89 438.658 1636.87 432.111C1637.93 425.009 1641.33 418.568 1646.37 413.71C1646.56 412.971 1646.77 412.02 1646.95 410.859C1647.14 409.697 1647.17 408.351 1647.17 407.876C1646.66 401.619 1648.04 395.52 1651.07 390.029L1651.36 389.501C1658.57 376.486 1673.78 370.176 1688.09 374.268C1698.96 377.384 1713.48 379.179 1725.81 378.941C1739.59 378.756 1751.71 376.935 1761 373.688C1769.35 370.784 1778.53 371.444 1786.35 375.562C1794.19 379.68 1799.94 386.835 1802.29 395.362C1802.74 397.025 1803.32 399.586 1804.14 405.737C1804.3 406.529 1804.43 407.348 1804.54 408.166C1804.83 410.516 1805.25 412.047 1805.54 412.918C1811.06 417.908 1814.67 424.692 1815.73 432.111C1816.68 438.764 1817.16 445.311 1817.16 451.594C1817.16 511.337 1776.39 559.94 1726.29 559.94H1726.26ZM1699.25 450.564V451.594C1699.25 477.044 1713.51 496.078 1726.26 496.078C1739.01 496.078 1753.27 477.044 1753.27 451.594V449.984C1751.45 447.344 1749.81 444.519 1748.33 441.483C1741.44 442.275 1734.29 442.724 1726.81 442.829C1719.4 442.961 1711.69 442.644 1704.01 441.879C1702.61 445.047 1701.02 447.951 1699.25 450.591V450.564Z" fill="black"/>
<path d="M1726.26 559.939C1676.15 559.939 1635.39 511.337 1635.39 451.594C1635.39 445.231 1635.89 438.658 1636.87 432.11C1637.93 425.009 1641.33 418.567 1646.37 413.71C1646.56 412.97 1646.77 412.02 1646.95 410.858C1647.14 409.697 1647.17 408.35 1647.17 407.875C1646.66 401.618 1648.04 395.52 1651.07 390.029L1651.36 389.501C1658.57 376.486 1673.78 370.176 1688.09 374.268C1698.96 377.383 1713.48 379.178 1725.81 378.941C1739.59 378.756 1751.71 376.934 1761 373.687C1769.35 370.783 1778.53 371.443 1786.35 375.562C1794.19 379.68 1799.94 386.834 1802.29 395.362C1802.74 397.025 1803.32 399.586 1804.14 405.737C1804.3 406.529 1804.43 407.347 1804.54 408.166C1804.83 410.515 1805.25 412.046 1805.54 412.918C1811.06 417.907 1814.67 424.692 1815.73 432.11C1816.68 438.763 1817.16 445.31 1817.16 451.594C1817.16 511.337 1776.39 559.939 1726.29 559.939H1726.26ZM1699.25 450.564V451.594C1699.25 477.043 1713.51 496.078 1726.26 496.078C1739.01 496.078 1753.27 477.043 1753.27 451.594V449.983C1751.45 447.343 1749.81 444.518 1748.33 441.482C1741.44 442.274 1734.29 442.723 1726.81 442.829C1719.4 442.961 1711.69 442.644 1704.01 441.878C1702.61 445.046 1701.02 447.95 1699.25 450.59V450.564Z" fill="black"/>
<path d="M1725.97 620.13H1725.81C1712.9 620.077 1701.31 612.236 1696.4 600.303L1667.78 530.37C1662.37 517.143 1666.38 501.937 1677.63 493.146C1688.88 484.328 1704.59 484.064 1716.12 492.486C1722.88 497.423 1729.56 497.396 1736.45 492.301C1748.01 483.721 1763.85 483.932 1775.18 492.829C1786.5 501.726 1790.49 517.064 1784.89 530.343L1755.35 600.62C1750.36 612.474 1738.77 620.183 1725.92 620.183L1725.97 620.13Z" fill="black"/>
</svg>
