<svg width="13" height="13" viewBox="0 0 13 13" fill="none" xmlns="http://www.w3.org/2000/svg">
<path d="M5.57143 7.42857H0.928571C0.665476 7.42857 0.44494 7.33958 0.266964 7.16161C0.0889881 6.98363 0 6.76309 0 6.5C0 6.2369 0.0889881 6.01637 0.266964 5.83839C0.44494 5.66042 0.665476 5.57143 0.928571 5.57143H5.57143V0.928571C5.57143 0.665476 5.66042 0.44494 5.83839 0.266964C6.01637 0.0889881 6.2369 0 6.5 0C6.76309 0 6.98363 0.0889881 7.16161 0.266964C7.33958 0.44494 7.42857 0.665476 7.42857 0.928571V5.57143H12.0714C12.3345 5.57143 12.5551 5.66042 12.733 5.83839C12.911 6.01637 13 6.2369 13 6.5C13 6.76309 12.911 6.98363 12.733 7.16161C12.5551 7.33958 12.3345 7.42857 12.0714 7.42857H7.42857V12.0714C7.42857 12.3345 7.33958 12.5551 7.16161 12.733C6.98363 12.911 6.76309 13 6.5 13C6.2369 13 6.01637 12.911 5.83839 12.733C5.66042 12.5551 5.57143 12.3345 5.57143 12.0714V7.42857Z" fill="#0365DD"/>
</svg>
