<svg preserveAspectRatio="none" width="100%" height="100%" overflow="visible" style="display: block;" viewBox="0 0 9.91635 9.91635" fill="none" xmlns="http://www.w3.org/2000/svg">
<path id="close_small" d="M8.83301 0.0898438C9.11829 0.0899319 9.34731 0.181447 9.52734 0.361328C9.72775 0.561739 9.82617 0.796901 9.82617 1.07031C9.82615 1.34346 9.72812 1.56767 9.53027 1.74902L9.52832 1.75098L6.38477 4.86719L6.32031 4.93066L9.52734 8.1377C9.7075 8.31786 9.79883 8.54738 9.79883 8.83301C9.79874 9.11845 9.70742 9.34727 9.52734 9.52734C9.327 9.72768 9.09262 9.8261 8.81934 9.82617C8.54618 9.82617 8.32199 9.72809 8.14062 9.53027L8.1377 9.52832L5.02246 6.38477L4.95801 6.32031L4.89453 6.38477L1.75195 9.52734C1.57179 9.7075 1.34227 9.79883 1.05664 9.79883C0.771017 9.79882 0.541485 9.7075 0.361328 9.52734C0.181447 9.34731 0.0899319 9.11829 0.0898438 8.83301C0.0898438 8.54749 0.18131 8.31782 0.361328 8.1377L3.50488 4.99512L3.56836 4.93066L3.50391 4.86719L0.361328 1.75098H0.360352C0.180849 1.57097 0.0898438 1.34175 0.0898438 1.05664C0.0898479 0.771017 0.181172 0.541485 0.361328 0.361328C0.541485 0.181172 0.771017 0.0898479 1.05664 0.0898438C1.34226 0.0898438 1.5718 0.18118 1.75195 0.361328L4.89453 3.50488L4.95801 3.56836L5.02246 3.50391L8.1377 0.361328C8.31782 0.18131 8.54749 0.0898438 8.83301 0.0898438Z" fill="#ABABAB" stroke="#F5F9FF" stroke-width="0.18"/>
</svg>
