<svg width="9.75" height="9.75" viewBox="0 0 9.7505 9.7505" fill="none" xmlns="http://www.w3.org/2000/svg">
<path d="M4.87525 6.18845L1.59225 9.47144C1.40622 9.65748 1.18735 9.7505 0.935654 9.7505C0.683958 9.7505 0.465091 9.65748 0.279055 9.47144C0.0930183 9.28541 0 9.06654 0 8.81484C0 8.56315 0.0930183 8.34428 0.279055 8.15824L3.56205 4.87525L0.279055 1.59225C0.0930183 1.40622 0 1.18735 0 0.935654C0 0.683958 0.0930183 0.465091 0.279055 0.279055C0.465091 0.0930186 0.683958 0 0.935654 0C1.18735 0 1.40622 0.0930186 1.59225 0.279055L4.87525 3.56205L8.15824 0.279055C8.34428 0.0930186 8.56315 0 8.81484 0C9.06654 0 9.28541 0.0930186 9.47144 0.279055C9.65748 0.465091 9.7505 0.683958 9.7505 0.935654C9.7505 1.18735 9.65748 1.40622 9.47144 1.59225L6.18845 4.87525L9.47144 8.15824C9.65748 8.34428 9.7505 8.56315 9.7505 8.81484C9.7505 9.06654 9.65748 9.28541 9.47144 9.47144C9.28541 9.65748 9.06654 9.7505 8.81484 9.7505C8.56315 9.7505 8.34428 9.65748 8.15824 9.47144L4.87525 6.18845Z" fill="#ABABAB"/>
</svg>
