<svg preserveAspectRatio="none" width="100%" height="100%" overflow="visible" style="display: block;" viewBox="0 0 11.0182 11.0182" fill="none" xmlns="http://www.w3.org/2000/svg">
<path id="close_small" d="M9.81445 0.0996094C10.1316 0.0997075 10.3859 0.202262 10.5859 0.402344C10.8085 0.624999 10.918 0.885712 10.918 1.18945C10.9179 1.49285 10.8086 1.7419 10.5889 1.94336L10.5869 1.94629L7.09473 5.4082L7.02344 5.47852L7.09375 5.5498L10.5859 9.04199C10.7861 9.24217 10.8877 9.49708 10.8877 9.81445C10.8876 10.1316 10.786 10.3859 10.5859 10.5859C10.3633 10.8086 10.1026 10.918 9.79883 10.918C9.49533 10.9179 9.24643 10.8087 9.04492 10.5889L9.04199 10.5869L5.58008 7.09473L5.50977 7.02344L5.43848 7.09375L1.94629 10.5859C1.74611 10.7861 1.4912 10.8877 1.17383 10.8877C0.856628 10.8876 0.602455 10.786 0.402344 10.5859C0.202262 10.3859 0.0997075 10.1316 0.0996094 9.81445C0.0996094 9.49708 0.202165 9.24217 0.402344 9.04199L3.89355 5.5498L3.96484 5.47852L3.89355 5.4082L0.402344 1.94629C0.202165 1.74611 0.0996094 1.4912 0.0996094 1.17383C0.0996603 0.85657 0.202215 0.602472 0.402344 0.402344C0.602472 0.202215 0.85657 0.0996603 1.17383 0.0996094C1.4912 0.0996094 1.74611 0.202165 1.94629 0.402344L5.43848 3.89355L5.50977 3.96484L5.58008 3.89355L9.04102 0.401367L9.04199 0.402344C9.24217 0.202165 9.49708 0.0996094 9.81445 0.0996094Z" fill="var(--fill-0, black)" stroke="var(--stroke-0, white)" stroke-width="0.2"/>
</svg>
