<svg width="208" height="195" viewBox="0 0 208 195" fill="none" xmlns="http://www.w3.org/2000/svg">
<rect width="208" height="195" fill="#F5F5F5"/>
<g id="Open Pictogram Bank">
<rect width="1920" height="1080" transform="translate(-1629.71 -366.719)" fill="#FCFCFC"/>
<path id="Union" d="M76.7402 185.38C78.9783 185.38 80.7929 187.195 80.793 189.433V190.037C80.7927 192.275 78.9782 194.089 76.7402 194.089C76.5072 194.089 76.2789 194.068 76.0566 194.03C75.9661 194.036 75.8743 194.041 75.7822 194.041H74.5479C74.0902 194.041 73.6506 193.964 73.2402 193.824C72.7813 194.005 72.2818 194.105 71.7588 194.105C69.5208 194.105 67.7062 192.291 67.7061 190.053V189.467C67.7061 187.229 69.5207 185.414 71.7588 185.414C72.525 185.414 73.2415 185.627 73.8525 185.997C74.0785 185.958 74.3107 185.937 74.5479 185.937H74.6914C75.2926 185.583 75.9927 185.38 76.7402 185.38ZM89.3467 185.312C90.3257 185.312 91.2243 185.658 91.9248 186.236C92.6108 185.704 93.4724 185.386 94.4082 185.386C96.6463 185.386 98.4609 187.2 98.4609 189.438V190.053C98.4608 192.291 96.6462 194.105 94.4082 194.105C93.5748 194.105 92.8003 193.853 92.1562 193.422C91.5496 193.803 90.8356 194.027 90.0693 194.039C89.8349 194.081 89.5932 194.105 89.3467 194.105C89.0955 194.105 88.8498 194.081 88.6113 194.037C86.4471 193.953 84.7179 192.173 84.7178 189.988C84.7179 188.776 85.2505 187.689 86.0938 186.946C86.8323 185.954 88.0147 185.312 89.3467 185.312ZM117.825 185.07C118.733 185.07 119.571 185.368 120.246 185.872C121.007 186.33 121.604 187.031 121.933 187.867C122.331 188.495 122.563 189.239 122.563 190.037C122.563 192.275 120.749 194.089 118.511 194.089H117.809C117.595 194.089 117.385 194.072 117.181 194.04C116.46 194.034 115.785 193.839 115.2 193.503C114.588 193.875 113.869 194.089 113.101 194.089C110.863 194.089 109.048 192.275 109.048 190.037V189.422C109.048 187.184 110.863 185.37 113.101 185.37C113.892 185.37 114.629 185.597 115.253 185.989C115.952 185.414 116.849 185.07 117.825 185.07ZM132.673 185.937C132.885 185.937 133.093 185.953 133.296 185.984H134.681C136.919 185.984 138.733 187.799 138.733 190.037C138.733 192.275 136.919 194.089 134.681 194.089H133.277C133.066 194.089 132.857 194.072 132.654 194.041H131.438C129.2 194.041 127.386 192.226 127.386 189.988C127.386 187.75 129.201 185.937 131.438 185.937H132.673ZM150.148 185.07C150.744 185.07 151.308 185.199 151.817 185.43C152.07 185.38 152.331 185.354 152.599 185.354C154.323 185.354 155.795 186.432 156.38 187.95C157.082 186.746 158.388 185.937 159.883 185.937H161.117C163.355 185.937 165.17 187.75 165.17 189.988C165.17 192.226 163.355 194.041 161.117 194.041H159.883C158.283 194.041 156.9 193.113 156.241 191.767C155.583 193.113 154.199 194.041 152.599 194.041C152.199 194.041 151.813 193.983 151.448 193.875C151.04 194.013 150.603 194.089 150.148 194.089H149.446C149.114 194.089 148.792 194.048 148.483 193.973C148.175 194.048 147.853 194.089 147.521 194.089C147.308 194.089 147.098 194.073 146.894 194.041H145.66C143.422 194.041 141.609 192.226 141.608 189.988C141.609 187.852 143.262 186.103 145.358 185.948C145.984 185.552 146.726 185.322 147.521 185.322C147.848 185.322 148.165 185.362 148.469 185.435C148.981 185.201 149.549 185.07 150.148 185.07ZM59.9707 185.307C60.8049 185.307 61.5802 185.559 62.2246 185.991C64.1464 186.308 65.6121 187.977 65.6123 189.988C65.6122 192.226 63.7984 194.041 61.5605 194.041H60.4756C60.3103 194.062 60.1416 194.073 59.9707 194.073C58.9949 194.073 58.0998 193.728 57.4004 193.153C56.7102 193.698 55.8393 194.025 54.8916 194.025C53.1747 194.025 51.7075 192.957 51.1172 191.449C50.5309 192.965 49.0607 194.041 47.3379 194.041H46.1025C43.8647 194.041 42.0509 192.226 42.0508 189.988C42.051 187.751 43.8648 185.937 46.1025 185.937H47.3379C48.9557 185.937 50.3513 186.885 51.001 188.256C51.4917 186.57 53.0474 185.338 54.8916 185.338C55.844 185.338 56.7194 185.667 57.4111 186.217C58.1089 185.648 59.0001 185.307 59.9707 185.307ZM4.05273 185.223C5.44733 185.223 6.67715 185.928 7.40625 187C8.21494 187.741 8.72254 188.805 8.72266 189.988C8.72254 192.226 6.90796 194.041 4.66992 194.041H4.05273C1.81474 194.041 0.000113655 192.226 0 189.988V189.275C0 187.037 1.81467 185.223 4.05273 185.223ZM18.8926 185.937C21.1305 185.937 22.9451 187.75 22.9453 189.988C22.9452 192.226 21.1306 194.041 18.8926 194.041H17.6582C15.4202 194.041 13.6056 192.226 13.6055 189.988C13.6057 187.75 15.4203 185.937 17.6582 185.937H18.8926ZM33.1152 185.937C35.3531 185.937 37.1677 187.75 37.168 189.988C37.1679 192.226 35.3532 194.041 33.1152 194.041H31.8809C29.6429 194.041 27.8282 192.226 27.8281 189.988C27.8283 187.75 29.6429 185.937 31.8809 185.937H33.1152ZM103.437 184.25C104.039 184.213 104.659 184.308 105.253 184.558C106.686 185.159 107.59 186.488 107.721 187.935C108.076 188.537 108.28 189.239 108.28 189.988C108.28 192.226 106.466 194.041 104.228 194.041H102.993C100.755 194.041 98.9405 192.226 98.9404 189.988C98.9405 189.491 99.0302 189.014 99.1943 188.573C99.0784 186.877 100.046 185.224 101.706 184.546C102.273 184.314 102.862 184.221 103.437 184.25ZM175.34 185.937C177.578 185.937 179.392 187.75 179.393 189.988C179.392 192.226 177.578 194.041 175.34 194.041H174.105C171.867 194.041 170.053 192.226 170.053 189.988C170.053 187.75 171.868 185.937 174.105 185.937H175.34ZM189.562 185.937C191.8 185.937 193.615 187.75 193.615 189.988C193.615 192.226 191.801 194.041 189.562 194.041H188.328C186.09 194.041 184.275 192.226 184.275 189.988C184.276 187.75 186.09 185.937 188.328 185.937H189.562ZM203.168 185.223C205.406 185.223 207.221 187.037 207.221 189.275V189.988C207.221 192.226 205.406 194.041 203.168 194.041H202.551C200.313 194.041 198.498 192.226 198.498 189.988C198.498 188.804 199.007 187.739 199.816 186.998C200.546 185.927 201.774 185.223 203.168 185.223ZM147.521 154.825C149.683 154.825 151.448 156.517 151.566 158.648C151.896 158.562 152.242 158.517 152.599 158.517C154.837 158.517 156.651 160.33 156.651 162.568V163.733C156.651 165.475 155.553 166.959 154.011 167.532C154.102 167.828 154.162 168.138 154.184 168.46C154.195 168.63 154.201 168.802 154.201 168.974V169.888C154.201 170.684 153.969 171.426 153.572 172.053C155.34 172.489 156.651 174.085 156.651 175.987V177.152C156.651 179.39 154.837 181.205 152.599 181.205C151.102 181.205 149.795 180.392 149.094 179.185C148.61 179.388 148.079 179.502 147.521 179.502C145.284 179.502 143.469 177.688 143.469 175.45V174.126C143.469 172.738 144.167 171.513 145.231 170.782C144.985 170.321 144.826 169.806 144.774 169.261C143.167 168.723 142.009 167.206 142.009 165.418C142.009 163.98 142.758 162.716 143.888 161.997C143.62 161.456 143.469 160.846 143.469 160.201V158.877C143.469 156.639 145.284 154.825 147.521 154.825ZM76.7402 157.548C78.9783 157.548 80.793 159.362 80.793 161.601V162.809C80.7929 164.176 80.1143 165.383 79.0771 166.117C79.7523 166.842 80.1652 167.814 80.1641 168.883C80.1626 170.126 79.6003 171.237 78.7178 171.98C79.9557 172.673 80.7929 173.997 80.793 175.517V176.725C80.7929 178.963 78.9783 180.777 76.7402 180.777C75.9172 180.777 75.1519 180.531 74.5127 180.109C73.7897 180.78 72.8226 181.191 71.7588 181.191C69.5208 181.191 67.7062 179.377 67.7061 177.139V175.967C67.7062 173.729 69.5208 171.915 71.7588 171.915C71.9009 171.915 72.0414 171.921 72.1797 171.936C71.3239 171.192 70.7829 170.095 70.7842 168.872C70.7847 168.434 70.8553 168.012 70.9844 167.617C69.1167 167.256 67.7063 165.613 67.7061 163.64V162.468C67.7061 160.23 69.5207 158.415 71.7588 158.415C72.4649 158.415 73.129 158.596 73.707 158.913C74.4494 158.076 75.5333 157.548 76.7402 157.548ZM59.9707 154.809C62.2088 154.809 64.0234 156.623 64.0234 158.861V160.186C64.0231 162.423 62.2086 164.237 59.9707 164.237C59.609 164.237 59.2585 164.19 58.9248 164.101C58.8933 164.437 58.8206 164.761 58.7119 165.068C59.1582 164.9 59.6422 164.808 60.1475 164.809L61.4229 164.81C63.6608 164.812 65.4729 166.628 65.4707 168.866C65.4691 170.304 64.7178 171.565 63.5879 172.283C63.8658 172.832 64.0234 173.453 64.0234 174.11V175.434C64.0233 177.672 62.2087 179.486 59.9707 179.486C59.4124 179.486 58.8804 179.373 58.3965 179.169C57.6948 180.376 56.3886 181.188 54.8916 181.188C52.6537 181.188 50.8392 179.375 50.8389 177.137V175.972C50.8389 173.734 52.6536 171.919 54.8916 171.919C55.422 171.919 55.9283 172.022 56.3926 172.207C56.5517 171.909 56.7469 171.632 56.9727 171.384C56.4201 170.69 56.0898 169.812 56.0908 168.856C56.0913 168.384 56.1724 167.931 56.3213 167.51C55.8767 167.677 55.3949 167.771 54.8916 167.771C52.6537 167.77 50.8391 165.956 50.8389 163.718V162.553C50.8389 160.315 52.6536 158.5 54.8916 158.5C55.2487 158.5 55.5949 158.547 55.9248 158.634C56.0428 156.502 57.8092 154.809 59.9707 154.809ZM136.143 114.866C137.572 113.144 140.128 112.907 141.85 114.337C143.379 115.607 143.736 117.764 142.794 119.438C142.794 119.44 142.794 119.443 142.794 119.445C142.7 121.249 141.441 122.715 139.784 123.153C139.618 124.995 138.223 126.48 136.424 126.781C136.441 126.934 136.451 127.09 136.451 127.248C136.451 129.486 134.636 131.3 132.398 131.3H131.314C130.916 131.3 130.531 131.241 130.167 131.134C130.112 131.158 130.056 131.181 130 131.202C129.955 131.235 129.911 131.268 129.864 131.3C129.788 131.352 129.709 131.401 129.633 131.452C129.988 131.35 130.364 131.295 130.752 131.295C131.812 131.295 132.777 131.703 133.499 132.369C134.143 131.939 134.917 131.689 135.75 131.688C137.988 131.689 139.802 133.502 139.802 135.74V136.972C139.802 139.21 137.988 141.024 135.75 141.024C134.694 141.024 133.733 140.62 133.012 139.959C132.366 140.394 131.589 140.648 130.752 140.648C129.869 140.648 129.052 140.365 128.387 139.886C128.366 139.942 128.345 139.999 128.321 140.055L127.867 141.136C127.001 143.199 124.626 144.171 122.562 143.305C122.442 143.254 122.326 143.197 122.213 143.137C122.205 144.849 121.134 146.309 119.627 146.895C120.063 146.923 120.502 147.024 120.928 147.202C121.318 147.366 121.67 147.584 121.978 147.844C121.971 147.75 121.967 147.654 121.967 147.559C121.97 145.321 123.786 143.508 126.024 143.511L127.373 143.513C128.928 143.515 130.276 144.392 130.954 145.678C131.877 145.723 132.718 146.08 133.378 146.642C134.045 146.159 134.864 145.874 135.75 145.874C136.451 145.874 137.111 146.053 137.687 146.366C138.204 144.721 139.743 143.528 141.559 143.53L142.906 143.532C143.097 143.532 143.286 143.546 143.47 143.572C143.5 141.36 145.302 139.576 147.521 139.576C149.76 139.576 151.574 141.391 151.574 143.629V144.952C151.574 145.046 151.569 145.139 151.562 145.231C151.893 145.144 152.241 145.098 152.599 145.098C153.007 145.098 153.401 145.159 153.772 145.271C154.507 144.229 155.72 143.548 157.092 143.55L158.44 143.552C160.678 143.555 162.491 145.37 162.488 147.608C162.485 149.846 160.669 151.659 158.431 151.656L157.082 151.654C156.864 151.654 156.649 151.636 156.44 151.603C155.902 153.209 154.386 154.367 152.599 154.367C150.361 154.367 148.547 152.553 148.547 150.315V149.15C148.547 149.056 148.55 148.963 148.557 148.87C148.226 148.957 147.879 149.005 147.521 149.005C147.249 149.005 146.982 148.977 146.725 148.926C146.17 150.506 144.666 151.639 142.896 151.637L141.548 151.636C140.922 151.635 140.329 151.491 139.8 151.236C139.758 153.438 137.962 155.211 135.75 155.211C134.753 155.211 133.84 154.85 133.134 154.252C132.465 154.739 131.642 155.027 130.752 155.027C128.733 155.027 127.058 153.55 126.75 151.617L126.015 151.616C125.018 151.615 124.106 151.253 123.401 150.655C123.445 151.268 123.351 151.901 123.097 152.507L122.643 153.588C122.368 154.243 121.939 154.787 121.418 155.198C121.917 155.872 122.214 156.706 122.214 157.609V158.986C122.214 159.875 121.926 160.697 121.44 161.365H121.913C124.151 161.365 125.965 163.18 125.965 165.418C125.965 167.053 124.996 168.46 123.603 169.101C123.549 170.351 122.929 171.454 121.993 172.161C122.135 172.574 122.214 173.017 122.214 173.479V174.856C122.214 177.094 120.399 178.908 118.161 178.908C117.598 178.908 117.061 178.793 116.573 178.585C115.864 179.762 114.575 180.549 113.101 180.549C112.365 180.549 111.676 180.352 111.081 180.01C109.954 180.967 108.344 181.271 106.888 180.66C104.824 179.794 103.853 177.419 104.719 175.355L105.173 174.274C105.394 173.746 105.715 173.289 106.104 172.917C105.905 172.947 105.701 172.963 105.494 172.963L104.219 172.961C103.735 172.96 103.272 172.874 102.843 172.719C102.435 172.856 101.999 172.931 101.545 172.931L100.926 172.93C101.349 173.32 101.696 173.806 101.928 174.374L102.367 175.449C103.213 177.521 102.22 179.887 100.148 180.733C98.7585 181.301 97.2368 181.04 96.1299 180.182C95.6073 180.427 95.0238 180.565 94.4082 180.565C92.9342 180.565 91.6437 179.778 90.9346 178.602C90.4471 178.809 89.91 178.925 89.3467 178.925C87.1089 178.925 85.2951 177.11 85.2949 174.872V173.494C85.295 172.581 85.5968 171.738 86.1064 171.061C85.7079 170.432 85.4768 169.688 85.4775 168.889C85.4799 166.734 87.164 164.973 89.2871 164.848C89.0793 164.252 89.0194 163.638 89.0889 163.046C86.9714 162.913 85.2952 161.154 85.2949 159.003V157.625C85.2949 156.793 85.5453 156.019 85.9756 155.375C85.4467 154.957 85.0144 154.4 84.7412 153.731L84.3018 152.656C83.9836 151.877 83.9255 151.057 84.0869 150.291C83.3439 151.118 82.2665 151.638 81.0674 151.637L79.7217 151.636C78.9811 152.44 77.9198 152.945 76.7402 152.945C76.1213 152.945 75.5354 152.805 75.0107 152.557C74.2722 153.549 73.0907 154.192 71.7588 154.192C69.7939 154.192 68.1548 152.793 67.7842 150.938C67.1399 151.367 66.3659 151.619 65.5332 151.618L64.1846 151.616C62.4418 151.614 60.9579 150.511 60.3877 148.967C60.2507 148.981 60.1114 148.989 59.9707 148.989C59.6118 148.989 59.264 148.941 58.9326 148.854C58.9389 148.946 58.9443 149.04 58.9443 149.134V150.299C58.9442 152.537 57.1296 154.352 54.8916 154.352C53.0618 154.352 51.515 153.138 51.0117 151.473C50.6883 151.555 50.3492 151.599 50 151.599L48.6514 151.597C46.4134 151.594 44.6009 149.777 44.6035 147.539C44.6065 145.301 46.4232 143.489 48.6611 143.492L50.0098 143.494C51.4404 143.496 52.6963 144.239 53.416 145.359C53.8733 145.18 54.3709 145.081 54.8916 145.081C55.2501 145.081 55.5977 145.128 55.9287 145.216C55.9224 145.124 55.919 145.03 55.9189 144.937V143.612C55.9191 141.374 57.7329 139.561 59.9707 139.561C62.1761 139.561 63.9685 141.322 64.0205 143.515C64.0783 143.512 64.1369 143.511 64.1953 143.511L65.543 143.513C67.1564 143.515 68.5489 144.46 69.1992 145.825C69.8969 145.256 70.7884 144.915 71.7588 144.915C72.3699 144.915 72.9491 145.052 73.4688 145.294C74.206 144.287 75.3964 143.632 76.7402 143.632C77.2185 143.632 77.6775 143.715 78.1035 143.867C78.6011 143.65 79.1508 143.53 79.7285 143.53L81.0771 143.532C83.3153 143.535 85.1278 145.352 85.125 147.59C85.1246 147.872 85.0943 148.147 85.0391 148.413C85.4351 147.972 85.9349 147.611 86.5205 147.372C87.167 147.108 87.8426 147.023 88.4912 147.094C86.7488 146.719 85.4226 145.225 85.3037 143.4C85.1937 143.458 85.0808 143.512 84.9639 143.56C82.8921 144.406 80.5261 143.413 79.6797 141.341L79.2402 140.265C78.9862 139.643 78.899 138.994 78.9561 138.368C78.3191 138.785 77.5583 139.029 76.7402 139.029C76.205 139.029 75.6943 138.924 75.2266 138.735C74.5166 139.908 73.2296 140.692 71.7588 140.692C69.5208 140.692 67.7062 138.878 67.7061 136.64V135.468C67.7063 133.23 69.5209 131.416 71.7588 131.416C72.2869 131.416 72.7913 131.517 73.2539 131.701C73.417 131.427 73.6119 131.173 73.833 130.945C72.4217 130.312 71.4377 128.895 71.4375 127.248C71.4375 127.225 71.4381 127.202 71.4385 127.179C69.3501 127.016 67.7063 125.271 67.7061 123.141V122.571C66.2451 122.153 65.1082 120.933 64.833 119.394C63.9225 117.727 64.2875 115.596 65.8037 114.337C67.5257 112.907 70.0802 113.144 71.5098 114.866C71.7433 115.148 71.9793 115.426 72.2168 115.701C72.2642 115.756 72.3095 115.812 72.3535 115.869C72.3845 115.902 72.4163 115.935 72.4463 115.969C72.5639 116.102 72.6822 116.235 72.8008 116.367C73.1963 116.808 73.4758 117.312 73.6445 117.842C74.3878 116.963 75.4987 116.403 76.7402 116.403C78.9783 116.403 80.7929 118.218 80.793 120.456V121.061C80.7929 121.855 80.5627 122.595 80.168 123.22C80.3008 123.296 80.4313 123.38 80.5576 123.473C80.6102 123.511 80.6641 123.549 80.7168 123.587C80.8317 123.653 80.9445 123.726 81.0547 123.805C81.3401 124.009 81.6275 124.209 81.916 124.405C83.7658 125.665 84.2441 128.186 82.9844 130.036C82.3273 131.001 81.3268 131.591 80.2578 131.758C80.5973 132.35 80.793 133.037 80.793 133.769V134.977C80.793 135.099 80.7851 135.22 80.7744 135.34C80.9868 135.201 81.2156 135.081 81.459 134.981C83.5309 134.135 85.8968 135.128 86.7432 137.2L87.1826 138.275C87.1885 138.29 87.1935 138.305 87.1992 138.319C87.8219 137.929 88.5578 137.703 89.3467 137.703C91.5848 137.703 93.3994 139.518 93.3994 141.756V143.133C93.3994 143.316 93.3859 143.497 93.3623 143.674C93.6959 143.585 94.0466 143.537 94.4082 143.537C94.5413 143.537 94.673 143.544 94.8027 143.557C95.07 143.502 95.3472 143.473 95.6309 143.474L96.3047 143.475C96.6936 143.475 97.0698 143.531 97.4258 143.634C99.2729 144.013 100.66 145.649 100.658 147.608C100.655 149.846 98.8394 151.659 96.6016 151.656L96.5303 151.655C95.9129 152.036 95.1866 152.257 94.4082 152.257C93.728 152.257 93.0873 152.088 92.5244 151.792C92.6203 152.737 92.378 153.677 91.8633 154.449C92.6968 155.111 93.2641 156.092 93.3779 157.209C93.7068 157.123 94.0523 157.077 94.4082 157.077C96.6463 157.077 98.4609 158.892 98.4609 161.13V162.358C98.4609 163.3 98.1377 164.166 97.5986 164.855C97.4998 166.352 96.5697 167.736 95.0869 168.342C95.002 168.376 94.9158 168.407 94.8301 168.436C94.8472 168.587 94.8576 168.742 94.8574 168.898C94.8564 169.773 94.5775 170.582 94.1055 171.244C94.2054 171.237 94.3064 171.231 94.4082 171.231C95.3363 171.231 96.1908 171.545 96.874 172.069C97.283 171.93 97.7005 171.861 98.1133 171.855C97.3105 171.113 96.8078 170.05 96.8096 168.871C96.8131 166.633 98.6304 164.822 100.868 164.825L101.558 164.826C102.04 164.827 102.502 164.912 102.931 165.067C103.338 164.93 103.774 164.856 104.228 164.856L105.503 164.857C107.741 164.86 109.554 166.677 109.552 168.915C109.55 170.063 109.07 171.099 108.302 171.835C109.014 171.726 109.764 171.807 110.478 172.106C110.497 172.114 110.515 172.124 110.534 172.132C111.143 171.633 111.899 171.308 112.727 171.232C112.26 170.571 111.985 169.765 111.986 168.895C111.987 168.651 112.009 168.412 112.051 168.18C110.525 167.51 109.613 166.008 109.628 164.433C109.26 163.822 109.048 163.107 109.048 162.343V161.114C109.048 158.876 110.863 157.062 113.101 157.062C113.456 157.062 113.801 157.107 114.13 157.193C114.244 156.075 114.812 155.091 115.647 154.43C115.1 153.689 114.814 152.773 114.855 151.841C114.324 152.096 113.729 152.241 113.101 152.241C112.345 152.241 111.638 152.034 111.033 151.674H110.786C110.397 151.673 110.022 151.616 109.666 151.514C107.819 151.134 106.43 149.498 106.433 147.539C106.436 145.301 108.252 143.49 110.49 143.492L111.839 143.494C112.083 143.494 112.322 143.517 112.555 143.559C112.733 143.535 112.915 143.522 113.101 143.521C113.462 143.521 113.812 143.57 114.146 143.658C114.122 143.481 114.108 143.301 114.108 143.117V141.739C114.109 139.501 115.923 137.688 118.161 137.688C118.94 137.688 119.668 137.907 120.286 138.288C120.318 138.191 120.354 138.094 120.394 137.999L120.848 136.919C121.714 134.855 124.089 133.884 126.152 134.75C126.349 134.833 126.536 134.929 126.712 135.037C126.791 133.99 127.269 133.054 127.993 132.38C126.278 132.962 124.322 132.335 123.292 130.746C123.132 130.499 123.002 130.24 122.901 129.975C122.502 130.413 122.007 130.764 121.45 130.994C121.552 131.176 121.642 131.368 121.717 131.569C122.497 133.667 121.429 136 119.331 136.78C119.324 136.783 119.317 136.785 119.31 136.787C119.209 136.833 119.106 136.876 119 136.914C118.615 137.051 118.228 137.182 117.84 137.309C117.825 137.314 117.811 137.319 117.796 137.324C117.421 137.448 117.043 137.567 116.664 137.681C114.52 138.323 112.261 137.105 111.619 134.961C110.977 132.817 112.194 130.558 114.338 129.916C114.544 129.854 114.749 129.787 114.953 129.722C114.424 129.037 114.109 128.18 114.108 127.248V126.559C114.109 124.321 115.923 122.507 118.161 122.507C119.024 122.507 119.823 122.777 120.48 123.236C121.959 123.447 123.18 124.455 123.694 125.812C123.923 125.56 124.19 125.335 124.488 125.142C124.765 124.962 125.04 124.778 125.315 124.592C125.577 124.415 125.852 124.273 126.135 124.164C126.308 123.979 126.502 123.808 126.715 123.653C126.78 123.606 126.845 123.557 126.91 123.509C126.774 123.103 126.699 122.669 126.699 122.218V121.594C126.699 119.356 128.514 117.541 130.752 117.541C131.628 117.541 132.44 117.82 133.103 118.293C133.224 118.134 133.359 117.983 133.507 117.84C133.63 117.721 133.752 117.602 133.875 117.481L134.12 117.26L134.186 117.205C134.366 117.055 134.557 116.923 134.754 116.81C134.916 116.416 135.143 116.041 135.437 115.701C135.674 115.426 135.909 115.147 136.143 114.866ZM4.05273 168.789C6.29069 168.789 8.10521 170.603 8.10547 172.841V174.268C8.10536 176.506 6.29078 178.32 4.05273 178.32C1.81474 178.32 0.000113655 176.506 0 174.268V172.841C0.000255598 170.603 1.81483 168.789 4.05273 168.789ZM203.168 168.789C205.406 168.789 207.22 170.603 207.221 172.841V174.268C207.221 176.506 205.406 178.32 203.168 178.32C200.93 178.32 199.115 176.506 199.115 174.268V172.841C199.115 170.603 200.93 168.789 203.168 168.789ZM130.752 160.053C131.697 160.053 132.566 160.377 133.256 160.92C133.944 160.382 134.809 160.061 135.75 160.061C137.988 160.061 139.802 161.875 139.802 164.113V164.729C139.802 164.953 139.783 165.173 139.748 165.388C140.903 166.106 141.67 167.388 141.664 168.848C141.655 171.086 139.834 172.893 137.596 172.884L137.063 172.882C136.27 172.879 135.532 172.647 134.908 172.25C134.25 172.709 133.45 172.979 132.587 172.978L131.898 172.977C129.661 172.973 127.849 171.156 127.853 168.918C127.853 168.505 127.915 168.107 128.03 167.731C127.213 166.99 126.699 165.919 126.699 164.729V164.105C126.699 161.867 128.514 160.053 130.752 160.053ZM161.618 164.873C163.856 164.882 165.663 166.703 165.654 168.941C165.645 171.179 163.825 172.986 161.587 172.978L161.055 172.976C158.817 172.967 157.009 171.145 157.018 168.907C157.027 166.669 158.848 164.862 161.086 164.871L161.618 164.873ZM46.7295 164.794C48.9675 164.797 50.7798 166.613 50.7773 168.851C50.7748 171.089 48.9586 172.901 46.7207 172.898L45.4453 172.897C43.2075 172.895 41.3944 171.079 41.3965 168.841C41.3989 166.603 43.216 164.79 45.4541 164.792L46.7295 164.794ZM32.0361 164.777C34.2741 164.78 36.0864 166.597 36.084 168.835C36.0812 171.073 34.2651 172.885 32.0273 172.883L31.3896 172.882C29.1517 172.879 27.3386 171.063 27.3408 168.825C27.3433 166.587 29.1604 164.775 31.3984 164.777H32.0361ZM4.11914 153.009C6.357 153.043 8.14421 154.884 8.11035 157.122C8.10723 157.329 8.10547 157.537 8.10547 157.745V157.834C8.10545 157.993 8.09405 158.15 8.07617 158.305C8.09404 158.459 8.10547 158.616 8.10547 158.775V158.851L8.09961 159.059C7.99115 161.2 6.22095 162.903 4.05273 162.903C1.81479 162.903 0.000196102 161.089 0 158.851V158.775C0 158.616 0.0114344 158.459 0.0292969 158.305C0.0114201 158.15 1.53083e-05 157.993 0 157.834V157.12L0.00585938 156.912C0.0099131 156.832 0.0167609 156.753 0.0253906 156.674C0.222934 154.591 1.99108 152.977 4.11914 153.009ZM203.102 153.009C205.23 152.977 206.998 154.591 207.195 156.674C207.211 156.82 207.221 156.969 207.221 157.12V157.834C207.221 157.993 207.209 158.15 207.191 158.305C207.209 158.459 207.221 158.616 207.221 158.775V158.851L207.215 159.059C207.106 161.2 205.336 162.903 203.168 162.903C200.93 162.903 199.115 161.089 199.115 158.851V158.775C199.115 158.616 199.126 158.459 199.144 158.305C199.126 158.15 199.115 157.993 199.115 157.834V157.745C199.115 157.537 199.113 157.329 199.11 157.122C199.077 154.884 200.864 153.043 203.102 153.009ZM173.3 143.569C175.538 143.572 177.35 145.389 177.348 147.627C177.345 149.865 175.528 151.678 173.29 151.675L172.616 151.674C170.378 151.671 168.566 149.854 168.568 147.616C168.571 145.378 170.388 143.567 172.626 143.569H173.3ZM34.4756 143.475C36.7137 143.477 38.5262 145.294 38.5234 147.532C38.5204 149.77 36.7037 151.582 34.4658 151.579L33.791 151.578C31.5533 151.575 29.7417 149.759 29.7441 147.521C29.7469 145.283 31.5637 143.471 33.8018 143.474L34.4756 143.475ZM90.3926 147.048C90.059 147.137 89.7083 147.186 89.3467 147.186C89.1949 147.186 89.045 147.176 88.8975 147.16C89.4195 147.272 89.9155 147.486 90.3555 147.789V147.59C90.3555 147.406 90.3689 147.225 90.3926 147.048ZM117.115 147.032C117.137 147.198 117.151 147.367 117.152 147.539C117.387 147.387 117.637 147.26 117.897 147.159C117.629 147.142 117.367 147.099 117.115 147.032ZM197.953 138.204C199.959 137.211 202.39 138.033 203.383 140.039C203.612 140.502 203.831 140.973 204.04 141.449C204.937 143.5 204.002 145.889 201.952 146.786C199.902 147.683 197.513 146.748 196.615 144.698C196.457 144.337 196.291 143.982 196.119 143.634C195.126 141.628 195.948 139.197 197.953 138.204ZM3.82715 140.035C4.81832 138.029 7.24919 137.205 9.25586 138.196C11.2623 139.188 12.0857 141.617 11.0947 143.624C10.923 143.972 10.7575 144.327 10.5996 144.688C9.70413 146.739 7.31571 147.676 5.26465 146.781C3.21355 145.886 2.2766 143.497 3.17188 141.446C3.38005 140.969 3.59823 140.499 3.82715 140.035ZM152.599 132.262C154.837 132.262 156.651 134.076 156.651 136.313V136.896C156.651 139.134 154.837 140.948 152.599 140.948C150.361 140.948 148.547 139.134 148.547 136.896V136.313C148.547 134.076 150.361 132.262 152.599 132.262ZM54.8916 132.245C57.1297 132.245 58.9443 134.06 58.9443 136.298V136.88C58.9442 139.118 57.1296 140.933 54.8916 140.933C52.6536 140.933 50.839 139.118 50.8389 136.88V136.298C50.8389 134.06 52.6536 132.245 54.8916 132.245ZM104.285 131.425C104.572 131.421 104.852 131.449 105.122 131.502C107 131.832 108.438 133.458 108.467 135.435C108.489 137.005 107.615 138.378 106.318 139.069C105.735 139.411 105.058 139.613 104.333 139.624C104.111 139.627 103.889 139.629 103.666 139.629C103.663 139.629 103.66 139.628 103.657 139.628L103.65 139.629C103.519 139.629 103.389 139.623 103.261 139.61C103.173 139.61 103.084 139.61 102.996 139.608C100.758 139.576 98.9703 137.735 99.0029 135.497C99.0268 133.866 100.012 132.474 101.41 131.852C101.972 131.57 102.608 131.415 103.279 131.425C103.451 131.427 103.623 131.429 103.795 131.429C103.959 131.429 104.122 131.427 104.285 131.425ZM89.3467 122.522C91.3207 122.522 92.9646 123.934 93.3252 125.803C93.4966 126.252 93.5908 126.739 93.5908 127.248C93.5907 128.179 93.2753 129.036 92.7471 129.721C94.8077 130.443 95.9325 132.678 95.2656 134.772C94.6292 136.77 92.5888 137.93 90.5801 137.51C90.2191 137.492 89.8539 137.428 89.4941 137.309C89.0822 137.172 88.6724 137.029 88.2646 136.881C86.1613 136.116 85.0756 133.792 85.8398 131.688C85.9668 131.339 86.137 131.018 86.3418 130.729C85.1577 130.021 84.3645 128.727 84.3643 127.248C84.3643 125.69 85.2435 124.339 86.5322 123.66C87.2611 122.956 88.2532 122.523 89.3467 122.522ZM185.641 129.041C186.646 127.042 189.083 126.237 191.082 127.242C191.108 127.255 191.134 127.268 191.16 127.281C191.303 127.34 191.445 127.408 191.583 127.484C191.816 127.614 192.047 127.746 192.275 127.882C194.201 129.023 194.837 131.508 193.696 133.434C192.555 135.359 190.069 135.995 188.144 134.855C188.07 134.811 187.996 134.769 187.922 134.727C187.762 134.645 187.601 134.563 187.44 134.482C185.441 133.477 184.635 131.04 185.641 129.041ZM16.1377 127.241C18.1358 126.233 20.5728 127.036 21.5811 129.034C22.589 131.032 21.787 133.469 19.7891 134.478C19.6234 134.561 19.4576 134.645 19.293 134.73C19.2917 134.73 19.2903 134.731 19.2891 134.731C19.2148 134.774 19.1399 134.815 19.0664 134.858C17.138 135.994 14.6533 135.351 13.5176 133.423C12.3819 131.494 13.0247 129.01 14.9531 127.874C15.1824 127.739 15.4145 127.607 15.6484 127.479C15.781 127.406 15.9161 127.341 16.0527 127.284C16.0809 127.27 16.1095 127.255 16.1377 127.241ZM144.893 123.195C146.327 123.195 147.586 123.941 148.307 125.065C150.169 125.431 151.574 127.073 151.574 129.042V129.703C151.574 131.941 149.759 133.756 147.521 133.756C145.85 133.756 144.414 132.744 143.795 131.299C141.563 131.292 139.756 129.482 139.756 127.248C139.756 125.01 141.57 123.196 143.808 123.195H144.893ZM63.6865 123.195C65.9245 123.195 67.7383 125.01 67.7383 127.248C67.738 129.485 65.9254 131.298 63.6885 131.299C63.0651 132.735 61.6358 133.74 59.9707 133.74C57.7329 133.74 55.9191 131.925 55.9189 129.688V129.025C55.9191 127.067 57.3088 125.432 59.1562 125.055C59.8775 123.936 61.1345 123.195 62.5645 123.195H63.6865ZM50.7598 123.195C52.9979 123.195 54.8125 125.01 54.8125 127.248C54.8122 129.486 52.9977 131.3 50.7598 131.3H50.1992C47.9614 131.3 46.1468 129.486 46.1465 127.248C46.1465 125.01 47.9612 123.195 50.1992 123.195H50.7598ZM101.904 123.195C102.839 123.195 103.7 123.513 104.386 124.045C105.072 123.512 105.933 123.195 106.869 123.195H107.411C109.649 123.195 111.464 125.01 111.464 127.248C111.464 129.486 109.649 131.3 107.411 131.3H106.869C105.933 131.3 105.072 130.982 104.386 130.449C103.7 130.982 102.84 131.3 101.904 131.3H101.343C99.1049 131.3 97.2904 129.486 97.29 127.248C97.29 125.01 99.1047 123.195 101.343 123.195H101.904ZM146.86 119.774C147.12 117.552 149.133 115.96 151.355 116.22C151.748 116.266 152.141 116.313 152.533 116.361C154.754 116.637 156.331 118.661 156.056 120.882C155.912 122.042 155.291 123.025 154.414 123.661C154.978 123.364 155.62 123.195 156.302 123.195H156.844C159.082 123.195 160.896 125.01 160.896 127.248C160.896 129.486 159.082 131.3 156.844 131.3H156.302C154.064 131.3 152.249 129.486 152.249 127.248C152.249 125.9 152.908 124.706 153.92 123.969C153.213 124.341 152.389 124.511 151.536 124.405C151.163 124.359 150.789 124.313 150.414 124.27C148.192 124.009 146.601 121.997 146.86 119.774ZM173.088 124.518C173.792 122.393 176.086 121.242 178.21 121.946C178.591 122.073 178.972 122.201 179.351 122.331C181.467 123.059 182.591 125.365 181.863 127.481C181.135 129.598 178.829 130.723 176.713 129.995C176.363 129.875 176.012 129.756 175.66 129.64C173.536 128.936 172.384 126.642 173.088 124.518ZM29.0576 121.839C31.1751 121.114 33.4792 122.243 34.2041 124.36C34.9288 126.478 33.8 128.782 31.6826 129.507C31.3274 129.628 30.9734 129.751 30.6211 129.876C28.5116 130.623 26.1949 129.52 25.4473 127.41C24.6999 125.301 25.8047 122.985 27.9141 122.237C28.2939 122.103 28.6752 121.97 29.0576 121.839ZM160.085 121.531C160.542 119.341 162.688 117.935 164.879 118.392C165.269 118.473 165.659 118.556 166.047 118.641C168.234 119.117 169.621 121.276 169.145 123.463C168.668 125.65 166.509 127.037 164.322 126.561C163.958 126.481 163.591 126.403 163.225 126.326C161.034 125.869 159.628 123.722 160.085 121.531ZM42.4463 118.097C44.6309 117.611 46.7954 118.988 47.2812 121.173C47.7669 123.358 46.3898 125.523 44.2051 126.009C43.836 126.091 43.4676 126.174 43.1006 126.259C40.9203 126.764 38.7433 125.406 38.2383 123.226C37.7333 121.045 39.0913 118.868 41.2715 118.363C41.662 118.273 42.054 118.184 42.4463 118.097ZM56.0723 115.74C58.2925 115.459 60.3209 117.031 60.6025 119.251C60.8838 121.471 59.3119 123.5 57.0918 123.781C56.7153 123.829 56.339 123.878 55.9639 123.929C53.7459 124.227 51.7055 122.67 51.4072 120.452C51.1092 118.234 52.6659 116.194 54.8838 115.896C55.2792 115.842 55.6757 115.791 56.0723 115.74ZM78.2773 105.985C80.5114 105.853 82.4293 107.558 82.5615 109.792C82.6935 112.026 80.9899 113.944 78.7559 114.076C78.5234 114.09 78.2895 114.098 78.0547 114.098C77.8294 114.098 77.6049 114.091 77.3818 114.079C75.1473 113.956 73.4352 112.045 73.5576 109.811C73.6803 107.576 75.5915 105.864 77.8262 105.986C77.9016 105.99 77.9779 105.992 78.0547 105.992C78.1287 105.992 78.2033 105.99 78.2773 105.985ZM129.196 105.873C129.271 105.877 129.346 105.88 129.422 105.88C129.501 105.88 129.579 105.878 129.656 105.874C131.891 105.754 133.8 107.468 133.92 109.703C134.04 111.938 132.325 113.847 130.091 113.967C129.869 113.979 129.646 113.985 129.422 113.985C129.187 113.985 128.953 113.979 128.721 113.965C126.487 113.833 124.782 111.916 124.913 109.682C125.044 107.447 126.962 105.742 129.196 105.873ZM59.0098 102.661C60.9859 101.61 63.4404 102.361 64.4912 104.337C64.6648 104.663 64.8406 104.988 65.0186 105.31C66.1016 107.268 65.3919 109.734 63.4336 110.817C61.4753 111.9 59.0091 111.191 57.9258 109.232C57.7261 108.871 57.5294 108.507 57.335 108.142C56.2844 106.166 57.034 103.712 59.0098 102.661ZM143.162 104.337C144.213 102.361 146.667 101.61 148.643 102.661C150.618 103.712 151.369 106.166 150.318 108.142C150.124 108.507 149.926 108.871 149.727 109.232C148.643 111.191 146.177 111.901 144.219 110.817C142.26 109.734 141.552 107.268 142.635 105.31C142.813 104.988 142.989 104.663 143.162 104.337ZM68.8027 99.7627C70.9361 99.0871 73.2137 100.269 73.8896 102.402L74.1016 103.07L74.1133 103.107C74.1349 103.178 74.1581 103.248 74.1836 103.317C74.9591 105.417 73.8855 107.748 71.7861 108.523C69.6869 109.299 67.3566 108.225 66.5811 106.126C66.5072 105.926 66.4385 105.723 66.375 105.519L66.1631 104.851C65.4871 102.717 66.6693 100.439 68.8027 99.7627ZM133.587 102.29C134.263 100.157 136.541 98.9754 138.675 99.6514C140.808 100.328 141.989 102.605 141.313 104.738L141.107 105.385C141.041 105.6 140.969 105.814 140.891 106.023C140.11 108.121 137.776 109.188 135.679 108.407C133.582 107.626 132.514 105.293 133.295 103.195C133.321 103.124 133.346 103.052 133.369 102.979L133.376 102.958L133.587 102.29ZM83.7891 99.5166C85.8044 98.5432 88.2277 99.388 89.2012 101.403C89.2687 101.543 89.3372 101.683 89.4062 101.822C89.4228 101.856 89.4395 101.89 89.4551 101.924L89.459 101.933C89.4734 101.964 89.4855 101.996 89.499 102.027C89.5147 102.059 89.532 102.091 89.5469 102.123L89.5508 102.132C89.7964 102.664 89.9238 103.244 89.9238 103.83V103.837C89.9238 103.861 89.9213 103.886 89.9209 103.91C89.9213 103.934 89.9238 103.959 89.9238 103.983V103.99C89.9238 104.305 89.8873 104.62 89.8145 104.927C89.7589 105.16 89.6954 105.392 89.626 105.619C88.9725 107.759 86.7078 108.965 84.5674 108.312C82.8139 107.776 81.6881 106.16 81.6973 104.416C81.0792 102.519 81.9423 100.409 83.7891 99.5166ZM118.271 101.297C119.242 99.28 121.664 98.4313 123.681 99.4014C125.585 100.317 126.446 102.526 125.72 104.468C125.66 106.127 124.578 107.647 122.905 108.183C120.774 108.865 118.492 107.691 117.81 105.56C117.737 105.334 117.672 105.105 117.613 104.873C117.531 104.548 117.489 104.213 117.489 103.878V103.871C117.489 103.844 117.491 103.817 117.491 103.79C117.491 103.768 117.489 103.746 117.489 103.725V103.718C117.489 102.886 117.747 102.078 118.222 101.398C118.238 101.365 118.255 101.331 118.271 101.297ZM103.38 98.0381C103.527 98.0444 103.677 98.0479 103.826 98.0479C103.967 98.0479 104.108 98.0446 104.247 98.0391C106.483 97.9504 108.368 99.6915 108.457 101.928C108.546 104.164 106.805 106.049 104.568 106.138C104.322 106.147 104.074 106.152 103.826 106.152C103.562 106.152 103.299 106.147 103.037 106.136C100.801 106.041 99.0654 104.151 99.1602 101.915C99.2551 99.6793 101.144 97.9436 103.38 98.0381ZM112.177 93.9014C113.529 92.1179 116.071 91.7683 117.854 93.1201C119.638 94.4721 119.989 97.0143 118.637 98.7979C118.487 98.9957 118.332 99.1905 118.175 99.3819C116.752 101.109 114.197 101.357 112.47 99.9346C110.742 98.512 110.496 95.9582 111.918 94.2305C112.007 94.1229 112.093 94.0125 112.177 93.9014ZM89.4883 92.3242C91.3397 91.0672 93.8598 91.5491 95.1172 93.4004C95.2005 93.5231 95.2864 93.6444 95.375 93.7637C96.7094 95.5604 96.3348 98.0991 94.5381 99.4336C92.7415 100.768 90.2036 100.393 88.8691 98.5967C88.7126 98.3859 88.5598 98.1716 88.4121 97.9541C87.1547 96.1027 87.637 93.5817 89.4883 92.3242ZM54.4512 89.9463C56.5825 89.2634 58.8649 90.437 59.5479 92.5684C59.6614 92.9228 59.7773 93.276 59.8955 93.627C60.6096 95.7478 59.4693 98.0462 57.3486 98.7608C55.2277 99.475 52.9283 98.3348 52.2139 96.2139C52.0829 95.8251 51.9548 95.4343 51.8291 95.042C51.1462 92.9109 52.3202 90.6295 54.4512 89.9463ZM148.105 92.5684C148.788 90.4371 151.07 89.2634 153.201 89.9463C155.332 90.6293 156.506 92.9107 155.823 95.042C155.698 95.4342 155.569 95.8251 155.438 96.2139C154.724 98.3347 152.426 99.475 150.305 98.7608C148.184 98.0464 147.044 95.7479 147.758 93.627C147.876 93.276 147.992 92.9228 148.105 92.5684ZM70.6162 81.0322C72.3805 80.4768 74.2399 81.1908 75.2119 82.6602C75.7169 82.0496 76.4067 81.5805 77.2266 81.3477C79.3794 80.7366 81.6201 81.9868 82.2314 84.1397C82.2927 84.3552 82.3553 84.5707 82.4189 84.7852C82.6911 85.7022 82.6304 86.6861 82.2471 87.5625L82.2422 87.5733C82.2259 87.6105 82.2067 87.6471 82.1895 87.6836C82.173 87.7248 82.1575 87.7667 82.1396 87.8076L82.1348 87.8184C82.0691 87.9684 81.9944 88.1149 81.9111 88.2559C81.8537 88.353 81.7939 88.4496 81.7324 88.544C81.7098 88.5787 81.6846 88.6117 81.6611 88.6455C81.6754 88.6456 81.6898 88.6473 81.7041 88.6475C81.7544 88.6488 81.8046 88.6502 81.8545 88.6533C83.5629 88.7422 85.0425 89.8971 85.5303 91.5527C85.5765 91.7098 85.6223 91.8668 85.6689 92.0225C86.3106 94.1664 85.0931 96.4245 82.9492 97.0664C80.8382 97.6983 78.617 96.5272 77.9365 94.4444C77.6836 93.9155 77.542 93.3226 77.542 92.6973C77.542 92.2147 77.6264 91.7515 77.7812 91.3223C77.1823 91.7291 76.4677 91.9824 75.6914 92.0176C75.577 92.0228 75.4618 92.0254 75.3467 92.0254C75.2029 92.0254 75.0592 92.021 74.917 92.0127C73.3723 91.9225 72.0809 90.9776 71.4736 89.6651C70.7722 89.5591 70.11 89.2703 69.5557 88.8311C69.9258 90.8142 68.7689 92.8075 66.7969 93.4326C64.6635 94.1085 62.3851 92.9273 61.709 90.794L61.2861 89.457C60.6103 87.3236 61.7915 85.0462 63.9248 84.3701C65.3121 83.9306 66.7598 84.277 67.7891 85.1592C67.6698 83.3389 68.7989 81.6047 70.6162 81.0322ZM132.279 82.4756C133.256 81.0224 135.105 80.3197 136.859 80.8721C138.694 81.4498 139.826 83.2115 139.682 85.0508C140.711 84.1653 142.162 83.8176 143.552 84.2578C145.685 84.9339 146.867 87.2122 146.191 89.3457L145.768 90.6817C145.091 92.8149 142.814 93.9961 140.681 93.3203C138.69 92.6896 137.528 90.6651 137.93 88.6641C137.373 89.1073 136.708 89.3996 136.002 89.5059C135.393 90.8213 134.097 91.7662 132.549 91.8526C132.41 91.8603 132.27 91.8643 132.13 91.8643C132.017 91.8643 131.904 91.8623 131.792 91.8574C131.002 91.8231 130.276 91.5636 129.67 91.1455C129.84 91.5931 129.935 92.0787 129.935 92.586C129.934 93.2168 129.79 93.8143 129.533 94.3467C128.845 96.4262 126.62 97.5895 124.512 96.9502C122.37 96.3007 121.16 94.0372 121.81 91.8955C121.857 91.7393 121.905 91.5819 121.952 91.4238L122.061 91.1084C122.638 89.6319 124.03 88.6247 125.62 88.541C125.671 88.5378 125.721 88.5365 125.772 88.5352C125.793 88.5349 125.813 88.5332 125.834 88.5332H125.846C125.809 88.4826 125.774 88.4307 125.74 88.3779C125.68 88.2852 125.622 88.1908 125.565 88.0957C125.441 87.8856 125.336 87.6646 125.252 87.4356L125.247 87.4219C125.229 87.3739 125.213 87.3256 125.197 87.2774C125.179 87.2335 125.161 87.1894 125.145 87.1445L125.14 87.1309C124.834 86.3017 124.808 85.3952 125.065 84.5498C125.129 84.3395 125.192 84.1273 125.254 83.9151C125.878 81.766 128.125 80.5291 130.274 81.1524C131.092 81.3896 131.778 81.8628 132.279 82.4756ZM52.0518 76.6563C54.2657 76.3284 56.3264 77.8583 56.6543 80.0723C56.7088 80.4406 56.7659 80.8079 56.8252 81.1738C57.1832 83.3829 55.6827 85.464 53.4736 85.8223C51.2645 86.1803 49.1824 84.6798 48.8242 82.4707C48.759 82.0681 48.6967 81.6638 48.6367 81.2588C48.309 79.045 49.838 76.9842 52.0518 76.6563ZM150.999 80.0723C151.327 77.8585 153.387 76.3287 155.601 76.6563C157.814 76.9841 159.343 79.0449 159.016 81.2588C158.956 81.6638 158.893 82.0681 158.828 82.4707C158.47 84.6798 156.389 86.1803 154.18 85.8223C151.971 85.4641 150.469 83.383 150.827 81.1738C150.886 80.8079 150.944 80.4406 150.999 80.0723ZM51.7344 63.166C53.8848 63.1806 55.6318 64.868 55.752 66.9854C56.2372 65.2181 57.8831 63.9475 59.7949 64.0117C62.0199 64.0866 63.7646 65.9411 63.709 68.1621C64.3269 66.5401 65.9489 65.44 67.7705 65.5635C70.0034 65.7151 71.6907 67.6479 71.5391 69.8809C71.5357 69.9305 71.5342 69.9819 71.5342 70.0332C71.5342 70.0382 71.5341 70.0439 71.5342 70.0498C71.5367 70.1803 71.5321 70.31 71.5225 70.4375C71.5921 70.594 71.6536 70.7564 71.7041 70.9248C71.7096 70.9433 71.716 70.962 71.7217 70.9805C71.7581 71.0981 71.7871 71.2177 71.8125 71.3369L71.8809 71.5547C72.5528 73.6894 71.3671 75.9646 69.2324 76.6367C67.4791 77.1886 65.6311 76.4872 64.6543 75.0361C64.3552 76.4073 63.3528 77.5857 61.9189 78.0401C59.7855 78.7158 57.5081 77.5338 56.832 75.4004L56.6406 74.7988C56.6212 74.7449 56.6019 74.6908 56.583 74.6367C56.2215 73.5996 56.3066 72.5146 56.7363 71.5918C56.1591 70.994 55.7638 70.219 55.6406 69.3545C55.2063 71.1112 53.6259 72.4193 51.7334 72.4317C49.4957 72.4462 47.6693 70.644 47.6543 68.4063C47.653 68.2013 47.6523 67.9954 47.6523 67.7901C47.6523 67.5906 47.6529 67.3909 47.6543 67.1914C47.6695 64.9534 49.4964 63.1509 51.7344 63.166ZM147.682 63.8994C149.918 63.8241 151.793 65.5759 151.868 67.8125C151.875 68.0231 151.879 68.2353 151.879 68.4473C151.879 68.537 151.878 68.627 151.877 68.7168C151.863 69.7912 151.432 70.762 150.74 71.4785C151.172 72.4041 151.256 73.4926 150.892 74.5322C150.873 74.5857 150.853 74.6391 150.834 74.6924L150.645 75.2881C149.968 77.4215 147.691 78.6038 145.558 77.9277C144.11 77.4692 143.102 76.2733 142.813 74.8858C141.835 76.3297 139.992 77.0273 138.243 76.4766C136.109 75.8045 134.923 73.5292 135.595 71.3945L135.741 70.9287C135.766 70.8451 135.792 70.762 135.822 70.6807C135.861 70.57 135.905 70.4618 135.953 70.3565C135.944 70.2371 135.94 70.1161 135.941 69.9942C135.942 69.9805 135.941 69.9661 135.941 69.9522C135.941 69.9003 135.94 69.8488 135.937 69.7988C135.786 67.566 137.474 65.6343 139.707 65.4834C141.529 65.3605 143.15 66.4621 143.767 68.085C143.692 65.8485 145.445 63.9748 147.682 63.8994ZM79.7471 44.1944C81.4408 42.7314 83.9999 42.9176 85.4629 44.6113C86.9257 46.305 86.7384 48.8641 85.0449 50.3272C84.9576 50.4026 84.8709 50.4797 84.7861 50.5576C83.8489 51.42 82.6151 51.7561 81.4463 51.583C82.434 52.3391 83.0361 53.5212 83.0361 54.7998V54.8164C83.0361 54.8664 83.034 54.9163 83.0322 54.9658H83.0312C83.1327 55.035 83.2325 55.109 83.3291 55.1885C84.6565 56.2817 85.1082 58.0421 84.6016 59.583C85.4224 59.4902 86.2792 59.6463 87.0527 60.085C87.1217 60.1241 87.1916 60.1625 87.2617 60.2002C87.5813 60.3723 87.8679 60.5818 88.1201 60.8194C88.0783 60.6994 88.0423 60.5767 88.0117 60.4522C86.3537 60.0353 85.0775 58.5909 84.957 56.793C84.9516 56.7122 84.948 56.631 84.9453 56.5498L84.9414 56.3057L84.9453 56.0615C84.948 55.9804 84.9516 55.8991 84.957 55.8184L84.9766 55.6104C85.1497 54.1434 86.0965 52.9373 87.376 52.376C87.6798 50.5157 89.2581 49.0626 91.2148 48.9844C91.4613 48.9746 91.7097 48.9697 91.958 48.9697C92.2219 48.9698 92.4854 48.9752 92.7471 48.9863C94.6452 49.0671 96.1818 50.4413 96.5449 52.2227C98.0914 52.7094 99.2582 54.1033 99.373 55.8184C99.3839 55.9799 99.3887 56.1426 99.3887 56.3057C99.3887 56.4688 99.3839 56.6315 99.373 56.793C99.2525 58.5911 97.9758 60.0355 96.3174 60.4522C96.259 60.6902 96.1789 60.9204 96.0801 61.1406C96.3893 60.8019 96.7627 60.5105 97.1924 60.2852C97.26 60.2497 97.3272 60.2135 97.3936 60.1768C98.0786 59.7974 98.8261 59.6376 99.5547 59.6738C99.2982 58.5467 99.5235 57.3176 100.276 56.3242C100.426 56.1267 100.58 55.9323 100.737 55.7412C102.16 54.0134 104.715 53.7659 106.442 55.1885C107.421 55.9948 107.924 57.1643 107.918 58.3408C108.031 58.7405 108.08 59.1508 108.068 59.5576C108.779 59.5396 109.504 59.7088 110.167 60.085C110.236 60.124 110.305 60.1625 110.375 60.2002C110.716 60.3837 111.019 60.6099 111.283 60.8672C111.234 60.7319 111.192 60.5934 111.157 60.4522C109.499 60.0353 108.223 58.591 108.103 56.793C108.097 56.7122 108.093 56.631 108.09 56.5498L108.086 56.3057L108.09 56.0615C108.093 55.9803 108.097 55.8992 108.103 55.8184L108.122 55.6104C108.294 54.1563 109.225 52.9582 110.487 52.3906C110.785 50.5233 112.366 49.0627 114.328 48.9844C114.575 48.9746 114.822 48.9698 115.07 48.9697C115.334 48.9697 115.598 48.9753 115.859 48.9863C117.754 49.0667 119.289 50.4356 119.656 52.2119C121.22 52.6888 122.402 54.0907 122.518 55.8184C122.528 55.9799 122.534 56.1426 122.534 56.3057C122.534 56.4688 122.528 56.6314 122.518 56.793C122.397 58.5911 121.121 60.0354 119.463 60.4522C119.41 60.6688 119.339 60.879 119.252 61.0811C119.55 60.7681 119.903 60.4969 120.307 60.2852C120.374 60.2497 120.442 60.2135 120.508 60.1768C121.231 59.7765 122.023 59.6207 122.789 59.6817C122.517 58.2092 123.075 56.6416 124.358 55.6885C124.394 55.6622 124.43 55.6364 124.466 55.6113C124.44 55.4275 124.425 55.2423 124.425 55.0567V55.0401C124.425 54.9783 124.426 54.9166 124.429 54.8555C124.427 54.8053 124.425 54.7547 124.425 54.7041V54.6875C124.425 53.7159 124.773 52.8034 125.369 52.0899C124.358 52.0618 123.356 51.6586 122.591 50.8799C122.505 50.7925 122.418 50.7064 122.329 50.6221C120.709 49.0785 120.646 46.5132 122.189 44.8926C123.733 43.2721 126.298 43.2103 127.919 44.7539C128.073 44.9003 128.224 45.0488 128.373 45.2002C129.773 46.6252 129.904 48.8218 128.781 50.3926C129.415 50.3308 130.04 50.4202 130.612 50.6387C131.282 50.1244 132.119 49.8149 133.028 49.8037C133.108 49.8028 133.187 49.8028 133.267 49.8028C133.479 49.8028 133.691 49.8064 133.901 49.8135C136.138 49.8894 137.89 51.7635 137.814 54C137.739 56.2367 135.864 57.9888 133.627 57.9131C133.508 57.9091 133.387 57.9072 133.267 57.9072C133.221 57.9072 133.174 57.9077 133.128 57.9082C133.048 57.9092 132.968 57.9069 132.89 57.9033C133.01 58.2333 133.091 58.5843 133.123 58.9512C133.129 59.0191 133.135 59.0888 133.141 59.1592C133.155 59.3299 133.155 59.4992 133.148 59.666C133.28 59.6505 133.414 59.6413 133.549 59.6387C133.615 59.6374 133.681 59.6367 133.747 59.6367C133.983 59.6367 134.217 59.6453 134.45 59.6612C136.683 59.8139 138.369 61.7477 138.217 63.9805C138.092 65.8112 136.768 67.2737 135.065 67.6572C135.276 68.1442 135.394 68.6812 135.396 69.2451C135.397 69.3259 135.397 69.4072 135.397 69.4883C135.397 69.7442 135.396 69.9999 135.393 70.2549C135.364 72.4927 133.526 74.2843 131.288 74.2559C129.051 74.2271 127.26 72.3898 127.288 70.1524C127.291 69.9316 127.292 69.7099 127.292 69.4883C127.292 69.4194 127.292 69.35 127.292 69.2813C127.288 68.4642 127.527 67.7028 127.94 67.0645C127.463 66.4666 127.148 65.7271 127.073 64.9082C127.067 64.8384 127.06 64.768 127.054 64.6983C127.015 64.2897 127.039 63.8854 127.119 63.4971C126.916 63.4963 126.714 63.4802 126.514 63.4492C126.615 64.9678 125.854 66.4804 124.435 67.2666C124.314 67.3333 124.192 67.3989 124.07 67.4629C122.541 68.265 120.733 67.9922 119.51 66.9151C118.959 68.4465 117.511 69.5575 115.786 69.5957C115.649 69.5987 115.512 69.6006 115.375 69.6006C115.233 69.6006 115.092 69.5982 114.95 69.5947C113.172 69.5518 111.689 68.3695 111.183 66.7627C109.947 67.8889 108.088 68.1738 106.532 67.336C106.41 67.2701 106.289 67.2032 106.168 67.1348C104.818 66.3692 104.077 64.9452 104.116 63.4951C103.876 63.5007 103.636 63.4859 103.399 63.4492C103.501 64.9679 102.74 66.4804 101.32 67.2666C101.2 67.3334 101.078 67.3988 100.956 67.4629C99.4263 68.265 97.6189 67.9923 96.3955 66.9151C95.8445 68.4464 94.3973 69.5574 92.6729 69.5957C92.5362 69.5987 92.3989 69.6006 92.2617 69.6006C92.1197 69.6006 91.9774 69.5982 91.8359 69.5947C90.058 69.5518 88.5763 68.3699 88.0693 66.7637C86.8333 67.8898 84.9747 68.1736 83.4189 67.336C83.2966 67.2701 83.1744 67.2032 83.0537 67.1348C81.4766 66.2401 80.7296 64.4465 81.0898 62.7627C81.0114 62.7764 80.9326 62.7878 80.8535 62.7969C80.6655 62.9439 80.4649 63.0752 80.2529 63.1875C80.4219 63.7282 80.4827 64.309 80.4092 64.8975C80.4015 64.9591 80.394 65.0214 80.3867 65.084C80.2962 65.8645 79.9883 66.5673 79.5322 67.1397C79.946 67.7768 80.1866 68.5371 80.1846 69.3535C80.1844 69.425 80.1836 69.4968 80.1836 69.5684C80.1836 69.7921 80.1857 70.0158 80.1885 70.2383C80.2164 72.4759 78.4251 74.3124 76.1875 74.3408C73.9497 74.369 72.1123 72.5777 72.084 70.3399C72.0808 70.0834 72.0791 69.8261 72.0791 69.5684C72.0791 69.4903 72.0789 69.4116 72.0791 69.333C72.0805 68.7663 72.1979 68.2266 72.4092 67.7373C70.7062 67.3532 69.3843 65.8895 69.2598 64.0586C69.1083 61.826 70.7947 59.8932 73.0273 59.7412C73.2594 59.7255 73.4936 59.7178 73.7285 59.7178C73.8003 59.7178 73.8723 59.7181 73.9434 59.7197C74.0669 59.7226 74.1891 59.7324 74.3096 59.7461C74.3054 59.6224 74.3062 59.4971 74.3135 59.3711C74.3177 59.2977 74.3217 59.2253 74.3262 59.1543C74.3399 58.9381 74.3702 58.7264 74.416 58.5215C74.2242 58.5 74.0324 58.4662 73.8438 58.417L73.8281 58.4131C73.7979 58.4052 73.7682 58.3953 73.7383 58.3867C73.4426 58.3339 73.1521 58.2503 72.874 58.1328C72.8573 58.1258 72.8404 58.1184 72.8232 58.1113C72.6077 58.0231 72.4042 57.917 72.2129 57.7979C71.9622 57.7889 71.7087 57.7579 71.4551 57.7002C71.4294 57.6944 71.4029 57.6884 71.377 57.6826C69.3765 57.2379 68.0231 55.3696 68.2236 53.3301C68.2379 53.1849 68.2525 53.0398 68.2676 52.8955C68.5005 50.6697 70.4938 49.0543 72.7197 49.2871C73.3785 49.3561 73.9831 49.5802 74.5029 49.918C74.7874 49.9253 75.0643 49.9616 75.3311 50.0244C76.1341 49.9632 76.9404 50.1442 77.6416 50.541C78.1967 50.4507 78.7795 50.4742 79.3574 50.6319C79.3694 50.6351 79.3816 50.6383 79.3936 50.6416C79.2782 50.5417 79.1663 50.4353 79.0605 50.3203C77.5451 48.6735 77.6512 46.1093 79.2979 44.5938C79.4451 44.4582 79.5954 44.3254 79.7471 44.1944ZM155.918 63.1592C158.156 63.144 159.983 64.9465 159.998 67.1846C159.999 67.3861 160 67.588 160 67.7901C160 67.9954 159.999 68.2013 159.998 68.4063C159.983 70.644 158.157 72.4463 155.919 72.4317C153.681 72.4168 151.879 70.5904 151.894 68.3526C151.895 68.1654 151.896 67.9776 151.896 67.7901C151.896 67.6064 151.895 67.4226 151.894 67.2393C151.878 65.0014 153.68 63.1746 155.918 63.1592ZM63.3262 70.4893C63.3727 70.5374 63.4177 70.5871 63.4619 70.6377C63.4454 70.5059 63.4353 70.3719 63.4316 70.2363C63.3987 70.3218 63.3647 70.4067 63.3262 70.4893ZM144.044 70.126C144.041 70.2591 144.034 70.3909 144.019 70.5205C144.061 70.4716 144.105 70.4236 144.15 70.377C144.112 70.2949 144.077 70.211 144.044 70.126ZM61.5 54.9512C63.1325 53.4202 65.6975 53.5023 67.2285 55.1348C68.7594 56.7673 68.6765 59.3323 67.0439 60.8633C66.869 61.0273 66.6996 61.1976 66.5361 61.3731C65.0105 63.0105 62.4461 63.1016 60.8086 61.5762C59.1712 60.0507 59.0804 57.4863 60.6055 55.8487C60.8933 55.5397 61.192 55.24 61.5 54.9512ZM140.248 55.0225C141.779 53.39 144.344 53.3079 145.977 54.8389C146.285 55.1278 146.583 55.4273 146.871 55.7363C148.396 57.3739 148.305 59.9384 146.668 61.4639C145.03 62.9892 142.466 62.8982 140.94 61.2608C140.777 61.0852 140.608 60.9151 140.433 60.751C138.8 59.2201 138.717 56.655 140.248 55.0225ZM89.2041 62.5498C89.2194 62.5359 89.2345 62.5215 89.25 62.5078C89.2216 62.4825 89.1927 62.4578 89.165 62.4317C89.1787 62.4708 89.1916 62.5103 89.2041 62.5498ZM112.318 62.5498C112.339 62.5314 112.358 62.5122 112.379 62.4942C112.339 62.4582 112.3 62.4213 112.262 62.3838C112.282 62.4387 112.301 62.4941 112.318 62.5498ZM95.1699 62.4258C95.2005 62.4512 95.23 62.4777 95.2598 62.5039C95.2956 62.4041 95.3363 62.3058 95.3799 62.209C95.3123 62.2834 95.2429 62.3565 95.1699 62.4258ZM118.3 62.4404C118.325 62.4614 118.35 62.4824 118.374 62.5039C118.402 62.4265 118.433 62.3501 118.466 62.2744C118.412 62.3312 118.357 62.3869 118.3 62.4404ZM51.2646 50.8291C53.1435 49.6132 55.6521 50.1506 56.8682 52.0293C57.9934 53.7679 57.6166 56.0449 56.0654 57.3389C55.2497 58.6822 53.6879 59.4839 52.0332 59.25C49.8173 58.9368 48.2749 56.8859 48.5879 54.6699C48.6157 54.4728 48.6439 54.2754 48.6729 54.0791C48.8699 52.7461 49.7172 51.5984 50.9326 51.0166C51.033 50.9686 51.1445 50.9069 51.2646 50.8291ZM157.951 49.2295C160.188 49.1424 162.071 50.8848 162.158 53.1211C162.165 53.3064 162.172 53.4923 162.177 53.6778C162.207 54.7716 161.794 55.8317 161.031 56.6162C160.268 57.4007 159.22 57.8438 158.126 57.8438C158.09 57.8438 158.054 57.8433 158.017 57.8438C157.402 58.5052 156.564 58.9677 155.6 59.0996C154.698 59.2229 153.826 59.0389 153.087 58.6289C153.063 58.6331 153.039 58.6379 153.016 58.6416C153.007 58.643 152.998 58.6442 152.989 58.6455C152.931 58.6542 152.873 58.6609 152.814 58.667C152.799 58.6687 152.783 58.6704 152.768 58.6719C152.71 58.6773 152.652 58.6827 152.594 58.6856C152.527 58.6891 152.459 58.6921 152.392 58.6924H152.39C152.387 58.6924 152.384 58.6914 152.382 58.6914L152.376 58.6924H152.374C152.372 58.6924 152.369 58.6914 152.367 58.6914C152.365 58.6915 152.363 58.6924 152.36 58.6924H152.359C152.357 58.6924 152.354 58.6914 152.352 58.6914C152.35 58.6915 152.348 58.6924 152.346 58.6924H152.344C152.325 58.6924 152.305 58.6907 152.286 58.6904C152.245 58.6897 152.205 58.6885 152.164 58.6865C152.115 58.6844 152.066 58.6806 152.018 58.6768C152.012 58.6763 152.006 58.6763 152.001 58.6758C151.034 58.5948 150.164 58.1756 149.51 57.5352C149.438 57.4739 149.365 57.4132 149.293 57.3506C147.605 55.8815 147.428 53.3213 148.896 51.6328C149.97 50.3988 151.627 49.9728 153.1 50.4063C153.84 50.1247 154.653 50.0635 155.431 50.2373C156.106 49.6424 156.982 49.2673 157.951 49.2295ZM103.327 43.8662C105 42.7723 107.265 43.0574 108.607 44.6113C110.07 46.305 109.884 48.8641 108.19 50.3272C108.103 50.4026 108.016 50.4797 107.932 50.5576C106.936 51.4742 105.604 51.7961 104.372 51.544C102.809 52.4536 100.771 52.2294 99.4453 50.8799C99.3598 50.7928 99.2729 50.7071 99.1846 50.6231C97.5637 49.0798 97.5008 46.5145 99.0439 44.8936C100.18 43.7009 101.868 43.3524 103.327 43.8662ZM127.218 50.834C127.219 50.8335 127.221 50.8335 127.223 50.833L127.242 50.8233C127.235 50.8265 127.227 50.8297 127.218 50.834ZM146.341 40.3496C148.409 39.5937 150.71 40.6286 151.509 42.6904C151.624 42.989 151.742 43.2808 151.862 43.5645C152.734 45.6256 151.77 48.0032 149.709 48.875C148.786 49.2653 147.799 49.2865 146.913 49.0069C144.889 49.7522 142.618 48.7766 141.777 46.7676C141.626 46.4059 141.478 46.0348 141.333 45.6553C140.536 43.564 141.586 41.2228 143.677 40.4258C144.566 40.0871 145.499 40.0831 146.341 40.3496ZM70.0693 42.5156C70.627 40.3481 72.8364 39.043 75.0039 39.6006C77.171 40.1584 78.4762 42.367 77.9189 44.5342C77.8515 44.7963 77.784 45.0591 77.7178 45.3213L77.6357 45.6729C77.1383 47.8547 74.9662 49.2208 72.7842 48.7237C70.6021 48.2265 69.2364 46.0542 69.7334 43.8721C69.7692 43.7148 69.804 43.5647 69.8379 43.4238C69.8413 43.4097 69.8451 43.395 69.8486 43.3809C69.9212 43.0932 69.995 42.8046 70.0693 42.5156ZM92.5986 39.6104C94.8354 39.6874 96.5868 41.563 96.5098 43.7998C96.4325 46.0364 94.5569 47.7869 92.3203 47.71C92.2 47.7058 92.0786 47.7041 91.957 47.7041C91.8439 47.7041 91.7305 47.7062 91.6182 47.71C89.3817 47.7843 87.5085 46.0314 87.4336 43.7949C87.3589 41.5581 89.1118 39.6841 91.3486 39.6094C91.5507 39.6027 91.7536 39.5987 91.957 39.5987C92.1715 39.5987 92.3856 39.603 92.5986 39.6104ZM115.743 39.6104C117.98 39.6869 119.732 41.562 119.655 43.7988C119.579 46.0353 117.703 47.7863 115.467 47.71C115.346 47.7059 115.224 47.7041 115.103 47.7041C114.989 47.7041 114.876 47.7062 114.764 47.71C112.527 47.7845 110.653 46.0315 110.578 43.7949C110.503 41.5582 112.256 39.6843 114.493 39.6094C114.695 39.6026 114.899 39.5987 115.103 39.5987C115.317 39.5987 115.53 39.6031 115.743 39.6104ZM155.719 37.4317C157.905 36.9518 160.066 38.3346 160.546 40.5205L160.707 41.293L160.711 41.3096C160.743 41.4725 160.776 41.6504 160.812 41.8408C161.222 44.0408 159.771 46.1569 157.571 46.5674C155.371 46.9776 153.254 45.527 152.844 43.3272C152.812 43.156 152.782 42.9971 152.754 42.8535V42.8526C152.715 42.6552 152.673 42.4571 152.63 42.2588C152.15 40.0728 153.533 37.9118 155.719 37.4317ZM57.5732 35.5244C57.9237 33.314 59.9996 31.8059 62.21 32.1563C64.4204 32.5068 65.9285 34.5826 65.5781 36.793C65.5542 36.9441 65.5287 37.0968 65.5029 37.249C65.5018 37.2558 65.5012 37.2628 65.5 37.2696C65.4448 37.5851 65.3879 37.8976 65.3301 38.2061C64.9176 40.4057 62.8002 41.8547 60.6006 41.4424C58.4009 41.03 56.952 38.9126 57.3643 36.7129L57.5156 35.874C57.5353 35.7574 57.5548 35.6408 57.5732 35.5244ZM52.2295 21.8154C53.4767 19.9573 55.9942 19.4619 57.8525 20.709C58.7574 21.3163 59.338 22.225 59.5527 23.2119C59.5903 23.275 59.626 23.3393 59.6602 23.4043C60.6698 22.5506 62.063 22.2201 63.3936 22.6016C63.5791 22.6548 63.7663 22.7072 63.9541 22.7598C65.535 23.2029 66.631 24.5253 66.8652 26.0488C67.7878 25.0754 69.1733 24.5801 70.5869 24.8565C71.0133 24.9399 71.4433 25.0224 71.875 25.1026C72.5015 25.2189 73.0673 25.4735 73.5469 25.8291C74.2952 25.4544 75.166 25.3074 76.0537 25.4619C76.2098 25.4891 76.3668 25.5152 76.5234 25.542C76.6256 25.0593 76.8183 24.5872 77.1064 24.1504C77.1642 24.0629 77.2235 23.9762 77.2822 23.8897C77.5648 23.2832 77.9956 22.747 78.5488 22.3389C79.5845 21.5751 80.9209 21.3486 82.1504 21.7285C82.1918 21.7413 82.2337 21.7537 82.2754 21.7666C82.7154 21.903 83.1146 22.1088 83.4668 22.3662C83.8859 22.3474 84.3152 22.3926 84.7412 22.5117C84.7779 22.522 84.8146 22.5321 84.8506 22.542C86.4028 22.9702 87.5545 24.2774 87.7842 25.8711C87.809 26.0437 87.8323 26.2251 87.8545 26.4151C87.8896 26.7161 87.8891 27.0133 87.8594 27.3028C87.9209 27.3239 87.9819 27.3461 88.042 27.3701C88.5318 27.2145 89.0596 27.1502 89.6035 27.1953C89.9973 27.228 90.3917 27.2594 90.7861 27.2891C93.0179 27.457 94.6912 29.4021 94.5234 31.6338C94.3554 33.8654 92.4103 35.5388 90.1787 35.3711C89.7632 35.3398 89.3473 35.3069 88.9326 35.2725C88.52 35.2382 88.1271 35.1423 87.7617 34.9961C87.6136 35.0431 87.462 35.0815 87.3076 35.1113C87.4454 35.6457 87.4777 36.2167 87.3799 36.7959C87.354 36.9495 87.3256 37.1046 87.2979 37.2608L87.2988 37.2617C87.2444 37.5696 87.189 37.8741 87.1328 38.1748C86.7217 40.3748 84.6053 41.8251 82.4053 41.4141C80.2053 41.0031 78.7552 38.8865 79.166 36.6865C79.2173 36.4121 79.2674 36.1333 79.3174 35.8506L79.3184 35.8457C79.3423 35.7113 79.3655 35.5779 79.3877 35.4463C79.6031 34.1713 80.3928 33.1371 81.4463 32.5625C81.2035 31.9757 81.0953 31.3228 81.1572 30.6465C81.1657 30.5538 81.1779 30.4617 81.1924 30.3711C80.9753 30.4094 80.7553 30.4309 80.5342 30.4336C80.1169 32.5795 78.0657 34.0162 75.8955 33.6563C75.4831 33.5879 75.0721 33.5185 74.6631 33.4473C74.0191 33.3351 73.4377 33.0756 72.9463 32.711C72.1847 33.0922 71.2974 33.2387 70.3955 33.0713C69.9383 32.9865 69.4836 32.8991 69.0312 32.8106C67.3073 32.4732 66.0533 31.0892 65.8018 29.4473C65.5939 29.6664 65.3641 29.8618 65.1152 30.0283C64.4283 30.8226 63.4355 31.3518 62.3047 31.4229C60.4514 31.5391 58.8116 30.3901 58.2266 28.7197C57.2346 29.3412 55.9827 29.5306 54.7861 29.1299C54.5623 29.0549 54.3393 28.9795 54.1182 28.9033V28.9024C54.0955 28.8947 54.0722 28.8889 54.0498 28.8809C52.7195 28.4065 51.7909 27.3078 51.4756 26.0322C51.0036 24.7998 51.1442 23.3652 51.9619 22.2227C52.05 22.0866 52.139 21.9503 52.2295 21.8154ZM140.245 21.5449C141.043 21.3282 141.883 21.3629 142.654 21.6348C143.666 21.3347 144.758 21.4409 145.696 21.9356C146.408 22.3107 146.984 22.8853 147.362 23.5791C147.571 23.3714 147.805 23.183 148.064 23.0196C149.958 21.8264 152.46 22.3938 153.653 24.2871C153.922 24.7138 154.188 25.1463 154.448 25.584C155.592 27.5074 154.96 29.9943 153.037 31.1387C151.625 31.9785 149.911 31.8608 148.646 30.9785C148.841 31.3785 148.975 31.8135 149.03 32.2705C149.05 32.4368 149.071 32.6025 149.093 32.7666C149.382 34.9857 147.819 37.0197 145.6 37.3096C144.973 37.3913 144.361 37.3252 143.8 37.1387C143.559 37.2219 143.307 37.2849 143.045 37.3223C140.83 37.639 138.777 36.0991 138.46 33.8838C138.434 33.7028 138.408 33.5205 138.383 33.3369L138.339 33.0166C138.15 31.6681 138.648 30.3824 139.566 29.5117C138.346 29.1373 137.32 28.1945 136.896 26.8877C136.206 24.7589 137.372 22.4737 139.501 21.7832C139.68 21.7252 139.858 21.6671 140.036 21.6084L140.245 21.5449ZM101.921 27.6113C102.251 27.6066 102.573 27.6418 102.881 27.7119C102.996 27.7006 103.112 27.693 103.229 27.6914C103.426 27.6889 103.622 27.6861 103.818 27.6826C103.824 27.6825 103.83 27.6827 103.835 27.6826C104.027 27.68 104.219 27.6771 104.41 27.6738C106.648 27.6361 108.492 29.4195 108.53 31.6572C108.568 33.8949 106.785 35.7395 104.547 35.7774C104.347 35.7807 104.146 35.7844 103.945 35.7871L103.944 35.7862C103.742 35.7897 103.538 35.7933 103.335 35.7959C103.007 35.8002 102.687 35.764 102.381 35.6944C102.268 35.7055 102.154 35.7132 102.038 35.7149C101.84 35.7177 101.64 35.7196 101.441 35.7217L101.442 35.7227C101.212 35.7256 100.981 35.7277 100.75 35.7295C98.5122 35.7473 96.6831 33.9478 96.665 31.71C96.6472 29.472 98.4476 27.6429 100.686 27.625C100.904 27.6233 101.123 27.6209 101.341 27.6182H101.349C101.54 27.6161 101.73 27.6141 101.921 27.6113ZM115.045 26.8369C115.619 26.7765 116.177 26.8388 116.694 27.0029C116.986 26.9753 117.278 26.9482 117.568 26.919C119.795 26.6947 121.783 28.3181 122.007 30.5449C122.231 32.7716 120.607 34.759 118.381 34.9834C117.982 35.0236 117.582 35.0624 117.181 35.0996C116.625 35.1512 116.084 35.0875 115.583 34.9287C115.287 34.9592 114.991 34.9897 114.693 35.0186C112.466 35.2345 110.485 33.6035 110.269 31.376C110.053 29.1484 111.684 27.1673 113.911 26.9512C114.29 26.9144 114.668 26.8766 115.045 26.8369ZM127.991 24.8233C128.784 24.6575 129.572 24.7363 130.275 25.0078C130.355 24.9914 130.436 24.9765 130.516 24.96C132.707 24.5056 134.852 25.914 135.307 28.1055C135.761 30.2968 134.352 32.4411 132.161 32.8955C131.766 32.9774 131.369 33.0583 130.97 33.1367C130.192 33.2896 129.424 33.2075 128.735 32.9424C128.645 32.9607 128.554 32.9809 128.463 32.999C126.268 33.4363 124.134 32.0112 123.696 29.8164C123.259 27.6215 124.684 25.4873 126.879 25.0498C127.251 24.9756 127.622 24.9004 127.991 24.8233ZM146.58 28.8506C146.779 28.9442 146.969 29.053 147.149 29.1768C147.037 28.9927 146.923 28.8097 146.809 28.6279C146.735 28.7049 146.659 28.7794 146.58 28.8506ZM145.358 25.0987V25.0996L146.53 24.7822V24.7813L145.358 25.0987ZM62.9248 11.4668C64.7804 10.216 67.2987 10.7061 68.5498 12.5615C69.8009 14.4173 69.3108 16.9364 67.4551 18.1875C67.1602 18.3863 66.87 18.5872 66.585 18.7901C64.7615 20.0876 62.2303 19.6613 60.9326 17.8379C59.6354 16.0145 60.0616 13.4842 61.8848 12.1865C62.2266 11.9433 62.5739 11.7034 62.9248 11.4668ZM135.015 11.6817C136.221 9.79634 138.727 9.24552 140.612 10.4512C140.748 10.5379 140.882 10.6263 141.017 10.7139C141.224 10.8378 141.416 10.9769 141.593 11.1299C141.801 11.2267 142.004 11.3414 142.198 11.4766L142.244 11.5098L142.277 11.5332C142.503 11.6938 142.729 11.8592 142.954 12.0303C144.735 13.3856 145.08 15.928 143.725 17.709C142.369 19.4897 139.827 19.8354 138.046 18.4805C137.892 18.3636 137.741 18.2524 137.594 18.1475C137.587 18.1428 137.58 18.1384 137.573 18.1338C137.452 18.0494 137.337 17.959 137.228 17.8643C137.124 17.8158 137.02 17.7632 136.919 17.7051C136.911 17.7005 136.903 17.696 136.895 17.6914C136.817 17.6477 136.741 17.6015 136.667 17.5528C136.528 17.4614 136.387 17.37 136.245 17.2793C134.36 16.0734 133.809 13.567 135.015 11.6817ZM75.7031 4.98928C77.7989 4.20396 80.1346 5.26651 80.9199 7.36232C81.7049 9.45803 80.6425 11.7939 78.5469 12.5791C78.2045 12.7074 77.8644 12.8377 77.5273 12.9707C75.4457 13.7922 73.0923 12.771 72.2705 10.6895C71.4488 8.60771 72.4701 6.25342 74.5518 5.43166C74.9329 5.28121 75.317 5.13397 75.7031 4.98928ZM123.276 6.8965C124.051 4.79689 126.382 3.72303 128.481 4.49807C128.847 4.63319 129.211 4.77099 129.572 4.91115C131.659 5.72094 132.694 8.06882 131.884 10.1553C131.074 12.2415 128.726 13.2766 126.64 12.4668C126.32 12.3429 125.999 12.2212 125.675 12.1016C123.575 11.3266 122.502 8.99603 123.276 6.8965ZM89.335 1.28322C91.5381 0.890183 93.6429 2.35741 94.0361 4.56057C94.4291 6.7637 92.9619 8.86845 90.7588 9.26174C90.3958 9.3265 90.0333 9.394 89.6729 9.46389C87.4759 9.88958 85.3499 8.45376 84.9238 6.25686C84.4979 4.05979 85.9338 1.93392 88.1309 1.50783C88.5309 1.43027 88.9324 1.35506 89.335 1.28322ZM110.867 4.34475C111.247 2.13933 113.341 0.659208 115.547 1.0381C115.93 1.10394 116.312 1.17255 116.692 1.24416C118.892 1.65824 120.339 3.77711 119.925 5.97658C119.51 8.17559 117.393 9.62284 115.193 9.209C114.855 9.14528 114.515 9.08398 114.174 9.02541C111.968 8.64605 110.488 6.55029 110.867 4.34475ZM103.339 1.88696e-05C105.577 -0.00673791 107.397 1.80196 107.403 4.04006C107.41 6.27796 105.601 8.09775 103.363 8.10451C103.194 8.10502 103.024 8.10547 102.854 8.10744C102.671 8.10989 102.487 8.11338 102.304 8.11721C100.066 8.16383 98.2138 6.3879 98.167 4.15041C98.1204 1.91305 99.8965 0.061633 102.134 0.0146673C102.338 0.0104085 102.543 0.00665441 102.747 0.00392512H102.754C102.949 0.00164186 103.144 0.000607158 103.339 1.88696e-05Z" fill="black"/>
</g>
</svg>
