<?xml version="1.0" encoding="UTF-8"?><svg xmlns="http://www.w3.org/2000/svg" width="39.9" height="48" viewBox="0 0 39.9 48"><g  transform="translate(0.0000,0.0000) scale(1.000000)"><g transform="translate(-4.0000,0.0000)"><g transform="translate(4.0000,0.0000) scale(1.000000)"><g transform="translate(-6.1402,-2.0317) scale(1.084656)" stroke-width="0.921951"><path d="M26.6,11.33v-3.42c0-1.51-1.13-2.73-2.52-2.73s-2.52,1.22-2.52,2.73v3.41h5.04Z" fill="none" stroke="#000" stroke-linecap="round" stroke-linejoin="round"/><path d="M36.36,18.41c.44,0,.82.36.82.82v3.22c0,5.34-1.82,10.23-4.88,14.12-3.29,4.46-8.28,6.27-8.28,6.27,0,0-4.84-1.81-8.14-6.27-3.06-3.89-4.88-8.79-4.88-14.12v-3.22c0-.46.37-.82.82-.82h24.54Z" fill="none" stroke="#000" stroke-linecap="round" stroke-linejoin="round"/><path d="M39.16,18.32l.06-.91c0-2.55-.43-6.03-4.58-6.09H13.55c-4.15.06-4.58,3.55-4.58,6.09l.06.91h30.13Z" fill="none" stroke="#000" stroke-linecap="round" stroke-linejoin="round"/></g></g></g></g></svg>