<?xml version="1.0" encoding="UTF-8"?><svg id="Layer_2" xmlns="http://www.w3.org/2000/svg" viewBox="0 0 48 48"><g transform="translate(-2.1837,-2.0174) scale(1.081801)" stroke-width="0.924385"><rect x="10.29" y="11.96" width="15.67" height="16.6" rx=".85" ry=".85" transform="translate(-2.13 38.38) rotate(-90)" fill="none" stroke="#000" stroke-linecap="round" stroke-linejoin="round"/><path d="M9.85,35.85h16.53" fill="none" stroke="#000" stroke-linecap="round" stroke-linejoin="round"/><line x1="30.63" y1="5.36" x2="30.63" y2="42.4" fill="none" stroke="#000" stroke-linecap="round" stroke-linejoin="round"/><path d="M10.13,27.76l7.31-5.6c.3-.23.72-.24,1.03-.01l7.62,5.5" fill="none" stroke="#000" stroke-linecap="round" stroke-linejoin="round"/><path d="M26.34,23.78l-2.39-1.83c-.29-.25-.71-.27-1.03-.06l-2.41,1.74" fill="none" stroke="#000" stroke-linecap="round" stroke-linejoin="round"/><circle cx="20.47" cy="17.02" r="1.83" fill="none" stroke="#000" stroke-linecap="round" stroke-linejoin="round"/><path d="M35.62,14.72h5.27c1.06,0,1.92-.86,1.92-1.92s-.86-1.92-1.92-1.92h-5.3l.03,3.84h0Z" fill="none" stroke="#000" stroke-linecap="round" stroke-linejoin="round"/><path d="M35.62,22.31h5.27c1.06,0,1.92-.86,1.92-1.92s-.86-1.92-1.92-1.92h-5.3l.03,3.84h0Z" fill="none" stroke="#000" stroke-linecap="round" stroke-linejoin="round"/><path d="M35.62,29.89h5.27c1.06,0,1.92-.86,1.92-1.92s-.86-1.92-1.92-1.92h-5.3l.03,3.84h0Z" fill="none" stroke="#000" stroke-linecap="round" stroke-linejoin="round"/><path d="M35.62,37.48h5.27c1.06,0,1.92-.86,1.92-1.92s-.86-1.92-1.92-1.92h-5.3l.03,3.84h0Z" fill="none" stroke="#000" stroke-linecap="round" stroke-linejoin="round"/><path d="M36.05,37.48h-.43l-.03-3.84h3.03v-3.74h-3l-.03-3.84h3.03v-3.74s-2.57,0-2.57,0h-.43l-.03-3.84h3.03v-3.74h-3l-.03-3.84h3.03v-4.86c0-.47-.38-.85-.85-.85H6.51c-.47,0-.85.38-.85.85v36.03c0,.47.38.85.85.85h31.26c.47,0,.85-.38.85-.85v-4.58h-2.57Z" fill="none" stroke="#000" stroke-linecap="round" stroke-linejoin="round"/></g></svg>