<?xml version="1.0" encoding="UTF-8"?><svg xmlns="http://www.w3.org/2000/svg" width="48" height="48" viewBox="0 0 48 48"><g  transform="translate(0.0000,0.0000) scale(1.000000)"><g transform="translate(0.0000,0.0000)"><g transform="translate(0.0000,0.0000) scale(1.000000)"><g transform="translate(-1.8947,1.5579) scale(1.078947)" stroke-width="0.926829"><path d="M39.53,39.78l-8.06-6.75c-.17-.14-.39-.22-.61-.22H7.02c-1.07,0-1.96-.87-1.96-1.96v-2.05l.17-18.06c0-1.07.87-1.96,1.96-1.96h33.79c1.07,0,1.96.87,1.96,1.96v20.11c0,1.07-.87,1.96-1.96,1.96h-3.61l2.15,6.98h0Z" fill="none" stroke="#000" stroke-linecap="round" stroke-linejoin="round"/><path d="M16.09,21.05l4.42,4.42c.29.29.77.29,1.07,0l11.04-11.02" fill="none" stroke="#000" stroke-linecap="round" stroke-linejoin="round"/></g></g></g></g></svg>