<?xml version="1.0" encoding="UTF-8"?><svg xmlns="http://www.w3.org/2000/svg" width="48" height="48" viewBox="0 0 48 48"><g  transform="translate(0.0000,0.0000) scale(1.000000)"><g transform="translate(0.0000,0.0000)"><g transform="translate(0.0000,0.0000) scale(1.000000)"><g transform="translate(-1.7592,3.2853) scale(1.073298)" stroke-width="0.931707"><defs><style>.cls-1{fill:none;stroke:#000;stroke-linecap:round;stroke-linejoin:round;}</style></defs><line class="cls-1" x1="4.99" y1="21.94" x2="42.8" y2="21.94"/><path class="cls-1" d="M8.07,21.94v-4.83c0-.4.32-.73.73-.73-.28,0,30.41,0,30.41,0,.4,0,.73.32.73.73v4.83H8.07Z"/><path class="cls-1" d="M17.28,12.71l-.67-2.49c-.07-.31-.36-.53-.68-.52h-.56l-9.66-.02c-.41,0-.73.33-.73.73v27.24c0,.38.3.68.68.68h36.69c.37,0,.68-.3.68-.68V14c0-.38-.3-.68-.68-.68h-23.41s-.73,0-.73,0h-.77s-.16-.62-.16-.62Z"/></g></g></g></g></svg>