<?xml version="1.0" encoding="UTF-8"?><svg xmlns="http://www.w3.org/2000/svg" width="48" height="48" viewBox="0 0 48 48"><g  transform="translate(0.0000,0.0000) scale(1.000000)"><g transform="translate(0.0000,0.0000)"><g transform="translate(0.0000,0.0000) scale(1.000000)"><g transform="translate(-1.8947,1.3421) scale(1.078947)" stroke-width="0.926829"><path d="M13.13,29.51c-.84,0-1.53-.68-1.53-1.53h-.03l.03-18.39h0c0-.84.68-1.53,1.53-1.53h21.78c.84,0,1.53.68,1.53,1.53v18.39c0,.84-.68,1.53-1.53,1.53H13.13Z" fill="none" stroke="#000" stroke-linecap="round" stroke-linejoin="round"/><path d="M13.13,29.51c-.84,0-1.53-.68-1.53-1.53h-.03l.03-2.39h0c0-.84.68-1.53,1.53-1.53h21.78c.84,0,1.53.68,1.53,1.53v2.39c0,.84-.68,1.53-1.53,1.53H13.13Z" fill="none" stroke="#000" stroke-linecap="round" stroke-linejoin="round"/><path d="M9.06,37.03v2.08c0,.46.37.83.83.83s.83-.37.83-.83v-2.08c0-.06,0-.13-.03-.18h-1.61c-.01.06-.03.13-.03.18h0Z" fill="none" stroke="#000" stroke-linecap="round" stroke-linejoin="round"/><path d="M37.64,37.03v2.08c0,.46.37.83.83.83s.83-.37.83-.83v-2.08c0-.06,0-.13-.03-.18h-1.61c0,.06-.03.13-.03.18h0Z" fill="none" stroke="#000" stroke-linecap="round" stroke-linejoin="round"/><path d="M6.62,21.4c-.85,0-1.53.69-1.53,1.53l-.03,12.39h.03c0,.85.69,1.53,1.53,1.53h34.78c.85,0,1.53-.69,1.53-1.53v-12.39c0-.85-.69-1.53-1.53-1.53h-3.44c-.84,0-1.53.68-1.53,1.53v5.05c0,.84-.68,1.53-1.53,1.53H13.12c-.84,0-1.53-.68-1.53-1.53h-.01v-5.05c0-.85-.69-1.53-1.53-1.53h-3.43Z" fill="none" stroke="#000" stroke-linecap="round" stroke-linejoin="round"/></g></g></g></g></svg>