<?xml version="1.0" encoding="UTF-8"?><svg xmlns="http://www.w3.org/2000/svg" width="42.6" height="48" viewBox="0 0 42.6 48"><g  transform="translate(0.0000,0.0000) scale(1.000000)"><g transform="translate(-2.7000,0.0000)"><g transform="translate(2.7000,0.0000) scale(1.000000)"><g transform="translate(-4.5268,-1.7730) scale(1.076115)" stroke-width="0.929268"><defs><style>.cls-1{fill:none;stroke:#000;stroke-linecap:round;stroke-linejoin:round;}</style></defs><path class="cls-1" d="M25.81,16.99c.7,2.55,1.41,4.44.98,8.85-.38,3.97-4.79,11.41-4.79,11.41"/><path class="cls-1" d="M27.1,33.95c.5-.12,1.17-.41,1.62-.79.13-.12.24-.24.35-.37.72-.78,1.49-2.74,1.49-2.74,0,0-2.15-.45-3.19-.24-.5.12-1.16.41-1.6.79-.13.12-.24.24-.35.37-.73.79-1.5,2.75-1.5,2.75,0,0,2.15.45,3.19.24h0Z"/><path class="cls-1" d="M29.01,32.8h0,0Z"/><path class="cls-1" d="M30.49,30.05s-2.15-.45-3.19-.24c-.22.05-.49.15-.75.26v-2.54h-5.08v9.19c0,.38.3.68.68.68h3.72c.38,0,.68-.3.68-.68v-2.72c.18,0,.34-.02.49-.05.5-.12,1.17-.41,1.62-.79.13-.12.24-.23.35-.35.73-.79,1.5-2.75,1.5-2.75h-.01Z"/><path class="cls-1" d="M29.67,27.49c.5-.12,1.17-.41,1.62-.79.13-.12.24-.24.35-.37.72-.78,1.49-2.74,1.49-2.74,0,0-2.15-.45-3.19-.24-.5.12-1.16.41-1.61.79-.13.12-.24.24-.35.37-.73.79-1.5,2.75-1.5,2.75,0,0,2.15.45,3.19.24h0Z"/><path class="cls-1" d="M26.2,27.29s-2.13-.5-2.99-1.13c-.24-.2-.52-.48-.75-.79h-1.24c-.6,0-1.09.49-1.09,1.09s.49,1.09,1.09,1.09h5.17c.21,0,.41-.06.58-.17-.38-.06-.65-.12-.65-.12"/><path class="cls-1" d="M29.61,18.77c.44-.26.99-.74,1.3-1.24.09-.15.16-.3.23-.45h0c.46-.96.6-3.07.6-3.07,0,0-2.18.22-3.12.73-.44.26-.98.73-1.3,1.24-.09.15-.16.3-.23.45-.46.96-.61,3.07-.61,3.07,0,0,2.18-.22,3.12-.73h0Z"/><path class="cls-1" d="M24.87,22.29c.4.32.88.87,1.13,1.41.07.16.12.32.16.48.33,1.01.2,3.12.2,3.12,0,0-2.13-.5-2.99-1.13-.4-.32-.88-.86-1.13-1.39-.07-.16-.12-.32-.17-.48-.33-1.02-.2-3.13-.2-3.13,0,0,2.13.5,2.99,1.13h0Z"/><path class="cls-1" d="M23.72,15.14c.48.19,1.09.6,1.47,1.05.12.13.2.27.29.41h0c.6.88,1.05,2.95,1.05,2.95,0,0-2.19.1-3.19-.27-.47-.19-1.08-.58-1.46-1.03-.12-.13-.2-.27-.29-.41-.6-.89-1.05-2.95-1.05-2.95,0,0,2.19-.1,3.19.27h0Z"/><path class="cls-1" d="M23.72,15.14c.48.19,1.09.59,1.47,1.05.11.13.2.27.29.41h0c.13.18.24.42.35.69v-5.13l.03-1.51c0-.18-.07-.34-.19-.45l-1.6-1.54-.03-.03s-.06-.02-.1-.02-.07,0-.1.03l-.02.02-1.49,1.58c-.1.11-.16.26-.17.42l-.03,1.97v2.28c.58.03,1.19.1,1.6.26h0Z"/><path class="cls-1" d="M23.32,19.28c-.38-.16-.85-.45-1.22-.78v2.72c.57.15,1.97.49,2.66.99l.12.08c.31.25.67.65.94,1.06v-3.79c-.73,0-1.86-.05-2.5-.28h0Z"/><path class="cls-1" d="M22.11,13.86v-1.34l.04-1.96c0-.17.07-.33.17-.43l.36-.38c-.97-.41-2.2-.7-2.2-.7,0,0-.13,2.1.2,3.13.05.16.1.33.17.48.24.54.72,1.07,1.13,1.39.04.03.09.06.14.09v-.27Z"/><path class="cls-1" d="M28.96,32.79h0,0Z"/><path class="cls-1" d="M25.42,16.64h0s0,0,0,0Z"/><path class="cls-1" d="M37.13,16.25h-5.7c.26-.87.22-2.15.22-2.23,0,0-2.18.22-3.12.73-.24.15-.53.37-.78.61l-1.9-3.43-.02,5.36c-.11-.26-.27-.45-.39-.64-.09-.14-.24-.36-.35-.48-.38-.45-.74-.71-1.21-.9l-.33-.13c-.41-.15-.85-.2-1.43-.23l-.05-.67-.9-.96-1.57,2.67c-.12.2-.33.31-.56.31h-8.5l4.24,7.35c.12.2.12.45,0,.66l-4.24,7.35h8.5c.23,0,.44.12.56.32l1.9,3.3v1.54c0,.38.3.68.68.68h.6l1.06,1.84,1.06-1.84h.99c.38,0,.68-.3.68-.68v-2.22l.33-.58s.07,0,.11-.02c.5-.12,1.17-.41,1.62-.79.13-.12.24-.23.35-.35.2-.22.41-.54.6-.87.12-.2.33-.33.55-.33h7.01l-3.98-7.35c-.1-.19-.1-.42,0-.6l3.98-7.4v-.02Z"/><path class="cls-1" d="M40.47,14.47h-8.72c.03-.31.05-.52.05-.52,0,0-1.32.13-2.36.43l-5.43-9.41-2.47,4.27c-.6-.18-1.07-.3-1.07-.3,0,0-.07,1.12.02,2.13l-1.79,3.1c-.12.19-.31.31-.54.31H7.53l5.29,9.16c.13.22.13.48,0,.7l-5.29,9.16h10.57c.25,0,.49.14.62.35l5.28,9.15,5.31-9.19c.12-.19.31-.31.54-.31h10.62l-5.28-9.15c-.14-.22-.14-.5,0-.71l5.28-9.15h0Z"/></g></g></g></g></svg>