<?xml version="1.0" encoding="UTF-8"?><svg id="Layer_2" xmlns="http://www.w3.org/2000/svg" viewBox="0 0 64 64"><g transform="translate(-3.7728,1.3186) scale(1.497806)" stroke-width="0.890191"><path d="M27.07,32.91c1.07-1.83.45-4.18-1.38-5.24s-4.18-.45-5.24,1.38h0c-1.07,1.83-.45,4.17,1.38,5.24s4.18.45,5.24-1.38h0Z" fill="none" stroke="#000" stroke-linecap="round" stroke-linejoin="round"/><path d="M27.75,16.02c.61-1.04.26-2.38-.79-2.99s-2.38-.26-2.99.79h0c-.61,1.04-.26,2.38.79,2.99s2.38.26,2.99-.79h0Z" fill="none" stroke="#000" stroke-linecap="round" stroke-linejoin="round"/><path d="M35.5,33.98c.61-1.04.26-2.38-.79-2.99s-2.38-.26-2.99.79h0c-.61,1.04-.26,2.38.79,2.99s2.38.26,2.99-.79h0Z" fill="none" stroke="#000" stroke-linecap="round" stroke-linejoin="round"/><line x1="29.14" y1="17.28" x2="30.93" y2="20.91" fill="none" stroke="#000" stroke-linecap="round" stroke-linejoin="round"/><path d="M36.83,18.92c-.21.22-.46.39-.74.54-1.35.67-3,.12-3.68-1.25s-.12-3,1.25-3.68c.26-.13.5-.21.76-.24,1.6-.25,4.82.53,4.82.53,0,0-1.27,2.94-2.41,4.09v.02Z" fill="none" stroke="#000" stroke-linecap="round" stroke-linejoin="round"/><path d="M30.31,15.71l-18.64,9.68-5.41,2.73c-1.06.6-1.46,1.72-1.2,2.76.34,1.45,1.87,1.95,3.25,1.35l5.45-2.64,19.01-8.92c.4-.21.56-.69.37-1.08l-1.64-3.31h0s-.1-.2-.1-.2c-.19-.39-.68-.56-1.08-.37Z" fill="none" stroke="#000" stroke-linecap="round" stroke-linejoin="round"/><polygon points="42.7 28.38 42.7 28.38 42.7 28.38 42.7 28.39 42.7 28.38" fill="none" stroke="#000" stroke-linecap="round" stroke-linejoin="round"/><polygon points="42.7 19.62 42.7 19.61 42.7 19.61 42.7 19.62 42.7 19.62 42.7 19.62" fill="none" stroke="#000" stroke-linecap="round" stroke-linejoin="round"/><path d="M32.62,9.13c-7.9-2.07-15.98,2.66-18.05,10.54-.16.79-.6,2.3-.57,4.51l16.31-8.47c.4-.19.89-.03,1.08.37l.1.2h0s1.64,3.31,1.64,3.31c.19.39.03.88-.37,1.08l-17.96,8.43c2.38,7.41,10.17,11.77,17.8,9.77,4.76-1.25,8.37-4.69,10.02-8.95h0c.17-.48.2-1.01.06-1.54-.25-.95-1.07-1.59-2-1.65-.07,0-.14-.01-.21-.01-.38-.01-.77.03-1.16.13-.37.1-.71.24-1.02.42-.01,0-.02.01-.03.02,0,0,0,0,0,0-.41.31-.89.55-1.42.69-2.16.57-4.36-.88-4.93-3.04h0c-.17-.65-.18-1.35,0-2.05.57-2.15,2.77-3.45,4.93-2.88.53.14,1.01.38,1.42.69,0,0,0,0,0,0,.01,0,.02.01.03.02.31.18.65.33,1.02.42.39.1.78.14,1.16.13.07,0,.14,0,.21-.01.93-.06,1.75-.7,2-1.65.14-.53.11-1.06-.06-1.54h0c-1.66-4.26-5.26-7.7-10.02-8.95Z" fill="none" stroke="#000" stroke-linecap="round" stroke-linejoin="round"/><polygon points="42.7 28.39 42.7 28.39 42.7 28.39 42.7 28.39" fill="none" stroke="#000" stroke-linecap="round" stroke-linejoin="round"/><path d="M21.11,20.5c-.18-.33-.45-.61-.79-.82-1.04-.61-2.38-.26-2.99.79-.38.65-.38,1.41-.09,2.04l3.87-2.01Z" fill="none" stroke="#000" stroke-linecap="round" stroke-linejoin="round"/></g></svg>