<?xml version="1.0" encoding="UTF-8"?><svg id="Layer_2" xmlns="http://www.w3.org/2000/svg" viewBox="0 0 48 48"><g transform="translate(-2.0317,-1.9233) scale(1.084656)" stroke-width="0.921951"><line x1="6.99" y1="19.68" x2="40.62" y2="19.68" fill="none" stroke="#000" stroke-linecap="round" stroke-linejoin="round"/><path d="M19.58,13.09v-.48h0v-5.44c0-1.19-.97-2.16-2.16-2.16s-2.16.97-2.16,2.16v5.95l4.31-.03h.01Z" fill="none" stroke="#000" stroke-linecap="round" stroke-linejoin="round"/><path d="M32.71,13.09v-.48h0v-5.44c0-1.19-.97-2.16-2.16-2.16s-2.16.97-2.16,2.16v5.95l4.31-.03h0Z" fill="none" stroke="#000" stroke-linecap="round" stroke-linejoin="round"/><path d="M40.13,10.19h-7.42v2.49h0v.48h0l-4.32.03v-3h-8.81v2.49h0v.48h0l-4.32.03v-3h-7.42c-.5,0-.9.4-.9.9v30.8c0,.5.4.9.9.9h32.29c.5,0,.9-.4.9-.9V11.09c0-.5-.4-.9-.9-.9h0Z" fill="none" stroke="#000" stroke-linecap="round" stroke-linejoin="round"/><path d="M19.51,31.57l-2.79-.24c-.54,0-.67.21-.41.68l2.34,3.67h11.32l2.34-3.67c.26-.47.13-.68-.41-.68l-2.79.24,1.39-4.13c.14-.52-.04-.7-.56-.56l-3.47,1.2-1.93-3.9c-.27-.46-.52-.46-.8,0l-1.76,3.9-3.29-1.2c-.52-.13-.7.04-.56.56l1.39,4.13Z" fill="none" stroke="#000" stroke-linecap="round" stroke-linejoin="round"/><line x1="24.1" y1="35.66" x2="24.1" y2="39.06" fill="none" stroke="#000" stroke-linecap="round" stroke-linejoin="round"/></g></svg>