<?xml version="1.0" encoding="UTF-8"?><svg id="Layer_2" xmlns="http://www.w3.org/2000/svg" viewBox="0 0 48 48"><g transform="translate(-8.1305,-12.8342) scale(1.338770)" stroke-width="0.746954"><defs><style>.cls-1{fill:none;stroke:#000;stroke-linecap:round;stroke-linejoin:round;}</style></defs><path class="cls-1" d="M26.83,27.43c-.63.83-1.64,1.37-2.77,1.37-1.2,0-2.26-.62-2.88-1.53"/><path class="cls-1" d="M17.02,22.11c.45-.57,1.15-.97,1.94-.97.83,0,1.56.43,2.01,1.06"/><path class="cls-1" d="M26.83,22.11c.45-.57,1.15-.97,1.94-.97.83,0,1.56.43,2.01,1.06"/><path class="cls-1" d="M34.07,25.4c.06-.27.12-.54.16-.81.02-.14.05-.29.06-.43.05-.42.08-.85.08-1.28s-.04-.89-.09-1.33c-.01-.11-.03-.21-.05-.31-.05-.31-.11-.62-.18-.92-.02-.09-.03-.17-.05-.26,0,0,0,0-.01,0-1.2-4.51-5.22-7.83-9.99-7.83s-8.78,3.32-9.99,7.83c0,0-.01,0-.02,0-.03.1-.04.2-.06.3-.06.27-.12.53-.16.81-.02.14-.05.29-.06.43-.05.42-.08.85-.08,1.28s.04.89.09,1.33c.01.1.03.21.05.31.05.31.11.62.18.92.02.09.03.17.05.26,0,0,0,0,.01,0,1.2,4.51,5.22,7.83,9.99,7.83s8.78-3.32,9.99-7.83c0,0,.01,0,.02,0,.03-.1.04-.2.06-.3Z"/><path class="cls-1" d="M22.74,12.25c1.44,0,2.6,1.16,2.6,2.6s-1.16,2.6-2.6,2.6"/><path class="cls-1" d="M32.72,31.32c0,6.25-3.89,11.32-8.68,11.32s-8.68-5.07-8.68-11.32"/><path class="cls-1" d="M38.46,37.41v-.06c0-1.97.65-6.33-8-6.13-.04.05-.11.09-.15.13-.11.11-.24.22-.37.33-.11.07-.21.14-.32.22-.36.26-.74.48-1.13.69-.09.04-.17.09-.27.13-.95.46-1.97.77-3.05.91-.05,0-.1.01-.14.02-.34.04-.69.06-1.04.06-.35,0-.7-.02-1.04-.06-.05,0-.1-.01-.14-.02-1.07-.14-2.09-.45-3.05-.91-.09-.04-.18-.09-.27-.13-.39-.21-.77-.43-1.13-.69-.11-.07-.21-.14-.32-.22-.13-.11-.26-.21-.37-.33-.04-.04-.11-.07-.15-.13-8.65-.2-8,4.16-8,6.13v.06h0s0,.01,0,.01v5.39h28.94v-5.39h0Z"/></g></svg>