<?xml version="1.0" encoding="UTF-8"?><svg id="Layer_2" xmlns="http://www.w3.org/2000/svg" viewBox="0 0 64 64"><g transform="translate(-3.7166,-3.9186) scale(1.496510)" stroke-width="0.890962"><path d="M14.73,24.42v-.74c0-.27.22-.49.49-.49h3.53c.27,0,.49.22.49.49v1.13-.21.39c0,.27-.22.49-.49.49h-3.53c-.27,0-.49-.22-.49-.49v-.78.21Z" fill="none" stroke="#000" stroke-linecap="round" stroke-linejoin="round"/><path d="M28.42,24.42v-.74c0-.27.22-.49.49-.49h3.53c.27,0,.49.22.49.49v1.13-.21.39c0,.27-.22.49-.49.49h-3.53c-.27,0-.49-.22-.49-.49v-.78.21Z" fill="none" stroke="#000" stroke-linecap="round" stroke-linejoin="round"/><path d="M15.71,12.68h-3.64c-1.09,0-1.97.88-1.97,1.97v5.49h5.6v-7.46Z" fill="none" stroke="#000" stroke-linecap="round" stroke-linejoin="round"/><rect x="18.04" y="12.68" width="11.47" height="7.46" fill="none" stroke="#000" stroke-linecap="round" stroke-linejoin="round"/><path d="M35.71,12.68h-3.87v7.46h5.78l.05-5.49c0-1.09-.88-1.97-1.97-1.97Z" fill="none" stroke="#000" stroke-linecap="round" stroke-linejoin="round"/><path d="M29.57,15.61v7.58h2.34v-10.5h-2.33v2.93Z" fill="none" stroke="#000" stroke-linecap="round" stroke-linejoin="round"/><path d="M15.77,13.54h0v9.64s2.32.01,2.32.01v-7.58s0-2.93,0-2.93h-2.33v.85Z" fill="none" stroke="#000" stroke-linecap="round" stroke-linejoin="round"/><path d="M29.57,25.5v17.42h2.34v-17.42h-2.34Z" fill="none" stroke="#000" stroke-linecap="round" stroke-linejoin="round"/><path d="M15.78,25.47v17.42h2.34v-17.42h-2.34Z" fill="none" stroke="#000" stroke-linecap="round" stroke-linejoin="round"/><path d="M31.89,20.13v3.05h-2.34v-3.05h-11.47v3.06s-2.34-.01-2.34-.01v-3.04s-5.59,0-5.59,0l-.04,20.82h.04c0,1.09.88,1.97,1.97,1.97h23.58c1.09,0,1.97-.88,1.97-1.97v-20.82h-5.78Z" fill="none" stroke="#000" stroke-linecap="round" stroke-linejoin="round"/><path d="M26.98,12.69h2.26v-2.39c0-3.24-2.52-5.21-5.43-5.21s-5.26,1.97-5.26,5.21v2.37h2.14s-.03-1.72-.03-1.72c0-1.8,1.01-3.53,3.15-3.53h.06c2.14,0,3.15,1.73,3.15,3.53l-.03,1.73" fill="none" stroke="#000" stroke-linecap="round" stroke-linejoin="round"/></g></svg>