<?xml version="1.0" encoding="UTF-8"?><svg xmlns="http://www.w3.org/2000/svg" width="23.2" height="48" viewBox="0 0 23.2 48"><g  transform="translate(0.0000,0.0000) scale(1.000000)"><g transform="translate(-12.4000,0.0000)"><g transform="translate(12.4000,0.0000) scale(1.000000)"><g transform="translate(-14.2128,-1.7592) scale(1.073298)" stroke-width="0.931707"><defs><style>.cls-1{fill:none;stroke:#000;stroke-linecap:round;stroke-linejoin:round;}</style></defs><path class="cls-1" d="M16.51,14.83c-.04,5.43,3.3,9.87,7.47,9.93,4.16.05,7.57-4.31,7.61-9.74,0-.06,0-.12,0-.19.04-5.43-3.3-9.87-7.47-9.93-4.16-.05-7.57,4.31-7.61,9.74,0,.06,0,.12,0,.19Z"/><path class="cls-1" d="M24.77,24.76c-.24.03-.48.05-.73.05s-.49-.02-.73-.05h-.34l-.95,2.38h4.03l-1.11-2.38h-.18Z"/><path class="cls-1" d="M23.57,27.14c.88,0,1.59.71,1.59,1.59s-.71,1.59-1.59,1.59"/><path class="cls-1" d="M23.62,33.5c-.88,0-1.59-.71-1.59-1.59s.71-1.59,1.59-1.59"/><path class="cls-1" d="M23.52,33.5c.88,0,1.59.71,1.59,1.59s-.71,1.59-1.59,1.59"/><path class="cls-1" d="M23.52,39.85c.88,0,1.59.71,1.59,1.59s-.71,1.59-1.59,1.59"/><path class="cls-1" d="M23.62,39.85c-.88,0-1.59-.71-1.59-1.59s.71-1.59,1.59-1.59"/></g></g></g></g></svg>