<?xml version="1.0" encoding="UTF-8"?><svg xmlns="http://www.w3.org/2000/svg" width="46.11" height="48" viewBox="0 0 46.11 48"><g  stroke-width="1.00976" transform="translate(0.0290,0.4348) scale(0.990338)">
  <!-- Generator: Adobe Illustrator 30.3.0, SVG Export Plug-In . SVG Version: 2.1.3 Build 182)  -->
  <defs>
    <style>
      .st0 {
        fill: none;
        stroke: #000;
        stroke-linecap: round;
        stroke-linejoin: round;
        stroke-width: 1.00976px;
      }
    </style>
  </defs>
  <path class="st0" d="M9.11,25.9c4.14-4.14,8.86-4.14,13,0,4.14,4.14,4.14,8.86,0,13-7.68,7.68-17.13,5.32-17.73,4.72s-2.96-10.04,4.73-17.72Z"/>
  <path class="st0" d="M29.84,22.25c-3.6.09-5.99,1.7-6.9,4.54,2.33,2.76,2.89,5.74,1.67,8.6,1.31,1.26,3.2,1.9,5.6,1.84,8.85-.22,12.76-7.12,12.75-7.81-.02-.68-4.27-7.39-13.12-7.17Z"/>
  <path class="st0" d="M9.39,34.15l4.17-.05c.22,0,.44-.09.59-.25l7.95-7.95"/>
  <path class="st0" d="M16.25,31.75l.57,4.8"/>
  <path class="st0" d="M20.75,12.94l1.42,1.77c.15.19.21.43.17.67l-.79,4.67"/>
  <path class="st0" d="M21.85,18.29l3.38-1.56"/>
  <path class="st0" d="M28.95,28.49l1.29.43c.21.07.39.22.49.42l1.56,3.11"/>
  <path class="st0" d="M29.71,28.74l3.42-1.71"/>
  <path class="st0" d="M21.73,25.55c.66.79,1.27.84,1.82-.09.99-1.69,2.67-2.76,4.97-3.1.71-1.13,1.18-2.53,1.35-4.2,1.03-9.69-5.94-14.94-6.69-15.02-.75-.08-8.67,3.6-9.7,13.28-.29,2.69.29,4.86,1.62,6.41,2.25-.16,4.5.75,6.62,2.71Z"/>
</g></svg>