<?xml version="1.0" encoding="UTF-8"?><svg id="Layer_2" xmlns="http://www.w3.org/2000/svg" viewBox="0 0 48 48"><g transform="translate(-1.7592,12.5157) scale(1.073298)" stroke-width="0.931707"><defs><style>.cls-1{fill:none;stroke:#000;stroke-linecap:round;stroke-linejoin:round;}</style></defs><circle class="cls-1" cx="24.02" cy="24.06" r="2.41"/><circle class="cls-1" cx="13.85" cy="24.06" r="2.41"/><circle class="cls-1" cx="34.19" cy="24.06" r="2.41"/><polygon class="cls-1" points="42.97 24.18 42.99 24.16 42.99 24.16 42.97 24.18"/><path class="cls-1" d="M42.97,24.16s.01,0,.02,0l.03-.03s-.03.02-.05.02Z"/><path class="cls-1" d="M38.22,20.45c-.11-.14-.23-.27-.36-.39-1-1-2.38-1.62-3.9-1.62-.73,0-1.42.14-2.06.4h0c-.92.36-1.98.61-2.93.61h0c-.82,0-1.2-.16-1.95-.41-.09-.03-.2-.06-.29-.1-.82-.41-1.73-.62-2.7-.62-.88,0-1.59.16-2.35.5-.2.08-.4.16-.61.23-.75.25-1.13.42-1.95.42h0c-.97,0-2.07-.27-3-.64h0c-.62-.24-1.29-.37-1.99-.37-1.36,0-2.61.5-3.57,1.32-.28.23-.55.49-.78.77-1.12,1.32-3.17,2.57-4.75,3.32,1.57.49,3.47,2.22,4.75,3.71.11.14.23.27.36.39,1,1,2.38,1.62,3.9,1.62.73,0,1.42-.14,2.06-.4h0c.92-.36,1.98-.61,2.93-.61h0c.82,0,1.2.16,1.95.41.09.03.2.06.29.1.82.41,1.73.62,2.7.62.88,0,1.59-.16,2.35-.5.2-.08.4-.16.61-.23.75-.25,1.13-.42,1.95-.42h0c.97,0,2.07.27,3,.64h0c.62.24,1.29.37,1.99.37,1.37,0,2.61-.5,3.58-1.32.28-.23.54-.48.78-.77,1.12-1.32,3.17-2.57,4.75-3.32-1.57-.49-3.47-2.22-4.75-3.71Z"/><path class="cls-1" d="M4.98,23.87s.03-.02.05-.02c0,0-.01,0-.02,0l-.03.03Z"/><polygon class="cls-1" points="5.01 23.84 5.01 23.84 5.03 23.82 5.01 23.84"/></g></svg>