<?xml version="1.0" encoding="UTF-8"?><svg xmlns="http://www.w3.org/2000/svg" width="48" height="48" viewBox="0 0 48 48"><g  transform="translate(0.0000,0.0000) scale(1.000000)"><g transform="translate(0.0000,0.0000)"><g transform="translate(0.0500,0.0000) scale(1.000000)"><g transform="translate(-1.8947,3.8237) scale(1.078947)" stroke-width="0.926829"><path d="M6.6,34.61c-.84,0-1.53-.68-1.53-1.53h-.03l.03-6.39h0c0-.84.68-1.53,1.53-1.53h34.78c.84,0,1.53.68,1.53,1.53v6.39c0,.84-.68,1.53-1.53,1.53H6.6Z" fill="none" stroke="#000" stroke-linecap="round" stroke-linejoin="round"/><path d="M9.03,34.79v2.08c0,.46.37.83.83.83s.83-.37.83-.83v-2.08c0-.06,0-.13-.03-.18h-1.61c-.01.06-.03.13-.03.18h0Z" fill="none" stroke="#000" stroke-linecap="round" stroke-linejoin="round"/><path d="M37.61,34.79v2.08c0,.46.37.83.83.83s.83-.37.83-.83v-2.08c0-.06,0-.13-.03-.18h-1.61c0,.06-.03.13-.03.18h0Z" fill="none" stroke="#000" stroke-linecap="round" stroke-linejoin="round"/><path d="M10.09,11.77c0-.84.68-1.53,1.53-1.53h24.78c.84,0,1.53.68,1.53,1.53v13.34H10.02c.09.09.08-13.34.08-13.34Z" fill="none" stroke="#000" stroke-linecap="round" stroke-linejoin="round"/><path d="M17.09,19.82c0-.84.68-1.53,1.53-1.53h10.78c.84,0,1.53.68,1.53,1.53v5.34h-13.92c.09.09.08-5.34.08-5.34Z" fill="none" stroke="#000" stroke-linecap="round" stroke-linejoin="round"/></g></g></g></g></svg>