<?xml version="1.0" encoding="UTF-8"?><svg id="Layer_2" xmlns="http://www.w3.org/2000/svg" viewBox="0 0 64 64"><g transform="translate(-3.7895,6.6000) scale(1.491228)" stroke-width="0.894118"><rect x="5.05" y="26.29" width="37.9" height="2.77" rx=".85" ry=".85" transform="translate(48 55.35) rotate(-180)" fill="none" stroke="#000" stroke-linecap="round" stroke-linejoin="round"/><rect x="5.05" y="19.54" width="37.9" height="2.77" rx=".85" ry=".85" transform="translate(48 41.84) rotate(-180)" fill="none" stroke="#000" stroke-linecap="round" stroke-linejoin="round"/><rect x="5.05" y="16.72" width="37.9" height="2.77" rx=".85" ry=".85" transform="translate(48 36.22) rotate(-180)" fill="none" stroke="#000" stroke-linecap="round" stroke-linejoin="round"/><rect x="5.05" y="13.99" width="37.9" height="2.77" rx=".85" ry=".85" transform="translate(48 30.74) rotate(-180)" fill="none" stroke="#000" stroke-linecap="round" stroke-linejoin="round"/><path d="M37.6,29.1v6.44c0,.26.21.47.47.47h1.82c.26,0,.47-.21.47-.47v-6.44h-2.77Z" fill="none" stroke="#000" stroke-linecap="round" stroke-linejoin="round"/><path d="M7.55,29.1v6.44c0,.26.21.47.47.47h1.82c.26,0,.47-.21.47-.47v-6.44h-2.77Z" fill="none" stroke="#000" stroke-linecap="round" stroke-linejoin="round"/><rect x="10.93" y="22.31" width="2.77" height="3.99" fill="none" stroke="#000" stroke-linecap="round" stroke-linejoin="round"/><rect x="34.41" y="22.31" width="2.77" height="3.99" fill="none" stroke="#000" stroke-linecap="round" stroke-linejoin="round"/></g></svg>