<?xml version="1.0" encoding="UTF-8"?><svg id="Layer_2" xmlns="http://www.w3.org/2000/svg" viewBox="0 0 64 64"><g transform="translate(-3.6842,-3.7354) scale(1.489943)" stroke-width="0.894889"><defs><style>.cls-1{fill:none;stroke:#000;stroke-linecap:round;stroke-linejoin:round;}</style></defs><line class="cls-1" x1="30.03" y1="26.94" x2="34.09" y2="26.94"/><line class="cls-1" x1="14.44" y1="33.62" x2="18.5" y2="33.62"/><path class="cls-1" d="M18.83,36.89v-11.45.06c0-3.77,2.35-6.83,5.24-6.83s5.24,3.06,5.24,6.83v-.06,11.45-.18.47l-.02.75c0,.12-.1.22-.22.22h-1.08c-.12-.01-.22-.11-.22-.23v-1.22.19-11.78.04c0-2.67-1.66-4.83-3.7-4.83s-3.7,2.16-3.7,4.83v-.04,11.78-.18.47l-.02.75c0,.12-.1.22-.22.22h-1.08c-.12-.01-.22-.11-.22-.23v-1.22.19Z"/><path class="cls-1" d="M15.36,4.99c.12,0,.22.1.22.22v.94l-.02.75c0,.12-.1.22-.22.22h-4.74c-.12,0-.22-.1-.22-.22v-1.69c0-.12.1-.22.22-.22h4.76Z"/><path class="cls-1" d="M37.34,5.01c.12,0,.22.1.22.22v.94l-.02.75c0,.12-.1.22-.22.22h-4.74c-.12,0-.22-.1-.22-.22v-1.69c0-.12.1-.22.22-.22h4.76Z"/><path class="cls-1" d="M24.15,18.66h.04c.22,0,.44.04.66.07v-.28s0-.18,0-.18v-8.32c0-.08-.1-.14-.22-.14h-1.08c-.12,0-.22.05-.22.13l-.02.47v8.32c.28-.04.56-.07.84-.07Z"/><path class="cls-1" d="M29.93,5.44l-.06.1c-1.25,1.96-3.38,3.16-5.89,3.16s-4.63-1.2-5.89-3.16l-.06-.1h-2.44v1.23s1.4,0,1.4,0l.08.12c1.36,2.12,3.6,3.27,6.24,3.44v-.28c.01-.07.11-.14.23-.14h1.08c.12,0,.22.07.22.14v.26c2.56-.2,4.72-1.35,6.05-3.42l.08-.12h1.4v-1.23s-2.44,0-2.44,0Z"/><path class="cls-1" d="M22.18,31.42v-6.57s-.01-.02-.01-.02v.02c0-1.47.64-2.67,1.91-2.67s1.91,1.19,1.91,2.67v-.02s0,6.5,0,6.5v-.1s-.01.21-.01.21v8.84s.01.02.01.02v-.02c0,1.47-.71,2.67-1.98,2.67s-1.84-1.19-1.84-2.67v.02s0-8.89,0-8.89h.01Z"/></g></svg>