<?xml version="1.0" encoding="UTF-8"?><svg xmlns="http://www.w3.org/2000/svg" width="48" height="48" viewBox="0 0 48 48"><g  transform="translate(0.0000,0.0000) scale(1.000000)"><g transform="translate(0.0000,0.0000)"><g transform="translate(0.0000,0.0000) scale(1.000000)"><g transform="translate(-2.1702,-1.4069) scale(1.090426)" stroke-width="0.917073"><defs><style>.cls-1{fill:none;stroke:#000;stroke-linecap:round;stroke-linejoin:round;}</style></defs><path class="cls-1" d="M35.36,42.1h7.37L23.71,5.67,5.27,42.1h30.09Z"/><path class="cls-1" d="M23.89,13c-1.48,0-2.69,1.21-2.69,2.69s1.21,2.69,2.69,2.69,2.69-1.21,2.69-2.69-1.21-2.69-2.69-2.69Z"/><path class="cls-1" d="M12.49,34.84c-1.48,0-2.69,1.21-2.69,2.69s1.21,2.69,2.69,2.69,2.69-1.21,2.69-2.69-1.21-2.69-2.69-2.69Z"/><path class="cls-1" d="M20.16,34.91c-1.48,0-2.69,1.21-2.69,2.69s1.21,2.69,2.69,2.69,2.69-1.21,2.69-2.69-1.21-2.69-2.69-2.69Z"/><path class="cls-1" d="M27.84,34.84c-1.48,0-2.69,1.21-2.69,2.69s1.21,2.69,2.69,2.69,2.69-1.21,2.69-2.69-1.21-2.69-2.69-2.69Z"/><path class="cls-1" d="M16.33,27.46c-1.48,0-2.69,1.21-2.69,2.69s1.21,2.69,2.69,2.69,2.69-1.21,2.69-2.69-1.21-2.69-2.69-2.69Z"/><path class="cls-1" d="M24,27.52c-1.48,0-2.69,1.21-2.69,2.69s1.21,2.69,2.69,2.69,2.69-1.21,2.69-2.69-1.21-2.69-2.69-2.69Z"/><path class="cls-1" d="M20.16,20.2c-1.48,0-2.69,1.21-2.69,2.69s1.21,2.69,2.69,2.69,2.69-1.21,2.69-2.69-1.21-2.69-2.69-2.69Z"/><path class="cls-1" d="M27.84,20.26c-1.48,0-2.69,1.21-2.69,2.69s1.21,2.69,2.69,2.69,2.69-1.21,2.69-2.69-1.21-2.69-2.69-2.69Z"/><path class="cls-1" d="M31.67,27.46c-1.48,0-2.69,1.21-2.69,2.69s1.21,2.69,2.69,2.69,2.69-1.21,2.69-2.69-1.21-2.69-2.69-2.69Z"/><path class="cls-1" d="M35.51,34.91c-1.48,0-2.69,1.21-2.69,2.69s1.21,2.69,2.69,2.69,2.69-1.21,2.69-2.69-1.21-2.69-2.69-2.69Z"/></g></g></g></g></svg>