<?xml version="1.0" encoding="UTF-8"?><svg xmlns="http://www.w3.org/2000/svg" width="47.2" height="48" viewBox="0 0 47.2 48"><g  transform="translate(0.0000,0.0000) scale(1.000000)"><g transform="translate(-0.4000,0.0000)"><g transform="translate(0.4000,0.0000) scale(1.000000)"><g transform="translate(-1.9171,-1.8947) scale(1.078947)" stroke-width="0.926829"><circle cx="33.31" cy="9.64" r="1.21" fill="none" stroke="#000" stroke-linecap="round" stroke-linejoin="round"/><line x1="29.51" y1="38.1" x2="29.51" y2="42.98" fill="none" stroke="#000" stroke-linecap="round" stroke-linejoin="round"/><line x1="25.33" y1="38.42" x2="25.33" y2="42.98" fill="none" stroke="#000" stroke-linecap="round" stroke-linejoin="round"/><line x1="24.02" y1="42.98" x2="26.58" y2="42.98" fill="none" stroke="#000" stroke-linecap="round" stroke-linejoin="round"/><path d="M42.26,10.54l-3.79-1.06v.03c.19.51.3,1.01.34,1.57.03.38.03.75,0,1.11l.13-.05,3.32-1.6h0Z" fill="none" stroke="#000" stroke-linecap="round" stroke-linejoin="round"/><path d="M5.38,28.75l7.57-4.49,5.93-3.43,6.46-3.73h0c.09-.04.2-.07.31-.07.09,0,.17.02.25.04,2.71.97,4.63,3.46,4.74,6.35,0,.1,0,.2,0,.3,0,5.28-6.42,9.56-14.34,9.56-1.13,0-2.23-.09-3.27-.25-3.14-.49-5.77-1.57-7.73-3.17h0c-.15-.13-.24-.32-.24-.53,0-.25.13-.47.33-.59h0Z" fill="none" stroke="#000" stroke-linecap="round" stroke-linejoin="round"/><path d="M37.39,15.64c1.1-1.25,1.59-2.74,1.45-4.56-.25-3.14-2.8-5.7-5.99-6.01-2.01-.19-3.86.49-5.2,1.7s-2.1,3.01-2.1,4.84l.03,5.43c.05,0,.17,0,.17,0,2.87.89,4.75,3.43,4.86,6.43,0,.1,0,.2,0,.3,0,5.28-6.42,9.56-14.34,9.56-.47,0-.88,0-1.33-.04l-.06.06-7.88,8.26-.28.26,14.02-4.32.08-.02c.07-.02.14-.03.22-.03.09,0,.19.02.27.05,1.45.49,2.98.75,4.6.75,7.77,0,14.06-6.17,14.06-13.78,0-2.99-.97-5.76-2.63-8.02h0c-.08-.11-.13-.25-.13-.4,0-.18.06-.34.17-.46h0Z" fill="none" stroke="#000" stroke-linecap="round" stroke-linejoin="round"/><line x1="28.19" y1="42.98" x2="30.74" y2="42.98" fill="none" stroke="#000" stroke-linecap="round" stroke-linejoin="round"/></g></g></g></g></svg>