<?xml version="1.0" encoding="UTF-8"?><svg xmlns="http://www.w3.org/2000/svg" width="48" height="48" viewBox="0 0 48 48"><g  transform="translate(0.0000,0.0000) scale(1.000000)"><g transform="translate(0.0000,0.0000)"><g transform="translate(0.0000,0.0000) scale(1.000000)"><g transform="translate(-1.8947,2.5289) scale(1.078947)" stroke-width="0.926829"><defs><style>.cls-1{fill:none;stroke:#000;stroke-linecap:round;stroke-linejoin:round;}</style></defs><rect class="cls-1" x="6.58" y="20.12" width="35.09" height="16.51"/><line class="cls-1" x1="11" y1="13.7" x2="11" y2="20.01"/><path class="cls-1" d="M41.68,21.66c0,2.42-1.96,4.39-4.39,4.39s-4.39-1.96-4.39-4.39c0,2.42-1.96,4.39-4.39,4.39s-4.39-1.96-4.39-4.39v.05c0,2.42-1.96,4.39-4.39,4.39s-4.39-1.96-4.39-4.39c0,2.42-1.96,4.39-4.39,4.39s-4.39-1.96-4.39-4.39v-1.58h35.09v1.53h0Z"/><path class="cls-1" d="M12.54,11.52c.06.17.09.35.09.54,0,.9-.73,1.64-1.64,1.64s-1.64-.73-1.64-1.64c0-.17.02-.32.07-.47.29-.92,1.56-2.44,1.56-2.44,0,0,1.24,1.46,1.55,2.37Z"/><line class="cls-1" x1="19.65" y1="13.7" x2="19.65" y2="20.01"/><path class="cls-1" d="M21.2,11.52c.06.17.09.35.09.54,0,.9-.73,1.64-1.64,1.64s-1.64-.73-1.64-1.64c0-.17.02-.32.07-.47.29-.92,1.56-2.44,1.56-2.44,0,0,1.23,1.46,1.55,2.37Z"/><line class="cls-1" x1="28.31" y1="13.7" x2="28.31" y2="20.01"/><path class="cls-1" d="M29.85,11.52c.06.17.09.35.09.54,0,.9-.73,1.64-1.64,1.64s-1.64-.73-1.64-1.64c0-.17.02-.32.07-.47.29-.92,1.56-2.44,1.56-2.44,0,0,1.23,1.46,1.55,2.37Z"/><line class="cls-1" x1="37.08" y1="13.7" x2="37.08" y2="20.01"/><path class="cls-1" d="M38.62,11.52c.06.17.09.35.09.54,0,.9-.73,1.64-1.64,1.64s-1.64-.73-1.64-1.64c0-.17.02-.32.07-.47.29-.92,1.56-2.44,1.56-2.44,0,0,1.24,1.46,1.55,2.37Z"/><path class="cls-1" d="M41.84,38.85H6.14c-.61,0-1.11-.5-1.11-1.11s.5-1.11,1.11-1.11h35.7c.61,0,1.11.5,1.11,1.11s-.5,1.11-1.11,1.11Z"/></g></g></g></g></svg>