<?xml version="1.0" encoding="UTF-8"?><svg id="Layer_2" xmlns="http://www.w3.org/2000/svg" viewBox="0 0 48 48"><g transform="translate(-2.0026,8.8947) scale(1.078947)" stroke-width="0.926829"><path d="M38.14,26.96c.33,0,.66,0,.95-.11l.08-.03c2.27-.87,3.89-3.06,3.89-5.64,0-3.19-2.48-5.8-5.61-6.02-.14-.02-.27-.03-.41-.03l-26.65.05c-1.96.05-3.43,1.11-3.33,2.98.09,1.66,1.37,2.77,3.8,2.77-3.18.17-5.71,2.8-5.71,6.02s2.48,5.8,5.61,6.02c.14.02.27.03.41.03h26.96c1.67,0,3.02-1.36,3.02-3.02s-1.36-3.02-3.02-3.02H11.27s0,0,0,0h26.87Z" fill="none" stroke="#000" stroke-linecap="round" stroke-linejoin="round"/><line x1="38.24" y1="20.94" x2="10.87" y2="20.94" fill="none" stroke="#000" stroke-linecap="round" stroke-linejoin="round"/></g></svg>