<?xml version="1.0" encoding="UTF-8"?><svg xmlns="http://www.w3.org/2000/svg" width="42.4" height="48" viewBox="0 0 42.4 48"><g  transform="translate(0.0000,0.0000) scale(1.000000)"><g transform="translate(-2.8000,0.0000)"><g transform="translate(-2.1646,-2.1602) scale(1.090192)"><path d="M35.33,12.22c1.85,2.41,2.95,5.43,2.95,8.7,0,7.89-6.4,14.29-14.29,14.29s-14.29-6.4-14.29-14.29c0-3.9,1.56-7.43,4.09-10.01h0c.86,1.18,1.89,2.23,3.06,3.1l.05-.06c2.16-5.14,7.25-8.76,13.18-8.76.49,0,.98.02,1.46.07l.05.09c-1.29,2.15-2.04,4.67-2.04,7.36,0,1.64.28,3.22.79,4.68h.03c2-1.27,3.67-3.02,4.84-5.08l.12-.1Z" fill="none" stroke="#000" stroke-linecap="round" stroke-linejoin="round" stroke-width="0.917269"/><path d="M28.98,24.9c.44.99.7,2.13.7,3.34,0,3.85-2.54,6.97-5.68,6.97s-5.58-2.99-5.68-6.73c0-.16,0-.31.02-.47.14-1.39.71-2.96,1.5-3.98l.06.05c.58,1.03,1.41,1.9,2.4,2.52h.01c.25-.73.39-1.51.39-2.32,0-1.34-.37-2.58-1.01-3.65l.03-.05c.24-.02.48-.04.72-.04,2.94,0,5.47,1.79,6.54,4.35l.02.03" fill="none" stroke="#000" stroke-linecap="round" stroke-linejoin="round" stroke-width="0.917269"/><path d="M7.93,41.48c-.23-.91.32-1.84,1.23-2.07l28.83-7.36c.91-.23,1.84.32,2.07,1.23s-.32,1.84-1.23,2.07l-28.83,7.36c-.91.23-1.84-.32-2.07-1.23Z" fill="none" stroke="#000" stroke-linecap="round" stroke-linejoin="round"/><path d="M9.16,35.35l7.95,2.03,6.88-1.76-14-3.57c-.91-.23-1.84.32-2.07,1.23-.23.91.32,1.84,1.23,2.07Z" fill="none" stroke="#000" stroke-linecap="round" stroke-linejoin="round"/><path d="M38.84,39.41l-7.95-2.03-6.88,1.76,14,3.57c.91.23,1.84-.32,2.07-1.23.23-.91-.32-1.84-1.23-2.07Z" fill="none" stroke="#000" stroke-linecap="round" stroke-linejoin="round"/></g></g></g></svg>