<?xml version="1.0" encoding="UTF-8"?><svg id="Layer_2" xmlns="http://www.w3.org/2000/svg" viewBox="0 0 64 64"><g transform="translate(-3.6650,-3.6161) scale(1.486043)" stroke-width="0.897237"><defs><style>.cls-1{fill:none;stroke:#000;stroke-linecap:round;stroke-linejoin:round;}</style></defs><path class="cls-1" d="M20.03,9.78v1.92c0,.19-.08.36-.22.47-3.05,3.53-4.97,8.68-4.97,14.42v15.8c0,.33.27.62.62.62h17.07c.34,0,.62-.28.62-.62v-15.8c0-5.74-1.92-10.89-4.97-14.42-.13-.11-.22-.28-.22-.47v-1.87c-.02.28-.23.5-.5.5h-6.94c-.27,0-.5-.24-.5-.55Z"/><path class="cls-1" d="M20.03,5.51c0-.3.22-.55.5-.55h.91l6.03.04c.27,0,.5.24.5.55h0v4.23c0,.3-.22.55-.5.55h-6.94c-.27,0-.5-.24-.5-.55v-4.27Z"/></g></svg>