<?xml version="1.0" encoding="UTF-8"?><svg id="Layer_2" xmlns="http://www.w3.org/2000/svg" viewBox="0 0 64 64"><g transform="translate(-3.7895,3.0211) scale(1.491228)" stroke-width="0.894118"><line x1="20.52" y1="23.65" x2="27.48" y2="23.65" fill="none" stroke="#000" stroke-linecap="round" stroke-linejoin="round"/><path d="M18.56,18.34H5.71c-.37,0-.68-.3-.68-.68v-7.41c0-.37.3-.68.68-.68h23.74s12.85.01,12.85.01c.37,0,.68.3.68.68v7.41c0,.37-.3.68-.68.68h-23.74Z" fill="none" stroke="#000" stroke-linecap="round" stroke-linejoin="round"/><line x1="19.61" y1="18.35" x2="28.39" y2="18.35" fill="none" stroke="#000" stroke-linecap="round" stroke-linejoin="round"/><path d="M27.69,18.35h12.79v19.4c0,.37-.3.68-.68.68H8.19c-.37,0-.68-.3-.68-.68v-19.4h12.79" fill="none" stroke="#000" stroke-linecap="round" stroke-linejoin="round"/></g></svg>