<?xml version="1.0" encoding="UTF-8"?><svg xmlns="http://www.w3.org/2000/svg" width="48" height="48" viewBox="0 0 48 48"><g  transform="translate(0.0000,0.0000) scale(1.000000)"><g transform="translate(0.0000,0.0000)"><g transform="translate(-0.0503,-6.5782) scale(1.145251)">
  <!-- Generator: Adobe Illustrator 30.3.0, SVG Export Plug-In . SVG Version: 2.1.3 Build 182)  -->
  <defs>
    <style>
      .st0 {
        fill: none;
        stroke: #000;
        stroke-linecap: round;
        stroke-linejoin: round;
        stroke-width: 0.873171px;
      }
    </style>
  </defs>
  <g>
    <path class="st0" d="M23.93,28.81c-.66.87-1.72,1.44-2.9,1.44-1.26,0-2.36-.65-3.02-1.61"/>
    <path class="st0" d="M28.44,20.02c-2.87,0-5.48-1.17-7.45-3.1l-.02.02c-1.97,1.92-4.57,3.09-7.43,3.09-1.15,0-2.24-.18-3.28-.54-.26,1.03-.39,2.11-.39,3.21,0,6.71,4.99,12.13,11.12,12.13s11.12-5.44,11.12-12.13c0-1.12-.14-2.19-.39-3.21-1.03.35-2.13.54-3.28.54h0Z"/>
    <path class="st0" d="M32.2,19.18c-1.34-5.16-5.86-8.61-11.23-8.61s-9.89,3.46-11.23,8.61c1.12.7,2.61.84,3.81.84,2.99,0,5.34-1.13,7.39-3.03l.02-.02c2.06,1.93,4.48,3.06,7.47,3.06,1.19,0,2.68-.31,3.75-.84h.01Z"/>
    <path class="st0" d="M24.76,24.95c.37-.2.8-.32,1.24-.32s.89.13,1.26.33"/>
    <path class="st0" d="M14.46,24.95c.37-.2.8-.32,1.24-.32s.89.13,1.26.33"/>
    <path class="st0" d="M13.65,23.23c.47-.6,1.2-1.01,2.03-1.01.87,0,1.64.45,2.11,1.12"/>
    <path class="st0" d="M23.93,23.23c.47-.6,1.2-1.01,2.03-1.01.87,0,1.64.45,2.11,1.12"/>
    <circle class="st0" cx="26" cy="24.05" r=".55"/>
    <circle class="st0" cx="15.71" cy="24.05" r=".55"/>
  </g>
  <path class="st0" d="M38.83,44.51h0s0-4.61,0-4.61c0-.47-.03-.92-.07-1.34h0c-.08-1.05-.76-2.37-1.9-3.51-.82-.82-1.73-1.4-2.57-1.69-1.84-.62-3.87-1.11-6.25-1.24h0c-1.96,1.66-4.29,2.72-6.97,2.72s-5.18-.99-7.1-2.72c-2.38.12-4.47.62-6.31,1.24-.84.29-1.75.88-2.57,1.69-1.14,1.14-1.82,2.46-1.9,3.51h0c-.05.43-.07.88-.07,1.34v4.62h0s35.72,0,35.72,0"/>
  <path class="st0" d="M13.69,31.96l7.2,9.91,7.14-9.75h0c-1.96,1.66-4.57,2.72-7.25,2.72s-5.17-1.16-7.09-2.89h0Z"/>
</g></g></g></svg>