<?xml version="1.0" encoding="UTF-8"?><svg id="Layer_2" xmlns="http://www.w3.org/2000/svg" viewBox="0 0 64 64"><g transform="translate(-11.4655,-17.8066) scale(1.811063)" stroke-width="0.736216"><defs><style>.cls-1{fill:none;stroke:#000;stroke-linecap:round;stroke-linejoin:round;}</style></defs><path class="cls-1" d="M39.58,38.08v-.1.06c0-1.86-.76-3.38-2.12-4.14l.02.02c-2.31-1.19-4.4-1.56-7.36-1.7l-.23.2c-.19.14-.4.28-.62.42-1.53,1.08-3.34,1.7-5.28,1.7-1.42,0-2.76-.34-3.98-.93-.79-.35-1.47-.79-1.96-1.28-.04-.04-.1-.07-.14-.12-2.96.15-5.1.52-7.42,1.7l.02-.02c-1.37.75-2.12,2.28-2.12,4.14v-.06,5.14h31.19v-5.05h0v.02Z"/><path class="cls-1" d="M26.64,29.07c-.59.78-1.54,1.29-2.6,1.29-1.13,0-2.12-.58-2.71-1.44"/><path class="cls-1" d="M30.68,21.19c-2.57,0-4.91-1.05-6.68-2.78l-.02.02c-1.77,1.72-4.1,2.77-6.66,2.77-1.03,0-2.01-.16-2.94-.48-.23.92-.35,1.89-.35,2.88,0,6.02,4.47,10.88,9.97,10.88s9.97-4.88,9.97-10.88c0-1-.13-1.96-.35-2.88-.92.31-1.91.48-2.94.48h0Z"/><path class="cls-1" d="M34.05,20.44c-1.2-4.63-5.25-7.72-10.07-7.72s-8.87,3.1-10.07,7.72c1,.63,2.34.75,3.42.75,2.68,0,4.79-1.01,6.63-2.72l.02-.02c1.85,1.73,4.02,2.74,6.7,2.74,1.07,0,2.4-.28,3.36-.75h0Z"/><path class="cls-1" d="M30.14,32.25v-.02c2.98.15,5.06.51,7.37,1.7l-.02-.02c1.37.75,2.12,2.28,2.12,4.14v-.06,5.14H8.42v-5.14.06c0-1.86.76-3.38,2.12-4.14l-.02.02c2.3-1.19,4.38-1.56,7.33-1.7l.04.04c.12.12,1.43,1.01,2.12,1.36l3.98,5.75,4.23-5.89s1.93-1.23,1.93-1.23Z"/><path class="cls-1" d="M27.38,25.61c.33-.18.72-.29,1.11-.29s.8.12,1.13.3"/><path class="cls-1" d="M18.15,25.61c.33-.18.72-.29,1.11-.29s.8.12,1.13.3"/><path class="cls-1" d="M17.42,24.07c.42-.54,1.08-.91,1.82-.91.78,0,1.47.4,1.89,1"/><path class="cls-1" d="M26.64,24.07c.42-.54,1.08-.91,1.82-.91.78,0,1.47.4,1.89,1"/><circle class="cls-1" cx="28.49" cy="24.8" r=".49"/><circle class="cls-1" cx="19.27" cy="24.8" r=".49"/></g></svg>