<?xml version="1.0" encoding="UTF-8"?><svg xmlns="http://www.w3.org/2000/svg" width="48" height="48" viewBox="0 0 48 48"><g  transform="translate(0.0000,0.0000) scale(1.000000)"><g transform="translate(0.0000,0.0000)"><g transform="translate(0.0000,0.0000) scale(1.000000)"><g transform="translate(-2.3102,0.8690) scale(1.096257)" stroke-width="0.912195"><path d="M37.6,8.25c-.13,0,.13,0,0,0h-1.57s-25.09-.02-25.09-.02h.02c-2.95-.16-5.46,2.13-5.61,5.06v.04c-.17,2.95,2.12,5.46,5.05,5.61.19,0,.38-.03.56-.03v4.34h.01l.07,15.64c0,.48.42.86.93.86h24.34c.52,0,.93-.39.93-.86v-17.51s-.01-.04-.01-.06v-2.38c2.86.05,5.27-2.16,5.42-5.04v-.04c.17-2.95-2.12-5.46-5.05-5.61Z" fill="none" stroke="#000" stroke-linecap="round" stroke-linejoin="round"/><line x1="30.06" y1="15.95" x2="17.94" y2="19.57" fill="none" stroke="#000" stroke-linecap="round" stroke-linejoin="round"/><line x1="30.06" y1="22.19" x2="17.94" y2="25.81" fill="none" stroke="#000" stroke-linecap="round" stroke-linejoin="round"/><line x1="30.06" y1="28.43" x2="17.94" y2="32.05" fill="none" stroke="#000" stroke-linecap="round" stroke-linejoin="round"/></g></g></g></g></svg>