<?xml version="1.0" encoding="UTF-8"?><svg xmlns="http://www.w3.org/2000/svg" width="29.4" height="48" viewBox="0 0 29.4 48"><g  transform="translate(0.0000,0.0000) scale(1.000000)"><g transform="translate(-9.3000,0.0000)"><g transform="translate(9.3000,0.0000) scale(1.000000)"><g transform="translate(-11.1947,-2.0026) scale(1.078947)" stroke-width="0.926829"><line x1="24.14" y1="39.31" x2="24.14" y2="43.03" fill="none" stroke="#000" stroke-linecap="round" stroke-linejoin="round"/><line x1="19.32" y1="37.38" x2="16.7" y2="40.01" fill="none" stroke="#000" stroke-linecap="round" stroke-linejoin="round"/><line x1="28.85" y1="37.69" x2="31.48" y2="40.32" fill="none" stroke="#000" stroke-linecap="round" stroke-linejoin="round"/><path d="M32.5,32.56c-.09-1.26-1.4-2.34-3.55-2.07-1.68.21-2.84,1.12-3.05,2.18-.19,1.21-.99,2.11-1.95,2.11s-1.73-.87-1.95-2.1c-.2-1.07-1.36-1.98-3.05-2.19-2.16-.27-3.46.82-3.55,2.07" fill="none" stroke="#000" stroke-linecap="round" stroke-linejoin="round"/><path d="M22.34,33.7h-3.87c-2.65,0-4.8-2.15-4.8-4.8,0-2.33,1.66-4.28,3.86-4.71,1.09-.26,1.81-1.21,1.9-2.4l.93-13.02c.14-2.01,1.65-3.67,3.67-3.67s3.54,1.65,3.67,3.67h0s.91,13.02.91,13.02c.09,1.19.81,2.14,1.9,2.4,2.2.44,3.86,2.38,3.86,4.71,0,2.65-2.15,4.8-4.8,4.8h-4.01" fill="none" stroke="#000" stroke-linecap="round" stroke-linejoin="round"/></g></g></g></g></svg>