<?xml version="1.0" encoding="UTF-8"?><svg xmlns="http://www.w3.org/2000/svg" width="37.2" height="48" viewBox="0 0 37.2 48"><g  transform="translate(0.0000,0.0000) scale(1.000000)"><g transform="translate(-5.4000,0.0000)"><g transform="translate(5.4000,0.0000) scale(1.000000)"><g transform="translate(-7.3631,-2.0172) scale(1.081794)" stroke-width="0.924390"><path d="M25.94,5.78l-4.1,3.91-.07.07s-.05.12-.05.21.07.24.07.24l.05.05,3.96,3.82v.1l-3.98,3.63-.07.07s-.05.12-.05.21.07.24.07.24l.05.05,3.94,3.79-.14.17-3.82,3.58-.07.07" fill="none" stroke="#000" stroke-linecap="round" stroke-linejoin="round"/><path d="M37.93,5.23l-.26,37.76H11.12l-1.03-.14V5.14h27.84v.1Z" fill="none" stroke="#000" stroke-linecap="round" stroke-linejoin="round"/></g></g></g></g></svg>