<?xml version="1.0" encoding="UTF-8"?>
<svg id="Layer_2" xmlns="http://www.w3.org/2000/svg" version="1.1" viewBox="0 0 64 64"><g transform="translate(-3.9424,-1.2403) scale(1.501768)" stroke-width="0.887842">
  <!-- Generator: Adobe Illustrator 30.3.0, SVG Export Plug-In . SVG Version: 2.1.3 Build 182)  -->
  <defs>
    <style>
      .st0 {
        fill: none;
        stroke: #000;
        stroke-linecap: round;
        stroke-linejoin: round;
      }
    </style>
  </defs>
  <g>
    <path class="st0" d="M19.94,30.74c.16-2.9-2.08-5.39-4.99-5.54-2.9-.16-5.39,2.08-5.54,4.99v.04c-.16,2.9,2.08,5.39,4.99,5.54,2.9.16,5.39-2.08,5.54-4.99v-.04Z"/>
    <path class="st0" d="M5.07,21.64v5.73c0,.1,0,.2.03.3v12.58c0,.4.32.72.72.72h32.75c.4,0,.72-.32.72-.72v-9.38s.02-3.46.02-3.51v-5.75c0-1.57-1.25-2.82-2.82-2.82H7.93c-1.57,0-2.82,1.26-2.82,2.84h-.04,0Z"/>
    <line class="st0" x1="23.65" y1="30.66" x2="20.09" y2="30.66"/>
    <path class="st0" d="M42.69,27.56c0,.4-.33.72-.72.72h-1.92c-.4,0-.72-.33-.72-.72v-4h0c0-.4.33-.72.72-.72h1.99c.4,0,.72.33.72.72l-.06,4h0Z"/>
  </g>
  <path class="st0" d="M12.03,15.39c-.14,0-.29.02-.44.02-2.31-.12-4.11-2.1-3.98-4.42v-.03c.12-2.31,2.1-4.11,4.42-3.98h-.02s19.78,0,19.78,0h1.24c.1,0-.1,0,0,0,2.31.12,4.11,2.1,3.98,4.42v.03c-.12,2.27-2.02,4.01-4.27,3.97l.02,3.38H12.02s0-3.4,0-3.4Z"/>
</g></svg>