<?xml version="1.0" encoding="UTF-8"?><svg xmlns="http://www.w3.org/2000/svg" width="48" height="48" viewBox="0 0 48 48"><g  transform="translate(0.0000,0.0000) scale(1.000000)"><g transform="translate(0.0000,0.0000)"><g transform="translate(0.0000,0.0000) scale(1.000000)"><g transform="translate(-2.3102,-0.1273) scale(1.096257)" stroke-width="0.912195"><path d="M30.48,18.51l-10.6,10.99.09-.09-10.69,11.05c-.3.32-.79.33-1.11.02h0l-2.6-2.49c-.31-.3-.32-.79-.02-1.11l19.49-20.11h-.01s1.77-1.82,1.77-1.82l3.69,3.57Z" fill="none" stroke="#000" stroke-linecap="round" stroke-linejoin="round"/><path d="M37.48,26.12l2.56-2.63h0l2.42-2.48c.3-.32.29-.82-.02-1.11l-2.6-2.49c-.32-.31-.82-.3-1.11.02l-1.04,1.01-.05.02h0l-4.03,4.15c-.3.32-.29.82.02,1.11l2.6,2.49c.32.31.82.3,1.11-.02l.15-.08Z" fill="none" stroke="#000" stroke-linecap="round" stroke-linejoin="round"/><path d="M34.14,22.08l3.91-4-1.74-1.7-.03-.02-7.19-7.03h0c-.06-.06-.13-.12-.19-.18-.74-.65-1.59-1-2.39-.92h.08s-6.25.47-6.25.47l3.67,3.55h0s0,0,0,0l6.88,6.66-.09-.09,3.35,3.26h0Z" fill="none" stroke="#000" stroke-linecap="round" stroke-linejoin="round"/></g></g></g></g></svg>