<?xml version="1.0" encoding="UTF-8"?><svg id="Layer_2" xmlns="http://www.w3.org/2000/svg" viewBox="0 0 64 64"><g transform="translate(-4.9107,-4.3064) scale(1.513782)" stroke-width="0.880796"><path d="M33.78,26.57c.29-.83.45-1.7.45-2.61,0-4.91-4.61-8.88-10.3-8.88s-10.3,3.98-10.3,8.88c0,1.01.2,1.98.56,2.89-1.97,1.56-3.27,4.18-3.27,7.16,0,4.78,3.35,8.66,7.47,8.66,2.33,0,4.41-1.23,5.78-3.16,1.37,1.93,3.45,3.16,5.78,3.16,4.13,0,7.47-3.88,7.47-8.66,0-3.16-1.46-5.93-3.65-7.44Z" fill="none" stroke="#000" stroke-miterlimit="10"/><path d="M14.94,19.57c-1.06-1.22-2.59-2.89-3.47-4.59-.76-1.46-1.32-2.9-1.68-4.22-.65-2.2-.73-4.25-.1-5.49h0c1.82.1,4.57,2.85,6.61,6.78.76,1.46,1.32,2.9,1.68,4.22.04.12.07.25.1.37-1.4.77-2.23,1.75-3.15,2.93Z" fill="none" stroke="#000" stroke-linecap="round" stroke-linejoin="round"/><path d="M15.57,18.78c-.48-.55-1.17-1.31-1.57-2.09-.34-.66-.6-1.32-.77-1.92-.3-1-.33-1.94-.05-2.5h0c.83.05,2.09,1.3,3.02,3.09.34.66.6,1.32.77,1.92.02.06.02.05.03.11-.58.43-.96.86-1.43,1.38Z" fill="none" stroke="#000" stroke-linecap="round" stroke-linejoin="round"/><path d="M32.97,19.57c1.06-1.22,2.59-2.89,3.47-4.59.76-1.46,1.32-2.9,1.68-4.22.65-2.2.73-4.25.1-5.49h0c-1.82.1-4.57,2.85-6.61,6.78-.76,1.46-1.32,2.9-1.68,4.22-.04.12-.07.25-.1.37,1.4.77,2.23,1.75,3.15,2.93Z" fill="none" stroke="#000" stroke-linecap="round" stroke-linejoin="round"/><path d="M32.34,18.78c.48-.55,1.17-1.31,1.57-2.09.34-.66.6-1.32.77-1.92.3-1,.33-1.94.05-2.5h0c-.83.05-2.09,1.3-3.02,3.09-.34.66-.6,1.32-.77,1.92-.02.06-.02.05-.03.11.58.43.96.86,1.43,1.38Z" fill="none" stroke="#000" stroke-linecap="round" stroke-linejoin="round"/><path d="M18.74,25.74c0,.67.54,1.22,1.22,1.22s1.22-.54,1.22-1.22h0c0-.67-.54-1.22-1.22-1.22s-1.22.54-1.22,1.22h0Z" fill="none" stroke="#000" stroke-linecap="round" stroke-linejoin="round"/><path d="M26.5,25.74c0,.67.54,1.22,1.22,1.22s1.22-.54,1.22-1.22h0c0-.67-.54-1.22-1.22-1.22s-1.22.54-1.22,1.22h0Z" fill="none" stroke="#000" stroke-linecap="round" stroke-linejoin="round"/><path d="M26.76,33.37c-1.24,0-2.26.82-2.57,1.96-.31-1.12-1.34-1.96-2.57-1.96" fill="none" stroke="#000" stroke-linecap="round" stroke-linejoin="round"/><line x1="24.19" y1="35.33" x2="24.19" y2="39.78" fill="none" stroke="#000" stroke-linecap="round" stroke-linejoin="round"/><line x1="36.19" y1="33.3" x2="41.08" y2="33.3" fill="none" stroke="#000" stroke-linecap="round" stroke-linejoin="round"/><line x1="36.19" y1="34.96" x2="40.83" y2="36.35" fill="none" stroke="#000" stroke-linecap="round" stroke-linejoin="round"/><line x1="40.83" y1="30.1" x2="36.19" y2="31.5" fill="none" stroke="#000" stroke-linecap="round" stroke-linejoin="round"/><line x1="12.56" y1="33.16" x2="7.67" y2="33.16" fill="none" stroke="#000" stroke-linecap="round" stroke-linejoin="round"/><line x1="12.56" y1="31.5" x2="7.92" y2="30.1" fill="none" stroke="#000" stroke-linecap="round" stroke-linejoin="round"/><line x1="7.92" y1="36.35" x2="12.56" y2="34.96" fill="none" stroke="#000" stroke-linecap="round" stroke-linejoin="round"/></g></svg>