<?xml version="1.0" encoding="UTF-8"?><svg id="Layer_2" xmlns="http://www.w3.org/2000/svg" viewBox="0 0 64 64"><g transform="translate(-3.7895,-3.7895) scale(1.491228)" stroke-width="0.894118"><defs><style>.cls-1{fill:none;stroke:#000;stroke-linecap:round;stroke-linejoin:round;}</style></defs><path class="cls-1" d="M11,7.26c0-.37.3-.68.68-.68h1.48l9.34.06c.37,0,.68.3.68.68,0,0,0,0,0,0v14.79c0,.37-.3.68-.68.68h-10.82c-.37,0-.68-.3-.68-.68V7.26Z"/><path class="cls-1" d="M24.8,7.26c0-.37.3-.68.68-.68h1.48l9.34.06c.37,0,.68.3.68.68,0,0,0,0,0,0v14.79c0,.37-.3.68-.68.68h-10.82c-.37,0-.68-.3-.68-.68V7.26Z"/><ellipse class="cls-1" cx="6.48" cy="12.15" rx="1.12" ry="1.46"/><line class="cls-1" x1="30.89" y1="31.22" x2="17.49" y2="31.22"/><line class="cls-1" x1="30.89" y1="32.83" x2="17.49" y2="32.83"/><line class="cls-1" x1="8.85" y1="13.61" x2="6.54" y2="13.61"/><path class="cls-1" d="M40.41,12.13c0,.81.5,1.46,1.12,1.46s1.12-.66,1.12-1.46-.5-1.46-1.12-1.46-1.12.66-1.12,1.46h0Z"/><line class="cls-1" x1="39.12" y1="13.59" x2="41.44" y2="13.59"/><path class="cls-1" d="M11.25,30.91c0,1.19.96,2.16,2.16,2.16s2.16-.96,2.16-2.16-.96-2.16-2.16-2.16-2.16.96-2.16,2.16h0Z"/><path class="cls-1" d="M32.42,30.67c0,1.19.96,2.16,2.16,2.16s2.16-.96,2.16-2.16h0c0-1.19-.96-2.16-2.16-2.16s-2.16.96-2.16,2.16h0Z"/><path class="cls-1" d="M11.62,38.4v3.27c0,.72.58,1.3,1.3,1.3s1.3-.58,1.3-1.3v-3.27c0-.1-.01-.2-.04-.29h-2.53c-.02.09-.04.2-.04.29h0Z"/><path class="cls-1" d="M33.96,38.4v3.27c0,.72.58,1.3,1.3,1.3s1.3-.58,1.3-1.3v-3.27c0-.1-.01-.2-.04-.29h-2.53c-.02.09-.04.2-.04.29h0Z"/><path class="cls-1" d="M8.87,30.27l.03-24.56c0-.37.3-.68.68-.68,0,0,0,0,0,0h28.87c.37,0,.68.3.68.68v31.72c0,.37-.3.68-.68.68H11.65s-2.1,0-2.1,0c-.37,0-.68-.3-.68-.68v-7.16Z"/></g></svg>