<?xml version="1.0" encoding="UTF-8"?><svg id="Layer_2" xmlns="http://www.w3.org/2000/svg" viewBox="0 0 64 64"><g transform="translate(-4.1632,7.9320) scale(1.505752)" stroke-width="0.885493"><path d="M25.91,18.19l-.03,1.94h0c.05.96.86,1.69,1.81,1.64.95-.05,1.68-.86,1.63-1.81h0" fill="none" stroke="#000" stroke-linecap="round" stroke-linejoin="round"/><path d="M29.36,17.98l-.07,4.97h0c.05.96.86,1.69,1.81,1.64.95-.05,1.68-.86,1.63-1.81h0s.11-3.49.11-3.49" fill="none" stroke="#000" stroke-linecap="round" stroke-linejoin="round"/><path d="M10.01,29.17l-.04-7.7c0-.39.18-.76.49-1l8.07-6.13c.22-.17.49-.26.76-.26l17.77.22c.54,0,.99.44.99.99h0v13.88H10.01" fill="none" stroke="#000" stroke-linecap="round" stroke-linejoin="round"/><path d="M13.63,34.79h21.03c6.82,0,8.15-2.26,8.15-5.1h0v.2l-.03-.74H5.2l.03.74v-.2h0c0,2.83,1.33,5.1,8.15,5.1h21.03" fill="none" stroke="#000" stroke-linecap="round" stroke-linejoin="round"/></g></svg>