<?xml version="1.0" encoding="UTF-8"?><svg xmlns="http://www.w3.org/2000/svg" width="47.9" height="48" viewBox="0 0 47.9 48"><g  transform="translate(0.0000,0.0000) scale(1.000000)"><g transform="translate(0.0000,0.0000)"><g transform="translate(-0.0000,0.0000) scale(1.000000)"><g transform="translate(-2.1702,-1.9521) scale(1.090426)" stroke-width="0.917073"><path d="M29.96,5.48h9.99c1.52,0,2.75.03,2.75,1.55v32.78c0,1.52-1.23,2.75-2.75,2.75H8.07c-1.52,0-2.8-.75-2.8-2.27v-.48s.05-32.78.05-32.78h0c0-1.52,1.23-1.55,2.75-1.55h9.88l6.03,14.18,5.97-14.18Z" fill="none" stroke="#000" stroke-linecap="round" stroke-linejoin="round"/><line x1="28.39" y1="10.32" x2="42.7" y2="10.32" fill="none" stroke="#000" stroke-linecap="round" stroke-linejoin="round"/><line x1="5.32" y1="10.32" x2="19.54" y2="10.32" fill="none" stroke="#000" stroke-linecap="round" stroke-linejoin="round"/><line x1="12.36" y1="5.59" x2="12.36" y2="42.48" fill="none" stroke="#000" stroke-linecap="round" stroke-linejoin="round"/><line x1="19.42" y1="9.14" x2="19.38" y2="42.37" fill="none" stroke="#000" stroke-linecap="round" stroke-linejoin="round"/><line x1="21.49" y1="13.96" x2="21.49" y2="42.37" fill="none" stroke="#000" stroke-linecap="round" stroke-linejoin="round"/><line x1="14.43" y1="5.56" x2="14.43" y2="42.48" fill="none" stroke="#000" stroke-linecap="round" stroke-linejoin="round"/><line x1="7.4" y1="5.45" x2="7.4" y2="42.37" fill="none" stroke="#000" stroke-linecap="round" stroke-linejoin="round"/><line x1="35.83" y1="14.32" x2="35.83" y2="5.56" fill="none" stroke="#000" stroke-linecap="round" stroke-linejoin="round"/><line x1="33.75" y1="14.34" x2="33.75" y2="5.56" fill="none" stroke="#000" stroke-linecap="round" stroke-linejoin="round"/><line x1="35.83" y1="42.3" x2="35.83" y2="21.62" fill="none" stroke="#000" stroke-linecap="round" stroke-linejoin="round"/><line x1="33.75" y1="42.37" x2="33.75" y2="21.62" fill="none" stroke="#000" stroke-linecap="round" stroke-linejoin="round"/><line x1="40.79" y1="42.42" x2="40.79" y2="5.5" fill="none" stroke="#000" stroke-linecap="round" stroke-linejoin="round"/><line x1="28.59" y1="42.37" x2="28.63" y2="8.64" fill="none" stroke="#000" stroke-linecap="round" stroke-linejoin="round"/><line x1="26.48" y1="42.37" x2="26.48" y2="13.96" fill="none" stroke="#000" stroke-linecap="round" stroke-linejoin="round"/><path d="M39.68,14.89c.03-.34-.39-.56-.76-.56h-5.67c-.38,0-.76.24-.76.56v.54s0,0,0,0v5.63s0,0,0,0h0c0,.4.39.57.76.56h5.67c.35,0,.77-.07.76-.56v-.02s0,0,0,0v-6.13s0,0,0,0h0Z" fill="none" stroke="#000" stroke-linecap="round" stroke-linejoin="round"/><line x1="39.69" y1="15.09" x2="42.7" y2="15.11" fill="none" stroke="#000" stroke-linecap="round" stroke-linejoin="round"/><line x1="39.69" y1="19.81" x2="42.7" y2="19.84" fill="none" stroke="#000" stroke-linecap="round" stroke-linejoin="round"/><line x1="26.07" y1="15.11" x2="32.48" y2="15.11" fill="none" stroke="#000" stroke-linecap="round" stroke-linejoin="round"/><line x1="5.31" y1="15.11" x2="21.7" y2="15.11" fill="none" stroke="#000" stroke-linecap="round" stroke-linejoin="round"/><line x1="5.31" y1="19.84" x2="32.48" y2="19.83" fill="none" stroke="#000" stroke-linecap="round" stroke-linejoin="round"/><line x1="5.33" y1="24.46" x2="42.71" y2="24.49" fill="none" stroke="#000" stroke-linecap="round" stroke-linejoin="round"/><line x1="5.31" y1="28.99" x2="42.7" y2="29.01" fill="none" stroke="#000" stroke-linecap="round" stroke-linejoin="round"/><line x1="5.31" y1="33.66" x2="42.7" y2="33.68" fill="none" stroke="#000" stroke-linecap="round" stroke-linejoin="round"/><line x1="5.31" y1="38.18" x2="42.7" y2="38.2" fill="none" stroke="#000" stroke-linecap="round" stroke-linejoin="round"/></g></g></g></g></svg>