<?xml version="1.0" encoding="UTF-8"?><svg xmlns="http://www.w3.org/2000/svg" width="36" height="48" viewBox="0 0 36 48"><g  transform="translate(0.0000,0.0000) scale(1.000000)"><g transform="translate(-6.0000,0.0000)"><g transform="translate(6.0000,0.0000) scale(1.000000)"><g transform="translate(-8.1052,-2.2639) scale(1.087533)" stroke-width="0.919512">
  <!-- Generator: Adobe Illustrator 30.3.0, SVG Export Plug-In . SVG Version: 2.1.3 Build 182)  -->
  <defs>
    <style>
      .st0 {
        fill: none;
        stroke: #000;
        stroke-linecap: round;
        stroke-linejoin: round;
      }
    </style>
  </defs>
  <path class="st0" d="M19.32,22.38v-9.42c0-2.59,2.09-4.68,4.68-4.68s4.68,2.09,4.68,4.68l.06,9.4h2.72l-.09-9.61c0-4.1-3.3-7.4-7.4-7.4s-7.4,3.3-7.4,7.4v9.61l2.77.02Z"/>
  <path class="st0" d="M35.14,16.58h-3.75l.05,5.78h-2.72l-.03-5.78h-9.37v5.8l-2.77-.02v-5.78h-3.65c-1.2,0-2.16.98-2.16,2.16l-.04,22.06c0,1.2.98,2.16,2.16,2.16h22.23c1.2,0,2.16-.98,2.16-2.16h.01l.04-22.06c0-1.2-.98-2.16-2.16-2.16Z"/>
</g></g></g></g></svg>