<?xml version="1.0" encoding="UTF-8"?><svg id="Layer_2" xmlns="http://www.w3.org/2000/svg" viewBox="0 0 48 48"><g transform="translate(-2.1702,-0.9707) scale(1.090426)" stroke-width="0.917073"><path d="M34.99,21.97c-.44,0-.82-.05-1.22-.06-4.12-.16-7.47,3.35-7.47,7.47,0,2.13-.86,4.15-2.26,5.63-1.4-1.48-2.27-3.5-2.27-5.64,0-4.13-3.35-7.63-7.47-7.47-.4.02-.78.06-1.22.06-2.58,0-4.86-1.31-6.2-3.3,2.16-7.29,8.9-12.62,16.9-12.62s15.06,5.58,17.04,13.13c-1.37,1.7-3.47,2.8-5.82,2.8Z" fill="none" stroke="#000" stroke-linecap="round" stroke-linejoin="round"/><path d="M37.89,36.13c-3.56,4.13-9.3,5.91-15.02,5.49-9.71-.72-17.62-7.89-17.62-17.62,0-2.19-.05-4.58.68-6.51h0c1.21,2.48,4.18,4.48,7.13,4.48.44,0,.82-.05,1.22-.06,4.12-.16,7.47,3.35,7.47,7.47.01,4.33,3.08,7.95,8.32,8.05,3.67.07,7.5-.74,8.36-1.82l-.54.53Z" fill="none" stroke="#000" stroke-linecap="round" stroke-linejoin="round"/><path d="M31.86,40.33c-10.2,3.54-18.48-7.65-19.27-14.64" fill="none" stroke="#000" stroke-linecap="round" stroke-linejoin="round"/><path d="M28.95,37.29c3.65-3.24,6.06-7.98,6.47-11.6" fill="none" stroke="#000" stroke-linecap="round" stroke-linejoin="round"/><path d="M38.43,35.6h0c-.75,1.06-5.33,2.08-9.05,1.8-2.16-.17-3.96-.9-5.36-2.38,1.4-1.48,2.26-3.5,2.26-5.64,0-4.13,3.35-7.63,7.47-7.47.4.02.78.06,1.22.06,2.95,0,5.5-1.71,6.72-4.19.73,1.93,1.09,4.04,1.09,6.22,0,7.51-4.76,14.08-11.52,16.54" fill="none" stroke="#000" stroke-linecap="round" stroke-linejoin="round"/></g></svg>