<?xml version="1.0" encoding="UTF-8"?><svg id="Layer_2" xmlns="http://www.w3.org/2000/svg" viewBox="0 0 48 48"><g transform="translate(-2.0317,0.6799) scale(1.084656)" stroke-width="0.921951"><path d="M5.16,19c0-.71.57-1.28,1.28-1.29h33.44c1.61,0,2.96,1.31,2.96,2.95v16.76c0,1.61-1.31,2.96-2.96,2.96H6.47c-.71,0-1.29-.58-1.29-1.29l-.02-20.09Z" fill="none" stroke="#000" stroke-linecap="round" stroke-linejoin="round"/><path d="M5.16,30.49h28.66c1.61,0,2.96,1.31,2.96,2.96v.17c0,1.61-1.31,2.96-2.96,2.96l-28.66-.04v-6.03Z" fill="none" stroke="#000" stroke-linecap="round" stroke-linejoin="round"/><path d="M5.16,21.51h28.66c1.61,0,2.96,1.31,2.96,2.96v.17c0,1.61-1.31,2.96-2.96,2.96H5.16v-6.08Z" fill="none" stroke="#000" stroke-linecap="round" stroke-linejoin="round"/><path d="M27.69,9.74c.03-1.13-.87-2.08-2-2.11s-2.08.87-2.11,2l-.04,1.44" fill="none" stroke="#000" stroke-linecap="round" stroke-linejoin="round"/><circle cx="23.52" cy="14.43" r="3.22" fill="none" stroke="#000" stroke-linecap="round" stroke-linejoin="round"/></g></svg>