<?xml version="1.0" encoding="UTF-8"?><svg id="Layer_2" xmlns="http://www.w3.org/2000/svg" viewBox="0 0 48 48"><g transform="translate(-2.1702,3.6090) scale(1.090426)" stroke-width="0.917073"><path d="M21.48,26.43c.19,3.68,3.33,6.51,7.01,6.31,3.68-.19,6.51-3.33,6.31-7.01v-.04c-.19-3.68-3.33-6.51-7.01-6.31-3.68.19-6.51,3.33-6.31,7.01v.04Z" fill="none" stroke="#000" stroke-linecap="round" stroke-linejoin="round"/><path d="M7.62,37.45c-1.26,0-2.3-1.02-2.3-2.3h-.05l.05-21.12h0c0-1.26,1.02-2.3,2.3-2.3h5.69c1.26,0,2.3,1.02,2.3,2.3v21.12c0,1.26-1.02,2.3-2.3,2.3,0,0-5.69,0-5.69,0Z" fill="none" stroke="#000" stroke-linecap="round" stroke-linejoin="round"/><path d="M18.98,14.71l.25-1.76h0c0-1.26,1.02-2.3,2.3-2.3h13.22c1.26,0,2.3,1.02,2.3,2.3l.25,1.76" fill="none" stroke="#000" stroke-linecap="round" stroke-linejoin="round"/><path d="M40.47,14.7H15.62v20.42c0,1.19-.88,2.2-2.11,2.32.06,0,.13-.02.2-.02h26.77c1.28,0,2.3-1.04,2.3-2.3v-18.11c0-1.28-1.04-2.3-2.3-2.3Z" fill="none" stroke="#000" stroke-linecap="round" stroke-linejoin="round"/><path d="M24.35,26.27c.11,2.1,1.9,3.71,4,3.6,2.1-.11,3.71-1.9,3.6-4v-.02c-.11-2.1-1.9-3.71-4-3.6-2.1.11-3.71,1.9-3.6,4v.02Z" fill="none" stroke="#000" stroke-linecap="round" stroke-linejoin="round"/></g></svg>