<?xml version="1.0" encoding="UTF-8"?><svg id="Layer_2" xmlns="http://www.w3.org/2000/svg" viewBox="0 0 64 64"><g transform="translate(-3.7895,11.5702) scale(1.491228)" stroke-width="0.894118"><path d="M24.01,15.63c-6.14-.05-11.17,3.73-11.23,8.45-.06,4.71,4.88,8.56,11.02,8.61h.21c6.14.05,11.17-3.73,11.23-8.45.06-4.71-4.88-8.56-11.02-8.61h-.21Z" fill="none" stroke="#000" stroke-linecap="round" stroke-linejoin="round"/><path d="M42.94,24.12l-3.25-2.64c-.06-.06-.06-.15-.01-.22l3.27-2.67h-3.07s-.28.01-.28.01h.1c-2.52,0-4.27.9-5.2,2.42.5.99.78,2.06.77,3.18-.02,1.08-.3,2.12-.8,3.07.93,1.52,2.72,2.38,5.2,2.38h.22s3.05,0,3.05,0l-3.25-2.64c-.06-.06-.06-.15-.01-.22l3.27-2.67h0,0s0,0,0,0h0Z" fill="none" stroke="#000" stroke-linecap="round" stroke-linejoin="round"/><path d="M5.05,24.13l3.25,2.64c.06.06.06.15.01.22l-3.27,2.67h3.07s.28-.01.28-.01h-.1c2.52,0,4.27-.9,5.2-2.42-.5-.99-.78-2.06-.77-3.18.02-1.08.3-2.12.8-3.07-.93-1.52-2.72-2.38-5.2-2.38h-.22s-3.05,0-3.05,0l3.25,2.64c.06.06.06.15.01.22l-3.27,2.67h0,0s0,0,0,0h0Z" fill="none" stroke="#000" stroke-linecap="round" stroke-linejoin="round"/></g></svg>