<?xml version="1.0" encoding="UTF-8"?><svg id="Layer_2" xmlns="http://www.w3.org/2000/svg" viewBox="0 0 48 48"><g transform="translate(-1.8899,-1.8950) scale(1.078747)" stroke-width="0.927002"><defs><style>.cls-1{fill:none;stroke:#000;stroke-linecap:round;stroke-linejoin:round;}</style></defs><path class="cls-1" d="M23.97,14.67c.94,0,1.86.09,2.73.26v-3.24h-5.37v3.23c.85-.16,1.73-.25,2.65-.25Z"/><path class="cls-1" d="M18.52,5.74c0-.37.3-.68.68-.68h1.24l8.24.05c.37,0,.68.3.68.68,0,0,0,0,0,0v5.24c0,.37-.3.68-.68.68h-9.48c-.37,0-.68-.3-.68-.68v-5.29Z"/><path class="cls-1" d="M34.25,43.01H13.75c-.37,0-.68-.3-.68-.68v-16.8c0-6.03,4.9-10.93,10.93-10.93s10.93,4.9,10.93,10.93v16.8c0,.37-.3.68-.68.68Z"/><path class="cls-1" d="M18.52,15.86c-2.09,0-3.81-1.73-3.81-3.82s1.72-3.67,3.81-3.67"/></g></svg>