<?xml version="1.0" encoding="UTF-8"?><svg id="Layer_2" xmlns="http://www.w3.org/2000/svg" viewBox="0 0 48 48"><g transform="translate(-1.8806,3.8228) scale(1.076115)" stroke-width="0.929268"><defs><style>.cls-1{fill:none;stroke:#000;stroke-linecap:round;stroke-linejoin:round;}</style></defs><path class="cls-1" d="M5.05,20.81c0,.98.61,1.78,1.36,1.78s1.36-.79,1.36-1.78-.61-1.78-1.36-1.78-1.36.79-1.36,1.78Z"/><line class="cls-1" x1="8.88" y1="22.59" x2="6.52" y2="22.59"/><path class="cls-1" d="M40.32,20.81c0,.98.61,1.78,1.36,1.78s1.36-.79,1.36-1.78-.61-1.78-1.36-1.78-1.36.79-1.36,1.78Z"/><line class="cls-1" x1="39.22" y1="22.59" x2="41.58" y2="22.59"/><path class="cls-1" d="M12.16,27.38c0,1.44,1.17,2.61,2.61,2.61s2.61-1.17,2.61-2.61-1.17-2.61-2.61-2.61-2.61,1.17-2.61,2.61Z"/><path class="cls-1" d="M30.99,27.09c0,1.44,1.17,2.61,2.61,2.61s2.61-1.17,2.61-2.61-1.17-2.62-2.61-2.62-2.61,1.17-2.61,2.61h0Z"/><path class="cls-1" d="M11.86,32.25v3.97c0,.87.71,1.57,1.57,1.57s1.57-.71,1.57-1.57v-3.97c0-.12-.02-.24-.05-.36h-3.06c-.03.11-.05.24-.05.36h0Z"/><path class="cls-1" d="M33.68,32.25v3.97c0,.87.71,1.57,1.57,1.57s1.57-.71,1.57-1.57v-3.97c0-.12-.02-.24-.05-.36h-3.06c-.03.11-.05.24-.05.36h0Z"/><path class="cls-1" d="M12.62,10.19h22.82c.31,0,.58.21.66.51l3.09,11.89H8.87l3.09-11.89c.08-.3.35-.5.65-.5Z"/><path class="cls-1" d="M8.88,31.21v-8.63h30.3v8.63c0,.37-.3.68-.68.68H9.56c-.37,0-.68-.3-.68-.68Z"/><path class="cls-1" d="M35.82,20.97H12.25c-.36,0-.65-.29-.65-.65,0-.07.01-.13.04-.22l1.95-7.81c.08-.29.34-.5.65-.51h19.6c.31,0,.57.21.65.51l1.97,7.86c.01.05.02.1.02.15,0,.36-.29.65-.65.65h0Z"/></g></svg>