<?xml version="1.0" encoding="UTF-8"?><svg xmlns="http://www.w3.org/2000/svg" width="38.2" height="48" viewBox="0 0 38.2 48"><g  transform="translate(0.0000,0.0000) scale(1.000000)"><g transform="translate(-4.9000,0.0000)"><g transform="translate(4.9000,0.0000) scale(1.000000)"><g transform="translate(-6.9566,-1.8947) scale(1.078947)" stroke-width="0.926829"><path d="M9.75,5.89c0-.48.39-.88.88-.88h1.92l25.12.08c.48,0,.88.39.88.88h0v36.1c0,.48-.39.88-.88.88H10.63c-.48,0-.88-.39-.88-.88V5.89Z" fill="none" stroke="#000" stroke-linecap="round" stroke-linejoin="round"/><path d="M28.8,22.19l-3.98-3.47c-.82-.71-2.09-.5-2.63.45l-6.7,11.77c-.8,1.81.97,3.28,2.56,2.21l10.67-8.31c.85-.66.89-1.94.07-2.65Z" fill="none" stroke="#000" stroke-linecap="round" stroke-linejoin="round"/><line x1="17.63" y1="27.89" x2="20.75" y2="30.48" fill="none" stroke="#000" stroke-linecap="round" stroke-linejoin="round"/><line x1="28.69" y1="18.44" x2="30.84" y2="16.29" fill="none" stroke="#000" stroke-linecap="round" stroke-linejoin="round"/><line x1="30.12" y1="20.01" x2="33.01" y2="20.01" fill="none" stroke="#000" stroke-linecap="round" stroke-linejoin="round"/><line x1="26.99" y1="14.44" x2="26.99" y2="17.33" fill="none" stroke="#000" stroke-linecap="round" stroke-linejoin="round"/></g></g></g></g></svg>