<?xml version="1.0" encoding="UTF-8"?><svg id="Layer_2" xmlns="http://www.w3.org/2000/svg" viewBox="0 0 64 64"><g transform="translate(-4.2927,-4.1437) scale(1.501768)" stroke-width="0.887842"><rect x="5.88" y="17.75" width="26.21" height="20.11" rx=".85" ry=".85" transform="translate(-2.72 53.54) rotate(-105.51)" fill="none" stroke="#000" stroke-linecap="round" stroke-linejoin="round"/><path d="M23.15,27.33l-1.92,5.86c-.13.4-.63.54-.96.27l-4.66-4.04c-.18-.16-.25-.41-.18-.63l1.92-5.86c.13-.4.63-.54.96-.27l4.66,4.04c.18.16.25.41.18.63Z" fill="none" stroke="#000" stroke-linecap="round" stroke-linejoin="round"/><path d="M20.77,13.46l2.17-7.8c.09-.31.41-.5.72-.41l18.25,5.06c.31.09.5.41.41.72l-6.7,24.12c-.09.31-.41.5-.72.41l-3.6-1" fill="none" stroke="#000" stroke-linecap="round" stroke-linejoin="round"/><path d="M28.63,24.9s.11-.51.38-1.71c.05-.22.13-.6.18-.8" fill="none" stroke="#000" stroke-linecap="round" stroke-linejoin="round"/><path d="M29.19,22.39c.2.85,1.03,1.78,1.93,2.06,1.35.42,2.79-.33,3.21-1.69s-.33-2.79-1.69-3.21c-.28-.09-.55-.12-.83-.11.34-.3.61-.69.75-1.16.42-1.35-.33-2.79-1.69-3.21s-2.79.33-3.21,1.69c-.14.46-.15.94-.04,1.37-.22-.16-.46-.28-.73-.37-.07-.02-.15-.04-.22-.06" fill="none" stroke="#000" stroke-linecap="round" stroke-linejoin="round"/></g></svg>