<?xml version="1.0" encoding="UTF-8"?><svg id="Layer_2" xmlns="http://www.w3.org/2000/svg" viewBox="0 0 48 48"><g transform="translate(-1.8947,8.6789) scale(1.078947)" stroke-width="0.926829"><rect x="17.98" y="10.89" width="11.97" height="26.63" rx=".85" ry=".85" transform="translate(-.23 48.18) rotate(-90)" fill="none" stroke="#000" stroke-linecap="round" stroke-linejoin="round"/><rect x="14.99" y="8.02" width="17.9" height="32.37" rx=".85" ry=".85" transform="translate(-.27 48.14) rotate(-90)" fill="none" stroke="#000" stroke-linecap="round" stroke-linejoin="round"/><line x1="5.01" y1="18.6" x2="7.65" y2="18.6" fill="none" stroke="#000" stroke-linecap="round" stroke-linejoin="round"/><line x1="5.01" y1="16.73" x2="7.65" y2="16.73" fill="none" stroke="#000" stroke-linecap="round" stroke-linejoin="round"/><line x1="5.01" y1="20.47" x2="7.65" y2="20.47" fill="none" stroke="#000" stroke-linecap="round" stroke-linejoin="round"/><line x1="5.01" y1="22.34" x2="7.65" y2="22.34" fill="none" stroke="#000" stroke-linecap="round" stroke-linejoin="round"/><line x1="5.01" y1="26.07" x2="7.65" y2="26.07" fill="none" stroke="#000" stroke-linecap="round" stroke-linejoin="round"/><line x1="5.01" y1="27.94" x2="7.65" y2="27.94" fill="none" stroke="#000" stroke-linecap="round" stroke-linejoin="round"/><line x1="5.01" y1="29.81" x2="7.65" y2="29.81" fill="none" stroke="#000" stroke-linecap="round" stroke-linejoin="round"/><line x1="5.01" y1="31.68" x2="7.65" y2="31.68" fill="none" stroke="#000" stroke-linecap="round" stroke-linejoin="round"/><line x1="5.01" y1="24.21" x2="7.65" y2="24.21" fill="none" stroke="#000" stroke-linecap="round" stroke-linejoin="round"/><line x1="40.29" y1="18.6" x2="42.93" y2="18.6" fill="none" stroke="#000" stroke-linecap="round" stroke-linejoin="round"/><line x1="40.29" y1="16.73" x2="42.93" y2="16.73" fill="none" stroke="#000" stroke-linecap="round" stroke-linejoin="round"/><line x1="40.29" y1="20.47" x2="42.93" y2="20.47" fill="none" stroke="#000" stroke-linecap="round" stroke-linejoin="round"/><line x1="40.29" y1="22.34" x2="42.93" y2="22.34" fill="none" stroke="#000" stroke-linecap="round" stroke-linejoin="round"/><line x1="40.29" y1="26.07" x2="42.93" y2="26.07" fill="none" stroke="#000" stroke-linecap="round" stroke-linejoin="round"/><line x1="40.29" y1="27.94" x2="42.93" y2="27.94" fill="none" stroke="#000" stroke-linecap="round" stroke-linejoin="round"/><line x1="40.29" y1="29.81" x2="42.93" y2="29.81" fill="none" stroke="#000" stroke-linecap="round" stroke-linejoin="round"/><line x1="40.29" y1="31.68" x2="42.93" y2="31.68" fill="none" stroke="#000" stroke-linecap="round" stroke-linejoin="round"/><line x1="40.29" y1="24.21" x2="42.93" y2="24.21" fill="none" stroke="#000" stroke-linecap="round" stroke-linejoin="round"/></g></svg>