<?xml version="1.0" encoding="UTF-8"?><svg id="Layer_2" xmlns="http://www.w3.org/2000/svg" viewBox="0 0 48 48"><g transform="translate(-2.0318,-2.0320) scale(1.084663)" stroke-width="0.921946"><defs><style>.cls-1{fill:none;stroke:#000;stroke-linecap:round;stroke-linejoin:round;}</style></defs><path class="cls-1" d="M30.54,18.75l-4.03,21.95-.03.15.02-.15c-.17,1.24-1.23,2.19-2.51,2.19-1.21,0-2.21-.84-2.47-1.97l-.05-.27-4.06-22.18h0c-.04-.29-.06-.59-.06-.9,0-3.67,2.97-6.64,6.64-6.64s6.64,2.97,6.64,6.64c0,.46-.05.91-.13,1.34l.03-.16Z"/><path class="cls-1" d="M27.29,10.18c.46-.27,1.04-.78,1.36-1.3.09-.16.17-.31.24-.47h0c.48-1.01.63-3.22.63-3.22,0,0-2.29.23-3.28.77-.46.27-1.03.77-1.36,1.3-.09.16-.17.31-.24.47-.48,1.01-.64,3.22-.64,3.22,0,0,2.29-.23,3.28-.77h.01Z"/><path class="cls-1" d="M20.72,10.18h0c.99.54,3.28.77,3.28.77,0,0-.16-2.22-.64-3.22-.07-.16-.15-.31-.24-.47-.34-.54-.9-1.03-1.36-1.3-.99-.54-3.28-.77-3.28-.77,0,0,.15,2.22.63,3.22h0c.07.16.15.31.24.47.33.52.9,1.03,1.36,1.3h.01Z"/></g></svg>