<?xml version="1.0" encoding="UTF-8"?><svg xmlns="http://www.w3.org/2000/svg" width="48" height="48" viewBox="0 0 48 48"><g  transform="translate(0.0000,0.0000) scale(1.000000)"><g transform="translate(0.0000,0.0000)"><g transform="translate(0.0000,0.0000) scale(1.000000)"><g transform="translate(-2.1702,0.9920) scale(1.090426)" stroke-width="0.917073"><path d="M25.25,10.82c-.48-1.89-2.45-3.06-4.34-2.58s-3.06,2.45-2.58,4.34c.05.19.12.37.19.55-1.05-.11-2.13-.06-3.18.21s-2.1.76-2.99,1.38c-.02-.19-.02-.39-.08-.6-.48-1.89-2.45-3.06-4.34-2.58s-3.06,2.45-2.58,4.34c.45,1.75,2.12,2.85,3.86,2.65-.81,1.82-1.04,3.93-.51,6.01,1.25,4.91,6.29,7.91,11.21,6.66s7.91-6.29,6.66-11.21c-.53-2.08-1.74-3.82-3.34-5.03,1.57-.67,2.5-2.43,2.06-4.16h-.02Z" fill="none" stroke="#000" stroke-linecap="round" stroke-linejoin="round"/><circle cx="14.39" cy="21.06" r="1.04" fill="none" stroke="#000" stroke-linecap="round" stroke-linejoin="round"/><circle cx="20.07" cy="19.52" r=".94" fill="none" stroke="#000" stroke-linecap="round" stroke-linejoin="round"/><path d="M15.26,25.55c.22.85,1.08,1.36,1.93,1.14.71-.18,1.18-.81,1.19-1.51.35.6,1.06.93,1.77.74.85-.22,1.36-1.08,1.14-1.93" fill="none" stroke="#000" stroke-linecap="round" stroke-linejoin="round"/><path d="M19.73,31.21c.19,3.04,1.87,5.93,4.71,7.51,4.43,2.46,10.07.85,12.54-3.58,1.04-1.88,1.35-3.97,1.02-5.95,1.61.59,3.48-.05,4.35-1.61h-.02c.95-1.72.32-3.92-1.39-4.87s-3.91-.32-4.86,1.39c-.09.17-.17.35-.24.53-.69-.8-1.51-1.5-2.46-2.03s-2.05-.89-3.12-1.04c.11-.16.25-.3.36-.49.95-1.71.32-3.91-1.39-4.86-1.28-.71-2.84-.54-3.94.32" fill="none" stroke="#000" stroke-linecap="round" stroke-linejoin="round"/><circle cx="27.39" cy="27.56" r=".97" fill="none" stroke="#000" stroke-linecap="round" stroke-linejoin="round"/><circle cx="32.58" cy="30.34" r=".95" fill="none" stroke="#000" stroke-linecap="round" stroke-linejoin="round"/><path d="M24.95,31.42c-.42.77-.14,1.73.63,2.15.64.35,1.42.22,1.9-.28-.16.67.14,1.4.78,1.76.77.42,1.73.14,2.15-.63" fill="none" stroke="#000" stroke-linecap="round" stroke-linejoin="round"/></g></g></g></g></svg>