<?xml version="1.0" encoding="UTF-8"?><svg xmlns="http://www.w3.org/2000/svg" width="34.6" height="48" viewBox="0 0 34.6 48"><g  transform="translate(0.0000,0.0000) scale(1.000000)"><g transform="translate(-6.7000,0.0000)"><g transform="translate(6.7000,0.0000) scale(1.000000)"><g transform="translate(-8.5947,-1.8947) scale(1.078947)" stroke-width="0.926829"><path d="M14.97,26.4V6.47c0-.77.63-1.42,1.42-1.42h3.09l12.15.13c.77,0,1.42.63,1.42,1.42h0v19.81H14.97Z" fill="none" stroke="#000" stroke-linecap="round" stroke-linejoin="round"/><polygon points="12.82 31.94 15.65 31.94 15.68 42.92 12.86 42.92 12.83 31.94 12.82 31.94" fill="none" stroke="#000" stroke-linecap="round" stroke-linejoin="round"/><polygon points="32.53 31.94 35.36 31.94 35.39 42.92 32.57 42.92 32.54 31.94 32.53 31.94" fill="none" stroke="#000" stroke-linecap="round" stroke-linejoin="round"/><path d="M34.07,26.42H13.94c-1.48,0-2.66,1.18-2.66,2.66h0v-.11s0,1.52,0,1.52c0,.79.65,1.42,1.42,1.42h22.63c.79,0,1.42-.65,1.42-1.42v-1.39h-.02c0-1.49-1.18-2.67-2.66-2.67" fill="none" stroke="#000" stroke-linecap="round" stroke-linejoin="round"/></g></g></g></g></svg>