<?xml version="1.0" encoding="UTF-8"?><svg xmlns="http://www.w3.org/2000/svg" width="47.9" height="48" viewBox="0 0 47.9 48"><g  transform="translate(0.0000,0.0000) scale(1.000000)"><g transform="translate(0.0000,0.0000)"><g transform="translate(-0.0000,0.0000) scale(1.000000)"><g transform="translate(-2.0612,-1.8431) scale(1.090426)" stroke-width="0.917073"><line x1="19.17" y1="36" x2="12.48" y2="29.31" fill="none" stroke="#000" stroke-linecap="round" stroke-linejoin="round"/><line x1="20.93" y1="34.12" x2="14.25" y2="27.43" fill="none" stroke="#000" stroke-linecap="round" stroke-linejoin="round"/><line x1="37.18" y1="17.99" x2="30.5" y2="11.3" fill="none" stroke="#000" stroke-linecap="round" stroke-linejoin="round"/><line x1="38.95" y1="16.11" x2="32.26" y2="9.42" fill="none" stroke="#000" stroke-linecap="round" stroke-linejoin="round"/><polygon points="6.49 42.44 14.03 38.94 9.09 34 5.16 41.07 6.49 42.44" fill="none" stroke="#000" stroke-linecap="round" stroke-linejoin="round"/><path d="M9.28,31.89c-.59.61-.59,1.59,0,2.17l4.98,4.96c.61.61,1.59.61,2.17,0,0,0,26.24-26.02,25.74-25.52.59-.61.59-1.59,0-2.17l-4.98-4.96c-.61-.61-1.59-.61-2.17,0,0,0-26.2,25.52-25.74,25.52Z" fill="none" stroke="#000" stroke-linecap="round" stroke-linejoin="round"/></g></g></g></g></svg>