<?xml version="1.0" encoding="UTF-8"?><svg id="Layer_2" xmlns="http://www.w3.org/2000/svg" viewBox="0 0 48 48"><g transform="translate(-2.4499,-1.9090) scale(1.081794)" stroke-width="0.924390"><path d="M36.11,42.85l.02-.38c0-1.06-.86-1.9-1.9-1.9H14.63c-1.06,0-1.9.86-1.9,1.9h0l-.02.39h23.42Z" fill="none" stroke="#000" stroke-linecap="round" stroke-linejoin="round"/><path d="M33.86,40.56l.02-.38c0-1.06-.86-1.9-1.9-1.9h-15.22c-1.06,0-1.9.86-1.9,1.9h0l-.02.39h19.04Z" fill="none" stroke="#000" stroke-linecap="round" stroke-linejoin="round"/><path d="M16.98,35.68c.97-2.26,3.53-6.7,3.62-12.2l-.02-6.18" fill="none" stroke="#000" stroke-linecap="round" stroke-linejoin="round"/><path d="M31.25,35.68c-.97-2.26-3.5-6.7-3.59-12.2l.02-6.2" fill="none" stroke="#000" stroke-linecap="round" stroke-linejoin="round"/><rect x="16.98" y="35.68" width="14.26" height="2.58" fill="none" stroke="#000" stroke-linecap="round" stroke-linejoin="round"/><path d="M28.66,17.27h-9.06c-1.03,0-1.69-.62-1.69-1.45s.66-1.55,1.69-1.55h9.06c1.03,0,1.67.69,1.67,1.52s-.64,1.48-1.67,1.48Z" fill="none" stroke="#000" stroke-linecap="round" stroke-linejoin="round"/><path d="M20.56,14.25h7.12c1.07-.97,1.75-2.37,1.75-3.93,0-2.93-2.38-5.31-5.31-5.31s-5.31,2.38-5.31,5.31c0,1.56.68,2.96,1.75,3.93Z" fill="none" stroke="#000" stroke-linecap="round" stroke-linejoin="round"/></g></svg>