<?xml version="1.0" encoding="UTF-8"?><svg xmlns="http://www.w3.org/2000/svg" width="37" height="48" viewBox="0 0 37 48"><g  transform="translate(0.0000,0.0000) scale(1.000000)"><g transform="translate(-5.5000,0.0000)"><g transform="translate(5.5000,0.0000) scale(1.000000)"><g transform="translate(-7.5317,-2.0317) scale(1.084656)" stroke-width="0.921951"><path d="M24.92,41.79c0,.58-.47,1.05-1.05,1.05v.02l-12.61-.02h0c-.58,0-1.05-.47-1.05-1.05V6.19c0-.58.47-1.05,1.05-1.05h12.61c.58,0,1.05.47,1.05,1.05v35.6Z" fill="none" stroke="#000" stroke-linecap="round" stroke-linejoin="round"/><path d="M36.74,12.01h-11.82v29.78c0,.53-.4.98-.92,1.04.04,0,.08.01.13.01l12.61.02v-.02c.58,0,1.05-.47,1.05-1.05V13.06c0-.58-.47-1.05-1.05-1.05Z" fill="none" stroke="#000" stroke-linecap="round" stroke-linejoin="round"/><path d="M12.72,11.61c-.2,0-.36-.17-.37-.37h0v-3.44h0c0-.2.17-.36.36-.37l3.51-.02c.2,0,.36.17.37.37l.02,3.43c0,.2-.17.36-.36.37l-3.51.02h0Z" fill="none" stroke="#000" stroke-linecap="round" stroke-linejoin="round"/><path d="M18.91,11.61c-.2,0-.36-.17-.37-.37h0v-3.44h0c0-.2.17-.36.36-.37l3.51-.02c.2,0,.36.17.37.37l.02,3.43c0,.2-.17.36-.36.37l-3.51.02h0Z" fill="none" stroke="#000" stroke-linecap="round" stroke-linejoin="round"/><path d="M12.72,18.78c-.2,0-.36-.17-.37-.37h0v-3.44h0c0-.2.17-.36.36-.37l3.51-.02c.2,0,.36.17.37.37l.02,3.43c0,.2-.17.36-.36.37l-3.51.02h0Z" fill="none" stroke="#000" stroke-linecap="round" stroke-linejoin="round"/><path d="M18.91,18.78c-.2,0-.36-.17-.37-.37h0v-3.44h0c0-.2.17-.36.36-.37l3.51-.02c.2,0,.36.17.37.37l.02,3.43c0,.2-.17.36-.36.37l-3.51.02h0Z" fill="none" stroke="#000" stroke-linecap="round" stroke-linejoin="round"/><path d="M12.72,25.95c-.2,0-.36-.17-.37-.37h0v-3.44h0c0-.2.17-.36.36-.37l3.51-.02c.2,0,.36.17.37.37l.02,3.43c0,.2-.17.36-.36.37l-3.51.02h0Z" fill="none" stroke="#000" stroke-linecap="round" stroke-linejoin="round"/><path d="M18.91,25.95c-.2,0-.36-.17-.37-.37h0v-3.44h0c0-.2.17-.36.36-.37l3.51-.02c.2,0,.36.17.37.37l.02,3.43c0,.2-.17.36-.36.37l-3.51.02h0Z" fill="none" stroke="#000" stroke-linecap="round" stroke-linejoin="round"/><path d="M12.72,33.12c-.2,0-.36-.17-.37-.37h0v-3.44h0c0-.2.17-.36.36-.37l3.51-.02c.2,0,.36.17.37.37l.02,3.43c0,.2-.17.36-.36.37l-3.51.02h0Z" fill="none" stroke="#000" stroke-linecap="round" stroke-linejoin="round"/><path d="M18.91,33.12c-.2,0-.36-.17-.37-.37h0v-3.44h0c0-.2.17-.36.36-.37l3.51-.02c.2,0,.36.17.37.37l.02,3.43c0,.2-.17.36-.36.37l-3.51.02h0Z" fill="none" stroke="#000" stroke-linecap="round" stroke-linejoin="round"/><path d="M12.72,40.29c-.2,0-.36-.17-.37-.37h0v-3.44h0c0-.2.17-.36.36-.37l3.51-.02c.2,0,.36.17.37.37l.02,3.43c0,.2-.17.36-.36.37l-3.51.02h0Z" fill="none" stroke="#000" stroke-linecap="round" stroke-linejoin="round"/><path d="M18.91,40.29c-.2,0-.36-.17-.37-.37h0v-3.44h0c0-.2.17-.36.36-.37l3.51-.02c.2,0,.36.17.37.37l.02,3.43c0,.2-.17.36-.36.37l-3.51.02h0Z" fill="none" stroke="#000" stroke-linecap="round" stroke-linejoin="round"/><path d="M25.3,18.78c-.2,0-.36-.17-.37-.37h0v-3.44h0c0-.2.17-.36.36-.37l3.51-.02c.2,0,.36.17.37.37l.02,3.43c0,.2-.17.36-.36.37l-3.51.02h0Z" fill="none" stroke="#000" stroke-linecap="round" stroke-linejoin="round"/><path d="M31.49,18.78c-.2,0-.36-.17-.37-.37h0v-3.44h0c0-.2.17-.36.36-.37l3.51-.02c.2,0,.36.17.37.37l.02,3.43c0,.2-.17.36-.36.37l-3.51.02h0Z" fill="none" stroke="#000" stroke-linecap="round" stroke-linejoin="round"/><path d="M25.3,25.95c-.2,0-.36-.17-.37-.37h0v-3.44h0c0-.2.17-.36.36-.37l3.51-.02c.2,0,.36.17.37.37l.02,3.43c0,.2-.17.36-.36.37l-3.51.02h0Z" fill="none" stroke="#000" stroke-linecap="round" stroke-linejoin="round"/><path d="M31.49,25.95c-.2,0-.36-.17-.37-.37h0v-3.44h0c0-.2.17-.36.36-.37l3.51-.02c.2,0,.36.17.37.37l.02,3.43c0,.2-.17.36-.36.37l-3.51.02h0Z" fill="none" stroke="#000" stroke-linecap="round" stroke-linejoin="round"/><path d="M25.3,33.12c-.2,0-.36-.17-.37-.37h0v-3.44h0c0-.2.17-.36.36-.37l3.51-.02c.2,0,.36.17.37.37l.02,3.43c0,.2-.17.36-.36.37l-3.51.02h0Z" fill="none" stroke="#000" stroke-linecap="round" stroke-linejoin="round"/><path d="M31.49,33.12c-.2,0-.36-.17-.37-.37h0v-3.44h0c0-.2.17-.36.36-.37l3.51-.02c.2,0,.36.17.37.37l.02,3.43c0,.2-.17.36-.36.37l-3.51.02h0Z" fill="none" stroke="#000" stroke-linecap="round" stroke-linejoin="round"/><path d="M25.3,40.29c-.2,0-.36-.17-.37-.37h0v-3.44h0c0-.2.17-.36.36-.37l3.51-.02c.2,0,.36.17.37.37l.02,3.43c0,.2-.17.36-.36.37l-3.51.02h0Z" fill="none" stroke="#000" stroke-linecap="round" stroke-linejoin="round"/><path d="M31.49,40.29c-.2,0-.36-.17-.37-.37h0v-3.44h0c0-.2.17-.36.36-.37l3.51-.02c.2,0,.36.17.37.37l.02,3.43c0,.2-.17.36-.36.37l-3.51.02h0Z" fill="none" stroke="#000" stroke-linecap="round" stroke-linejoin="round"/></g></g></g></g></svg>