<?xml version="1.0" encoding="UTF-8"?><svg xmlns="http://www.w3.org/2000/svg" width="27.8" height="48" viewBox="0 0 27.8 48"><g  transform="translate(0.0000,0.0000) scale(1.000000)"><g transform="translate(-10.1000,0.0000)"><g transform="translate(10.1000,0.0000) scale(1.000000)"><g transform="translate(-12.0049,-1.9090) scale(1.081794)" stroke-width="0.924390"><path d="M15.09,42.83c-.38,0-.69-.31-.69-.69h-.01s1.35-5.97,1.35-5.97h0c0-.38.31-.69.69-.69l15.24.1c.38,0,.69.31.69.69l1.07,5.81c0,.38-.31.69-.69.69l-17.64.06Z" fill="none" stroke="#000" stroke-linecap="round" stroke-linejoin="round"/><path d="M17.11,32.5c-2.7-.06-2.5,1.74-2.49,2.35v.66s18.85-.06,18.85-.06v-.65s0-.02,0-.02c0-.62.2-2.4-2.51-2.33l-13.85.05h0Z" fill="none" stroke="#000" stroke-linecap="round" stroke-linejoin="round"/><path d="M25.43,32.47l-.09-26c0-.77-.63-1.4-1.41-1.4s-1.4.63-1.4,1.41l.09,26h2.8Z" fill="none" stroke="#000" stroke-linecap="round" stroke-linejoin="round"/><line x1="24.05" y1="39.37" x2="24.07" y2="42.75" fill="none" stroke="#000" stroke-linecap="round" stroke-linejoin="round"/><line x1="28.46" y1="39.41" x2="29.08" y2="42.73" fill="none" stroke="#000" stroke-linecap="round" stroke-linejoin="round"/><line x1="19.55" y1="39.44" x2="18.96" y2="42.77" fill="none" stroke="#000" stroke-linecap="round" stroke-linejoin="round"/></g></g></g></g></svg>