<?xml version="1.0" encoding="UTF-8"?><svg id="Layer_2" xmlns="http://www.w3.org/2000/svg" viewBox="0 0 48 48"><g transform="translate(-1.5577,-1.7730) scale(1.076115)" stroke-width="0.929268"><path d="M32.96,26.62c-.43,4.56-4.25,8.12-8.9,8.12s-8.59-3.69-8.91-8.36c0-.02,0-.03,0-.05l.04-13.23c.43-4.56,4.25-8.12,8.9-8.12s8.59,3.69,8.91,8.36l-.04,13.28Z" fill="none" stroke="#000" stroke-linecap="round" stroke-linejoin="round"/><path d="M32.97,26.62c-.43,4.56-4.24,8.12-8.89,8.12s-8.58-3.69-8.9-8.36c0-.02,0-.03,0-.05h-.02" fill="none" stroke="#000" stroke-linecap="round" stroke-linejoin="round"/><path d="M15.16,15.9c-2.25,2.23-3.66,5.34-3.66,8.77,0,0,0,0,0,0l-.03,17.04h.03c0,.71.78,1.28,1.72,1.28h21.13c.96,0,1.72-.58,1.72-1.28v-17.04s0,0,0,0c0-3.1-1.15-5.92-3.03-8.08" fill="none" stroke="#000" stroke-linecap="round" stroke-linejoin="round"/><path d="M24.1,27.57c-2.93,0-5.52,1.42-7.15,3.6,1.63,2.17,4.21,3.58,7.12,3.58s5.52-1.42,7.15-3.6c-1.63-2.17-4.21-3.58-7.12-3.58Z" fill="none" stroke="#000" stroke-linecap="round" stroke-linejoin="round"/></g></svg>