<?xml version="1.0" encoding="UTF-8"?><svg id="Layer_2" xmlns="http://www.w3.org/2000/svg" viewBox="0 0 48 48"><g transform="translate(-2.9589,-3.4644) scale(1.123288)" stroke-width="0.890244"><path d="M23.58,42.62c6.35.15,5.87-3.05,5.87-4.5v-.04h0v-21.57H8.22v21.57h0v.05c0,1.45-.48,4.64,5.87,4.5h9.49Z" fill="none" stroke="#000" stroke-linecap="round" stroke-linejoin="round"/><path d="M37.21,28.66c.11-4.64-2.97-4.3-4.02-4.3h-1.14v10.4h1.11s.03,0,.03,0c1.06,0,4.13.35,4.02-4.3v-1.81Z" fill="none" stroke="#000" stroke-linecap="round" stroke-linejoin="round"/><path d="M39.79,27.16c.18-6.66-5.01-6.16-6.8-6.16h-.05s0,0,0,0h-3.46s0,17.13,0,17.13h3.46s0,0,0,0h.05c1.79,0,6.98.5,6.8-6.16v-4.82Z" fill="none" stroke="#000" stroke-linecap="round" stroke-linejoin="round"/><path d="M17.31,14.32c-1.12,0-2.03-.9-2.03-2.03s.9-2.03,2.03-2.03c-1.12,0-2.03-.9-2.03-2.03s.9-2.03,2.03-2.03h-.02" fill="none" stroke="#000" stroke-linecap="round" stroke-linejoin="round"/><path d="M22.38,14.32c-1.12,0-2.03-.9-2.03-2.03s.9-2.03,2.03-2.03c-1.12,0-2.03-.9-2.03-2.03s.9-2.03,2.03-2.03h-.02" fill="none" stroke="#000" stroke-linecap="round" stroke-linejoin="round"/></g></svg>