<?xml version="1.0" encoding="UTF-8"?><svg id="Layer_2" xmlns="http://www.w3.org/2000/svg" viewBox="0 0 48 48"><g transform="translate(-2.5946,-2.4838) scale(1.108108)" stroke-width="0.902439"><path d="M11.02,37.01c7.18,7.18,18.83,7.18,26.01,0,7.18-7.18,7.18-18.83,0-26.01h0c-7.18-7.18-18.83-7.18-26.01,0s-7.18,18.83,0,26.01Z" fill="none" stroke="#000" stroke-linecap="round" stroke-linejoin="round"/><path d="M11.02,37.01c7.18,7.18,18.83,7.18,26.01,0,7.18-7.18,7.18-18.83,0-26.01h0c-7.18-7.18-18.83-7.18-26.01,0s-7.18,18.83,0,26.01Z" fill="none" stroke="#000" stroke-linecap="round" stroke-linejoin="round"/><path d="M11.02,37.01c7.18,7.18,18.83,7.18,26.01,0,7.18-7.18,7.18-18.83,0-26.01h0c-7.18-7.18-18.83-7.18-26.01,0s-7.18,18.83,0,26.01Z" fill="none" stroke="#000" stroke-linecap="round" stroke-linejoin="round"/><path d="M14.16,33.87c5.45,5.45,14.28,5.45,19.73,0,5.45-5.45,5.45-14.28,0-19.73h0c-5.45-5.45-14.28-5.45-19.73,0s-5.45,14.28,0,19.73Z" fill="none" stroke="#000" stroke-linecap="round" stroke-linejoin="round"/><path d="M11.02,37.01c7.18,7.18,18.83,7.18,26.01,0,7.18-7.18,7.18-18.83,0-26.01h0c-7.18-7.18-18.83-7.18-26.01,0s-7.18,18.83,0,26.01Z" fill="none" stroke="#000" stroke-linecap="round" stroke-linejoin="round"/><path d="M11.02,37.01c7.18,7.18,18.83,7.18,26.01,0,7.18-7.18,7.18-18.83,0-26.01h0c-7.18-7.18-18.83-7.18-26.01,0s-7.18,18.83,0,26.01Z" fill="none" stroke="#000" stroke-linecap="round" stroke-linejoin="round"/><path d="M11.02,37.01c7.18,7.18,18.83,7.18,26.01,0,7.18-7.18,7.18-18.83,0-26.01h0c-7.18-7.18-18.83-7.18-26.01,0s-7.18,18.83,0,26.01Z" fill="none" stroke="#000" stroke-linecap="round" stroke-linejoin="round"/><path d="M14.16,33.87c5.45,5.45,14.28,5.45,19.73,0,5.45-5.45,5.45-14.28,0-19.73h0c-5.45-5.45-14.28-5.45-19.73,0s-5.45,14.28,0,19.73Z" fill="none" stroke="#000" stroke-linecap="round" stroke-linejoin="round"/><path d="M11.02,37.01c7.18,7.18,18.83,7.18,26.01,0,7.18-7.18,7.18-18.83,0-26.01h0c-7.18-7.18-18.83-7.18-26.01,0s-7.18,18.83,0,26.01Z" fill="none" stroke="#000" stroke-linecap="round" stroke-linejoin="round"/><path d="M11.02,37.01c7.18,7.18,18.83,7.18,26.01,0,7.18-7.18,7.18-18.83,0-26.01h0c-7.18-7.18-18.83-7.18-26.01,0s-7.18,18.83,0,26.01Z" fill="none" stroke="#000" stroke-linecap="round" stroke-linejoin="round"/><path d="M11.02,37.01c7.18,7.18,18.83,7.18,26.01,0,7.18-7.18,7.18-18.83,0-26.01h0c-7.18-7.18-18.83-7.18-26.01,0s-7.18,18.83,0,26.01Z" fill="none" stroke="#000" stroke-linecap="round" stroke-linejoin="round"/><line x1="24.02" y1="37.96" x2="24.02" y2="42.32" fill="none" stroke="#000" stroke-linecap="round" stroke-linejoin="round"/><line x1="24.02" y1="5.69" x2="24.02" y2="10.05" fill="none" stroke="#000" stroke-linecap="round" stroke-linejoin="round"/><path d="M24.02,42.4c10.16,0,18.39-8.24,18.39-18.39,0-10.16-8.24-18.39-18.39-18.39h0C13.87,5.61,5.63,13.85,5.63,24.01s8.24,18.39,18.39,18.39Z" fill="none" stroke="#000" stroke-linecap="round" stroke-linejoin="round"/><path d="M24.02,42.4c10.16,0,18.39-8.24,18.39-18.39,0-10.16-8.24-18.39-18.39-18.39h0C13.87,5.61,5.63,13.85,5.63,24.01s8.24,18.39,18.39,18.39Z" fill="none" stroke="#000" stroke-linecap="round" stroke-linejoin="round"/><path d="M24.02,10.05h0c-7.7,0-13.95,6.25-13.95,13.95,0,7.7,6.25,13.95,13.95,13.95,7.7,0,13.95-6.25,13.95-13.95" fill="none" stroke="#000" stroke-linecap="round" stroke-linejoin="round"/><line x1="14.16" y1="33.87" x2="10.99" y2="37.04" fill="none" stroke="#000" stroke-linecap="round" stroke-linejoin="round"/><line x1="37.06" y1="10.97" x2="33.89" y2="14.14" fill="none" stroke="#000" stroke-linecap="round" stroke-linejoin="round"/><line x1="24.02" y1="37.96" x2="24.02" y2="42.32" fill="none" stroke="#000" stroke-linecap="round" stroke-linejoin="round"/><line x1="24.02" y1="5.69" x2="24.02" y2="10.05" fill="none" stroke="#000" stroke-linecap="round" stroke-linejoin="round"/><line x1="33.89" y1="33.87" x2="36.98" y2="36.96" fill="none" stroke="#000" stroke-linecap="round" stroke-linejoin="round"/><line x1="11.07" y1="11.05" x2="14.16" y2="14.14" fill="none" stroke="#000" stroke-linecap="round" stroke-linejoin="round"/><line x1="10.07" y1="24.01" x2="5.58" y2="24.01" fill="none" stroke="#000" stroke-linecap="round" stroke-linejoin="round"/><line x1="42.46" y1="24.01" x2="37.97" y2="24.01" fill="none" stroke="#000" stroke-linecap="round" stroke-linejoin="round"/><line x1="10.07" y1="24.01" x2="5.58" y2="24.01" fill="none" stroke="#000" stroke-linecap="round" stroke-linejoin="round"/><line x1="42.46" y1="24.01" x2="37.97" y2="24.01" fill="none" stroke="#000" stroke-linecap="round" stroke-linejoin="round"/></g></svg>