<?xml version="1.0" encoding="UTF-8"?><svg xmlns="http://www.w3.org/2000/svg" width="22.5" height="48" viewBox="0 0 22.5 48"><g  transform="translate(0.0000,0.0000) scale(1.000000)"><g transform="translate(-12.7000,0.0000)"><g transform="translate(12.7000,0.0000) scale(1.000000)"><g transform="translate(-14.6090,-1.9093) scale(1.081801)" stroke-width="0.924385"><path d="M28.79,30.73c-.52-.38-.78-.97-.77-1.59.03-1.77.03-3.91.03-4.06v-.49s-.02-14.14-.02-14.14c0-4.07-1.62-5.36-4.06-5.36-1.87,0-3.91,1.24-3.91,5.42l-.03,14.11c0,.16.01,2.66.04,4.42.01.62-.29,1.21-.82,1.56-1.81,1.22-2.44,3.22-2.44,5.49,0,3.83,3.36,6.92,7.49,6.72,3.55-.17,6.46-2.88,6.71-6.24.18-2.37-.4-4.52-2.23-5.84Z" fill="none" stroke="#000" stroke-linecap="round" stroke-linejoin="round"/><path d="M25.39,32.87c-.23-.21-.33-.38-.33-.69.02-.89.01-1.97.01-2.04v-.25s0-3.22,0-3.22c0,0,0,0,0,0v-.37c0-.18-.12-.32-.27-.32h-1.05s-.59,0-.59,0c-.15,0-.27.14-.27.32v.4s0,.21,0,.22v2.98c0,.08,0,1.34.02,2.22,0,.31-.16.58-.39.79-.31.28-1.9.9-1.97,2.77s1.6,3.49,3.57,3.38c1.69-.09,3.22-1.45,3.2-3.14-.02-2.19-1.51-2.65-1.93-3.04Z" fill="none" stroke="#000" stroke-linecap="round" stroke-linejoin="round"/></g></g></g></g></svg>