<?xml version="1.0" encoding="UTF-8"?><svg id="Layer_2" xmlns="http://www.w3.org/2000/svg" viewBox="0 0 48 48"><g transform="translate(-1.9521,-2.4973) scale(1.090426)" stroke-width="0.917073"><path d="M22.43,23.42v-8.6c0-.75.61-1.35,1.35-1.35s1.35.61,1.35,1.35v8.6" fill="none" stroke="#000" stroke-linecap="round" stroke-linejoin="round"/><path d="M25.16,25.82v-8.64c0-.75.61-1.35,1.35-1.35s1.35.61,1.35,1.35v10.04" fill="none" stroke="#000" stroke-linecap="round" stroke-linejoin="round"/><path d="M19.73,25.83v-8.6c0-.75.61-1.35,1.35-1.35s1.35.61,1.35,1.35v8.86" fill="none" stroke="#000" stroke-linecap="round" stroke-linejoin="round"/><path d="M18.27,43.02s-.07-.03-.07-.07v-.15s0-5.18,0-5.18c0-.04.03-.07.07-.07h0l10.66-.02h.5s.07.03.07.07v5.33s-.02.07-.06.07l-11.17.02Z" fill="none" stroke="#000" stroke-linecap="round" stroke-linejoin="round"/><path d="M27.87,26.66v-4.08c0-.75.66-1.23,1.4-1.23s1.35.61,1.35,1.35v3.84c.01,2.19-.3,4.44-1.61,5.74-.63.62-1.69,1.67-1.69,1.67v3.57" fill="none" stroke="#000" stroke-linecap="round" stroke-linejoin="round"/><path d="M20.28,37.52v-3.57s-1.06-1.05-1.69-1.67c-1.32-1.3-1.63-3.55-1.63-5.74v-3.84c.01-.75.62-1.35,1.37-1.35s1.39.48,1.39,1.23v4.08" fill="none" stroke="#000" stroke-linecap="round" stroke-linejoin="round"/><path d="M13,8.88s.07-.03.1,0l3.77,3.78s.03.07,0,.1l-.36.35-7.55,7.52h0s-.07.03-.1,0l-3.66-3.67-.11-.11s-.03-.07,0-.1l7.91-7.88Z" fill="none" stroke="#000" stroke-linecap="round" stroke-linejoin="round"/><path d="M15.38,14.25l2.53,2.53s.93.1,1.82.1" fill="none" stroke="#000" stroke-linecap="round" stroke-linejoin="round"/><path d="M18.97,32.65l-3.16-3.31c-1.55-1.55-2.92-3.36-2.91-5.2,0-.89.01-2.38.01-2.38l-2.53-2.53" fill="none" stroke="#000" stroke-linecap="round" stroke-linejoin="round"/><path d="M42.56,16.76s.03.07,0,.1l-.11.11-3.66,3.67s-.07.03-.1,0h0l-7.55-7.52-.36-.35s-.03-.07,0-.1l3.77-3.78s.07-.03.1,0l7.91,7.88Z" fill="none" stroke="#000" stroke-linecap="round" stroke-linejoin="round"/><path d="M27.92,16.87c.89,0,1.82-.1,1.82-.1l2.53-2.53" fill="none" stroke="#000" stroke-linecap="round" stroke-linejoin="round"/><path d="M37.26,19.23l-2.53,2.53s0,1.49.01,2.38c.01,1.85-1.36,3.66-2.91,5.2l-3.16,3.31" fill="none" stroke="#000" stroke-linecap="round" stroke-linejoin="round"/></g></svg>