<?xml version="1.0" encoding="UTF-8"?><svg id="Layer_2" xmlns="http://www.w3.org/2000/svg" viewBox="0 0 64 64"><g transform="translate(-3.9028,2.9678) scale(1.493864)" stroke-width="0.892540"><path d="M23.59,30.34c.01.23.21.4.44.39.23-.01.4-.21.39-.44h0c-.01-.23-.21-.41-.44-.4-.23.01-.4.21-.39.44h0Z" fill="none" stroke="#000" stroke-linecap="round" stroke-linejoin="round"/><path d="M6.63,33.07c-.84,0-1.53-.68-1.53-1.53h-.03l.03-20.39h0c0-.84.68-1.53,1.53-1.53h34.78c.84,0,1.53.68,1.53,1.53v20.39c0,.84-.68,1.53-1.53,1.53H6.63Z" fill="none" stroke="#000" stroke-linecap="round" stroke-linejoin="round"/><path d="M10.12,27.78c-.84,0-1.53-.68-1.53-1.53h-.03l.03-12.03h0c0-.84.68-1.53,1.53-1.53h27.78c.84,0,1.53.68,1.53,1.53v12.03c0,.84-.68,1.53-1.53,1.53,0,0-27.78,0-27.78,0Z" fill="none" stroke="#000" stroke-linecap="round" stroke-linejoin="round"/><polygon points="16.84 38.38 31 38.36 27.97 33.07 19.66 33.07 16.84 38.38" fill="none" stroke="#000" stroke-linecap="round" stroke-linejoin="round"/></g></svg>