<?xml version="1.0" encoding="UTF-8"?><svg id="Layer_2" xmlns="http://www.w3.org/2000/svg" viewBox="0 0 64 64"><g transform="translate(-4.1128,-3.7127) scale(1.505752)" stroke-width="0.885493"><rect x="17.71" y="30.95" width="12.6" height="5.88" rx=".85" ry=".85" transform="translate(48.01 67.79) rotate(-180)" fill="none" stroke="#000" stroke-linecap="round" stroke-linejoin="round"/><path d="M11.65,15.11s-.07,0-.14,0c-1.78.03-3.18,1.56-3.13,3.33v22.89c0,.56.47,1.02,1.03,1.02l29.2.17c.56,0,1.02-.46,1.02-1.02l-.09-23.06c.05-1.78-1.36-3.31-3.13-3.33-.07,0-.14,0-.14,0H11.65Z" fill="none" stroke="#000" stroke-linecap="round" stroke-linejoin="round"/><path d="M29.26,20.41c-.29-1.56-1.25-2.8-2.8-2.8h-4.91c-1.55,0-2.56,1.36-2.8,2.8" fill="none" stroke="#000" stroke-linecap="round" stroke-linejoin="round"/><line x1="8.77" y1="20.36" x2="39.24" y2="20.36" fill="none" stroke="#000" stroke-linecap="round" stroke-linejoin="round"/><line x1="8.77" y1="23.22" x2="39.24" y2="23.22" fill="none" stroke="#000" stroke-linecap="round" stroke-linejoin="round"/><path d="M5.26,8.76l-.08,15.08h0c0,.95.77,1.72,1.72,1.72h1.47s0-14.49,0-14.49c-.04-1.38,1.05-2.57,2.44-2.59.05,0,.11,0,.11,0h26.14s.06,0,.11,0c1.38.02,2.47,1.21,2.44,2.59v14.49s1.46,0,1.46,0h0c.95,0,1.72-.77,1.72-1.72h0v-15.08c.05-1.78-1.35-3.31-3.13-3.33-.07,0-.14,0-.14,0H8.54s-.07,0-.14,0c-1.78.03-3.18,1.56-3.13,3.33Z" fill="none" stroke="#000" stroke-linecap="round" stroke-linejoin="round"/></g></svg>