<?xml version="1.0" encoding="UTF-8"?><svg id="Layer_2" xmlns="http://www.w3.org/2000/svg" viewBox="0 0 64 64"><g transform="translate(-5.3713,-3.8038) scale(1.493864)" stroke-width="0.892540"><circle cx="14.04" cy="6.91" r="1.88" fill="none" stroke="#000" stroke-linecap="round" stroke-linejoin="round"/><path d="M14.04,8.79c-.47,0-.89-.18-1.22-.46,0,.04,0,.08,0,.12v33.04c0,.88.56,1.43,1.27,1.43s1.3-.55,1.3-1.43V8.46c0-.07-.01-.14-.02-.21-.34.34-.81.54-1.32.54Z" fill="none" stroke="#000" stroke-linecap="round" stroke-linejoin="round"/><path d="M37.9,22.69l-6.99-5.68c-.13-.13-.14-.33-.03-.47l7.02-5.73H15.83c-.25,0-.46.2-.46.46v10.96c0,.25.2.46.46.46h22.08Z" fill="none" stroke="#000" stroke-linecap="round" stroke-linejoin="round"/></g></svg>