<?xml version="1.0" encoding="UTF-8"?><svg xmlns="http://www.w3.org/2000/svg" width="48" height="48" viewBox="0 0 48 48"><g  transform="translate(0.0000,0.0000) scale(1.000000)"><g transform="translate(0.0000,0.0000)"><g transform="translate(0.0000,0.0000) scale(1.000000)"><g transform="translate(-1.9453,2.4323) scale(1.067708)" stroke-width="0.936585"><defs><style>.cls-1{fill:none;stroke:#000;stroke-linecap:round;stroke-linejoin:round;}</style></defs><path class="cls-1" d="M13.86,18.91c0,1.08.88,1.96,1.96,1.96s1.96-.88,1.96-1.96-.88-1.96-1.96-1.96-1.96.88-1.96,1.96Z"/><path class="cls-1" d="M16.12,32.36c-.11-3.21-1.28-6.05-3.02-7.91-1.42-1.42-2.29-3.38-2.29-5.55,0-4.37,3.54-7.9,7.9-7.9h3.84c-1.2,1.46-2.04,3.51-2.04,5.64,0,1.57.37,2.97,1.07,4.22l.11.3c.4,1.02.55,1.93.55,3.12,0,4.08-2.61,7.46-6.13,8.09h0Z"/><path class="cls-1" d="M11.7,15.04c-2.54,0-4.59-2.05-4.59-4.59,0-.63.12-1.22.35-1.76.83,2.01,3.03,3.45,5.62,3.45.82,0,1.61-.13,2.32-.41.32-.13.59-.26.91-.35-1.94.61-3.5,1.81-4.47,3.56l-.13.1Z"/><path class="cls-1" d="M5.9,17.06c.42-.9,1.23-2.04,2.13-2.73.21-.16.43-.3.66-.43.81.73,1.88,1.17,3.06,1.17l.13-.1s.01-.02.02-.03c-.69,1.17-1.08,2.54-1.08,3.99,0,.8.12,1.59.34,2.31-.09.05-.19.11-.28.17-1.77,1.07-5.77,1.75-5.77,1.75,0,0,0-4.23.79-6.12h0Z"/><path class="cls-1" d="M27.2,35.95c0,.55.43.99.99.99s.99-.43.99-.99-.43-.99-.99-.99-.99.43-.99.99Z"/><path class="cls-1" d="M19.37,35.95c0,.55.43.99.99.99s.99-.43.99-.99-.43-.99-.99-.99-.99.43-.99.99Z"/><path class="cls-1" d="M32.71,16.95c-1.08,0-1.96.88-1.96,1.96s.88,1.96,1.96,1.96,1.96-.88,1.96-1.96-.88-1.96-1.96-1.96Z"/><path class="cls-1" d="M32.41,32.36c-3.52-.63-6.13-4.01-6.13-8.09,0-1.19.15-2.1.55-3.12l.11-.3c.7-1.25,1.07-2.65,1.07-4.22,0-2.13-.84-4.18-2.04-5.64h3.84c4.37,0,7.9,3.54,7.9,7.9,0,2.17-.87,4.12-2.29,5.55-1.74,1.86-2.9,4.7-3.02,7.91h0Z"/><path class="cls-1" d="M36.7,14.94c-.97-1.75-2.53-2.95-4.47-3.56.32.09.59.22.91.35.71.28,1.5.41,2.32.41,2.58,0,4.79-1.44,5.62-3.45.23.54.35,1.13.35,1.76,0,2.54-2.05,4.59-4.59,4.59l-.13-.1Z"/><path class="cls-1" d="M32.42,32.87c.02-3.95,1.49-7.02,3.44-8.86l-.69.71c1.56-1.44,2.54-3.51,2.54-5.8,0-4.37-3.54-7.9-7.9-7.9h-5.8s-5.28,0-5.28,0c-4.37,0-7.9,3.54-7.9,7.9,0,2.29.98,4.36,2.54,5.8l-.69-.71c1.96,1.84,3.46,5.2,3.48,9.15"/><path class="cls-1" d="M42.63,17.05c.8,1.9.79,6.12.79,6.12,0,0-4-.68-5.77-1.75-.09-.05-.19-.11-.28-.17.22-.73.34-1.51.34-2.31,0-1.45-.39-2.81-1.08-3.99,0,0,.02.03.02.03l.13.1c1.17,0,2.25-.45,3.06-1.17.23.13.45.26.66.43.9.7,1.71,1.84,2.13,2.73h0Z"/><path class="cls-1" d="M24.29,39.28l-6.28.03c-1.03,0-1.88-.84-1.88-1.88h0v-4.38c.01-.36.3-.65.65-.65,0,0,0,0,.01,0l7.26-.04,7.72.04s0,0,.01,0c.36,0,.64.29.64.65l.02,4.38h0c0,1.04-.85,1.88-1.88,1.88l-6.28-.03Z"/></g></g></g></g></svg>