<?xml version="1.0" encoding="UTF-8"?><svg id="Layer_2" xmlns="http://www.w3.org/2000/svg" viewBox="0 0 64 64"><g transform="translate(-4.3052,-4.3576) scale(1.513782)" stroke-width="0.880796"><line x1="25.89" y1="10.82" x2="32.87" y2="10.82" fill="none" stroke="#000" stroke-linecap="round" stroke-linejoin="round"/><line x1="25.77" y1="36.27" x2="32.87" y2="36.27" fill="none" stroke="#000" stroke-linecap="round" stroke-linejoin="round"/><path d="M33.02,38.06l.07-26.72c0-.35.02-.84-.2-1.06l-3.17-4.88-.06-.06c-.09-.03-.11-.03-.18-.03-.09.01-.22.07-.22.07l-.04.04-3.38,5.01c-.1.24-.05.13-.08.44l-.27,27.17.27.04h7.1s.15,0,.15,0h0Z" fill="none" stroke="#000" stroke-linecap="round" stroke-linejoin="round"/><path d="M25.49,38.03c.03.93.4,2.88,1.11,3.58,1.48,1.48,3.88,1.48,5.36,0,.7-.7,1.02-2.63,1.06-3.54" fill="none" stroke="#000" stroke-linecap="round" stroke-linejoin="round"/><line x1="30.63" y1="10.82" x2="30.63" y2="36.17" fill="none" stroke="#000" stroke-linecap="round" stroke-linejoin="round"/><line x1="28.08" y1="10.82" x2="28.08" y2="36.17" fill="none" stroke="#000" stroke-linecap="round" stroke-linejoin="round"/><line x1="30.8" y1="7.36" x2="27.96" y2="7.36" fill="none" stroke="#000" stroke-linecap="round" stroke-linejoin="round"/><line x1="21.99" y1="8.76" x2="19.15" y2="8.76" fill="none" stroke="#000" stroke-linecap="round" stroke-linejoin="round"/><line x1="21.99" y1="11.31" x2="19.15" y2="11.31" fill="none" stroke="#000" stroke-linecap="round" stroke-linejoin="round"/><line x1="21.99" y1="18.95" x2="19.15" y2="18.95" fill="none" stroke="#000" stroke-linecap="round" stroke-linejoin="round"/><line x1="21.99" y1="24.04" x2="19.15" y2="24.04" fill="none" stroke="#000" stroke-linecap="round" stroke-linejoin="round"/><line x1="21.99" y1="31.68" x2="19.15" y2="31.68" fill="none" stroke="#000" stroke-linecap="round" stroke-linejoin="round"/><line x1="21.99" y1="34.23" x2="19.15" y2="34.23" fill="none" stroke="#000" stroke-linecap="round" stroke-linejoin="round"/><line x1="21.99" y1="39.32" x2="19.15" y2="39.32" fill="none" stroke="#000" stroke-linecap="round" stroke-linejoin="round"/><line x1="21.99" y1="36.78" x2="19.15" y2="36.78" fill="none" stroke="#000" stroke-linecap="round" stroke-linejoin="round"/><line x1="21.99" y1="26.59" x2="19.15" y2="26.59" fill="none" stroke="#000" stroke-linecap="round" stroke-linejoin="round"/><line x1="21.99" y1="16.4" x2="19.15" y2="16.4" fill="none" stroke="#000" stroke-linecap="round" stroke-linejoin="round"/><line x1="21.99" y1="29.14" x2="19.15" y2="29.14" fill="none" stroke="#000" stroke-linecap="round" stroke-linejoin="round"/><line x1="21.99" y1="13.86" x2="19.15" y2="13.86" fill="none" stroke="#000" stroke-linecap="round" stroke-linejoin="round"/><line x1="21.99" y1="21.5" x2="19.15" y2="21.5" fill="none" stroke="#000" stroke-linecap="round" stroke-linejoin="round"/><path d="M22.26,42.22c0,.09-.08.17-.17.17l-7.05-.02c-.09,0-.17-.08-.17-.17v-20.47l.05-15.88h0c0-.09.08-.17.17-.17h7.06c.09,0,.17.08.17.17l-.05,36.36h0Z" fill="none" stroke="#000" stroke-linecap="round" stroke-linejoin="round"/></g></svg>