<?xml version="1.0" encoding="UTF-8"?><svg xmlns="http://www.w3.org/2000/svg" width="38.5" height="48" viewBox="0 0 38.5 48"><g  transform="translate(0.0000,0.0000) scale(1.000000)"><g transform="translate(-4.7000,0.0000)"><g transform="translate(4.7000,0.0000) scale(1.000000)"><g transform="translate(-6.8008,-2.0464) scale(1.087533)" stroke-width="0.919512"><path d="M37.25,31.53c-2.19-3.39-6.71-4.36-10.11-2.16l-.27-.89-2.67-8.68-.21-.68-2.74-8.85-1.59-5.14-3.38,5.58h0l-.04.07c-.41.71-.49,1.65-.23,2.62.03.08.05.18.07.26l5.03,14.81,2.27,6.69v.04l.61,1.93.05.17c.2.74.51,1.47.94,2.14,2.19,3.39,6.71,4.36,10.1,2.17h0c3.39-2.19,4.36-6.72,2.17-10.1v.02ZM33.19,38.7c-1.77,1.14-4.14.63-5.29-1.14-1.14-1.77-.63-4.14,1.14-5.29,1.77-1.14,4.14-.63,5.29,1.14,1.14,1.77.63,4.14-1.14,5.29Z" fill="none" stroke="#000" stroke-linecap="round" stroke-linejoin="round"/><path d="M23.38,35.21v-.04l-2.28-6.69.02.83c-3.39-2.19-8.21-1.17-10.4,2.22-2.18,3.38-1.21,7.9,2.17,10.09h0c3.39,2.19,7.9,1.22,10.1-2.16.43-.68.74-1.4.94-2.14l.05-.17-.6-1.93h0ZM20.07,37.56c-1.15,1.77-3.51,2.28-5.29,1.14-1.13-.74-1.75-1.96-1.75-3.22,0-.71.2-1.42.61-2.07,1.15-1.77,3.51-2.28,5.29-1.14,1.77,1.15,2.28,3.51,1.14,5.29ZM31.74,10.78v-.02s-.03-.03-.04-.05l-3.38-5.58-1.59,5.14-2.74,8.85.21.68,2.67,8.68,5.03-14.81c.02-.08.04-.18.07-.26.25-.97.18-1.91-.23-2.62h0Z" fill="none" stroke="#000" stroke-linecap="round" stroke-linejoin="round"/><path d="M31.74,10.79v-.02s-.03-.04-.04-.05l.04.08h0Z" fill="none" stroke="#000" stroke-linecap="round" stroke-linejoin="round"/></g></g></g></g></svg>