<?xml version="1.0" encoding="UTF-8"?><svg id="Layer_2" xmlns="http://www.w3.org/2000/svg" viewBox="0 0 64 64"><g transform="translate(-4.7489,-3.6262) scale(1.530104)" stroke-width="0.871401"><path d="M6.24,6.39c-.4,0-.73.33-.73.73v33.91c0,.4.33.73.73.73h35.56c.4,0,.73-.33.73-.73V7.13c0-.4-.33-.73-.73-.73h0s-35.56-.01-35.56,0Z" fill="none" stroke="#000" stroke-linecap="round" stroke-linejoin="round"/><path d="M23.76,32.88l8.27-9.23c.76-.89,1.2-2.05,1.2-3.31,0-2.8-2.27-5.08-5.08-5.08-1.71,0-3.22.85-4.14,2.15-.92-1.3-2.43-2.15-4.14-2.15-2.8,0-5.08,2.27-5.08,5.08,0,1.21.41,2.34,1.12,3.21l7.84,9.32" fill="none" stroke="#000" stroke-linecap="round" stroke-linejoin="round"/></g></svg>