<?xml version="1.0" encoding="UTF-8"?>
<svg id="Layer_2" xmlns="http://www.w3.org/2000/svg" version="1.1" viewBox="0 0 64 64"><g transform="translate(-7.5724,-4.8507) scale(1.650199)" stroke-width="0.807983">
  <!-- Generator: Adobe Illustrator 30.3.0, SVG Export Plug-In . SVG Version: 2.1.3 Build 182)  -->
  <defs>
    <style>
      .st0 {
        fill: none;
        stroke: #000;
        stroke-linecap: round;
        stroke-linejoin: round;
      }
    </style>
  </defs>
  <line class="st0" x1="8.84" y1="18.23" x2="38.78" y2="18.23"/>
  <path class="st0" d="M20.05,12.36v-.43h0v-4.84c0-1.06-.86-1.92-1.92-1.92s-1.92.86-1.92,1.92v5.3l3.84-.03h0Z"/>
  <path class="st0" d="M31.74,12.36v-.43h0v-4.84c0-1.06-.86-1.92-1.92-1.92s-1.92.86-1.92,1.92v5.3l3.84-.03h0Z"/>
  <path class="st0" d="M39.14,38.74s.02-.05.02-.07v-1.32h-.02V10.58c0-.45-.36-.8-.8-.8h-6.61v2.64l-3.85.03v-2.67h-7.84v2.64l-3.85.03v-2.67h-6.61c-.45,0-.8.36-.8.8v27.84c0,.24-.01.33.04.37.07.38.41.67.81.67h28.71c.4,0,.72-.3.78-.68h0v-.05h.01Z"/>
  <rect class="st0" x="33.08" y="20.65" width="3.73" height="3.95" rx=".85" ry=".85" transform="translate(12.32 57.56) rotate(-90)"/>
</g></svg>