<?xml version="1.0" encoding="UTF-8"?><svg xmlns="http://www.w3.org/2000/svg" width="44.2" height="48" viewBox="0 0 44.2 48"><g  transform="translate(0.0000,0.0000) scale(1.000000)"><g transform="translate(-1.9000,0.0000)"><g transform="translate(1.9000,0.0000) scale(1.000000)"><g transform="translate(-3.7268,-1.8806) scale(1.076115)" stroke-width="0.929268"><defs><style>.cls-1{fill:none;stroke:#000;stroke-linecap:round;stroke-linejoin:round;}</style></defs><path class="cls-1" d="M6.78,41.9v-5.08c0-.37.3-.68.68-.68h33.08c.37,0,.68.3.68.68v5.49-.22.38c0,.31-.25.57-.56.57,0,0,0,0,0,0H7.46c-.37,0-.68-.3-.68-.68v-.68.22Z"/><path class="cls-1" d="M12.04,36.14v-19.11c0-6.61,5.35-11.96,11.96-11.96s11.96,5.35,11.96,11.96v19.11H12.04Z"/></g></g></g></g></svg>