<?xml version="1.0" encoding="UTF-8"?><svg id="Layer_2" xmlns="http://www.w3.org/2000/svg" viewBox="0 0 64 64"><g transform="translate(-4.1364,-4.3636) scale(1.515152)" stroke-width="0.880000"><path d="M23.84,11.63c-.41,0-.8-.04-1.17-.12v21.31s0,.02,0,.02c0,.74.52,1.33,1.17,1.33s1.16-.59,1.17-1.32h0s0-21.37,0-21.37c-.37.1-.77.14-1.17.14Z" fill="none" stroke="#000" stroke-linecap="round" stroke-linejoin="round"/><path d="M28.75,30.46h-3.74s0,2.4,0,2.4h0c0,.73-.53,1.32-1.17,1.32s-1.17-.6-1.17-1.33c0,0,0-.02,0-.02v-2.36s-2.69,0-2.69,0h-1.05c-.18,0-.33.15-.33.33v2.92s0,.21,0,.21v.58c0,2.14.73,4.1,1.96,5.65,1.32,1.79,3.26,2.51,3.26,2.51,0,0,2-.72,3.32-2.51,1.22-1.56,1.95-3.52,1.95-5.66v-.08s0-.3,0-.3v-3.34c0-.18-.15-.33-.33-.33Z" fill="none" stroke="#000" stroke-linecap="round" stroke-linejoin="round"/><rect x="20.68" y="5.32" width="6.31" height="2.39" fill="none" stroke="#000" stroke-linecap="round" stroke-linejoin="round"/><path d="M26.99,7.71c0,2.98-1.41,3.87-3.15,3.87s-3.15-.71-3.16-3.87h6.31Z" fill="none" stroke="#000" stroke-linecap="round" stroke-linejoin="round"/></g></svg>