<?xml version="1.0" encoding="UTF-8"?>
<svg id="Layer_2" xmlns="http://www.w3.org/2000/svg" version="1.1" viewBox="0 0 64 64"><g transform="translate(-4.2787,4.7160) scale(1.499118)" stroke-width="0.889412">
  <!-- Generator: Adobe Illustrator 30.3.0, SVG Export Plug-In . SVG Version: 2.1.3 Build 182)  -->
  <defs>
    <style>
      .st0 {
        fill: none;
        stroke: #000;
        stroke-linecap: round;
        stroke-linejoin: round;
      }
    </style>
  </defs>
  <path class="st0" d="M11.06,37.05h26.4c4.67,0,5.58-1.55,5.58-3.49h0v.14-1.99H5.31v1.99-.14h0c0,1.94.91,3.49,5.58,3.49h26.4"/>
  <path class="st0" d="M11.06,31.69h26.4c4.67,0,5.58-1.55,5.58-3.49h0v.14-1.99H5.31v1.99-.14h0c0,1.94.91,3.49,5.58,3.49h26.4"/>
  <path class="st0" d="M11.65,17.96v-6.71s25.04.05,25.04.05v6.71h0c0,4.59-3.72,8.31-8.31,8.31l-8.44-.05c-4.59,0-8.31-3.72-8.31-8.31"/>
</g></svg>