<?xml version="1.0" encoding="UTF-8"?><svg xmlns="http://www.w3.org/2000/svg" width="48" height="48" viewBox="0 0 48 48"><g  transform="translate(0.0000,0.0000) scale(1.000000)"><g transform="translate(0.0000,0.0000)"><g transform="translate(0.0000,0.0000) scale(1.000000)">
  <!-- Generator: Adobe Illustrator 30.3.0, SVG Export Plug-In . SVG Version: 2.1.3 Build 182)  -->
  <defs>
    <style>
      .st0, .st1 {
        fill: none;
        stroke: #000;
        stroke-linecap: round;
        stroke-linejoin: round;
      }

      .st1 {
        stroke-width: 1px;
      }
    </style>
  </defs>
  <g>
    <path class="st1" d="M9.75,44.45h28.63c5.07,0,6.05-1.68,6.05-3.79h0v.15-2.16H3.51v2.16-.15h0c0,2.1.99,3.79,6.05,3.79h28.63"/>
    <path class="st1" d="M9.75,38.63h28.63c5.07,0,6.05-1.68,6.05-3.79h0v.15-2.16H3.51v2.16-.15h0c0,2.1.99,3.79,6.05,3.79h28.63"/>
  </g>
  <path class="st0" d="M29.31,20.51l8.23.03v3.22h0c0,5.01-4.06,9.07-9.07,9.07h0s-8.46,0-8.46,0h.03c-5.11-.08-9.07-4.06-9.07-9.07h0v-3.22l18.34-.03h0Z"/>
</g></g></g></svg>