<?xml version="1.0" encoding="UTF-8"?>
<svg id="Layer_2" xmlns="http://www.w3.org/2000/svg" version="1.1" viewBox="0 0 64 64"><g transform="translate(-4.1702,3.8174) scale(1.507092)" stroke-width="0.884706">
  <!-- Generator: Adobe Illustrator 30.3.0, SVG Export Plug-In . SVG Version: 2.1.3 Build 182)  -->
  <defs>
    <style>
      .st0 {
        fill: none;
        stroke: #000;
        stroke-linecap: round;
        stroke-linejoin: round;
      }
    </style>
  </defs>
  <path class="st0" d="M28.51,37.49c4.41,0,7.98-3.57,7.98-7.98,0-2.09-.81-3.99-2.13-5.41.25-.91.4-1.87.4-2.86,0-5.95-4.82-10.77-10.77-10.77s-10.77,4.82-10.77,10.77c0,1.09.16,2.13.46,3.12-1.17,1.39-1.88,3.18-1.88,5.15,0,4.41,3.57,7.98,7.98,7.98h8.73Z"/>
  <polygon class="st0" points="41.88 22.42 41.88 22.43 41.93 22.5 41.88 22.42"/>
  <path class="st0" d="M41.88,22.43l-5.63-7.49c-.49-.64-1.26-1.06-2.13-1.06-.65,0-1.23.24-1.69.62,1.48,1.85,2.38,4.19,2.38,6.74,0,.99-.14,1.95-.4,2.86,1.19,1.29,1.96,2.96,2.1,4.82.58.29,1.24.46,1.93.46,2.39,0,4.32-1.93,4.32-4.32,0-.99-.33-1.9-.89-2.63h.01Z"/>
  <polygon class="st0" points="6.12 22.42 6.12 22.43 6.07 22.5 6.12 22.42"/>
  <path class="st0" d="M6.12,22.43l5.63-7.49c.49-.64,1.26-1.06,2.13-1.06.65,0,1.23.24,1.69.62-1.48,1.85-2.38,4.19-2.38,6.74,0,.99.21,2.21.46,3.12-1.19,1.29-1.73,2.74-1.86,4.6-.58.29-1.54.42-2.23.42-2.39,0-4.32-1.93-4.32-4.32,0-.99.33-1.9.89-2.63h0Z"/>
  <path class="st0" d="M17.5,20.57c0,.95.77,1.73,1.73,1.73s1.73-.77,1.73-1.73-.77-1.73-1.73-1.73-1.73.77-1.73,1.73Z"/>
  <path class="st0" d="M27.34,20.57c0,.95.77,1.73,1.73,1.73s1.73-.77,1.73-1.73-.77-1.73-1.73-1.73-1.73.77-1.73,1.73Z"/>
  <path class="st0" d="M26.53,27.73c.11-.14.18-.33.18-.52,0-.47-.38-.85-.85-.85h-3.5c-.47,0-.85.38-.85.85,0,.21.08.4.2.55h0l1.35,1.76h0c.26.3.64.49,1.06.49s.79-.19,1.05-.48h0l1.36-1.8h0Z"/>
  <path class="st0" d="M29.03,37.49c-2.9-.66-4.86-4.93-4.86-7.19,0,2.2-2.12,6.43-4.9,7.14"/>
</g></svg>