<?xml version="1.0" encoding="UTF-8"?><svg id="Layer_2" xmlns="http://www.w3.org/2000/svg" viewBox="0 0 48 48"><g transform="translate(-1.8092,-1.8668) scale(1.073305)" stroke-width="0.931702"><path d="M30.78,12.4c.16.59.25,1.21.25,1.85,0,3.87-3.14,7.01-7.01,7.01s-7.01-3.14-7.01-7.01c0-.64.09-1.26.24-1.84" fill="none" stroke="#000" stroke-linecap="round" stroke-linejoin="round"/><path d="M19.64,19.74c1.21.98,2.69,1.52,4.37,1.52s3.19-.6,4.39-1.55c0,0,.76.08,1.31.14l3.77,16.75H14.54l3.77-16.74c.4-.05,1.33-.11,1.33-.11Z" fill="none" stroke="#000" stroke-linecap="round" stroke-linejoin="round"/><path d="M25.23,36.59v4.43s0,.03,0,.04c0,1.14.93,2.07,2.07,2.07s2.06-.91,2.07-2.04h0v-4.49h-4.14Z" fill="none" stroke="#000" stroke-linecap="round" stroke-linejoin="round"/><path d="M18.66,36.59v4.43s0,.03,0,.04c0,1.14.93,2.07,2.07,2.07s2.06-.91,2.07-2.04h0v-4.49h-4.14Z" fill="none" stroke="#000" stroke-linecap="round" stroke-linejoin="round"/><path d="M17.45,19.96l-4.12,4.12s-.02.02-.03.03c-.81.81-.81,2.12,0,2.93.8.8,2.1.81,2.91.02h0s.61-.61.61-.61l1.48-6.58c-.33,0-.86.1-.86.1Z" fill="none" stroke="#000" stroke-linecap="round" stroke-linejoin="round"/><line x1="15.29" y1="33.53" x2="32.73" y2="33.53" fill="none" stroke="#000" stroke-linecap="round" stroke-linejoin="round"/><path d="M31.83,13.16c0-1.38-.35-2.76-1.05-3.95-1.44-2.48-3.93-4.11-6.77-4.12h0s0,0,0,0,0,0,0,0h0c-2.84,0-5.33,1.64-6.77,4.12-.7,1.2-1.04,2.57-1.05,3.95l-.04,7.11c1.06-.32,2.15-.46,3.51-.52l.06.05h0c-1.72-1.36-2.7-3.23-2.73-5.54-.01-.86.15-1.58.24-1.83v-.03c.67.24,1.46.33,2.29.33h0s0,0,.01,0c0,0,.01,0,.02,0,2.23,0,4.08-1.23,4.47-2.85.39,1.62,2.24,2.85,4.47,2.85,0,0,.01,0,.02,0,0,0,0,0,.01,0h0c.83,0,1.62-.09,2.29-.33v.03c.09.25.25.97.24,1.83-.04,2.31-1.01,4.18-2.73,5.54h0l.06-.05c1.36.06,2.45.2,3.51.52l-.04-7.11Z" fill="none" stroke="#000" stroke-linecap="round" stroke-linejoin="round"/><path d="M29.73,19.84l1.49,6.57.61.61h0c.81.79,2.11.78,2.91-.02.81-.81.81-2.12,0-2.93,0,0-.02-.02-.03-.03l-4.11-4.1c-.16-.03-.87-.12-.87-.12Z" fill="none" stroke="#000" stroke-linecap="round" stroke-linejoin="round"/><path d="M25.94,17.73c-.44.58-1.12.94-1.89.94-.82,0-1.55-.42-1.98-1.06" fill="none" stroke="#000" stroke-linecap="round" stroke-linejoin="round"/><path d="M19.18,13.94c.31-.41.8-.68,1.36-.68.59,0,1.11.3,1.41.75" fill="none" stroke="#000" stroke-linecap="round" stroke-linejoin="round"/><path d="M26.07,13.94c.31-.41.8-.68,1.36-.68.59,0,1.11.3,1.41.75" fill="none" stroke="#000" stroke-linecap="round" stroke-linejoin="round"/></g></svg>