<?xml version="1.0" encoding="UTF-8"?><svg id="Layer_2" xmlns="http://www.w3.org/2000/svg" viewBox="0 0 64 64"><g transform="translate(-5.0021,-4.3912) scale(1.530104)" stroke-width="0.871401"><line x1="14.39" y1="40.29" x2="7.83" y2="33.73" fill="none" stroke="#000" stroke-linecap="round" stroke-linejoin="round"/><line x1="38.44" y1="16.48" x2="31.76" y2="9.8" fill="none" stroke="#000" stroke-linecap="round" stroke-linejoin="round"/><path d="M33.3,7.97l-25.19,25.06c-.33.33-.81.77-.81,1.19l-1.61,7.57v.11c.05.11.07.13.14.2.09.07.27.14.27.14h.07s7.89-1.53,7.89-1.53c.32-.13.17-.07.49-.34l25.8-25.29-.22-.29-6.68-6.68-.14-.14Z" fill="none" stroke="#000" stroke-linecap="round" stroke-linejoin="round"/><path d="M40.35,15.09c.84-.9,2.33-3.08,2.33-4.41,0-2.78-2.26-5.04-5.04-5.04-1.31,0-3.43,1.51-4.33,2.33" fill="none" stroke="#000" stroke-linecap="round" stroke-linejoin="round"/></g></svg>