<?xml version="1.0" encoding="UTF-8"?><svg xmlns="http://www.w3.org/2000/svg" width="48" height="48" viewBox="0 0 48 48"><g  transform="translate(0.0000,0.0000) scale(1.000000)"><g transform="translate(0.0000,0.0000)"><g transform="translate(0.0000,0.0000) scale(1.000000)"><g transform="translate(-2.1552,-2.1552) scale(1.087533)" stroke-width="0.919512"><path d="M9.16,23.84c-.18,8.22,6.36,15.04,14.58,15.22,8.22.18,15.04-6.36,15.22-14.58v-.24c.18-8.22-6.35-15.04-14.58-15.22-8.22-.18-15.04,6.36-15.22,14.58v.24Z" fill="none" stroke="#000" stroke-linecap="round" stroke-linejoin="round"/><path d="M22.65,24.02c-.01.78.61,1.42,1.39,1.43s1.42-.61,1.43-1.39-.61-1.42-1.39-1.43-1.42.61-1.43,1.39h0Z" fill="none" stroke="#000" stroke-linecap="round" stroke-linejoin="round"/><path d="M10.58,37.18c7.25,7.44,19.16,7.6,26.61.35,7.44-7.25,7.6-19.16.35-26.61h0c-7.25-7.44-19.16-7.6-26.61-.35s-7.6,19.16-.35,26.61Z" fill="none" stroke="#000" stroke-linecap="round" stroke-linejoin="round"/><path d="M19.55,23.98c-.03,2.5,1.95,4.54,4.45,4.57s4.54-1.95,4.57-4.45-1.95-4.54-4.45-4.57-4.54,1.95-4.57,4.45h0Z" fill="none" stroke="#000" stroke-linecap="round" stroke-linejoin="round"/><line x1="22.55" y1="38.85" x2="21.16" y2="27.6" fill="none" stroke="#000" stroke-linecap="round" stroke-linejoin="round"/><line x1="25.42" y1="38.92" x2="26.77" y2="27.75" fill="none" stroke="#000" stroke-linecap="round" stroke-linejoin="round"/><line x1="11.05" y1="16.79" x2="21.92" y2="19.99" fill="none" stroke="#000" stroke-linecap="round" stroke-linejoin="round"/><line x1="9.88" y1="19.42" x2="19.56" y2="25.08" fill="none" stroke="#000" stroke-linecap="round" stroke-linejoin="round"/><line x1="37.24" y1="17.14" x2="26.29" y2="20.05" fill="none" stroke="#000" stroke-linecap="round" stroke-linejoin="round"/><line x1="38.34" y1="19.8" x2="28.52" y2="25.2" fill="none" stroke="#000" stroke-linecap="round" stroke-linejoin="round"/></g></g></g></g></svg>