<?xml version="1.0" encoding="UTF-8"?><svg id="Layer_2" xmlns="http://www.w3.org/2000/svg" viewBox="0 0 48 48"><g transform="translate(-2.0317,-2.0317) scale(1.084656)" stroke-width="0.921951"><path d="M17.3,23.87c.15,2.96,2.68,5.24,5.64,5.08,2.96-.15,5.24-2.68,5.08-5.64v-.03c-.15-2.96-2.68-5.24-5.64-5.08-2.96.15-5.24,2.68-5.08,5.64v.03Z" fill="none" stroke="#000" stroke-linecap="round" stroke-linejoin="round"/><path d="M8.48,30.03c-1.81-1.86-2.01-5.83.4-8.2l.08-.08c.62-.61,1.3-1.09,2.01-1.43l-.06.02c.67-.41,1.3-.96,1.85-1.63l.07-.09c1-1.21,1.08-2.97,1.03-4.39v.07c-.12-2.22.62-4.48,2.22-6.26,3.22-3.58,8.75-3.87,12.32-.65l.04.04c.5.45.95.94,1.32,1.47.39.55.88,1.07,1.44,1.54l.09.08c1.09.92,2.4,1.5,3.69,1.44,1.45-.09,2.93.38,4.09,1.43l.03.03c2.31,2.07,2.44,4.69.41,7.95-4.88,7.79-12.02,15.03-19.86,19.86h0c-2.98,1.6-5.64,2.51-7.95.43l-.03-.03c-1.54-1.38-2.14-3.44-1.74-5.34h0c.19-.78.23-1.64.16-2.52v-.12c-.13-1.42-.75-2.66-1.63-3.62" fill="none" stroke="#000" stroke-linecap="round" stroke-linejoin="round"/></g></svg>