<?xml version="1.0" encoding="UTF-8"?><svg id="Layer_2" xmlns="http://www.w3.org/2000/svg" viewBox="0 0 64 64"><g transform="translate(-3.4663,-3.3189) scale(1.486043)" stroke-width="0.897237"><path d="M11.63,27.37c-.06,6.76,5.38,12.28,12.14,12.34,6.76.06,12.28-5.38,12.34-12.14v-.2c.06-6.76-5.38-12.28-12.14-12.34-6.76-.06-12.28,5.38-12.34,12.14v.2Z" fill="none" stroke="#000" stroke-linecap="round" stroke-linejoin="round"/><path d="M12.94,38.29c6.03,6.03,15.82,6.03,21.86,0,6.03-6.03,6.03-15.82,0-21.86h0c-6.03-6.03-15.82-6.03-21.86,0-6.03,6.03-6.03,15.82,0,21.86Z" fill="none" stroke="#000" stroke-linecap="round" stroke-linejoin="round"/><path d="M28.38,12.57v-1.43s0,0,0,0c0-.04,0-.07,0-.11l.03-4.86c0-.8-.51-1.3-1.16-1.3s-1.19.5-1.19,1.3l-.03,2.76h0v.9c0,.23-.19.42-.42.42h-3.58c-.23,0-.42-.19-.42-.42v-3.98c-.09-.66-.56-1.05-1.14-1.05-.65,0-1.19.5-1.19,1.3v4.94s0,.02,0,.03v1.54c2.95-.92,6.11-.94,9.07-.05Z" fill="none" stroke="#000" stroke-linecap="round" stroke-linejoin="round"/><path d="M17.75,25.6l4.01-4" fill="none" stroke="#000" stroke-linecap="round" stroke-linejoin="round"/><path d="M17.76,21.6l4,4.01" fill="none" stroke="#000" stroke-linecap="round" stroke-linejoin="round"/><path d="M25.97,25.6l4.01-4" fill="none" stroke="#000" stroke-linecap="round" stroke-linejoin="round"/><path d="M25.97,21.6l4,4.01" fill="none" stroke="#000" stroke-linecap="round" stroke-linejoin="round"/><path d="M25.97,33.13l4.01-4" fill="none" stroke="#000" stroke-linecap="round" stroke-linejoin="round"/><path d="M25.97,29.13l4,4.01" fill="none" stroke="#000" stroke-linecap="round" stroke-linejoin="round"/><path d="M17.82,33.13l4.01-4" fill="none" stroke="#000" stroke-linecap="round" stroke-linejoin="round"/><path d="M17.83,29.13l4,4.01" fill="none" stroke="#000" stroke-linecap="round" stroke-linejoin="round"/><polygon points="21.64 6.01 21.64 8.01 26.05 8.01 26.05 7.93 26.05 7.93 26.07 6 21.64 6.01" fill="none" stroke="#000" stroke-linecap="round" stroke-linejoin="round"/><path d="M34.96,4.76c-.86,0-1.6.5-1.98,1.21l-4.57.02v2.03s4.57,0,4.57,0c.37.72,1.11,1.21,1.97,1.21,1.23,0,2.23-1,2.23-2.23s-1-2.23-2.23-2.23Z" fill="none" stroke="#000" stroke-linecap="round" stroke-linejoin="round"/><path d="M19.32,6.02h-.32s-7.91.42-7.91.42c-.26.01-.5.2-.54.46,0,.03,0,.06,0,.1,0,0,0,0,0,.01,0,0,0,0,0,0,0,.29.26.51.54.53l7.81.47h.43v-1.99Z" fill="none" stroke="#000" stroke-linecap="round" stroke-linejoin="round"/></g></svg>