<?xml version="1.0" encoding="UTF-8"?><svg id="Layer_2" xmlns="http://www.w3.org/2000/svg" viewBox="0 0 64 64"><g transform="translate(-25.3008,-25.8693) scale(2.336084)" stroke-width="0.570756"><path d="M21.59,21.39s.01.06-.02.06l-6.98.41c-1.14.04-2.11.91-2.17,2.05,0,.06,0,.13,0,.19,0,.06,0,.13.01.19.13,1.13,1.17,1.93,2.3,1.9.74-.02,5.44-.04,7.65-.17l-6.07,7.18c-.78.83-.85,2.14-.09,2.98.04.05.09.09.14.14.05.04.1.09.15.13.89.7,2.19.54,2.97-.29.41-.44,3.4-4.02,5.31-6.25l1.58,3.79c.49,1.1,1.73,1.71,2.87,1.32.06-.02.13-.05.19-.07.06-.03.12-.06.18-.09,1.05-.58,1.43-1.91.94-3.01l-1.79-4.17,2.83-.22,2.83-.17c1.16-.04,2.16-.93,2.22-2.09,0-.07,0-.13,0-.2,0-.07,0-.13-.01-.2-.14-1.15-1.19-1.98-2.36-1.94-.54.02-1.67.08-3.1.16l2.85-3.21c.78-.83.85-2.14.09-2.98-.04-.05-.09-.09-.14-.14-.05-.04-.1-.09-.15-.13-.89-.7-2.19-.54-2.97.29-.51.54-1.76,1.94-3.23,3.59-.02.02-.29.28-.29.25l-.37.33-2.93-5.72c-.51-1.09-1.77-1.67-2.89-1.26-.06.02-.12.05-.19.08-.06.03-.12.06-.18.09-1.04.6-1.39,1.94-.88,3.03l1.69,4.16Z" fill="none" stroke="#000" stroke-linecap="round" stroke-linejoin="round"/></g></svg>