<?xml version="1.0" encoding="UTF-8"?><svg xmlns="http://www.w3.org/2000/svg" width="47.9" height="48" viewBox="0 0 47.9 48"><g  transform="translate(0.0000,0.0000) scale(1.000000)"><g transform="translate(0.0000,0.0000)"><g transform="translate(-0.0000,0.0000) scale(1.000000)"><g transform="translate(-1.9090,-1.9090) scale(1.081794)" stroke-width="0.924390"><defs><style>.cls-1{fill:none;stroke:#000;stroke-linecap:round;stroke-linejoin:round;}</style></defs><line class="cls-1" x1="5.08" y1="23.96" x2="42.81" y2="23.96"/><path class="cls-1" d="M5.08,23.96c0,10.42,8.45,18.86,18.86,18.86"/><path class="cls-1" d="M5.08,23.96C5.08,13.55,13.53,5.1,23.95,5.1"/><path class="cls-1" d="M42.81,23.96c0,10.42-8.45,18.86-18.86,18.86"/><path class="cls-1" d="M42.81,23.96c0-10.42-8.45-18.86-18.86-18.86"/><path class="cls-1" d="M23.95,42.83c-4.89,0-9.36-1.86-12.71-4.92,3.58-2.58,7.96-4.11,12.71-4.11s9.13,1.53,12.71,4.11c-3.35,3.06-7.81,4.92-12.71,4.92Z"/><path class="cls-1" d="M23.95,5.1c4.9,0,9.36,1.87,12.71,4.92-3.58,2.58-7.96,4.11-12.71,4.11s-9.13-1.53-12.71-4.11c3.35-3.05,7.81-4.92,12.71-4.92Z"/><path class="cls-1" d="M24,5.1c-5.87,3.77-9.83,10.8-9.83,18.86s3.95,15.1,9.83,18.86c5.87-3.77,9.83-10.8,9.83-18.86s-3.95-15.1-9.83-18.86Z"/></g></g></g></g></svg>