<?xml version="1.0" encoding="UTF-8"?><svg id="Layer_2" xmlns="http://www.w3.org/2000/svg" viewBox="0 0 64 64"><g transform="translate(-3.9991,-3.2979) scale(1.503095)" stroke-width="0.887059"><path d="M42.77,36.25v-.12.07c0-2.24-.92-4.08-2.56-4.98l.03.02c-2.79-1.43-5.3-1.87-8.89-2.06l-.28.24c-.22.17-.47.34-.75.5-1.86,1.3-4.03,2.06-6.38,2.06-1.7,0-3.34-.39-4.81-1.13-.96-.43-1.77-.96-2.36-1.55-.04-.04-.11-.09-.16-.15-3.57.17-6.16.64-8.95,2.06l.03-.02c-1.65.92-2.55,2.76-2.56,4.98v-.07,6.19h37.65v-6.09.02h0s0,.02,0,.02Z" fill="none" stroke="#000" stroke-linecap="round" stroke-linejoin="round"/><path d="M23.93,31.98c-1.75,0-3.79-.41-5.2-1.39l5.21,11.73,5.33-11.74c-1.44,1.01-3.57,1.4-5.34,1.4Z" fill="none" stroke="#000" stroke-linecap="round" stroke-linejoin="round"/><path d="M27.16,25.44c-.71.94-1.85,1.55-3.12,1.55-1.35,0-2.54-.69-3.25-1.73" fill="none" stroke="#000" stroke-linecap="round" stroke-linejoin="round"/><path d="M24,31.92c6.59,0,11.95-5.85,11.95-13.04,0-1.2-.15-2.35-.42-3.45-1.1.37-2.29.58-3.53.58h0c-3.08-.01-5.89-1.27-8-3.35l-.02.02c-2.12,2.06-4.91,3.32-7.98,3.32-1.24,0-2.41-.19-3.53-.58-.28,1.1-.42,2.26-.42,3.45,0,7.21,5.36,13.04,11.95,13.04" fill="none" stroke="#000" stroke-linecap="round" stroke-linejoin="round"/><path d="M36.04,15.1c-1.44-5.55-6.29-9.25-12.07-9.25s-10.63,3.71-12.07,9.25c1.2.76,2.8.9,4.1.9,3.21,0,5.74-1.21,7.95-3.26l.02-.02c2.21,2.08,4.82,3.28,8.03,3.28,1.28,0,2.87-.33,4.03-.9h.01Z" fill="none" stroke="#000" stroke-linecap="round" stroke-linejoin="round"/><path d="M28.74,6.75c-1.48-.6-3.07-.93-4.77-.93-5.77,0-10.63,3.71-12.07,9.25,1.2.76,2.8.9,4.1.9,3.21,0,5.74-1.21,7.95-3.26l.02-.02c1.93-1.78,3.41-3.63,4.73-5.83l.05-.11h0Z" fill="none" stroke="#000" stroke-linecap="round" stroke-linejoin="round"/><path d="M19.67,20.96c-.4.22-.86.35-1.33.35s-.96-.15-1.35-.36" fill="none" stroke="#000" stroke-linecap="round" stroke-linejoin="round"/><path d="M30.73,20.96c-.4.22-.86.35-1.33.35s-.96-.15-1.35-.36" fill="none" stroke="#000" stroke-linecap="round" stroke-linejoin="round"/><path d="M16.11,19.45c.51-.65,1.29-1.09,2.18-1.09.94,0,1.76.48,2.26,1.2" fill="none" stroke="#000" stroke-linecap="round" stroke-linejoin="round"/><path d="M27.16,19.45c.51-.65,1.29-1.09,2.18-1.09.94,0,1.76.48,2.26,1.2" fill="none" stroke="#000" stroke-linecap="round" stroke-linejoin="round"/><circle cx="29.38" cy="20.33" r=".59" fill="none" stroke="#000" stroke-linecap="round" stroke-linejoin="round"/><circle cx="18.33" cy="20.33" r=".59" fill="none" stroke="#000" stroke-linecap="round" stroke-linejoin="round"/></g></svg>