<?xml version="1.0" encoding="UTF-8"?><svg id="Layer_2" xmlns="http://www.w3.org/2000/svg" viewBox="0 0 48 48"><g transform="translate(-2.0317,1.9730) scale(1.084656)" stroke-width="0.921951"><circle cx="12.52" cy="19.47" r="1.18" fill="none" stroke="#000" stroke-linecap="round" stroke-linejoin="round"/><circle cx="12.52" cy="31.7" r="1.18" fill="none" stroke="#000" stroke-linecap="round" stroke-linejoin="round"/><path d="M6.28,22.72h3.18v-6h-3.18c-.63,0-1.14.51-1.14,1.14l-.02,3.73h.02c0,.63.51,1.14,1.14,1.14Z" fill="none" stroke="#000" stroke-linecap="round" stroke-linejoin="round"/><path d="M20.59,16.76h-5.04v6h5.04v-6Z" fill="none" stroke="#000" stroke-linecap="round" stroke-linejoin="round"/><path d="M26.69,16.76v6h5v-6h-5Z" fill="none" stroke="#000" stroke-linecap="round" stroke-linejoin="round"/><path d="M41.74,16.76h-3.97v6h3.97c.63,0,1.14-.51,1.14-1.14v-3.73c0-.63-.51-1.14-1.14-1.14Z" fill="none" stroke="#000" stroke-linecap="round" stroke-linejoin="round"/><path d="M6.28,35.11h3.18v-6h-3.18c-.63,0-1.14.51-1.14,1.14l-.02,3.73h.02c0,.63.51,1.14,1.14,1.14Z" fill="none" stroke="#000" stroke-linecap="round" stroke-linejoin="round"/><path d="M20.59,29.14h-5.04v6h5.04v-6Z" fill="none" stroke="#000" stroke-linecap="round" stroke-linejoin="round"/><path d="M26.69,29.14v6h5v-6h-5Z" fill="none" stroke="#000" stroke-linecap="round" stroke-linejoin="round"/><path d="M41.74,29.14h-3.97v6h3.97c.63,0,1.14-.51,1.14-1.14v-3.73c0-.63-.51-1.14-1.14-1.14Z" fill="none" stroke="#000" stroke-linecap="round" stroke-linejoin="round"/><path d="M9.48,12.87v25.71c0,.35.28.63.63.63h4.82c.35,0,.63-.28.63-.63V12.87v.09s0-.98,0-.98c0-.26-.06-.51-.23-.69h0l-2.57-2.43-.05-.04c-.06-.04-.08-.03-.14-.03-.05,0-.11.01-.16.04l-.03.02-2.58,2.48c-.15.16-.29.33-.29.58v1.51-.54Z" fill="none" stroke="#000" stroke-linecap="round" stroke-linejoin="round"/><circle cx="23.64" cy="19.47" r="1.18" fill="none" stroke="#000" stroke-linecap="round" stroke-linejoin="round"/><circle cx="23.64" cy="31.7" r="1.18" fill="none" stroke="#000" stroke-linecap="round" stroke-linejoin="round"/><path d="M20.6,12.87v25.71c0,.35.28.63.63.63h4.82c.35,0,.63-.28.63-.63V12.87v.09s0-.98,0-.98c0-.26-.06-.51-.23-.69h0l-2.57-2.43-.05-.04c-.06-.04-.08-.03-.14-.03-.05,0-.11.01-.16.04l-.03.02-2.58,2.48c-.15.16-.29.33-.29.58v1.51-.54Z" fill="none" stroke="#000" stroke-linecap="round" stroke-linejoin="round"/><circle cx="34.7" cy="19.47" r="1.18" fill="none" stroke="#000" stroke-linecap="round" stroke-linejoin="round"/><circle cx="34.7" cy="31.7" r="1.18" fill="none" stroke="#000" stroke-linecap="round" stroke-linejoin="round"/><path d="M31.66,12.87v25.71c0,.35.28.63.63.63h4.82c.35,0,.63-.28.63-.63V12.87v.09s0-.98,0-.98c0-.26-.06-.51-.23-.69h0l-2.57-2.43-.05-.04c-.06-.04-.08-.03-.14-.03-.05,0-.11.01-.16.04l-.03.02-2.58,2.48c-.15.16-.29.33-.29.58v1.51-.54Z" fill="none" stroke="#000" stroke-linecap="round" stroke-linejoin="round"/></g></svg>