<?xml version="1.0" encoding="UTF-8"?><svg id="Layer_2" xmlns="http://www.w3.org/2000/svg" viewBox="0 0 64 64"><g transform="translate(-3.7473,5.4040) scale(1.492582)" stroke-width="0.893307"><rect x="4.97" y="11.3" width="37.96" height="25.49" rx=".85" ry=".85" transform="translate(47.9 48.09) rotate(-180)" fill="none" stroke="#000" stroke-linecap="round" stroke-linejoin="round"/><line x1="42.68" y1="28.43" x2="4.97" y2="28.43" fill="none" stroke="#000" stroke-linecap="round" stroke-linejoin="round"/><line x1="42.68" y1="19.76" x2="4.97" y2="19.76" fill="none" stroke="#000" stroke-linecap="round" stroke-linejoin="round"/><path d="M12.21,15.28c-.13-.27-.37-.62-.65-.83-.08-.06-.17-.11-.25-.16h0c-.54-.32-1.75-.53-1.75-.53,0,0,0,1.28.24,1.86.13.27.37.62.64.83.08.06.17.11.25.16.54.33,1.75.53,1.75.53,0,0,0-1.28-.24-1.86h0Z" fill="none" stroke="#000" stroke-linecap="round" stroke-linejoin="round"/><path d="M14.3,16.28c.27-.13.62-.37.83-.65.06-.08.11-.17.16-.25h0c.33-.53.53-1.75.53-1.75,0,0-1.28,0-1.86.24-.27.13-.62.37-.83.64-.06.08-.11.17-.16.25-.33.54-.53,1.75-.53,1.75,0,0,1.28,0,1.86-.24h0Z" fill="none" stroke="#000" stroke-linecap="round" stroke-linejoin="round"/><line x1="12.45" y1="16.91" x2="12.45" y2="18.03" fill="none" stroke="#000" stroke-linecap="round" stroke-linejoin="round"/><path d="M23.5,15.28c-.13-.27-.37-.62-.65-.83-.08-.06-.17-.11-.25-.16h0c-.54-.32-1.75-.53-1.75-.53,0,0,0,1.28.24,1.86.13.27.37.62.64.83.08.06.17.11.25.16.54.33,1.75.53,1.75.53,0,0,0-1.28-.24-1.86h0Z" fill="none" stroke="#000" stroke-linecap="round" stroke-linejoin="round"/><path d="M25.59,16.28c.27-.13.62-.37.83-.65.06-.08.11-.17.16-.25h0c.33-.53.53-1.75.53-1.75,0,0-1.28,0-1.86.24-.27.13-.62.37-.83.64-.06.08-.11.17-.16.25-.33.54-.53,1.75-.53,1.75,0,0,1.28,0,1.86-.24h0Z" fill="none" stroke="#000" stroke-linecap="round" stroke-linejoin="round"/><line x1="23.74" y1="16.91" x2="23.74" y2="18.03" fill="none" stroke="#000" stroke-linecap="round" stroke-linejoin="round"/><path d="M34.79,15.28c-.13-.27-.37-.62-.65-.83-.08-.06-.17-.11-.25-.16h0c-.54-.32-1.75-.53-1.75-.53,0,0,0,1.28.24,1.86.13.27.37.62.64.83.08.06.17.11.25.16.54.33,1.75.53,1.75.53,0,0,0-1.28-.24-1.86h0Z" fill="none" stroke="#000" stroke-linecap="round" stroke-linejoin="round"/><path d="M36.89,16.28c.27-.13.62-.37.83-.65.06-.08.11-.17.16-.25h0c.33-.53.53-1.75.53-1.75,0,0-1.28,0-1.86.24-.27.13-.62.37-.83.64-.06.08-.11.17-.16.25-.33.54-.53,1.75-.53,1.75,0,0,1.28,0,1.86-.24h0Z" fill="none" stroke="#000" stroke-linecap="round" stroke-linejoin="round"/><line x1="35.04" y1="16.91" x2="35.04" y2="18.03" fill="none" stroke="#000" stroke-linecap="round" stroke-linejoin="round"/><path d="M12.21,32.25c-.13-.27-.37-.62-.65-.83-.08-.06-.17-.11-.25-.16h0c-.54-.32-1.75-.53-1.75-.53,0,0,0,1.28.24,1.86.13.27.37.62.64.83.08.06.17.11.25.16.54.33,1.75.53,1.75.53,0,0,0-1.28-.24-1.86h0Z" fill="none" stroke="#000" stroke-linecap="round" stroke-linejoin="round"/><path d="M14.3,33.26c.27-.13.62-.37.83-.65.06-.08.11-.17.16-.25h0c.33-.53.53-1.75.53-1.75,0,0-1.28,0-1.86.24-.27.13-.62.37-.83.64-.06.08-.11.17-.16.25-.33.54-.53,1.75-.53,1.75,0,0,1.28,0,1.86-.24h0Z" fill="none" stroke="#000" stroke-linecap="round" stroke-linejoin="round"/><line x1="12.45" y1="33.88" x2="12.45" y2="35.01" fill="none" stroke="#000" stroke-linecap="round" stroke-linejoin="round"/><path d="M23.5,32.25c-.13-.27-.37-.62-.65-.83-.08-.06-.17-.11-.25-.16h0c-.54-.32-1.75-.53-1.75-.53,0,0,0,1.28.24,1.86.13.27.37.62.64.83.08.06.17.11.25.16.54.33,1.75.53,1.75.53,0,0,0-1.28-.24-1.86h0Z" fill="none" stroke="#000" stroke-linecap="round" stroke-linejoin="round"/><path d="M25.59,33.26c.27-.13.62-.37.83-.65.06-.08.11-.17.16-.25h0c.33-.53.53-1.75.53-1.75,0,0-1.28,0-1.86.24-.27.13-.62.37-.83.64-.06.08-.11.17-.16.25-.33.54-.53,1.75-.53,1.75,0,0,1.28,0,1.86-.24h0Z" fill="none" stroke="#000" stroke-linecap="round" stroke-linejoin="round"/><line x1="23.74" y1="33.88" x2="23.74" y2="35.01" fill="none" stroke="#000" stroke-linecap="round" stroke-linejoin="round"/><path d="M34.79,32.25c-.13-.27-.37-.62-.65-.83-.08-.06-.17-.11-.25-.16h0c-.54-.32-1.75-.53-1.75-.53,0,0,0,1.28.24,1.86.13.27.37.62.64.83.08.06.17.11.25.16.54.33,1.75.53,1.75.53,0,0,0-1.28-.24-1.86h0Z" fill="none" stroke="#000" stroke-linecap="round" stroke-linejoin="round"/><path d="M36.89,33.26c.27-.13.62-.37.83-.65.06-.08.11-.17.16-.25h0c.33-.53.53-1.75.53-1.75,0,0-1.28,0-1.86.24-.27.13-.62.37-.83.64-.06.08-.11.17-.16.25-.33.54-.53,1.75-.53,1.75,0,0,1.28,0,1.86-.24h0Z" fill="none" stroke="#000" stroke-linecap="round" stroke-linejoin="round"/><line x1="35.04" y1="33.88" x2="35.04" y2="35.01" fill="none" stroke="#000" stroke-linecap="round" stroke-linejoin="round"/><path d="M35.6,23.7c-.24.58-.24,1.86-.24,1.86,0,0,1.22-.21,1.75-.53.08-.05.17-.1.25-.16.27-.21.52-.55.64-.83.24-.58.24-1.86.24-1.86,0,0-1.22.21-1.75.53h0c-.08.04-.17.09-.25.15-.27.21-.52.56-.65.83h0Z" fill="none" stroke="#000" stroke-linecap="round" stroke-linejoin="round"/><path d="M33.51,24.7c.58.24,1.86.24,1.86.24,0,0-.21-1.22-.53-1.75-.05-.08-.1-.17-.16-.25-.21-.27-.55-.52-.83-.64-.58-.24-1.86-.24-1.86-.24,0,0,.21,1.22.53,1.75h0c.05.08.1.16.16.24.21.27.56.52.83.65h0Z" fill="none" stroke="#000" stroke-linecap="round" stroke-linejoin="round"/><line x1="35.36" y1="25.32" x2="35.36" y2="26.45" fill="none" stroke="#000" stroke-linecap="round" stroke-linejoin="round"/><path d="M24.31,23.7c-.24.58-.24,1.86-.24,1.86,0,0,1.22-.21,1.75-.53.08-.05.17-.1.25-.16.27-.21.52-.55.64-.83.24-.58.24-1.86.24-1.86,0,0-1.22.21-1.75.53h0c-.08.04-.17.09-.25.15-.27.21-.52.56-.65.83h0Z" fill="none" stroke="#000" stroke-linecap="round" stroke-linejoin="round"/><path d="M22.22,24.7c.58.24,1.86.24,1.86.24,0,0-.21-1.22-.53-1.75-.05-.08-.1-.17-.16-.25-.21-.27-.55-.52-.83-.64-.58-.24-1.86-.24-1.86-.24,0,0,.21,1.22.53,1.75h0c.05.08.1.16.16.24.21.27.56.52.83.65h0Z" fill="none" stroke="#000" stroke-linecap="round" stroke-linejoin="round"/><line x1="24.07" y1="25.32" x2="24.07" y2="26.45" fill="none" stroke="#000" stroke-linecap="round" stroke-linejoin="round"/><path d="M13.02,23.7c-.24.58-.24,1.86-.24,1.86,0,0,1.22-.21,1.75-.53.08-.05.17-.1.25-.16.27-.21.52-.55.64-.83.24-.58.24-1.86.24-1.86,0,0-1.22.21-1.75.53h0c-.08.04-.17.09-.25.15-.27.21-.52.56-.65.83h0Z" fill="none" stroke="#000" stroke-linecap="round" stroke-linejoin="round"/><path d="M10.92,24.7c.58.24,1.86.24,1.86.24,0,0-.21-1.22-.53-1.75-.05-.08-.1-.17-.16-.25-.21-.27-.55-.52-.83-.64-.58-.24-1.86-.24-1.86-.24,0,0,.21,1.22.53,1.75h0c.05.08.1.16.16.24.21.27.56.52.83.65h0Z" fill="none" stroke="#000" stroke-linecap="round" stroke-linejoin="round"/><line x1="12.77" y1="25.32" x2="12.77" y2="26.45" fill="none" stroke="#000" stroke-linecap="round" stroke-linejoin="round"/></g></svg>