<?xml version="1.0" encoding="UTF-8"?><svg id="Layer_2" xmlns="http://www.w3.org/2000/svg" viewBox="0 0 64 64"><g transform="translate(-4.0425,-4.1437) scale(1.501768)" stroke-width="0.887842"><path d="M29.53,34.97h-11c-1.34-.01-2.2-.77-2.2-1.78s.86-1.89,2.2-1.89h11c1.34.01,2.17.86,2.17,1.87s-.83,1.8-2.18,1.8Z" fill="none" stroke="#000" stroke-linecap="round" stroke-linejoin="round"/><path d="M27.86,9.99l.06,20.91c0,.22-.11.39-.24.39h-7.29c-.13,0-.24-.18-.24-.4l.02-20.91c0-.18.03-.36.09-.51l3.82-4.24,3.7,4.27c.05.15.08.32.08.49Z" fill="none" stroke="#000" stroke-linecap="round" stroke-linejoin="round"/><path d="M22.04,34.99v5.95c0,1.09.88,1.98,1.97,1.98s1.98-.88,1.98-1.97v-5.95s-3.94,0-3.94,0Z" fill="none" stroke="#000" stroke-linecap="round" stroke-linejoin="round"/></g></svg>