<?xml version="1.0" encoding="UTF-8"?><svg xmlns="http://www.w3.org/2000/svg" width="47.9" height="48" viewBox="0 0 47.9 48"><g  transform="translate(0.0000,0.0000) scale(1.000000)"><g transform="translate(0.0000,0.0000)"><g transform="translate(-0.0000,0.0000) scale(1.000000)"><g transform="translate(-1.7592,0.3874) scale(1.073298)" stroke-width="0.931707"><path d="M33.77,16.11c-.01-.09-.04-.22-.05-.32-.04-.26-.08-.48-.14-.73,0-.02,0-.04-.01-.05-.02-.06-.02-.12-.04-.17h0c-1.15-4.54-4.95-7.87-9.47-7.87s-8.32,3.33-9.47,7.87h0c-.02.06-.03.12-.04.18,0,0,0,.01,0,.02-.06.27-.11.54-.16.81-.02.08-.03.17-.04.26-.02.11-.02.21-.04.32-.01.11-.02.23-.03.34,0,.09-.02.19-.02.28,0,.18-.02.37-.02.56v.07h0v.09c0,.09,0,.18,0,.27,0,.1,0,.19.01.29,0,.09.01.18.02.28,0,.12.02.23.03.35.01.11.02.21.04.31.01.09.03.18.04.28.04.26.09.52.15.77,0,.02,0,.04.01.06.02.06.02.12.04.17h0c.65,2.55,2.13,4.72,4.11,6.13l.06.05-1.3.08c-3.62.18-7.1.97-9.93,2.49l.03-.02c-1.67.97-2.59,2.93-2.59,5.33v6.43h38.05v-6.43c0-2.4-.91-4.37-2.59-5.33l.03.02c-2.82-1.51-6.24-2.21-9.86-2.39h-1.49v-.02c2.12-1.4,3.73-3.66,4.41-6.34h0c.02-.06.03-.12.04-.18,0,0,0-.01,0-.02.06-.27.11-.54.16-.82.02-.08.03-.17.04-.26.02-.11.03-.21.04-.32.01-.11.02-.23.03-.34,0-.09.02-.19.02-.28,0-.18.02-.37.02-.56v-.07h0v-.09c0-.19,0-.37-.02-.56,0-.09-.08-.85-.09-.94h0Z" fill="none" stroke="#000" stroke-linecap="round" stroke-linejoin="round"/></g></g></g></g></svg>