<?xml version="1.0" encoding="UTF-8"?><svg xmlns="http://www.w3.org/2000/svg" width="46" height="48" viewBox="0 0 46 48"><g  transform="translate(0.0000,0.0000) scale(1.000000)"><g transform="translate(-1.0000,0.0000)"><g transform="translate(-2.0317,-2.1402) scale(1.084656)"><path d="M38.25,14.04c2.33,3.03,3.72,6.82,3.72,10.94,0,9.92-8.04,17.97-17.97,17.97S6.03,34.9,6.03,24.98c0-4.9,1.96-9.35,5.15-12.59h0c1.08,1.49,2.38,2.8,3.85,3.9l.06-.08c2.72-6.47,9.11-11.01,16.57-11.01.62,0,1.23.03,1.84.09l.06.11c-1.63,2.7-2.56,5.87-2.56,9.25,0,2.06.35,4.04.99,5.89h.03c2.52-1.59,4.61-3.79,6.08-6.39l.16-.12Z" fill="none" stroke="#000" stroke-linecap="round" stroke-linejoin="round" stroke-width="0.921951"/><path d="M30.27,29.98c.56,1.25.88,2.68.88,4.21,0,4.84-3.2,8.76-7.14,8.76s-7.01-3.76-7.14-8.46c0-.2,0-.39.02-.59.17-1.75.89-3.72,1.88-5l.08.06c.73,1.29,1.77,2.38,3.02,3.17h.02c.32-.92.49-1.9.49-2.92,0-1.68-.46-3.25-1.27-4.59l.03-.06c.3-.03.6-.05.91-.05,3.7,0,6.87,2.25,8.22,5.46l.03.04" fill="none" stroke="#000" stroke-linecap="round" stroke-linejoin="round" stroke-width="0.921951"/></g></g></g></svg>