<?xml version="1.0" encoding="UTF-8"?><svg xmlns="http://www.w3.org/2000/svg" width="48" height="48" viewBox="0 0 48 48"><g  transform="translate(0.0000,0.0000) scale(1.000000)">
  <!-- Generator: Adobe Illustrator 30.3.0, SVG Export Plug-In . SVG Version: 2.1.3 Build 182)  -->
  <defs>
    <style>
      .st0 {
        stroke-miterlimit: 3.71;
      }

      .st0, .st1 {
        fill: none;
        stroke: #000;
        stroke-width: 1px;
      }

      .st1 {
        stroke-linecap: round;
        stroke-linejoin: round;
      }
    </style>
  </defs>
  <path class="st1" d="M11.74,44.48h10.9c6.44,0,10.5-6.18,12.74-11.23.52-1.13,1.35-2.08,2.4-2.75,1.05-.67,2.27-1.01,3.51-1,.39.06.79.03,1.17-.08.38-.11.73-.3,1.03-.56.3-.26.54-.58.7-.94.16-.36.25-.75.25-1.15s-.09-.79-.25-1.15c-.16-.36-.4-.68-.7-.94-.3-.26-.65-.45-1.03-.56-.38-.11-.78-.14-1.17-.08-1.24.01-2.46-.34-3.51-1-1.05-.67-1.88-1.62-2.4-2.75-2.25-5.06-6.31-11.24-12.74-11.24h-10.9"/>
  <path class="st1" d="M15.83,44.48s1.36-9.54-4.09-13.62c-2.44-1.83-6.81,2.72-6.81,2.72,0,0-1.36-1.36-1.36-6.81s1.36-6.81,1.36-6.81c0,0,4.37,4.55,6.81,2.72,5.45-4.09,4.09-13.62,4.09-13.62"/>
  <path class="st0" d="M30.81,24.73c-.38,0-.68-.3-.68-.68s.3-.68.68-.68"/>
  <path class="st0" d="M30.81,24.73c.38,0,.68-.3.68-.68s-.3-.68-.68-.68"/>
</g></svg>