<?xml version="1.0" encoding="UTF-8"?><svg id="Layer_2" xmlns="http://www.w3.org/2000/svg" viewBox="0 0 48 48"><g transform="translate(-2.1260,-2.0760) scale(1.093333)" stroke-width="0.914634"><path d="M19.5,31.65l11.99-12.19s.08-.09.12-.13c1.01.5,2.16.79,3.36.78,4.13-.03,7.45-3.41,7.41-7.54-.01-1.21-.31-2.35-.83-3.36l-5.45,5.54c-.18.18-.47.19-.66,0h0s-2.68-2.64-2.68-2.64c-.18-.18-.19-.47,0-.66l5.45-5.54c-1.01-.5-2.15-.77-3.35-.76-4.13.03-7.45,3.41-7.41,7.54,0,1.21.31,2.34.83,3.35-.04.04-.09.08-.13.12l-11.99,12.19c-1.01-.5-2.15-.78-3.36-.77-4.13.03-7.45,3.41-7.41,7.54.01,1.21.31,2.35.83,3.36l5.45-5.54c.18-.18.47-.19.66,0h0s2.68,2.64,2.68,2.64c.18.18.19.47,0,.66l-5.45,5.54c1.01.5,2.15.77,3.35.76,4.13-.03,7.45-3.41,7.41-7.54,0-1.21-.31-2.34-.83-3.35Z" fill="none" stroke="#000" stroke-linecap="round" stroke-linejoin="round"/></g></svg>