<?xml version="1.0" encoding="UTF-8"?><svg id="Layer_2" xmlns="http://www.w3.org/2000/svg" viewBox="0 0 48 48"><g transform="translate(-1.8947,-1.6789) scale(1.078947)" stroke-width="0.926829"><path d="M39.82,39.6c0-11.73-6.94-17.52-15.65-17.51h0c-8.71,0-15.92,5.54-15.92,17.53l31.57-.03Z" fill="none" stroke="#000" stroke-linecap="round" stroke-linejoin="round"/><path d="M24.17,22.09c.48,0,.94.02,1.41.06v-2.32c0-1-.69-1.82-1.55-1.82s-1.55.81-1.55,1.82v2.34c.55-.05,1.11-.07,1.68-.07Z" fill="none" stroke="#000" stroke-linecap="round" stroke-linejoin="round"/><path d="M41.45,42.8H6.62c-.85,0-1.55-.69-1.55-1.55s.69-1.55,1.55-1.55h34.82c.85,0,1.55.69,1.55,1.55s-.69,1.55-1.55,1.55Z" fill="none" stroke="#000" stroke-linecap="round" stroke-linejoin="round"/></g></svg>