<?xml version="1.0" encoding="UTF-8"?><svg xmlns="http://www.w3.org/2000/svg" width="24.6" height="48" viewBox="0 0 24.6 48"><g  transform="translate(0.0000,0.0000) scale(1.000000)"><g transform="translate(-11.7000,0.0000)"><g transform="translate(11.7000,0.0000) scale(1.000000)"><g transform="translate(-13.1352,-2.1402) scale(1.084656)" stroke-width="0.921951"><path d="M22.21,12.74l.04-4.14c0-.9.65-1.54,1.52-1.54s1.56.73,1.56,1.62l-.24,5.18" fill="none" stroke="#000" stroke-linecap="round" stroke-linejoin="round"/><path d="M19.42,13.46l-.32-5.47c0-.9.7-1.62,1.56-1.62s1.56.73,1.56,1.96l-.02,5.58" fill="none" stroke="#000" stroke-linecap="round" stroke-linejoin="round"/><path d="M25.11,13.52l.21-3.15c0-.9.7-1.62,1.56-1.62s1.56.73,1.56,1.62v2.1" fill="none" stroke="#000" stroke-linecap="round" stroke-linejoin="round"/><path d="M28.3,13.78l.13-1.31c0-.9.7-1.62,1.56-1.62s1.56.73,1.56,1.62l-.34,5.02" fill="none" stroke="#000" stroke-linecap="round" stroke-linejoin="round"/><path d="M31.21,17.5l-.81,13.97.03-.46c-.53,8.42-3,11.91-6.68,11.91s-6.27-3.46-6.68-11.91l.03.59c-.24-5.3-1.64-21.15-1.64-21.15l-.09-2.67c-.06-1.63.74-2.5,1.8-2.5s1.9.8,1.92,2.28l.14,3.07" fill="none" stroke="#000" stroke-linecap="round" stroke-linejoin="round"/></g></g></g></g></svg>