<?xml version="1.0" encoding="UTF-8"?><svg xmlns="http://www.w3.org/2000/svg" width="48" height="48" viewBox="0 0 48 48"><g  transform="translate(0.0000,0.0000) scale(1.000000)"><g transform="translate(0.0000,0.0000)"><g transform="translate(0.0000,0.0000) scale(1.000000)"><g transform="translate(-1.8947,6.0895) scale(1.078947)" stroke-width="0.926829"><defs><style>.cls-1{fill:none;stroke:#000;stroke-linecap:round;stroke-linejoin:round;}</style></defs><line class="cls-1" x1="23.83" y1="26.13" x2="23.83" y2="35.57"/><path class="cls-1" d="M24.14,21.86c0-1.48-1.39-2.72-3.22-2.99.07-.23.12-.47.12-.72,0-1.26-1-2.34-2.42-2.8-.08-1.63-1.82-2.93-3.96-2.93-.02,0-.04,0-.06,0s-.04,0-.06,0c-2.14,0-3.88,1.3-3.96,2.93-1.42.46-2.42,1.54-2.42,2.8,0,.25.04.49.12.72-1.83.27-3.22,1.5-3.22,2.99,0,1.29,1.04,2.39,2.52,2.83.34,1.42,1.96,2.49,3.9,2.49,1.17,0,2.21-.39,2.93-1,.73.61,1.77,1,2.93,1,1.9,0,3.48-1.02,3.87-2.38,1.69-.35,2.93-1.53,2.93-2.93h0Z"/><path class="cls-1" d="M30.33,18.87c.07-.23.12-.47.12-.72,0-1.26-1-2.34-2.42-2.8-.08-1.63-1.82-2.93-3.96-2.93-.02,0-.04,0-.06,0s-.04,0-.06,0c-2.14,0-3.88,1.3-3.96,2.93-.24.08-.47.18-.68.29,1.05.55,1.74,1.47,1.74,2.51,0,.25-.04.49-.12.72,1.83.27,3.22,1.5,3.22,2.99,0,1.4-1.24,2.58-2.93,2.93-.26.91-1.05,1.66-2.11,2.06.53.2,1.13.32,1.77.32,1.17,0,2.21-.39,2.93-1,.73.61,1.77,1,2.93,1,1.9,0,3.48-1.02,3.87-2.38,1.69-.35,2.93-1.53,2.93-2.93,0-1.48-1.39-2.72-3.22-2.99h0Z"/><line class="cls-1" x1="33.24" y1="26.13" x2="33.24" y2="35.57"/><path class="cls-1" d="M39.73,18.87c.07-.23.12-.47.12-.72,0-1.26-1-2.34-2.42-2.8-.08-1.63-1.82-2.93-3.96-2.93-.02,0-.04,0-.06,0s-.04,0-.06,0c-2.14,0-3.88,1.3-3.96,2.93-.24.08-.47.18-.69.29,1.05.55,1.74,1.47,1.74,2.51,0,.25-.04.49-.12.72,1.83.27,3.22,1.5,3.22,2.99,0,1.4-1.24,2.58-2.93,2.93-.26.91-1.05,1.66-2.11,2.06.53.2,1.13.32,1.77.32,1.17,0,2.21-.39,2.93-1,.73.61,1.77,1,2.93,1,1.9,0,3.48-1.02,3.87-2.38,1.69-.35,2.93-1.53,2.93-2.93,0-1.48-1.39-2.72-3.22-2.99h0Z"/><line class="cls-1" x1="14.43" y1="26.13" x2="14.43" y2="35.57"/></g></g></g></g></svg>