<?xml version="1.0" encoding="UTF-8"?><svg xmlns="http://www.w3.org/2000/svg" width="48" height="48" viewBox="0 0 48 48"><g  transform="translate(0.0000,0.0000) scale(1.000000)"><g transform="translate(0.0000,0.0000)"><g transform="translate(0.0000,0.0000) scale(1.000000)">
  <!-- Generator: Adobe Illustrator 30.3.0, SVG Export Plug-In . SVG Version: 2.1.3 Build 182)  -->
  <defs>
    <style>
      .st0 {
        fill: none;
        stroke: #000;
        stroke-linecap: round;
        stroke-linejoin: round;
        stroke-width: 1px;
      }
    </style>
  </defs>
  <path class="st0" d="M17.09,29.89c.19,3.81,3.45,6.74,7.26,6.54,3.81-.19,6.74-3.45,6.54-7.26v-.04c-.19-3.81-3.45-6.74-7.26-6.54-3.81.19-6.74,3.45-6.54,7.26v.04Z"/>
  <path class="st0" d="M42.14,37.12v-3.4c0-.63.55-1.03,1.17-1.03s1.13.51,1.13,1.13v3.2c.01,4.08-2.55,7.39-5.68,7.39s-5.65-3.31-5.65-7.39v-3.2c0-.63.51-1.13,1.13-1.13s1.13.51,1.13,1.13v3.4-.8s-.01-7.16-.01-7.16c0-.63.51-1.13,1.13-1.13s1.13.51,1.13,1.13v7.39-2.23s-.01-7.16-.01-7.16c0-.63.51-1.13,1.13-1.13s1.13.51,1.13,1.13v9.16s0-7.2,0-7.2c0-.63.51-1.13,1.13-1.13s1.13.51,1.13,1.13v8.37-.47Z"/>
  <path class="st0" d="M12.54,37.12v-3.4c0-.63.55-1.03,1.17-1.03s1.13.51,1.13,1.13v3.2c.01,4.08-2.55,7.39-5.68,7.39s-5.65-3.31-5.65-7.39v-3.2c0-.63.51-1.13,1.13-1.13s1.13.51,1.13,1.13v3.53l-.02-8.09c0-.63.51-1.13,1.13-1.13s1.13.51,1.13,1.13v7.39-2.23s-.01-7.16-.01-7.16c0-.63.51-1.13,1.13-1.13s1.13.51,1.13,1.13v9.16s0-7.2,0-7.2c0-.63.51-1.13,1.13-1.13s1.13.51,1.13,1.13v8.37-.47Z"/>
  <path class="st0" d="M28.31,39v.05c0,.21-.16.37-.37.37h-7.91.01c-.21,0-.37-.16-.37-.37v-.09l.53-3.67c1.09.71,2.38,1.12,3.78,1.12s2.7-.41,3.78-1.12l.53,3.7h.02Z"/>
</g></g></g></svg>