<?xml version="1.0" encoding="UTF-8"?><svg id="Layer_2" xmlns="http://www.w3.org/2000/svg" viewBox="0 0 64 64"><g transform="translate(-3.7895,9.4333) scale(1.491228)" stroke-width="0.894118"><defs><style>.cls-1{fill:none;stroke:#000;stroke-linecap:round;stroke-linejoin:round;}</style></defs><path class="cls-1" d="M17.6,20.66c.18,3.53,3.2,6.25,6.73,6.06,3.53-.18,6.25-3.2,6.06-6.73,0-.01,0-.03,0-.04-.18-3.53-3.2-6.25-6.73-6.06-3.53.18-6.25,3.2-6.06,6.73,0,.01,0,.03,0,.04Z"/><path class="cls-1" d="M36.62,24.86v-6.64c0-.58.47-1.05,1.05-1.05s1.05.47,1.05,1.05v6.64"/><path class="cls-1" d="M38.72,26.71v-6.67c0-.58.47-1.05,1.05-1.05s1.05.47,1.05,1.05v7.76"/><path class="cls-1" d="M34.53,26.72v-6.64c0-.58.47-1.05,1.05-1.05s1.05.47,1.05,1.05v6.85"/><path class="cls-1" d="M40.81,27.36v-3.15c0-.58.51-.95,1.08-.95s1.05.47,1.05,1.05v2.97c.01,3.78-2.36,6.85-5.26,6.85s-5.24-3.07-5.24-6.85v-2.97c0-.58.47-1.05,1.05-1.05s1.05.47,1.05,1.05v3.15"/><path class="cls-1" d="M9.18,24.86v-6.64c0-.58.47-1.05,1.05-1.05s1.05.47,1.05,1.05v6.64"/><path class="cls-1" d="M11.28,26.71v-6.67c0-.58.47-1.05,1.05-1.05s1.05.47,1.05,1.05v7.76"/><path class="cls-1" d="M7.09,26.72v-6.64c0-.58.47-1.05,1.05-1.05s1.05.47,1.05,1.05v6.85"/><path class="cls-1" d="M13.38,27.36v-3.15c0-.58.51-.95,1.08-.95s1.05.47,1.05,1.05v2.97c.01,3.78-2.36,6.85-5.26,6.85s-5.24-3.07-5.24-6.85v-2.97c0-.58.47-1.05,1.05-1.05s1.05.47,1.05,1.05v3.15"/><path class="cls-1" d="M27.99,29.1s0,.03,0,.05c0,.19-.15.34-.34.34h-7.33.01c-.19,0-.34-.15-.34-.34,0-.03,0-.06,0-.08l.49-3.4c1.01.66,2.21,1.04,3.5,1.04s2.5-.38,3.5-1.04l.49,3.43h0Z"/></g></svg>