<?xml version="1.0" encoding="UTF-8"?><svg id="Layer_2" xmlns="http://www.w3.org/2000/svg" viewBox="0 0 64 64"><g transform="translate(-3.6212,8.8723) scale(1.487314)" stroke-width="0.896471"><path d="M23.98,31.11h16.65c.29,0,.52-.23.52-.52v-11.24c0-.29-.23-.52-.52-.52h-16.65s0,12.29,0,12.29Z" fill="none" stroke="#000" stroke-linecap="round" stroke-linejoin="round"/><path d="M23.93,18.82H7.29c-.29,0-.52.23-.52.52v11.24c0,.29.23.52.52.52h16.65s0-12.29,0-12.29Z" fill="none" stroke="#000" stroke-linecap="round" stroke-linejoin="round"/><rect x="4.95" y="15.71" width="38.01" height="3.05" rx=".85" ry=".85" transform="translate(47.91 34.46) rotate(-180)" fill="none" stroke="#000" stroke-linecap="round" stroke-linejoin="round"/><path d="M37.39,31.33v2.32c0,.52.41.92.92.92s.92-.41.92-.92v-2.52s-1.84,0-1.84,0c0,.06,0,.14,0,.21h0Z" fill="none" stroke="#000" stroke-linecap="round" stroke-linejoin="round"/><path d="M8.62,31.33v2.32c0,.52.41.92.92.92s.92-.41.92-.92v-2.52s-1.84,0-1.84,0c0,.06,0,.14,0,.21h0Z" fill="none" stroke="#000" stroke-linecap="round" stroke-linejoin="round"/><line x1="21.79" y1="21.53" x2="21.79" y2="25.16" fill="none" stroke="#000" stroke-linecap="round" stroke-linejoin="round"/><line x1="26.13" y1="21.53" x2="26.13" y2="25.16" fill="none" stroke="#000" stroke-linecap="round" stroke-linejoin="round"/></g></svg>