<?xml version="1.0" encoding="UTF-8"?><svg xmlns="http://www.w3.org/2000/svg" width="48" height="48" viewBox="0 0 48 48"><g  transform="translate(0.0000,0.0000) scale(1.000000)"><g transform="translate(0.0000,0.0000)"><g stroke-width="0.921951" transform="translate(-2.0317,-2.0317) scale(1.084656)"><path d="M7.63,24h32.74s2.52,0,2.52,2.52v13.85s0,2.52-2.52,2.52H7.63s-2.52,0-2.52-2.52v-13.85s0-2.52,2.52-2.52" fill="none" stroke="#000" stroke-linecap="round" stroke-linejoin="round"/><path d="M35.33,24v18.89" fill="none" stroke="#000" stroke-linecap="round" stroke-linejoin="round"/><path d="M12.66,24v18.89" fill="none" stroke="#000" stroke-linecap="round" stroke-linejoin="round"/><path d="M35.33,30.3H12.66" fill="none" stroke="#000" stroke-linecap="round" stroke-linejoin="round"/><path d="M35.33,36.59H12.66" fill="none" stroke="#000" stroke-linecap="round" stroke-linejoin="round"/><path d="M24,24v-11.33" fill="none" stroke="#000" stroke-linecap="round" stroke-linejoin="round"/><path d="M24,24c0-4.17,3.38-7.56,7.56-7.56" fill="none" stroke="#000" stroke-linecap="round" stroke-linejoin="round"/><path d="M20.22,8.89c0,2.09,1.69,3.78,3.78,3.78s3.78-1.69,3.78-3.78-1.69-3.78-3.78-3.78-3.78,1.69-3.78,3.78" fill="none" stroke="#000" stroke-linecap="round" stroke-linejoin="round"/><path d="M31.55,16.44c0,2.09,1.69,3.78,3.78,3.78s3.78-1.69,3.78-3.78-1.69-3.78-3.78-3.78-3.78,1.69-3.78,3.78" fill="none" stroke="#000" stroke-linecap="round" stroke-linejoin="round"/><path d="M24,24c0-4.17-3.38-7.56-7.56-7.56" fill="none" stroke="#000" stroke-linecap="round" stroke-linejoin="round"/><path d="M8.88,16.44c0,2.09,1.69,3.78,3.78,3.78s3.78-1.69,3.78-3.78-1.69-3.78-3.78-3.78-3.78,1.69-3.78,3.78" fill="none" stroke="#000" stroke-linecap="round" stroke-linejoin="round"/></g></g></g></svg>