<?xml version="1.0" encoding="UTF-8"?><svg xmlns="http://www.w3.org/2000/svg" width="43.9" height="48" viewBox="0 0 43.9 48"><g  transform="translate(0.0000,0.0000) scale(1.000000)"><g transform="translate(-2.1000,0.0000)"><g transform="translate(2.1000,0.0000) scale(1.000000)"><g transform="translate(-4.7707,-2.5516) scale(1.101883)" stroke-width="0.907537"><path d="M25.85,11.32c.13-.47.19-1.15.08-1.7-.03-.16-.09-.31-.14-.46h0c-.32-.95-1.59-3.67-1.59-3.67,0,0-1.35,2.75-1.67,3.71-.13.47-.2,1.14-.08,1.69.03.16.09.31.14.46.32.96,1.59,2.5,1.59,2.5,0,0,1.35-1.57,1.66-2.53h0Z" fill="none" stroke="#000" stroke-linecap="round" stroke-linejoin="round"/><path d="M24.1,13.76c-.4-.54-1.31-1.82-1.5-2.41-.05-.15-.11-.3-.14-.46-.12-.55-.05-1.22.08-1.69.1-.32.32-.82.56-1.37-.79-.61-1.83-1.17-1.83-1.17,0,0-.63,1.89-.58,2.91h0c0,.14,0,.3.04.47.08.46.38.99.62,1.37,0,0,0,0,0,0l2.24,1.91c.12.07.43.4.5.44Z" fill="none" stroke="#000" stroke-linecap="round" stroke-linejoin="round"/><path d="M27.2,6.67s-1.12.6-1.91,1.23c.22.5.41.97.5,1.27h0c.05.14.11.29.14.45.11.55.05,1.24-.08,1.7h0c-.2.62-.83,1.48-1.26,2.03.03-.01.19-.1.44-.25l2.16-1.73s0,.02,0,.03c.24-.38.47-.89.55-1.35.03-.16.03-.32.04-.48h0c.05-1-.58-2.89-.58-2.89Z" fill="none" stroke="#000" stroke-linecap="round" stroke-linejoin="round"/><path d="M24.19,13.85s-.5-.5-.51-.51l-2.27-1.92c.13,3.1-1.65,7.17-5.52,8.4-.78.2-1.56.5-2.32.89-1.46.74-2.94,2.05-3.87,3.18-1.33,1.68-2.15,3.99-2.16,6.56-.01,3.73,1.71,6.94,4.21,8.43,1.12.73,2.46,1.26,3.95,1.5.5.08,1,.12,1.49.14.09,0,.18,0,.27,0,.01,0,.03,0,.04,0,.13,0,.27,0,.4,0,1.56,1.31,3.77,2.14,6.23,2.15.03,0,.05,0,.08,0,.03,0,.05,0,.08,0,2.46,0,4.68-.81,6.24-2.11.13,0,.27,0,.4,0,.01,0,.03,0,.04,0,.09,0,.18,0,.27,0,.49,0,.99-.05,1.49-.13,1.48-.24,2.83-.76,3.95-1.48,2.5-1.47,4.24-4.68,4.25-8.4,0-2.56-.81-4.89-2.13-6.57-.92-1.14-2.39-2.45-3.85-3.2-.76-.39-1.54-.69-2.32-.9-3.86-1.26-5.62-5.34-5.47-8.44l-2.83,2.26c-.09.1-.14.16-.14.16" fill="none" stroke="#000" stroke-linecap="round" stroke-linejoin="round"/><path d="M19.31,21.52c-3.46,2-5.57,6.64-5.64,9.75h0c0,4.27,1.76,6.81,4.22,9.25" fill="none" stroke="#000" stroke-linecap="round" stroke-linejoin="round"/><path d="M29.08,21.52c1.58.91,2.84,2.32,3.75,3.89,1.08,1.86,1.66,3.92,1.7,5.61h0c0,4.27-1.57,7.06-4.03,9.49" fill="none" stroke="#000" stroke-linecap="round" stroke-linejoin="round"/></g></g></g></g></svg>