<?xml version="1.0" encoding="UTF-8"?><svg id="Layer_2" xmlns="http://www.w3.org/2000/svg" viewBox="0 0 48 48"><g transform="translate(-1.8947,5.6579) scale(1.078947)" stroke-width="0.926829"><path d="M5.81,35.98h-.17c-.32,0-.58-.24-.58-.55V13.47c0-.3.26-.55.58-.55h2.51c.32,0,.58.25.58.56v21.96c0,.3-.26.55-.58.55h-2.35Z" fill="none" stroke="#000" stroke-linecap="round" stroke-linejoin="round"/><path d="M40.04,35.98h-.17c-.32,0-.58-.24-.58-.55V13.47c0-.3.26-.55.58-.55h2.51c.32,0,.58.25.58.56v21.96c0,.3-.26.55-.58.55h-2.35Z" fill="none" stroke="#000" stroke-linecap="round" stroke-linejoin="round"/><path d="M15.47,33.47h-6.37c-.19,0-.35-.19-.35-.43V15.87c0-.23.16-.43.35-.43h29.87c.19,0,.35.2.35.43v17.17c0,.23-.16.43-.35.43H15.47Z" fill="none" stroke="#000" stroke-linecap="round" stroke-linejoin="round"/><line x1="17.58" y1="15.62" x2="17.58" y2="33.3" fill="none" stroke="#000" stroke-linecap="round" stroke-linejoin="round"/><line x1="12.98" y1="15.62" x2="12.98" y2="33.3" fill="none" stroke="#000" stroke-linecap="round" stroke-linejoin="round"/><line x1="21.94" y1="15.62" x2="21.94" y2="33.3" fill="none" stroke="#000" stroke-linecap="round" stroke-linejoin="round"/><line x1="26.29" y1="15.62" x2="26.29" y2="33.3" fill="none" stroke="#000" stroke-linecap="round" stroke-linejoin="round"/><line x1="30.65" y1="15.62" x2="30.65" y2="33.3" fill="none" stroke="#000" stroke-linecap="round" stroke-linejoin="round"/><line x1="35.01" y1="15.62" x2="35.01" y2="33.3" fill="none" stroke="#000" stroke-linecap="round" stroke-linejoin="round"/></g></svg>