<?xml version="1.0" encoding="UTF-8"?><svg id="Layer_2" xmlns="http://www.w3.org/2000/svg" viewBox="0 0 64 64"><g transform="translate(-3.7895,-0.3596) scale(1.491228)" stroke-width="0.894118"><defs><style>.cls-1{fill:none;stroke:#000;stroke-linecap:round;stroke-linejoin:round;}</style></defs><path class="cls-1" d="M14.69,11.75c0-2.45,1.99-4.44,4.44-4.44s4.44,1.99,4.44,4.44c0-2.45,1.99-4.44,4.44-4.44s4.44,1.99,4.44,4.44v-.05"/><path class="cls-1" d="M5.03,12.51c0-.37.3-.68.68-.68h12.85v8.77H5.71c-.37,0-.68-.3-.68-.68v-7.41Z"/><path class="cls-1" d="M42.3,20.61h-12.85v-8.77h12.85c.37,0,.68.3.68.68v7.41c0,.37-.3.68-.68.68Z"/><rect class="cls-1" x="18.51" y="11.84" width="10.93" height="8.77"/><path class="cls-1" d="M7.43,40v-19.4h12.79v20.08h-12.11c-.37,0-.68-.3-.68-.68Z"/><line class="cls-1" x1="19.14" y1="20.6" x2="27.91" y2="20.6"/><rect class="cls-1" x="20.21" y="20.6" width="7.41" height="20.08"/><path class="cls-1" d="M39.72,40.68h-12.11v-20.08h12.79v19.4c0,.37-.3.68-.68.68Z"/></g></svg>