<?xml version="1.0" encoding="UTF-8"?><svg id="Layer_2" xmlns="http://www.w3.org/2000/svg" viewBox="0 0 64 64"><g transform="translate(-10.4885,-15.9896) scale(1.770833)" stroke-width="0.752941"><defs><style>.cls-1{fill:none;stroke:#000;stroke-linecap:round;stroke-linejoin:round;}</style></defs><path class="cls-1" d="M39.61,38.03v-.1.06c0-1.85-.76-3.39-2.12-4.14l.03.02c-2.32-1.19-4.4-1.55-7.37-1.7l-.24.19c-.19.14-.4.28-.62.42-1.53,1.08-3.34,1.7-5.29,1.7-1.42,0-2.76-.33-3.99-.94-.79-.35-1.47-.79-1.96-1.28-.04-.04-.09-.08-.13-.12-2.96.14-5.11.52-7.42,1.7l.03-.02c-1.36.76-2.11,2.28-2.12,4.14v-.06,5.14h31.21v-5.05.02h0ZM30.1,32.25l.08-.07c1.95.09,3.52.29,5.04.75v-11.98h-.24c-.33.24-.68.45-1.08.65v.04c.08.56.12,1.11.12,1.7,0,3.63-1.53,6.87-3.93,8.91h0ZM12.83,20.73c1.19.98,2.88,1.29,4.77,1.29,3.22,0,5.88-1.79,6.41-4.14.52,2.35,3.19,4.14,6.41,4.14,1.79,0,3.43-.25,4.61-1.15l.17-.13c-1.31-5.55-5.81-9.64-11.18-9.64s-9.87,4.09-11.18,9.64h0ZM30.42,22.03c-3.22,0-5.88-1.79-6.41-4.14-.52,2.35-3.19,4.14-6.41,4.14-1.27,0-2.41-.13-3.45-.45-.08.56-.12,1.15-.12,1.73,0,6.19,4.47,11.21,9.98,11.21s9.98-5.02,9.98-11.21c0-.59-.04-1.17-.12-1.73-.96.31-2.18.45-3.45.45h0,0ZM26.66,29.38c-.6.79-1.53,1.29-2.6,1.29-1.13,0-2.12-.57-2.71-1.45M17.94,32.25l-.08-.07c-1.95.09-3.52.26-5.04.72v-11.96h.24c.33.24.68.45,1.08.65v.04c-.08.56-.12,1.11-.12,1.7,0,3.63,1.54,6.87,3.93,8.91h0ZM13.33,32.77v10.26l21.49.02-.03-9.42v-.81c-.51-.13-1.16-.23-1.69-.33v-.03c-1.75,4.16-5.19,6.39-9.1,6.39s-8.08-2.97-8.61-6.47c-.02-.05-2.06.39-2.06.39h0ZM27.58,25.76c.34-.19.73-.29,1.15-.29s.82.12,1.16.31M18.12,25.76c.34-.19.73-.29,1.15-.29s.82.12,1.16.31M17.38,24.18c.43-.56,1.1-.93,1.86-.93.81,0,1.52.41,1.94,1.03M26.83,24.18c.43-.56,1.1-.93,1.86-.93.81,0,1.52.41,1.94,1.03M18.76,24.79c0,.28.22.51.51.51s.51-.22.51-.51-.22-.51-.51-.51-.51.22-.51.51ZM28.23,24.79c0,.28.22.51.51.51s.51-.22.51-.51-.22-.51-.51-.51-.51.22-.51.51Z"/></g></svg>