<?xml version="1.0" encoding="UTF-8"?><svg id="Layer_2" xmlns="http://www.w3.org/2000/svg" viewBox="0 0 64 64"><g transform="translate(-4.1494,11.1318) scale(1.503095)" stroke-width="0.887059"><path d="M42.78,32.5c0,.12-.1.22-.22.22l-7.17-.02c-.12,0-.22-.1-.22-.22v-1.62s.06-15.31.06-15.31h0c0-.12.1-.22.22-.22h6.69s.49,0,.49,0c.12,0,.22.1.22.22l-.06,16.95Z" fill="none" stroke="#000" stroke-linecap="round" stroke-linejoin="round"/><path d="M25.65,26.69l-9.47-.03c-1,0-1.81-.82-1.8-1.81s.82-1.81,1.81-1.8" fill="none" stroke="#000" stroke-linecap="round" stroke-linejoin="round"/><path d="M34.93,17.53c-5.41-.1-6.19.78-7.68,2.48-2.18,2.37-2.9,3.04-6.4,3.04h-4.66" fill="none" stroke="#000" stroke-linecap="round" stroke-linejoin="round"/><path d="M35.18,29.33c-3.35,1.7-16.23,1.1-16.23,1.1h0c-1.36-.03-4.04-.39-6.24-.99-1.63-.45-6.27-2.16-6.27-2.16-.94-.33-1.44-1.36-1.1-2.31s1.36-1.44,2.31-1.1l2.66.94,5.42,1.77" fill="none" stroke="#000" stroke-linecap="round" stroke-linejoin="round"/></g></svg>