<?xml version="1.0" encoding="UTF-8"?><svg id="Layer_2" xmlns="http://www.w3.org/2000/svg" viewBox="0 0 64 64"><g transform="translate(-3.7895,12.9123) scale(1.491228)" stroke-width="0.894118"><path d="M5.03,23.95c0,4.27,3.48,7.75,7.75,7.75s7.75-3.48,7.75-7.75-3.48-7.75-7.75-7.75-7.75,3.48-7.75,7.75Z" fill="none" stroke="#000" stroke-linecap="round" stroke-linejoin="round"/><path d="M35.24,16.3c-4.27,0-7.75,3.48-7.75,7.75s3.48,7.75,7.75,7.75,7.75-3.48,7.75-7.75-3.48-7.75-7.75-7.75Z" fill="none" stroke="#000" stroke-linecap="round" stroke-linejoin="round"/><path d="M27.51,23.11c-.26-1.95-2.06-3.33-4.01-3.06-1.27.17-2.3,1-2.79,2.1-.1.23-.18.47-.23.71h0" fill="none" stroke="#000" stroke-linecap="round" stroke-linejoin="round"/></g></svg>