<?xml version="1.0" encoding="UTF-8"?><svg id="Layer_2" xmlns="http://www.w3.org/2000/svg" viewBox="0 0 48 48"><g transform="translate(-2.4760,-1.9378) scale(1.087308)" stroke-width="0.919703"><rect x="18.9" y="21.74" width="10.47" height="10.47" rx=".85" ry=".85" transform="translate(-2.84 51.1) rotate(-90)" fill="none" stroke="#000" stroke-linecap="round" stroke-linejoin="round"/><path d="M26.04,27.98c0,1.19-.86,2.15-1.92,2.15s-1.92-.97-1.92-2.15,1.92-3.98,1.92-3.98c0,0,1.92,2.79,1.92,3.98h0Z" fill="none" stroke="#000" stroke-linecap="round" stroke-linejoin="round"/><line x1="15.05" y1="38.69" x2="33.21" y2="38.69" fill="none" stroke="#000" stroke-linecap="round" stroke-linejoin="round"/><line x1="15.05" y1="36.43" x2="33.21" y2="36.43" fill="none" stroke="#000" stroke-linecap="round" stroke-linejoin="round"/><rect x="19.82" y="14.5" width="8.62" height="2.24" fill="none" stroke="#000" stroke-linecap="round" stroke-linejoin="round"/><rect x="21.15" y="12.91" width="5.96" height="1.57" fill="none" stroke="#000" stroke-linecap="round" stroke-linejoin="round"/><path d="M25.08,7.98c-.09-.46-.48-.86-.98-.86s-.88.34-.98.85h0l-.95,4.95h3.92l-1.01-4.93h0Z" fill="none" stroke="#000" stroke-linecap="round" stroke-linejoin="round"/><path d="M17.65,16.77s-.06,0-.11,0c-1.43.02-2.55,1.25-2.51,2.67v22.45c0,.45.37.82.82.82h16.57c.45,0,.82-.37.82-.82v-22.45c.04-1.42-1.09-2.65-2.51-2.67-.06,0-.11,0-.11,0h-12.96Z" fill="none" stroke="#000" stroke-linecap="round" stroke-linejoin="round"/><path d="M32.14,7.53c.95.95,1.54,2.27,1.54,3.72,0,2.91-2.36,5.27-5.27,5.27" fill="none" stroke="#000" stroke-linecap="round" stroke-linejoin="round"/><path d="M30.44,8.73c-1.03-1.15-.92-2.42-.07-3.19s2.13-.73,3.16.42l-3.09,2.77Z" fill="none" stroke="#000" stroke-linecap="round" stroke-linejoin="round"/></g></svg>