<?xml version="1.0" encoding="UTF-8"?><svg xmlns="http://www.w3.org/2000/svg" width="48" height="48" viewBox="0 0 48 48"><g  transform="translate(0.0000,0.0000) scale(1.000000)"><g transform="translate(0.0000,0.0000)"><g transform="translate(0.0000,0.0000) scale(1.000000)"><g transform="translate(-1.3047,-1.3047) scale(1.067708)" stroke-width="0.936585"><path d="M18.93,30.8l-7.16-.04v3.74s-7.27-5.76-7.27-5.76l7.27-5.65v3.74s8.22-.02,8.22-.02l.72.02.03-18.79v-1.55h0c0-.75.6-1.36,1.36-1.36h19.37c.75,0,1.36.6,1.36,1.36v35.04c0,.75-.6,1.36-1.36,1.36h-19.37c-.75,0-1.36-.6-1.36-1.36h-.03v-9.72s.02-1.02.02-1.02l-1.81.02Z" fill="none" stroke="#000" stroke-linecap="round" stroke-linejoin="round"/></g></g></g></g></svg>