<?xml version="1.0" encoding="UTF-8"?><svg xmlns="http://www.w3.org/2000/svg" width="44.4" height="48" viewBox="0 0 44.4 48"><g  transform="translate(0.0000,0.0000) scale(1.000000)"><g transform="translate(-1.8000,0.0000)"><g transform="translate(1.8000,0.0000) scale(1.000000)"><g transform="translate(-3.6947,-1.8947) scale(1.078947)" stroke-width="0.926829"><defs><style>.cls-1{fill:none;stroke:#000;stroke-linecap:round;stroke-linejoin:round;}</style></defs><path class="cls-1" d="M32.88,21.86c-1.79,0-3.29-2.89-3.74-5.03-.94-.21-1.77-.86-2.36-1.79-.7.89-1.66,1.26-2.71,1.26s-2.01-.55-2.71-1.43c-.58.93-1.41,1.58-2.36,1.79-.46,2.14-2.12,3.84-3.91,3.84-.11,0-.21,0-.32-.02.49,6.02,3.24,12.87,9.3,12.93,5.46.06,8.63-5.56,9.12-11.57-.1.01-.21.02-.32.02h.01Z"/><path class="cls-1" d="M26.02,26.99c-.47.62-1.2,1.01-2.03,1.01-.88,0-1.65-.45-2.11-1.12"/><path class="cls-1" d="M16.53,27.62c-.3.1-.91.24-1.23.24-2.15,0-3.89-2.27-3.89-5.08,0-.66.1-1.29.27-1.85-.95-.93-1.56-2.4-1.56-4.06,0-2.08.95-3.86,2.33-4.65.17-2.6,1.92-4.09,3.88-4.64.73-.2,2.17-.2,2.76.27,1.42-2.02,2.75-2.8,5.02-2.8s3.97.82,5.4,2.84c.6-.48,1.87-.49,2.65-.21,1.92.67,3.44,1.94,3.61,4.55,1.37.79,2.33,2.57,2.33,4.65,0,1.66-.62,3.13-1.56,4.06.18.58.27,1.2.27,1.86,0,2.8-1.75,5.08-3.89,5.08-.33,0-.77-.13-1.08-.23l.09-.18c.68-1.46,1.18-3.82,1.33-5.6-.1.01-.21.02-.32.02-1.79,0-3.29-2.89-3.74-5.03-.94-.21-1.77-.86-2.36-1.79-.7.89-1.66,1.26-2.71,1.26s-2.01-.55-2.71-1.43c-.58.93-1.41,1.58-2.36,1.79-.46,2.14-2.12,3.85-3.91,3.85-.11,0-.21,0-.32-.02.16,1.92.71,5.08,1.68,7.05l.05.09v-.03h-.03Z"/><path class="cls-1" d="M25.98,18.61c.49-.46,1.16-.74,1.89-.74.57,0,1.09.17,1.53.46"/><path class="cls-1" d="M18.75,18.04c.3-.11.62-.17.95-.17.77,0,1.48.32,1.98.83"/><path class="cls-1" d="M21.11,21.67c-.4.22-.86.35-1.35.35s-.97-.14-1.37-.37"/><path class="cls-1" d="M29.28,21.67c-.4.22-.87.35-1.35.35s-.97-.14-1.37-.37"/><path class="cls-1" d="M17.51,20.73c.51-.66,1.31-1.1,2.21-1.1.95,0,1.79.49,2.29,1.22"/><path class="cls-1" d="M25.67,20.73c.51-.66,1.31-1.1,2.21-1.1.95,0,1.79.49,2.3,1.22"/><circle class="cls-1" cx="19.75" cy="20.24" r=".6"/><circle class="cls-1" cx="27.92" cy="20.24" r=".6"/><path class="cls-1" d="M29.94,30.62c3.29.16,6.47.78,9.04,2.1l-.03-.02c1.53.84,2.36,2.55,2.36,4.64v.19-.3,5.71H6.69v-5.71.3-.19c0-2.08.83-3.8,2.36-4.64l-.03.02c2.57-1.32,5.97-2.07,9.27-2.23,1.59,1.82,3.37,2.92,5.66,2.92s4.17-.95,5.81-2.55l.2-.23h-.02Z"/><path class="cls-1" d="M33.79,31.21l1.25.26h0c.59.11.44.11,1.01.27v.77s.01,10.44.01,10.44c0,0-23.94,0-23.94,0v-11.37c.62-.19,1.23-.33,1.88-.47l.03.02.08.19c0,6.42,4.39,11.63,9.81,11.63s9.81-5.21,9.81-11.63l.05-.11Z"/></g></g></g></g></svg>