<?xml version="1.0" encoding="UTF-8"?><svg id="Layer_2" xmlns="http://www.w3.org/2000/svg" viewBox="0 0 48 48"><g transform="translate(-1.7592,-0.3639) scale(1.073298)" stroke-width="0.931707"><defs><style>.cls-1{fill:none;stroke:#000;stroke-linecap:round;stroke-linejoin:round;}</style></defs><path class="cls-1" d="M33.97,16.81c-.03-.37-.06-.49-.12-.85v-.07s.08-.03.1-.04c.26-.08.54-.12.82-.12,1.54,0,2.79,1.25,2.79,2.79,0,.33-.05.65-.16.95l-1.87,5.89c-.2.64-.79,1.1-1.5,1.1s-1.34-.49-1.51-1.16v-.03s.03-.04.03-.04c.33-.67.57-1.34.79-2.09h.01"/><path class="cls-1" d="M33.36,23.14v.02-.02Z"/><path class="cls-1" d="M35.95,19.22c.05-.13.07-.27.07-.41,0-.66-.54-1.2-1.2-1.2-.18,0-.35.04-.51.12.03.32.05.65.05.99,0,1.1-.17,2.15-.46,3.11h0s.02.06.02.06c.12.2.33.34.59.34.3,0,.56-.2.64-.48l.8-2.54h0Z"/><path class="cls-1" d="M14.73,23.16h.01c.22.74.46,1.42.79,2.09l.02.04v.03c-.16.67-.8,1.16-1.5,1.16s-1.3-.46-1.5-1.1l-1.87-5.89c-.11-.3-.16-.61-.16-.95,0-1.54,1.25-2.79,2.79-2.79.29,0,.57.05.82.12.01,0,.1.04.1.04v.07c-.06.35-.1.48-.12.85"/><path class="cls-1" d="M12.13,19.24l.8,2.54c.08.27.34.48.64.48.25,0,.47-.14.59-.34l.02-.05h0c-.29-.98-.46-2.02-.46-3.13,0-.33.01-.67.05-.99-.16-.07-.33-.12-.51-.12-.66,0-1.2.54-1.2,1.2,0,.14.03.28.07.41h0Z"/><path class="cls-1" d="M15.5,10.34c-.61.83-1.04,2.23-1.38,3.58-.08.33-.22,1.04-.29,1.79.14.03.28.07.42.13h.01l.07.02c.72-.34,1.26-1.42,1.62-3.43.17-.95.14-1.59.09-1.93-.18-.05-.37-.11-.54-.16Z"/><path class="cls-1" d="M31.22,8.12s.03.02.04.03c.01.01.03.02.05.03-.05-.03-.09-.05-.09-.05Z"/><path class="cls-1" d="M33.85,15.88c-.79-.66-1.57-1.68-1.91-4.18-.16-1.14-.21-1.4-.21-1.4-2.18.72-4.78,1.16-7.65,1.19-3.16.04-6.47-.46-8.81-1.26-.04-.01-.06-.07-.03-.1,1.46-2.28,5.2-3.87,9.11-3.92,2.62-.03,5.17.79,6.92,1.93.07.04.13.08.2.13,1.23.87,2.79,3.05,3.22,5.21.08.41.24,1.36.27,2.24-.5,0-1.1.16-1.1.16h0Z"/><path class="cls-1" d="M31.94,11.71c-.14-1.14-.21-1.4-.21-1.4-2.12.74-4.72,1.15-7.65,1.19-2.77.05-5.74-.36-7.98-1l-.05.09c.03.37.03,1.08-.1,1.84-.35,2-.98,3.12-1.69,3.46-.12.81-.19,1.66-.19,2.51,0,7.15,4.47,12.95,9.99,12.95s9.99-5.8,9.99-12.95c0-.87-.07-1.72-.19-2.54-.84-.6-1.64-1.97-1.91-4.16h0Z"/><line class="cls-1" x1="12.68" y1="28.87" x2="12.68" y2="41.78"/><line class="cls-1" x1="18.93" y1="29.64" x2="18.93" y2="41.78"/><line class="cls-1" x1="6.68" y1="31.5" x2="6.68" y2="41.77"/><line class="cls-1" x1="20.73" y1="33.66" x2="20.73" y2="41.78"/><line class="cls-1" x1="14.45" y1="28.47" x2="14.45" y2="41.78"/><line class="cls-1" x1="8.49" y1="30.11" x2="8.49" y2="41.78"/><line class="cls-1" x1="35.42" y1="36.94" x2="35.42" y2="28.8"/><line class="cls-1" x1="29.17" y1="41.78" x2="29.17" y2="29.64"/><line class="cls-1" x1="41.41" y1="41.77" x2="41.41" y2="31.5"/><line class="cls-1" x1="27.37" y1="41.78" x2="27.37" y2="33.66"/><line class="cls-1" x1="33.65" y1="36.94" x2="33.65" y2="28.69"/><line class="cls-1" x1="39.61" y1="41.78" x2="39.61" y2="30.11"/><path class="cls-1" d="M31.7,41.78v-4.03c0-.38.31-.68.68-.68h4.84c.38,0,.68.31.68.68v4.03h-6.2,0Z"/><line class="cls-1" x1="9.25" y1="29.77" x2="19.16" y2="29.77"/><line class="cls-1" x1="29.25" y1="29.77" x2="38.83" y2="29.77"/><path class="cls-1" d="M24.05,31.36c-1.78,0-3.45-.61-4.89-1.66l4.85,11.85,5.01-11.91c-1.47,1.09-3.16,1.72-4.97,1.72Z"/><path class="cls-1" d="M26.26,23.86c-.51.67-1.32,1.1-2.22,1.1-.96,0-1.81-.49-2.31-1.23"/><path class="cls-1" d="M26.22,14.53c.5-.46,1.17-.75,1.9-.75.78,0,1.48.32,1.99.84"/><path class="cls-1" d="M18,14.53c.5-.46,1.17-.75,1.9-.75.78,0,1.48.32,1.99.84"/><path class="cls-1" d="M21.32,17.62c-.4.22-.87.35-1.36.35s-.97-.14-1.38-.37"/><path class="cls-1" d="M29.53,17.62c-.4.22-.87.35-1.36.35s-.97-.14-1.38-.37"/><path class="cls-1" d="M17.68,16.67c.51-.67,1.32-1.1,2.22-1.1.96,0,1.81.49,2.31,1.23"/><path class="cls-1" d="M25.9,16.67c.51-.67,1.32-1.1,2.22-1.1.96,0,1.81.49,2.31,1.23"/><path class="cls-1" d="M30.63,28.23c3.63.18,7.06.83,9.89,2.28l-.03-.02c1.68.93,2.6,2.81,2.6,5.11v.21-.33,6.29H4.92v-6.29.33-.21c0-2.3.91-4.18,2.6-5.11l-.03.02c2.83-1.45,6.32-2.21,9.96-2.39,1.76,2,4.07,3.22,6.59,3.22s4.5-1.12,6.31-2.89l.29-.24h0Z"/><line class="cls-1" x1="5.55" y1="33.65" x2="20.44" y2="33.67"/><line class="cls-1" x1="27.52" y1="33.65" x2="42.41" y2="33.67"/><line class="cls-1" x1="37.9" y1="37.72" x2="42.6" y2="37.74"/><line class="cls-1" x1="25.62" y1="37.73" x2="31.7" y2="37.74"/><line class="cls-1" x1="5.55" y1="37.72" x2="22.45" y2="37.74"/><circle class="cls-1" cx="19.93" cy="16.2" r=".61"/><circle class="cls-1" cx="28.16" cy="16.2" r=".61"/></g></svg>