<?xml version="1.0" encoding="UTF-8"?><svg xmlns="http://www.w3.org/2000/svg" width="32.4" height="48" viewBox="0 0 32.4 48"><g  transform="translate(0.0000,0.0000) scale(1.000000)"><g transform="translate(-7.8000,0.0000)"><g transform="translate(-2.1008,-2.1552) scale(1.087533)"><path d="M16.23,34.51h15.54l-3.04-7.12h0c-.36.05-.72.07-1.1.07h0s-7.36,0-7.36,0h.03c-.33,0-.65-.03-.97-.07l-3.1,7.11Z" fill="none" stroke="#000" stroke-linecap="round" stroke-linejoin="round"/><path d="M28.48,16.76h7.08v2.82h0c0,4.36-3.53,7.89-7.89,7.89h0s-7.36,0-7.36,0h.03c-4.44-.07-7.89-3.53-7.89-7.89h0s0-2.8,0-2.8l15.95-.03h.08Z" fill="none" stroke="#000" stroke-linecap="round" stroke-linejoin="round"/><path d="M22.28,14.23c-1.24,0-2.25-1-2.25-2.25s1-2.25,2.25-2.25c-1.24,0-2.25-1-2.25-2.25s1-2.25,2.25-2.25h-.02" fill="none" stroke="#000" stroke-linecap="round" stroke-linejoin="round" stroke-width="0.919512"/><path d="M27.92,14.23c-1.24,0-2.25-1-2.25-2.25s1-2.25,2.25-2.25c-1.24,0-2.25-1-2.25-2.25s1-2.25,2.25-2.25h-.02" fill="none" stroke="#000" stroke-linecap="round" stroke-linejoin="round" stroke-width="0.919512"/><line x1="16.23" y1="34.51" x2="12.62" y2="42.84" fill="none" stroke="#000" stroke-linecap="round" stroke-linejoin="round"/><line x1="31.77" y1="34.51" x2="35.38" y2="42.84" fill="none" stroke="#000" stroke-linecap="round" stroke-linejoin="round"/></g></g></g></svg>