<?xml version="1.0" encoding="UTF-8"?><svg id="Layer_2" xmlns="http://www.w3.org/2000/svg" viewBox="0 0 64 64"><g transform="translate(-3.8527,-3.8038) scale(1.493864)" stroke-width="0.892540"><path d="M24.86,5.33l-1.72,1.64-.03.03s-.02.05-.02.09c0,.04.03.1.03.1l.02.02,1.66,1.6v.04s-1.67,1.52-1.67,1.52l-.03.03s-.02.05-.02.09c0,.04.03.1.03.1l.02.02,1.65,1.59-.06.07-1.6,1.5-.03.03s-.02.05-.02.09c0,.04.03.1.03.1l.02.02,1.66,1.6v.06s-1.61,1.5-1.61,1.5l-.03.03s-.02.05-.02.09c0,.04.03.1.03.1l.02.02,1.59,1.53-.05.07-1.6,1.5-.03.03s-.02.05-.02.09c0,.04.03.1.03.1l.02.02,1.66,1.6v.02s-1.67,1.54-1.67,1.54l-.03.03s-.02.05-.02.09c0,.04.03.1.03.1l.02.02,1.61,1.62-.02.04-1.6,1.5-.03.03s-.02.05-.02.09c0,.04.03.1.03.1l.02.02,1.66,1.6-1.61,1.56-.03.03s-.02.05-.02.09c0,.04.03.1.03.1l.02.02,1.53,1.63v.03s-1.6,1.5-1.6,1.5l-.03.03s-.02.05-.02.09c0,.04.03.1.03.1l.02.02,1.66,1.6-1.72,1.56-.03.03s-.02.05-.02.09c0,.04.03.1.03.1l.02.02,1.66,1.6v.06s-1.61,1.5-1.61,1.5l-.03.03s-.02.05-.02.09c0,.04.03.1.03.1l.02.02,1.66,1.6" fill="none" stroke="#000" stroke-linecap="round" stroke-linejoin="round"/><path d="M30.05,5.1l-.11,37.83h0s-.24,0-.24,0h-11.32s-.43-.06-.43-.06l.43-37.81h11.67s0,.03,0,.03Z" fill="none" stroke="#000" stroke-linecap="round" stroke-linejoin="round"/></g></svg>