<?xml version="1.0" encoding="UTF-8"?><svg id="Layer_2" xmlns="http://www.w3.org/2000/svg" viewBox="0 0 48 48"><g transform="translate(-2.5294,0.3209) scale(1.096257)" stroke-width="0.912195"><path d="M17.06,29.46h1.69c.22,0,.39.18.39.39v1.98c0,.22-.18.39-.39.39h-1.18s-.51-2.77-.51-2.77Z" fill="none" stroke="#000" stroke-linecap="round" stroke-linejoin="round"/><circle cx="14.03" cy="19.79" r="5.89" fill="none" stroke="#000" stroke-linecap="round" stroke-linejoin="round"/><line x1="33.62" y1="11.5" x2="33.62" y2="20.44" fill="none" stroke="#000" stroke-linecap="round" stroke-linejoin="round"/><line x1="40.44" y1="15.68" x2="42.86" y2="15.68" fill="none" stroke="#000" stroke-linecap="round" stroke-linejoin="round"/><line x1="39.19" y1="18.81" x2="40.9" y2="20.51" fill="none" stroke="#000" stroke-linecap="round" stroke-linejoin="round"/><line x1="39.39" y1="12.62" x2="41.1" y2="10.91" fill="none" stroke="#000" stroke-linecap="round" stroke-linejoin="round"/><path d="M36.02,11.33H14.24c-.07,0-.14,0-.21,0-4.67,0-8.46,3.79-8.46,8.46,0,3.47,2.09,6.45,5.07,7.75l1.76,9.71.08.5c.24,1.59,1.67,2.63,3.25,2.49,1.66-.15,2.98-1.76,2.75-3.28l-1.72-9.16c2.44-.94,5.17-3.18,5.39-7.25h13.89c.1,0,.18-.08.18-.18v-8.87c0-.1-.08-.18-.18-.18Z" fill="none" stroke="#000" stroke-linecap="round" stroke-linejoin="round"/><line x1="11.13" y1="18.56" x2="16.5" y2="18.56" fill="none" stroke="#000" stroke-linecap="round" stroke-linejoin="round"/><line x1="11.13" y1="20.65" x2="16.5" y2="20.65" fill="none" stroke="#000" stroke-linecap="round" stroke-linejoin="round"/></g></svg>