<?xml version="1.0" encoding="UTF-8"?>
<svg id="Layer_2" xmlns="http://www.w3.org/2000/svg" version="1.1" viewBox="0 0 48 48"><g transform="translate(-1.7730,5.3218) scale(1.076115)" stroke-width="0.929268">
  <!-- Generator: Adobe Illustrator 30.3.0, SVG Export Plug-In . SVG Version: 2.1.3 Build 182)  -->
  <defs>
    <style>
      .st0 {
        fill: none;
        stroke: #000;
        stroke-linecap: round;
        stroke-linejoin: round;
      }
    </style>
  </defs>
  <path class="st0" d="M11.88,21.86h-5.84c-.66,0-1.09-.4-1.09-.93s.42-1,1.09-1h5.84c.66,0,1.07.45,1.07.98s-.41.95-1.07.95Z"/>
  <path class="st0" d="M5.86,19.93h6.12c-1.46-.45-3.06-1.81-3.08-3.42-.02,1.61-1.58,2.97-3.04,3.42"/>
  <path class="st0" d="M41.87,21.86h-5.84c-.66,0-1.09-.4-1.09-.93s.42-1,1.09-1h5.84c.66,0,1.07.45,1.07.98s-.41.95-1.07.95Z"/>
  <path class="st0" d="M35.86,19.93h6.12c-1.46-.45-3.06-1.81-3.08-3.42-.02,1.61-1.58,2.97-3.04,3.42"/>
  <path class="st0" d="M38.97,21.9c-3.21,5.09-10.05,7.26-15.3,7.26s-11.63-2.11-14.8-7.28c1.63,7.29,7.08,14.53,14.86,14.53s13.56-7.21,15.19-14.49"/>
  <line class="st0" x1="8.9" y1="14.99" x2="8.91" y2="16.51"/>
  <line class="st0" x1="38.9" y1="14.99" x2="38.9" y2="16.51"/>
</g></svg>