<?xml version="1.0" encoding="UTF-8"?><svg xmlns="http://www.w3.org/2000/svg" width="32.3" height="48" viewBox="0 0 32.3 48"><g  stroke-width="0.863415" transform="translate(-6.8288,-3.7757) scale(1.158192)">
  <!-- Generator: Adobe Illustrator 30.3.0, SVG Export Plug-In . SVG Version: 2.1.3 Build 182)  -->
  <defs>
    <style>
      .st0 {
        fill: none;
        stroke: #000;
        stroke-linecap: round;
        stroke-linejoin: round;
        stroke-width: 0.863415px;
      }
    </style>
  </defs>
  <path class="st0" d="M25.29,17.2h-10.87c-3,0-5.44,2.43-5.44,5.44v13.59c0,3,2.43,5.44,5.44,5.44h10.87c3,0,5.44-2.43,5.44-5.44v-13.59c0-3-2.43-5.44-5.44-5.44Z"/>
  <path class="st0" d="M8.98,9.05l1.13-1.13c1.02-1.02,2.4-1.59,3.84-1.59h12.7"/>
  <path class="st0" d="M25.29,17.2h-10.87v-2.72c0-1.5,1.22-2.72,2.72-2.72h5.44c1.5,0,2.72,1.22,2.72,2.72v2.72Z"/>
  <path class="st0" d="M19.85,11.77v-5.44"/>
</g></svg>