<?xml version="1.0" encoding="UTF-8"?><svg xmlns="http://www.w3.org/2000/svg" width="32.4" height="48" viewBox="0 0 32.4 48"><g  transform="translate(0.0000,0.0000) scale(1.000000)"><g transform="translate(-7.8000,0.0000)"><g transform="translate(7.8000,0.0000) scale(1.000000)"><g transform="translate(-9.8317,-2.1402) scale(1.084656)" stroke-width="0.921951"><path d="M21.64,22.35V7.6c0-1.29,1.04-2.33,2.33-2.33s2.33,1.04,2.33,2.33v14.75" fill="none" stroke="#000" stroke-linecap="round" stroke-linejoin="round"/><path d="M26.31,26.46v-14.82c0-1.29,1.04-2.33,2.33-2.33s2.33,1.04,2.33,2.33v17.24" fill="none" stroke="#000" stroke-linecap="round" stroke-linejoin="round"/><path d="M17,26.49v-14.75c0-1.29,1.04-2.33,2.33-2.33s2.33,1.04,2.33,2.33v15.22" fill="none" stroke="#000" stroke-linecap="round" stroke-linejoin="round"/><path d="M30.95,27.91v-7c0-1.29,1.13-2.11,2.4-2.11s2.33,1.04,2.33,2.33v6.6c.02,8.4-5.24,15.22-11.69,15.22s-11.64-6.82-11.64-15.22v-6.6c0-1.29,1.04-2.33,2.33-2.33s2.33,1.04,2.33,2.33v7" fill="none" stroke="#000" stroke-linecap="round" stroke-linejoin="round"/></g></g></g></g></svg>