<?xml version="1.0" encoding="UTF-8"?><svg id="Layer_2" xmlns="http://www.w3.org/2000/svg" viewBox="0 0 48 48"><g transform="translate(-2.2345,-2.1859) scale(1.093105)" stroke-width="0.914825"><path d="M33.29,24.21c.55-1.61.86-3.39.88-5.27v-.26c.05-7.32-4.45-13.31-10.07-13.39-5.61-.07-10.21,5.81-10.26,13.14v.26c-.01,2,.31,3.89.9,5.6" fill="none" stroke="#000" stroke-linecap="round" stroke-linejoin="round"/><path d="M10.9,24.53h-.3c-.08,0-.14.06-.14.14v.13h0c0,10.81,6,17.87,13.39,17.91h0s.03,0,.05,0c.02,0,.03,0,.05,0h0c7.39-.04,13.6-7.11,13.61-17.91h0v-.13c0-.08-.06-.14-.14-.14H10.9Z" fill="none" stroke="#000" stroke-linecap="round" stroke-linejoin="round"/></g></svg>