<?xml version="1.0" encoding="UTF-8"?><svg xmlns="http://www.w3.org/2000/svg" width="46" height="48" viewBox="0 0 46 48"><g  transform="translate(0.0000,0.0000) scale(1.000000)"><g transform="translate(-1.0000,0.0000)"><g transform="translate(1.0000,0.0000) scale(1.000000)"><g transform="translate(-2.8947,-1.8947) scale(1.078947)" stroke-width="0.926829"><defs><style>.cls-1{fill:none;stroke:#000;stroke-linecap:round;stroke-linejoin:round;}</style></defs><path class="cls-1" d="M28.54,31.74c-.13-.71.33-1.75.33-1.75.78-1.84,1.86-4.08,4.06-6.31,2.99-3.04,6.79-4.44,9.09-5.21-2.53-.55-7.63,1.32-11.74,3.84-.45.28-.89.56-1.31.85.27-.77.59-1.57.98-2.39,1.75-3.72,4.84-6.12,6.74-7.48-2.59.18-6.76,3.38-9.75,6.92-.37.44-.72.88-1.05,1.32.09-1.57.55-3.31,1.4-5.12,1.75-3.72,5.67-5.81,8.11-6.98-3.65-.2-8.94,2.58-12.49,5.91-.29.27-.57.55-.84.83-.49-1.04-1.09-2.13-1.8-3.21-2.52-3.84-6.24-7.45-8.8-7.91,1.71,1.56,4.48,4.27,5.74,8.16,1.23,3.8,1.39,7.08.4,8.91,0,0-.01,0-.02-.01-4.02-2.66-9.05-4.7-11.6-4.25,2.27.85,6.02,2.39,8.9,5.53,2.89,3.14,4.25,6.31,4.08,8.34l9.58.04h0Z"/><path class="cls-1" d="M29.05,35.59h-10.8c-.54,0-.98-.44-.98-.98s.44-.98.98-.98h10.8c.54,0,.98.44.98.98s-.44.98-.98.98Z"/><path class="cls-1" d="M29.05,33.69h-10.8c-.54,0-.98-.44-.98-.98s.44-.98.98-.98h10.8c.54,0,.98.44.98.98s-.44.98-.98.98Z"/><path class="cls-1" d="M28.46,35.75l-.02,4.79v-.24,2c0,.37-.3.67-.68.67l-8.18-.04c-.37,0-.68-.3-.68-.68,0,0,0,0,0,0v-2.45.24l.02-4.33"/></g></g></g></g></svg>