<?xml version="1.0" encoding="UTF-8"?><svg xmlns="http://www.w3.org/2000/svg" width="45" height="48" viewBox="0 0 45 48"><g  transform="translate(0.0000,0.0000) scale(1.000000)"><g transform="translate(-1.5000,0.0000)"><g transform="translate(1.5000,0.0000) scale(1.000000)"><g transform="translate(-3.5957,-2.0471) scale(1.087321)" stroke-width="0.919692"><path d="M28.59,33.47c-1.02,1.35-2.66,2.23-4.49,2.23-1.95,0-3.66-1-4.68-2.49" fill="none" stroke="#000" stroke-linecap="round" stroke-linejoin="round"/><path d="M24.04,42.81c9.5,0,17.22-8.43,17.22-18.79,0-1.73-.22-3.38-.6-4.97-1.59.54-3.3.83-5.08.83h0v-.02c-4.44,0-8.48-1.81-11.53-4.8l-.03.03c-3.06,2.97-7.08,4.78-11.5,4.78-1.78,0-3.47-.28-5.08-.83-.4,1.59-.6,3.26-.6,4.97,0,10.39,7.72,18.79,17.22,18.79" fill="none" stroke="#000" stroke-linecap="round" stroke-linejoin="round"/><path d="M41.39,18.57c-2.07-7.99-9.07-13.33-17.39-13.33s-15.32,5.35-17.39,13.33c1.73,1.09,4.04,1.3,5.91,1.3,4.63,0,8.27-1.74,11.45-4.7l.03-.03c3.19,2.99,6.94,4.73,11.57,4.73,1.85,0,4.14-.48,5.8-1.3h.02Z" fill="none" stroke="#000" stroke-linecap="round" stroke-linejoin="round"/><path d="M30.87,6.53c-2.13-.86-4.42-1.34-6.87-1.34-8.32,0-15.32,5.35-17.39,13.33,1.73,1.09,4.04,1.3,5.91,1.3,4.63,0,8.27-1.74,11.45-4.7l.03-.03c2.78-2.56,4.92-5.23,6.81-8.4l.07-.16h-.01Z" fill="none" stroke="#000" stroke-linecap="round" stroke-linejoin="round"/><path d="M17.8,27.01c-.57.31-1.24.5-1.92.5s-1.38-.21-1.95-.52" fill="none" stroke="#000" stroke-linecap="round" stroke-linejoin="round"/><path d="M33.74,27.01c-.57.31-1.24.5-1.92.5s-1.38-.21-1.95-.52" fill="none" stroke="#000" stroke-linecap="round" stroke-linejoin="round"/><path d="M12.67,24.83c.73-.93,1.86-1.57,3.14-1.57,1.35,0,2.54.69,3.26,1.73" fill="none" stroke="#000" stroke-linecap="round" stroke-linejoin="round"/><path d="M28.59,24.83c.73-.93,1.86-1.57,3.14-1.57,1.35,0,2.54.69,3.26,1.73" fill="none" stroke="#000" stroke-linecap="round" stroke-linejoin="round"/><circle cx="31.79" cy="26.09" r=".85" fill="none" stroke="#000" stroke-linecap="round" stroke-linejoin="round"/><circle cx="15.87" cy="26.09" r=".85" fill="none" stroke="#000" stroke-linecap="round" stroke-linejoin="round"/></g></g></g></g></svg>