<?xml version="1.0" encoding="UTF-8"?><svg id="Layer_2" xmlns="http://www.w3.org/2000/svg" viewBox="0 0 48 48"><g transform="translate(-2.0172,-2.0172) scale(1.081794)" stroke-width="0.924390"><path d="M11.87,24.36l-5.82,9.55c-.4.66.08,1.51.85,1.5l11.78-.12,4.5,7.22c.39.62,1.3.62,1.68,0l4.47-7.32,12.11-.13c.77,0,1.24-.86.83-1.51l-6.03-9.68v-.14s5.82-9.55,5.82-9.55c.4-.66-.08-1.51-.85-1.5l-11.78.12-4.5-7.22c-.39-.62-1.3-.62-1.68,0l-4.47,7.32-12.11.13c-.77,0-1.24.86-.83,1.51l6.03,9.68v.14Z" fill="none" stroke="#000" stroke-linecap="round" stroke-linejoin="round"/></g></svg>