<?xml version="1.0" encoding="UTF-8"?><svg id="Layer_2" xmlns="http://www.w3.org/2000/svg" viewBox="0 0 48 48"><g transform="translate(-2.6989,-2.1552) scale(1.087533)" stroke-width="0.919512"><path d="M18.66,30.41c.03.68.61,1.2,1.29,1.16.68-.03,1.2-.61,1.16-1.29h0c-.03-.68-.61-1.2-1.29-1.17-.68.03-1.2.61-1.16,1.29h0Z" fill="none" stroke="#000" stroke-linecap="round" stroke-linejoin="round"/><path d="M18.65,37.17c.03.68.62,1.21,1.3,1.17.68-.03,1.21-.62,1.17-1.3h0c-.03-.69-.62-1.21-1.3-1.18-.68.03-1.21.62-1.17,1.3h0Z" fill="none" stroke="#000" stroke-linecap="round" stroke-linejoin="round"/><path d="M39,11.89l-.09,30.04c0,.5-.41.92-.92.92l-26.94.04c-.5,0-.92-.41-.92-.92V6.14c0-.5.41-.92.92-.92h2.01l20.89.07" fill="none" stroke="#000" stroke-linecap="round" stroke-linejoin="round"/><line x1="33.95" y1="5.31" x2="38.99" y2="11.81" fill="none" stroke="#000" stroke-linecap="round" stroke-linejoin="round"/><polyline points="33.88 5.9 33.87 11.77 38.51 11.86 38.53 11.86" fill="none" stroke="#000" stroke-linecap="round" stroke-linejoin="round"/><path d="M19.82,19.12v-9.04" fill="none" stroke="#000" stroke-linecap="round" stroke-linejoin="round"/><path d="M15.3,14.59h9.04" fill="none" stroke="#000" stroke-linecap="round" stroke-linejoin="round"/><path d="M15.3,33.8h9.04" fill="none" stroke="#000" stroke-linecap="round" stroke-linejoin="round"/><path d="M27.91,27.48l6.4-6.39" fill="none" stroke="#000" stroke-linecap="round" stroke-linejoin="round"/><path d="M27.91,21.09l6.39,6.4" fill="none" stroke="#000" stroke-linecap="round" stroke-linejoin="round"/></g></svg>