<?xml version="1.0" encoding="UTF-8"?><svg id="Layer_2" xmlns="http://www.w3.org/2000/svg" viewBox="0 0 48 48"><g transform="translate(-2.1702,-2.1702) scale(1.090426)" stroke-width="0.917073"><path d="M23.58,42.7c6.35.15,5.87-3.05,5.87-4.5v-.04h0v-21.57H8.22v21.57h0v.05c0,1.45-.48,4.64,5.87,4.5h9.49Z" fill="none" stroke="#000" stroke-linecap="round" stroke-linejoin="round"/><path d="M37.21,28.74c.11-4.64-2.97-4.3-4.02-4.3h-1.14v10.4h1.11s.03,0,.03,0c1.06,0,4.13.35,4.02-4.3v-1.81Z" fill="none" stroke="#000" stroke-linecap="round" stroke-linejoin="round"/><path d="M39.79,27.23c.18-6.66-5.01-6.16-6.8-6.16h-.05s0,0,0,0h-3.46s0,17.13,0,17.13h3.46s0,0,0,0h.05c1.79,0,6.98.5,6.8-6.16v-4.82Z" fill="none" stroke="#000" stroke-linecap="round" stroke-linejoin="round"/><path d="M17.51,10.86c-.18-.07-.27-.27-.21-.45h0s1.14-3.07,1.14-3.07h0c.07-.18.27-.27.45-.21l3.15,1.16c.18.07.27.27.21.45l-1.13,3.07c-.07.18-.27.27-.45.21l-3.15-1.16Z" fill="none" stroke="#000" stroke-linecap="round" stroke-linejoin="round"/><path d="M22.78,12.8c-.18-.07-.27-.27-.21-.45h0s1.14-3.07,1.14-3.07h0c.07-.18.27-.27.45-.21l3.15,1.16c.18.07.27.27.21.45l-1.13,3.07c-.07.18-.27.27-.45.21l-3.15-1.16Z" fill="none" stroke="#000" stroke-linecap="round" stroke-linejoin="round"/><path d="M28.72,9.02l-10.18-3.74c-.59-.22-1.23.09-1.44.67l-3.93,10.64h4.16l-1.69-.62c-.18-.07-.27-.27-.21-.45h0s1.14-3.07,1.14-3.07c.07-.18.27-.27.45-.21l3.15,1.16c.18.07.27.27.21.45l-1.01,2.74h1.66l.81-2.2c.07-.18.27-.27.45-.21l3.15,1.16c.18.07.27.27.21.45l-.29.8h1.8l2.25-6.12c.22-.59-.09-1.23-.67-1.44Z" fill="none" stroke="#000" stroke-linecap="round" stroke-linejoin="round"/><path d="M20.16,13.4l-3.15-1.16c-.18-.07-.38.03-.45.21l-1.14,3.07h0c-.07.18.03.38.21.45l1.69.62h2.03l1.01-2.74c.07-.18-.03-.38-.21-.45Z" fill="none" stroke="#000" stroke-linecap="round" stroke-linejoin="round"/><path d="M25.43,15.34l-3.15-1.16c-.18-.07-.38.03-.45.21l-.81,2.2h4.32l.29-.8c.07-.18-.03-.38-.21-.45Z" fill="none" stroke="#000" stroke-linecap="round" stroke-linejoin="round"/></g></svg>