<?xml version="1.0" encoding="UTF-8"?><svg id="Layer_2" xmlns="http://www.w3.org/2000/svg" viewBox="0 0 64 64"><g transform="translate(-4.9099,-4.4505) scale(1.531532)" stroke-width="0.870588"><path d="M9.46,23.79c-.07,8.07,6.43,14.67,14.5,14.74s14.67-6.43,14.74-14.5v-.24c.07-8.07-6.43-14.67-14.5-14.74s-14.67,6.43-14.74,14.5v.24Z" fill="none" stroke="#000" stroke-linecap="round" stroke-linejoin="round"/><path d="M21.62,23.79c0,1.37,1.1,2.47,2.47,2.47s2.47-1.1,2.47-2.47-1.1-2.47-2.47-2.47-2.47,1.1-2.47,2.47h0Z" fill="none" stroke="#000" stroke-linecap="round" stroke-linejoin="round"/><line x1="24.09" y1="12.72" x2="24.09" y2="21.32" fill="none" stroke="#000" stroke-linecap="round" stroke-linejoin="round"/><line x1="26.29" y1="25.32" x2="30.83" y2="27.83" fill="none" stroke="#000" stroke-linecap="round" stroke-linejoin="round"/><path d="M11.03,36.85c7.21,7.21,18.89,7.21,26.1,0,7.21-7.21,7.21-18.89,0-26.1h0c-7.21-7.21-18.89-7.21-26.1,0-7.21,7.21-7.21,18.89,0,26.1Z" fill="none" stroke="#000" stroke-linecap="round" stroke-linejoin="round"/></g></svg>