<?xml version="1.0" encoding="UTF-8"?>
<svg id="Layer_2" xmlns="http://www.w3.org/2000/svg" version="1.1" viewBox="0 0 48 48"><g transform="translate(-2.0317,-2.2487) scale(1.084656)" stroke-width="0.921951">
  <!-- Generator: Adobe Illustrator 30.3.0, SVG Export Plug-In . SVG Version: 2.1.3 Build 182)  -->
  <defs>
    <style>
      .st0 {
        fill: none;
        stroke: #000;
        stroke-linecap: round;
        stroke-linejoin: round;
      }
    </style>
  </defs>
  <path class="st0" d="M19.22,43.04v-5.12h0l.04-9.08c0-.42.34-.75.75-.75h7.99c.42,0,.75.34.75.75v14.18s-9.55.02-9.55,0h0l.02.02Z"/>
  <path class="st0" d="M9.38,37.16h0v5.12c0,.42.34.75.75.75h27.73c.42,0,.75-.34.75-.75v-22.07H9.46l-.08,16.95Z"/>
  <path class="st0" d="M38.62,20.21l-14.14-14.64c-.34-.35-.9-.35-1.23,0l-13.79,14.63h29.16Z"/>
</g></svg>