<?xml version="1.0" encoding="UTF-8"?><svg xmlns="http://www.w3.org/2000/svg" width="39.4" height="48" viewBox="0 0 39.4 48"><g  transform="translate(0.0000,0.0000) scale(1.000000)"><g transform="translate(-4.3000,0.0000)"><g transform="translate(4.2649,-0.9876) scale(1.019900)">
  <!-- Generator: Adobe Illustrator 30.3.0, SVG Export Plug-In . SVG Version: 2.1.3 Build 182)  -->
  <defs>
    <style>
      .st0 {
        fill: none;
        stroke: #000;
        stroke-linecap: round;
        stroke-linejoin: round;
        stroke-width: 0.980488px;
      }
    </style>
  </defs>
  <path class="st0" d="M14.25,29.14c0-.46.37-.81.81-.81h8.67c.46,0,.81.37.81.81v15.38s-10.34.02-10.34.02l.04-15.4Z"/>
  <path class="st0" d="M35.19,20.59l-15.34-15.87c-.37-.38-.98-.38-1.33,0L3.56,20.59h0s31.63,0,31.63,0"/>
  <path class="st0" d="M35.18,20.6H3.56s0,23.91,0,23.91l31.62.03v-23.94h.01s0,0,0,0"/>
</g></g></g></svg>