<?xml version="1.0" encoding="UTF-8"?><svg xmlns="http://www.w3.org/2000/svg" width="48" height="48" viewBox="0 0 48 48"><g  transform="translate(0.0000,0.0000) scale(1.000000)"><g transform="translate(0.0000,0.0000)"><g transform="translate(-1.8947,-1.9026) scale(1.078947)"><circle cx="16.64" cy="25.67" r="7.9" fill="none" stroke="#000" stroke-linecap="round" stroke-linejoin="round"/><circle cx="32.44" cy="25.67" r="7.9" fill="none" stroke="#000" stroke-linecap="round" stroke-linejoin="round"/><path d="M26.78,31.33c1.42,1.38,3.35,2.24,5.49,2.24.07,0,.15,0,.22-.01.06,0,.12.01.18.01,2.3,0,4.1-1.15,5.81-2.56.76.36,1.56.9,2.29,1.63,1.25,1.25,1.99,2.69,2.09,3.84h0c.05.47.08.96.08,1.47v5.05h-20.34c-2.24,0-4.05-1.81-4.05-4.05s1.81-4.05,4.05-4.05h6.2c-.36-.76-.91-1.54-1.63-2.26l-.38-1.31Z" fill="none" stroke="#000" stroke-linecap="round" stroke-linejoin="round" stroke-width="0.926829"/><path d="M24.14,30.7c-.44-.2-.79-.26-1.16-.36-1.44,1.95-3.75,3.23-6.36,3.23-2.47,0-4.68-1.14-6.12-2.91-.14.05-.3.08-.44.13-.92.32-1.92.96-2.81,1.86-1.25,1.25-1.99,2.69-2.09,3.84h0c-.05.47-.08.96-.08,1.47v5.05h17.27c-2.32-.23-3.83-1.94-3.83-3.99,0-1.73,1.08-3.19,2.6-3.77.49-.21,1.04-.33,1.61-.33h6.02c-.36-.74-.9-1.5-1.6-2.2-.9-.9-2.05-1.63-3.01-2Z" fill="none" stroke="#000" stroke-linecap="round" stroke-linejoin="round" stroke-width="0.926829"/></g></g></g></svg>