<?xml version="1.0" encoding="UTF-8"?><svg id="Layer_2" xmlns="http://www.w3.org/2000/svg" viewBox="0 0 64 64"><g transform="translate(-4.4000,-3.9991) scale(1.503095)" stroke-width="0.887059"><path d="M31.51,21.23h-14.81c-1.09,0-1.79-.66-1.79-1.53s.7-1.65,1.79-1.65h14.81c1.09,0,1.77.73,1.77,1.61s-.68,1.57-1.77,1.57Z" fill="none" stroke="#000" stroke-linecap="round" stroke-linejoin="round"/><path d="M31.17,21.23l-6.88,21.45c-.12.12-.31.13-.45.03l-6.82-21.46,14.14-.03Z" fill="none" stroke="#000" stroke-linecap="round" stroke-linejoin="round"/><path d="M32.75,18.46c.51-.78.8-1.71.8-2.71,0-2.77-2.24-5.01-5.01-5.01s-5.01,2.24-5.01,5.01c0,.83.21,1.61.56,2.3h6.39" fill="none" stroke="#000" stroke-linecap="round" stroke-linejoin="round"/><path d="M17.73,18.05h6.38c-.36-.69-.58-1.47-.58-2.3,0-.98.29-1.89.77-2.66-.89-1.41-2.45-2.34-4.24-2.34-2.77,0-5.01,2.24-5.01,5.01,0,.89.23,1.72.64,2.45" fill="none" stroke="#000" stroke-linecap="round" stroke-linejoin="round"/><path d="M20.02,10.75c1.79,0,3.35.94,4.23,2.34.89-1.41,2.45-2.34,4.23-2.34.24,0,.48.02.72.06.03-.23.05-.46.05-.7,0-2.77-2.24-5.01-5.01-5.01s-5.01,2.24-5.01,5.01c0,.24.02.47.05.7.24-.03.47-.06.72-.06Z" fill="none" stroke="#000" stroke-linecap="round" stroke-linejoin="round"/></g></svg>