<?xml version="1.0" encoding="UTF-8"?><svg id="Layer_2" xmlns="http://www.w3.org/2000/svg" viewBox="0 0 64 64"><g transform="translate(-3.9162,2.1167) scale(1.496510)" stroke-width="0.890962"><defs><style>.cls-1{fill:none;stroke:#000;stroke-linecap:round;stroke-linejoin:round;}</style></defs><path class="cls-1" d="M10.64,20.22v1.35h26.33c-.05-.05,0-11.78,0-11.78,0-.37-.3-.68-.68-.68H11.32c-.37,0-.68.3-.68.68v10.43-9.23"/><path class="cls-1" d="M5.07,19.77c0,.98.61,1.78,1.37,1.78.75,0,1.37-.8,1.37-1.78h0c0-.98-.61-1.78-1.37-1.78-.75,0-1.37.8-1.37,1.78h0Z"/><line class="cls-1" x1="8.75" y1="21.55" x2="6.37" y2="21.55"/><ellipse class="cls-1" cx="41.56" cy="19.77" rx="1.37" ry="1.78"/><line class="cls-1" x1="39.25" y1="21.55" x2="41.63" y2="21.55"/><circle class="cls-1" cx="15.99" cy="25.56" r="2.62"/><circle class="cls-1" cx="31.95" cy="25.56" r="2.62"/><path class="cls-1" d="M11.74,33.32v3.99c0,.87.71,1.58,1.58,1.58s1.58-.71,1.58-1.58v-3.99c0-.13-.02-.24-.05-.36h-3.08c-.03.12-.05.24-.05.36h0Z"/><path class="cls-1" d="M33.69,33.32v3.99c0,.87.71,1.58,1.58,1.58s1.58-.71,1.58-1.58v-3.99c0-.13-.02-.24-.05-.36h-3.08c-.03.12-.05.24-.05.36h0Z"/><polygon class="cls-1" points="8.81 29.59 8.69 21.57 39.16 21.57 39.16 29.62 8.81 29.59"/><path class="cls-1" d="M39.41,29.62H8.44c-.37,0-.68.3-.68.68v1.17-.36,1.17c0,.37.3.68.68.68h30.97c.37,0,.68-.3.68-.68v-1.17c0-.92,0,.36,0,.36v-1.17c0-.37-.3-.68-.68-.68Z"/><path class="cls-1" d="M33.85,11.23H13.65c-.37,0-.68.3-.68.68h0v6.29-5.63,6.29c0,.37.3.68.68.68h20.2c.37,0,.68-.3.68-.68v-6.29c0-.83,0,5.63,0,5.63v-6.29c0-.37-.3-.68-.68-.68Z"/></g></svg>