<?xml version="1.0" encoding="UTF-8"?><svg id="Layer_2" xmlns="http://www.w3.org/2000/svg" viewBox="0 0 48 48"><g transform="translate(-1.9079,1.6680) scale(1.081585)" stroke-width="0.924569"><path d="M5.07,16.97c0-.58.47-1.06,1.06-1.06h35.71c.58,0,1.06.46,1.06,1.05h0v21.52c0,.58-.47,1.06-1.06,1.06H6.22c-.58,0-1.06-.47-1.06-1.06l-.09-21.51Z" fill="none" stroke="#000" stroke-linecap="round" stroke-linejoin="round"/><path d="M15.31,15.9v-5.89c0-.58.47-1.06,1.06-1.06h2.31l13.02.09c.58,0,1.06.47,1.06,1.06h0l-.02,5.78-17.43.02Z" fill="none" stroke="#000" stroke-linecap="round" stroke-linejoin="round"/><path d="M26.05,26.2v-.72c0-1.12-.91-2.03-2.03-2.03s-2.03.91-2.03,2.03v1.98s.01.07.02.11v.72c0,1.12.91,2.03,2.03,2.03s2.03-.91,2.03-2.03v-1.98s-.01-.07-.02-.11Z" fill="none" stroke="#000" stroke-linecap="round" stroke-linejoin="round"/><path d="M22.01,25.48c0-1.12.91-2.03,2.03-2.03s2.03.91,2.03,2.03v1.08s16.83-4.44,16.83-4.44v-4.41" fill="none" stroke="#000" stroke-linecap="round" stroke-linejoin="round"/><line x1="40.63" y1="15.9" x2="6.28" y2="15.89" fill="none" stroke="#000" stroke-linecap="round" stroke-linejoin="round"/><polyline points="21.64 26.42 5.08 22.18 5.08 17.77" fill="none" stroke="#000" stroke-linecap="round" stroke-linejoin="round"/></g></svg>