<?xml version="1.0" encoding="UTF-8"?><svg id="Layer_2" xmlns="http://www.w3.org/2000/svg" viewBox="0 0 64 64"><g transform="translate(-4.5591,-3.7975) scale(1.523297)" stroke-width="0.875294"><path d="M7.82,42.04c-1.3,0-2.35-1.05-2.35-2.35h-.05l.05-31.38h0c0-1.3,1.05-2.35,2.35-2.35h32.41c1.3,0,2.35,1.05,2.35,2.35v31.38c0,1.3-1.05,2.35-2.35,2.35H7.82Z" fill="none" stroke="#000" stroke-linecap="round" stroke-linejoin="round"/><path d="M31.33,5.96v23.44-.1.1c0,.48-.39.86-.86.86H5.42" fill="none" stroke="#000" stroke-linecap="round" stroke-linejoin="round"/><path d="M34.7,5.96v26.44-.12.12c0,.54-.43.97-.97.97H5.47" fill="none" stroke="#000" stroke-linecap="round" stroke-linejoin="round"/><line x1="34.57" y1="9.58" x2="31.43" y2="6.45" fill="none" stroke="#000" stroke-linecap="round" stroke-linejoin="round"/><line x1="34.57" y1="6.45" x2="31.43" y2="9.58" fill="none" stroke="#000" stroke-linecap="round" stroke-linejoin="round"/><line x1="34.57" y1="15.43" x2="31.43" y2="12.3" fill="none" stroke="#000" stroke-linecap="round" stroke-linejoin="round"/><line x1="34.57" y1="12.3" x2="31.43" y2="15.43" fill="none" stroke="#000" stroke-linecap="round" stroke-linejoin="round"/><line x1="34.57" y1="27.13" x2="31.43" y2="24" fill="none" stroke="#000" stroke-linecap="round" stroke-linejoin="round"/><line x1="34.57" y1="24" x2="31.43" y2="27.13" fill="none" stroke="#000" stroke-linecap="round" stroke-linejoin="round"/><line x1="28.7" y1="33.22" x2="25.91" y2="30.43" fill="none" stroke="#000" stroke-linecap="round" stroke-linejoin="round"/><line x1="28.7" y1="30.43" x2="25.91" y2="33.22" fill="none" stroke="#000" stroke-linecap="round" stroke-linejoin="round"/><line x1="22.88" y1="33.22" x2="20.09" y2="30.43" fill="none" stroke="#000" stroke-linecap="round" stroke-linejoin="round"/><line x1="22.88" y1="30.43" x2="20.09" y2="33.22" fill="none" stroke="#000" stroke-linecap="round" stroke-linejoin="round"/><line x1="17.05" y1="33.22" x2="14.26" y2="30.43" fill="none" stroke="#000" stroke-linecap="round" stroke-linejoin="round"/><line x1="17.05" y1="30.43" x2="14.26" y2="33.22" fill="none" stroke="#000" stroke-linecap="round" stroke-linejoin="round"/><line x1="11.23" y1="33.22" x2="8.44" y2="30.43" fill="none" stroke="#000" stroke-linecap="round" stroke-linejoin="round"/><line x1="11.23" y1="30.43" x2="8.44" y2="33.22" fill="none" stroke="#000" stroke-linecap="round" stroke-linejoin="round"/><line x1="34.57" y1="21.28" x2="31.43" y2="18.15" fill="none" stroke="#000" stroke-linecap="round" stroke-linejoin="round"/><line x1="34.57" y1="18.15" x2="31.43" y2="21.28" fill="none" stroke="#000" stroke-linecap="round" stroke-linejoin="round"/><line x1="34.37" y1="32.9" x2="31.43" y2="29.97" fill="none" stroke="#000" stroke-linecap="round" stroke-linejoin="round"/><line x1="34.57" y1="29.97" x2="31.43" y2="33.1" fill="none" stroke="#000" stroke-linecap="round" stroke-linejoin="round"/></g></svg>