<?xml version="1.0" encoding="UTF-8"?><svg id="Layer_2" xmlns="http://www.w3.org/2000/svg" viewBox="0 0 64 64"><g transform="translate(-3.4608,-3.6596) scale(1.474463)" stroke-width="0.904284"><path d="M21.92,27.41h-5.19c-.25,0-.47-.2-.47-.45v-14.88c0-.24.21-.44.47-.44h14.63c.25,0,.47.2.47.45v14.88c0,.24-.21.44-.47.44h-9.44Z" fill="none" stroke="#000" stroke-linecap="round" stroke-linejoin="round"/><path d="M31.82,12.21c0-3.47-2.87-6.39-6.2-7.06-4.69-.95-9.39,2.47-9.36,7.25" fill="none" stroke="#000" stroke-linecap="round" stroke-linejoin="round"/><line x1="19.27" y1="30.35" x2="17.61" y2="42.87" fill="none" stroke="#000" stroke-linecap="round" stroke-linejoin="round"/><line x1="30.47" y1="43.34" x2="29.16" y2="30.35" fill="none" stroke="#000" stroke-linecap="round" stroke-linejoin="round"/><polygon points="19.63 27.42 28.85 27.4 29.16 30.35 19.27 30.35 19.63 27.42" fill="none" stroke="#000" stroke-linecap="round" stroke-linejoin="round"/><line x1="19.27" y1="30.35" x2="29.76" y2="36.28" fill="none" stroke="#000" stroke-linecap="round" stroke-linejoin="round"/><line x1="29.16" y1="30.35" x2="18.58" y2="36.28" fill="none" stroke="#000" stroke-linecap="round" stroke-linejoin="round"/></g></svg>