<?xml version="1.0" encoding="UTF-8"?><svg xmlns="http://www.w3.org/2000/svg" width="48" height="48" viewBox="0 0 48 48"><g  transform="translate(0.0000,0.0000) scale(1.000000)"><g transform="translate(0.0000,0.0000)"><g transform="translate(0.0000,0.0000) scale(1.000000)"><g transform="translate(-2.2793,-2.2883) scale(1.090426)" stroke-width="0.917073"><path d="M28.76,33.62c0,2.58,2.08,4.68,4.68,4.68s4.68-2.08,4.68-4.68h0c0-2.58-2.08-4.68-4.68-4.68s-4.68,2.08-4.68,4.68h0Z" fill="none" stroke="#000" stroke-linecap="round" stroke-linejoin="round"/><path d="M24.06,42.88l.03-17.8c0-.4.33-.74.74-.74h17.25c.4,0,.74.33.74.74v17.09c0,.4-.33.74-.74.74h-18.75s-15,0-15,0h-2.28c-.4,0-.74-.33-.74-.74,0,0,0-7.78,0-7.78l.03-9.31c0-.4.33-.74.74-.74h17.25c.4,0,.74.33.74.74" fill="none" stroke="#000" stroke-linecap="round" stroke-linejoin="round"/><path d="M14.86,15.79l.03-9.31c0-.4.33-.74.74-.74h17.25c.4,0,.74.33.74.74v17.09c0,.4-.33.74-.74.74H15.6c-.4,0-.74-.33-.74-.74,0,0,0-7.78,0-7.78Z" fill="none" stroke="#000" stroke-linecap="round" stroke-linejoin="round"/><path d="M23.49,10.41l-4.4,7.61c-.33.58.08,1.3.75,1.3h8.79c.67,0,1.08-.72.75-1.3l-4.4-7.61c-.33-.58-1.16-.58-1.5,0l-4.4,7.61c-.33.58.08,1.3.75,1.3h8.79c.67,0,1.08-.72.75-1.3l-4.4-7.61c-.33-.58-1.16-.58-1.5,0Z" fill="none" stroke="#000" stroke-linecap="round" stroke-linejoin="round"/><path d="M14.69,28.3l1.21,3.71c.05.15.19.25.34.25h3.9l-3.16,2.29c-.13.09-.18.25-.13.4l1.21,3.71-3.16-2.29c-.13-.09-.3-.09-.42,0l-3.16,2.29,1.21-3.71c.05-.15,0-.31-.13-.4l-3.16-2.29h3.9c.15,0,.29-.1.34-.25l1.21-3.71Z" fill="none" stroke="#000" stroke-linecap="round" stroke-linejoin="round"/></g></g></g></g></svg>