<?xml version="1.0" encoding="UTF-8"?><svg xmlns="http://www.w3.org/2000/svg" width="16.9" height="48" viewBox="0 0 16.9 48"><g  transform="translate(0.0000,0.0000) scale(1.000000)"><g transform="translate(-15.5000,0.0000)"><g transform="translate(15.5000,0.0000) scale(1.000000)"><g transform="translate(-17.4090,-1.9090) scale(1.081794)" stroke-width="0.924390"><path d="M26.92,26.1h-5.96c-.86,0-1.55-.7-1.55-1.55s.7-1.55,1.55-1.55h5.96c.86,0,1.55.7,1.55,1.55s-.7,1.55-1.55,1.55Z" fill="none" stroke="#000" stroke-linecap="round" stroke-linejoin="round"/><path d="M21.37,26.1v15.89c0,.48.39.85.87.86h3.48c.48,0,.86-.37.86-.86v-15.89h-5.22,0s0,0,0,0Z" fill="none" stroke="#000" stroke-linecap="round" stroke-linejoin="round"/><path d="M25.62,7.43c.17.17.27.41.28.65h0l-.04,2.18v12.66s-3.88,0-3.88,0v-12l.04-2.81h0c0-.25.11-.47.25-.62h0l1.47-2.34.03-.03s.11-.04.14-.04.07,0,.13.03l.05.05,1.53,2.29h0Z" fill="none" stroke="#000" stroke-linecap="round" stroke-linejoin="round"/></g></g></g></g></svg>