<?xml version="1.0" encoding="UTF-8"?><svg xmlns="http://www.w3.org/2000/svg" width="48" height="48" viewBox="0 0 48 48"><g  transform="translate(0.0000,0.0000) scale(1.000000)"><g transform="translate(0.0000,0.0000)"><g transform="translate(0.0000,0.0000) scale(1.000000)"><g transform="translate(-2.0612,-2.2793) scale(1.090426)" stroke-width="0.917073"><circle cx="23.66" cy="25.99" r="13.61" fill="none" stroke="#000" stroke-linecap="round" stroke-linejoin="round"/><path d="M12.39,33.61l-7.04,7.83c-.27.3-.32.75-.08,1.07.03.04.06.08.1.11,0,0,0,0,.01.01,0,0,0,0,0,0,.32.3.82.27,1.15-.02l7.7-6.83c-.69-.66-1.31-1.39-1.85-2.19Z" fill="none" stroke="#000" stroke-linecap="round" stroke-linejoin="round"/><path d="M41.63,6.34c-1.33-1.33-3.48-1.33-4.8,0-.93.93-1.19,2.26-.82,3.43l-1.47,1.48-3.36,3.38c.87.57,1.66,1.25,2.37,2l3.08-3.08,1.57-1.57c1.17.37,2.5.11,3.43-.82,1.33-1.33,1.33-3.48,0-4.8Z" fill="none" stroke="#000" stroke-linecap="round" stroke-linejoin="round"/><line x1="20.35" y1="39.15" x2="20.34" y2="12.97" fill="none" stroke="#000" stroke-linecap="round" stroke-linejoin="round"/><line x1="23.96" y1="39.53" x2="23.96" y2="12.51" fill="none" stroke="#000" stroke-linecap="round" stroke-linejoin="round"/><line x1="27.5" y1="39.07" x2="27.5" y2="12.97" fill="none" stroke="#000" stroke-linecap="round" stroke-linejoin="round"/><line x1="31.12" y1="37.3" x2="31.12" y2="14.64" fill="none" stroke="#000" stroke-linecap="round" stroke-linejoin="round"/><line x1="31.29" y1="33.32" x2="37.09" y2="27.37" fill="none" stroke="#000" stroke-linecap="round" stroke-linejoin="round"/><line x1="31.16" y1="28.73" x2="36.96" y2="22.93" fill="none" stroke="#000" stroke-linecap="round" stroke-linejoin="round"/><line x1="31.3" y1="23.43" x2="35.36" y2="19.37" fill="none" stroke="#000" stroke-linecap="round" stroke-linejoin="round"/><line x1="17.07" y1="37.66" x2="20.19" y2="34.54" fill="none" stroke="#000" stroke-linecap="round" stroke-linejoin="round"/><line x1="10.52" y1="28.97" x2="20.17" y2="19.32" fill="none" stroke="#000" stroke-linecap="round" stroke-linejoin="round"/><line x1="10.33" y1="24.23" x2="20.2" y2="14.36" fill="none" stroke="#000" stroke-linecap="round" stroke-linejoin="round"/><line x1="11.91" y1="32.69" x2="20.31" y2="24.29" fill="none" stroke="#000" stroke-linecap="round" stroke-linejoin="round"/><line x1="31.15" y1="18.46" x2="33.16" y2="16.44" fill="none" stroke="#000" stroke-linecap="round" stroke-linejoin="round"/><line x1="14.12" y1="35.48" x2="20.26" y2="29.34" fill="none" stroke="#000" stroke-linecap="round" stroke-linejoin="round"/></g></g></g></g></svg>