<?xml version="1.0" encoding="UTF-8"?><svg xmlns="http://www.w3.org/2000/svg" width="48" height="48" viewBox="0 0 48 48"><g  transform="translate(0.0000,0.0000) scale(1.000000)"><g transform="translate(0.0000,0.0000)"><g transform="translate(0.0000,0.0000) scale(1.000000)"><g transform="translate(-2.0317,-1.4894) scale(1.084656)" stroke-width="0.921951"><path d="M30.79,20.42c-.04.13-.12.29-.21.45-2.49.82-4.87.87-6.56.24.47-.17.9-.41,1.25-.68.24-.18.24-.19.01-.02.39-.31.72-.72.91-1.18.5-1.15.27-2.51-.57-3.83-.39-.66-.95-1.31-1.61-1.91-.95-.88-2.14-1.68-3.52-2.31-.1-.06-.21-.1-.32-.16-4.48-1.97-8.98-1.46-10.11,1.12-.17.39-.27.83-.27,1.27,0,2.42,2.51,5.29,6.28,6.94.46.2.93.37,1.38.53.27.45.66.94.94,1.21l5.62,5.62-14.51,14.5c-.16.15-.41.16-.57,0l-.35-.32-1.67-1.6-.3-.29c-.16-.16-.16-.43,0-.58l8.67-8.69,5.14-5.14c-1.93-.16-3.96-.68-5.98-1.57-5.65-2.49-9.28-7.04-9.28-11.18,0-.91.17-1.79.54-2.63,2.02-4.59,9.18-5.92,16.08-2.9.78.35,1.52.73,2.22,1.15,1.34.8,2.52,1.71,3.52,2.71.17.17.35.35.5.52,1.06,1.18,1.89,2.43,2.41,3.71.69,1.7.86,3.43.36,5.03h.02Z" fill="none" stroke="#000" stroke-linecap="round" stroke-linejoin="round"/><path d="M20.51,11.16c-.17.17-.35.35-.5.52-1.06,1.18-1.89,2.43-2.41,3.71-.69,1.7-.86,3.43-.36,5.03.04.13.12.29.21.45-.45-.16-.91-.32-1.38-.53-3.77-1.67-6.28-4.52-6.28-6.94,0-.44.09-.87.27-1.27,1.13-2.58,5.63-3.09,10.11-1.12.12.06.22.1.32.16h.01Z" fill="none" stroke="#000" stroke-linecap="round" stroke-linejoin="round"/><path d="M26.2,19.21c-.2.46-.52.86-.91,1.18-.26.21-.27.22-.01.02-.36.28-.78.52-1.25.68-.47-.17-.9-.41-1.25-.68-.24-.18-.24-.19-.01-.02-.39-.31-.72-.72-.91-1.18-.5-1.15-.27-2.51.57-3.83.39-.66.95-1.31,1.61-1.91.66.6,1.21,1.25,1.61,1.91.83,1.32,1.06,2.68.57,3.83h-.02Z" fill="none" stroke="#000" stroke-linecap="round" stroke-linejoin="round"/><path d="M24.02,8.46c.69-.43,1.43-.81,2.22-1.15,6.89-3.02,14.05-1.69,16.08,2.9.37.83.54,1.71.54,2.63,0,4.13-3.63,8.7-9.28,11.18-2.02.88-4.05,1.41-5.98,1.57l5.14,5.14,8.67,8.69c.16.16.16.43,0,.58l-.3.29-1.67,1.6-.35.32c-.16.16-.41.15-.57,0l-14.5-14.5" fill="none" stroke="#000" stroke-linecap="round" stroke-linejoin="round"/><path d="M21.04,24.73l-2.64-2.64c-.28-.28-.67-.76-.94-1.21-.09-.16-.17-.31-.21-.45-.5-1.6-.35-3.33.36-5.03.52-1.28,1.33-2.53,2.41-3.71.16-.17.32-.35.5-.52,1.38.64,2.56,1.42,3.52,2.31-.66.6-1.21,1.25-1.61,1.91-.83,1.32-1.06,2.68-.57,3.83.2.46.52.86.91,1.18.26.21.27.22.01.02.36.28.78.52,1.25.68" fill="none" stroke="#000" stroke-linecap="round" stroke-linejoin="round"/><path d="M25.63,15.39c.83,1.32,1.06,2.68.57,3.83-.2.46-.52.86-.91,1.18-.26.21-.27.22-.01.02-.36.28-.78.52-1.25.68-.47-.17-.9-.41-1.25-.68-.24-.18-.24-.19-.01-.02-.39-.31-.72-.72-.91-1.18-.5-1.15-.27-2.51.57-3.83.39-.66.95-1.31,1.61-1.91.66.6,1.21,1.25,1.61,1.91h-.02Z" fill="none" stroke="#000" stroke-linecap="round" stroke-linejoin="round"/><path d="M38.24,13.4c0,2.42-2.51,5.29-6.28,6.94-.46.2-.93.37-1.38.53.09-.16.17-.31.21-.45.5-1.6.35-3.33-.36-5.03-.52-1.28-1.33-2.53-2.41-3.71-.16-.17-.32-.35-.5-.52.1-.06.21-.1.32-.16,4.48-1.97,8.98-1.46,10.11,1.12.17.39.27.83.27,1.27h.01Z" fill="none" stroke="#000" stroke-linecap="round" stroke-linejoin="round"/></g></g></g></g></svg>