<?xml version="1.0" encoding="UTF-8"?><svg xmlns="http://www.w3.org/2000/svg" width="34" height="48" viewBox="0 0 34 48"><g  transform="translate(0.0000,0.0000) scale(1.000000)"><g transform="translate(-7.0000,0.0000)"><g transform="translate(6.9000,0.0000) scale(1.000000)"><g transform="translate(-8.9317,-2.0317) scale(1.084656)" stroke-width="0.921951"><path d="M28.5,36.58v1.81c0,2.49-2.01,4.5-4.5,4.5s-4.5-2.01-4.5-4.5v-1.76l9-.05Z" fill="none" stroke="#000" stroke-linecap="round" stroke-linejoin="round"/><path d="M29.76,36.59h-11.53c-.58,0-1.05-.47-1.05-1.05s.47-1.05,1.05-1.05h11.53c.58,0,1.05.47,1.05,1.05s-.47,1.05-1.05,1.05Z" fill="none" stroke="#000" stroke-linecap="round" stroke-linejoin="round"/><path d="M29.76,34.56h-11.53c-.58,0-1.05-.47-1.05-1.05s.47-1.05,1.05-1.05h11.53c.58,0,1.05.47,1.05,1.05s-.47,1.05-1.05,1.05Z" fill="none" stroke="#000" stroke-linecap="round" stroke-linejoin="round"/><path d="M18.63,32.47h0c0-1.41-.17-1.59-.52-2.96l-1.56-4.93c-.8-3.18.29-6.67,3.02-8.51,1.27-.86,2.8-1.36,4.44-1.36s3.17.5,4.44,1.36c2.73,1.85,3.82,5.36,2.98,8.55l-1.4,4.07c-.36,1.37-.54,1.55-.54,2.97h0v.8h-10.86Z" fill="none" stroke="#000" stroke-linecap="round" stroke-linejoin="round"/><line x1="24.05" y1="10.97" x2="24.05" y2="5.18" fill="none" stroke="#000" stroke-linecap="round" stroke-linejoin="round"/><line x1="28.32" y1="11.96" x2="31.49" y2="7.03" fill="none" stroke="#000" stroke-linecap="round" stroke-linejoin="round"/><line x1="31.84" y1="15.28" x2="36.45" y2="12.42" fill="none" stroke="#000" stroke-linecap="round" stroke-linejoin="round"/><line x1="16.44" y1="15.28" x2="11.55" y2="12.42" fill="none" stroke="#000" stroke-linecap="round" stroke-linejoin="round"/><line x1="19.61" y1="11.96" x2="16.77" y2="7.03" fill="none" stroke="#000" stroke-linecap="round" stroke-linejoin="round"/></g></g></g></g></svg>