<?xml version="1.0" encoding="UTF-8"?>
<svg id="Layer_2" xmlns="http://www.w3.org/2000/svg" version="1.1" viewBox="0 0 64 64"><g transform="translate(-3.8839,-3.9587) scale(1.495163)" stroke-width="0.891765">
  <!-- Generator: Adobe Illustrator 30.3.0, SVG Export Plug-In . SVG Version: 2.1.3 Build 182)  -->
  <defs>
    <style>
      .st0 {
        fill: none;
        stroke: #000;
        stroke-linecap: round;
        stroke-linejoin: round;
      }
    </style>
  </defs>
  <path class="st0" d="M13.96,42.87c-.09.09-.24.1-.34,0l-.38-.37-.83-.84c-.09-.09-.1-.24,0-.34h0l2.67-2.74c.09-.09.24-.1.34,0l1.23,1.19c.09.09.1.24,0,.34,0,0-2.69,2.76-2.69,2.76Z"/>
  <path class="st0" d="M31.36,39.82c-.09-.1-.09-.25,0-.34l1.23-1.19c.1-.09.25-.09.34,0l2.67,2.74h0c.09.1.09.25,0,.34l-.83.84-.38.37c-.1.09-.25.09-.34,0,0,0-2.69-2.76-2.69-2.76Z"/>
  <path class="st0" d="M15.13,37.88l6.86-6.86,2.15,2.15-6.83,6.83c-.12.12-.31.12-.43,0l-1.75-1.68c-.12-.12-.13-.32,0-.44Z"/>
  <path class="st0" d="M32.75,21.69c.39.37.66.85.66,1.43,0,.51-.2.96-.53,1.3l-6.6,6.6-2.15-2.15,5.61-5.61-5.61-5.61,2.21-2.21,6.41,6.24"/>
  <path class="st0" d="M16.49,5.13h15.65c1.03,0,1.87.84,1.87,1.87,0,.51-.2.96-.53,1.3h0l-7.14,7.15-2.21,2.21-5.61,5.61,5.61,5.61,2.15,2.15,6.57,6.58c.12.12.12.32,0,.44l-1.75,1.68c-.12.12-.31.11-.43,0l-6.54-6.54-2.15-2.15-6.56-6.56h0c-.34-.34-.56-.81-.56-1.33s.23-1.03.6-1.38l6.46-6.3,2.21-2.15,4.72-4.59c.21-.21.06-.56-.23-.56h-8.96c-.29,0-.44.36-.23.56h0l4.71,4.58-2.21,2.15-6.87-6.87c-1.27-1.27-.37-3.45,1.43-3.45h0"/>
</g></svg>