<?xml version="1.0" encoding="UTF-8"?><svg id="Layer_2" xmlns="http://www.w3.org/2000/svg" viewBox="0 0 48 48"><g transform="translate(-2.0317,-2.0317) scale(1.084656)" stroke-width="0.921951"><path d="M25.98,21.93l.02,3.01-.04,12.79" fill="none" stroke="#000" stroke-linecap="round" stroke-linejoin="round"/><path d="M22.03,37.72l-.02-14.69.02-1.29" fill="none" stroke="#000" stroke-linecap="round" stroke-linejoin="round"/><path d="M22.94,37.72c-4.64-.11-4.3,2.97-4.3,4.02v1.14s10.4,0,10.4,0v-1.11s0-.03,0-.03c0-1.06.35-4.13-4.3-4.02h-1.81s.01,0,.01,0Z" fill="none" stroke="#000" stroke-linecap="round" stroke-linejoin="round"/><path d="M15.57,21.74c-.65,0-1.19-.53-1.19-1.19h-.02l2.35-14.25h0c0-.65.53-1.19,1.19-1.19h12.23c.65,0,1.19.53,1.19,1.19l2.33,14.25c0,.65-.53,1.19-1.19,1.19H15.57Z" fill="none" stroke="#000" stroke-linecap="round" stroke-linejoin="round"/></g></svg>