<?xml version="1.0" encoding="UTF-8"?><svg xmlns="http://www.w3.org/2000/svg" width="48" height="48" viewBox="0 0 48 48"><g  transform="translate(0.0000,0.0000) scale(1.000000)"><g transform="translate(0.0000,0.0000)"><g transform="translate(0.0000,0.0000) scale(1.000000)"><g transform="translate(-1.8947,1.4500) scale(1.078947)" stroke-width="0.926829"><path d="M39.54,39.81l-8.06-6.75c-.17-.14-.39-.22-.61-.22H7.03c-1.07,0-1.96-.87-1.96-1.96v-2.05l.17-18.06c0-1.07.87-1.96,1.96-1.96h33.79c1.07,0,1.96.87,1.96,1.96v20.11c0,1.07-.87,1.96-1.96,1.96h-3.61l2.15,6.98h0Z" fill="none" stroke="#000" stroke-linecap="round" stroke-linejoin="round"/><line x1="14.5" y1="20.67" x2="33.57" y2="20.67" fill="none" stroke="#000" stroke-linecap="round" stroke-linejoin="round"/><path d="M14.5,20.67c0,5.27,4.27,9.53,9.53,9.53" fill="none" stroke="#000" stroke-linecap="round" stroke-linejoin="round"/><path d="M14.5,20.67c0-5.26,4.27-9.53,9.54-9.53" fill="none" stroke="#000" stroke-linecap="round" stroke-linejoin="round"/><path d="M33.57,20.67c0,5.27-4.27,9.53-9.53,9.53" fill="none" stroke="#000" stroke-linecap="round" stroke-linejoin="round"/><path d="M33.57,20.67c0-5.27-4.27-9.53-9.53-9.53" fill="none" stroke="#000" stroke-linecap="round" stroke-linejoin="round"/><path d="M24.04,30.21c-2.47,0-4.73-.94-6.43-2.49,1.81-1.3,4.02-2.08,6.43-2.08s4.62.77,6.43,2.08c-1.69,1.55-3.95,2.49-6.43,2.49Z" fill="none" stroke="#000" stroke-linecap="round" stroke-linejoin="round"/><path d="M24.04,11.13c2.48,0,4.73.95,6.43,2.49-1.81,1.3-4.02,2.08-6.43,2.08s-4.62-.77-6.43-2.08c1.69-1.54,3.95-2.49,6.43-2.49Z" fill="none" stroke="#000" stroke-linecap="round" stroke-linejoin="round"/><path d="M24.06,11.13c-2.97,1.91-4.97,5.46-4.97,9.53s2,7.63,4.97,9.53c2.97-1.91,4.97-5.46,4.97-9.53s-2-7.63-4.97-9.53Z" fill="none" stroke="#000" stroke-linecap="round" stroke-linejoin="round"/></g></g></g></g></svg>