<?xml version="1.0" encoding="UTF-8"?><svg xmlns="http://www.w3.org/2000/svg" width="42.6" height="48" viewBox="0 0 42.6 48"><g  transform="translate(0.0000,0.0000) scale(1.000000)">
  <!-- Generator: Adobe Illustrator 30.3.0, SVG Export Plug-In . SVG Version: 2.1.3 Build 182)  -->
  <defs>
    <style>
      .st0 {
        stroke-miterlimit: 3.71;
      }

      .st0, .st1 {
        fill: none;
        stroke: #000;
        stroke-width: 1px;
      }

      .st1 {
        stroke-linecap: round;
        stroke-linejoin: round;
      }
    </style>
  </defs>
  <path class="st1" d="M37.19,3.56H5.41c-1,0-1.82.81-1.82,1.82v37.24c0,1,.81,1.82,1.82,1.82h31.79c1,0,1.82-.81,1.82-1.82V5.38c0-1-.81-1.82-1.82-1.82Z"/>
  <path class="st1" d="M3.59,14.46h35.42"/>
  <path class="st1" d="M21.3,38.99c5.27,0,9.54-4.27,9.54-9.54s-4.27-9.54-9.54-9.54-9.54,4.27-9.54,9.54,4.27,9.54,9.54,9.54Z"/>
  <path class="st1" d="M22.66,20.01l-1.36,9.44"/>
  <path class="st1" d="M28.43,35.78l-7.13-6.33"/>
  <path class="st1" d="M12,31.58l9.3-2.13"/>
  <path class="st1" d="M17.21,3.56v10.9"/>
  <path class="st0" d="M24.71,9.69c-.38,0-.68-.3-.68-.68s.3-.68.68-.68"/>
  <path class="st0" d="M24.71,9.69c.38,0,.68-.3.68-.68s-.3-.68-.68-.68"/>
  <g>
    <path class="st0" d="M32.88,9.69c-.38,0-.68-.3-.68-.68s.3-.68.68-.68"/>
    <path class="st0" d="M32.88,9.69c.38,0,.68-.3.68-.68s-.3-.68-.68-.68"/>
  </g>
</g></svg>