<?xml version="1.0" encoding="UTF-8"?><svg id="Layer_2" xmlns="http://www.w3.org/2000/svg" viewBox="0 0 48 48"><g transform="translate(-2.0464,1.1074) scale(1.087533)" stroke-width="0.919512"><path d="M15.49,8.14c-5.71,0-10.34,3.71-10.34,9.39,0,3.67,2.24,6,5.15,7.82-.25.94-.38,1.93-.38,2.95,0,6.39,5.21,11.57,11.63,11.57s11.84-5.04,11.84-11.43v-10.01c0-5.68-4.63-10.29-10.34-10.29h-7.55Z" fill="none" stroke="#000" stroke-linecap="round" stroke-linejoin="round"/><path d="M20.29,14.23h5.9s.02-.01.02-.01h-.02c1.32,0,2.4.66,2.4,1.98s-1.07,1.98-2.4,1.98h.02s-5.83,0-5.83,0h.09s-.19-.01-.19-.01h-7.94s-.02.01-.02.01h.02c-1.32,0-2.4-.73-2.4-2.05s1.07-1.9,2.4-1.9h-.02s7.98,0,7.98,0h0s0,.01,0,.01Z" fill="none" stroke="#000" stroke-linecap="round" stroke-linejoin="round"/><path d="M38.76,25.54h-5.38v-4.6h3.97c.75,0,1.37.61,1.37,1.37l.04,3.23" fill="none" stroke="#000" stroke-linecap="round" stroke-linejoin="round"/><path d="M38.76,25.54v11.93c0,1.33.65,2.4,1.97,2.41s1.98-1.07,1.99-2.39l.03-5.89c0-1.33-.6-2.2-1.91-2.2s-2.04,1.03-2.04,2.35" fill="none" stroke="#000" stroke-linecap="round" stroke-linejoin="round"/></g></svg>