<?xml version="1.0" encoding="UTF-8"?><svg xmlns="http://www.w3.org/2000/svg" width="25.7" height="48" viewBox="0 0 25.7 48"><g  transform="translate(0.0000,0.0000) scale(1.000000)"><g transform="translate(-11.1000,0.0000)"><g transform="translate(11.1000,0.0000) scale(1.000000)"><g transform="translate(-14.3061,-2.1702) scale(1.090426)" stroke-width="0.917073"><path d="M33.46,13.33c-2.1.26-3.67-1.41-3.67-3.2,0-1.06.51-1.99,1.29-2.59h0c-3.31-2.85-7.9-3.16-11.38-.2-2.84,2.41-3.88,6.16-2.97,9.54l3.3,13.35c.21.85.97,1.45,1.85,1.45h3.71c.68,0,1.31-.36,1.66-.95l2.66-4.62c-.33-.25-.63-.55-.9-.9-1.3-1.73-1.07-4.43.46-5.96.92-.92,2.17-1.2,3.33-1.05h0c-1.05-.3-1.82-1.25-1.82-2.39,0-1.36,1.11-2.47,2.47-2.47Z" fill="none" stroke="#000" stroke-linecap="round" stroke-linejoin="round"/><path d="M26.84,38.76c-.77-.16-1.35-.84-1.35-1.66h0v-5.4h-3.22v5.4h0c0,.82-.58,1.5-1.35,1.66-.88.22-1.54,1.02-1.54,1.97,0,1.12.91,2.03,2.03,2.03,0,0,0,0,.01,0,0,0,.01,0,.02,0,.37,0,.71-.1,1.01-.27.16-.1.41-.31.42-.32.12-.08.24-.15.37-.19.01,0,.03,0,.04-.01.05-.02.1-.03.16-.04.07-.01.13-.02.2-.03.05,0,.11-.01.16-.01.03,0,.06,0,.09,0,.03,0,.06,0,.09,0,.06,0,.11,0,.16.01.07,0,.13.02.2.03.05.01.11.02.16.04.01,0,.03,0,.04.01.13.04.25.11.37.19.01.01.26.22.42.32.3.17.64.27,1.01.27,0,0,.01,0,.02,0,0,0,0,0,.01,0,1.12,0,2.03-.91,2.03-2.03,0-.95-.66-1.75-1.54-1.97Z" fill="none" stroke="#000" stroke-linecap="round" stroke-linejoin="round"/></g></g></g></g></svg>