<?xml version="1.0" encoding="UTF-8"?><svg xmlns="http://www.w3.org/2000/svg" width="48" height="48" viewBox="0 0 48 48"><g  transform="translate(0.0000,0.0000) scale(1.000000)"><g transform="translate(0.0000,0.0000)"><g transform="translate(0.0000,0.0000) scale(1.000000)"><g transform="translate(-1.9591,-1.9093) scale(1.081801)" stroke-width="0.924385"><defs><style>.cls-1{fill:none;stroke:#000;stroke-linecap:round;stroke-linejoin:round;}</style></defs><path class="cls-1" d="M38.97,24.24c0,5.87-3.48,11.18-9.24,13.57-7.64,3.16-16.39-.46-19.55-8.1-3.16-7.64.46-16.39,8.1-19.55,1.87-.78,3.82-1.14,5.73-1.14l.13-3.93c-2.46-.02-4.96.45-7.36,1.45C7.13,10.52,2.55,21.58,6.54,31.22c3.99,9.64,15.05,14.22,24.69,10.23,7.23-3,11.62-9.96,11.67-17.32l-3.94.12h0Z"/></g></g></g></g></svg>