<?xml version="1.0" encoding="UTF-8"?><svg xmlns="http://www.w3.org/2000/svg" width="27.36" height="48" viewBox="0 0 27.36 48"><g  stroke-width="0.982927" transform="translate(-10.7345,-0.7816) scale(1.017370)">
  <!-- Generator: Adobe Illustrator 30.3.0, SVG Export Plug-In . SVG Version: 2.1.3 Build 182)  -->
  <defs>
    <style>
      .st0 {
        fill: none;
        stroke: #000;
        stroke-linecap: round;
        stroke-linejoin: round;
        stroke-width: 0.982927px;
      }
    </style>
  </defs>
  <path class="st0" d="M19.55,12.98c2.46,1.53,3.39,4.26,4.13,6.97.94,3.63,1.38,7.37,1.32,11.12-.02,3.73-.97,9.69-.83,13.41"/>
  <path class="st0" d="M27.42,37.24c1.71-.27,3.46-.22,5.15.17.75.11,1.28.81,1.17,1.56-.04.3-.18.58-.4.79-1.14,1.34-2.54,2.44-4.11,3.23-1.77.82-3.88.09-4.77-1.65-.5-1.59.82-3.42,2.95-4.1Z"/>
  <path class="st0" d="M21.45,30.29c-1.74-.01-3.46.31-5.07.94-.73.22-1.14.99-.92,1.72.09.29.27.54.51.72,1.33,1.15,2.88,2.02,4.55,2.57,1.87.54,3.84-.5,4.46-2.34.26-1.64-1.32-3.26-3.53-3.6Z"/>
  <path class="st0" d="M19.31,17.35c-1.68.45-3.25,1.22-4.64,2.27-.65.4-.84,1.25-.44,1.9.16.26.4.45.69.56,1.59.76,3.31,1.19,5.07,1.27,2.22-.25,3.86-1.8,3.67-3.45-.54-1.87-2.45-3-4.35-2.54Z"/>
  <path class="st0" d="M27.44,24.32c1.64-.57,3.37-.82,5.11-.73.76-.03,1.4.57,1.43,1.33.01.3-.08.6-.25.84-.89,1.52-2.07,2.85-3.48,3.9-1.6,1.11-3.8.76-4.98-.8-.61-1.85.35-3.86,2.18-4.55Z"/>
  <path class="st0" d="M24.34,13.68c1.43-.99,3.03-1.69,4.72-2.07.73-.23,1.5.18,1.73.9.09.29.08.6-.02.88-.45,1.7-1.24,3.3-2.32,4.69-1.25,1.5-3.46,1.75-5.01.56-1.08-1.62-.69-3.81.89-4.96Z"/>
  <path class="st0" d="M15,10.81c-.57-1.64-.82-3.37-.75-5.11-.03-.76.56-1.4,1.33-1.43.3-.01.6.08.85.25,1.52.89,2.85,2.07,3.91,3.47,1.11,1.6.77,3.8-.78,4.98-1.85.61-3.86-.34-4.55-2.17Z"/>
</g></svg>