<?xml version="1.0" encoding="UTF-8"?><svg xmlns="http://www.w3.org/2000/svg" width="36.8" height="48" viewBox="0 0 36.8 48"><g  transform="translate(0.0000,0.0000) scale(1.000000)"><g transform="translate(-5.6000,0.0000)"><g transform="translate(5.6000,0.0000) scale(1.000000)"><g transform="translate(-7.6172,-2.0172) scale(1.081794)" stroke-width="0.924390"><path d="M13.29,10.19c1.45-1.06,3.43-1.03,5.4-.14,1.01-2.94,3.02-4.94,5.32-4.94.03,0,.06,0,.09,0,.03,0,.06,0,.09,0,2.3,0,4.31,2,5.32,4.94,1.97-.89,3.95-.92,5.4.14,2.29,1.67,2.54,5.5.8,9.18.9.61,1.55,1.43,1.86,2.42.82,2.63-1.02,5.69-4.29,7.6.52,2.37-1.14,6.4-2.23,8.45l.07-.13c-1.58,3.08-4.03,5.27-7.04,5.27h-.04c-3.01,0-5.46-2.19-7.04-5.27l.07.13c-1.09-2.05-2.75-6.08-2.23-8.45-3.27-1.9-5.11-4.97-4.29-7.6.31-.99.97-1.81,1.86-2.42-1.73-3.68-1.49-7.51.8-9.18,1.45-1.06,3.43-1.03,5.4-.14,1.01-2.94,3.02-4.94,5.32-4.94.03,0,.06,0,.09,0,.03,0,.06,0,.09,0,2.3,0,4.31,2,5.32,4.94,1.97-.89,3.95-.92,5.4.14" fill="none" stroke="#000" stroke-linecap="round" stroke-linejoin="round"/><line x1="24.07" y1="13.34" x2="24.07" y2="42.98" fill="none" stroke="#000" stroke-linecap="round" stroke-linejoin="round"/><path d="M28.11,14.35l-3.89,4.57c-.07.07-.18.08-.25.02l-3.86-4.58" fill="none" stroke="#000" stroke-linecap="round" stroke-linejoin="round"/><path d="M28.11,22.01l-3.89,4.57c-.07.07-.18.08-.25.02l-3.86-4.58" fill="none" stroke="#000" stroke-linecap="round" stroke-linejoin="round"/><path d="M28.11,29.68l-3.89,4.57c-.07.07-.18.08-.25.02l-3.86-4.58" fill="none" stroke="#000" stroke-linecap="round" stroke-linejoin="round"/></g></g></g></g></svg>