<?xml version="1.0" encoding="UTF-8"?><svg id="Layer_2" xmlns="http://www.w3.org/2000/svg" viewBox="0 0 64 64"><g transform="translate(-3.9587,-2.7625) scale(1.495163)" stroke-width="0.891765"><path d="M13.18,21.27h-7.4c-.34,0-.62.28-.62.62v19.68c0,.34.28.62.62.62h36.58c.34,0,.62-.28.62-.62v-19.68c0-.34-.28-.62-.62-.62h-7.91" fill="none" stroke="#000" stroke-linecap="round" stroke-linejoin="round"/><line x1="34.35" y1="15.36" x2="42.69" y2="21.37" fill="none" stroke="#000" stroke-linecap="round" stroke-linejoin="round"/><line x1="5.47" y1="21.37" x2="13.07" y2="15.9" fill="none" stroke="#000" stroke-linecap="round" stroke-linejoin="round"/><path d="M42.71,41.87l-13.97-9.85c-.11-.08-.24-.12-.37-.12l-8.61-.03c-.13,0-.26.04-.37.12l-13.96,9.82" fill="none" stroke="#000" stroke-linecap="round" stroke-linejoin="round"/><path d="M5.48,21.61l13.89,10.14c.11.08.24.12.37.12l8.61.03c.13,0,.26-.04.37-.12l13.98-10.14" fill="none" stroke="#000" stroke-linecap="round" stroke-linejoin="round"/><path d="M18.06,15.25h11.35" fill="none" stroke="#000" stroke-linecap="round" stroke-linejoin="round"/><path d="M18.06,10.88h11.35" fill="none" stroke="#000" stroke-linecap="round" stroke-linejoin="round"/><path d="M18.06,19.38h11.35" fill="none" stroke="#000" stroke-linecap="round" stroke-linejoin="round"/><path d="M18.06,23.51h11.35" fill="none" stroke="#000" stroke-linecap="round" stroke-linejoin="round"/><path d="M18.06,27.64h11.35" fill="none" stroke="#000" stroke-linecap="round" stroke-linejoin="round"/><path d="M13.23,27.23V6.45c0-.36.3-.67.67-.67h19.68c.36,0,.67.3.67.67v6.37l-.05,14.69" fill="none" stroke="#000" stroke-linecap="round" stroke-linejoin="round"/></g></svg>