<?xml version="1.0" encoding="UTF-8"?><svg id="Layer_2" xmlns="http://www.w3.org/2000/svg" viewBox="0 0 64 64"><g transform="translate(-3.9775,-3.6544) scale(1.493864)" stroke-width="0.892540"><line x1="20.92" y1="9.33" x2="27.19" y2="9.33" fill="none" stroke="#000" stroke-linecap="round" stroke-linejoin="round"/><path d="M34.88,29.07c0-4.47-2.77-9-6.64-10.64-.53-.22-.9-.75-.9-1.35l-.02-10.66c0-.8-.65-1.46-1.46-1.46h-3.6c-.81,0-1.46.66-1.46,1.46l-.02,10.66c0,.6-.37,1.13-.9,1.35-3.87,1.64-6.64,6.17-6.64,10.64,0,4.77,1.89,9.68,6.68,11.45-.48.46-.78,1.09-.78,1.8h-.01l-.03.51h9.96s.03-.51.03-.51c0-.72-.31-1.36-.8-1.81,4.78-1.78,6.6-6.67,6.6-11.43Z" fill="none" stroke="#000" stroke-linecap="round" stroke-linejoin="round"/><path d="M30.31,29.47c0-.08,0-.15,0-.23,0-.68-.11-1.36-.32-2.01-.67-2.5-2.48-4.56-5.93-4.56h-.05c-3.53,0-5.31,2.11-5.96,4.64-.19.63-.29,1.28-.29,1.93,0,.07,0,.15,0,.22,0,.08,0,.15,0,.23,0,.68.11,1.36.32,2.01.67,2.5,2.48,4.56,5.93,4.56h.05c3.53,0,5.31-2.11,5.96-4.64.19-.63.29-1.28.29-1.93,0-.07,0-.15,0-.22Z" fill="none" stroke="#000" stroke-linecap="round" stroke-linejoin="round"/></g></svg>