<?xml version="1.0" encoding="UTF-8"?><svg id="Layer_2" xmlns="http://www.w3.org/2000/svg" viewBox="0 0 48 48"><g transform="translate(-2.1449,-1.6657) scale(1.075923)" stroke-width="0.929435"><rect x="7.23" y="12.75" width="34.13" height="26.19" rx=".85" ry=".85" transform="translate(-1.55 50.14) rotate(-90)" fill="none" stroke="#000" stroke-linecap="round" stroke-linejoin="round"/><rect x="27.59" y="13.66" width="3.37" height="3.57" rx=".85" ry=".85" transform="translate(13.83 44.72) rotate(-90)" fill="none" stroke="#000" stroke-linecap="round" stroke-linejoin="round"/><path d="M17.37,17.13h8.4" fill="none" stroke="#000" stroke-linecap="round" stroke-linejoin="round"/><rect x="27.59" y="20.63" width="3.37" height="3.57" rx=".85" ry=".85" transform="translate(6.86 51.69) rotate(-90)" fill="none" stroke="#000" stroke-linecap="round" stroke-linejoin="round"/><path d="M17.37,24.1h8.4" fill="none" stroke="#000" stroke-linecap="round" stroke-linejoin="round"/><rect x="27.59" y="27.37" width="3.37" height="3.57" rx=".85" ry=".85" transform="translate(.13 58.43) rotate(-90)" fill="none" stroke="#000" stroke-linecap="round" stroke-linejoin="round"/><path d="M17.37,30.84h8.4" fill="none" stroke="#000" stroke-linecap="round" stroke-linejoin="round"/><rect x="27.59" y="34.34" width="3.37" height="3.57" rx=".85" ry=".85" transform="translate(-6.85 65.41) rotate(-90)" fill="none" stroke="#000" stroke-linecap="round" stroke-linejoin="round"/><path d="M17.37,37.82h8.4" fill="none" stroke="#000" stroke-linecap="round" stroke-linejoin="round"/><path d="M19.8,7.86v-.89c0-.4.34-.73.77-.73h2.33s0-.03,0-.05c0-.74.63-1.33,1.4-1.33s1.4.6,1.4,1.33c0,.02,0,.03,0,.05h2.33c.42,0,.77.33.77.73v1.78h-9.02l.02-.89Z" fill="none" stroke="#000" stroke-linecap="round" stroke-linejoin="round"/></g></svg>