<?xml version="1.0" encoding="UTF-8"?><svg id="Layer_2" xmlns="http://www.w3.org/2000/svg" viewBox="0 0 64 64"><g transform="translate(-3.9162,11.2454) scale(1.496510)" stroke-width="0.890962"><defs><style>.cls-1{fill:none;stroke:#000;stroke-linecap:round;stroke-linejoin:round;}</style></defs><path class="cls-1" d="M34.96,16.85c-4.39,0-7.95,3.56-7.95,7.96s3.56,7.95,7.95,7.95,7.95-3.56,7.95-7.95-3.56-7.96-7.95-7.96Z"/><path class="cls-1" d="M34.92,30.1c-2.88,0-5.21-2.33-5.21-5.21s2.33-5.21,5.21-5.21,5.21,2.33,5.21,5.21-2.33,5.21-5.21,5.21Z"/><path class="cls-1" d="M13.04,16.85c-4.39,0-7.95,3.56-7.95,7.96s3.56,7.95,7.95,7.95,7.95-3.56,7.95-7.95-3.56-7.96-7.95-7.96Z"/><path class="cls-1" d="M13,30.1c-2.88,0-5.21-2.33-5.21-5.21s2.33-5.21,5.21-5.21,5.21,2.33,5.21,5.21-2.33,5.21-5.21,5.21Z"/><circle class="cls-1" cx="24" cy="18.84" r="1.74"/><path class="cls-1" d="M31.42,17.52c-1.87-1.4-4.51-2.28-7.45-2.28s-5.52.86-7.39,2.23c1.78.88,3.77,3.48,4.5,5.35.29.41-.05-.25.08.21l2.91-.63s.1-.02.15-.02l.49.1,2.5.53c.49-2.41,2.08-4.42,4.21-5.5Z"/></g></svg>