<?xml version="1.0" encoding="UTF-8"?><svg id="Layer_2" xmlns="http://www.w3.org/2000/svg" viewBox="0 0 48 48"><g transform="translate(-1.8947,-1.8947) scale(1.078947)" stroke-width="0.926829"><path d="M10.37,5.52v1.74h0v35.33c0,.21.16.38.36.37h1.71c.21,0,.38-.17.37-.38l.02-.69v-.02h.01V5.44c0-.21-.16-.38-.36-.37h-1.71c-.21,0-.38.17-.37.38l-.02.08h0Z" fill="none" stroke="#000" stroke-linecap="round" stroke-linejoin="round"/><rect x="12.84" y="7.36" width="22.31" height="2.49" fill="none" stroke="#000" stroke-linecap="round" stroke-linejoin="round"/><polygon points="8.5 9.83 8.5 9.83 8.49 9.83 8.5 9.83" fill="none" stroke="#000" stroke-linecap="round" stroke-linejoin="round"/><path d="M8.42,9.8l.08.02h1.86s0,0,0,0v-2.49s-1.94,0-1.94,0c-.21,0-.38.17-.37.37v1.71c0,.21.17.38.38.37Z" fill="none" stroke="#000" stroke-linecap="round" stroke-linejoin="round"/><rect x="12.84" y="37.95" width="22.31" height="2.49" fill="none" stroke="#000" stroke-linecap="round" stroke-linejoin="round"/><polygon points="8.5 40.42 8.5 40.42 8.49 40.42 8.5 40.42" fill="none" stroke="#000" stroke-linecap="round" stroke-linejoin="round"/><path d="M8.42,40.4l.08.02h1.86s0,0,0,0v-2.49s-1.94,0-1.94,0c-.21,0-.38.17-.37.37v1.71c0,.21.17.38.38.37Z" fill="none" stroke="#000" stroke-linecap="round" stroke-linejoin="round"/><path d="M35.16,5.52v1.74h0v35.33c0,.21.16.38.36.37h1.71c.21,0,.38-.17.37-.38l.02-.69v-.02h.01V5.44c0-.21-.16-.38-.36-.37h-1.71c-.21,0-.38.17-.37.38l-.02.08h0Z" fill="none" stroke="#000" stroke-linecap="round" stroke-linejoin="round"/><path d="M39.95,7.76c0-.21-.17-.38-.37-.37l-.69-.02h-.02s-1.24-.01-1.24-.01v2.49s1.95,0,1.95,0c.21,0,.38-.17.37-.37v-1.71Z" fill="none" stroke="#000" stroke-linecap="round" stroke-linejoin="round"/><path d="M39.95,38.35c0-.21-.17-.38-.37-.37l-.69-.02h-.02s-1.24-.01-1.24-.01v2.49s1.95,0,1.95,0c.21,0,.38-.17.37-.37v-1.71Z" fill="none" stroke="#000" stroke-linecap="round" stroke-linejoin="round"/><line x1="16.12" y1="7.35" x2="16.12" y2="40.43" fill="none" stroke="#000" stroke-linecap="round" stroke-linejoin="round"/><line x1="31.78" y1="7.35" x2="31.78" y2="40.43" fill="none" stroke="#000" stroke-linecap="round" stroke-linejoin="round"/><rect x="16.12" y="15.09" width="15.66" height="18.85" fill="none" stroke="#000" stroke-linecap="round" stroke-linejoin="round"/></g></svg>