<?xml version="1.0" encoding="UTF-8"?><svg id="Layer_2" xmlns="http://www.w3.org/2000/svg" viewBox="0 0 64 64"><g transform="translate(-3.7699,-2.7775) scale(1.487314)" stroke-width="0.896471"><defs><style>.cls-1{fill:none;stroke:#000;stroke-linecap:round;stroke-linejoin:round;}</style></defs><path class="cls-1" d="M22.37,22.08l1.15-1.13,1.69-1.62c.14-.14.33-.22.5-.22l2.61-.07h.03s.08.03.12.06c.03.03.04.04.06.09v.05l.05,2.65c0,.19-.07.39-.22.54l-1.31,1.25-9.32,9.29.08-.08-9.4,9.34c-.26.27-.69.27-.96,0,0,0,0,0,0,0l-2.2-2.19c-.26-.26-.26-.69,0-.96l17.13-17h0Z"/><polygon class="cls-1" points="36.39 9.19 37.97 13.99 43.05 13.99 38.94 16.96 40.51 21.76 36.39 18.79 32.28 21.76 33.85 16.96 29.74 13.99 34.83 13.99 36.39 9.19"/><polygon class="cls-1" points="23.33 5.57 24.57 9.36 28.58 9.36 25.34 11.69 26.57 15.48 23.34 13.14 20.1 15.48 21.33 11.69 18.1 9.36 22.1 9.36 23.34 5.57 23.33 5.57"/></g></svg>