<?xml version="1.0" encoding="UTF-8"?><svg xmlns="http://www.w3.org/2000/svg" width="48" height="48" viewBox="0 0 48 48"><g  transform="translate(0.0000,0.0000) scale(1.000000)"><g transform="translate(0.0000,0.0000)"><g transform="translate(0.0000,0.0000) scale(1.000000)"><g transform="translate(-1.5462,-1.4410) scale(1.051282)" stroke-width="0.951220">
  <!-- Generator: Adobe Illustrator 30.3.0, SVG Export Plug-In . SVG Version: 2.1.3 Build 182)  -->
  <defs>
    <style>
      .st0 {
        fill: none;
        stroke: #000;
        stroke-linecap: round;
        stroke-linejoin: round;
      }
    </style>
  </defs>
  <path class="st0" d="M12.29,39.42c8.36,6.67,20.57,5.29,27.22-3.09,6.67-8.36,5.29-20.57-3.09-27.22l-.1-.08C27.96,2.36,15.76,3.74,9.11,12.12c-6.67,8.36-5.29,20.57,3.09,27.22l.1.08Z"/>
  <path class="st0" d="M34.9,40.54c-.76.44-1.46.81-2.41.92-4.59.46-9.37-3.64-10.66-9.25-.89-4.51-1.25-6.59-1.62-8.61-1.14-5.87-4.96-9.64-9.55-9.17-1.49.16-3.02.71-4.05,1.66,1.44-2.87,2.31-4.01,4.91-6.49,1.31-1.25,2.85-2.19,4.34-2.36,4.59-.46,9.37,3.64,10.66,9.25,0,0,.86,4.4,1.52,8.42,1.28,5.61,4.42,9.45,9.01,8.99,1.49-.16,4.28-1.55,5.29-2.5-1.25,2.71-1.95,4.26-4.8,7.08-1.05.89-1.82,1.52-2.64,2.06"/>
</g></g></g></g></svg>