<?xml version="1.0" encoding="UTF-8"?><svg xmlns="http://www.w3.org/2000/svg" width="48" height="48" viewBox="0 0 48 48"><g  transform="translate(0.0000,0.0000) scale(1.000000)">
  <!-- Generator: Adobe Illustrator 30.3.0, SVG Export Plug-In . SVG Version: 2.1.3 Build 182)  -->
  <defs>
    <style>
      .st0 {
        fill: none;
        stroke: #000;
        stroke-linecap: round;
        stroke-linejoin: round;
        stroke-width: 1px;
      }
    </style>
  </defs>
  <path class="st0" d="M40.62,3.56H7.38c-.64,0-1.19.44-1.33,1.07l-2.49,8.47c0,2.26,1.83,4.09,4.09,4.09s4.09-1.83,4.09-4.09c0,2.26,1.83,4.09,4.09,4.09s4.09-1.83,4.09-4.09c0,2.26,1.83,4.09,4.09,4.09s4.09-1.83,4.09-4.09c0,2.26,1.83,4.09,4.09,4.09s4.09-1.83,4.09-4.09c0,2.26,1.83,4.09,4.09,4.09s4.09-1.83,4.09-4.09l-2.49-8.47c-.14-.62-.69-1.07-1.33-1.07Z"/>
  <path class="st0" d="M6.29,17.19v27.25"/>
  <path class="st0" d="M41.71,17.19v27.25"/>
  <path class="st0" d="M41.71,37.62H6.29"/>
  <path class="st0" d="M11.74,33.54c0,2.26,1.83,4.09,4.09,4.09s4.09-1.83,4.09-4.09h0c0-2.26-1.83-4.09-4.09-4.09s-4.09,1.83-4.09,4.09h0Z"/>
  <path class="st0" d="M15.83,29.45l2.72-4.09"/>
  <path class="st0" d="M19.91,33.54c0,2.26,1.83,4.09,4.09,4.09s4.09-1.83,4.09-4.09h0c0-2.26-1.83-4.09-4.09-4.09s-4.09,1.83-4.09,4.09h0Z"/>
  <path class="st0" d="M24,29.45l2.72-4.09"/>
  <path class="st0" d="M28.09,33.54c0,2.26,1.83,4.09,4.09,4.09s4.09-1.83,4.09-4.09h0c0-2.26-1.83-4.09-4.09-4.09s-4.09,1.83-4.09,4.09h0Z"/>
  <path class="st0" d="M32.17,29.45l2.72-4.09"/>
</g></svg>