<?xml version="1.0" encoding="UTF-8"?><svg xmlns="http://www.w3.org/2000/svg" width="34.4" height="48" viewBox="0 0 34.4 48"><g  transform="translate(0.0000,0.0000) scale(1.000000)">
  <!-- Generator: Adobe Illustrator 30.3.0, SVG Export Plug-In . SVG Version: 2.1.3 Build 182)  -->
  <defs>
    <style>
      .st0 {
        stroke-miterlimit: 3.71;
      }

      .st0, .st1 {
        fill: none;
        stroke: #000;
        stroke-width: 1px;
      }

      .st1 {
        stroke-linecap: round;
        stroke-linejoin: round;
      }
    </style>
  </defs>
  <path class="st1" d="M17.2,19.91c4.51,0,8.17-3.66,8.17-8.17s-3.66-8.17-8.17-8.17-8.17,3.66-8.17,8.17,3.66,8.17,8.17,8.17Z"/>
  <path class="st1" d="M17.2,19.91v19.76"/>
  <path class="st1" d="M3.58,34.9l27.25,9.54"/>
  <path class="st1" d="M30.82,34.9L3.58,44.44"/>
  <path class="st0" d="M16.52,10.38c-.38,0-.68-.3-.68-.68s.3-.68.68-.68"/>
  <path class="st0" d="M16.52,10.38c.38,0,.68-.3.68-.68s-.3-.68-.68-.68"/>
</g></svg>