<?xml version="1.0" encoding="UTF-8"?><svg id="Layer_2" xmlns="http://www.w3.org/2000/svg" viewBox="0 0 64 64"><g transform="translate(-4.1063,-2.4037) scale(1.504428)" stroke-width="0.886273"><path d="M23.8,35.65v1.72c-.01.58-.49,1.04-1.07,1.03h-2" fill="none" stroke="#000" stroke-linecap="round" stroke-linejoin="round"/><path d="M26.98,35.74v1.22s0,.57,0,.57c0,.48.39.86.86.86h5.66" fill="none" stroke="#000" stroke-linecap="round" stroke-linejoin="round"/><path d="M30.15,38.4h8.35c.48,0,.86-.39.86-.86V10.46c0-.48-.39-.86-.86-.86h-8.55s-4.09.02-4.09.02c-.58,0-1.04.49-1.04,1.06l.02,1.45v8.3s.01-.12.01-.12l-.03,1.45c-.01.58-.49,1.04-1.07,1.03l-1.35-.02" fill="none" stroke="#000" stroke-linecap="round" stroke-linejoin="round"/><path d="M16.92,30.96h-6.84s-.57,0-.57,0c-.48,0-.86.39-.86.86v5.72s0,0,0,0c0,.48.39.86.86.86h11.21" fill="none" stroke="#000" stroke-linecap="round" stroke-linejoin="round"/><path d="M33.52,15.12v-.57c0-.48-.38-.86-.85-.86h-.77s.77,0,.77,0h-1.35c-.58-.01-1.05.46-1.06,1.03l.07,7.31-.07,4.79c0,.48-.39.86-.86.86h-.77s-3.14,0-3.14,0h-.77c-.47.02-.85.41-.84.89l-.03.57-.05,6.51" fill="none" stroke="#000" stroke-linecap="round" stroke-linejoin="round"/><path d="M33.54,17.93v.57s0-.84,0-.84l-.03,12.55c.01.58-.45,1.06-1.03,1.07l-1.45.03h.12s-1.64-.01-1.64-.01l-1.45-.02c-.58,0-1.06.45-1.06,1.04l-.02,1.35v2.07" fill="none" stroke="#000" stroke-linecap="round" stroke-linejoin="round"/><path d="M22.4,22.76l-8.47.03c-.58,0-1.05-.47-1.04-1.06v-1.35s0,.77,0,.77v-.77s0-4.53,0-4.53c0-.58.47-1.05,1.06-1.04h1.35s-.77,0-.77,0h.77c.47,0,.85.39.85.87v.57" fill="none" stroke="#000" stroke-linecap="round" stroke-linejoin="round"/><path d="M16.92,30.96h.57c.48,0,.86-.38.86-.85v-.77s0,.77,0,.77v-1.35c.01-.58-.46-1.05-1.03-1.06l-5.92.07h-1.72c-.58-.01-1.04-.49-1.03-1.07v-1.93s.02-14.31.02-14.31h0c0-.47.38-.86.86-.86h6.61c.48,0,.86-.39.86-.86v-.77.77-1.35c0-.58-.47-1.05-1.05-1.05H6.24c-.58,0-1.05.47-1.05,1.05h0l-.02,33.22h.02c0,.58.47,1.05,1.05,1.05h35.54c.58,0,1.05-.47,1.05-1.05V7.39c0-.58-.47-1.05-1.05-1.05h-19.07l-.57.03c-.48,0-.86.37-.87.84v.77s0,9.96,0,9.96v.77c0,.47-.38.86-.86.86h-.57l-2.91.02h.06c-.48,0-.86-.38-.86-.85v-.77s0,.91,0,.91v-2.61" fill="none" stroke="#000" stroke-linecap="round" stroke-linejoin="round"/><path d="M33.52,15.12v8.23" fill="none" stroke="#000" stroke-linecap="round" stroke-linejoin="round"/></g></svg>