<?xml version="1.0" encoding="UTF-8"?><svg xmlns="http://www.w3.org/2000/svg" width="48" height="48" viewBox="0 0 48 48"><g  transform="translate(0.0000,0.0000) scale(1.000000)"><g transform="translate(0.0000,0.0000)"><g stroke-width="1.07805" transform="translate(2.2014,4.9842) scale(0.927602)">
  <desc>
    Measure Construction Streamline Icon: https://streamlinehq.com
  </desc>
  <path d="M27.90625 27.90625a2.9375 2.9375 0 0 1 -2.9375 2.9375H4.40625a2.9375 2.9375 0 0 1 -2.9375 -2.9375V17.625a13.21875 13.21875 0 0 1 26.4375 0Z" fill="none" stroke="#000000" stroke-linecap="round" stroke-linejoin="round" stroke-width="1.07805"></path>
  <path d="M27.90625 27.90625h11.75a5.875 5.875 0 0 1 0 11.75H7.34375v2.9375" fill="none" stroke="#000000" stroke-linecap="round" stroke-linejoin="round" stroke-width="1.07805"></path>
  <path d="M10.28125 17.625a4.40625 4.40625 0 1 0 8.8125 0 4.40625 4.40625 0 1 0 -8.8125 0Z" fill="none" stroke="#000000" stroke-linecap="round" stroke-linejoin="round" stroke-width="1.07805"></path>
</g></g></g></svg>