<?xml version="1.0" encoding="UTF-8"?><svg id="Layer_2" xmlns="http://www.w3.org/2000/svg" viewBox="0 0 48 48"><g transform="translate(-2.2005,-0.9947) scale(1.096257)" stroke-width="0.912195"><path d="M32.97,28.41h1.31c.63,0,1.14-.51,1.14-1.14V8.5c0-.63-.51-1.14-1.14-1.14H14.26c-.63,0-1.14.51-1.14,1.14v18.77c0,.63.51,1.14,1.14,1.14h11.35" fill="none" stroke="#000" stroke-linecap="round" stroke-linejoin="round"/><path d="M18.47,21.49h0c-.08,2.02,1.27,4.11,3.8,4.08,1.99-.02,3.51-1.8,3.41-3.78h0" fill="none" stroke="#000" stroke-linecap="round" stroke-linejoin="round"/><path d="M25.66,21.57l-.04,6.46h0c.1,2.01,1.8,3.53,3.78,3.43,1.99-.1,3.51-1.8,3.41-3.78h0l.06-6.14" fill="none" stroke="#000" stroke-linecap="round" stroke-linejoin="round"/><path d="M13.13,17.36c0,1.06-1.57,2.02-2.73,2.37-.02,0,.02,0,0,0,0,0-.55.21-1.43.22h0c-1.94-.02-2.87.25-3.48,1.92v.02c-.42,1.11-.18,2.31.53,3.17h0c.3.35.55.77.75,1.23,0,.02.02.04.03.06.32.75.33,1.55.14,2.27-.42,1.43.53,3.49,2.39,4.06l.06.02c.48.14.91.14,1.36.2h0c.45.03.92.14,1.37.33.02,0,.04.02.06.03.83.35,1.48,1.09,1.82,2.77h0c.72,3.25,3.71,5.61,7.15,5.43,1.91-.1,3.6-.96,4.79-2.27l-.04.03c.77-.83,1.81-1.78,3.06-1.89.03,0,.06,0,.09,0,.69-.06,1.35-.02,1.96.13l-.05-.02c.59.2,1.25.32,1.94.32h.09c2.69.02,4.82-2.33,4.85-4.4.05-1.03.4-2.08,1.13-2.95.02-.03.04-.05.06-.07.45-.54.96-.99,1.5-1.33h0c1.29-.85,2.09-2.56,2-4.21-.25-2.18-1.88-2.66-1.88-2.66.02,0,.02,0,0,0-.46-.19-.92-.3-1.37-.33h0c-.45-.05-.89-.05-1.36-.2l-.06-.02c-1.16-.35-1.97-1.29-2.3-2.29" fill="none" stroke="#000" stroke-linecap="round" stroke-linejoin="round"/></g></svg>