<?xml version="1.0" encoding="UTF-8"?><svg id="Layer_2" xmlns="http://www.w3.org/2000/svg" viewBox="0 0 64 64"><g transform="translate(-3.6955,-3.7699) scale(1.487314)" stroke-width="0.896471"><defs><style>.cls-1{fill:none;stroke:#000;stroke-linecap:round;stroke-linejoin:round;}</style></defs><line class="cls-1" x1="19.3" y1="9.94" x2="19.3" y2="15.26"/><line class="cls-1" x1="24.18" y1="9.94" x2="24.18" y2="15.26"/><line class="cls-1" x1="29.05" y1="9.94" x2="29.05" y2="15.26"/><line class="cls-1" x1="33.93" y1="9.94" x2="33.93" y2="15.26"/><path class="cls-1" d="M35.09,30.21v7.47c0,.38-.3.68-.68.68H13.98c-.38,0-.68-.3-.68-.68v-6.8.35-6.28c0-.38.3-.68.68-.68h20.43c.38,0,.68.3.68.68v5.61-.35Z"/><path class="cls-1" d="M15.92,5.23c.1-.09.21-.14.34-.14l22.57-.08c.37,0,.68.3.68.68v36.25-.35.83c0,.38-.3.68-.68.68H9.17c-.38,0-.68-.3-.68-.68v-1.49.35V12.54c0-.14.06-.27.16-.37l7.27-6.94Z"/></g></svg>