<?xml version="1.0" encoding="UTF-8"?><svg id="Layer_2" xmlns="http://www.w3.org/2000/svg" viewBox="0 0 48 48"><g transform="translate(-2.4114,-2.0317) scale(1.084656)" stroke-width="0.921951"><path d="M35.71,16.2h3.73c.82,0,1.48-.66,1.48-1.48s-.66-1.48-1.48-1.48h-3.73c-.11,0-.23.01-.33.05v2.88c.1.02.23.05.33.05h0Z" fill="none" stroke="#000" stroke-linecap="round" stroke-linejoin="round"/><path d="M35.71,25.6h3.73c.82,0,1.48-.66,1.48-1.48s-.66-1.48-1.48-1.48h-3.73c-.11,0-.23.01-.33.05v2.88c.1.02.23.05.33.05h0Z" fill="none" stroke="#000" stroke-linecap="round" stroke-linejoin="round"/><path d="M35.71,35h3.73c.82,0,1.48-.66,1.48-1.48s-.66-1.48-1.48-1.48h-3.73c-.11,0-.23.01-.33.05v2.88c.1.02.23.05.33.05h0Z" fill="none" stroke="#000" stroke-linecap="round" stroke-linejoin="round"/><path d="M35.7,35h0c-.1.01-.23-.01-.33-.03v-2.88c.1-.03.22-.05.33-.05h1.98v-6.44h-1.98c-.1.01-.23-.01-.33-.03v-2.88c.1-.03.22-.05.33-.05h1.98v-6.44h-1.98c-.1.01-.23-.01-.33-.03v-2.88c.1-.03.22-.05.33-.05h1.98v-7.31c0-.43-.35-.78-.78-.78H8.55c-.43,0-.78.35-.78.78l-.03,28v8.16c0,.43.35.78.78.78h28.39c.43,0,.78-.35.78-.78v-7.09h-1.98Z" fill="none" stroke="#000" stroke-linecap="round" stroke-linejoin="round"/><path d="M15.65,22.87c0-1-.26-1.96-.59-2.91-.02-.06-.03-.11-.06-.18-.42-1.76-.44-2.59-.44-4.4l-.02-4.88v-1.63h4.97" fill="none" stroke="#000" stroke-linecap="round" stroke-linejoin="round"/><path d="M19.49,8.87h0l1.37-.02v.74l.03,5.8h-.02c0,1.8,0,2.76-.42,4.51,0,.05-.02.09-.03.14-.36,1.03-.63,2.09-.63,3.18" fill="none" stroke="#000" stroke-linecap="round" stroke-linejoin="round"/><line x1="16.75" y1="9.02" x2="16.75" y2="15.79" fill="none" stroke="#000" stroke-linecap="round" stroke-linejoin="round"/><line x1="18.71" y1="9.01" x2="18.71" y2="15.78" fill="none" stroke="#000" stroke-linecap="round" stroke-linejoin="round"/><path d="M29.57,25.94h-4.69c-.67,0-1.22-.55-1.22-1.22s.55-1.22,1.22-1.22h4.69c.67,0,1.22.55,1.22,1.22s-.55,1.22-1.22,1.22Z" fill="none" stroke="#000" stroke-linecap="round" stroke-linejoin="round"/><path d="M25.2,25.94v12.5c0,.38.31.67.68.67h2.74c.38,0,.67-.3.67-.67v-12.5h-4.1.01Z" fill="none" stroke="#000" stroke-linecap="round" stroke-linejoin="round"/><path d="M28.54,10.75c.14.14.22.32.22.51h0l-.03,2.21v9.95h-3.04v-9.44l.03-2.71h0c0-.19.08-.36.19-.49h0l1.15-1.84.02-.02s.08-.03.11-.03.06,0,.1.02l.05.03,1.2,1.8h0Z" fill="none" stroke="#000" stroke-linecap="round" stroke-linejoin="round"/><path d="M20.16,25.98h-4.69c-.67,0-1.22-.55-1.22-1.22s.55-1.22,1.22-1.22h4.69c.67,0,1.22.55,1.22,1.22s-.55,1.22-1.22,1.22Z" fill="none" stroke="#000" stroke-linecap="round" stroke-linejoin="round"/><path d="M15.79,25.99v12.5c0,.38.31.67.68.67h2.74c.38,0,.67-.3.67-.67v-12.5h-4.1.01Z" fill="none" stroke="#000" stroke-linecap="round" stroke-linejoin="round"/></g></svg>