<?xml version="1.0" encoding="UTF-8"?><svg id="Layer_2" xmlns="http://www.w3.org/2000/svg" viewBox="0 0 48 48"><g transform="translate(-2.0172,4.1491) scale(1.081794)" stroke-width="0.924390"><path d="M6.67,34.18c-.84,0-1.53-.68-1.53-1.53h-.03l.03-20.39h0c0-.84.68-1.53,1.53-1.53h34.78c.84,0,1.53.68,1.53,1.53v20.39c0,.84-.68,1.53-1.53,1.53H6.67Z" fill="none" stroke="#000" stroke-linecap="round" stroke-linejoin="round"/><line x1="34.88" y1="28.43" x2="40.48" y2="28.43" fill="none" stroke="#000" stroke-linecap="round" stroke-linejoin="round"/><line x1="34.88" y1="29.78" x2="40.48" y2="29.78" fill="none" stroke="#000" stroke-linecap="round" stroke-linejoin="round"/><line x1="29.58" y1="16.65" x2="29.58" y2="28.26" fill="none" stroke="#000" stroke-linecap="round" stroke-linejoin="round"/><path d="M10.12,31c-.84,0-1.53-.68-1.53-1.53h-.03l.03-14.03h0c0-.84.68-1.53,1.53-1.53h20.78c.84,0,1.53.68,1.53,1.53v14.03c0,.84-.68,1.53-1.53,1.53H10.12Z" fill="none" stroke="#000" stroke-linecap="round" stroke-linejoin="round"/><path d="M37.68,14.98c-1.2,0-2.18.98-2.18,2.18s.98,2.18,2.18,2.18,2.18-.98,2.18-2.18-.98-2.18-2.18-2.18Z" fill="none" stroke="#000" stroke-linecap="round" stroke-linejoin="round"/><path d="M37.68,21.7c-1.2,0-2.18.98-2.18,2.18s.98,2.18,2.18,2.18,2.18-.98,2.18-2.18-.98-2.18-2.18-2.18Z" fill="none" stroke="#000" stroke-linecap="round" stroke-linejoin="round"/><path d="M9.1,34.36v2.08c0,.46.37.83.83.83s.83-.37.83-.83v-2.08c0-.06,0-.13-.03-.18h-1.61c-.01.06-.03.13-.03.18h0Z" fill="none" stroke="#000" stroke-linecap="round" stroke-linejoin="round"/><path d="M37.68,34.36v2.08c0,.46.37.83.83.83s.83-.37.83-.83v-2.08c0-.06,0-.13-.03-.18h-1.61c-.01.06-.03.13-.03.18h0Z" fill="none" stroke="#000" stroke-linecap="round" stroke-linejoin="round"/></g></svg>