<?xml version="1.0" encoding="UTF-8"?><svg id="Layer_2" xmlns="http://www.w3.org/2000/svg" viewBox="0 0 64 64"><g transform="translate(-3.8839,-3.9587) scale(1.495163)" stroke-width="0.891765"><defs><style>.cls-1{fill:none;stroke:#000;stroke-linecap:round;stroke-linejoin:round;}</style></defs><path class="cls-1" d="M25.99,9.15h-9.79c-1.1,0-2-.9-2-2.01s.89-2,2-2h9.81-.06,5.84c1.1,0,2,.9,2,2s-.89,2-2,2h-5.87.07Z"/><rect class="cls-1" x="13.45" y="18.74" width="21.1" height="18.6"/><path class="cls-1" d="M34.54,37.18c0,.06-.02-24.47-.02-24.47l.03,29.57c0,.37-.3.67-.67.68H14.13c-.37,0-.68-.3-.68-.68l.02-32.44c0-.37.3-.68.68-.68,0,0,0,0,0,0h2.3s15.45-.01,15.45-.01h1.98c.37,0,.67.3.67.68l-.03,2.88"/></g></svg>