<?xml version="1.0" encoding="UTF-8"?><svg xmlns="http://www.w3.org/2000/svg" width="41.7" height="48" viewBox="0 0 41.7 48"><g  stroke-width="0.948649" transform="translate(-4.4789,-1.0655) scale(1.054130)">
  <!-- Generator: Adobe Illustrator 30.3.0, SVG Export Plug-In . SVG Version: 2.1.3 Build 182)  -->
  <defs>
    <style>
      .st0 {
        fill: none;
        stroke: #000;
        stroke-linecap: round;
        stroke-linejoin: round;
        stroke-width: 0.948649px;
      }
    </style>
  </defs>
  <path class="st0" d="M24.07,4.42s4.54,6.4,3.62,10.96l5.48-3.63c.69,3.46.03,7.05-1.85,10.03l5.48-1.81c.09,3.96-1.21,7.84-3.68,10.94l7.31-1.8c-.01,5.47-6.43,16.41-16.46,13.64-10.04,2.7-16.4-8.26-16.39-13.74l7.29,1.84c-2.45-3.12-3.73-6.99-3.62-10.95l5.47,1.84c-1.87-3-2.51-6.59-1.8-10.05l5.46,3.66c-.9-4.56,3.68-10.94,3.68-10.94Z"/>
  <path class="st0" d="M23.97,42.73l.05-20.99"/>
  <path class="st0" d="M19.04,34.83c.41,2.73,2.96,4.62,5.7,4.21,2.16-.33,3.87-2.02,4.2-4.18"/>
  <path class="st0" d="M20.36,27.22c.54,1.57,1.98,2.66,3.64,2.75,1.66-.08,3.11-1.16,3.66-2.73"/>
</g></svg>