<?xml version="1.0" encoding="UTF-8"?><svg xmlns="http://www.w3.org/2000/svg" width="48" height="48" viewBox="0 0 48 48"><g  transform="translate(0.0000,0.0000) scale(1.000000)"><g transform="translate(0.0000,0.0000)"><g transform="translate(0.0000,0.0000) scale(1.000000)"><g transform="translate(-1.7868,8.6789) scale(1.078947)" stroke-width="0.926829">
  <!-- Generator: Adobe Illustrator 30.3.0, SVG Export Plug-In . SVG Version: 2.1.3 Build 182)  -->
  <defs>
    <style>
      .st0 {
        fill: none;
        stroke: #000;
        stroke-linecap: round;
        stroke-linejoin: round;
      }
    </style>
  </defs>
  <path class="st0" d="M5.07,16.58c-.01-.11,0-.23.04-.34.12-.34.44-.55.78-.54l36.13-.1c.09,0,.17.02.26.04.31.11.51.39.54.71l.08,15.86c.01.11,0,.23-.04.34-.12.34-.44.55-.78.54l-36.31.1c-.09,0-.17-.02-.26-.04-.31-.11-.51-.39-.54-.71l.1-15.86h.01Z"/>
  <path class="st0" d="M15.79,25c0-3,2.44-5.44,5.44-5.44s5.44,2.44,5.44,5.44"/>
  <path class="st0" d="M32.07,23.8c0,3-2.44,5.44-5.44,5.44s-5.44-2.44-5.44-5.44"/>
</g></g></g></g></svg>