<?xml version="1.0" encoding="UTF-8"?><svg id="Layer_2" xmlns="http://www.w3.org/2000/svg" viewBox="0 0 48 48"><g transform="translate(-1.9090,-0.5026) scale(1.081794)" stroke-width="0.924390"><defs><style>.cls-1{fill:none;stroke:#000;stroke-linecap:round;stroke-linejoin:round;}</style></defs><path class="cls-1" d="M38.62,21.14c0-8.09-6.56-14.66-14.66-14.66s-14.67,6.57-14.67,14.66c0,5.19,2.7,9.74,6.76,12.35-.14-.72-.22-1.46-.23-2.23-.05-2.15.41-4.15,1.21-5.84-2.25-1.49-3.68-3.69-3.68-6.15,0-4.49,4.75-8.14,10.61-8.14s10.61,3.64,10.61,8.14c0,2.49-1.47,4.71-3.76,6.2.78,1.58,1.24,3.43,1.29,5.43.02.88-.05,1.73-.19,2.55,4.04-2.61,6.72-7.16,6.72-12.32h0Z"/><path class="cls-1" d="M16,33.25c.89,4.77,4.32,8.38,8.22,8.29,3.82-.08,6.93-3.59,7.71-8.23"/><circle class="cls-1" cx="19.4" cy="18.68" r="2.19"/><circle class="cls-1" cx="28.5" cy="18.68" r="2.19"/><path class="cls-1" d="M35.43,12.02c1.13,1.48,1.97,3.05,2.58,5.02.51,1.67.61,3.02.58,4.65v.49s.84-.04,1.4-.18c2.24-.55,3.43-3.54,2.65-6.68-.78-3.14-3.22-5.23-5.46-4.67-.66.16-1.46.65-1.91,1.18l.16.2Z"/><path class="cls-1" d="M12.53,12.02c-1.13,1.48-1.97,3.05-2.58,5.02-.51,1.67-.61,3.02-.58,4.65v.49s-.84-.04-1.4-.18c-2.24-.55-3.44-3.54-2.65-6.68.78-3.14,3.22-5.23,5.46-4.67.66.16,1.46.65,1.91,1.18l-.16.2Z"/><path class="cls-1" d="M28.34,34.45c-.97,1.28-2.51,2.11-4.24,2.11-1.84,0-3.46-.93-4.42-2.35"/><path class="cls-1" d="M21.03,30.12c0,.55.43.99.99.99s.99-.43.99-.99-.43-.99-.99-.99-.99.43-.99.99Z"/><path class="cls-1" d="M25.02,30.12c0,.55.43.99.99.99s.99-.43.99-.99-.43-.99-.99-.99-.99.43-.99.99Z"/></g></svg>