<?xml version="1.0" encoding="UTF-8"?><svg id="Layer_2" xmlns="http://www.w3.org/2000/svg" viewBox="0 0 48 48"><g transform="translate(-1.9487,-1.8947) scale(1.078947)" stroke-width="0.926829"><defs><style>.cls-1{fill:none;stroke:#000;stroke-linecap:round;stroke-linejoin:round;}</style></defs><circle class="cls-1" cx="24" cy="23.99" r="11.24"/><path class="cls-1" d="M34.77,20.61c.34,1.07.52,2.2.52,3.38s-.19,2.36-.54,3.45l8.25-3.38-8.23-3.46h0Z"/><path class="cls-1" d="M20.66,13.27c1.08-.35,2.19-.52,3.39-.52s2.29.18,3.34.5l.05.02-3.37-8.22-3.46,8.23h.05Z"/><path class="cls-1" d="M14.05,18.85c1.04-2.01,2.66-3.67,4.64-4.75l.19-.1-8.22-3.46,3.38,8.29v.02h0Z"/><path class="cls-1" d="M13.34,27.39c-.35-1.08-.52-2.2-.52-3.4s.15-2.29.52-3.41h0s-8.24,3.36-8.24,3.36l8.24,3.47v-.02s0,0,0,0Z"/><path class="cls-1" d="M18.8,33.94c-2.07-1.08-3.7-2.77-4.77-4.85l-3.45,8.25,8.27-3.37-.05-.03Z"/><path class="cls-1" d="M27.43,34.71c-1.07.34-2.2.52-3.38.52-1.25,0-2.3-.15-3.43-.53h-.05s3.39,8.26,3.39,8.26l3.42-8.14.04-.1h0Z"/><path class="cls-1" d="M29.18,33.99l8.2,3.43-3.36-8.24h0c-1.08,2.07-2.74,3.73-4.81,4.79h-.03Z"/><path class="cls-1" d="M29.2,14c2.05,1.06,3.75,2.75,4.82,4.8l.04-.09,3.41-8.08-8.26,3.37Z"/></g></svg>