<?xml version="1.0" encoding="UTF-8"?><svg id="Layer_2" xmlns="http://www.w3.org/2000/svg" viewBox="0 0 48 48"><g transform="translate(-1.9909,-2.0465) scale(1.087308)" stroke-width="0.919703"><rect x="20.28" y="20.28" width="7.02" height="7.02" rx=".85" ry=".85" transform="translate(23.79 -9.85) rotate(45)" fill="none" stroke="#000" stroke-linecap="round" stroke-linejoin="round"/><path d="M22.74,19.9c-1.54-3.32-2.52-6.76-2.93-10.44-.18-1.24-.05-2.61-.06-3.78v-.22c-6.78-.01-12.05,2.42-12.05,2.42,0,0-2.39,5.04-2.56,11.53,1.18,0,2.57.14,3.81.32,3.83.42,7.48,1.37,10.97,2.99l2.83-2.83Z" fill="none" stroke="#000" stroke-linecap="round" stroke-linejoin="round"/><path d="M25.07,20.1l2.83,2.83c3.36-1.58,6.83-2.58,10.54-3.02,1.25-.19,2.63-.07,3.81-.09h.22c.06-6.83-2.35-12.13-2.35-12.13,0,0-5.06-2.37-11.6-2.5-.01,1.19-.16,2.59-.35,3.84-.45,3.86-1.44,7.55-3.09,11.07Z" fill="none" stroke="#000" stroke-linecap="round" stroke-linejoin="round"/><path d="M22.82,27.79l-2.69-2.69c-3.36,1.59-6.79,2.54-10.57,2.99-1.25.19-2.63.07-3.81.09h-.22c-.06,6.83,2.35,12.13,2.35,12.13,0,0,5.06,2.37,11.6,2.5.01-1.19.16-2.59.35-3.84.47-3.96,1.31-7.63,2.98-11.18Z" fill="none" stroke="#000" stroke-linecap="round" stroke-linejoin="round"/><path d="M42.74,28.44c-1.2-.02-2.61-.18-3.87-.38-3.99-.5-7.7-1.38-11.28-3.09l-2.68,2.68c1.63,3.4,2.61,6.86,3.09,10.67.2,1.26.09,2.65.12,3.83v.22c6.88.11,12.2-2.28,12.2-2.28,0,0,2.35-5.08,2.43-11.67Z" fill="none" stroke="#000" stroke-linecap="round" stroke-linejoin="round"/></g></svg>