<?xml version="1.0" encoding="UTF-8"?><svg xmlns="http://www.w3.org/2000/svg" width="35.8" height="48" viewBox="0 0 35.8 48"><g  transform="translate(-5.4000,0.0000) scale(1.000000)">
  <!-- Generator: Adobe Illustrator 30.3.0, SVG Export Plug-In . SVG Version: 2.1.3 Build 182)  -->
  <defs>
    <style>
      .st0 {
        fill: none;
        stroke: #000;
        stroke-linecap: round;
        stroke-linejoin: round;
        stroke-width: 1px;
      }
    </style>
  </defs>
  <path class="st0" d="M28.93,12.02c0,3.12-2.53,8.46-5.64,8.46s-5.64-5.35-5.64-8.46,2.53-5.64,5.64-5.64,5.64,2.53,5.64,5.64Z"/>
  <path class="st0" d="M18.48,9.08c-1.49.45-3.07-.39-3.52-1.88-.45-1.49.39-3.07,1.88-3.52,1.49-.45,3.07.39,3.52,1.88.16.53.16,1.1,0,1.64"/>
  <path class="st0" d="M26.23,7.2c-.45-1.49.39-3.07,1.88-3.52,1.49-.45,3.07.39,3.52,1.88.45,1.49-.39,3.07-1.88,3.52-.53.16-1.1.16-1.64,0"/>
  <path class="st0" d="M18.02,14.4c-7.27,8.41-11.73,22.98-7.42,24.41,4.23,1.41,11.28-4.23,12.69-9.87,1.41,5.64,8.46,11.28,12.69,9.87,4.3-1.43-.15-16.01-7.42-24.41"/>
  <path class="st0" d="M23.29,20.48v8.46"/>
  <path class="st0" d="M17.55,36.87c1.32,6.61,4.39,7.59,5.75,7.59s4.42-.97,5.75-7.59"/>
</g></svg>