<?xml version="1.0" encoding="UTF-8"?><svg id="Layer_2" xmlns="http://www.w3.org/2000/svg" viewBox="0 0 64 64"><g transform="translate(-3.7151,-3.6161) scale(1.486043)" stroke-width="0.897237"><defs><style>.cls-1{fill:none;stroke:#000;stroke-linecap:round;stroke-linejoin:round;}</style></defs><path class="cls-1" d="M26.96,27.6c-.66.87-1.7,1.43-2.88,1.43-1.25,0-2.35-.64-3-1.59"/><path class="cls-1" d="M31.49,18.97c-2.84,0-4.53-.72-6.61-2.4l.05.04c-2.72,1.58-5.39,2.36-8.23,2.36-1.14,0-2.22-.18-3.25-.53-.26,1.02-.39,2.09-.39,3.19,0,6.66,4.95,12.05,11.04,12.05s11.04-5.4,11.04-12.05c0-1.1-.15-2.17-.39-3.19-1.02.35-2.11.53-3.25.53h0Z"/><path class="cls-1" d="M29.65,10.85c-1.59-.8-3.72-1.37-5.63-1.37-5.33,0-9.81,3.44-11.14,8.55,1.11.7,2.64.87,3.83.92,2.84.11,5-.86,6.21-1.37,1.86-.79,4.62-2,5.61-7.03"/><path class="cls-1" d="M16.75,22.07c.46-.6,1.19-1,2.01-1,.87,0,1.63.45,2.1,1.11"/><path class="cls-1" d="M26.96,22.07c.46-.6,1.19-1,2.01-1,.87,0,1.63.45,2.1,1.11"/><circle class="cls-1" cx="29.01" cy="22.87" r=".55"/><circle class="cls-1" cx="18.8" cy="22.87" r=".55"/><path class="cls-1" d="M34.98,18.18h.12c-1.01-4.28-4.21-7.38-6.59-7.64h0c-.68,3.34-2.1,5.11-3.75,6.09l.13.19c2.88,2.14,6.47,2.59,10.08,1.43"/><path class="cls-1" d="M24.02,9.48c1.56.05,3.32.29,4.6.9l-.13-.04c.36.15.8.24,1.16.5.06-.26.13-.37.14-.65.09-2.79-2.42-5.13-5.61-5.23s-5.84,2.08-5.92,4.87c0,.29.07.73.12,1.02,1.61-.98,3.51-1.44,5.64-1.37Z"/><path class="cls-1" d="M40.9,37.58v-.11.06c0-2-.82-3.66-2.3-4.47l.03.02c-2.51-1.28-4.76-1.68-7.97-1.84l-.26.21c-.2.15-.43.3-.67.46-1.66,1.17-3.62,1.84-5.72,1.84-1.53,0-2.99-.36-4.31-1.01-.86-.38-1.59-.86-2.12-1.39-.05-.05-.1-.08-.15-.13-3.2.15-5.52.56-8.03,1.84l.03-.02c-1.48.82-2.29,2.47-2.3,4.47v-.06,5.56h33.75v-5.46.02h0Z"/><path class="cls-1" d="M20.03,23.47c-.36.2-.79.32-1.23.32s-.88-.13-1.25-.34"/><path class="cls-1" d="M30.25,23.47c-.36.2-.79.32-1.23.32s-.88-.13-1.25-.34"/><path class="cls-1" d="M34.14,31.66l1.27.25h0c.6.11.44.11,1.02.26v.74s.01,10.03.01,10.03c0,0-24.27,0-24.27,0v-10.92c.63-.18,1.25-.32,1.91-.45l.03.02.08.18c0,6.17,4.45,11.17,9.95,11.17s9.95-5,9.95-11.17l.06-.11Z"/></g></svg>