<?xml version="1.0" encoding="UTF-8"?><svg xmlns="http://www.w3.org/2000/svg" width="48" height="48" viewBox="0 0 48 48"><g  transform="translate(0.0000,0.0000) scale(1.000000)"><g transform="translate(0.0000,0.0000)"><g transform="translate(0.0000,0.0000) scale(1.000000)"><g transform="translate(-2.0317,1.1053) scale(1.084656)" stroke-width="0.921951"><path d="M7.09,40.01c-1.07,0-1.94-.86-1.94-1.94h-.04l.04-11.46h0c0-1.07.86-1.94,1.94-1.94h26.38c1.07,0,1.94.86,1.94,1.94v11.46c0,1.07-.86,1.94-1.94,1.94H7.09Z" fill="none" stroke="#000" stroke-linecap="round" stroke-linejoin="round"/><path d="M11.93,14.77c-2.72,0-4.94,2.22-4.94,4.94s2.22,4.94,4.94,4.94,4.94-2.22,4.94-4.94-2.22-4.94-4.94-4.94Z" fill="none" stroke="#000" stroke-linecap="round" stroke-linejoin="round"/><path d="M25.2,7.99c-4.59,0-8.33,3.75-8.33,8.33s3.75,8.33,8.33,8.33,8.33-3.75,8.33-8.33-3.75-8.33-8.33-8.33Z" fill="none" stroke="#000" stroke-linecap="round" stroke-linejoin="round"/><path d="M42.89,38.51v-12.36s-7.45,3.8-7.45,3.8c0,0-.08,4.68,0,4.76l7.45,3.8v-12.36" fill="none" stroke="#000" stroke-linecap="round" stroke-linejoin="round"/></g></g></g></g></svg>