<?xml version="1.0" encoding="UTF-8"?><svg id="Layer_2" xmlns="http://www.w3.org/2000/svg" viewBox="0 0 48 48"><g transform="translate(-2.1105,1.4500) scale(1.078947)" stroke-width="0.926829"><rect x="11.7" y="8.8" width="5.2" height="1.97" transform="translate(-2.74 6.65) rotate(-23.96)" fill="none" stroke="#000" stroke-linecap="round" stroke-linejoin="round"/><path d="M17.08,9.63c1,2.25.23,3.39-1.08,3.97s-2.61.52-3.67-1.86l4.75-2.11Z" fill="none" stroke="#000" stroke-linecap="round" stroke-linejoin="round"/><path d="M22.37,25.18c.93-.39,1.96-.61,3.03-.61,4.3,0,7.79,3.49,7.79,7.79,0,.06,0,.13,0,.19.22-.03.45-.03.68-.06,2.12-.28,3.93.87,4.77,2.94,2.47,0,4.47,2,4.47,4.47H5.23c0-2.47,2-4.47,4.47-4.47,1.03,0,1.97.35,2.72.93.26-2.22,2.14-3.95,4.44-3.95.23,0,.46.02.68.06,0-.06,0-.13,0-.19l.08.08c0-2.35,1.04-4.46,2.69-5.89" fill="none" stroke="#000" stroke-linecap="round" stroke-linejoin="round"/><path d="M16.01,13.58c-.31.14-.62.24-.94.31l7.27,16.35s0,.01,0,.02c.25.57.86.84,1.35.62s.69-.85.45-1.41h0s-7.29-16.4-7.29-16.4c-.25.2-.54.37-.85.51Z" fill="none" stroke="#000" stroke-linecap="round" stroke-linejoin="round"/><path d="M19.06,35.9c1.87-1.61,4.7-1.39,6.3.49" fill="none" stroke="#000" stroke-linecap="round" stroke-linejoin="round"/><path d="M25.65,31.74c1.87-1.61,4.7-1.39,6.3.49" fill="none" stroke="#000" stroke-linecap="round" stroke-linejoin="round"/><path d="M28.25,30.6c-.11-.42-.25-.84-.43-1.25l-.03-.06-.1-.23-1.14-2.56c-.06-.14-.23-.2-.37-.14l-2.87,1.28.82,1.84h0c.24.56.04,1.19-.45,1.41s-1.1-.06-1.35-.62c0,0,0-.01,0-.02l-.8-1.81-2.06.92-.81.36c-.14.06-.2.22-.14.37l1,2.24.07.16.2.44c.33.74.77,1.41,1.28,1.99" fill="none" stroke="#000" stroke-linecap="round" stroke-linejoin="round"/></g></svg>