<?xml version="1.0" encoding="UTF-8"?><svg id="Layer_2" xmlns="http://www.w3.org/2000/svg" viewBox="0 0 64 64"><g transform="translate(-3.7895,-1.4526) scale(1.491228)" stroke-width="0.894118"><path d="M5.94,41.43c-.49,0-.9-.4-.9-.9h-.02l.02-1.4h0c0-.49.4-.9.9-.9h36.15c.49,0,.9.4.9.9v1.4c0,.49-.4.9-.9.9H5.94Z" fill="none" stroke="#000" stroke-linecap="round" stroke-linejoin="round"/><path d="M7.97,37.35v-1.4h0c0-.49.4-.9.9-.9h30.29c.49,0,.9.4.9.9v2.29H7.95l.02-.9h0Z" fill="none" stroke="#000" stroke-linecap="round" stroke-linejoin="round"/><path d="M40.03,17.83v1.4h0c0,.49-.4.9-.9.9H8.84c-.49,0-.9-.4-.9-.9v-2.29h32.1l-.02.9h.01Z" fill="none" stroke="#000" stroke-linecap="round" stroke-linejoin="round"/><path d="M42.5,16.94L24.31,6.8c-.26-.14-.58-.14-.84,0L5.5,16.94h37Z" fill="none" stroke="#000" stroke-linecap="round" stroke-linejoin="round"/><rect x="10.92" y="20.13" width="6.3" height="14.93" fill="none" stroke="#000" stroke-linecap="round" stroke-linejoin="round"/><rect x="30.9" y="20.13" width="6.3" height="14.93" fill="none" stroke="#000" stroke-linecap="round" stroke-linejoin="round"/></g></svg>