<?xml version="1.0" encoding="UTF-8"?><svg xmlns="http://www.w3.org/2000/svg" width="48" height="48" viewBox="0 0 48 48"><g  transform="translate(0.0000,0.0000) scale(1.000000)"><g transform="translate(0.0000,0.0000)"><g transform="translate(0.0000,0.0000) scale(1.000000)"><g transform="translate(-2.0317,-1.2725) scale(1.084656)" stroke-width="0.921951"><path d="M20.55,25.47v13.23c0,1.9,1.55,3.45,3.45,3.45s3.45-1.55,3.45-3.45v-13.22h-6.89Z" fill="none" stroke="#000" stroke-linecap="round" stroke-linejoin="round"/><path d="M35.06,9.59s-.07-.06-.09-.07c-.31-.23-.64-.42-.97-.63-.74.96-1.88,1.58-3.19,1.58-2.23,0-4.04-1.81-4.04-4.04,0-.09.02-.17.03-.26-4.82-.74-9.79.42-13.8,3.3,2,.24,3.56,1.92,3.56,3.99,0,2.23-1.81,4.04-4.04,4.04-2.05,0-3.72-1.53-3.98-3.51-2.22,3.17-3.33,6.79-3.39,10.4,0,.56.46,1.01,1.02,1.02l20.88.02c-2.17-.06-3.92-1.84-3.92-4.03s1.81-4.04,4.04-4.04,4.04,1.81,4.04,4.04-1.75,3.96-3.92,4.03h14.54c.56.01,1.04-.44,1.02-1-.12-5.69-2.82-11.26-7.78-14.84Z" fill="none" stroke="#000" stroke-linecap="round" stroke-linejoin="round"/><path d="M27.16,25.44s.08-.01.11-.01h-.23s.08.01.12.01Z" fill="none" stroke="#000" stroke-linecap="round" stroke-linejoin="round"/><path d="M31.2,21.4c0-2.23-1.81-4.04-4.04-4.04s-4.04,1.81-4.04,4.04,1.75,3.96,3.92,4.03h.23c2.18-.06,3.92-1.84,3.92-4.03Z" fill="none" stroke="#000" stroke-linecap="round" stroke-linejoin="round"/><path d="M30.82,10.47c1.3,0,2.45-.63,3.19-1.58-2.25-1.43-4.7-2.33-7.2-2.72,0,.09-.03.17-.03.26,0,2.23,1.81,4.04,4.04,4.04Z" fill="none" stroke="#000" stroke-linecap="round" stroke-linejoin="round"/><path d="M12.53,17.5c2.23,0,4.04-1.81,4.04-4.04,0-2.07-1.56-3.75-3.56-3.99-1.61,1.15-3.06,2.56-4.28,4.25-.06.09-.12.18-.18.27.26,1.98,1.94,3.51,3.98,3.51Z" fill="none" stroke="#000" stroke-linecap="round" stroke-linejoin="round"/></g></g></g></g></svg>