<?xml version="1.0" encoding="UTF-8"?><svg id="Layer_2" xmlns="http://www.w3.org/2000/svg" viewBox="0 0 64 64"><g transform="translate(-4.0832,-4.2854) scale(1.509756)" stroke-width="0.883145"><path d="M20.42,35.52V10.37s7.17,0,7.17,0l.03,25.26c0,.08-.02.16-.05.23l-2.97,6.61c-.2.42-.8.43-1,0l-3.13-6.71c-.03-.07-.05-.15-.05-.23Z" fill="none" stroke="#000" stroke-linecap="round" stroke-linejoin="round"/><path d="M32.82,7.77c0-1.38-.93-2.5-2.7-2.5h-12.34c-1.77,0-2.81,1.12-2.81,2.5,0,.01,0,.02,0,.04,0,.01,0,.03,0,.04,0,1.38.93,2.5,2.7,2.5h12.34c1.77,0,2.81-1.12,2.81-2.5,0-.01,0-.02,0-.04,0-.01,0-.03,0-.04Z" fill="none" stroke="#000" stroke-linecap="round" stroke-linejoin="round"/></g></svg>