<?xml version="1.0" encoding="UTF-8"?><svg xmlns="http://www.w3.org/2000/svg" width="48" height="48" viewBox="0 0 48 48"><g  transform="translate(0.0000,0.0000) scale(1.000000)"><g transform="translate(0.0000,0.0000)"><g transform="translate(0.0000,0.0000) scale(1.000000)"><g transform="translate(-2.2947,0.0013) scale(1.093333)" stroke-width="0.914634"><polygon points="22.87 24.58 24.88 30.73 31.38 30.73 26.11 34.53 28.13 40.68 22.87 36.88 17.6 40.68 19.61 34.53 14.34 30.73 20.85 30.73 22.87 24.58" fill="none" stroke="#000" stroke-linecap="round" stroke-linejoin="round"/><polygon points="34.25 6.9 36.26 13.04 42.76 13.04 37.5 16.84 39.51 22.99 34.25 19.19 28.99 22.99 30.99 16.84 25.73 13.04 32.23 13.04 34.25 6.9" fill="none" stroke="#000" stroke-linecap="round" stroke-linejoin="round"/><polygon points="12.01 12.01 13.59 16.85 18.71 16.85 14.58 19.84 16.16 24.7 12.01 21.7 7.86 24.7 9.46 19.84 5.31 16.85 10.43 16.85 12.02 12.01 12.01 12.01" fill="none" stroke="#000" stroke-linecap="round" stroke-linejoin="round"/></g></g></g></g></svg>