<?xml version="1.0" encoding="UTF-8"?><svg xmlns="http://www.w3.org/2000/svg" width="48" height="48" viewBox="0 0 48 48"><g  transform="translate(0.0000,0.0000) scale(1.000000)"><g transform="translate(0.0000,0.0000)"><g transform="translate(0.0000,0.0000) scale(1.000000)"><g transform="translate(-2.0172,1.6609) scale(1.081794)" stroke-width="0.924390"><defs><style>.cls-1{fill:none;stroke:#000;stroke-linecap:round;stroke-linejoin:round;}</style></defs><line class="cls-1" x1="8.99" y1="22.06" x2="15.21" y2="39.21"/><polygon class="cls-1" points="37.68 14.74 42.93 29.23 15.24 39.27 8.97 21.98 34.34 12.79 37.68 14.75 37.68 14.74"/><polygon class="cls-1" points="14.35 39.54 5.15 23.61 31.78 8.24 34.34 12.79 7.03 22.64 14.35 39.54"/><polygon class="cls-1" points="37.77 15.01 42.93 29.23 14.49 39.54 7.03 22.64 34.32 12.79 35.37 15.8 37.76 15.01 37.77 15.01"/><line class="cls-1" x1="14.21" y1="24.21" x2="33.05" y2="17.43"/><line class="cls-1" x1="15.15" y1="26.82" x2="33.99" y2="20.03"/><line class="cls-1" x1="16.1" y1="29.42" x2="34.94" y2="22.64"/><line class="cls-1" x1="17.04" y1="32.02" x2="35.88" y2="25.24"/><line class="cls-1" x1="17.99" y1="34.63" x2="36.83" y2="27.84"/></g></g></g></g></svg>