<?xml version="1.0" encoding="UTF-8"?><svg id="Layer_2" xmlns="http://www.w3.org/2000/svg" viewBox="0 0 48 48"><g transform="translate(-1.8947,-1.8947) scale(1.078947)" stroke-width="0.926829"><defs><style>.cls-1{fill:none;stroke:#000;stroke-linecap:round;stroke-linejoin:round;}</style></defs><path class="cls-1" d="M37.32,32.85c-10.64,0-19.27-8.63-19.27-19.27,0-3.06.72-5.95,1.99-8.53C11.81,7.24,5.73,14.75,5.73,23.68c0,10.64,8.63,19.27,19.27,19.27,7.58,0,14.13-4.38,17.27-10.74-1.58.42-3.23.64-4.95.64Z"/><polygon class="cls-1" points="35.63 13.02 37.2 17.81 42.26 17.81 38.16 20.77 39.73 25.56 35.63 22.6 31.53 25.56 33.09 20.77 28.99 17.81 34.06 17.81 35.63 13.02"/><polygon class="cls-1" points="27.52 5.06 28.75 8.83 32.74 8.83 29.52 11.16 30.75 14.94 27.52 12.61 24.29 14.94 25.53 11.16 22.3 8.83 26.29 8.83 27.53 5.06 27.52 5.06"/></g></svg>