<?xml version="1.0" encoding="UTF-8"?><svg id="Layer_2" xmlns="http://www.w3.org/2000/svg" viewBox="0 0 48 48"><g transform="translate(-1.8899,-1.8950) scale(1.078747)" stroke-width="0.927002"><path d="M14.81,26.36l.03-19.99h0c0-.75.6-1.37,1.35-1.37h15.67c.74,0,1.35.61,1.35,1.37v19.99H14.81Z" fill="none" stroke="#000" stroke-linecap="round" stroke-linejoin="round"/><path d="M12.96,31.22c-.75,0-1.37-.61-1.37-1.37h-.03l.03-2.13h0c0-.75.61-1.37,1.37-1.37h22.12c.75,0,1.37.61,1.37,1.37v2.13c0,.75-.61,1.37-1.37,1.37H12.96Z" fill="none" stroke="#000" stroke-linecap="round" stroke-linejoin="round"/><path d="M12.96,16.87c.11,0,.2.09.2.2v.84l-.02.67c0,.11-.09.2-.2.2h-4.23c-.11,0-.2-.09-.2-.2v-1.51c0-.11.09-.2.2-.2h4.25Z" fill="none" stroke="#000" stroke-linecap="round" stroke-linejoin="round"/><path d="M14.58,22.91h-.07c-1.31-.08-2.48-.8-3.16-2.04-.38-.68-.54-1.4-.51-2.11" fill="none" stroke="#000" stroke-linecap="round" stroke-linejoin="round"/><path d="M39.29,16.95c.11,0,.2.09.2.2v1.51c0,.11-.09.2-.2.2h-4.23c-.11,0-.2-.09-.2-.2l-.02-.67v-.84c0-.11.09-.2.2-.2h4.25Z" fill="none" stroke="#000" stroke-linecap="round" stroke-linejoin="round"/><path d="M37.16,18.85c.03.7-.14,1.43-.51,2.11-.69,1.24-1.86,1.96-3.16,2.04h-.07" fill="none" stroke="#000" stroke-linecap="round" stroke-linejoin="round"/><line x1="23.99" y1="31.22" x2="23.99" y2="39.6" fill="none" stroke="#000" stroke-linecap="round" stroke-linejoin="round"/><path d="M28.72,41.53c0,.81.65,1.46,1.46,1.46s1.46-.65,1.46-1.46h0c0-.81-.65-1.46-1.46-1.46s-1.46.65-1.46,1.46h0Z" fill="none" stroke="#000" stroke-linecap="round" stroke-linejoin="round"/><path d="M16.37,41.53c0,.81.65,1.46,1.46,1.46s1.46-.65,1.46-1.46h0c0-.81-.65-1.46-1.46-1.46s-1.46.65-1.46,1.46h0Z" fill="none" stroke="#000" stroke-linecap="round" stroke-linejoin="round"/><path d="M22.54,41.55c0,.81.65,1.46,1.46,1.46s1.46-.65,1.46-1.46h0c0-.81-.65-1.46-1.46-1.46s-1.46.65-1.46,1.46h0Z" fill="none" stroke="#000" stroke-linecap="round" stroke-linejoin="round"/><polyline points="17.89 39.78 18.85 37.77 19.01 37.77 28.97 37.77 29.93 39.78" fill="none" stroke="#000" stroke-linecap="round" stroke-linejoin="round"/></g></svg>