<?xml version="1.0" encoding="UTF-8"?><svg xmlns="http://www.w3.org/2000/svg" width="35.8" height="48" viewBox="0 0 35.8 48"><g  transform="translate(0.0000,0.0000) scale(1.000000)"><g transform="translate(-6.1000,0.0000)"><g transform="translate(6.1000,0.0000) scale(1.000000)"><g transform="translate(-8.5516,-2.7823) scale(1.102151)" stroke-width="0.907317">
  <!-- Generator: Adobe Illustrator 30.3.0, SVG Export Plug-In . SVG Version: 2.1.3 Build 182)  -->
  <defs>
    <style>
      .st0 {
        fill: none;
        stroke: #000;
        stroke-linecap: round;
        stroke-linejoin: round;
      }
    </style>
  </defs>
  <line class="st0" x1="24.05" y1="9.21" x2="24.05" y2="11.99"/>
  <path class="st0" d="M13.65,29.81c-.05,5.71,4.55,10.38,10.26,10.43s10.38-4.55,10.43-10.26v-.17c.05-5.71-4.55-10.38-10.26-10.43s-10.38,4.55-10.43,10.26v.17Z"/>
  <path class="st0" d="M22.25,29.81c0,.97.78,1.75,1.75,1.75s1.75-.78,1.75-1.75-.78-1.75-1.75-1.75-1.75.78-1.75,1.75h0Z"/>
  <circle class="st0" cx="24.09" cy="7.46" r="1.75"/>
  <line class="st0" x1="24" y1="22.91" x2="24" y2="28.06"/>
  <line class="st0" x1="18.43" y1="29.81" x2="22.13" y2="29.81"/>
  <path class="st0" d="M14.76,39.05c5.1,5.1,13.37,5.1,18.47,0s5.1-13.37,0-18.47h0c-5.1-5.1-13.37-5.1-18.47,0s-5.1,13.37,0,18.47Z"/>
  <path class="st0" d="M22.77,16.79v-3.2h2.46v3.22c-.65-.08-1.76-.06-2.46-.02Z"/>
  <circle class="st0" cx="16.38" cy="25.57" r=".3"/>
  <circle class="st0" cx="19.41" cy="22.39" r=".3"/>
  <path class="st0" d="M16.09,34.07c0,.16.13.3.3.3s.3-.13.3-.3h0c0-.16-.13-.3-.3-.3s-.3.13-.3.3Z"/>
  <circle class="st0" cx="19.41" cy="37.24" r=".3"/>
  <path class="st0" d="M32.43,29.81c0,.16.13.3.3.3.16,0,.3-.13.3-.3h0c0-.16-.13-.3-.3-.3-.16,0-.3.13-.3.3h0Z"/>
  <circle class="st0" cx="31.61" cy="34.1" r=".3"/>
  <circle class="st0" cx="28.56" cy="37.25" r=".3"/>
  <path class="st0" d="M31.33,25.56c0,.16.12.3.28.31.16,0,.3-.12.31-.28v-.03c0-.16-.12-.3-.28-.31-.16,0-.3.12-.31.28v.03Z"/>
  <path class="st0" d="M28.26,22.36c0,.16.12.3.28.31.16,0,.3-.12.31-.28v-.03c0-.16-.12-.3-.28-.31-.16,0-.3.12-.31.28v.03Z"/>
  <path class="st0" d="M23.68,38.54c0,.16.12.3.28.31.16,0,.3-.12.31-.28v-.03c0-.16-.12-.3-.28-.31-.16,0-.3.12-.31.28v.03Z"/>
  <path class="st0" d="M23.68,21.08c0,.16.12.3.28.31.16,0,.3-.12.31-.28v-.03c0-.16-.12-.3-.28-.31-.16,0-.3.12-.31.28v.03Z"/>
  <path class="st0" d="M14.98,29.81c0,.16.12.3.28.31.16,0,.3-.12.31-.28v-.03c0-.16-.12-.3-.28-.31-.16,0-.3.12-.31.28v.03Z"/>
  <path class="st0" d="M21.59,13.25c0,.18.17.32.4.32h.05s3.96,0,3.96,0c.22,0,.4-.14.4-.32v-.88c0-.18-.17-.32-.4-.32h-.05s-3.96,0-3.96,0c-.22,0-.4.14-.4.32v.88Z"/>
</g></g></g></g></svg>