<?xml version="1.0" encoding="UTF-8"?><svg id="Layer_2" xmlns="http://www.w3.org/2000/svg" viewBox="0 0 48 48"><g transform="translate(-1.8947,-0.9237) scale(1.078947)" stroke-width="0.926829"><defs><style>.cls-1{fill:none;stroke:#000;stroke-linecap:round;stroke-linejoin:round;}</style></defs><path class="cls-1" d="M25.44,32.32c3.3,4.21,9.44,6.01,13.7,4.02,4.26-1.99,5.03-7.01,1.73-11.22-3.3-4.21-9.44-6.01-13.7-4.02-4.26,1.99-5.03,7.01-1.73,11.22h0Z"/><line class="cls-1" x1="19.75" y1="23.23" x2="24.22" y2="23.23"/><path class="cls-1" d="M19.75,42.02v-10.96c0-4.01-.44-11.86,2.29-14.75"/><path class="cls-1" d="M18.51,13.74c-.64-1.39-1.91-3.16-3.31-4.24-.41-.32-.85-.57-1.28-.81l.03.02c-2.74-1.66-8.95-2.72-8.95-2.72,0,0,0,6.55,1.22,9.49.64,1.39,1.88,3.15,3.28,4.22.41.32.85.57,1.28.81,2.74,1.66,8.95,2.72,8.95,2.72,0,0,0-6.55-1.23-9.49Z"/><path class="cls-1" d="M26.16,21.69c3.38-2.17,7.71-1.55,10.68.07.34.18.73.48,1.05.66,1.07-.62,2.53-2.13,3.25-3.08,2.84-3.75,1.17-8.55-3.72-10.72-4.89-2.17-11.15-.9-13.99,2.85-2.63,3.48-1.38,7.87,2.72,10.22Z"/></g></svg>