<?xml version="1.0" encoding="UTF-8"?><svg xmlns="http://www.w3.org/2000/svg" width="44.2" height="48" viewBox="0 0 44.2 48"><g  transform="translate(0.0000,0.0000) scale(1.000000)"><g transform="translate(-1.9000,0.0000)"><g transform="translate(1.9000,0.0000) scale(1.000000)"><g transform="translate(-3.9863,-1.9236) scale(1.084663)" stroke-width="0.921946"><path d="M41.14,28.07c0-7.65-6.2-13.85-13.85-13.85-1.12,0-1.99.21-3.03.46-1.04-.25-2.34-.46-3.46-.46-7.65,0-13.85,6.2-13.85,13.85,0,2.43.63,4.71,1.73,6.7,2.34,4.63,8.18,7.94,15.05,7.99h.32c6.96.05,12.94-3.25,15.34-7.95,1.11-2,1.75-4.29,1.75-6.74Z" fill="none" stroke="#000" stroke-linecap="round" stroke-linejoin="round"/><path d="M24.26,14.68c-4.42,1.22-7.82,3.82-9.54,7.18-1.11,2-1.75,4.29-1.75,6.74,0,6.47,4.98,12.64,10.98,14.16,4.54-1.18,7.67-4.55,9.42-7.97,1.11-2,1.75-4.29,1.75-6.74,0-6.6-4.68-11.98-10.86-13.36" fill="none" stroke="#000" stroke-linecap="round" stroke-linejoin="round"/><path d="M24.26,14.68c-1.68,1.22-2.96,3.82-3.61,7.17-.42,2-.66,4.29-.66,6.74,0,6.47,1.69,12.65,3.96,14.16,1.72-1.18,3.11-4.56,3.77-7.98.42-2,.66-4.29.66-6.74,0-6.6-1.79-11.97-4.13-13.35" fill="none" stroke="#000" stroke-linecap="round" stroke-linejoin="round"/><path d="M30.22,14.52c-.17-.04-.34-.07-.51-.1-.5-.09-1-.24-1.43-.51-1.02-.65-1.71-1.76-1.78-3.06v-5.76s-4.82,0-4.82,0v5.76c-.06,1.29-.76,2.41-1.77,3.06-.43.28-.82.4-1.32.49-6.57,1.08-11.58,6.78-11.58,13.66,0,2.43.63,4.71,1.73,6.7,2.34,4.63,8.18,7.94,15.05,7.99h.32c6.96.05,12.94-3.25,15.34-7.95,1.11-2,1.75-4.29,1.75-6.74,0-6.66-4.7-12.22-10.96-13.54" fill="none" stroke="#000" stroke-linecap="round" stroke-linejoin="round"/></g></g></g></g></svg>