<?xml version="1.0" encoding="UTF-8"?><svg xmlns="http://www.w3.org/2000/svg" width="48" height="48" viewBox="0 0 48 48"><g  transform="translate(0.0000,0.0000) scale(1.000000)"><g transform="translate(0.0000,0.0000)"><g transform="translate(-1.9580,-1.9000) scale(1.081585)"><path d="M40.85,42.85l-4.9-4.1c-.1-.09-.24-.13-.37-.13h-14.49c-.65,0-1.19-.53-1.19-1.19v-1.25l.1-10.97c0-.65.53-1.19,1.19-1.19h20.53c.65,0,1.19.53,1.19,1.19v12.22c0,.65-.53,1.19-1.19,1.19h-2.19l1.31,4.24h0Z" fill="none" stroke="#000" stroke-linecap="round" stroke-linejoin="round" stroke-width="0.924568"/><path d="M26.03,32.58c.8,0,1.46-.65,1.46-1.46s-.65-1.46-1.46-1.46h0c-.8,0-1.46.65-1.46,1.46s.65,1.46,1.46,1.46h0Z" fill="none" stroke="#000" stroke-linecap="round" stroke-linejoin="round" stroke-width="0.924568"/><path d="M31.46,32.58c.8,0,1.46-.65,1.46-1.46s-.65-1.46-1.46-1.46h0c-.8,0-1.46.65-1.46,1.46s.65,1.46,1.46,1.46h0Z" fill="none" stroke="#000" stroke-linecap="round" stroke-linejoin="round" stroke-width="0.924568"/><path d="M36.8,32.58c.8,0,1.46-.65,1.46-1.46s-.65-1.46-1.46-1.46h0c-.8,0-1.46.65-1.46,1.46s.65,1.46,1.46,1.46h0Z" fill="none" stroke="#000" stroke-linecap="round" stroke-linejoin="round" stroke-width="0.924568"/><polygon points="7.15 36.57 7.15 36.56 7.14 36.56 7.15 36.57" fill="none" stroke="#000" stroke-linecap="round" stroke-linejoin="round" stroke-width="0.924568"/><path d="M19.97,25.2c0-.65.53-1.19,1.19-1.19h6.88l-.05-5.09c0-.65-.53-1.19-1.19-1.19H6.26c-.65,0-1.19.53-1.19,1.19v12.22c0,.65.53,1.19,1.19,1.19h2.19l-1.3,4.23,4.89-4.09c.1-.09.24-.13.37-.13h7.49l.07-7.13Z" fill="none" stroke="#000" stroke-linecap="round" stroke-linejoin="round" stroke-width="0.924568"/><line x1="9.69" y1="21.67" x2="23.41" y2="21.67" fill="none" stroke="#000" stroke-linecap="round" stroke-linejoin="round" stroke-width="0.924568"/><line x1="9.69" y1="25.23" x2="19.91" y2="25.23" fill="none" stroke="#000" stroke-linecap="round" stroke-linejoin="round" stroke-width="0.924568"/><line x1="9.69" y1="28.78" x2="19.91" y2="28.78" fill="none" stroke="#000" stroke-linecap="round" stroke-linejoin="round" stroke-width="0.924568"/></g></g></g></svg>