<?xml version="1.0" encoding="UTF-8"?><svg id="Layer_2" xmlns="http://www.w3.org/2000/svg" viewBox="0 0 48 48"><g transform="translate(-2.0026,0.5868) scale(1.078947)" stroke-width="0.926829"><defs><style>.cls-1{fill:none;stroke:#000;stroke-linecap:round;stroke-linejoin:round;}</style></defs><path class="cls-1" d="M43.08,25.25c-.17-5.68-4.82-10.17-10.55-10.17s-10.39,4.51-10.56,10.19l2.29.05s2.97,3.12,1.6,8.54c1.8,1.44,4.18,2.33,6.68,2.33s4.9-.96,6.71-2.43c2.39-1.93,3.84-5.18,3.84-8.51h0Z"/><path class="cls-1" d="M9.18,36.9l1.72-1.31c2.36,3.11,6.89,3.63,10.12,1.18,3.23-2.45,3.93-6.96,1.57-10.07l1.57-1.19.15-.12c3.18,4.18,2.37,10.14-1.81,13.32-4.18,3.18-10.14,2.37-13.32-1.81h0Z"/><path class="cls-1" d="M15.45,38.11l.7-3.18-.7,3.18Z"/><path class="cls-1" d="M15.43,38.24c1.89.28,3.92-.19,5.59-1.47l-2.47-3.25c-.63.48-1.43.61-2.19.43l-.93,4.29Z"/><path class="cls-1" d="M15.43,38.24l.55-2.54-.55,2.54Z"/><path class="cls-1" d="M16.36,33.95c-.66-.16-1.29-.56-1.76-1.17l-3.7,2.82c1.14,1.49,2.77,2.39,4.53,2.65l.93-4.29h0Z"/><path class="cls-1" d="M20.56,31.58l3.25.17-3.25-.17Z"/><path class="cls-1" d="M19.56,31.53c-.02.78-.36,1.52-.99,2l2.48,3.25c1.67-1.28,2.66-3.11,2.9-5l-4.39-.24h0Z"/><path class="cls-1" d="M11.97,25.07l5.38.11c-.04,1.64-1.27,2.95-2.75,2.92-1.49-.03-2.66-1.39-2.63-3.03Z"/><path class="cls-1" d="M9.32,29.78l2.52-2.06-2.52,2.06Z"/><path class="cls-1" d="M9.22,29.87c1.31,1.39,3.19,2.28,5.29,2.33l.09-4.09c-.79-.02-1.5-.41-1.98-1.03l-3.4,2.78Z"/><path class="cls-1" d="M9.22,29.87l2.01-1.65-2.01,1.65Z"/><path class="cls-1" d="M12.62,27.09c-.42-.54-.66-1.24-.65-2.01l-4.65-.1c-.04,1.88.68,3.6,1.9,4.89l3.4-2.78Z"/><path class="cls-1" d="M17.38,27.84l1.71,1.52-1.71-1.52Z"/><path class="cls-1" d="M16.63,27.18c-.51.59-1.22.96-2.02.95l-.08,4.09c.28,0,.56,0,.84-.03"/><path class="cls-1" d="M17.97,28.37l3.65-.95c.24-.67.37-1.39.38-2.13l-4.65-.09c-.02.77-.29,1.46-.73,1.98l2.47,2.19"/><path class="cls-1" d="M14.6,32.77l.78-.59.03-.02,3.47-2.64c1,1.31.84,3.1-.34,4-1.18.9-2.95.57-3.95-.74h0Z"/><path class="cls-1" d="M21.35,31.62l2.59.14-2.59-.14Z"/><path class="cls-1" d="M23.95,31.77c.22-1.76-.21-3.58-1.35-5.07l-.98.75-2.52,1.92-.2.15c.47.61.68,1.32.66,2l4.39.24h0Z"/><path class="cls-1" d="M22,25.28l2.16.05c0,.06,0,.12,0,.17"/><path class="cls-1" d="M12.5,34.38c-4.28-1-7.43-4.88-7.33-9.45l2.16.05c-.08,3.9,3.14,7.13,7.19,7.22"/><path class="cls-1" d="M33.3,15.04c0-1-.3-1.62-.84-2.47"/><path class="cls-1" d="M21.88,25.28l2.28.04s3.22,3.14,1.69,8.53"/><path class="cls-1" d="M32.2,9.78c-.2-.44-.6-.99-1.03-1.33-.13-.1-.26-.18-.4-.25h0c-.86-.52-2.8-.85-2.8-.85,0,0,0,2.05.38,2.97.2.44.59.98,1.03,1.32.13.1.26.18.4.25.86.52,2.8.85,2.8.85,0,0,0-2.05-.38-2.97Z"/><path class="cls-1" d="M36.01,13.65c.34-.34.73-.9.9-1.42.05-.16.08-.31.1-.46h0c.2-.97-.15-2.91-.15-2.91,0,0-1.93.69-2.66,1.36-.34.34-.73.89-.89,1.41-.05.16-.08.31-.1.46-.2.98.15,2.92.15,2.92,0,0,1.93-.69,2.66-1.36h0Z"/></g></svg>