<?xml version="1.0" encoding="UTF-8"?><svg id="Layer_2" xmlns="http://www.w3.org/2000/svg" viewBox="0 0 64 64"><g transform="translate(-4.1925,-4.0937) scale(1.501768)" stroke-width="0.887842"><path d="M17.86,42.88h-5.81c-.28,0-.52-.23-.52-.52v-20.98c0-.28.23-.52.52-.52h24.06c.28,0,.52.24.52.53v20.98c0,.28-.23.52-.52.52h-18.25Z" fill="none" stroke="#000" stroke-linecap="round" stroke-linejoin="round"/><path d="M14.93,20.85V5.56c0-.21.17-.38.38-.38h17.53c.21,0,.38.17.38.39v15.29H14.93Z" fill="none" stroke="#000" stroke-linecap="round" stroke-linejoin="round"/><path d="M26.84,27.64h-5.52c-.79,0-1.44-.65-1.44-1.44,0-.79.65-1.44,1.44-1.44h5.52c.79,0,1.44.65,1.44,1.44s-.65,1.44-1.44,1.44Z" fill="none" stroke="#000" stroke-linecap="round" stroke-linejoin="round"/><polyline points="21.99 5.66 22.02 11.09 24.02 8.79 26.17 11.1 26.17 5.48" fill="none" stroke="#000" stroke-linecap="round" stroke-linejoin="round"/></g></svg>