<?xml version="1.0" encoding="UTF-8"?><svg id="Layer_2" xmlns="http://www.w3.org/2000/svg" viewBox="0 0 48 48"><g transform="translate(-2.2005,-1.6524) scale(1.096257)" stroke-width="0.912195"><rect x="17.43" y="-5.62" width="9.99" height="34.26" rx=".85" ry=".85" transform="translate(33.93 -10.92) rotate(90)" fill="none" stroke="#000" stroke-linecap="round" stroke-linejoin="round"/><path d="M39.54,11.47h2c.55,0,.99.44.99.99v6.85c0,.55-.44.99-.99.99h-15.83l-2.05.02c-.55,0-.99.44-.99.99v2.21" fill="none" stroke="#000" stroke-linecap="round" stroke-linejoin="round"/><path d="M19.81,39.73v-13.45c0-1.51,1.27-2.75,2.84-2.75s2.82,1.23,2.82,2.75v13.48-.43c0,1.51-1.27,2.75-2.82,2.75s-2.82-1.23-2.82-2.75v.39h-.01Z" fill="none" stroke="#000" stroke-linecap="round" stroke-linejoin="round"/></g></svg>