<?xml version="1.0" encoding="UTF-8"?><svg id="Layer_2" xmlns="http://www.w3.org/2000/svg" viewBox="0 0 64 64"><g transform="translate(-4.1082,1.7230) scale(1.495163)" stroke-width="0.891765"><path d="M43.05,15.81c-1,.24-1.72,1.05-1.72,2.13s.79,1.9,1.75,2.17l-.02-4.29Z" fill="none" stroke="#000" stroke-linecap="round" stroke-linejoin="round"/><path d="M24.03,28.74c-1,.24-1.72,1.05-1.72,2.13s.79,1.9,1.75,2.17l-.02-4.29Z" fill="none" stroke="#000" stroke-linecap="round" stroke-linejoin="round"/><path d="M43.06,15.55v.02" fill="none" stroke="#000" stroke-linecap="round" stroke-linejoin="round"/><path d="M43.06,15.46v.07c0-2.25-.93-4.1-2.58-5.01l.03.02c-2.81-1.44-5.33-1.88-8.94-2.07l-.28.24c-.22.17-.47.34-.75.5-1.87,1.31-4.05,2.07-6.42,2.07-1.71,0-3.36-.39-4.84-1.14-.97-.43-1.78-.97-2.37-1.56-.04-.04-.11-.09-.16-.15-3.59.17-6.2.64-9,2.07l.03-.02c-1.66.93-2.57,2.78-2.58,5.01v-.07,23.77h37.88V15.53" fill="none" stroke="#000" stroke-linecap="round" stroke-linejoin="round"/><path d="M34.21,8.69c-.39,1.1-.96,2.14-1.71,3.08-.44.55-.92,1.03-1.43,1.5-.66.62-1.64,1.2-1.64,1.2l.08,1.94c.02.31.03,1.02.03,1.24,0,.69-.4,1.28-.81,1.72l-4.65,4.7-.02-.02-.02.02-4.65-4.7c-.41-.44-.81-1.03-.81-1.72,0-.22,0-.93.03-1.24l.08-1.94s-.57-.3-1.64-1.2c-.53-.44-.99-.95-1.43-1.5-.75-.94-1.32-1.98-1.71-3.08" fill="none" stroke="#000" stroke-linecap="round" stroke-linejoin="round"/><line x1="24.06" y1="39.17" x2="24.06" y2="24.06" fill="none" stroke="#000" stroke-linecap="round" stroke-linejoin="round"/><path d="M6.37,11.7c.04,1.22,1.04,2.2,2.27,2.2s2.27-1.02,2.27-2.27c0-.86-.48-1.61-1.19-2-.65.24-1.3.52-1.96.86l.03-.02c-.56.31-1.03.73-1.41,1.23Z" fill="none" stroke="#000" stroke-linecap="round" stroke-linejoin="round"/><circle cx="15.76" cy="35.55" r="2.27" fill="none" stroke="#000" stroke-linecap="round" stroke-linejoin="round"/><path d="M19.39,19.38c-.11-.12-.22-.24-.31-.38-.73.38-1.22,1.14-1.22,2.01,0,1.25,1.02,2.27,2.27,2.27.85,0,1.59-.47,1.98-1.16l-2.71-2.74Z" fill="none" stroke="#000" stroke-linecap="round" stroke-linejoin="round"/><path d="M33.58,10.17c-.3.57-.66,1.12-1.07,1.64-.44.55-.92,1.03-1.43,1.5-.06.06-.13.12-.2.17.4.65,1.11,1.08,1.93,1.08,1.25,0,2.27-1.02,2.27-2.27,0-.98-.63-1.82-1.51-2.13Z" fill="none" stroke="#000" stroke-linecap="round" stroke-linejoin="round"/><circle cx="34.8" cy="27.37" r="2.27" fill="none" stroke="#000" stroke-linecap="round" stroke-linejoin="round"/><path d="M25.08,30.75c-.37,0-.72.09-1.02.25v4.04c.31.16.66.25,1.02.25,1.25,0,2.27-1.02,2.27-2.27s-1.02-2.27-2.27-2.27Z" fill="none" stroke="#000" stroke-linecap="round" stroke-linejoin="round"/><path d="M5.22,29.69s.02,0,.03,0c1.25,0,2.27-1.02,2.27-2.27s-1.02-2.27-2.27-2.27c-.01,0-.02,0-.03,0v4.53Z" fill="none" stroke="#000" stroke-linecap="round" stroke-linejoin="round"/><path d="M38.7,39.2s0,0,0,0c0-1.25-1.02-2.27-2.27-2.27s-2.27,1.02-2.27,2.27c0,0,0,0,0,0h4.54Z" fill="none" stroke="#000" stroke-linecap="round" stroke-linejoin="round"/></g></svg>