<?xml version="1.0" encoding="UTF-8"?><svg id="Layer_2" xmlns="http://www.w3.org/2000/svg" viewBox="0 0 64 64"><g transform="translate(-4.1287,-3.8289) scale(1.499118)" stroke-width="0.889412"><path d="M25.87,33.43v7.49c0,.86-.58,1.66-1.43,1.82-1.14.22-2.14-.65-2.14-1.75v-7.56c0-.27.22-.49.49-.49h2.58c.27,0,.49.22.49.49Z" fill="none" stroke="#000" stroke-linecap="round" stroke-linejoin="round"/><path d="M15.57,17.31c.24,4.7,4.26,8.33,8.97,8.07,4.7-.24,8.33-4.26,8.07-8.97v-.05c-.24-4.7-4.26-8.33-8.97-8.07-4.7.24-8.33,4.26-8.07,8.97v.05Z" fill="none" stroke="#000" stroke-linecap="round" stroke-linejoin="round"/><rect x="22.87" y="27.71" width="2.43" height="5.23" fill="none" stroke="#000" stroke-linecap="round" stroke-linejoin="round"/><path d="M35.82,16.26v-.07c-.33-6.47-5.87-11.46-12.34-11.11-6.47.33-11.46,5.87-11.11,12.34v.07c.3,5.82,4.89,10.43,10.51,11.05v-.8h2.44v.8c6.13-.67,10.85-6.03,10.51-12.27Z" fill="none" stroke="#000" stroke-linecap="round" stroke-linejoin="round"/></g></svg>