<?xml version="1.0" encoding="UTF-8"?><svg xmlns="http://www.w3.org/2000/svg" width="38.4" height="48" viewBox="0 0 38.4 48"><g  transform="translate(0.0000,0.0000) scale(1.000000)"><g transform="translate(-4.8000,0.0000)"><g transform="translate(4.8000,0.0000) scale(1.000000)"><g transform="translate(-6.8317,-2.0317) scale(1.084656)" stroke-width="0.921951"><path d="M38.43,11.84l-.09,30.04c0,.5-.41.92-.92.92l-26.94.04c-.5,0-.92-.41-.92-.92V6.09c0-.5.41-.92.92-.92h2.01l20.75.07" fill="none" stroke="#000" stroke-linecap="round" stroke-linejoin="round"/><line x1="33.38" y1="5.33" x2="38.42" y2="11.83" fill="none" stroke="#000" stroke-linecap="round" stroke-linejoin="round"/><polyline points="33.31 5.92 33.3 11.79 37.94 11.88 37.96 11.88" fill="none" stroke="#000" stroke-linecap="round" stroke-linejoin="round"/><path d="M16.2,16.19h15.59" fill="none" stroke="#000" stroke-linecap="round" stroke-linejoin="round"/><path d="M16.2,21.86h15.59" fill="none" stroke="#000" stroke-linecap="round" stroke-linejoin="round"/><path d="M16.2,27.53h15.59" fill="none" stroke="#000" stroke-linecap="round" stroke-linejoin="round"/><path d="M16.2,33.2h15.59" fill="none" stroke="#000" stroke-linecap="round" stroke-linejoin="round"/></g></g></g></g></svg>