<?xml version="1.0" encoding="UTF-8"?><svg id="Layer_2" xmlns="http://www.w3.org/2000/svg" viewBox="0 0 64 64"><g transform="translate(-3.9788,-3.9788) scale(1.499118)" stroke-width="0.889412"><path d="M24.01,42.86c10.41,0,18.86-8.44,18.86-18.86S34.41,5.14,24.01,5.14h0c-10.42,0-18.87,8.45-18.87,18.86s8.45,18.86,18.86,18.86h.01Z" fill="none" stroke="#000" stroke-linecap="round" stroke-linejoin="round"/><polyline points="21.99 10.37 21.9 17.3 11.86 30.55" fill="none" stroke="#000" stroke-linecap="round" stroke-linejoin="round"/><polyline points="21.99 37.63 21.99 23.92 14.28 34.09" fill="none" stroke="#000" stroke-linecap="round" stroke-linejoin="round"/><polyline points="36.26 30.78 26.1 17.3 26.19 10.43" fill="none" stroke="#000" stroke-linecap="round" stroke-linejoin="round"/><polyline points="33.72 34.09 26.01 23.92 26.01 37.63" fill="none" stroke="#000" stroke-linecap="round" stroke-linejoin="round"/><path d="M36.24,30.82c1.13-2.02,1.77-4.34,1.77-6.82,0-6.98-5.11-12.77-11.78-13.83" fill="none" stroke="#000" stroke-linecap="round" stroke-linejoin="round"/><path d="M26.05,37.86c2.96-.43,5.62-1.79,7.67-3.77" fill="none" stroke="#000" stroke-linecap="round" stroke-linejoin="round"/><path d="M14.28,34.09c2.06,1.98,4.71,3.34,7.67,3.77" fill="none" stroke="#000" stroke-linecap="round" stroke-linejoin="round"/><path d="M21.95,10.14c-6.77.99-11.96,6.82-11.96,13.86,0,2.41.61,4.68,1.68,6.65" fill="none" stroke="#000" stroke-linecap="round" stroke-linejoin="round"/></g></svg>