<?xml version="1.0" encoding="UTF-8"?><svg xmlns="http://www.w3.org/2000/svg" width="48" height="48" viewBox="0 0 48 48"><g  transform="translate(0.0000,0.0000) scale(1.000000)"><g transform="translate(0.0000,0.0000)"><g transform="translate(0.0000,0.0000) scale(1.000000)"><g transform="translate(-2.1702,7.3165) scale(1.090426)" stroke-width="0.917073"><path d="M16.99,29.06c-.54.72-1.42,1.19-2.4,1.19-1.04,0-1.96-.54-2.5-1.33" fill="none" stroke="#000" stroke-linecap="round" stroke-linejoin="round"/><path d="M14.55,34.06c5.08,0,9.21-4.51,9.21-10.05,0-.92-.12-1.81-.32-2.66-.85.29-1.76.44-2.72.44h0c-2.37,0-4.53-.98-6.17-2.58l-.02.02c-1.63,1.59-3.79,2.56-6.15,2.56-.95,0-1.86-.15-2.72-.44-.21.85-.32,1.75-.32,2.66,0,5.56,4.13,10.05,9.21,10.05" fill="none" stroke="#000" stroke-linecap="round" stroke-linejoin="round"/><path d="M23.84,21.09c-1.11-4.28-4.85-7.13-9.3-7.13s-8.19,2.86-9.3,7.13c.92.58,2.16.69,3.16.69,2.47,0,4.42-.93,6.12-2.51l.02-.02c1.71,1.6,3.71,2.53,6.19,2.53.99,0,2.22-.26,3.1-.69h0Z" fill="none" stroke="#000" stroke-linecap="round" stroke-linejoin="round"/><path d="M18.21,14.66c-1.14-.46-2.36-.71-3.68-.71-4.45,0-8.19,2.86-9.3,7.13.92.58,2.16.69,3.16.69,2.47,0,4.42-.93,6.12-2.51l.02-.02c1.49-1.37,2.63-2.79,3.64-4.49l.04-.08Z" fill="none" stroke="#000" stroke-linecap="round" stroke-linejoin="round"/><path d="M11.22,25.61c-.3.17-.66.27-1.03.27s-.74-.11-1.04-.28" fill="none" stroke="#000" stroke-linecap="round" stroke-linejoin="round"/><path d="M19.74,25.61c-.3.17-.66.27-1.03.27s-.74-.11-1.04-.28" fill="none" stroke="#000" stroke-linecap="round" stroke-linejoin="round"/><path d="M8.48,24.44c.39-.5,1-.84,1.68-.84.72,0,1.36.37,1.75.92" fill="none" stroke="#000" stroke-linecap="round" stroke-linejoin="round"/><path d="M16.99,24.44c.39-.5,1-.84,1.68-.84.72,0,1.36.37,1.75.92" fill="none" stroke="#000" stroke-linecap="round" stroke-linejoin="round"/><circle cx="18.7" cy="25.12" r=".45" fill="none" stroke="#000" stroke-linecap="round" stroke-linejoin="round"/><circle cx="10.19" cy="25.12" r=".45" fill="none" stroke="#000" stroke-linecap="round" stroke-linejoin="round"/><path d="M26.65,29.06c-.54.72-1.42,1.19-2.4,1.19-.68,0-1.31-.23-1.81-.61" fill="none" stroke="#000" stroke-linecap="round" stroke-linejoin="round"/><path d="M19.23,32.68c1.37.87,2.96,1.38,4.65,1.38" fill="none" stroke="#000" stroke-linecap="round" stroke-linejoin="round"/><path d="M23.88,34.06c5.08,0,9.21-4.51,9.21-10.05,0-.92-.12-1.81-.32-2.66-.85.29-1.76.44-2.72.44h0c-2.37,0-4.53-.98-6.17-2.58l-.02.02" fill="none" stroke="#000" stroke-linecap="round" stroke-linejoin="round"/><path d="M23.4,19.67c.15-.13.3-.26.45-.39l.02-.02c1.71,1.6,3.71,2.53,6.19,2.53.99,0,2.22-.26,3.1-.69h0c-1.11-4.28-4.85-7.13-9.3-7.13-1.52,0-2.96.33-4.24.94" fill="none" stroke="#000" stroke-linecap="round" stroke-linejoin="round"/><path d="M23.59,19.49c.09-.08.18-.16.26-.24l.02-.02c1.49-1.37,2.63-2.79,3.64-4.49l.04-.08c-1.14-.46-2.36-.71-3.68-.71-1.52,0-2.96.34-4.24.95" fill="none" stroke="#000" stroke-linecap="round" stroke-linejoin="round"/><path d="M29.07,25.61c-.3.17-.66.27-1.03.27s-.74-.11-1.04-.28" fill="none" stroke="#000" stroke-linecap="round" stroke-linejoin="round"/><path d="M26.32,24.44c.39-.5,1-.84,1.68-.84.72,0,1.36.37,1.75.92" fill="none" stroke="#000" stroke-linecap="round" stroke-linejoin="round"/><circle cx="28.03" cy="25.12" r=".45" fill="none" stroke="#000" stroke-linecap="round" stroke-linejoin="round"/><path d="M36.25,29.06c-.54.72-1.42,1.19-2.4,1.19-.68,0-1.31-.23-1.81-.61" fill="none" stroke="#000" stroke-linecap="round" stroke-linejoin="round"/><path d="M28.83,32.68c1.37.87,2.96,1.38,4.65,1.38" fill="none" stroke="#000" stroke-linecap="round" stroke-linejoin="round"/><path d="M33.48,34.06c5.08,0,9.21-4.51,9.21-10.05,0-.92-.12-1.81-.32-2.66-.85.29-1.76.44-2.72.44h0c-2.37,0-4.53-.98-6.17-2.58l-.02.02" fill="none" stroke="#000" stroke-linecap="round" stroke-linejoin="round"/><path d="M33,19.67c.15-.13.3-.26.45-.39l.02-.02c1.71,1.6,3.71,2.53,6.19,2.53.99,0,2.22-.26,3.1-.69h0c-1.11-4.28-4.85-7.13-9.3-7.13-1.52,0-2.96.33-4.24.94" fill="none" stroke="#000" stroke-linecap="round" stroke-linejoin="round"/><path d="M33.18,19.49c.09-.08.18-.16.26-.24l.02-.02c1.49-1.37,2.63-2.79,3.64-4.49l.04-.08c-1.14-.46-2.36-.71-3.68-.71-1.52,0-2.96.34-4.24.95" fill="none" stroke="#000" stroke-linecap="round" stroke-linejoin="round"/><path d="M38.67,25.61c-.3.17-.66.27-1.03.27s-.74-.11-1.04-.28" fill="none" stroke="#000" stroke-linecap="round" stroke-linejoin="round"/><path d="M35.92,24.44c.39-.5,1-.84,1.68-.84.72,0,1.36.37,1.75.92" fill="none" stroke="#000" stroke-linecap="round" stroke-linejoin="round"/><circle cx="37.63" cy="25.12" r=".45" fill="none" stroke="#000" stroke-linecap="round" stroke-linejoin="round"/></g></g></g></g></svg>