<?xml version="1.0" encoding="UTF-8"?><svg id="Layer_2" xmlns="http://www.w3.org/2000/svg" viewBox="0 0 64 64"><g transform="translate(-4.7489,-4.5442) scale(1.530104)" stroke-width="0.871401"><path d="M36.79,41.67l3.63-3.61h0s.72-.73.72-.73l.02-.02c.66-.66,2.77-2.34-.17-5.15l-1.11-1.11c-2.8-2.94-4.5-.82-5.15-.17l-2.66,2.66L14.3,16.04l2.63-2.63.02-.02c.66-.66,2.77-2.34-.17-5.15l-1.11-1.11c-2.8-2.94-4.5-.82-5.15-.17l-.58.58s-.01,0-.02.01l-3.6,3.46c-2.65,2.5,1.33,11.94,9.66,20.32l.29.29c8.33,8.38,17.86,12.53,20.53,10.04Z" fill="none" stroke="#000" stroke-linecap="round" stroke-linejoin="round"/><line x1="10.51" y1="6.96" x2="16.95" y2="13.4" fill="none" stroke="#000" stroke-linecap="round" stroke-linejoin="round"/><line x1="34.58" y1="31.03" x2="41.02" y2="37.47" fill="none" stroke="#000" stroke-linecap="round" stroke-linejoin="round"/></g></svg>