<?xml version="1.0" encoding="UTF-8"?><svg xmlns="http://www.w3.org/2000/svg" width="48" height="48" viewBox="0 0 48 48"><g  transform="translate(0.0000,0.0000) scale(1.000000)"><g transform="translate(0.0000,0.0000)"><g transform="translate(0.0000,0.0000) scale(1.000000)"><g transform="translate(-2.4516,-1.5699) scale(1.102151)" stroke-width="0.907317"><path d="M38.22,25.5H9.75c-.09.22-.15.45-.15.7l3.47,13.83c0,.98.8,1.77,1.77,1.77h18.28c.98,0,1.77-.8,1.77-1.77l3.51-13.83h-.03c0-.25-.05-.49-.15-.7Z" fill="none" stroke="#000" stroke-linecap="round" stroke-linejoin="round"/><path d="M26.25,25.01V8.45c0-1.25-1.01-2.26-2.26-2.26s-2.26,1.01-2.26,2.26v16.56c0,.16,0,.35.08.49h4.38c0-.16.08-.35.08-.49h-.03Z" fill="none" stroke="#000" stroke-linecap="round" stroke-linejoin="round"/><path d="M21.73,20.35H7.75c-1.27,0-2.29,1.03-2.29,2.29l-.04.58h.04c0,1.27,1.03,2.29,2.29,2.29h14.06c-.08-.14-.08-.33-.08-.49v-4.67Z" fill="none" stroke="#000" stroke-linecap="round" stroke-linejoin="round"/><path d="M40.3,20.35h-14.05v4.67h.03c0,.14-.08.33-.08.49h14.1c1.27,0,2.29-1.03,2.29-2.29v-.58c0-1.27-1.03-2.29-2.29-2.29Z" fill="none" stroke="#000" stroke-linecap="round" stroke-linejoin="round"/><line x1="19.45" y1="31.02" x2="19.45" y2="36.29" fill="none" stroke="#000" stroke-linecap="round" stroke-linejoin="round"/><line x1="23.96" y1="31.02" x2="23.96" y2="36.29" fill="none" stroke="#000" stroke-linecap="round" stroke-linejoin="round"/><line x1="28.48" y1="31.02" x2="28.48" y2="36.29" fill="none" stroke="#000" stroke-linecap="round" stroke-linejoin="round"/></g></g></g></g></svg>