<?xml version="1.0" encoding="UTF-8"?>
<svg id="Layer_2" xmlns="http://www.w3.org/2000/svg" version="1.1" viewBox="0 0 64 64"><g transform="translate(-4.1702,-2.8138) scale(1.507092)" stroke-width="0.884706">
  <!-- Generator: Adobe Illustrator 30.3.0, SVG Export Plug-In . SVG Version: 2.1.3 Build 182)  -->
  <defs>
    <style>
      .st0 {
        fill: none;
        stroke: #000;
        stroke-linecap: round;
        stroke-linejoin: round;
      }
    </style>
  </defs>
  <path class="st0" d="M13.85,23.15c0,1.38,1.11,2.5,2.5,2.5s2.5-1.11,2.5-2.5h0c0-1.38-1.11-2.5-2.5-2.5s-2.5,1.11-2.5,2.5h0Z"/>
  <path class="st0" d="M29.08,23.15c0,1.38,1.11,2.5,2.5,2.5s2.5-1.11,2.5-2.5h0c0-1.38-1.11-2.5-2.5-2.5s-2.5,1.11-2.5,2.5h0Z"/>
  <path class="st0" d="M22.29,33.43h0c0,1.05.84,1.9,1.9,1.9s1.9-.84,1.9-1.9h0"/>
  <path class="st0" d="M18.47,30.22c0,1.57,1.27,2.85,2.85,2.85,1.32,0,2.42-.88,2.75-2.09.33,1.2,1.43,2.09,2.75,2.09,1.58,0,2.85-1.27,2.85-2.85"/>
  <path class="st0" d="M38.49,25.94c-.2-.08-.4-.14-.61-.18.04-.45.07-.91.07-1.38,0-7.66-6.21-13.87-13.87-13.87h0c-7.66,0-13.87,6.21-13.87,13.87,0,.47.02.93.07,1.38-.21.04-.41.1-.61.18-2.34.95-3.15,4.38-1.82,7.65.65,1.6,1.66,2.64,2.86,3.63l1.23.95c3.36,2.38,8.24,3.7,12.13,3.7h0c3.89,0,8.77-1.32,12.13-3.71l1.23-.95c1.2-.99,2.21-2.03,2.86-3.63,1.33-3.27.52-6.69-1.82-7.65h.02Z"/>
  <path class="st0" d="M33.47,35.82c0-1.65,1.33-3,3-3,1.46,0,2.66,1.03,2.94,2.4-.6.78-1.31,1.44-2.08,2.08l-1.44,1.08c-.12.09-.27.16-.39.25-1.19-.4-2.02-1.49-2.02-2.82h-.01Z"/>
  <path class="st0" d="M14.63,35.82c0-1.65-1.33-3-3-3-1.46,0-2.66,1.03-2.94,2.4.6.78,1.31,1.44,2.08,2.08l1.44,1.08c.12.09.27.16.39.25,1.19-.4,2.02-1.49,2.02-2.82h0Z"/>
  <path class="st0" d="M41.88,12.78c-.46,1-1.35,2.26-2.35,3.02-.29.23-.61.41-.92.58-.49.3-1.75.77-2.45,1.01-.85-1.44-2.08-3.05-3.57-4.01.12-.7.28-1.35.49-1.85h0c.46-1,1.37-2.26,2.37-3.04.29-.23.61-.41.92-.58h-.02c1.96-1.18,6.41-1.93,6.41-1.93,0,0,0,4.69-.87,6.8h-.01Z"/>
  <path class="st0" d="M37.43,7.51c.71.89,1.38,1.86,1.71,2.65.38,1.03.64,2.55.48,3.8-.05.37-.14.72-.24,1.06-.07.28-.17.58-.29.89"/>
  <path class="st0" d="M6.14,12.96c.46,1,1.35,2.26,2.35,3.02.29.23.61.41.92.58.49.3,1.75.77,2.45,1.01.85-1.44,2.08-3.05,3.57-4.01-.12-.7-.28-1.35-.49-1.85h0c-.46-1-1.37-2.26-2.37-3.04-.29-.23-.61-.41-.92-.58h.02c-1.96-1.18-6.41-1.93-6.41-1.93,0,0,0,4.69.87,6.8h0Z"/>
  <path class="st0" d="M10.58,7.7c-.71.89-1.38,1.86-1.71,2.65-.38,1.03-.64,2.55-.48,3.8.05.37.14.72.24,1.06.07.28.17.58.29.89"/>
</g></svg>