<?xml version="1.0" encoding="UTF-8"?><svg id="Layer_2" xmlns="http://www.w3.org/2000/svg" viewBox="0 0 48 48"><g transform="translate(-2.4198,4.2674) scale(1.096257)" stroke-width="0.912195"><circle cx="24.11" cy="22.65" r="2.56" fill="none" stroke="#000" stroke-linecap="round" stroke-linejoin="round"/><circle cx="38.54" cy="29.21" r="1.11" fill="none" stroke="#000" stroke-linecap="round" stroke-linejoin="round"/><circle cx="32.37" cy="29.21" r="1.11" fill="none" stroke="#000" stroke-linecap="round" stroke-linejoin="round"/><circle cx="35.51" cy="32.13" r="1.11" fill="none" stroke="#000" stroke-linecap="round" stroke-linejoin="round"/><circle cx="35.51" cy="26.4" r="1.11" fill="none" stroke="#000" stroke-linecap="round" stroke-linejoin="round"/><path d="M15.78,31.26l-1.97-1.97,1.87-1.87c.3-.3.3-.78,0-1.08s-.78-.3-1.08,0l-1.87,1.87-1.93-1.93c-.3-.3-.78-.3-1.08,0s-.3.78,0,1.08l1.93,1.93-1.87,1.87c-.3.3-.3.78,0,1.08s.78.3,1.08,0l1.87-1.87,1.97,1.97c.3.3.78.3,1.08,0s.3-.78,0-1.08Z" fill="none" stroke="#000" stroke-linecap="round" stroke-linejoin="round"/><path d="M25.31,17.33h-6.13c-.69,0-1.25-.57-1.25-1.26s.56-1.25,1.25-1.25h6.14-.04,3.66c.69,0,1.25.56,1.25,1.25s-.56,1.25-1.25,1.25h-3.67.04Z" fill="none" stroke="#000" stroke-linecap="round" stroke-linejoin="round"/><path d="M42.55,27.01l-.94-5.72.02.12c-.38-2.12-1.51-3.87-3.27-4.75-.81-.41-1.69-.59-2.58-.58h0s-5.58,0-5.58,0c0-.69-.56-1.25-1.25-1.25h-3.17s-.44,0-.44,0h-6.14c-.08,0-.14.03-.21.04h-.3c-.68,0-1.23.54-1.25,1.21h-5.12c-.9,0-1.77.18-2.58.58-1.77.88-2.89,2.64-3.27,4.75l.02-.12-.94,5.72c-.11.7-.15,1.38-.15,2.12,0,4.16,2.98,7.53,7.14,7.53s7.54-3.38,7.54-7.54c0-.25-.01-.49-.04-.74h8.03c-.02.24-.04.49-.04.74,0,4.16,3.38,7.54,7.54,7.54s7.2-3.27,7.2-7.43c0-.74-.09-1.5-.2-2.21Z" fill="none" stroke="#000" stroke-linecap="round" stroke-linejoin="round"/></g></svg>