<?xml version="1.0" encoding="UTF-8"?><svg xmlns="http://www.w3.org/2000/svg" width="48" height="48" viewBox="0 0 48 48"><g  transform="translate(0.0000,0.0000) scale(1.000000)"><g transform="translate(0.0000,0.0000)"><g transform="translate(-2.0172,-2.0172) scale(1.081794)">
  <!-- Generator: Adobe Illustrator 30.3.0, SVG Export Plug-In . SVG Version: 2.1.3 Build 182)  -->
  <defs>
    <style>
      .st0 {
        fill: none;
        stroke: #000;
        stroke-linecap: round;
        stroke-linejoin: round;
        stroke-width: 0.92439px;
      }
    </style>
  </defs>
  <path class="st0" d="M5.14,24.03c0-.13.11-.25.25-.25h7.9c.13,0,.25.11.25.25h0l.06,16.85v1.78c0,.13-.1.25-.24.25l-7.9.03c-.13,0-.25-.11-.25-.25l-.06-18.66h0Z"/>
  <path class="st0" d="M13.57,28.48c.93-.27,1.9-.57,2.7-1.21,1.7-1.39,2.93-6.04,2.93-11.41l.02-4.32c0-2.46,1.11-3.32,2.43-3.32s2.35.86,2.35,3.32l.02,23.13c0,2.82-2.28,5.1-5.1,5.1l-5.28.08-.06-11.37Z"/>
  <path class="st0" d="M42.91,24.04l-.06,18.66c0,.14-.12.25-.25.25l-7.9-.03c-.14,0-.24-.12-.24-.25v-1.78s.06-16.85.06-16.85h0c0-.14.12-.25.25-.25h7.36s.54,0,.54,0c.14,0,.25.12.25.25h0Z"/>
  <path class="st0" d="M34.49,28.48c-.93-.27-1.9-.57-2.7-1.21-1.7-1.39-2.93-6.04-2.93-11.41l-.02-4.32c0-2.46-1.11-3.32-2.43-3.32s-2.35.86-2.35,3.32l-.02,23.13c0,2.82,2.28,5.1,5.1,5.1l5.28.08.06-11.37Z"/>
</g></g></g></svg>