<?xml version="1.0" encoding="UTF-8"?><svg id="Layer_2" xmlns="http://www.w3.org/2000/svg" viewBox="0 0 48 48"><g transform="translate(-1.8947,0.1553) scale(1.078947)" stroke-width="0.926829"><path d="M5.01,22.03c0-.13.11-.25.25-.25h.54s7.39,0,7.39,0c.13,0,.25.11.25.25h0l.06,16.92v1.79c0,.13-.1.25-.24.25l-7.93.03c-.13,0-.25-.11-.25-.25l-.06-18.73Z" fill="none" stroke="#000" stroke-linecap="round" stroke-linejoin="round"/><path d="M13.5,26.5c1.47-.43,2.95-.81,3.91-2.71,1.27-2.55,1.71-4.18,1.73-6.84l.03-7.45c0-2.47,1.11-3.33,2.44-3.33s2.36.86,2.36,3.33v22.59c0,3.18-2.58,5.77-5.77,5.77l-4.64.06" fill="none" stroke="#000" stroke-linecap="round" stroke-linejoin="round"/><path d="M42.9,40.7c0,.14-.11.25-.25.25l-7.93-.03c-.14,0-.25-.11-.25-.25v-1.79s.06-16.92.06-16.92h0c0-.14.11-.25.25-.25h7.39s.54,0,.54,0c.14,0,.25.11.25.25l-.06,18.73Z" fill="none" stroke="#000" stroke-linecap="round" stroke-linejoin="round"/><path d="M34.47,26.44c-1.47-.43-2.95-.81-3.91-2.71-1.27-2.55-1.71-4.18-1.73-6.84l-.03-7.45c0-2.47-1.11-3.33-2.44-3.33s-2.36.86-2.36,3.33v22.59c0,3.18,2.58,5.77,5.77,5.77l4.64.06" fill="none" stroke="#000" stroke-linecap="round" stroke-linejoin="round"/></g></svg>