<?xml version="1.0" encoding="UTF-8"?><svg id="Layer_2" xmlns="http://www.w3.org/2000/svg" viewBox="0 0 48 48"><g transform="translate(-2.2793,2.3005) scale(1.090426)" stroke-width="0.917073"><defs><style>.cls-1{fill:none;stroke:#000;stroke-linecap:round;stroke-linejoin:round;}</style></defs><path class="cls-1" d="M27.95,38.7H9.17c-2.11,0-3.84-1.77-3.84-3.96s1.71-3.94,3.84-3.94h18.81-.12,11.2c2.11,0,3.84,1.77,3.84,3.94s-1.71,3.94-3.84,3.94h-11.26.13v.02Z"/><path class="cls-1" d="M9.17,30.8h6.36l7-13.4,1.45-2.66c.16-.31.18-.66.09-.98h0s-1.4-4.2-1.4-4.2l-.04-.08c-.05-.08-.08-.09-.15-.13-.06-.03-.14-.05-.21-.05h-.05s-4.1,1.43-4.1,1.43c-.28.1-.54.3-.69.59v.02s-1.88,3.44-1.88,3.44l-1.26,2.37-7.63,14.62c.67-.6,1.54-.97,2.5-.97Z"/><path class="cls-1" d="M35.63,34.75c0,.55.43.99.99.99s.99-.43.99-.99-.43-.99-.99-.99-.99.43-.99.99Z"/><path class="cls-1" d="M27.8,34.75c0,.55.43.99.99.99s.99-.43.99-.99-.43-.99-.99-.99-.99.43-.99.99Z"/></g></svg>