<?xml version="1.0" encoding="UTF-8"?><svg id="Layer_2" xmlns="http://www.w3.org/2000/svg" viewBox="0 0 48 48"><g transform="translate(-1.8449,-1.7871) scale(1.078954)" stroke-width="0.926824"><path d="M18.35,7.34v-.85c0-.77-.62-1.38-1.38-1.38s-1.38.62-1.38,1.38v3.48s0,.05.01.08v22.11c0,.77.62,1.38,1.38,1.38s1.38-.62,1.38-1.38V7.42s0-.05-.01-.08Z" fill="none" stroke="#000" stroke-linecap="round" stroke-linejoin="round"/><path d="M32.39,7.22v-.85c0-.77-.62-1.38-1.38-1.38s-1.38.62-1.38,1.38v3.48s0,.05.01.08v22.11c0,.77.62,1.38,1.38,1.38s1.38-.62,1.38-1.38V7.3s0-.05-.01-.08Z" fill="none" stroke="#000" stroke-linecap="round" stroke-linejoin="round"/><polygon points="29.45 13.83 29.45 16.28 18.36 16.3 18.36 13.86 29.45 13.84 29.45 13.83" fill="none" stroke="#000" stroke-linecap="round" stroke-linejoin="round"/><polygon points="29.45 19.72 29.45 22.16 18.36 22.18 18.36 19.75 29.45 19.73 29.45 19.72" fill="none" stroke="#000" stroke-linecap="round" stroke-linejoin="round"/><polygon points="29.45 25.82 29.45 28.27 18.36 28.29 18.36 25.85 29.45 25.83 29.45 25.82" fill="none" stroke="#000" stroke-linecap="round" stroke-linejoin="round"/><path d="M12.21,38.5c0-1.62,1.31-2.93,2.93-2.93s2.93,1.31,2.93,2.93c0-1.62,1.31-2.93,2.93-2.93s2.93,1.31,2.93,2.93v-.03l.12.03c0-1.62,1.31-2.93,2.93-2.93s2.93,1.31,2.93,2.93c0-1.62,1.31-2.93,2.93-2.93s2.93,1.31,2.93,2.93v-.03" fill="none" stroke="#000" stroke-linecap="round" stroke-linejoin="round"/><path d="M12.21,42.9c0-1.62,1.31-2.93,2.93-2.93s2.93,1.31,2.93,2.93c0-1.62,1.31-2.93,2.93-2.93s2.93,1.31,2.93,2.93v-.03l.12.03c0-1.62,1.31-2.93,2.93-2.93s2.93,1.31,2.93,2.93c0-1.62,1.31-2.93,2.93-2.93s2.93,1.31,2.93,2.93v-.03" fill="none" stroke="#000" stroke-linecap="round" stroke-linejoin="round"/></g></svg>