<?xml version="1.0" encoding="UTF-8"?><svg id="Layer_2" xmlns="http://www.w3.org/2000/svg" viewBox="0 0 64 64"><g transform="translate(-4.1702,3.6667) scale(1.507092)" stroke-width="0.884706"><path d="M26.05,12.23h0c-.01-1.15-.95-2.06-2.08-2.04-1.14.01-2.05.95-2.03,2.08h0" fill="none" stroke="#000" stroke-linecap="round" stroke-linejoin="round"/><path d="M31.28,12.36h-14.76c-4.79,0-5.72,1.59-5.72,3.58h0v-.14l.02.52h26.37l-.02-.52v.14h0c0-1.99-.93-3.58-5.72-3.58h-14.76" fill="none" stroke="#000" stroke-linecap="round" stroke-linejoin="round"/><path d="M37.57,20.27H10.42c-1.68,0-2.53-.91-2.53-1.99s.85-1.93,2.53-1.93h27.16c1.68,0,2.48.73,2.48,1.81s-.81,2.12-2.48,2.12Z" fill="none" stroke="#000" stroke-linecap="round" stroke-linejoin="round"/><path d="M10.4,20.29l-.03,15.06c0,1.23,1,2.21,2.21,2.21h22.78c1.23,0,2.21-1,2.21-2.21h.01l.03-15.07H10.4Z" fill="none" stroke="#000" stroke-linecap="round" stroke-linejoin="round"/><path d="M37.61,20.5v3.75s5.16,0,5.16,0" fill="none" stroke="#000" stroke-linecap="round" stroke-linejoin="round"/><path d="M10.38,20.28v3.75s-5.16,0-5.16,0" fill="none" stroke="#000" stroke-linecap="round" stroke-linejoin="round"/></g></svg>