<?xml version="1.0" encoding="UTF-8"?><svg xmlns="http://www.w3.org/2000/svg" width="27.2" height="48" viewBox="0 0 27.2 48"><g  transform="translate(0.0000,0.0000) scale(1.000000)"><g transform="translate(-10.4000,0.0000)"><g transform="translate(10.4000,0.0000) scale(1.000000)"><g transform="translate(-11.5764,-2.1552) scale(1.087533)" stroke-width="0.919512"><path d="M31.8,13.04l.61,19.78s0,.05,0,.07c.32,7.23-3.04,9.78-8.89,9.94-5.85.31-9.34-4.22-9.64-10.07,0-.02,0,.02,0,0-.07-1.34.11-2.64.5-3.85v.05c.83-3.27,4.23-5.92,2.46-11.75l-.36-.88c-.55-1.54-.54-2.38-.55-3.19,0-.01,0,.01,0,0-.21-3.96,2.05-7.76,7.61-7.92,5-.08,8.07,3.87,8.27,7.83v.04" fill="none" stroke="#000" stroke-linecap="round" stroke-linejoin="round"/><line x1="19.01" y1="13.42" x2="21.27" y2="11.16" fill="none" stroke="#000" stroke-linecap="round" stroke-linejoin="round"/><line x1="27.42" y1="10.65" x2="29.89" y2="8.18" fill="none" stroke="#000" stroke-linecap="round" stroke-linejoin="round"/><line x1="22.6" y1="21.49" x2="27.34" y2="16.74" fill="none" stroke="#000" stroke-linecap="round" stroke-linejoin="round"/><line x1="17.47" y1="34.24" x2="21.99" y2="29.72" fill="none" stroke="#000" stroke-linecap="round" stroke-linejoin="round"/><line x1="27.42" y1="31.26" x2="29.12" y2="29.57" fill="none" stroke="#000" stroke-linecap="round" stroke-linejoin="round"/><line x1="21.17" y1="42.54" x2="23.12" y2="40.6" fill="none" stroke="#000" stroke-linecap="round" stroke-linejoin="round"/></g></g></g></g></svg>