<?xml version="1.0" encoding="UTF-8"?><svg xmlns="http://www.w3.org/2000/svg" width="48" height="48" viewBox="0 0 48 48"><g  transform="translate(0.0000,0.0000) scale(1.000000)"><g transform="translate(0.0000,0.0000)"><g transform="translate(-2.1824,-2.4102) scale(1.090935)"><path d="M16.7,22.27c0-4,3.24-7.31,7.24-7.31s7.24,3.31,7.24,7.31h-14.49Z" fill="none" stroke="#000" stroke-linecap="round" stroke-linejoin="round"/><path d="M23.99,42.96h16.14c1.41,0,2.75-.97,2.54-2.64h0l-2.32-17.96h-16.43s.16,0,.16,0H7.65s-2.32,17.96-2.32,17.96h0c-.2,1.66,1.13,2.64,2.54,2.64h16.14s-.01,0-.01,0Z" fill="none" stroke="#000" stroke-linecap="round" stroke-linejoin="round"/><path d="M40.24,22.38c-1.18,7.41-8.65,13.12-16.29,13.12s-15.12-5.72-16.31-13.1h0l32.6-.02h0Z" fill="none" stroke="#000" stroke-linecap="round" stroke-linejoin="round"/></g></g></g></svg>