<?xml version="1.0" encoding="UTF-8"?><svg xmlns="http://www.w3.org/2000/svg" width="48" height="48" viewBox="0 0 48 48"><g  transform="translate(0.0000,0.0000) scale(1.000000)"><g transform="translate(0.0000,0.0000)"><g transform="translate(0.0000,0.0000) scale(1.000000)"><g transform="translate(-1.8947,1.5579) scale(1.078947)" stroke-width="0.926829"><path d="M39.53,39.78l-8.06-6.75c-.17-.14-.39-.22-.61-.22H7.02c-1.07,0-1.96-.87-1.96-1.96v-2.05l.17-18.06c0-1.07.87-1.96,1.96-1.96h33.79c1.07,0,1.96.87,1.96,1.96v20.11c0,1.07-.87,1.96-1.96,1.96h-3.61l2.15,6.98h0Z" fill="none" stroke="#000" stroke-linecap="round" stroke-linejoin="round"/><path d="M21.46,28.32c0,.13.12.23.25.22.13,0,.23-.12.22-.25h0c0-.13-.12-.23-.25-.22-.13,0-.23.12-.22.25h0Z" fill="none" stroke="#000" stroke-linecap="round" stroke-linejoin="round"/><path d="M21.69,20.77h0v5.02" fill="none" stroke="#000" stroke-linecap="round" stroke-linejoin="round"/><path d="M19.92,15.97c.66-1.49,2.14-2.53,3.88-2.53,2.34,0,4.23,1.9,4.23,4.23s-1.59,4.18-3.93,4.18c-.77,0-1.84-.31-2.42-1.08" fill="none" stroke="#000" stroke-linecap="round" stroke-linejoin="round"/></g></g></g></g></svg>