<?xml version="1.0" encoding="UTF-8"?><svg xmlns="http://www.w3.org/2000/svg" width="48" height="48" viewBox="0 0 48 48"><g  transform="translate(0.0000,0.0000) scale(1.000000)"><g transform="translate(0.0000,0.0000)"><g transform="translate(0.0000,0.0000) scale(1.000000)"><g transform="translate(-2.3102,6.3406) scale(1.096257)" stroke-width="0.912195"><circle cx="41.61" cy="14.26" r="1.07" fill="none" stroke="#000" stroke-linecap="round" stroke-linejoin="round"/><path d="M41.6,15.33c-.27,0-.51-.1-.69-.26,0,.02,0,.04,0,.07v18.86c0,.5.32.81.72.81s.74-.31.74-.81V15.14s0-.08-.01-.12c-.19.19-.46.31-.75.31Z" fill="none" stroke="#000" stroke-linecap="round" stroke-linejoin="round"/><circle cx="6.39" cy="14.26" r="1.07" fill="none" stroke="#000" stroke-linecap="round" stroke-linejoin="round"/><path d="M6.39,15.33c-.27,0-.51-.1-.69-.26,0,.02,0,.04,0,.07v18.86c0,.5.32.81.72.81s.74-.31.74-.81V15.14s0-.08-.01-.12c-.19.19-.46.31-.75.31Z" fill="none" stroke="#000" stroke-linecap="round" stroke-linejoin="round"/><path d="M41.08,15.22c-3.55,7.32-9.93,12.12-17.06,12.12s-13.47-4.77-17.02-12.08" fill="none" stroke="#000" stroke-linecap="round" stroke-linejoin="round"/></g></g></g></g></svg>