<?xml version="1.0" encoding="UTF-8"?><svg xmlns="http://www.w3.org/2000/svg" width="48" height="48" viewBox="0 0 48 48"><g  transform="translate(0.0000,0.0000) scale(1.000000)">
  <!-- Generator: Adobe Illustrator 30.3.0, SVG Export Plug-In . SVG Version: 2.1.3 Build 182)  -->
  <defs>
    <style>
      .st0 {
        stroke-miterlimit: 3.71;
      }

      .st0, .st1 {
        fill: none;
        stroke: #000;
        stroke-width: 1px;
      }

      .st1 {
        stroke-linecap: round;
        stroke-linejoin: round;
      }
    </style>
  </defs>
  <path class="st1" d="M8.98,14.46L40.35,3.56"/>
  <path class="st1" d="M3.56,27.18h40.87"/>
  <path class="st0" d="M10.83,21.73c-.5,0-.91-.41-.91-.91s.41-.91.91-.91"/>
  <path class="st0" d="M10.83,21.73c.5,0,.91-.41.91-.91s-.41-.91-.91-.91"/>
  <path class="st1" d="M34.45,21.28h4.54"/>
  <path class="st1" d="M19,21.28h9.99"/>
  <path class="st1" d="M14.46,39.44c2.01,0,3.63-1.63,3.63-3.63s-1.63-3.63-3.63-3.63-3.63,1.63-3.63,3.63,1.63,3.63,3.63,3.63Z"/>
  <path class="st1" d="M25.36,33.08h9.99"/>
  <path class="st1" d="M25.36,38.53h9.99"/>
  <path class="st1" d="M42.62,14.46H5.38c-1,0-1.82.81-1.82,1.82v26.34c0,1,.81,1.82,1.82,1.82h37.24c1,0,1.82-.81,1.82-1.82v-26.34c0-1-.81-1.82-1.82-1.82Z"/>
</g></svg>