<?xml version="1.0" encoding="UTF-8"?><svg id="Layer_2" xmlns="http://www.w3.org/2000/svg" viewBox="0 0 48 48"><g transform="translate(-2.2345,-2.1859) scale(1.093105)" stroke-width="0.914825"><path d="M19.46,26.97c0,2.04-1.47,3.69-3.28,3.69s-3.28-1.65-3.28-3.69,3.28-6.81,3.28-6.81c0,0,3.28,4.78,3.28,6.81Z" fill="none" stroke="#000" stroke-linecap="round" stroke-linejoin="round"/><path d="M34.53,23.96c0,2.04-1.47,3.69-3.28,3.69s-3.28-1.65-3.28-3.69,3.28-6.81,3.28-6.81c0,0,3.28,4.78,3.28,6.81Z" fill="none" stroke="#000" stroke-linecap="round" stroke-linejoin="round"/><path d="M29.24,37.2c0,3.04-2.19,5.51-4.9,5.51s-4.9-2.47-4.9-5.51,4.91-10.18,4.91-10.18c0,0,4.9,7.13,4.9,10.18Z" fill="none" stroke="#000" stroke-linecap="round" stroke-linejoin="round"/><line x1="16.19" y1="8.28" x2="16.19" y2="16.84" fill="none" stroke="#000" stroke-linecap="round" stroke-linejoin="round"/><line x1="9.16" y1="13.67" x2="9.16" y2="22.23" fill="none" stroke="#000" stroke-linecap="round" stroke-linejoin="round"/><line x1="31.22" y1="5.29" x2="31.22" y2="13.85" fill="none" stroke="#000" stroke-linecap="round" stroke-linejoin="round"/><line x1="24.16" y1="15.05" x2="24.16" y2="23.61" fill="none" stroke="#000" stroke-linecap="round" stroke-linejoin="round"/><line x1="38.84" y1="13.38" x2="38.84" y2="21.94" fill="none" stroke="#000" stroke-linecap="round" stroke-linejoin="round"/></g></svg>