<?xml version="1.0" encoding="UTF-8"?><svg xmlns="http://www.w3.org/2000/svg" width="48" height="48" viewBox="0 0 48 48"><g  transform="translate(0.0000,0.0000) scale(1.000000)"><g transform="translate(0.0000,0.0000)"><g transform="translate(0.0000,0.0000) scale(1.000000)"><g transform="translate(-2.0172,5.8799) scale(1.081794)" stroke-width="0.924390"><defs><style>.cls-1{fill:none;stroke:#000;stroke-linecap:round;stroke-linejoin:round;}</style></defs><line class="cls-1" x1="28.33" y1="18.5" x2="36.85" y2="18.5"/><line class="cls-1" x1="28.33" y1="20.7" x2="36.85" y2="20.7"/><line class="cls-1" x1="28.33" y1="22.9" x2="36.85" y2="22.9"/><line class="cls-1" x1="28.33" y1="25.11" x2="36.85" y2="25.11"/><line class="cls-1" x1="28.33" y1="27.31" x2="36.85" y2="27.31"/><line class="cls-1" x1="28.33" y1="29.52" x2="36.85" y2="29.52"/><line class="cls-1" x1="11.32" y1="18.5" x2="19.83" y2="18.5"/><line class="cls-1" x1="11.32" y1="20.7" x2="19.83" y2="20.7"/><line class="cls-1" x1="11.32" y1="22.9" x2="19.83" y2="22.9"/><line class="cls-1" x1="11.32" y1="25.11" x2="19.83" y2="25.11"/><line class="cls-1" x1="11.32" y1="27.31" x2="19.83" y2="27.31"/><line class="cls-1" x1="11.32" y1="29.52" x2="19.83" y2="29.52"/><path class="cls-1" d="M7.05,31.01V13.03c0-.37.3-.67.67-.67h15.69c.37,0,.67.3.67.67v18.37-.21,3.78c0,.37-.3.67-.67.67H7.73c-.37,0-.67-.3-.67-.67v-4.18.21h0Z"/><path class="cls-1" d="M24.1,31.01V13.03c0-.37.3-.67.67-.67h15.64c.37,0,.67.3.67.67v18.37-.21,3.78c0,.37-.3.67-.67.67h-15.64c-.37,0-.67-.3-.67-.67v-4.18.21h0Z"/><path class="cls-1" d="M5.18,31.01V13.03c0-.37.3-.67.67-.67h17.56c.37,0,.67.3.67.67v18.37-.21,3.78c0,.37-.3.67-.67.67H5.85c-.37,0-.67-.3-.67-.67v-4.18.21h0Z"/><path class="cls-1" d="M42.97,30.79v4.18c0,.37-.3.67-.67.67h-17.56c-.37,0-.67-.3-.67-.67v-3.78.21V13.03c0-.37.3-.67.67-.67h17.56c.37,0,.67.3.67.67v17.97-.21h0Z"/></g></g></g></g></svg>