<?xml version="1.0" encoding="UTF-8"?><svg xmlns="http://www.w3.org/2000/svg" width="27.4" height="48" viewBox="0 0 27.4 48"><g  transform="translate(0.0000,0.0000) scale(1.000000)"><g transform="translate(-10.3000,0.0000)"><g transform="translate(10.3000,0.0000) scale(1.000000)"><g transform="translate(-11.4020,-2.0434) scale(1.045918)" stroke-width="0.956098">
  <!-- Generator: Adobe Illustrator 30.3.0, SVG Export Plug-In . SVG Version: 2.1.3 Build 182)  -->
  <defs>
    <style>
      .st0 {
        fill: none;
        stroke: #000;
        stroke-linecap: round;
        stroke-linejoin: round;
      }
    </style>
  </defs>
  <path class="st0" d="M16.14,44.46c-.49,0-.9-.4-.9-.9h-.02l.02-1.4h0c0-.49.4-.9.9-.9h16.15c.49,0,.9.4.9.9v1.4c0,.49-.4.9-.9.9h-16.15Z"/>
  <path class="st0" d="M14.26,27.19c0,4.44,4.36,8.04,9.74,8.04h0c5.38,0,9.74-3.6,9.74-8.04"/>
  <path class="st0" d="M24,5.39c-3.85,0-7,3.15-7,7v11.85c0,3.85,3.15,7,7,7s7-3.15,7-7v-11.85c0-3.85-3.15-7-7-7Z"/>
  <line class="st0" x1="24" y1="35.23" x2="24" y2="40.97"/>
</g></g></g></g></svg>