<?xml version="1.0" encoding="UTF-8"?><svg xmlns="http://www.w3.org/2000/svg" width="26.6" height="48" viewBox="0 0 26.6 48"><g  transform="translate(0.0000,0.0000) scale(1.000000)"><g transform="translate(-10.7000,0.0000)"><g transform="translate(10.7000,0.0000) scale(1.000000)"><g transform="translate(-11.5697,-1.8947) scale(1.078947)" stroke-width="0.926829"><path d="M32.09,16.54V5.55c0-.26-.21-.47-.47-.47H14.49c-.26,0-.47.21-.47.47v10.99s18.06,0,18.06,0Z" fill="none" stroke="#000" stroke-linecap="round" stroke-linejoin="round"/><path d="M14.03,16.55v23.3c0,.26.21.47.47.47h17.13c.26,0,.47-.21.47-.47v-23.3s-18.06,0-18.06,0Z" fill="none" stroke="#000" stroke-linecap="round" stroke-linejoin="round"/><path d="M15.21,16.62c.19,1.02.82,1.84,1.84,1.84h12.02c1.01,0,1.68-.89,1.84-1.84" fill="none" stroke="#000" stroke-linecap="round" stroke-linejoin="round"/><line x1="14.13" y1="14.66" x2="31.99" y2="14.66" fill="none" stroke="#000" stroke-linecap="round" stroke-linejoin="round"/><line x1="15.81" y1="8.89" x2="15.81" y2="12.12" fill="none" stroke="#000" stroke-linecap="round" stroke-linejoin="round"/><line x1="15.81" y1="20.68" x2="15.81" y2="23.91" fill="none" stroke="#000" stroke-linecap="round" stroke-linejoin="round"/><path d="M15.58,40.49v1.79c0,.4.32.71.71.71s.71-.32.71-.71v-1.79c0-.05,0-.11-.03-.16h-1.39c0,.05-.03.11-.03.16h0Z" fill="none" stroke="#000" stroke-linecap="round" stroke-linejoin="round"/><path d="M29.11,40.49v1.79c0,.4.32.71.71.71s.71-.32.71-.71v-1.79c0-.05,0-.11-.03-.16h-1.39c0,.05-.03.11-.03.16h0Z" fill="none" stroke="#000" stroke-linecap="round" stroke-linejoin="round"/></g></g></g></g></svg>