<?xml version="1.0" encoding="UTF-8"?>
<svg id="Layer_2" xmlns="http://www.w3.org/2000/svg" version="1.1" viewBox="0 0 64 64"><g transform="translate(-3.7151,4.4569) scale(1.486043)" stroke-width="0.897237">
  <!-- Generator: Adobe Illustrator 30.3.0, SVG Export Plug-In . SVG Version: 2.1.3 Build 182)  -->
  <defs>
    <style>
      .st0 {
        fill: none;
        stroke: #000;
        stroke-linecap: round;
        stroke-linejoin: round;
      }
    </style>
  </defs>
  <path class="st0" d="M23.98,36.29c6.02,0,10.93-4.89,10.92-10.94s-4.91-10.93-10.94-10.92h0c-6.03,0-10.93,4.89-10.92,10.94s4.89,10.93,10.94,10.92h0Z"/>
  <path class="st0" d="M23.98,33.09c4.26,0,7.72-3.46,7.72-7.73s-3.47-7.72-7.73-7.72h0c-4.27,0-7.72,3.46-7.72,7.73s3.46,7.72,7.73,7.72h0Z"/>
  <path class="st0" d="M6.22,23.26c0-.88-.23-1.72-.52-2.55-.02-.05-.03-.1-.05-.16-.37-1.54-.39-2.27-.39-3.86l-.02-4.28v-1.43h4.36"/>
  <path class="st0" d="M9.59,10.98h0l1.2-.02v.65l.03,5.09h-.02c0,1.58,0,2.42-.37,3.96,0,.04-.02.08-.03.12-.32.9-.55,1.83-.55,2.79"/>
  <line class="st0" x1="7.18" y1="11.11" x2="7.18" y2="17.05"/>
  <line class="st0" x1="8.9" y1="11.1" x2="8.9" y2="17.04"/>
  <path class="st0" d="M41.99,25.95h-4.11c-.59,0-1.07-.48-1.07-1.07s.48-1.07,1.07-1.07h4.11c.59,0,1.07.48,1.07,1.07s-.48,1.07-1.07,1.07Z"/>
  <path class="st0" d="M38.16,25.95v10.96c0,.33.27.59.6.59h2.4c.33,0,.59-.26.59-.59v-10.96h-3.6,0Z"/>
  <path class="st0" d="M41.09,13.07c.12.12.19.28.19.45h0l-.03,1.5v8.73h-2.67v-8.28l.03-1.94h0c0-.17.07-.32.17-.43h0l1.01-1.61.02-.02s.07-.03.1-.03.05,0,.09.02l.04.03,1.05,1.58h0Z"/>
  <path class="st0" d="M10.17,25.99h-4.11c-.59,0-1.07-.48-1.07-1.07s.48-1.07,1.07-1.07h4.11c.59,0,1.07.48,1.07,1.07s-.48,1.07-1.07,1.07Z"/>
  <path class="st0" d="M6.34,26v10.96c0,.33.27.59.6.59h2.4c.33,0,.59-.26.59-.59v-10.96h-3.6,0Z"/>
</g></svg>