<?xml version="1.0" encoding="UTF-8"?><svg xmlns="http://www.w3.org/2000/svg" width="42.6" height="48" viewBox="0 0 42.6 48"><g  transform="translate(0.0000,0.0000) scale(1.000000)"><g transform="translate(-2.7000,0.0000)"><g transform="translate(2.7000,0.0000) scale(1.000000)"><g transform="translate(-4.6528,-1.7871) scale(1.078954)" stroke-width="0.926824"><path d="M11.03,26.37c-.06,7.19,5.73,13.07,12.92,13.14,7.19.06,13.07-5.73,13.14-12.92v-.21c.06-7.19-5.73-13.07-12.92-13.14-7.19-.06-13.07,5.73-13.14,12.92v.21Z" fill="none" stroke="#000" stroke-linecap="round" stroke-linejoin="round"/><path d="M21.86,26.37c0,1.22.98,2.2,2.2,2.2s2.2-.98,2.2-2.2-.98-2.2-2.2-2.2-2.2.98-2.2,2.2h0Z" fill="none" stroke="#000" stroke-linecap="round" stroke-linejoin="round"/><line x1="24.06" y1="28.63" x2="24.06" y2="35.12" fill="none" stroke="#000" stroke-linecap="round" stroke-linejoin="round"/><line x1="17.05" y1="26.37" x2="21.71" y2="26.37" fill="none" stroke="#000" stroke-linecap="round" stroke-linejoin="round"/><path d="M12.43,38.01c6.42,6.42,16.84,6.42,23.26,0,6.42-6.42,6.42-16.84,0-23.26h0c-6.42-6.42-16.84-6.42-23.26,0-6.42,6.42-6.42,16.84,0,23.26Z" fill="none" stroke="#000" stroke-linecap="round" stroke-linejoin="round"/><path d="M22.51,9.97v-2.62h3.1v2.65c-.82-.1-2.22-.08-3.1-.03Z" fill="none" stroke="#000" stroke-linecap="round" stroke-linejoin="round"/><path d="M21.02,6.85c0,.28.22.5.5.5h.06s4.97,0,4.97,0c.28,0,.5-.22.5-.5v-1.36c0-.28-.22-.5-.5-.5h-.06s-4.97,0-4.97,0c-.28,0-.5.22-.5.5v1.36Z" fill="none" stroke="#000" stroke-linecap="round" stroke-linejoin="round"/><path d="M32.14,9.59c-.14.24-.07.54.17.68l.05.03,2.76,1.63c.24.14.54.07.68-.17l.69-1.17c.14-.24.07-.54-.17-.68l-.05-.03-2.76-1.63c-.24-.14-.54-.07-.68.17l-.69,1.17Z" fill="none" stroke="#000" stroke-linecap="round" stroke-linejoin="round"/><line x1="24.02" y1="13.23" x2="24.02" y2="15.5" fill="none" stroke="#000" stroke-linecap="round" stroke-linejoin="round"/><line x1="24.1" y1="37.06" x2="24.1" y2="39.33" fill="none" stroke="#000" stroke-linecap="round" stroke-linejoin="round"/><line x1="11.02" y1="26.39" x2="13.28" y2="26.39" fill="none" stroke="#000" stroke-linecap="round" stroke-linejoin="round"/><line x1="34.78" y1="26.32" x2="37.04" y2="26.32" fill="none" stroke="#000" stroke-linecap="round" stroke-linejoin="round"/><line x1="32.87" y1="12.4" x2="33.63" y2="11.17" fill="none" stroke="#000" stroke-linecap="round" stroke-linejoin="round"/><path d="M15.36,8.42c-.14-.24-.44-.32-.68-.17l-2.76,1.63-.05.03c-.24.14-.32.44-.17.68l.69,1.17c.14.24.44.32.68.17l2.76-1.63.05-.03c.24-.14.32-.44.17-.68l-.69-1.17Z" fill="none" stroke="#000" stroke-linecap="round" stroke-linejoin="round"/><line x1="15.32" y1="12.4" x2="14.56" y2="11.17" fill="none" stroke="#000" stroke-linecap="round" stroke-linejoin="round"/></g></g></g></g></svg>