<?xml version="1.0" encoding="UTF-8"?><svg id="Layer_2" xmlns="http://www.w3.org/2000/svg" viewBox="0 0 48 48"><g transform="translate(-1.9090,-0.0699) scale(1.081794)" stroke-width="0.924390"><defs><style>.cls-1{fill:none;stroke:#000;stroke-linecap:round;stroke-linejoin:round;}</style></defs><path class="cls-1" d="M6.86,17.42c.25-3.81,2.81-6,5.69-6.8,1.07-.29,3.18-.29,4.05.4,2.08-2.96,4.03-4.1,7.36-4.1s5.82,1.2,7.92,4.16c.88-.7,2.74-.72,3.89-.31,2.81.98,4.98,2.84,5.23,6.67-2.74,0-34.13-.01-34.13-.01Z"/><path class="cls-1" d="M5.01,17.48c0,10.45,8.47,18.92,18.92,18.92s18.92-8.47,18.92-18.92H5.01Z"/><path class="cls-1" d="M33.57,33.73c-2.83,1.68-6.12,2.66-9.64,2.66s-6.64-.93-9.42-2.53h-.93s-1.48,6.08-1.48,6.08v.24c0,.56.44,1.01,1.01,1.01h21.65c.56,0,1.01-.44,1.01-1.01v-.24l-1.54-6.22h-.64Z"/></g></svg>