<?xml version="1.0" encoding="UTF-8"?><svg xmlns="http://www.w3.org/2000/svg" width="48" height="48" viewBox="0 0 48 48"><g  transform="translate(0.0000,0.0000) scale(1.000000)"><g transform="translate(0.0000,0.0000)"><g transform="translate(0.0000,0.0000) scale(1.000000)">
  <!-- Generator: Adobe Illustrator 30.3.0, SVG Export Plug-In . SVG Version: 2.1.3 Build 182)  -->
  <defs>
    <style>
      .st0, .st1 {
        fill: none;
        stroke: #000;
        stroke-linecap: round;
        stroke-linejoin: round;
      }

      .st1 {
        stroke-width: 1px;
      }
    </style>
  </defs>
  <path class="st1" d="M5.52,20.89c.27-4.12,3.03-6.42,6.15-7.28,1.16-.31,3.44-.31,4.38.43,2.25-3.2,4.36-4.44,7.96-4.44s6.3,1.3,8.57,4.5c.95-.76,2.96-.78,4.21-.34,3.04,1.06,5.38,2.93,5.65,7.07l-36.92.05h0Z"/>
  <path class="st0" d="M31.75,20.84l12.66.05v4.95h.01c0,7.7-6.25,13.95-13.95,13.95h0s-13.01,0-13.01,0h.05c-7.85-.12-13.95-6.25-13.95-13.95h.01v-4.95s28.19-.05,28.19-.05h0Z"/>
  <path class="st1" d="M30.47,39.8h-12.97c-1.87-.03-3.64-.41-5.25-1.06l-1.07,4.39v.26c0,.61.48,1.09,1.09,1.09h23.42c.61,0,1.09-.48,1.09-1.09v-.26l-1.08-4.36c-1.62.66-3.38,1.03-5.24,1.03Z"/>
</g></g></g></svg>