<?xml version="1.0" encoding="UTF-8"?><svg id="Layer_2" xmlns="http://www.w3.org/2000/svg" viewBox="0 0 64 64"><g transform="translate(-3.2851,-3.9634) scale(1.505752)" stroke-width="0.885493"><path d="M28.57,42.68s-16.09,0-16.32,0c-3.04-2.77-3.61-8.57-.88-12.91,0,0,1.02-1.57,3.2-4.62,2.35-3.51,3.47-5.09,4.55-6.65,3.08-4.56,3.07-10.75-.22-13.43,0,0,1.28.04,0,0h15.35c.23,0,.45,0,.45,0,3.04,2.77,3.55,8.56.82,12.9,0,0-2.3,3.41-4.48,6.47-2.35,3.51-1.34,2.06-3.27,4.81-3.08,4.56-2.49,10.76.8,13.44Z" fill="none" stroke="#000" stroke-linecap="round" stroke-linejoin="round"/><path d="M19.24,31.64c-1.71,2.82-2.72,5.58-.93,7.53" fill="none" stroke="#000" stroke-linecap="round" stroke-linejoin="round"/><path d="M27.24,16.71c1.13-2.26,2.31-4.63.54-7.57" fill="none" stroke="#000" stroke-linecap="round" stroke-linejoin="round"/><line x1="21.6" y1="27.25" x2="25.28" y2="20.96" fill="none" stroke="#000" stroke-linecap="round" stroke-linejoin="round"/></g></svg>