<?xml version="1.0" encoding="UTF-8"?><svg id="Layer_2" xmlns="http://www.w3.org/2000/svg" viewBox="0 0 48 48"><g transform="translate(-3.1492,-1.5696) scale(1.129128)" stroke-width="0.885640"><path d="M9.98,28.27c.37,7.26,6.58,12.86,13.84,12.47,7.26-.37,12.86-6.58,12.47-13.84v-.08c-.37-7.26-6.58-12.86-13.84-12.47-7.26.37-12.86,6.58-12.47,13.84v.08Z" fill="none" stroke="#000" stroke-linecap="round" stroke-linejoin="round"/><path d="M36.1,17.53l4.9,1.86,1.18-4.23" fill="none" stroke="#000" stroke-linecap="round" stroke-linejoin="round"/><path d="M40.52,18.51c-.54-1.43-1.12-2.68-2.44-4.18l-.17-.2c-3.66-3.98-8.9-6.49-14.72-6.52h.03c-5.83.03-11.06,2.54-14.72,6.52l-.17.2c-1.32,1.5-1.9,2.75-2.44,4.18" fill="none" stroke="#000" stroke-linecap="round" stroke-linejoin="round"/></g></svg>