<?xml version="1.0" encoding="UTF-8"?><svg xmlns="http://www.w3.org/2000/svg" width="48" height="48" viewBox="0 0 48 48"><g  transform="translate(0.0000,0.0000) scale(1.000000)">
  <!-- Generator: Adobe Illustrator 30.3.0, SVG Export Plug-In . SVG Version: 2.1.3 Build 182)  -->
  <defs>
    <style>
      .st0 {
        stroke-miterlimit: 3.71;
      }

      .st0, .st1 {
        fill: none;
        stroke: #000;
        stroke-width: 1px;
      }

      .st1 {
        stroke-linecap: round;
        stroke-linejoin: round;
      }
    </style>
  </defs>
  <path class="st1" d="M3.56,19.94s1.36-8.17,10.9-6.81c8.54,1.22,8.17,10.9,8.17,10.9h2.72c.73.07,1.47-.02,2.17-.27s1.32-.65,1.84-1.17.92-1.15,1.17-1.84c.25-.69.34-1.43.27-2.17,0-1.45.57-2.83,1.6-3.85,1.02-1.02,2.41-1.6,3.85-1.6s2.83.57,3.85,1.6,1.6,2.41,1.6,3.85v6.81c0,3.25-1.29,6.37-3.59,8.67-2.3,2.3-5.42,3.59-8.67,3.59s-6.37-1.29-8.67-3.59c-2.3-2.3-3.59-5.42-3.59-8.67,0-4.09-8.17-5.45-9.54,0"/>
  <path class="st1" d="M29.45,37.67v6.81"/>
  <path class="st1" d="M33.54,44.48h-6.81"/>
  <path class="st1" d="M44.44,18.6l-2.72,1.36,2.72,2.72"/>
  <path class="st0" d="M36.94,19.96c-.38,0-.68-.3-.68-.68s.3-.68.68-.68"/>
  <path class="st0" d="M36.94,19.96c.38,0,.68-.3.68-.68s-.3-.68-.68-.68"/>
  <path class="st1" d="M32.41,14.75c-2.69-2.69-2.96-3.45-2.96-4.32,0-.87.29-1.73.81-2.43.52-.7,1.26-1.22,2.1-1.47.84-.25,1.73-.23,2.56.07.82.3,1.53.85,2.02,1.57.48-.74,1.19-1.29,2.02-1.6.83-.3,1.73-.33,2.57-.07s1.58.77,2.11,1.48c.52.71.81,1.56.81,2.44,0,1.49-1.51,2.87-3.63,5.07"/>
  <path class="st1" d="M32.17,28.13c.01.54-.08,1.08-.29,1.58-.2.5-.5.96-.88,1.34s-.84.68-1.34.88c-.5.2-1.04.3-1.58.29-.86-.07-1.68-.35-2.4-.83-.72-.48-1.3-1.13-1.69-1.9"/>
</g></svg>