<?xml version="1.0" encoding="UTF-8"?><svg id="Layer_2" xmlns="http://www.w3.org/2000/svg" viewBox="0 0 64 64"><g transform="translate(-4.0038,-4.1287) scale(1.499118)" stroke-width="0.889412"><path d="M21.86,12.6c-.56-1.23-1.68-2.79-2.92-3.74-.36-.28-.75-.5-1.13-.71l.03.02c-2.42-1.46-7.89-2.4-7.89-2.4,0,0,0,5.78,1.08,8.37.56,1.23,1.66,2.78,2.89,3.72.36.28.75.5,1.13.71,2.42,1.46,7.89,2.4,7.89,2.4,0,0,0-5.78-1.08-8.37h0Z" fill="none" stroke="#000" stroke-linecap="round" stroke-linejoin="round"/><path d="M31.28,17.13c1.23-.56,2.79-1.68,3.74-2.92.28-.36.5-.75.71-1.13l-.02.03c1.46-2.42,2.4-7.89,2.4-7.89,0,0-5.78,0-8.37,1.08-1.23.56-2.78,1.66-3.72,2.89-.28.36-.5.75-.71,1.13-1.46,2.42-2.4,7.89-2.4,7.89,0,0,5.78,0,8.37-1.08h0Z" fill="none" stroke="#000" stroke-linecap="round" stroke-linejoin="round"/><line x1="22.95" y1="19.93" x2="22.95" y2="42.99" fill="none" stroke="#000" stroke-linecap="round" stroke-linejoin="round"/><path d="M26.97,30.56c1.19-.79,2.79-.46,3.58.72.33.49.46,1.06.42,1.61" fill="none" stroke="#000" stroke-linecap="round" stroke-linejoin="round"/><path d="M23.62,29.44c2.84,0,5.15,2.3,5.15,5.15" fill="none" stroke="#000" stroke-linecap="round" stroke-linejoin="round"/><path d="M20.75,35.96c-.66-.44-1.54-.26-1.98.4-.18.27-.25.58-.23.89" fill="none" stroke="#000" stroke-linecap="round" stroke-linejoin="round"/><path d="M22.6,35.34c-1.57,0-2.84,1.27-2.84,2.84" fill="none" stroke="#000" stroke-linecap="round" stroke-linejoin="round"/><path d="M25.9,42.78c0-1.57-1.27-2.84-2.84-2.84" fill="none" stroke="#000" stroke-linecap="round" stroke-linejoin="round"/><path d="M17.8,29.64c0-2.84,2.3-5.15,5.15-5.15" fill="none" stroke="#000" stroke-linecap="round" stroke-linejoin="round"/></g></svg>