<?xml version="1.0" encoding="UTF-8"?><svg id="Layer_2" xmlns="http://www.w3.org/2000/svg" viewBox="0 0 64 64"><g transform="translate(-3.9674,-3.9935) scale(1.501768)" stroke-width="0.887842"><path d="M11.39,38.12c0-1.72,1.39-3.12,3.12-3.12s3.12,1.39,3.12,3.12c0-1.72,1.39-3.12,3.12-3.12s3.12,1.39,3.12,3.12v-.03l.12.03c0-1.72,1.39-3.12,3.12-3.12s3.12,1.39,3.12,3.12c0-1.72,1.39-3.12,3.12-3.12s3.12,1.39,3.12,3.12v-.03" fill="none" stroke="#000" stroke-linecap="round" stroke-linejoin="round"/><path d="M11.39,42.81c0-1.72,1.39-3.12,3.12-3.12s3.12,1.39,3.12,3.12c0-1.72,1.39-3.12,3.12-3.12s3.12,1.39,3.12,3.12v-.03l.12.03c0-1.72,1.39-3.12,3.12-3.12s3.12,1.39,3.12,3.12c0-1.72,1.39-3.12,3.12-3.12s3.12,1.39,3.12,3.12v-.03" fill="none" stroke="#000" stroke-linecap="round" stroke-linejoin="round"/><path d="M23.94,8.85v7.56h8.7l-8.7-11.31v3.76Z" fill="none" stroke="#000" stroke-linecap="round" stroke-linejoin="round"/><path d="M23.93,10.98l-6.2,8.05h6.2s0-5.38,0-5.38v-2.67Z" fill="none" stroke="#000" stroke-linecap="round" stroke-linejoin="round"/><path d="M37.49,22.15c.32.12.49.44.41.77l-4.7,9c-.1.22-.31.37-.55.39H15.18c-.24-.02-.46-.16-.56-.39l-4.64-9.05c-.08-.33.1-.66.41-.77l27.1.05Z" fill="none" stroke="#000" stroke-linecap="round" stroke-linejoin="round"/><line x1="23.94" y1="22.02" x2="23.94" y2="6.59" fill="none" stroke="#000" stroke-linecap="round" stroke-linejoin="round"/><line x1="11.36" y1="25.28" x2="36.51" y2="25.28" fill="none" stroke="#000" stroke-linecap="round" stroke-linejoin="round"/></g></svg>