<?xml version="1.0" encoding="UTF-8"?><svg id="Layer_2" xmlns="http://www.w3.org/2000/svg" viewBox="0 0 48 48"><g transform="translate(-2.1853,2.8440) scale(1.093333)" stroke-width="0.914634"><path d="M5.97,25.83v-4.32s36.67.07,36.67.07v4.32h.01c0,6.72-5.45,12.17-12.17,12.17l-12.35-.07c-6.72,0-12.17-5.45-12.17-12.17" fill="none" stroke="#000" stroke-linecap="round" stroke-linejoin="round"/><path d="M5.93,21.61c-.53-.62-.79-1.33-.68-2.03.14-.89.85-1.58,1.86-1.96-.68-1.4-.68-2.82.13-3.63l.03-.03.03-.03c.81-.81,2.23-.82,3.63-.13.38-1.01,1.07-1.72,1.96-1.86" fill="none" stroke="#000" stroke-linecap="round" stroke-linejoin="round"/><path d="M5.27,19.55c.14-.89.85-1.58,1.86-1.96-.68-1.4-.68-2.82.13-3.63l.03-.03.03-.03c.81-.81,2.23-.82,3.63-.13.38-1.01,1.07-1.72,1.96-1.86,1.4-.22,2.85,1.05,3.53,2.97.53-.1,1.06-.04,1.52.2,1.22.64,1.65,2.38,1.17,4.21.64.41,1.21,1.36,1.63,2.28" fill="none" stroke="#000" stroke-linecap="round" stroke-linejoin="round"/><line x1="11.41" y1="18.05" x2="14.87" y2="21.51" fill="none" stroke="#000" stroke-linecap="round" stroke-linejoin="round"/><path d="M13.01,17.07l.24,2.76s-.04.09-.08.1l-2.81-.25" fill="none" stroke="#000" stroke-linecap="round" stroke-linejoin="round"/><path d="M17.66,14.89c.1-.35.27-.65.52-.9l.03-.03.03-.03c.81-.81,2.23-.82,3.63-.13.38-1.01,1.07-1.72,1.96-1.86" fill="none" stroke="#000" stroke-linecap="round" stroke-linejoin="round"/><path d="M17.73,14.74c.1-.3.27-.57.49-.79l.03-.03.03-.03c.81-.81,2.23-.82,3.63-.13.38-1.01,1.07-1.72,1.96-1.86,1.4-.22,2.85,1.05,3.53,2.97.53-.1,1.06-.04,1.52.2,1.22.64,1.65,2.38,1.17,4.21.64.41,1.21,1.36,1.63,2.28" fill="none" stroke="#000" stroke-linecap="round" stroke-linejoin="round"/><line x1="22.13" y1="17.98" x2="25.81" y2="21.51" fill="none" stroke="#000" stroke-linecap="round" stroke-linejoin="round"/><path d="M23.96,17.14l.24,2.69s-.04.09-.08.1l-2.52-.25" fill="none" stroke="#000" stroke-linecap="round" stroke-linejoin="round"/><path d="M28.63,14.81c.1-.32.27-.6.5-.83l.03-.03.03-.03c.81-.81,2.23-.82,3.63-.13.38-1.01,1.07-1.72,1.96-1.86" fill="none" stroke="#000" stroke-linecap="round" stroke-linejoin="round"/><path d="M28.65,14.82c.1-.33.27-.62.51-.86l.03-.03.03-.03c.81-.81,2.23-.82,3.63-.13.38-1.01,1.07-1.72,1.96-1.86,1.4-.22,2.85,1.05,3.53,2.97.53-.1,1.06-.04,1.52.2,1.22.64,1.65,2.38,1.17,4.21.64.41,1.21,1.36,1.63,2.28" fill="none" stroke="#000" stroke-linecap="round" stroke-linejoin="round"/><line x1="33.1" y1="17.87" x2="36.76" y2="21.51" fill="none" stroke="#000" stroke-linecap="round" stroke-linejoin="round"/><path d="M34.9,17.24l.24,2.59s-.04.09-.08.1l-2.43-.25" fill="none" stroke="#000" stroke-linecap="round" stroke-linejoin="round"/></g></svg>