<?xml version="1.0" encoding="UTF-8"?><svg xmlns="http://www.w3.org/2000/svg" width="48" height="48" viewBox="0 0 48 48"><g  transform="translate(0.0000,0.0000) scale(1.000000)"><g transform="translate(0.0000,0.0000)"><g transform="translate(0.3232,0.3232) scale(0.992736)">
  <!-- Generator: Adobe Illustrator 30.3.0, SVG Export Plug-In . SVG Version: 2.1.3 Build 182)  -->
  <defs>
    <style>
      .st0 {
        fill: none;
        stroke: #000;
        stroke-linecap: round;
        stroke-linejoin: round;
      }
    </style>
  </defs>
  <path class="st0" d="M4.06,25.71c-.75-.68-.91-1.53-.79-2.3h0c.15-.96.94-1.73,2.05-2.15-.75-1.54-.75-3.1.15-4l.03-.03.03-.03c.9-.9,2.46-.9,4-.15.42-1.11,1.18-1.9,2.16-2.05,1.54-.24,3.14,1.15,3.89,3.27.59-.12,1.16-.04,1.67.22,1.34.71,1.82,2.61,1.29,4.64,1.08.24,1.87,1.44,1.91,2.53l-16.39.05Z"/>
  <line class="st0" x1="9.66" y1="20.52" x2="14.79" y2="25.65"/>
  <path class="st0" d="M12.74,20.5l.26,3.3c0,.06-.04.1-.09.1l-3.29-.28"/>
  <line class="st0" x1="21.7" y1="20.52" x2="26.83" y2="25.65"/>
  <path class="st0" d="M24.79,20.5l.26,3.3c0,.06-.04.1-.09.1l-3.29-.28"/>
  <line class="st0" x1="33.75" y1="20.52" x2="38.88" y2="25.65"/>
  <path class="st0" d="M36.84,20.5l.26,3.3c0,.06-.04.1-.09.1l-3.29-.28"/>
  <path class="st0" d="M31.93,25.73l12.51.05v4.9h.01c0,7.62-6.17,13.79-13.79,13.79h0s-12.86,0-12.86,0h.05c-7.76-.12-13.79-6.17-13.79-13.79h.01s0-4.9,0-4.9l27.87-.05h0Z"/>
  <path class="st0" d="M32.36,25.73c.01-.96-.58-2.37-1.78-2.56.53-2.02.06-3.93-1.29-4.64-.12-.06-.23-.11-.35-.15.11-.36.35-.81.61-1.07l.03-.03.03-.03c.9-.9,2.46-.9,4-.15.42-1.11,1.18-1.9,2.16-2.05,1.54-.24,3.14,1.15,3.89,3.27.59-.12,1.16-.04,1.67.22,1.34.71,1.82,2.61,1.29,4.64,1.21.34,1.79,1.43,1.8,2.51v.05h-12.07Z"/>
  <path class="st0" d="M20.46,25.73c0-.69-.53-2.3-1.92-2.56.53-2.02.06-3.93-1.29-4.64-.12-.06-.23-.11-.35-.15.11-.36.35-.81.61-1.07l.03-.03.03-.03c.9-.9,2.46-.9,4-.15.42-1.11,1.18-1.9,2.16-2.05,1.54-.24,3.14,1.15,3.89,3.27.59-.12,1.16-.04,1.67.22,1.34.71,1.82,2.61,1.29,4.64.97.14,1.71,1.29,1.8,2.51v.05h-11.92Z"/>
</g></g></g></svg>