<?xml version="1.0" encoding="UTF-8"?><svg xmlns="http://www.w3.org/2000/svg" width="20.8" height="48" viewBox="0 0 20.8 48"><g  transform="translate(0.0000,0.0000) scale(1.000000)"><g transform="translate(-13.6000,0.0000)"><g transform="translate(-1.9684,-2.0185) scale(1.082017)"><path d="M26.63,23.19l1.31-3.45c.17-.44-.16-.91-.63-.91h-6.61c-.47,0-.8.47-.63.91l1.31,3.45h5.24Z" fill="none" stroke="#000" stroke-linecap="round" stroke-linejoin="round" stroke-width="0.9242"/><path d="M21.26,23.21l-3.54,17.16c0,1.4,1.14,2.52,2.52,2.52h7.51c1.4,0,2.52-1.14,2.52-2.52h0l-3.47-17.17h-5.55Z" fill="none" stroke="#000" stroke-linecap="round" stroke-linejoin="round"/><line x1="22.35" y1="18.77" x2="19.88" y2="5.51" fill="none" stroke="#000" stroke-linecap="round" stroke-linejoin="round" stroke-width="0.9242"/><line x1="25.65" y1="18.77" x2="28.12" y2="5.51" fill="none" stroke="#000" stroke-linecap="round" stroke-linejoin="round" stroke-width="0.9242"/><line x1="24" y1="18.77" x2="24" y2="5.11" fill="none" stroke="#000" stroke-linecap="round" stroke-linejoin="round" stroke-width="0.9242"/></g></g></g></svg>