<?xml version="1.0" encoding="UTF-8"?><svg id="Layer_2" xmlns="http://www.w3.org/2000/svg" viewBox="0 0 48 48"><g transform="translate(-1.8899,-1.8950) scale(1.078747)" stroke-width="0.927002"><defs><style>.cls-1{fill:none;stroke:#000;stroke-linecap:round;stroke-linejoin:round;}</style></defs><line class="cls-1" x1="9.84" y1="7.59" x2="10.7" y2="27.89"/><path class="cls-1" d="M36.6,43H11.4c-.37,0-.68-.3-.68-.67,0,0,0,0,0,0v-20.55c0-7.33,5.94-13.28,13.28-13.28s13.28,5.94,13.28,13.28v20.55c0,.37-.3.68-.68.68Z"/><path class="cls-1" d="M13.66,21.77c0-5.71,4.63-10.34,10.34-10.34s10.34,4.63,10.34,10.34"/><path class="cls-1" d="M13.73,34.14v-4.48c0-.37.3-.68.68-.68h19.19c.37,0,.68.3.68.68v4.94-.24,4.48c0,.37-.3.68-.68.68H14.41c-.37,0-.68-.3-.68-.68v-4.94.24Z"/><path class="cls-1" d="M20.09,8.96c0-2.16,1.75-3.91,3.91-3.91s3.91,1.75,3.91,3.91"/><path class="cls-1" d="M15.32,7.45l1.21,3.31c-1.7,1.15-3.1,2.65-4.11,4.44l-.02.03-2.52-7.42c-.03-.07-.04-.14-.04-.21,0-.32.26-.58.58-.58h4.26c.28,0,.54.18.63.44Z"/><line class="cls-1" x1="38.16" y1="7.59" x2="37.31" y2="27.89"/><path class="cls-1" d="M32.68,7.45l-1.21,3.31c1.7,1.15,3.1,2.65,4.11,4.44l.02.03,2.52-7.42c.03-.07.04-.14.04-.21,0-.32-.26-.58-.58-.58h-4.26c-.28,0-.54.18-.63.44Z"/></g></svg>