<?xml version="1.0" encoding="UTF-8"?><svg xmlns="http://www.w3.org/2000/svg" width="41.6" height="48" viewBox="0 0 41.6 48"><g  transform="translate(0.0000,0.0000) scale(1.000000)"><g transform="translate(-3.2000,0.0000)"><g transform="translate(3.2000,0.0000) scale(1.000000)"><g transform="translate(-5.0333,-2.1552) scale(1.087533)" stroke-width="0.919512"><path d="M25.07,24.39v17.03c0,.89-.6,1.44-1.31,1.44s-1.28-.55-1.28-1.44v-17.03h2.58Z" fill="none" stroke="#000" stroke-linecap="round" stroke-linejoin="round"/><circle cx="24.03" cy="12.38" r=".88" fill="none" stroke="#000" stroke-linecap="round" stroke-linejoin="round"/><circle cx="24.03" cy="17.24" r=".88" fill="none" stroke="#000" stroke-linecap="round" stroke-linejoin="round"/><rect x="14.2" y="-1.06" width="19.13" height="31.7" rx=".85" ry=".85" transform="translate(8.97 38.55) rotate(-90)" fill="none" stroke="#000" stroke-linecap="round" stroke-linejoin="round"/><rect x="9.24" y="9.87" width="13.1" height="9.83" rx=".85" ry=".85" transform="translate(1 30.58) rotate(-90)" fill="none" stroke="#000" stroke-linecap="round" stroke-linejoin="round"/><rect x="25.58" y="9.87" width="13.1" height="9.83" rx=".85" ry=".85" transform="translate(17.34 46.92) rotate(-90)" fill="none" stroke="#000" stroke-linecap="round" stroke-linejoin="round"/></g></g></g></g></svg>