<?xml version="1.0" encoding="UTF-8"?><svg xmlns="http://www.w3.org/2000/svg" width="48" height="48" viewBox="0 0 48 48"><g  transform="translate(0.0000,0.0000) scale(1.000000)"><g transform="translate(0.0000,0.0000)"><g transform="translate(0.0000,0.0000) scale(1.000000)"><g transform="translate(-2.2793,1.3191) scale(1.090426)" stroke-width="0.917073"><path d="M38.02,16.79h-.62c-.19,0-.35-.15-.35-.33v-2.92c0-.18.15-.33.35-.33h2.03c.19,0,.35.15.35.33v2.92c0,.18-.15.33-.35.33h-1.41Z" fill="none" stroke="#000" stroke-linecap="round" stroke-linejoin="round"/><path d="M38.02,29.2h-.62c-.19,0-.35-.15-.35-.33v-2.92c0-.18.15-.33.35-.33h2.03c.19,0,.35.15.35.33v2.92c0,.18-.15.33-.35.33h-1.41Z" fill="none" stroke="#000" stroke-linecap="round" stroke-linejoin="round"/><path d="M8.4,17.29v-.1c0-.19.13-.35.3-.35h30.82c.16,0,.3.15.3.35v.56s0,1.98,0,1.98c0,.19-.13.35-.3.35H8.69c-.16,0-.3-.15-.3-.35v-2.44s0,0,0,0Z" fill="none" stroke="#000" stroke-linecap="round" stroke-linejoin="round"/><path d="M8.4,29.68v-.1c0-.19.13-.35.3-.35h30.82c.16,0,.3.15.3.35v.56s0,1.98,0,1.98c0,.19-.13.35-.3.35H8.69c-.16,0-.3-.15-.3-.35v-2.44s0,0,0,0Z" fill="none" stroke="#000" stroke-linecap="round" stroke-linejoin="round"/><line x1="11.53" y1="16.94" x2="11.53" y2="39.4" fill="none" stroke="#000" stroke-linecap="round" stroke-linejoin="round"/><line x1="18.78" y1="16.94" x2="18.78" y2="39.4" fill="none" stroke="#000" stroke-linecap="round" stroke-linejoin="round"/><path d="M5.35,39.6V11.07c0-.84.69-1.53,1.53-1.53s1.53.69,1.53,1.53v28.53h-3.06Z" fill="none" stroke="#000" stroke-linecap="round" stroke-linejoin="round"/><path d="M39.81,39.6V11.07c0-.84.69-1.53,1.53-1.53s1.53.69,1.53,1.53v28.53h-3.07" fill="none" stroke="#000" stroke-linecap="round" stroke-linejoin="round"/><line x1="11.69" y1="23.09" x2="18.67" y2="23.09" fill="none" stroke="#000" stroke-linecap="round" stroke-linejoin="round"/><line x1="11.71" y1="26.28" x2="18.52" y2="26.28" fill="none" stroke="#000" stroke-linecap="round" stroke-linejoin="round"/><line x1="11.61" y1="35.52" x2="18.61" y2="35.52" fill="none" stroke="#000" stroke-linecap="round" stroke-linejoin="round"/></g></g></g></g></svg>