<?xml version="1.0" encoding="UTF-8"?><svg id="Layer_2" xmlns="http://www.w3.org/2000/svg" viewBox="0 0 48 48"><g transform="translate(-2.1741,-2.1678) scale(1.092864)" stroke-width="0.915027"><path d="M24.23,19.34l17.9,4.6c.43.16.66.6.55,1.04l-6.24,17.17c-.13.3-.42.49-.74.52H12.21c-.33-.03-.62-.22-.75-.52l-6.24-17.17c-.1-.44.13-.88.55-1.04l18.19-4.6s.09-.01.13-.01.09,0,.14.01h.01Z" fill="none" stroke="#000" stroke-linecap="round" stroke-linejoin="round"/><path d="M23.97,19.34s.09-.01.13-.01.09,0,.14.01l10.66,2.73v-9.49c0-.48-.39-.87-.87-.87H13.91c-.48,0-.87.39-.87.87v9.52l10.93-2.76h.01-.01Z" fill="none" stroke="#000" stroke-linecap="round" stroke-linejoin="round"/><path d="M23.96,11.71h7.19v-1.92c0-.48-.39-.87-.87-.87h-12.58c-.48,0-.87.39-.87.87v1.92h7.16-.03Z" fill="none" stroke="#000" stroke-linecap="round" stroke-linejoin="round"/><line x1="24.08" y1="8.75" x2="24.08" y2="5.58" fill="none" stroke="#000" stroke-linecap="round" stroke-linejoin="round"/></g></svg>