<?xml version="1.0" encoding="UTF-8"?><svg xmlns="http://www.w3.org/2000/svg" width="45.2" height="48" viewBox="0 0 45.2 48"><g  transform="translate(0.0000,0.0000) scale(1.000000)"><g transform="translate(-1.4000,0.0000)"><g stroke-width="1.07805" transform="translate(2.2014,2.2014) scale(0.927602)">
  <desc>
    Shirt Streamline Icon: https://streamlinehq.com
  </desc>
  <path d="M11.75 16.15625V44.0625a1.46875 1.46875 0 0 0 1.46875 1.46875h20.5625a1.46875 1.46875 0 0 0 1.46875 -1.46875V16.15625" fill="none" stroke="#000000" stroke-linecap="round" stroke-linejoin="round" stroke-width="1.07805"></path>
  <path d="M35.25 24.96875h7.34375a1.46875 1.46875 0 0 0 1.46875 -1.46875V13.21875a11.75 11.75 0 0 0 -11.75 -11.75H29.375a5.875 5.875 0 0 1 -11.75 0H14.6875a11.75 11.75 0 0 0 -11.75 11.75V23.5a1.46875 1.46875 0 0 0 1.46875 1.46875H11.75" fill="none" stroke="#000000" stroke-linecap="round" stroke-linejoin="round" stroke-width="1.07805"></path>
  <path d="m23.5 7.34375 0 5.875" fill="none" stroke="#000000" stroke-linecap="round" stroke-linejoin="round" stroke-width="1.07805"></path>
  <path d="m29.375 19.09375 -2.9375 0" fill="none" stroke="#000000" stroke-linecap="round" stroke-linejoin="round" stroke-width="1.07805"></path>
</g></g></g></svg>