<?xml version="1.0" encoding="UTF-8"?><svg id="Layer_2" xmlns="http://www.w3.org/2000/svg" viewBox="0 0 64 64"><g transform="translate(-4.1702,13.3121) scale(1.507092)" stroke-width="0.884706"><line x1="27.02" y1="19.27" x2="24.97" y2="23.41" fill="none" stroke="#000" stroke-linecap="round" stroke-linejoin="round"/><line x1="30.58" y1="20.69" x2="28.99" y2="24.38" fill="none" stroke="#000" stroke-linecap="round" stroke-linejoin="round"/><path d="M42.11,27.5H5.87c-.36,0-.65.34-.65.74v2.21c0,.4.29.74.65.74h36.24c.36,0,.65-.34.65-.74v-2.96h-.65Z" fill="none" stroke="#000" stroke-linecap="round" stroke-linejoin="round"/><path d="M42.77,29.21l-.03-1.61v-1.59h-.02c0-1.4-.8-2.57-1.91-2.93l-18.39-5.41c-.26-.09-.56-.07-.75.13-.79.86-2.69,3.14-7.05,3.11-4.04-.03-5.32-1.69-6.94-3.22l-.52-.02h0c-1.42,0-1.79.47-1.82,1.88l-.12,10.56" fill="none" stroke="#000" stroke-linecap="round" stroke-linejoin="round"/></g></svg>