<?xml version="1.0" encoding="UTF-8"?><svg xmlns="http://www.w3.org/2000/svg" width="48" height="48" viewBox="0 0 48 48"><g  transform="translate(0.0000,0.0000) scale(1.000000)"><g transform="translate(0.0000,0.0000)"><g transform="translate(0.0000,-0.1000) scale(1.000000)">
  <!-- Generator: Adobe Illustrator 30.3.0, SVG Export Plug-In . SVG Version: 2.1.3 Build 182)  -->
  <defs>
    <style>
      .st0 {
        fill: none;
        stroke: #000;
        stroke-linecap: round;
        stroke-linejoin: round;
        stroke-width: 1px;
      }
    </style>
  </defs>
  <line class="st0" x1="27.29" y1="30.59" x2="25.06" y2="35.11"/>
  <line class="st0" x1="31.17" y1="32.14" x2="29.44" y2="36.17"/>
  <path class="st0" d="M43.72,44.51c.39,0,.71-.37.71-.81v-3.23s-.71,0-.71,0H3.52s0,3.23,0,3.23c0,.44.32.81.71.81h39.48Z"/>
  <path class="st0" d="M3.69,30.69c0-1,.81-1.8,1.8-1.8.48,0,.92.19,1.24.5h0c1.56,1.51,3.08,2.99,7.06,3.02l-.03-.02c4.04.03,6.14-1.76,7.21-2.87h0c.33-.36.8-.58,1.32-.58.18,0,.35.03.51.07l19.52,5.75c1.21.39,2.08,1.67,2.08,3.19h.02v2.47H3.52c0-.06.17-9.73.17-9.73Z"/>
</g></g></g></svg>