<?xml version="1.0" encoding="UTF-8"?><svg id="Layer_2" xmlns="http://www.w3.org/2000/svg" viewBox="0 0 48 48"><g transform="translate(-1.7840,-2.1702) scale(1.090426)" stroke-width="0.917073"><path d="M28.32,42.78h11.66c.5,0,.91-.41.91-.91V8.94" fill="none" stroke="#000" stroke-linecap="round" stroke-linejoin="round"/><line x1="12.17" y1="42.78" x2="22.65" y2="42.78" fill="none" stroke="#000" stroke-linecap="round" stroke-linejoin="round"/><path d="M33.88,7.55c-1.32.06-2.69.26-4.07.61-2.14.55-4.07,1.41-5.69,2.47-1.6-.96-4.16-1.13-6.75-.27-2.14.71-3.85,1.96-4.78,3.35-.57.77-1.07,1.69-1.44,2.71-.93,2.53-.86,5.05.02,6.69-1.45,2.38-2.35,5.57-2.35,9.08,0,4.4,1.22,8.05,3.36,10.46" fill="none" stroke="#000" stroke-linecap="round" stroke-linejoin="round"/><path d="M22.65,42.71c1.96-2.44,3.49-6.36,3.49-10.52,0-2.67-.52-5.16-1.4-7.24" fill="none" stroke="#000" stroke-linecap="round" stroke-linejoin="round"/><path d="M28.32,42.7c-1.3-.93-2.21-2.15-2.58-3.6-.22-.87-.29-1.76-.11-2.65" fill="none" stroke="#000" stroke-linecap="round" stroke-linejoin="round"/><line x1="11.19" y1="9.94" x2="9.05" y2="7.79" fill="none" stroke="#000" stroke-linecap="round" stroke-linejoin="round"/><line x1="15.09" y1="8.27" x2="15.09" y2="5.24" fill="none" stroke="#000" stroke-linecap="round" stroke-linejoin="round"/><line x1="9.41" y1="13.59" x2="6.38" y2="13.59" fill="none" stroke="#000" stroke-linecap="round" stroke-linejoin="round"/><path d="M40.89,8.94c-1.6-.96-4.03-1.46-7.01-1.39" fill="none" stroke="#000" stroke-linecap="round" stroke-linejoin="round"/></g></svg>