<?xml version="1.0" encoding="UTF-8"?><svg id="Layer_2" xmlns="http://www.w3.org/2000/svg" viewBox="0 0 48 48"><g transform="translate(-2.5902,-2.1552) scale(1.087533)" stroke-width="0.919512"><line x1="18.47" y1="42.73" x2="18.47" y2="5.9" fill="none" stroke="#000" stroke-linecap="round" stroke-linejoin="round"/><line x1="24.45" y1="42.66" x2="24.45" y2="5.83" fill="none" stroke="#000" stroke-linecap="round" stroke-linejoin="round"/><line x1="30.5" y1="42.66" x2="30.5" y2="5.83" fill="none" stroke="#000" stroke-linecap="round" stroke-linejoin="round"/><line x1="18.67" y1="36.52" x2="24.15" y2="36.52" fill="none" stroke="#000" stroke-linecap="round" stroke-linejoin="round"/><line x1="30.68" y1="36.52" x2="36.15" y2="36.52" fill="none" stroke="#000" stroke-linecap="round" stroke-linejoin="round"/><line x1="18.67" y1="20.18" x2="24.15" y2="20.18" fill="none" stroke="#000" stroke-linecap="round" stroke-linejoin="round"/><line x1="30.53" y1="20.18" x2="36" y2="20.18" fill="none" stroke="#000" stroke-linecap="round" stroke-linejoin="round"/><line x1="24.96" y1="28.18" x2="30.44" y2="28.18" fill="none" stroke="#000" stroke-linecap="round" stroke-linejoin="round"/><line x1="12.88" y1="28.18" x2="18.36" y2="28.18" fill="none" stroke="#000" stroke-linecap="round" stroke-linejoin="round"/><line x1="24.96" y1="11.97" x2="30.44" y2="11.97" fill="none" stroke="#000" stroke-linecap="round" stroke-linejoin="round"/><line x1="12.88" y1="11.97" x2="18.36" y2="11.97" fill="none" stroke="#000" stroke-linecap="round" stroke-linejoin="round"/><path d="M15.09,42.84c-1.32,0-2.4-1.1-2.4-2.45h-.05l.05-32.72h0c0-1.35,1.07-2.45,2.4-2.45h18.78c1.32,0,2.4,1.1,2.4,2.45v32.72c0,1.35-1.07,2.45-2.4,2.45H15.09Z" fill="none" stroke="#000" stroke-linecap="round" stroke-linejoin="round"/></g></svg>