<?xml version="1.0" encoding="UTF-8"?><svg xmlns="http://www.w3.org/2000/svg" width="20.2" height="48" viewBox="0 0 20.2 48"><g  transform="translate(0.0000,0.0000) scale(1.000000)"><g transform="translate(-13.9000,0.0000)"><g transform="translate(13.9000,0.0000) scale(1.000000)"><g transform="translate(-15.7549,-2.0172) scale(1.081794)" stroke-width="0.924390"><path d="M21.25,15.72l.39,14.36c0,1.17.96,2.11,2.11,2.11h.22c1.17,0,2.11-.96,2.11-2.11h0l.38-14.37h-5.23Z" fill="none" stroke="#000" stroke-linecap="round" stroke-linejoin="round"/><path d="M20.18,15.71h7.45c.22,0,.43-.08.59-.24,1.31-1.33,2.02-3.25,1.66-5.33-.45-2.59-2.62-4.64-5.23-4.95-3.68-.44-6.81,2.43-6.81,6.02,0,1.66.67,3.16,1.75,4.26.15.16.37.24.59.24Z" fill="none" stroke="#000" stroke-linecap="round" stroke-linejoin="round"/><path d="M24.63,42.93c-1.49,0-2.7-1.2-2.7-2.7s1.2-2.7,2.7-2.7c-1.49,0-2.7-1.2-2.7-2.7,0-1.29.9-2.37,2.11-2.63" fill="none" stroke="#000" stroke-linecap="round" stroke-linejoin="round"/><line x1="18.28" y1="13.48" x2="29.53" y2="13.48" fill="none" stroke="#000" stroke-linecap="round" stroke-linejoin="round"/></g></g></g></g></svg>