<?xml version="1.0" encoding="UTF-8"?><svg id="Layer_2" xmlns="http://www.w3.org/2000/svg" viewBox="0 0 64 64"><g transform="translate(-4.3138,3.7159) scale(1.505752)" stroke-width="0.885493"><path d="M34.86,32.51c.23,1.22,1.42,2.03,2.64,1.8,1.22-.23,2.03-1.42,1.8-2.64h0c-.23-1.24-1.42-2.05-2.64-1.81-1.22.23-2.03,1.42-1.8,2.64h0Z" fill="none" stroke="#000" stroke-linecap="round" stroke-linejoin="round"/><path d="M39.93,36.33c.15.82.95,1.36,1.76,1.2.82-.15,1.36-.95,1.2-1.76h0c-.15-.83-.95-1.37-1.76-1.21-.82.15-1.36.95-1.2,1.76h0Z" fill="none" stroke="#000" stroke-linecap="round" stroke-linejoin="round"/><path d="M24.62,23.02c-3.02,0-5.47-2.45-5.47-5.47,0-.87.2-1.69.56-2.42-2.33.62-4.06,2.75-4.06,5.28,0,3.02,2.45,5.47,5.47,5.47,2.15,0,4.01-1.24,4.9-3.05-.45.12-.92.18-1.4.18Z" fill="none" stroke="#000" stroke-linecap="round" stroke-linejoin="round"/><path d="M31.68,25.23c-.24-.02-.48,0-.71.04,1.35-.85,2.32-2.33,2.48-4.09v-.03c.07-.7-.12-2.23-.48-2.88-.85-2.06-2.72-3.57-5.01-3.76-1.22-.11-2.39.17-3.4.74.28-.46.48-.97.53-1.54.18-2.06-1.44-3.9-3.63-4.1h-.02c-1.83-.18-3.46.86-4.05,2.41-.79-.88-1.89-1.49-3.17-1.6-2.66-.25-5.03,1.72-5.26,4.39v.03c-.09.97.12,1.89.54,2.69.02.14.03.28.06.42-2.26.46-4.03,2.22-4.22,4.5v.03c-.26,2.83,2.01,5.37,5.05,5.65,1.11.11,2.17-.11,3.08-.56-.04,1.57,1.23,2.95,2.93,3.1,1.25.12,2.37-.45,2.98-1.38.75,1.74,2.27,2.84,4.23,3.01,2.17.19,4.16-1.02,5.15-2.91.39.97,1.26,1.69,2.34,1.78,0,0,0,0,0,0l.03.03c1.57.14,2.96-1.08,3.11-2.72v-.02c.16-1.64-.99-3.09-2.56-3.22Z" fill="none" stroke="#000" stroke-linecap="round" stroke-linejoin="round"/></g></svg>