<?xml version="1.0" encoding="UTF-8"?><svg xmlns="http://www.w3.org/2000/svg" width="48" height="48" viewBox="0 0 48 48"><g  transform="translate(0.0000,0.0000) scale(1.000000)"><g transform="translate(0.0000,0.0000)"><g stroke-width="1.07805" transform="translate(2.2014,8.4163) scale(0.927602)">
  <desc>
    Snail Streamline Icon: https://streamlinehq.com
  </desc>
  <path d="M14.295833333333333 30.168124999999996A18.29083333333333 18.29083333333333 0 0 1 31.29808333333333 5.875a14.411375 14.411375 0 0 1 14.262541666666667 14.622874999999999 11.511083333333334 11.511083333333334 0 0 1 -11.389666666666665 11.697125 9.276625 9.276625 0 0 1 -9.192416666666666 -9.358875 7.422083333333333 7.422083333333333 0 0 1 7.353541666666666 -7.486708333333333 5.937666666666667 5.937666666666667 0 0 1 5.875 5.990541666666667" fill="none" stroke="#000000" stroke-linecap="round" stroke-linejoin="round" stroke-width="1.07805"></path>
  <path d="M13.346041666666666 23.86425C13.4185 16.972875 1.4883333333333333 14.797166666666666 1.4883333333333333 24.161916666666663c0 7.34375 2.9375 14.6875 13.21875 14.6875h30.84375s-3.5563333333333333 -7.110708333333332 -6.754291666666666 -7.637499999999999" fill="none" stroke="#000000" stroke-linecap="round" stroke-linejoin="round" stroke-width="1.07805"></path>
  <path d="m2.9570833333333333 10.943166666666666 1.8388749999999998 7.355499999999999" fill="none" stroke="#000000" stroke-linecap="round" stroke-linejoin="round" stroke-width="1.07805"></path>
  <path d="m10.300833333333333 10.943166666666666 -1.786 7.145958333333333" fill="none" stroke="#000000" stroke-linecap="round" stroke-linejoin="round" stroke-width="1.07805"></path>
</g></g></g></svg>