<?xml version="1.0" encoding="UTF-8"?><svg xmlns="http://www.w3.org/2000/svg" width="48" height="48" viewBox="0 0 48 48"><g  transform="translate(0.0000,0.0000) scale(1.000000)"><g transform="translate(0.0000,0.0000)"><g stroke-width="1.07805" transform="translate(2.2014,2.2014) scale(0.927602)">
  <desc>
    Soccer Ball Streamline Icon: https://streamlinehq.com
  </desc>
  <path d="M23.5 1.46875A22.03125 22.03125 0 1 0 45.53125 23.5 22.03125 22.03125 0 0 0 23.5 1.46875Z" fill="none" stroke="#000000" stroke-linecap="round" stroke-linejoin="round" stroke-width="1.07805"></path>
  <path d="m17.419375 32.809916666666666 -3.7404166666666665 -11.554166666666667L23.5 14.115666666666666l9.821041666666666 7.140083333333333 -3.7404166666666665 11.554166666666667 -12.161249999999999 0z" fill="none" stroke="#000000" stroke-linecap="round" stroke-linejoin="round" stroke-width="1.07805"></path>
  <path d="M31.92279166666666 3.1352916666666664 23.5 8.8125 15.077208333333333 3.1352916666666664" fill="none" stroke="#000000" stroke-linecap="round" stroke-linejoin="round" stroke-width="1.07805"></path>
  <path d="m28.589708333333334 44.93983333333333 4.1888749999999995 -8.550083333333331 9.5645 -1.46875" fill="none" stroke="#000000" stroke-linecap="round" stroke-linejoin="round" stroke-width="1.07805"></path>
  <path d="m45.46075 25.280125 -6.711208333333333 -6.683791666666666 1.4393749999999998 -9.476375" fill="none" stroke="#000000" stroke-linecap="round" stroke-linejoin="round" stroke-width="1.07805"></path>
  <path d="m23.5 8.8125 0 5.303166666666667" fill="none" stroke="#000000" stroke-linecap="round" stroke-linejoin="round" stroke-width="1.07805"></path>
  <path d="m33.321041666666666 21.25575 5.4285 -2.6594166666666665" fill="none" stroke="#000000" stroke-linecap="round" stroke-linejoin="round" stroke-width="1.07805"></path>
  <path d="m1.53925 25.280125 6.711208333333333 -6.683791666666666 -1.4393749999999998 -9.476375" fill="none" stroke="#000000" stroke-linecap="round" stroke-linejoin="round" stroke-width="1.07805"></path>
  <path d="M13.678958333333334 21.25575 8.250458333333333 18.596333333333334" fill="none" stroke="#000000" stroke-linecap="round" stroke-linejoin="round" stroke-width="1.07805"></path>
  <path d="m29.580625 32.809916666666666 3.1979583333333332 3.579833333333333" fill="none" stroke="#000000" stroke-linecap="round" stroke-linejoin="round" stroke-width="1.07805"></path>
  <path d="m18.410291666666666 44.93983333333333 -4.1888749999999995 -8.550083333333331 -9.5645 -1.46875" fill="none" stroke="#000000" stroke-linecap="round" stroke-linejoin="round" stroke-width="1.07805"></path>
  <path d="m17.419375 32.809916666666666 -3.1979583333333332 3.579833333333333" fill="none" stroke="#000000" stroke-linecap="round" stroke-linejoin="round" stroke-width="1.07805"></path>
</g></g></g></svg>