<?xml version="1.0" encoding="UTF-8"?><svg id="Layer_2" xmlns="http://www.w3.org/2000/svg" viewBox="0 0 64 64"><g transform="translate(-4.1266,-4.2798) scale(1.508418)" stroke-width="0.883928"><path d="M24.91,16.88c-.49-1.05-1.45-2.4-2.51-3.22-.31-.24-.64-.43-.97-.61l.02.02c-2.08-1.26-6.79-2.06-6.79-2.06,0,0,0,4.97.93,7.2.49,1.05,1.43,2.39,2.49,3.2.31.24.64.43.97.61,2.08,1.26,6.79,2.06,6.79,2.06,0,0,0-4.97-.93-7.2h0Z" fill="none" stroke="#000" stroke-linecap="round" stroke-linejoin="round"/><path d="M33.01,20.77c1.05-.49,2.4-1.45,3.22-2.51.24-.31.43-.64.61-.97l-.02.02c1.26-2.08,2.06-6.79,2.06-6.79,0,0-4.97,0-7.2.93-1.05.49-2.39,1.43-3.2,2.49-.24.31-.43.64-.61.97-1.26,2.08-2.06,6.79-2.06,6.79,0,0,4.97,0,7.2-.93h0Z" fill="none" stroke="#000" stroke-linecap="round" stroke-linejoin="round"/><line x1="25.85" y1="23.18" x2="25.85" y2="27.54" fill="none" stroke="#000" stroke-linecap="round" stroke-linejoin="round"/><path d="M17.46,35.36c0-4.26,3.45-7.72,7.72-7.72s7.72,3.45,7.72,7.72c0,.06,0,.12,0,.19.22-.03.45-.03.68-.06,2.1-.28,3.89.86,4.72,2.91,2.44,0,4.43,1.98,4.43,4.43H5.19c0-2.44,1.98-4.43,4.43-4.43,1.02,0,1.95.35,2.7.92.26-2.2,2.12-3.91,4.39-3.91.23,0,.46.02.68.06,0-.06,0-.12,0-.19,0-4.26,3.45-7.72,7.72-7.72s7.72,3.45,7.72,7.72" fill="none" stroke="#000" stroke-linecap="round" stroke-linejoin="round"/></g></svg>