<?xml version="1.0" encoding="UTF-8"?>
<svg id="Layer_2" xmlns="http://www.w3.org/2000/svg" version="1.1" viewBox="0 0 64 64"><g transform="translate(-3.9278,-5.0797) scale(1.534239)" stroke-width="0.869052">
  <!-- Generator: Adobe Illustrator 30.3.0, SVG Export Plug-In . SVG Version: 2.1.3 Build 182)  -->
  <defs>
    <style>
      .st0 {
        fill: none;
        stroke: #000;
        stroke-linecap: round;
        stroke-linejoin: round;
      }
    </style>
  </defs>
  <path class="st0" d="M12.88,31.67h0l-5.11,5.25c-.22.23-.55.55-.54.84l-1.61,4.56v.08c.04.08.05.09.1.14.06.05.19.09.19.09h.05l4.64-1.82c.22-.1.12-.05.34-.24l5.37-5.61"/>
  <line class="st0" x1="10.93" y1="40.56" x2="7.46" y2="37.23"/>
  <path class="st0" d="M16.99,29.72l-2.96-2.83h0,0c-.66-.63-.89-1.48-.25-2.15s1.49-.48,2.16.16h-.01l2.93,2.79-.05-.04.09.1,3.99,3.82h.01-.01c.66.63.85,1.52.22,2.18s-1.45.44-2.12-.2h.01l-4.01-3.82h0Z"/>
  <polygon class="st0" points="40.97 11.64 40.97 11.64 40.98 11.65 40.97 11.64"/>
  <path class="st0" d="M15.97,24.94l2.83,2.71.09.1,3.98,3.81c.06-.03.12-.07.16-.12l18.03-18.92c.21-.23.2-.57-.03-.77l-.06-.1-1.86-1.73-4.27-4.05c-.23-.2-.57-.19-.77.03l-18.03,18.92s-.05.08-.08.12h.01Z"/>
  <path class="st0" d="M12.31,30.22l2.15-2.24c.18-.19.48-.2.67-.01l4.74,4.53c.19.18.2.48.01.67l-1.83,1.91.17-.18-.62.64c-.18.19-.48.2-.67.01l-4.74-4.53c-.19-.18-.2-.48,0-.67l.29-.31-.17.18h0Z"/>
  <path class="st0" d="M23.95,21.49l-.05.05h0c.63-.66,1.48-.89,2.15-.25s.48,1.49-.16,2.16h0l-1.36,1.41.04-.05,1.35-1.42-2.37,2.48h0c-.63.66-1.52.85-2.18.22s-.44-1.45.2-2.12h0l2.39-2.49h-.01Z"/>
</g></svg>