<?xml version="1.0" encoding="UTF-8"?>
<svg id="Layer_2" xmlns="http://www.w3.org/2000/svg" version="1.1" viewBox="0 0 48 48"><g transform="translate(-2.4516,-2.3414) scale(1.102151)" stroke-width="0.907317">
  <!-- Generator: Adobe Illustrator 30.3.0, SVG Export Plug-In . SVG Version: 2.1.3 Build 182)  -->
  <defs>
    <style>
      .st0 {
        fill: none;
        stroke: #000;
        stroke-linecap: round;
        stroke-linejoin: round;
      }
    </style>
  </defs>
  <path class="st0" d="M5.44,22.74c.18-1.29.45-2.96.79-4.16,2.34-7.85,9.74-13.09,17.77-13.09h.03c8.01,0,15.44,5.24,17.77,13.09.3,1.01.58,2.79.78,4.16H5.44Z"/>
  <path class="st0" d="M11.58,22.74h-6.15c.18-1.29.45-2.96.79-4.16.27-.89.61-1.75.99-2.56.11,0,.22.02.34.03,1.56.25,2.65,1.73,2.38,3.3l-.2,1.15,1.12,1.12c.34.32.56.72.7,1.15l.03-.02h0Z"/>
  <path class="st0" d="M15.29,8.02v-.36c2.65-1.39,5.16-2.16,8.23-2.16h.35c.81.51,1.37,1.42,1.37,2.45s-.53,1.89-1.32,2.42l-6.18,4.49c-1.29.92-3.09.63-4.03-.63-.92-1.29-.63-3.09.63-4.03l.94-.68v-1.5h0Z"/>
  <path class="st0" d="M29.81,22.66c.27-.51.38-1.13.27-1.77-.22-1.4-1.5-2.4-2.92-2.4h-.86c-.67-1.1-2.4-1.39-4-.62-2.42,1.43-1.85,4.87-1.85,4.88s9.36-.08,9.36-.08h0Z"/>
  <path class="st0" d="M28.37,32.8c-1,1.31-2.57,2.16-4.35,2.16-1.88,0-3.55-.96-4.53-2.41"/>
  <path class="st0" d="M29.59,27.03c.55-.31,1.19-.48,1.86-.48s1.33.19,1.89.5"/>
  <path class="st0" d="M14.17,27.03c.55-.31,1.19-.48,1.86-.48s1.33.19,1.89.5"/>
  <path class="st0" d="M12.96,24.45c.7-.91,1.8-1.51,3.04-1.51,1.31,0,2.47.67,3.16,1.68"/>
  <path class="st0" d="M28.37,24.45c.7-.91,1.8-1.51,3.04-1.51,1.31,0,2.47.67,3.16,1.68"/>
  <path class="st0" d="M30.63,25.66c0,.46.36.83.83.83s.83-.36.83-.83-.36-.83-.83-.83-.83.36-.83.83Z"/>
  <path class="st0" d="M15.23,25.66c0,.46.36.83.83.83s.83-.36.83-.83-.36-.83-.83-.83-.83.36-.83.83Z"/>
  <path class="st0" d="M28.61,41.08c7.1-2.32,12.11-9.95,12.11-18.32H7.26c0,8.24,4.28,15.92,12.14,18.17"/>
  <path class="st0" d="M20.08,38.8h7.85c.38,0,.68.3.68.68h0v2.34c0,.38-.3.68-.68.68h-7.85c-.38,0-.68-.3-.68-.68h0v-2.34c0-.38.3-.68.68-.68h0Z"/>
  <path class="st0" d="M32.25,7.41l.04,7.85c0,2.94,1.65,3.52,3.02,3.42h1.75l.63.87c.85,1.2,2.53,1.46,3.71.59.25-.17.47-.4.63-.65l-.25-1.03h0"/>
</g></svg>