<?xml version="1.0" encoding="UTF-8"?><svg xmlns="http://www.w3.org/2000/svg" width="48" height="48" viewBox="0 0 48 48"><g  transform="translate(0.0000,0.0000) scale(1.000000)"><g transform="translate(0.0000,0.0000)"><g stroke-width="1.07805" transform="translate(2.2014,2.2014) scale(0.927602)">
  <desc>
    Module Streamline Icon: https://streamlinehq.com
  </desc>
  <path d="m3.5582916666666664 8.859499999999999 17.820833333333333 -6.987333333333333a5.749666666666666 5.749666666666666 0 0 1 4.2339166666666666 0l17.820833333333333 6.987333333333333a3.4525416666666664 3.4525416666666664 0 0 1 2.097375 3.2547499999999996v22.7715a3.4525416666666664 3.4525416666666664 0 0 1 -2.0895416666666664 3.2547499999999996l-17.820833333333333 6.9892916666666665a5.788833333333333 5.788833333333333 0 0 1 -4.2339166666666666 0l-17.820833333333333 -6.9892916666666665A3.4525416666666664 3.4525416666666664 0 0 1 1.46875 34.88575V12.11425a3.4525416666666664 3.4525416666666664 0 0 1 2.0895416666666664 -3.2547499999999996Z" fill="none" stroke="#000000" stroke-linecap="round" stroke-linejoin="round" stroke-width="1.07805"></path>
  <path d="M23.5 18.316291666666665 2.162 9.950291666666667" fill="none" stroke="#000000" stroke-linecap="round" stroke-linejoin="round" stroke-width="1.07805"></path>
  <path d="m23.5 18.316291666666665 21.338 -8.366" fill="none" stroke="#000000" stroke-linecap="round" stroke-linejoin="round" stroke-width="1.07805"></path>
  <path d="m23.5 45.53125 0 -27.214958333333332" fill="none" stroke="#000000" stroke-linecap="round" stroke-linejoin="round" stroke-width="1.07805"></path>
</g></g></g></svg>