<?xml version="1.0" encoding="UTF-8"?><svg id="Layer_2" xmlns="http://www.w3.org/2000/svg" viewBox="0 0 48 48"><g transform="translate(-1.8947,1.4500) scale(1.078947)" stroke-width="0.926829"><defs><style>.cls-1{fill:none;stroke:#000;stroke-linecap:round;stroke-linejoin:round;}</style></defs><circle class="cls-1" cx="8.29" cy="29.37" r="3.25"/><path class="cls-1" d="M19.24,25.68c-.03,1.79,1.41,3.27,3.2,3.3s3.27-1.41,3.3-3.2c0-.03,0-.06,0-.09.03-1.79-1.41-3.27-3.2-3.3-1.79-.03-3.27,1.41-3.3,3.2,0,.03,0,.06,0,.09Z"/><line class="cls-1" x1="25.73" y1="25.59" x2="25.73" y2="8.37"/><line class="cls-1" x1="11.54" y1="29.25" x2="11.54" y2="11.84"/><polygon class="cls-1" points="11.54 15.33 25.72 11.62 25.72 8.12 11.54 11.83 11.54 15.33"/><path class="cls-1" d="M22.26,36.59c-.03,1.79,1.41,3.27,3.2,3.3s3.27-1.41,3.3-3.2c0-.03,0-.06,0-.09.03-1.79-1.41-3.27-3.2-3.3-1.79-.03-3.27,1.41-3.3,3.2,0,.03,0,.06,0,.09Z"/><path class="cls-1" d="M36.46,32.9c0,1.79,1.45,3.25,3.25,3.25s3.25-1.45,3.25-3.25h0c0-1.8-1.45-3.25-3.25-3.25s-3.25,1.45-3.25,3.25h0Z"/><line class="cls-1" x1="42.95" y1="32.81" x2="42.95" y2="15.59"/><line class="cls-1" x1="28.76" y1="36.47" x2="28.76" y2="19.06"/><polygon class="cls-1" points="28.76 22.55 42.93 18.84 42.93 15.33 28.76 19.04 28.76 22.55"/></g></svg>