<?xml version="1.0" encoding="UTF-8"?><svg xmlns="http://www.w3.org/2000/svg" width="48" height="48" viewBox="0 0 48 48"><g  transform="translate(0.0000,0.0000) scale(1.000000)"><g transform="translate(0.0000,0.0000)"><g stroke-width="0.917269" transform="translate(-2.1602,-2.2705) scale(1.090192)"><path d="M31.27,25.49l11.5.02v4.56h.01c0,7.09-5.75,12.83-12.83,12.83h0s-11.97,0-11.97,0h.04c-7.22-.11-12.83-5.75-12.83-12.83h.01v-4.56l25.93-.05.14.02Z" fill="none" stroke="#000" stroke-linecap="round" stroke-linejoin="round"/><path d="M22.02,22.38c-1.52,0-2.76-1.23-2.76-2.76s1.23-2.76,2.76-2.76c-1.52,0-2.76-1.23-2.76-2.76s1.23-2.76,2.76-2.76h-.03" fill="none" stroke="#000" stroke-linecap="round" stroke-linejoin="round"/><path d="M28.7,18.95c-1.52,0-2.76-1.23-2.76-2.76s1.23-2.76,2.76-2.76c-1.52,0-2.76-1.23-2.76-2.76s1.23-2.76,2.76-2.76h-.03" fill="none" stroke="#000" stroke-linecap="round" stroke-linejoin="round"/></g></g></g></svg>