<?xml version="1.0" encoding="UTF-8"?><svg id="Layer_2" xmlns="http://www.w3.org/2000/svg" viewBox="0 0 48 48"><g transform="translate(-2.0317,-2.0317) scale(1.084656)" stroke-width="0.921951"><path d="M12.04,5.11h-3.25c-.56,0-1.02.45-1.02,1.02v9.05s0,.66,0,.66v1.78c0,6.61,2.26,12.68,6.05,17.5,4.08,5.53,10.08,7.77,10.08,7.77h0s6.19-2.24,10.26-7.77c3.79-4.82,6.05-10.89,6.05-17.5v-1.16.92V6.13c0-.57-.47-1.02-1.02-1.02H12.04Z" fill="none" stroke="#000" stroke-linecap="round" stroke-linejoin="round"/><path d="M24,31.38c5.16,0,9.36-4.19,9.36-9.36s-4.2-9.36-9.36-9.36h0c-5.17,0-9.36,4.19-9.36,9.36s4.19,9.36,9.36,9.36h0Z" fill="none" stroke="#000" stroke-linecap="round" stroke-linejoin="round"/><line x1="24" y1="17.99" x2="24" y2="12.84" fill="none" stroke="#000" stroke-linecap="round" stroke-linejoin="round"/><line x1="24" y1="25.55" x2="24" y2="30.93" fill="none" stroke="#000" stroke-linecap="round" stroke-linejoin="round"/><line x1="27.36" y1="19.78" x2="31.76" y2="17.24" fill="none" stroke="#000" stroke-linecap="round" stroke-linejoin="round"/><line x1="15.89" y1="26.4" x2="20.82" y2="23.56" fill="none" stroke="#000" stroke-linecap="round" stroke-linejoin="round"/><line x1="27.32" y1="23.71" x2="31.82" y2="26.29" fill="none" stroke="#000" stroke-linecap="round" stroke-linejoin="round"/><line x1="16.06" y1="17.24" x2="20.89" y2="20.01" fill="none" stroke="#000" stroke-linecap="round" stroke-linejoin="round"/><path d="M25.59,18.49h-3.18c-.27,0-.53.15-.67.38l-1.59,2.76c-.14.24-.14.53,0,.77l1.59,2.76c.14.24.39.38.67.38h3.18c.27,0,.53-.15.67-.38l1.59-2.76c.14-.24.14-.53,0-.77l-1.59-2.76c-.14-.24-.39-.38-.67-.38Z" fill="none" stroke="#000" stroke-linecap="round" stroke-linejoin="round"/></g></svg>