<?xml version="1.0" encoding="UTF-8"?><svg id="Layer_2" xmlns="http://www.w3.org/2000/svg" viewBox="0 0 48 48"><g transform="translate(-2.3102,-0.2273) scale(1.096257)" stroke-width="0.912195"><path d="M22.91,27.96l-4.8-4.8c-.69-.69-.69-1.81,0-2.5s1.81-.69,2.5,0l4.8,4.8c.69.69.69,1.81,0,2.5s-1.81.69-2.5,0Z" fill="none" stroke="#000" stroke-linecap="round" stroke-linejoin="round"/><path d="M18.44,23.49l-12.79,12.79c-.39.39-.37,1,.01,1.39l2.8,2.8c.39.39.99.39,1.38,0l12.79-12.79-4.2-4.2h.01Z" fill="none" stroke="#000" stroke-linecap="round" stroke-linejoin="round"/><path d="M36.89,11.88c0,.28-.11.55-.3.75h0l-1.79,1.72-10.19,10.19-3.12-3.12,9.66-9.66,2.3-2.23h0c.2-.2.46-.29.7-.3h0l3.06-.7h.05s.12.05.15.08.06.06.08.13v.08s-.61,3.07-.61,3.07h0Z" fill="none" stroke="#000" stroke-linecap="round" stroke-linejoin="round"/><path d="M41.93,14c-.43-.47-.73-1.08-.79-1.78,0-.02,0-.04,0-.06-.04-.43-.02-.85.08-1.23h0c.19-.93-.1-1.94-.85-2.62h-.01c-1.13-1.03-2.44-.59-3.9.2-.12.07-.23.16-.35.23l1.13-.26h.05s.12.05.15.08.06.06.08.13v.08s-.61,3.07-.61,3.07c0,.28-.11.55-.3.75l-1.79,1.72-7.87,7.87c.57.5,1.29.73,1.99.69.64-.03,1.28.26,1.81.71.02.01.03.03.05.04.27.23.52.48.71.76.18.26.4.5.65.72,0,0,.01.01.02.02,1.75,1.58,4.47,1.44,6.04-.32.79-.87,1.15-1.98,1.1-3.07v.03c-.03-.7,0-1.56.5-2.15.01-.02.03-.03.04-.04.27-.33.58-.59.91-.8h-.03c.35-.16.68-.39.98-.69.01-.01.03-.03.04-.04,1.18-1.16,1.08-3.11.19-4.02Z" fill="none" stroke="#000" stroke-linecap="round" stroke-linejoin="round"/></g></svg>