<?xml version="1.0" encoding="UTF-8"?><svg id="Layer_2" xmlns="http://www.w3.org/2000/svg" viewBox="0 0 48 48"><g transform="translate(-2.0317,-2.0317) scale(1.084656)" stroke-width="0.921951"><line x1="6.94" y1="19.78" x2="41.02" y2="19.78" fill="none" stroke="#000" stroke-linecap="round" stroke-linejoin="round"/><path d="M19.59,13.19v-.48h0v-5.44c0-1.19-.97-2.16-2.16-2.16s-2.16.97-2.16,2.16v5.95l4.31-.03h.01Z" fill="none" stroke="#000" stroke-linecap="round" stroke-linejoin="round"/><path d="M32.72,13.19v-.48h0v-5.44c0-1.19-.97-2.16-2.16-2.16s-2.16.97-2.16,2.16v5.95l4.31-.03h0Z" fill="none" stroke="#000" stroke-linecap="round" stroke-linejoin="round"/><path d="M40.14,10.29h-7.42v2.49h0v.48h0l-4.32.03v-3h-8.81v2.49h0v.48h0l-4.32.03v-3h-7.42c-.5,0-.9.4-.9.9v30.8c0,.5.4.9.9.9h32.29c.5,0,.9-.4.9-.9V11.19c0-.5-.4-.9-.9-.9h0Z" fill="none" stroke="#000" stroke-linecap="round" stroke-linejoin="round"/><circle cx="23.98" cy="31.73" r="2.14" fill="none" stroke="#000" stroke-linecap="round" stroke-linejoin="round"/><path d="M31.42,31.85c0-1.18-.96-2.14-2.14-2.14-.05,0-.1,0-.15,0,.37-.38.6-.9.6-1.48,0-1.18-.96-2.14-2.14-2.14-.57,0-1.09.22-1.47.59,0-.06,0-.12,0-.18,0-1.18-.96-2.14-2.14-2.14,0,0,0,0,0,0s0,0,0,0c-1.18,0-2.14.96-2.14,2.14,0,.06,0,.12,0,.18-.38-.36-.9-.59-1.47-.59-1.18,0-2.14.96-2.14,2.14,0,.57.23,1.09.6,1.48-.05,0-.1,0-.15,0-1.18,0-2.14.96-2.14,2.14s.9,2.07,2.02,2.13c-.38.39-.53,1.07-.53,1.65,0,1.18,1.11,2.17,2.25,2.06.61-.06,1.12-.19,1.51-.6,0,0,.19-.2.19-.19l.05-.15c0,.07-.01.13-.01.2,0,1.18.96,2.14,2.14,2.14s2.14-.96,2.14-2.14c0,0,0,0,0,0,.39.42.94.68,1.56.68,1.18,0,2.14-.96,2.14-2.14,0-.59-.24-1.12-.62-1.5,1.13-.06,2.02-.99,2.02-2.13Z" fill="none" stroke="#000" stroke-linecap="round" stroke-linejoin="round"/></g></svg>