<?xml version="1.0" encoding="UTF-8"?><svg xmlns="http://www.w3.org/2000/svg" width="33.4" height="48" viewBox="0 0 33.4 48"><g  transform="translate(0.0000,0.0000) scale(1.000000)"><g transform="translate(-7.3000,0.0000)"><g transform="translate(7.3000,0.0000) scale(1.000000)"><g transform="translate(-9.4702,-2.1702) scale(1.090426)" stroke-width="0.917073"><path d="M32.86,42.78h2.4c.41,0,.75-.33.75-.75v-18.12c0-4.89-1.67-9.38-4.48-12.95-3.02-4.09-7.46-5.75-7.46-5.75h0s-4.58,1.66-7.59,5.75c-2.8,3.57-4.48,8.06-4.48,12.95v.86-.68,17.94c0,.42.35.75.75.75h20.08Z" fill="none" stroke="#000" stroke-linecap="round" stroke-linejoin="round"/><path d="M19.58,10.99c2.59,3.28,4.19,7.37,4.42,11.82-.01.14-.13.24-.27.24l-.51.02h-.01s-10.39,0-10.39,0h-.02s-.51-.03-.51-.03c-.13,0-.24-.08-.26-.21.22-4.47,1.83-8.56,4.42-11.85.44-.6.94-.99,1.42-1.49l.25-.25c.49.5,1.01,1.14,1.45,1.74,2.59,3.28,4.19,7.37,4.42,11.82,0,0,0-.02,0-.04" fill="none" stroke="#000" stroke-linecap="round" stroke-linejoin="round"/><path d="M31.58,10.99c2.59,3.28,4.19,7.37,4.42,11.82-.01.14-.13.24-.27.24l-.51.02h-.01s-10.39,0-10.39,0h-.02s-.51-.03-.51-.03c-.13,0-.24-.08-.26-.21.22-4.47,1.83-8.56,4.42-11.85.44-.6.94-.99,1.42-1.49l.25-.25c.49.5,1.01,1.14,1.45,1.74,2.59,3.28,4.19,7.37,4.42,11.82,0,0,0-.02,0-.04" fill="none" stroke="#000" stroke-linecap="round" stroke-linejoin="round"/><path d="M17.49,30.87c-2.19,0-4.15.98-5.47,2.51v8.69c0,.4.33.72.72.72h11.28v-4.69c0-3.99-2.54-7.23-6.53-7.23Z" fill="none" stroke="#000" stroke-linecap="round" stroke-linejoin="round"/><path d="M12.02,33.38c1.33-1.54,3.28-2.51,5.47-2.51,3.55,0,5.95,2.57,6.43,5.96h.13s0-13.47,0-13.47c0-.16-.12-.28-.28-.28l-.51-.02h-.02s-11.27,0-11.27,0v13.67s.04,0,.04,0v-3.35Z" fill="none" stroke="#000" stroke-linecap="round" stroke-linejoin="round"/><path d="M30.55,30.87c2.19,0,4.15.98,5.47,2.51v8.69c0,.4-.33.72-.72.72h-11.28v-4.69c0-3.99,2.54-7.23,6.53-7.23Z" fill="none" stroke="#000" stroke-linecap="round" stroke-linejoin="round"/></g></g></g></g></svg>