<?xml version="1.0" encoding="UTF-8"?><svg xmlns="http://www.w3.org/2000/svg" width="48" height="48" viewBox="0 0 48 48"><g  transform="translate(0.0000,0.0000) scale(1.000000)"><g transform="translate(0.0000,0.0000)"><g transform="translate(0.0000,0.0000) scale(1.000000)"><g transform="translate(-2.2793,-2.2793) scale(1.090426)" stroke-width="0.917073"><rect x="12.3" y="12.31" width="23.52" height="23.52" rx=".85" ry=".85" transform="translate(0 48.14) rotate(-90)" fill="none" stroke="#000" stroke-linecap="round" stroke-linejoin="round"/><path d="M5.35,6.42c0-.58.47-1.06,1.06-1.06h3.96c.04,1.41,1.19,2.55,2.61,2.55s2.57-1.14,2.61-2.55h5.88c.04,1.41,1.19,2.55,2.61,2.55s2.57-1.14,2.61-2.55h5.88c.04,1.41,1.19,2.55,2.61,2.55s2.57-1.14,2.61-2.55h3.99c.58,0,1.06.47,1.06,1.06v3.96c-1.41.04-2.55,1.19-2.55,2.61s1.14,2.57,2.55,2.61v5.88c-1.41.04-2.55,1.19-2.55,2.61s1.14,2.57,2.55,2.61v5.88c-1.41.04-2.55,1.19-2.55,2.61s1.14,2.57,2.55,2.61l-.06,3.88c0,.58-.45,1.14-1.03,1.14h-3.96c-.04-1.41-1.19-2.55-2.61-2.55s-2.57,1.14-2.61,2.55h-5.88c-.04-1.41-1.19-2.55-2.61-2.55s-2.57,1.14-2.61,2.55h-5.88c-.04-1.41-1.19-2.55-2.61-2.55s-2.57,1.14-2.61,2.55h-3.99c-.58,0-1.06-.47-1.06-1.06v-3.96c1.41-.04,2.55-1.19,2.55-2.61s-1.14-2.57-2.55-2.61v-5.88c1.41-.04,2.55-1.19,2.55-2.61s-1.14-2.57-2.55-2.61v-5.88c1.41-.04,2.55-1.19,2.55-2.61s-1.14-2.57-2.55-2.61v-3.96c0-.59.47-1.06,1.06-1.06" fill="none" stroke="#000" stroke-linecap="round" stroke-linejoin="round"/></g></g></g></g></svg>