<?xml version="1.0" encoding="UTF-8"?><svg id="Layer_2" xmlns="http://www.w3.org/2000/svg" viewBox="0 0 64 64"><g transform="translate(-4.2842,3.0616) scale(1.509756)" stroke-width="0.883145"><polygon points="37.65 16.04 39.95 16.04 39.98 37.88 37.69 37.88 37.66 16.04 37.65 16.04" fill="none" stroke="#000" stroke-linecap="round" stroke-linejoin="round"/><polygon points="8.07 16.04 10.37 16.04 10.39 37.88 8.1 37.88 8.08 16.04 8.07 16.04" fill="none" stroke="#000" stroke-linecap="round" stroke-linejoin="round"/><path d="M24.03,30.35h-8.28v-6.14c0-.35.29-.65.65-.65h9.69" fill="none" stroke="#000" stroke-linecap="round" stroke-linejoin="round"/><polygon points="14.76 32.89 16.05 32.89 16.07 37.92 14.78 37.92 14.76 32.89 14.76 32.89" fill="none" stroke="#000" stroke-linecap="round" stroke-linejoin="round"/><path d="M24.49,30.36h-9.22c-.68,0-1.22.54-1.22,1.22h0v-.05.7c0,.36.3.65.65.65h10.37" fill="none" stroke="#000" stroke-linecap="round" stroke-linejoin="round"/><path d="M26.08,23.57l5.57.06c.35,0,.65.29.65.65h0v6.08h-8.28" fill="none" stroke="#000" stroke-linecap="round" stroke-linejoin="round"/><polygon points="32.06 32.89 33.36 32.89 33.37 37.92 32.08 37.92 32.07 32.89 32.06 32.89" fill="none" stroke="#000" stroke-linecap="round" stroke-linejoin="round"/><path d="M22.98,32.87h10.37c.36,0,.65-.3.65-.65v-.64h0c0-.68-.54-1.22-1.22-1.22" fill="none" stroke="#000" stroke-linecap="round" stroke-linejoin="round"/><path d="M32.77,30.36h-9.22" fill="none" stroke="#000" stroke-linecap="round" stroke-linejoin="round"/><path d="M40.07,10.57H7.94c-1.48,0-2.66,1.18-2.66,2.66h0v-.11,1.52c0,.79.02,1.42.79,1.42h36.05c.79,0,.63-.65.63-1.42v-1.39h-.02c0-1.49-1.18-2.67-2.66-2.67" fill="none" stroke="#000" stroke-linecap="round" stroke-linejoin="round"/></g></svg>