<?xml version="1.0" encoding="UTF-8"?><svg xmlns="http://www.w3.org/2000/svg" width="48" height="48" viewBox="0 0 48 48"><g  transform="translate(0.0000,0.0000) scale(1.000000)"><g transform="translate(0.0000,0.0000)"><g transform="translate(0.0000,0.0000) scale(1.000000)"><g transform="translate(-2.0317,-2.2487) scale(1.084656)" stroke-width="0.921951"><path d="M24.03,43.05c10.41,0,18.86-8.44,18.86-18.86S34.43,5.33,24.03,5.33h0C13.61,5.33,5.16,13.78,5.16,24.19s8.45,18.86,18.86,18.86h.01Z" fill="none" stroke="#000" stroke-linecap="round" stroke-linejoin="round"/><path d="M20.85,5.63c1.01.23,2.37,2.26,2.37,3.55,0,1.14-.49,2.11-1.33,2.74l-6.58,5.27c-1.37,1.08-3.05,1.59-4.15.25-1.08-1.37-1.02-3.23.32-4.33l1.16-.94-.4-2.39h.01v-.31" fill="none" stroke="#000" stroke-linecap="round" stroke-linejoin="round"/><path d="M30.58,41.77c-.95-.41-1.75-1.19-2.15-2.23l-.6-1.52c-1.31.82-5.39.33-6.76-1.03-1.21-1.19-1.72-2.75-1.48-4.3l1.39-12.5c.31-2.6,2.66-4.46,5.24-4.21,2.6.31,4.46,2.66,4.21,5.24l-.21,1.9,1.4,2.07h0s5.83,7.92,5.83,7.92c.7,1.19.96,2.27.93,3.22" fill="none" stroke="#000" stroke-linecap="round" stroke-linejoin="round"/><path d="M5.53,27.97c.94-3.59,4.46-3.46,6.09-2.84,1.38.58,2.02,2.19,1.41,3.56l-.44,1c1.01.23,2.71,2.4,2.71,3.69,0,1.14-.49,2.11-1.33,2.74l-2.6,2.08" fill="none" stroke="#000" stroke-linecap="round" stroke-linejoin="round"/><path d="M32.58,7.72l.04,7.85c0,2.94,1.65,3.52,3.02,3.42h1.75l.63.87c.85,1.2,2.53,1.46,3.71.59.25-.17.47-.4.63-.65l-.25-1.03h0" fill="none" stroke="#000" stroke-linecap="round" stroke-linejoin="round"/><path d="M28.83,27.54c0-1.45-1.18-2.63-2.63-2.63s-2.63,1.18-2.63,2.63c0,.48.16.93.36,1.33l2.27,4.47,2.29-4.52c.21-.38.33-.81.33-1.28h0Z" fill="none" stroke="#000" stroke-linecap="round" stroke-linejoin="round"/><path d="M25.37,27.43c0,.46.36.83.83.83s.83-.36.83-.83-.36-.83-.83-.83-.83.36-.83.83Z" fill="none" stroke="#000" stroke-linecap="round" stroke-linejoin="round"/></g></g></g></g></svg>