<?xml version="1.0" encoding="UTF-8"?><svg id="Layer_2" xmlns="http://www.w3.org/2000/svg" viewBox="0 0 48 48"><g transform="translate(-2.5456,-1.1166) scale(1.099196)" stroke-width="0.909756"><path d="M5.5,32.3l.07-24.96c0-.69.56-1.27,1.27-1.28l34.52-.14c.69,0,1.27.56,1.28,1.27l.07,32.98c0,.69-.56,1.27-1.27,1.28h-2.78s-25.95-.03-25.95-.03" fill="none" stroke="#000" stroke-linecap="round" stroke-linejoin="round"/><line x1="12.71" y1="41.42" x2="5.56" y2="32.41" fill="none" stroke="#000" stroke-linecap="round" stroke-linejoin="round"/><polyline points="12.62 41.14 12.62 32.73 5.88 32.69 5.86 32.69" fill="none" stroke="#000" stroke-linecap="round" stroke-linejoin="round"/><path d="M26.9,27.4c-.63.83-1.63,1.37-2.75,1.37-1.19,0-2.24-.6-2.87-1.52" fill="none" stroke="#000" stroke-linecap="round" stroke-linejoin="round"/><path d="M16.6,21.85c.63-.83,1.63-1.37,2.75-1.37,1.19,0,2.24.6,2.87,1.52" fill="none" stroke="#000" stroke-linecap="round" stroke-linejoin="round"/><path d="M25.94,21.83c.63-.83,1.63-1.37,2.75-1.37,1.19,0,2.24.6,2.87,1.52" fill="none" stroke="#000" stroke-linecap="round" stroke-linejoin="round"/><circle cx="24.08" cy="23.73" r="10.5" fill="none" stroke="#000" stroke-linecap="round" stroke-linejoin="round"/></g></svg>