<?xml version="1.0" encoding="UTF-8"?><svg xmlns="http://www.w3.org/2000/svg" width="48" height="48" viewBox="0 0 48 48"><g  transform="translate(0.0000,0.0000) scale(1.000000)"><g transform="translate(0.0000,0.0000)"><g transform="translate(-2.2430,-1.9185) scale(1.082017)"><path d="M28.96,26.37v-4.74c0-.87.77-1.43,1.63-1.43s1.58.71,1.58,1.58v4.47c.02,5.69-3.55,10.32-7.92,10.32s-7.89-4.62-7.89-10.32v-4.47c0-.87.71-1.58,1.58-1.58s1.58.71,1.58,1.58v4.93l-.03-11.3c0-.87.71-1.58,1.58-1.58s1.58.71,1.58,1.58v10.32l-.02-3.12v-10c0-.87.71-1.58,1.58-1.58s1.58.71,1.58,1.58v12.79s0-10.05,0-10.05c0-.87.71-1.58,1.58-1.58s1.58.71,1.58,1.58v11.69-.66Z" fill="none" stroke="#000" stroke-linecap="round" stroke-linejoin="round" stroke-width="0.9242"/><path d="M31.71,5.12h-14.9c-.23,0-.45.09-.61.25L5.66,15.91c-.16.16-.25.38-.25.61v14.9c0,.23.09.45.25.61l10.54,10.54c.16.16.38.25.61.25h14.9c.23,0,.45-.09.61-.25l10.54-10.54c.16-.16.25-.38.25-.61v-14.9c0-.23-.09-.45-.25-.61l-10.54-10.54c-.16-.16-.38-.25-.61-.25Z" fill="none" stroke="#000" stroke-linecap="round" stroke-linejoin="round"/></g></g></g></svg>