<?xml version="1.0" encoding="UTF-8"?><svg xmlns="http://www.w3.org/2000/svg" width="37.2" height="48" viewBox="0 0 37.2 48"><g  transform="translate(0.0000,0.0000) scale(1.000000)"><g transform="translate(-5.4000,0.0000)"><g transform="translate(5.4000,0.0000) scale(1.000000)"><g transform="translate(-7.1329,-2.0026) scale(1.078947)" stroke-width="0.926829"><line x1="15.24" y1="27.88" x2="29.98" y2="27.88" fill="none" stroke="#000" stroke-linecap="round" stroke-linejoin="round"/><path d="M30.01,14.62v6.16c0,.55-.44.99-.99.99h-12.91c-.55,0-.99-.44-.99-.99v-5.57.31-2.42c0-.55.44-.99.99-.99h12.91c.55,0,.99.44.99.99v1.83-.31h0Z" fill="none" stroke="#000" stroke-linecap="round" stroke-linejoin="round"/><path d="M34.82,11.71v-5.57c0-.55.38-.98.93-.98h1.06c.55,0,.99.45.99.99v26.49-.31h0v6.16c0,.55-.44.99-.99.99h-1c-.55-.01-.99-.45-.99-1V11.41" fill="none" stroke="#000" stroke-linecap="round" stroke-linejoin="round"/><path d="M35.8,39.47c-.55,0-.99-.44-.99-.99V6.14c0-.5.38-.91.86-.98H10.89c-.55,0-.99.44-.99.99v32.35c0,.55.44.99.99.99h25.89s0,0,0,0h-.98Z" fill="none" stroke="#000" stroke-linecap="round" stroke-linejoin="round"/><path d="M13.33,39.49v3.56l1.11-1.37s.06-.03.09,0l1.12,1.37v-3.56h-2.32Z" fill="none" stroke="#000" stroke-linecap="round" stroke-linejoin="round"/></g></g></g></g></svg>