<?xml version="1.0" encoding="UTF-8"?>
<svg id="Layer_2" xmlns="http://www.w3.org/2000/svg" version="1.1" viewBox="0 0 64 64"><g transform="translate(-11.1902,-11.1928) scale(1.799600)" stroke-width="0.740905">
  <!-- Generator: Adobe Illustrator 30.3.0, SVG Export Plug-In . SVG Version: 2.1.3 Build 182)  -->
  <defs>
    <style>
      .st0 {
        fill: none;
        stroke: #000;
        stroke-linecap: round;
        stroke-linejoin: round;
      }
    </style>
  </defs>
  <path class="st0" d="M23.77,8.3c-.45.01-3.97-.11-5.71.47h.02c-.29.08-.58.17-.87.3-.98.46-1.97,1.34-2.54,2.09h0c-1.13,1.59-2,5.5-2,5.5,0,0,3.85.2,5.7-.43.29-.09.58-.18.87-.31.33-.15.65-.35.96-.58,0,.39.03.78.11,1.13.06.31.17.6.27.89.6,1.86,3.05,4.84,3.05,4.84,0,0,2.62-3.03,3.22-4.88h0c.17-.59.28-1.38.27-2.15.38.3.79.57,1.2.76.29.14.58.23.87.31,1.86.62,5.7.43,5.7.43,0,0-.87-3.91-2-5.5h0c-.57-.75-1.56-1.63-2.54-2.09-.29-.14-.85-.3-.85-.3-1.02-.38-5.76-.47-5.76-.47h.03Z"/>
  <circle class="st0" cx="14.83" cy="19.16" r="1.21"/>
  <circle class="st0" cx="32.8" cy="26.79" r="1.21"/>
  <circle class="st0" cx="22.39" cy="26.9" r="1.21"/>
  <path class="st0" d="M11.97,27.76c.02-.07.05-.13.08-.19.06-.12.14-.23.24-.32.07-.07.15-.12.23-.17.29-.17.64-.22.98-.11.64.2.99.89.78,1.52-.21.63-.89.99-1.52.78"/>
  <circle class="st0" cx="24.85" cy="35.8" r="1.21"/>
  <path class="st0" d="M31.73,16.82c0,.67-.54,1.21-1.21,1.21s-1.21-.54-1.21-1.21"/>
  <path class="st0" d="M32.97,11.14l.02-.02h-.03c1.13,1.59,2,5.5,2,5.5,0,0-3.85.2-5.7-.43-.29-.09-.58-.18-.87-.31-.41-.19-.82-.46-1.2-.76,0,.77-.1,1.56-.27,2.16h0c-.61,1.85-3.22,4.88-3.22,4.88,0,0-2.45-2.97-3.05-4.84-.1-.28-.21-.57-.27-.89-.07-.36-.11-.74-.11-1.13-.31.23-.64.43-.96.58-.29.14-.58.23-.87.31-1.86.62-5.7.43-5.7.43,0,0,.73-3.24,1.71-5.02h0c-2.54,1.32-4.17,3.05-4.25,6.93h0c0,5.7,1.95,10.94,5.22,15.1,1.84,2.49,4.12,4.2,5.89,5.28,1.73,1.05,3.89,1.06,5.64.03,1.82-1.07,4.17-2.8,6.02-5.31l-.03.05c3.27-4.16,5.12-9.06,4.82-14.71h0c-.42-4.5-2.26-6.51-4.8-7.83"/>
</g></svg>