<?xml version="1.0" encoding="UTF-8"?><svg xmlns="http://www.w3.org/2000/svg" width="48" height="48" viewBox="0 0 48 48"><g  transform="translate(0.0000,0.0000) scale(1.000000)"><g transform="translate(0.0000,0.0000)"><g stroke-width="1.07805" transform="translate(2.2014,2.2014) scale(0.927602)">
  <desc>
    Street Light Streamline Icon: https://streamlinehq.com
  </desc>
  <path d="m1.46875 45.53125 44.0625 0" fill="none" stroke="#000000" stroke-linecap="round" stroke-linejoin="round" stroke-width="1.07805"></path>
  <path d="M14.6875 7.34375H5.875A1.46875 1.46875 0 0 1 4.40625 5.875V2.9375A1.46875 1.46875 0 0 1 5.875 1.46875h10.28125V5.875a1.46875 1.46875 0 0 1 -1.46875 1.46875Z" fill="none" stroke="#000000" stroke-linecap="round" stroke-linejoin="round" stroke-width="1.07805"></path>
  <path d="M23.5 33.78125 23.5 8.8125" fill="none" stroke="#000000" stroke-linecap="round" stroke-linejoin="round" stroke-width="1.07805"></path>
  <path d="M23.5 8.8125A7.34375 7.34375 0 0 0 16.15625 1.46875" fill="none" stroke="#000000" stroke-linecap="round" stroke-linejoin="round" stroke-width="1.07805"></path>
  <path d="M32.3125 7.34375H41.125a1.46875 1.46875 0 0 0 1.46875 -1.46875V2.9375A1.46875 1.46875 0 0 0 41.125 1.46875h-10.28125V5.875a1.46875 1.46875 0 0 0 1.46875 1.46875Z" fill="none" stroke="#000000" stroke-linecap="round" stroke-linejoin="round" stroke-width="1.07805"></path>
  <path d="M23.5 8.8125A7.34375 7.34375 0 0 1 30.84375 1.46875" fill="none" stroke="#000000" stroke-linecap="round" stroke-linejoin="round" stroke-width="1.07805"></path>
  <path d="m13.21875 13.21875 0 2.9375" fill="none" stroke="#000000" stroke-linecap="round" stroke-linejoin="round" stroke-width="1.07805"></path>
  <path d="m4.40625 13.21875 -2.9375 2.9375" fill="none" stroke="#000000" stroke-linecap="round" stroke-linejoin="round" stroke-width="1.07805"></path>
  <path d="m33.78125 13.21875 0 2.9375" fill="none" stroke="#000000" stroke-linecap="round" stroke-linejoin="round" stroke-width="1.07805"></path>
  <path d="m42.59375 13.21875 2.9375 2.9375" fill="none" stroke="#000000" stroke-linecap="round" stroke-linejoin="round" stroke-width="1.07805"></path>
  <path d="m30.84375 45.53125 -14.6875 0 2.9375 -11.75 8.8125 0 2.9375 11.75z" fill="none" stroke="#000000" stroke-linecap="round" stroke-linejoin="round" stroke-width="1.07805"></path>
</g></g></g></svg>