<?xml version="1.0" encoding="UTF-8"?><svg id="Layer_2" xmlns="http://www.w3.org/2000/svg" viewBox="0 0 64 64"><g transform="translate(-3.9424,0.4116) scale(1.501768)" stroke-width="0.887842"><path d="M17.25,32.33c.07,1.35,1.22,2.38,2.57,2.31,1.35-.07,2.38-1.22,2.31-2.57v-.02c-.07-1.35-1.22-2.38-2.57-2.31-1.35.07-2.38,1.22-2.31,2.57v.02Z" fill="none" stroke="#000" stroke-linecap="round" stroke-linejoin="round"/><path d="M18.22,13.85l-.04-3.2c0-.24.22-.44.5-.44h.97s9.01.03,9.01.03c.27,0,.5.2.5.44h0v3.15h2.41s0-5.38,0-5.38h0c0-.37-.3-.66-.66-.66h-13.04s-1.48,0-1.48,0c-.37,0-.66.3-.66.66l.05,5.4h2.44Z" fill="none" stroke="#000" stroke-linecap="round" stroke-linejoin="round"/><path d="M42.78,31.83v7.37c0,.36-.29.66-.66.66H5.73c-.36,0-.66-.29-.66-.66V14.52c0-.36.3-.66.67-.66h36.39c.36,0,.66.29.66.66v17.31h0Z" fill="none" stroke="#000" stroke-linecap="round" stroke-linejoin="round"/><path d="M31.87,22.62l-.64,1.66c-.03.08-.12.12-.21.09l-8.22-3.16c-.08-.03-.12-.12-.09-.21l.86-2.24.58-1.51c.03-.08.12-.12.21-.09l8.22,3.16c.08.03.12.12.09.21l-.8,2.09h0Z" fill="none" stroke="#000" stroke-linecap="round" stroke-linejoin="round"/><rect x="9.28" y="13.9" width="2.59" height="25.98" fill="none" stroke="#000" stroke-linecap="round" stroke-linejoin="round"/><rect x="35.91" y="13.9" width="2.59" height="25.98" fill="none" stroke="#000" stroke-linecap="round" stroke-linejoin="round"/></g></svg>