<?xml version="1.0" encoding="UTF-8"?>
<svg id="Layer_1" xmlns="http://www.w3.org/2000/svg" version="1.1" viewBox="0 0 48 48"><g transform="translate(-2.0317,-2.0317) scale(1.084656)" stroke-width="0.921951">
  <!-- Generator: Adobe Illustrator 30.3.0, SVG Export Plug-In . SVG Version: 2.1.3 Build 182)  -->
  <defs>
    <style>
      .st0 {
        fill: none;
        stroke: #000;
        stroke-linecap: round;
        stroke-linejoin: round;
      }
    </style>
  </defs>
  <g id="Layer_2">
    <line class="st0" x1="6.96" y1="19.78" x2="41.04" y2="19.78"/>
    <path class="st0" d="M19.6,13.19v-.48h0v-5.44c0-1.19-.97-2.16-2.16-2.16s-2.16.97-2.16,2.16v5.95l4.31-.03h.01Z"/>
    <path class="st0" d="M32.73,13.19v-.48h0v-5.44c0-1.19-.97-2.16-2.16-2.16s-2.16.97-2.16,2.16v5.95l4.31-.03h0Z"/>
    <path class="st0" d="M40.15,10.29h-7.42v2.49h0v.48h0l-4.32.03v-3h-8.81v2.49h0v.48h0l-4.32.03v-3h-7.42c-.5,0-.9.4-.9.9v30.8c0,.5.4.9.9.9h32.29c.5,0,.9-.4.9-.9V11.19c0-.5-.4-.9-.9-.9h0Z"/>
    <circle class="st0" cx="24.11" cy="31.22" r="3.59"/>
    <path class="st0" d="M27.46,29.82c.14.45.22.93.22,1.43s-.08,1-.23,1.46l4.4-1.34-4.39-1.56h0Z"/>
    <path class="st0" d="M22.63,27.87c.46-.15.93-.22,1.44-.22s.97.08,1.42.21h.02l-1.43-4.11-1.47,4.12s.02,0,.02,0Z"/>
    <path class="st0" d="M20.67,29.92c.44-.85,1.13-1.56,1.97-2.01l.08-.04-3.95-1.93,1.9,3.98h0Z"/>
    <path class="st0" d="M20.78,32.7c-.15-.46-.22-.93-.22-1.44s.06-.97.22-1.44h0l-4.49,1.42,4.49,1.47h0Z"/>
    <path class="st0" d="M22.62,34.66c-.88-.46-1.57-1.17-2.02-2.06l-1.88,3.91,3.92-1.84h-.02Z"/>
    <path class="st0" d="M25.54,34.59c-.45.14-.93.22-1.43.22-.53,0-.97-.06-1.45-.22h-.02l1.44,4.05,1.45-4,.02-.04h-.01Z"/>
    <path class="st0" d="M25.4,34.75l4.1,2.13-2.04-4.17h0c-.46.88-1.16,1.58-2.04,2.03h-.02Z"/>
    <path class="st0" d="M25.47,27.83c.87.45,1.59,1.17,2.04,2.03l.02-.04,2.32-4.18-4.38,2.19h0Z"/>
  </g>
</g></svg>