<?xml version="1.0" encoding="UTF-8"?><svg xmlns="http://www.w3.org/2000/svg" width="48" height="48" viewBox="0 0 48 48"><g  transform="translate(0.0000,0.0000) scale(1.000000)"><g transform="translate(0.0000,0.0000)"><g transform="translate(0.0000,0.0000) scale(1.000000)"><g transform="translate(-1.8947,9.9737) scale(1.078947)" stroke-width="0.926829"><line x1="17.43" y1="16.06" x2="28.43" y2="16.06" fill="none" stroke="#000" stroke-linecap="round" stroke-linejoin="round"/><path d="M20.9,24v-7.32c0-.34-.28-.62-.62-.62h-.07.07-7.31c-4.37,0-7.94,3.56-7.94,7.94,0,4.37,3.56,7.94,7.94,7.94s7.94-3.56,7.94-7.94Z" fill="none" stroke="#000" stroke-linecap="round" stroke-linejoin="round"/><path d="M35.05,31.93c4.37,0,7.94-3.56,7.94-7.94,0-4.37-3.56-7.94-7.94-7.94h-7.31s.07,0,.07,0h-.07c-.34,0-.62.28-.62.62v7.32c0,4.37,3.56,7.94,7.94,7.94Z" fill="none" stroke="#000" stroke-linecap="round" stroke-linejoin="round"/></g></g></g></g></svg>