<?xml version="1.0" encoding="UTF-8"?><svg id="Layer_2" xmlns="http://www.w3.org/2000/svg" viewBox="0 0 48 48"><g transform="translate(-1.7592,2.6414) scale(1.073298)" stroke-width="0.931707"><line x1="4.96" y1="28.58" x2="42.85" y2="28.58" fill="none" stroke="#000" stroke-linecap="round" stroke-linejoin="round"/><path d="M35.32,28.55c0-6.21-5.08-11.25-11.29-11.25s-11.24,5.03-11.24,11.24" fill="none" stroke="#000" stroke-linecap="round" stroke-linejoin="round"/><path d="M43.03,28.53l-8.23-3.35h0c.34,1.08.47,1.83.47,3.01" fill="none" stroke="#000" stroke-linecap="round" stroke-linejoin="round"/><path d="M20.69,17.85c1.08-.35,2.19-.52,3.39-.52s2.29.18,3.34.5l.05.02-3.37-8.22-3.46,8.23h.05Z" fill="none" stroke="#000" stroke-linecap="round" stroke-linejoin="round"/><path d="M14.21,23.1c1.04-2.01,2.53-3.33,4.51-4.41l.19-.1-8.22-3.46,3.28,8.03h0l.24-.06Z" fill="none" stroke="#000" stroke-linecap="round" stroke-linejoin="round"/><path d="M12.67,28.57c0-1.19.15-2.29.52-3.41h0l-8.24,3.36" fill="none" stroke="#000" stroke-linecap="round" stroke-linejoin="round"/><path d="M29.23,18.58c2.05,1.06,3.75,2.75,4.82,4.8l.04-.09,3.41-8.08-8.26,3.37h-.01Z" fill="none" stroke="#000" stroke-linecap="round" stroke-linejoin="round"/><path d="M7.41,34.74c0-1.52,1.23-2.76,2.76-2.76s2.76,1.23,2.76,2.76c0-1.52,1.23-2.76,2.76-2.76s2.76,1.23,2.76,2.76v-.03l.11.03c0-1.52,1.23-2.76,2.76-2.76s2.76,1.23,2.76,2.76c0-1.52,1.23-2.76,2.76-2.76s2.76,1.23,2.76,2.76v-.03" fill="none" stroke="#000" stroke-linecap="round" stroke-linejoin="round"/><path d="M29.55,34.74c0-1.52,1.23-2.76,2.76-2.76s2.76,1.23,2.76,2.76c0-1.52,1.23-2.76,2.76-2.76s2.76,1.23,2.76,2.76v-.03l.11.03" fill="none" stroke="#000" stroke-linecap="round" stroke-linejoin="round"/><path d="M7.41,38.94c0-1.52,1.23-2.76,2.76-2.76s2.76,1.23,2.76,2.76c0-1.52,1.23-2.76,2.76-2.76s2.76,1.23,2.76,2.76v-.03l.11.03c0-1.52,1.23-2.76,2.76-2.76s2.76,1.23,2.76,2.76c0-1.52,1.23-2.76,2.76-2.76s2.76,1.23,2.76,2.76v-.03" fill="none" stroke="#000" stroke-linecap="round" stroke-linejoin="round"/><path d="M29.55,38.94c0-1.52,1.23-2.76,2.76-2.76s2.76,1.23,2.76,2.76c0-1.52,1.23-2.76,2.76-2.76s2.76,1.23,2.76,2.76v-.03l.11.03" fill="none" stroke="#000" stroke-linecap="round" stroke-linejoin="round"/></g></svg>