<?xml version="1.0" encoding="UTF-8"?><svg id="Layer_2" xmlns="http://www.w3.org/2000/svg" viewBox="0 0 48 48"><g transform="translate(-1.9090,-1.9090) scale(1.081794)" stroke-width="0.924390"><path d="M30.07,35.95c0,3.8-2.74,6.88-6.12,6.88s-6.12-3.08-6.12-6.88,6.12-12.7,6.12-12.7c0,0,6.11,8.9,6.11,12.7Z" fill="none" stroke="#000" stroke-linecap="round" stroke-linejoin="round"/><path d="M21.39,20.52c-1.63,0-2.95-1.32-2.95-2.95s1.32-2.95,2.95-2.95c-1.63,0-2.95-1.32-2.95-2.95s1.32-2.95,2.95-2.95h-.03" fill="none" stroke="#000" stroke-linecap="round" stroke-linejoin="round"/><path d="M28.54,16.85c-1.63,0-2.95-1.32-2.95-2.95s1.32-2.95,2.95-2.95c-1.63,0-2.95-1.32-2.95-2.95s1.32-2.95,2.95-2.95h-.03" fill="none" stroke="#000" stroke-linecap="round" stroke-linejoin="round"/></g></svg>