<?xml version="1.0" encoding="UTF-8"?><svg id="Layer_2" xmlns="http://www.w3.org/2000/svg" viewBox="0 0 64 64"><g transform="translate(-3.9473,-4.0735) scale(1.497806)" stroke-width="0.890191"><path d="M14.89,26.25c-1.23,0-2.23,1-2.23,2.23,0,.01,0,.03,0,.04v7.12s0,3.6,0,3.61c0,1.23,1,2.23,2.23,2.23s2.21-.98,2.23-2.2v-2.23s0-8.58,0-8.58c0-1.23-1-2.23-2.23-2.23Z" fill="none" stroke="#000" stroke-linecap="round" stroke-linejoin="round"/><path d="M11.27,37.36s0,1.99,0,2.01c0,1.97,1.6,3.57,3.57,3.57s3.55-1.58,3.57-3.53v-2.05" fill="none" stroke="#000" stroke-linecap="round" stroke-linejoin="round"/><path d="M20.29,8.85c-.67,0-1.29.3-1.77.83.05-.23.07-.48.07-.72,0-2.12-1.73-3.83-3.86-3.79-1.86.03-3.46,1.46-3.7,3.31-.06.43-.04.84.04,1.24-.48-.54-1.11-.86-1.8-.85-1.52.02-2.73,1.64-2.72,3.61v7.67c.01,5.11,1.2,10.15,3.48,14.73l1.24,2.5h1.35v-8.77s0-.03,0-.04c0-1.25,1.02-2.27,2.27-2.27s2.27,1.02,2.27,2.27v8.81h1.12l1.24-2.5c2.27-4.58,3.46-9.62,3.47-14.73v-7.6s0-.04,0-.07c.01-1.97-1.2-3.59-2.72-3.61Z" fill="none" stroke="#000" stroke-linecap="round" stroke-linejoin="round"/><line x1="11.53" y1="13.73" x2="11.53" y2="24.89" fill="none" stroke="#000" stroke-linecap="round" stroke-linejoin="round"/><line x1="18.4" y1="13.73" x2="18.4" y2="24.89" fill="none" stroke="#000" stroke-linecap="round" stroke-linejoin="round"/><line x1="14.9" y1="9.24" x2="14.9" y2="20.39" fill="none" stroke="#000" stroke-linecap="round" stroke-linejoin="round"/><path d="M33.37,26.25c-1.23,0-2.23,1-2.23,2.23,0,.01,0,.03,0,.04v7.12s0,3.6,0,3.61c0,1.23,1,2.23,2.23,2.23s2.21-.98,2.23-2.2v-2.23s0-8.58,0-8.58c0-1.23-1-2.23-2.23-2.23Z" fill="none" stroke="#000" stroke-linecap="round" stroke-linejoin="round"/><path d="M29.75,37.36s0,1.99,0,2.01c0,1.97,1.6,3.57,3.57,3.57s3.55-1.58,3.57-3.53v-2.05" fill="none" stroke="#000" stroke-linecap="round" stroke-linejoin="round"/><path d="M38.76,8.85c-.67,0-1.29.3-1.77.83.05-.23.07-.48.07-.72,0-2.12-1.73-3.83-3.86-3.79-1.86.03-3.46,1.46-3.7,3.31-.06.43-.04.84.04,1.24-.48-.54-1.11-.86-1.8-.85-1.52.02-2.73,1.64-2.72,3.61v7.67c.01,5.11,1.2,10.15,3.48,14.73l1.24,2.5h1.35v-8.77s0-.03,0-.04c0-1.25,1.02-2.27,2.27-2.27s2.27,1.02,2.27,2.27v8.81h1.12l1.24-2.5c2.27-4.58,3.46-9.62,3.47-14.73v-7.6s0-.04,0-.07c.01-1.97-1.2-3.59-2.72-3.61Z" fill="none" stroke="#000" stroke-linecap="round" stroke-linejoin="round"/><line x1="30" y1="13.73" x2="30" y2="24.89" fill="none" stroke="#000" stroke-linecap="round" stroke-linejoin="round"/><line x1="36.88" y1="13.73" x2="36.88" y2="24.89" fill="none" stroke="#000" stroke-linecap="round" stroke-linejoin="round"/><line x1="33.38" y1="9.24" x2="33.38" y2="20.39" fill="none" stroke="#000" stroke-linecap="round" stroke-linejoin="round"/></g></svg>