<?xml version="1.0" encoding="UTF-8"?><svg id="Layer_2" xmlns="http://www.w3.org/2000/svg" viewBox="0 0 64 64"><g transform="translate(-3.9788,-1.7302) scale(1.499118)" stroke-width="0.889412"><defs><style>.cls-1{fill:none;stroke:#000;stroke-linecap:round;stroke-linejoin:round;}</style></defs><polygon class="cls-1" points="32.06 6.45 34.36 6.45 42.84 41.37 40.55 41.37 32.07 6.45 32.06 6.45"/><polygon class="cls-1" points="35.61 11.16 35 9 38.11 9 38.11 11.16 35.61 11.16"/><polyline class="cls-1" points="14.86 6.45 15.94 6.45 15.93 6.45 7.45 41.37 5.16 41.37 13.64 6.45 14.86 6.45"/><polygon class="cls-1" points="9.89 11.16 9.89 9 13 9 12.44 11.16 9.89 11.16"/><polygon class="cls-1" points="14.82 11.16 33.22 11.17 32.63 9 15.38 8.99 14.82 11.16"/><line class="cls-1" x1="16.64" y1="9.09" x2="15.24" y2="32.43"/><line class="cls-1" x1="31.36" y1="9.05" x2="32.76" y2="32.43"/><rect class="cls-1" x="18.08" y="22.08" width="11.72" height="10.26"/><line class="cls-1" x1="12.88" y1="32.43" x2="35" y2="32.43"/></g></svg>