<?xml version="1.0" encoding="UTF-8"?><svg xmlns="http://www.w3.org/2000/svg" width="48" height="48" viewBox="0 0 48 48"><g  transform="translate(0.0000,0.0000) scale(1.000000)"><g transform="translate(0.0000,0.0000)"><g transform="translate(-1.8459,-2.0040) scale(1.079162)">
  <!-- Generator: Adobe Illustrator 30.3.0, SVG Export Plug-In . SVG Version: 2.1.3 Build 182)  -->
  <defs>
    <style>
      .st0, .st1, .st2 {
        fill: none;
        stroke: #000;
        stroke-linecap: round;
        stroke-linejoin: round;
      }

      .st1 {
        stroke-width: 0.926645px;
      }

      .st2 {
        stroke-width: 0.926645px;
      }
    </style>
  </defs>
  <path class="st1" d="M33.99,42.99v-15.17h0s0,0,0,0l-9.72-10.06c-.23-.24-.62-.24-.85,0l-9.48,10.06h0v15.16l20.04.02Z"/>
  <polygon class="st0" points="42.89 24.28 42.89 42.98 33.99 42.99 33.99 42.98 33.99 24.28 33.99 24.28 42.89 24.28"/>
  <path class="st0" d="M33.99,24.27h0c0-2.45,1.99-4.44,4.45-4.44s4.45,1.99,4.45,4.45h-8.9"/>
  <polygon class="st0" points="13.95 24.27 13.95 42.97 5.05 42.99 5.05 42.97 5.05 24.27 5.05 24.27 13.95 24.27"/>
  <path class="st0" d="M5.05,24.26h0c0-2.45,1.99-4.44,4.45-4.44s4.45,1.99,4.45,4.45H5.05"/>
  <path class="st2" d="M22.29,28.34l-2.98.05c-.21,0-.33.23-.22.41l1.62,2.6s0,.04,0,.04l-1.56,2.56c-.11.18.02.41.23.4l2.89-.03,1.48,2.32c.1.17.35.17.45,0l1.49-2.35,2.96-.03c.21,0,.33-.23.22-.41l-1.62-2.6v-.04l1.56-2.56c.11-.18-.02-.41-.23-.4l-2.87.02-1.48-2.32c-.1-.17-.35-.17-.45,0l-1.49,2.35Z"/>
</g></g></g></svg>