<?xml version="1.0" encoding="UTF-8"?><svg id="Layer_2" xmlns="http://www.w3.org/2000/svg" viewBox="0 0 64 64"><g transform="translate(-3.9225,11.5037) scale(1.497806)" stroke-width="0.890191"><path d="M5.11,15.75c0-.46.37-.85.85-.85h36.06c.46,0,.85.37.85.85v.9c0,.46-.37.85-.85.85H5.92c-.46,0-.85-.37-.85-.85l.04-.9Z" fill="none" stroke="#000" stroke-linecap="round" stroke-linejoin="round"/><line x1="10.6" y1="21.88" x2="15.85" y2="17.58" fill="none" stroke="#000" stroke-linecap="round" stroke-linejoin="round"/><line x1="37.62" y1="21.88" x2="32.34" y2="17.58" fill="none" stroke="#000" stroke-linecap="round" stroke-linejoin="round"/><polygon points="37.66 17.63 39.96 17.63 39.99 32.55 37.7 32.55 37.67 17.63 37.66 17.63" fill="none" stroke="#000" stroke-linecap="round" stroke-linejoin="round"/><polygon points="8.08 17.63 10.38 17.63 10.4 32.55 8.11 32.55 8.09 17.63 8.08 17.63" fill="none" stroke="#000" stroke-linecap="round" stroke-linejoin="round"/></g></svg>