<?xml version="1.0" encoding="UTF-8"?><svg id="Layer_2" xmlns="http://www.w3.org/2000/svg" viewBox="0 0 48 48"><g transform="translate(-2.1552,8.8289) scale(1.087533)" stroke-width="0.919512"><path d="M5.22,15.56c0-.12.1-.22.22-.22h.49s6.69,0,6.69,0c.12,0,.22.1.22.22h0l.05,15.31v1.62c0,.12-.09.22-.22.22l-7.17.02c-.12,0-.22-.1-.22-.22l-.06-16.95Z" fill="none" stroke="#000" stroke-linecap="round" stroke-linejoin="round"/><path d="M31.87,23.04c1,0,1.81.8,1.81,1.8s-.8,1.81-1.8,1.81l-9.47.03" fill="none" stroke="#000" stroke-linecap="round" stroke-linejoin="round"/><path d="M31.87,23.04h-4.66c-3.49,0-4.22-.67-6.4-3.03-1.49-1.7-2.27-2.58-7.68-2.48" fill="none" stroke="#000" stroke-linecap="round" stroke-linejoin="round"/><path d="M32.35,26.59l5.42-1.77,2.66-.94c.94-.33,1.97.16,2.31,1.1s-.16,1.97-1.1,2.31c0,0-4.65,1.72-6.27,2.16-2.2.6-4.88.96-6.24.99h0s-12.88.59-16.23-1.1" fill="none" stroke="#000" stroke-linecap="round" stroke-linejoin="round"/></g></svg>