<?xml version="1.0" encoding="UTF-8"?><svg id="Layer_2" xmlns="http://www.w3.org/2000/svg" viewBox="0 0 48 48"><g transform="translate(-1.8947,1.5579) scale(1.078947)" stroke-width="0.926829"><path d="M39.54,39.78l-8.06-6.75c-.17-.14-.39-.22-.61-.22H7.03c-1.07,0-1.96-.87-1.96-1.96v-2.05l.17-18.06c0-1.07.87-1.96,1.96-1.96h33.79c1.07,0,1.96.87,1.96,1.96v20.11c0,1.07-.87,1.96-1.96,1.96h-3.61l2.15,6.98Z" fill="none" stroke="#000" stroke-linecap="round" stroke-linejoin="round"/><path d="M15.15,22.88c1.32,0,2.4-1.07,2.4-2.4s-1.07-2.4-2.4-2.4h0c-1.32,0-2.4,1.07-2.4,2.4s1.07,2.4,2.4,2.4h0Z" fill="none" stroke="#000" stroke-linecap="round" stroke-linejoin="round"/><path d="M24.09,22.88c1.32,0,2.4-1.07,2.4-2.4s-1.07-2.4-2.4-2.4h0c-1.32,0-2.4,1.07-2.4,2.4s1.07,2.4,2.4,2.4h0Z" fill="none" stroke="#000" stroke-linecap="round" stroke-linejoin="round"/><path d="M32.88,22.88c1.32,0,2.4-1.07,2.4-2.4s-1.07-2.4-2.4-2.4h0c-1.32,0-2.4,1.07-2.4,2.4s1.07,2.4,2.4,2.4h0Z" fill="none" stroke="#000" stroke-linecap="round" stroke-linejoin="round"/></g></svg>