<?xml version="1.0" encoding="UTF-8"?>
<svg id="Layer_2" xmlns="http://www.w3.org/2000/svg" version="1.1" viewBox="0 0 48 48"><g transform="translate(-2.0317,6.3201) scale(1.084656)" stroke-width="0.921951">
  <!-- Generator: Adobe Illustrator 30.3.0, SVG Export Plug-In . SVG Version: 2.1.3 Build 182)  -->
  <defs>
    <style>
      .st0 {
        fill: none;
        stroke: #000;
        stroke-linecap: round;
        stroke-linejoin: round;
      }
    </style>
  </defs>
  <rect class="st0" x="5.14" y="17.24" width="7.01" height="15.02" rx=".85" ry=".85"/>
  <path class="st0" d="M34.61,31.98c.18-2.7.03-4.64-2.72-4.65h-1.33c-1.19,3.02-3.65,4.6-6.43,4.6s-5.1-1.27-6.77-4.27l-5.21-.05h-.01v-5.84h5.55c1.28-2.26,3.7-3.79,6.47-3.79s4.79,1.44,6.46,4.44l.18.36,2.5-.03c6.07-.01,7.73,3.97,7.69,6.31l-.02,2.89-6.38.03h.02Z"/>
  <path class="st0" d="M41.1,35.16h-6.29c-1.09,0-1.79-.66-1.79-1.54s.7-1.65,1.79-1.65h6.29c1.09,0,1.77.74,1.77,1.61s-.68,1.57-1.77,1.57h0Z"/>
  <path class="st0" d="M27.93,15.02h-7.62c-1.09,0-1.79-.66-1.79-1.54s.7-1.65,1.79-1.65h7.62c1.09,0,1.77.74,1.77,1.61s-.68,1.57-1.77,1.57h0Z"/>
  <path class="st0" d="M22.6,15.02v3.11c.53-.12,1.07-.2,1.64-.2.48,0,.94.1,1.37.19v-3.1h-3.01Z"/>
</g></svg>