<?xml version="1.0" encoding="UTF-8"?><svg id="Layer_2" xmlns="http://www.w3.org/2000/svg" viewBox="0 0 64 64"><g transform="translate(-3.9424,4.0158) scale(1.501768)" stroke-width="0.887842"><line x1="34.88" y1="16.32" x2="13.08" y2="16.32" fill="none" stroke="#000" stroke-linecap="round" stroke-linejoin="round"/><line x1="34.93" y1="23.14" x2="13.14" y2="23.14" fill="none" stroke="#000" stroke-linecap="round" stroke-linejoin="round"/><path d="M9.73,19.73c0,1.88,1.51,3.41,3.41,3.41s3.41-1.51,3.41-3.41h0c0-1.88-1.51-3.41-3.41-3.41s-3.41,1.51-3.41,3.41h0Z" fill="none" stroke="#000" stroke-linecap="round" stroke-linejoin="round"/><path d="M31.55,19.73c0,1.88,1.51,3.41,3.41,3.41s3.41-1.51,3.41-3.41h0c0-1.88-1.51-3.41-3.41-3.41s-3.41,1.51-3.41,3.41h0Z" fill="none" stroke="#000" stroke-linecap="round" stroke-linejoin="round"/><path d="M36.25,32.27H11.48c-.96,0-1.75-.79-1.75-1.75s.79-1.75,1.75-1.75h24.77c.96,0,1.75.79,1.75,1.75s-.79,1.75-1.75,1.75Z" fill="none" stroke="#000" stroke-linecap="round" stroke-linejoin="round"/><path d="M7.54,37.48c-1.33,0-2.41-1.07-2.41-2.41h-.05l.05-22.14h0c0-1.33,1.07-2.41,2.41-2.41h32.79c1.33,0,2.41,1.07,2.41,2.41v22.14c0,1.33-1.07,2.41-2.41,2.41H7.54Z" fill="none" stroke="#000" stroke-linecap="round" stroke-linejoin="round"/></g></svg>