<?xml version="1.0" encoding="UTF-8"?><svg xmlns="http://www.w3.org/2000/svg" width="44.8" height="48" viewBox="0 0 44.8 48"><g  transform="translate(-1.9000,0.9000) scale(1.000000)">
  <!-- Generator: Adobe Illustrator 30.3.0, SVG Export Plug-In . SVG Version: 2.1.3 Build 182)  -->
  <defs>
    <style>
      .st0 {
        fill: none;
        stroke: #000;
        stroke-linecap: round;
        stroke-linejoin: round;
      }
    </style>
  </defs>
  <path class="st0" d="M21.66,30.73s-4.33-5.36-.55-13.05c3.78-7.69,1.98-15.19,1.98-15.19,0,0,11.97,7.93,6.03,20.19"/>
  <path class="st0" d="M32.88,31.42c-3.56,1.35-6.81,1.42-10.97.42,0,0,.73-6.85,8.84-9.62,8.12-2.77,12.14-9.34,12.14-9.34,0,0,2.86,14.07-10.01,18.54Z"/>
  <path class="st0" d="M21.77,32.52s-1-7.42-8.4-11.45c-7.4-4.03-7.9-4.61-7.9-4.61,0,0,1.02,15.17,16.29,16.07Z"/>
  <path class="st0" d="M21.91,43.54q-.25-12.81-.29-12.77"/>
</g></svg>