<?xml version="1.0" encoding="UTF-8"?><svg xmlns="http://www.w3.org/2000/svg" width="48" height="48" viewBox="0 0 48 48"><g  transform="translate(0.0000,0.0000) scale(1.000000)"><g transform="translate(0.0000,0.0000)"><g transform="translate(0.0000,0.0000) scale(1.000000)"><g transform="translate(-2.2158,-1.2365) scale(1.099196)" stroke-width="0.909756"><path d="M7.41,15.3l-.02,19.97c0,.9.73,1.62,1.62,1.62h29.75c.9,0,1.62-.73,1.62-1.62h0l.02-19.98H7.41Z" fill="none" stroke="#000" stroke-linecap="round" stroke-linejoin="round"/><path d="M40.52,15.3H7.29c-1.23,0-2.01-.74-2.01-1.72s.78-1.85,2.01-1.85h33.23c1.23,0,1.98.82,1.98,1.81s-.76,1.76-1.98,1.76Z" fill="none" stroke="#000" stroke-linecap="round" stroke-linejoin="round"/><line x1="13.82" y1="20.38" x2="33.98" y2="20.38" fill="none" stroke="#000" stroke-linecap="round" stroke-linejoin="round"/><line x1="13.82" y1="25.8" x2="33.98" y2="25.8" fill="none" stroke="#000" stroke-linecap="round" stroke-linejoin="round"/><line x1="13.82" y1="31.31" x2="33.98" y2="31.31" fill="none" stroke="#000" stroke-linecap="round" stroke-linejoin="round"/><path d="M17.25,11.66l6.2-6.2c.25-.25.66-.25.91,0l6.19,6.19" fill="none" stroke="#000" stroke-linecap="round" stroke-linejoin="round"/><line x1="23.9" y1="37.12" x2="23.9" y2="39.2" fill="none" stroke="#000" stroke-linecap="round" stroke-linejoin="round"/><circle cx="23.9" cy="40.51" r="1.1" fill="none" stroke="#000" stroke-linecap="round" stroke-linejoin="round"/></g></g></g></g></svg>