<?xml version="1.0" encoding="UTF-8"?><svg id="Layer_2" xmlns="http://www.w3.org/2000/svg" viewBox="0 0 48 48"><g transform="translate(-1.8947,2.5289) scale(1.078947)" stroke-width="0.926829"><path d="M6.63,35.75c-.84,0-1.53-.68-1.53-1.53h-.03l.03-20.39h0c0-.84.68-1.53,1.53-1.53h34.78c.84,0,1.53.68,1.53,1.53v20.39c0,.84-.68,1.53-1.53,1.53H6.63Z" fill="none" stroke="#000" stroke-linecap="round" stroke-linejoin="round"/><line x1="21.1" y1="9.16" x2="23.89" y2="11.94" fill="none" stroke="#000" stroke-linecap="round" stroke-linejoin="round"/><line x1="24.11" y1="11.94" x2="26.9" y2="9.16" fill="none" stroke="#000" stroke-linecap="round" stroke-linejoin="round"/><path d="M9.99,32.46c-.84,0-1.53-.68-1.53-1.53h-.03l.03-14.03h0c0-.84.68-1.53,1.53-1.53h27.78c.84,0,1.53.68,1.53,1.53v14.03c0,.84-.68,1.53-1.53,1.53,0,0-27.78,0-27.78,0Z" fill="none" stroke="#000" stroke-linecap="round" stroke-linejoin="round"/><path d="M9.06,35.93v2.08c0,.46.37.83.83.83s.83-.37.83-.83v-2.08c0-.06,0-.13-.03-.18h-1.61c-.01.06-.03.13-.03.18h0Z" fill="none" stroke="#000" stroke-linecap="round" stroke-linejoin="round"/><path d="M37.64,35.93v2.08c0,.46.37.83.83.83s.83-.37.83-.83v-2.08c0-.06,0-.13-.03-.18h-1.61c0,.06-.03.13-.03.18h0Z" fill="none" stroke="#000" stroke-linecap="round" stroke-linejoin="round"/></g></svg>