<?xml version="1.0" encoding="UTF-8"?><svg id="Layer_2" xmlns="http://www.w3.org/2000/svg" viewBox="0 0 64 64"><g transform="translate(-3.9788,-3.9788) scale(1.499118)" stroke-width="0.889412"><defs><style>.cls-1{fill:none;stroke:#000;stroke-linecap:round;stroke-linejoin:round;}</style></defs><line class="cls-1" x1="6.97" y1="19.79" x2="41.03" y2="19.79"/><path class="cls-1" d="M17.96,30.84l3.93,3.93c.26.26.69.26.95,0l9.81-9.8"/><path class="cls-1" d="M19.6,13.2h0s-4.31.03-4.31.03v-5.94c0-1.19.97-2.16,2.16-2.16s2.16.96,2.16,2.16v5.91Z"/><path class="cls-1" d="M32.72,13.2h0s-4.31.03-4.31.03v-5.94c0-1.19.97-2.16,2.16-2.16s2.16.96,2.16,2.16v5.91Z"/><path class="cls-1" d="M40.36,10.31h-7.64v2.96l-4.32.03v-2.99s-8.8,0-8.8,0v2.96l-4.32.03v-2.99s-7.64,0-7.64,0c-.37,0-.67.3-.67.67v31.2c0,.37.3.67.67.67h32.72c.37,0,.67-.3.67-.67V10.99c0-.37-.3-.67-.67-.67Z"/></g></svg>