<?xml version="1.0" encoding="UTF-8"?><svg id="Layer_2" xmlns="http://www.w3.org/2000/svg" viewBox="0 0 48 48"><g transform="translate(-2.1702,-2.1702) scale(1.090426)" stroke-width="0.917073"><path d="M29.61,12.08l2.93,4.81c.1.16-.06.36-.24.3l-5.57-1.89c-.1-.03-.21.01-.25.1l-2.13,4.35c-.08.16-.3.15-.37,0l-2-4.46" fill="none" stroke="#000" stroke-linecap="round" stroke-linejoin="round"/><path d="M18.87,12.03l-2.93,4.81c-.1.16.06.36.24.3l5.56-1.89c.1-.03.21.01.25.11l1.97,4.39c.07.16.3.16.37,0l1.78-3.64" fill="none" stroke="#000" stroke-linecap="round" stroke-linejoin="round"/><path d="M31.5,12.04h-1.86s2.39-3.93,2.39-3.93c.09-.15-.06-.34-.23-.28l-5.21,1.77c-.09.03-.18,0-.22-.08l-1.86-4.13c-.07-.15-.28-.15-.35,0l-2,4.08c-.04.09-.14.13-.24.1l-5.22-1.77c-.17-.06-.32.13-.23.28l2.39,3.92h-2.18c-5.98-.08-10.89,6.19-10.95,14v.27c-.01,2,.29,3.91.85,5.64.41,1.56,1.16,3.02,2.21,4.34.88,1.19,1.93,2.17,3.09,2.9,3.09,2.2,7.22,3.55,11.76,3.58h.34c4.35.03,8.34-1.15,11.43-3.14,1.72-.9,3.23-2.36,4.38-4.21.64-.97,1.14-2,1.47-3.08.61-1.74.95-3.67.97-5.7v-.27c.06-7.81-4.75-14.2-10.75-14.28Z" fill="none" stroke="#000" stroke-linecap="round" stroke-linejoin="round"/></g></svg>