<?xml version="1.0" encoding="UTF-8"?><svg id="Layer_2" xmlns="http://www.w3.org/2000/svg" viewBox="0 0 64 64"><g transform="translate(-4.0243,-3.9991) scale(1.503095)" stroke-width="0.887059"><line x1="33.87" y1="18.36" x2="14.23" y2="18.36" fill="none" stroke="#000" stroke-linecap="round" stroke-linejoin="round"/><line x1="12.43" y1="15.81" x2="35.42" y2="15.81" fill="none" stroke="#000" stroke-linecap="round" stroke-linejoin="round"/><path d="M36.21,5.16h-4.59c-.35,0-.63.29-.63.63v5.68h-4.1v-5.68c0-.35-.29-.63-.63-.63h-4.59c-.35,0-.63.29-.63.63v5.68h-4.06v-5.68c0-.35-.29-.63-.63-.63h-4.59c-.35,0-.63.29-.63.63v6.12l.05,1.91,4.74,7.46s0,0,0,0l-3.02,20.87c0,.35.29.63.63.63h6.45s0-7.89,0-7.89c0-2.21,1.79-4,4-4s4,1.79,4,4v7.9h6.41s0,0,0,0c.35,0,.63-.29.63-.63l-3.02-20.87,4.82-7.6v-7.89c0-.35-.29-.63-.63-.63Z" fill="none" stroke="#000" stroke-linecap="round" stroke-linejoin="round"/></g></svg>