<?xml version="1.0" encoding="UTF-8"?><svg id="Layer_2" xmlns="http://www.w3.org/2000/svg" viewBox="0 0 48 48"><g transform="translate(-1.7730,11.6785) scale(1.076115)" stroke-width="0.929268"><path d="M8.15,24.11h28.32s0,0,0,0H8.15c-1.76,0-3.19,1.43-3.19,3.19s1.43,3.19,3.19,3.19h28.42c.11,0,.22,0,.33-.02,3.35-.18,6.02-2.95,6.02-6.35s-2.61-6.11-5.92-6.35c-.14-.02-.29-.03-.44-.03H8.15c-1.76,0-3.19,1.43-3.19,3.19s1.43,3.19,3.19,3.19Z" fill="none" stroke="#000" stroke-linecap="round" stroke-linejoin="round"/><line x1="11.67" y1="17.72" x2="11.67" y2="30.45" fill="none" stroke="#000" stroke-linecap="round" stroke-linejoin="round"/><line x1="16.55" y1="17.72" x2="16.55" y2="30.45" fill="none" stroke="#000" stroke-linecap="round" stroke-linejoin="round"/></g></svg>