<?xml version="1.0" encoding="UTF-8"?><svg id="Layer_2" xmlns="http://www.w3.org/2000/svg" viewBox="0 0 64 64"><g transform="translate(-3.9225,7.6094) scale(1.497806)" stroke-width="0.890191"><path d="M17.45,35.14h-8.54c-.31,0-.57-.24-.57-.54V13.11c0-.29.25-.54.57-.54h30.1c.31,0,.57.24.57.54v21.49c0,.29-.25.54-.57.54h-21.56Z" fill="none" stroke="#000" stroke-linecap="round" stroke-linejoin="round"/><path d="M20.76,32.68h-9.67c-.24,0-.45-.18-.45-.42V15.46c0-.23.2-.42.45-.42h25.74c.24,0,.45.19.45.42v16.8c0,.23-.2.42-.45.42h-16.07Z" fill="none" stroke="#000" stroke-linecap="round" stroke-linejoin="round"/><path d="M42.87,23.86c0-3.91-1.3-4.67-2.92-4.67h.12-.42s-.02,9.35-.02,9.35h.42s-.12-.01-.12-.01h0c1.62,0,2.95-.75,2.95-4.66Z" fill="none" stroke="#000" stroke-linecap="round" stroke-linejoin="round"/><path d="M5.08,23.87c0,3.91,1.3,4.67,2.92,4.67h-.12.42s.02-9.35.02-9.35h-.42s.12.01.12.01h0c-1.62,0-2.95.75-2.95,4.66Z" fill="none" stroke="#000" stroke-linecap="round" stroke-linejoin="round"/></g></svg>