<?xml version="1.0" encoding="UTF-8"?><svg id="Layer_2" xmlns="http://www.w3.org/2000/svg" viewBox="0 0 48 48"><g transform="translate(-2.1794,-2.0172) scale(1.081794)" stroke-width="0.924390"><path d="M39.73,20.58c0-2.41-2.27-4.43-5.25-4.88.11-.38.2-.77.2-1.17,0-2.05-1.63-3.82-3.95-4.57-.13-2.66-2.97-4.78-6.46-4.78h-.2c-3.49,0-6.33,2.12-6.46,4.78-2.32.75-3.95,2.51-3.95,4.57,0,.41.07.8.2,1.17-2.98.44-5.25,2.45-5.25,4.88,0,2.1,1.7,3.9,4.11,4.61.55,2.32,3.2,4.06,6.36,4.06,1.91,0,3.6-.64,4.78-1.63,1.19.99,2.89,1.63,4.78,1.63,3.1,0,5.67-1.66,6.31-3.88,2.76-.57,4.78-2.49,4.78-4.78h0v-.02Z" fill="none" stroke="#000" stroke-linecap="round" stroke-linejoin="round"/><line x1="23.9" y1="27.54" x2="23.9" y2="42.93" fill="none" stroke="#000" stroke-linecap="round" stroke-linejoin="round"/></g></svg>