<?xml version="1.0" encoding="UTF-8"?><svg id="Layer_2" xmlns="http://www.w3.org/2000/svg" viewBox="0 0 48 48"><g transform="translate(-1.8947,1.9895) scale(1.078947)" stroke-width="0.926829"><defs><style>.cls-1{fill:none;stroke:#000;stroke-linecap:round;stroke-linejoin:round;}</style></defs><line class="cls-1" x1="13.1" y1="19.06" x2="10.1" y2="23.79"/><line class="cls-1" x1="9.26" y1="19.9" x2="13.94" y2="22.96"/><path class="cls-1" d="M38.89,20.7c0-1.45-1.18-2.63-2.63-2.63s-2.63,1.18-2.63,2.63c0,.48.16.93.36,1.33l2.27,4.47,2.29-4.52c.21-.38.33-.81.33-1.28h0Z"/><polygon class="cls-1" points="5.23 8.72 5.05 34.69 18.05 38.37 18.05 13.6 5.23 8.72"/><polygon class="cls-1" points="18.2 13.66 18.06 13.6 18.06 38.36 18.29 38.42 30.32 33.84 30.32 8.7 18.21 13.66 18.2 13.66"/><polygon class="cls-1" points="42.95 39.32 42.82 13.81 30.36 8.68 30.31 8.69 30.31 33.84 30.44 33.78 42.95 39.32"/><path class="cls-1" d="M11.5,21.75c1.39,3.65,1.68,6.91,5.22,7.01,3.55.09,4.18-4.64,7.89-4.74,3.72-.09,5.23,4.14,8.49,4.14s3.15-1.66,3.15-1.66"/><path class="cls-1" d="M35.43,20.59c0,.46.36.83.83.83s.83-.36.83-.83-.36-.83-.83-.83-.83.36-.83.83Z"/></g></svg>