<?xml version="1.0" encoding="UTF-8"?><svg xmlns="http://www.w3.org/2000/svg" width="48" height="48" viewBox="0 0 48 48"><g  transform="translate(0.0000,0.0000) scale(1.000000)"><g transform="translate(0.0000,0.0000)"><g transform="translate(-2.1552,-2.1552) scale(1.087533)"><polygon points="41.65 23.2 41.65 23.2 41.65 23.2 41.65 23.2" fill="none" stroke="#000" stroke-linecap="round" stroke-linejoin="round" stroke-width="0.919512"/><path d="M42.85,30.98h0s-1.19-7.78-1.19-7.78c-4.5,1.07-10.68,1.79-17.63,1.96-6.94-.18-13.13-.9-17.63-1.96l-1.19,7.77h0s0,.01,0,.01v.03c2.85.31,6.57,2.32,9.85,5.6,2.02,2.02,3.56,4.2,4.51,6.25h0s.32,0,.32,0h8.6c.96-2.05,2.5-4.23,4.51-6.25,3.28-3.28,7-5.29,9.85-5.6v-.03s0,0,0,0Z" fill="none" stroke="#000" stroke-linecap="round" stroke-linejoin="round" stroke-width="0.919512"/><polygon points="6.4 23.2 6.4 23.2 6.4 23.2 6.4 23.2" fill="none" stroke="#000" stroke-linecap="round" stroke-linejoin="round" stroke-width="0.919512"/><polygon points="41.66 23.2 41.66 23.2 41.66 23.2 41.66 23.2" fill="none" stroke="#000" stroke-linecap="round" stroke-linejoin="round" stroke-width="0.919512"/><polygon points="6.41 23.2 6.41 23.2 6.41 23.2 6.41 23.2" fill="none" stroke="#000" stroke-linecap="round" stroke-linejoin="round" stroke-width="0.919512"/><path d="M41.95,25.13c-4.5,1.07-10.98,1.79-17.92,1.96-6.94-.18-13.41-.99-17.91-2.06l.28-1.84c4.5,1.07,10.68,1.79,17.63,1.96,6.94-.18,13.13-.9,17.63-1.96l.3,1.93h0Z" fill="none" stroke="#000" stroke-linecap="round" stroke-linejoin="round" stroke-width="0.919512"/></g></g></g></svg>