<?xml version="1.0" encoding="UTF-8"?><svg xmlns="http://www.w3.org/2000/svg" width="39.4" height="48" viewBox="0 0 39.4 48"><g  transform="translate(0.0000,0.0000) scale(1.000000)"><g transform="translate(-4.3000,0.0000)"><g transform="translate(4.3000,0.0000) scale(1.000000)"><g transform="translate(-6.9703,-1.9090) scale(1.081794)" stroke-width="0.924390"><path d="M10.38,27.04l3.17,9.78c.18.47.4.9.9.9h22.88c1.34-.01,2.41-1.16,2.28-2.53-.12-1.19-1.21-2.05-2.4-2.05h-6.17s-13.95,0-13.95,0l-2.39-7.7c-1.11-2.81-5.48-1.32-4.32,1.61Z" fill="none" stroke="#000" stroke-linecap="round" stroke-linejoin="round"/><path d="M21.44,18.35v14.76l3.03-.02h0v-.34h0v-14.4h-3.03Z" fill="none" stroke="#000" stroke-linecap="round" stroke-linejoin="round"/><path d="M22.96,5.07c-7.32,0-13.25,5.94-13.25,13.25h26.5c0-7.32-5.94-13.25-13.25-13.25" fill="none" stroke="#000" stroke-linecap="round" stroke-linejoin="round"/><path d="M29.86,18.31c0-5.66-2.77-10.61-6.9-13.25-4.12,2.65-6.9,7.59-6.9,13.25h13.81Z" fill="none" stroke="#000" stroke-linecap="round" stroke-linejoin="round"/><path d="M16.31,38v3.46c0,.76.61,1.38,1.38,1.38s1.38-.61,1.38-1.38v-3.46c0-.11-.01-.21-.04-.31h-2.68c-.02.1-.04.21-.04.31h.01Z" fill="none" stroke="#000" stroke-linecap="round" stroke-linejoin="round"/><path d="M33.02,38v3.46c0,.76.61,1.38,1.38,1.38s1.38-.61,1.38-1.38v-3.46c0-.11-.01-.21-.04-.31h-2.68c-.02.1-.04.21-.04.31h.01Z" fill="none" stroke="#000" stroke-linecap="round" stroke-linejoin="round"/></g></g></g></g></svg>