<?xml version="1.0" encoding="UTF-8"?><svg xmlns="http://www.w3.org/2000/svg" width="41.4" height="48" viewBox="0 0 41.4 48"><g  transform="translate(0.0000,0.0000) scale(1.000000)"><g transform="translate(-3.3000,0.0000)"><g transform="translate(3.3000,0.0000) scale(1.000000)"><g transform="translate(-5.4987,-2.1402) scale(1.084656)" stroke-width="0.921951"><circle cx="24.01" cy="24.03" r="1.02" fill="none" stroke="#000" stroke-linecap="round" stroke-linejoin="round"/><circle cx="24.01" cy="28.8" r="1.02" fill="none" stroke="#000" stroke-linecap="round" stroke-linejoin="round"/><circle cx="24.01" cy="33.56" r="1.02" fill="none" stroke="#000" stroke-linecap="round" stroke-linejoin="round"/><circle cx="24.01" cy="38.32" r="1.02" fill="none" stroke="#000" stroke-linecap="round" stroke-linejoin="round"/><path d="M32.97,5.71l-8.86,13.78c-.07.11-.24.11-.31,0L15.12,5.76" fill="none" stroke="#000" stroke-linecap="round" stroke-linejoin="round"/><path d="M34.85,11.06c0-1.05.1-2.86.29-5.15-1.32-.36-2.7-.55-4.36-.65-.07,0-.14.03-.18.09l-6.5,10.18c-.07.11-.24.11-.31,0l-6.34-10.19c-.04-.06-.11-.1-.18-.09-1.8.12-3.3.36-4.76.84.18,2.21.27,3.95.27,4.97,0,4.46-1.81,8.34-4.47,10.34v21.55h31.7v-21.1c-3.03-1.83-5.15-5.98-5.15-10.8Z" fill="none" stroke="#000" stroke-linecap="round" stroke-linejoin="round"/></g></g></g></g></svg>