<svg xmlns="http://www.w3.org/2000/svg" width="41.327" height="48" viewBox="0 0 41.327 48" fill="none" stroke="#000000" stroke-width="1" stroke-linecap="round" stroke-linejoin="round">
  <path d="M 30.38,3.943 c -0.791,-0.117 -1.627,-0.197 -2.544,-0.251 c -0.075,0 -0.151,0.033 -0.197,0.096 l -7.037,11.024 c -0.075,0.117 -0.259,0.117 -0.335,0 L 13.403,3.776 c -0.042,-0.063 -0.117,-0.109 -0.197,-0.096 c -0.887,0.059 -1.707,0.146 -2.485,0.272 l 9.556,15.149 c 0.075,0.117 0.259,0.117 0.335,0 L 30.38,3.948 l 0,0 Z"/>
  <path d="M 21.607,24.017 c 0,0.611 -0.494,1.104 -1.104,1.104 l 0,0 c -0.611,0 -1.104,-0.494 -1.104,-1.104 l 0,0 c 0,-0.611 0.494,-1.104 1.104,-1.104 l 0,0 c 0.611,0 1.104,0.494 1.104,1.104 Z"/>
  <path d="M 21.607,29.184 c 0,0.611 -0.494,1.104 -1.104,1.104 s -1.104,-0.494 -1.104,-1.104 l 0,0 c 0,-0.611 0.494,-1.104 1.104,-1.104 l 0,0 c 0.611,0 1.104,0.494 1.104,1.104 Z"/>
  <path d="M 21.607,34.338 c 0,0.611 -0.494,1.104 -1.104,1.104 s -1.104,-0.494 -1.104,-1.104 l 0,0 c 0,-0.611 0.494,-1.104 1.104,-1.104 l 0,0 c 0.611,0 1.104,0.494 1.104,1.104 Z"/>
  <path d="M 21.607,39.492 c 0,0.611 -0.494,1.104 -1.104,1.104 s -1.104,-0.494 -1.104,-1.104 l 0,0 c 0,-0.611 0.494,-1.104 1.104,-1.104 l 0,0 c 0.611,0 1.104,0.494 1.104,1.104 Z"/>
  <path d="M 32.238,9.972 c 0,-1.138 0.109,-3.096 0.314,-5.577 c -1.431,-0.389 -2.924,-0.594 -4.719,-0.703 c -0.075,0 -0.151,0.033 -0.197,0.096 l -7.037,11.024 c -0.075,0.117 -0.259,0.117 -0.335,0 L 13.399,3.776 c -0.042,-0.063 -0.117,-0.109 -0.197,-0.096 c -1.95,0.13 -3.573,0.389 -5.154,0.908 c 0.197,2.393 0.293,4.276 0.293,5.38 c 0,4.828 -1.962,9.033 -4.841,11.196 l 0,23.337 l 34.327,0 l 0,-22.847 c -3.28,-1.983 -5.577,-6.476 -5.577,-11.693 l -0.013,0.013 Z"/>
</svg>
