<?xml version="1.0" encoding="UTF-8"?><svg id="Layer_2" xmlns="http://www.w3.org/2000/svg" viewBox="0 0 48 48"><g transform="translate(-2.4516,-2.4516) scale(1.102151)" stroke-width="0.907317"><path d="M10.9,37.1c7.23,7.23,18.96,7.23,26.19,0,7.23-7.23,7.23-18.96,0-26.19h0c-7.23-7.23-18.96-7.23-26.19,0-7.23,7.23-7.23,18.96,0,26.19Z" fill="none" stroke="#000" stroke-linecap="round" stroke-linejoin="round"/><path d="M16.79,6.93c-4.97,7.07-4.43,15.73-2.47,21.71" fill="none" stroke="#000" stroke-linecap="round" stroke-linejoin="round"/><path d="M25.19,5.48c-3.02,6.18-3.26,13-1.23,19.04" fill="none" stroke="#000" stroke-linecap="round" stroke-linejoin="round"/><path d="M42.19,20.67c-5.4-4.53-13.01-6.17-19.52-5.41" fill="none" stroke="#000" stroke-linecap="round" stroke-linejoin="round"/><path d="M41.24,30.45c-5.92-4.21-12.54-6.23-17.27-5.93" fill="none" stroke="#000" stroke-linecap="round" stroke-linejoin="round"/><path d="M6.67,29.79c7.28-.05,12.88-2.17,17.38-5.14" fill="none" stroke="#000" stroke-linecap="round" stroke-linejoin="round"/><path d="M11.68,37.69c10.12-.07,17.74-4.2,21.25-11.65" fill="none" stroke="#000" stroke-linecap="round" stroke-linejoin="round"/></g></svg>