<?xml version="1.0" encoding="UTF-8"?><svg id="Layer_2" xmlns="http://www.w3.org/2000/svg" viewBox="0 0 64 64"><g transform="translate(-4.9209,-3.9733) scale(1.497806)" stroke-width="0.890191"><path d="M20.61,34.5c.35,0,.63.28.63.63v3.28c0,2.48-2.01,4.5-4.5,4.5s-4.5-2.01-4.5-4.5v-3.28c0-.35.28-.63.63-.63h7.73Z" fill="none" stroke="#000" stroke-linecap="round" stroke-linejoin="round"/><path d="M10.64,21.14c0-.13-.01-.26-.01-.4,0-4.28,2.65-7.75,5.93-7.76h.01c3.28,0,5.95,3.46,5.95,7.74,0,.14,0,.27-.01.4-.01.35-.04.7-.09,1.04,0,.03,0,.06,0,.09l-1.46,9.53c0,.29-.23.52-.52.52l-3.45.02h-.62s-3.45-.01-3.45-.01c-.28,0-.52-.23-.52-.52l-1.66-9.53s0-.06,0-.09c-.05-.34-.08-.68-.1-1.04Z" fill="none" stroke="#000" stroke-linecap="round" stroke-linejoin="round"/><path d="M36.75,26.66c.35,0,.63.28.63.63v3.28c0,2.48-2.01,4.5-4.5,4.5s-4.5-2.01-4.5-4.5v-3.28c0-.35.28-.63.63-.63h7.73Z" fill="none" stroke="#000" stroke-linecap="round" stroke-linejoin="round"/><path d="M26.78,13.31c0-.13-.01-.26-.01-.4,0-4.28,2.65-7.75,5.93-7.76h.01c3.28,0,5.95,3.46,5.95,7.74,0,.14,0,.27-.01.4-.01.35-.04.7-.09,1.04,0,.03,0,.06,0,.09l-1.46,9.53c0,.29-.23.52-.52.52l-3.45.02h-.62s-3.45-.01-3.45-.01c-.28,0-.52-.23-.52-.52l-1.66-9.53s0-.06,0-.09c-.05-.34-.08-.68-.1-1.04Z" fill="none" stroke="#000" stroke-linecap="round" stroke-linejoin="round"/></g></svg>