<?xml version="1.0" encoding="UTF-8"?><svg xmlns="http://www.w3.org/2000/svg" width="31.6" height="48" viewBox="0 0 31.6 48"><g  transform="translate(0.0000,0.0000) scale(1.000000)">
  <!-- Generator: Adobe Illustrator 30.3.0, SVG Export Plug-In . SVG Version: 2.1.3 Build 182)  -->
  <defs>
    <style>
      .st0 {
        stroke-miterlimit: 10;
      }

      .st0, .st1 {
        fill: none;
        stroke: #000;
        stroke-linecap: round;
      }

      .st1 {
        stroke-linejoin: round;
        stroke-width: 1px;
      }
    </style>
  </defs>
  <g>
    <path class="st1" d="M8.99,13.81v-7.52c0-1.5,1.22-2.72,2.72-2.72h8.17c1.5,0,2.72,1.22,2.72,2.72v7.52"/>
    <path class="st1" d="M8.99,34.19v7.52c0,1.5,1.22,2.72,2.72,2.72h8.17c1.5,0,2.72-1.22,2.72-2.72v-7.52"/>
    <path class="st1" d="M3.54,24c0,6.77,5.49,12.26,12.26,12.26s12.26-5.49,12.26-12.26-5.49-12.26-12.26-12.26S3.54,17.23,3.54,24Z"/>
  </g>
  <line class="st0" x1="15.8" y1="17.49" x2="15.8" y2="24"/>
  <line class="st0" x1="20" y1="22.34" x2="15.8" y2="24"/>
</g></svg>