<?xml version="1.0" encoding="UTF-8"?><svg xmlns="http://www.w3.org/2000/svg" width="48" height="48" viewBox="0 0 48 48"><g  transform="translate(0.0000,0.0000) scale(1.000000)"><g transform="translate(0.0000,0.0000)"><g transform="translate(0.0000,0.0000) scale(1.000000)"><g transform="translate(-1.9521,-1.8431) scale(1.090426)" stroke-width="0.917073">
  <!-- Generator: Adobe Illustrator 30.3.0, SVG Export Plug-In . SVG Version: 2.1.3 Build 182)  -->
  <defs>
    <style>
      .st0 {
        fill: none;
        stroke: #000;
        stroke-linecap: round;
        stroke-linejoin: round;
      }
    </style>
  </defs>
  <path class="st0" d="M36.2,5.14l-3.55,3.51c6.33,6.39,6.07,16.92-.58,23.5-6.65,6.58-17.16,6.72-23.5.33l-3.23,3.2-.32.31h0c8.51,8.6,22.4,8.68,31,.16,8.6-8.51,8.68-22.4.16-31h.02Z"/>
  <path class="st0" d="M37.26,19.84v.02h0c-.02-4.09-1.54-8.12-4.59-11.19l-7.62,7.55"/>
  <path class="st0" d="M19.71,37.21h0c4.41.08,8.9-1.59,12.37-5"/>
  <path class="st0" d="M25.14,16.09h0l-1.6,1.59-.06.06-7.15,7.08"/>
  <path class="st0" d="M16.22,24.96l-.41.4-5.2,5.13-2.02,2c3.04,3.08,7.05,4.66,11.13,4.73"/>
  <path class="st0" d="M19.71,37.22"/>
  <line class="st0" x1="27.56" y1="27.29" x2="24.88" y2="24.61"/>
  <line class="st0" x1="31.92" y1="20.67" x2="27.83" y2="20.67"/>
  <line class="st0" x1="21.31" y1="31.49" x2="21.31" y2="27.19"/>
</g></g></g></g></svg>