<?xml version="1.0" encoding="UTF-8"?><svg id="Layer_2" xmlns="http://www.w3.org/2000/svg" viewBox="0 0 48 48"><g transform="translate(-2.6667,-2.8333) scale(1.111111)" stroke-width="0.900000"><path d="M10.74,42.59c-.72,0-1.31-.58-1.31-1.31h-.03l.03-.52h0c0-.72.58-1.31,1.31-1.31h26.55c.72,0,1.31.58,1.31,1.31v.52c0,.72-.58,1.31-1.31,1.31H10.74Z" fill="none" stroke="#000" stroke-linecap="round" stroke-linejoin="round"/><path d="M29.95,39.45v-21.09c0-.73-.59-1.31-1.31-1.31h-9.36c-.73,0-1.31.59-1.31,1.31v21.09h11.98Z" fill="none" stroke="#000" stroke-linecap="round" stroke-linejoin="round"/><line x1="23.95" y1="12.44" x2="23.95" y2="17.05" fill="none" stroke="#000" stroke-linecap="round" stroke-linejoin="round"/><path d="M26.22,9.25c.09.25.13.51.13.79,0,1.32-1.07,2.4-2.4,2.4s-2.4-1.07-2.4-2.4c0-.25.03-.47.1-.69.42-1.35,2.28-3.57,2.28-3.57,0,0,1.8,2.14,2.27,3.47h.01Z" fill="none" stroke="#000" stroke-linecap="round" stroke-linejoin="round"/><path d="M29.95,25.01c0,1.65-1.34,3-3,3s-3-1.34-3-3v-3.87c0,1.65-1.34,3-3,3s-3-1.34-3-3v-2.78c0-.72.58-1.31,1.31-1.31h9.36c.72,0,1.31.58,1.31,1.31v1.05s0,5.6,0,5.6c0,1.66-1.34,3-3,3s-3-1.34-3-3" fill="none" stroke="#000" stroke-linecap="round" stroke-linejoin="round"/></g></svg>