<?xml version="1.0" encoding="UTF-8"?><svg xmlns="http://www.w3.org/2000/svg" width="48" height="48" viewBox="0 0 48 48"><g  transform="translate(0.0000,0.0000) scale(1.000000)"><g transform="translate(0.0000,0.0000)"><g transform="translate(0.0000,0.0000) scale(1.000000)"><g transform="translate(-2.3102,-2.3102) scale(1.096257)" stroke-width="0.912195"><path d="M17.09,22.13c-2.69.16-5.12-1.74-5.57-4.45-.47-2.9,1.49-5.64,4.39-6.11s5.64,1.49,6.11,4.39" fill="none" stroke="#000" stroke-linecap="round" stroke-linejoin="round"/><path d="M13.81,12.27c.64-.33,1.31-.54,2.05-.67s1.44-.11,2.13-.03h.03s-3.07-5.68-3.07-5.68l-1.17,6.38s.03,0,.03,0Z" fill="none" stroke="#000" stroke-linecap="round" stroke-linejoin="round"/><path d="M11.43,15.74c.44-1.35,1.28-2.55,2.4-3.41l.11-.08-6.24-1.88,3.73,5.37h0Z" fill="none" stroke="#000" stroke-linecap="round" stroke-linejoin="round"/><path d="M12.25,19.78c-.33-.64-.54-1.31-.67-2.05s-.14-1.43-.02-2.16h0l-6.23,3.15,6.92,1.08h0Z" fill="none" stroke="#000" stroke-linecap="round" stroke-linejoin="round"/><path d="M16.1,22.27c-1.44-.31-2.71-1.04-3.71-2.13l-1.12,6.33,4.86-4.19h-.03s0,0,0,0Z" fill="none" stroke="#000" stroke-linecap="round" stroke-linejoin="round"/><path d="M17.95,11.53c1.38.45,2.61,1.33,3.47,2.48l.02-.06,2.4-6.67-5.88,4.25h0Z" fill="none" stroke="#000" stroke-linecap="round" stroke-linejoin="round"/><line x1="23.15" y1="36.31" x2="20.17" y2="42.66" fill="none" stroke="#000" stroke-linecap="round" stroke-linejoin="round"/><line x1="30.49" y1="36.31" x2="27.51" y2="42.66" fill="none" stroke="#000" stroke-linecap="round" stroke-linejoin="round"/><line x1="38" y1="36.31" x2="35.02" y2="42.66" fill="none" stroke="#000" stroke-linecap="round" stroke-linejoin="round"/><path d="M39.04,31.4c2.01,0,3.63-1.63,3.63-3.63,0-1.45-.86-2.69-2.08-3.27.51-1.05.8-2.21.8-3.45,0-4.39-3.56-7.95-7.95-7.95-3.89,0-7.12,2.79-7.81,6.48-.85-1.17-2.22-1.93-3.78-1.93-2.27,0-4.16,1.61-4.6,3.75-.06.31-.1.62-.1.95,0,.65.13,1.27.38,1.84-.13-.02-.27-.04-.4-.04-2.01,0-3.63,1.63-3.63,3.63s1.63,3.63,3.63,3.63h21.91Z" fill="none" stroke="#000" stroke-linecap="round" stroke-linejoin="round"/><path d="M22.67,17.6l6.07-5.33" fill="none" stroke="#000" stroke-linecap="round" stroke-linejoin="round"/><path d="M28.56,12.14l-7.23,1.81h0c.31.64.57,1.27.69,2.01.08.46.1.82.08,1.2" fill="none" stroke="#000" stroke-linecap="round" stroke-linejoin="round"/></g></g></g></g></svg>