<?xml version="1.0" encoding="UTF-8"?><svg id="Layer_2" xmlns="http://www.w3.org/2000/svg" viewBox="0 0 48 48"><g transform="translate(-2.1402,5.2354) scale(1.084656)" stroke-width="0.921951"><defs><style>.cls-1{fill:none;stroke:#000;stroke-linecap:round;stroke-linejoin:round;}</style></defs><path class="cls-1" d="M29.52,24c0,3.12-1.18,5.96-3.11,8.11-.68.77-1.47,1.45-2.34,2.03-1.92,1.28-4.23,2.02-6.71,2.02-6.72,0-12.16-5.45-12.16-12.16s5.44-12.16,12.16-12.16c2.48,0,4.79.74,6.71,2.02-.86.56-1.64,1.24-2.32,2-1.31-.72-2.82-1.12-4.41-1.12-5.1,0-9.24,4.14-9.24,9.24s4.13,9.24,9.24,9.24c1.58,0,3.07-.4,4.37-1.1.87-.47,1.66-1.08,2.34-1.79,1.56-1.65,2.52-3.89,2.52-6.34s-.96-4.69-2.52-6.35c.67-.71,1.45-1.32,2.32-1.78,1.96,2.16,3.14,5.02,3.14,8.16Z"/><path class="cls-1" d="M42.95,24c0,6.72-5.45,12.16-12.16,12.16-2.48,0-4.79-.74-6.71-2.02.87-.57,1.66-1.26,2.34-2.03,1.3.7,2.78,1.09,4.36,1.09,5.1,0,9.24-4.14,9.24-9.24s-4.14-9.24-9.24-9.24c-1.59,0-3.08.4-4.39,1.11-.87.46-1.65,1.07-2.32,1.78-1.57,1.65-2.53,3.89-2.53,6.35s.96,4.69,2.53,6.34c-.68.72-1.47,1.33-2.34,1.79-1.93-2.15-3.1-4.99-3.1-8.11s1.18-5.99,3.13-8.15c.68-.76,1.46-1.44,2.32-2,1.92-1.28,4.23-2.02,6.71-2.02,6.72,0,12.16,5.44,12.16,12.16Z"/></g></svg>