<?xml version="1.0" encoding="UTF-8"?><svg id="Layer_2" xmlns="http://www.w3.org/2000/svg" viewBox="0 0 64 64"><g transform="translate(-4.2634,9.7389) scale(1.505752)" stroke-width="0.885493"><path d="M11.15,33.58h-5.39c-.26,0-.49-.2-.49-.46V14.82c0-.25.21-.46.49-.46h36.6c.26,0,.49.21.49.46v18.31c0,.25-.21.46-.49.46H11.15Z" fill="none" stroke="#000" stroke-linecap="round" stroke-linejoin="round"/><line x1="5.39" y1="17.87" x2="42.81" y2="17.87" fill="none" stroke="#000" stroke-linecap="round" stroke-linejoin="round"/><line x1="5.39" y1="21.92" x2="42.81" y2="21.92" fill="none" stroke="#000" stroke-linecap="round" stroke-linejoin="round"/><line x1="5.39" y1="25.96" x2="42.81" y2="25.96" fill="none" stroke="#000" stroke-linecap="round" stroke-linejoin="round"/><line x1="5.39" y1="30.01" x2="42.81" y2="30.01" fill="none" stroke="#000" stroke-linecap="round" stroke-linejoin="round"/><line x1="10.39" y1="14.54" x2="10.39" y2="17.85" fill="none" stroke="#000" stroke-linecap="round" stroke-linejoin="round"/><line x1="18.04" y1="14.54" x2="18.04" y2="17.85" fill="none" stroke="#000" stroke-linecap="round" stroke-linejoin="round"/><line x1="21.66" y1="14.54" x2="21.66" y2="17.85" fill="none" stroke="#000" stroke-linecap="round" stroke-linejoin="round"/><line x1="34.25" y1="14.54" x2="34.25" y2="17.85" fill="none" stroke="#000" stroke-linecap="round" stroke-linejoin="round"/><line x1="26.64" y1="14.54" x2="26.64" y2="17.85" fill="none" stroke="#000" stroke-linecap="round" stroke-linejoin="round"/><line x1="35.28" y1="33.37" x2="35.28" y2="30.05" fill="none" stroke="#000" stroke-linecap="round" stroke-linejoin="round"/><line x1="27.63" y1="33.37" x2="27.63" y2="30.05" fill="none" stroke="#000" stroke-linecap="round" stroke-linejoin="round"/><line x1="24.01" y1="33.37" x2="24.01" y2="30.05" fill="none" stroke="#000" stroke-linecap="round" stroke-linejoin="round"/><line x1="11.42" y1="33.37" x2="11.42" y2="30.05" fill="none" stroke="#000" stroke-linecap="round" stroke-linejoin="round"/><line x1="19.03" y1="33.37" x2="19.03" y2="30.05" fill="none" stroke="#000" stroke-linecap="round" stroke-linejoin="round"/><line x1="8.37" y1="22.29" x2="8.37" y2="25.61" fill="none" stroke="#000" stroke-linecap="round" stroke-linejoin="round"/><line x1="14.42" y1="22.29" x2="14.42" y2="25.61" fill="none" stroke="#000" stroke-linecap="round" stroke-linejoin="round"/><line x1="12.65" y1="26.24" x2="12.65" y2="29.56" fill="none" stroke="#000" stroke-linecap="round" stroke-linejoin="round"/><line x1="17.17" y1="26.24" x2="17.17" y2="29.56" fill="none" stroke="#000" stroke-linecap="round" stroke-linejoin="round"/><line x1="25.44" y1="26.24" x2="25.44" y2="29.56" fill="none" stroke="#000" stroke-linecap="round" stroke-linejoin="round"/><line x1="29.6" y1="26.24" x2="29.6" y2="29.56" fill="none" stroke="#000" stroke-linecap="round" stroke-linejoin="round"/><line x1="36.7" y1="26.24" x2="36.7" y2="29.56" fill="none" stroke="#000" stroke-linecap="round" stroke-linejoin="round"/><line x1="19.48" y1="22.29" x2="19.48" y2="25.61" fill="none" stroke="#000" stroke-linecap="round" stroke-linejoin="round"/><line x1="33.67" y1="22.29" x2="33.67" y2="25.61" fill="none" stroke="#000" stroke-linecap="round" stroke-linejoin="round"/><line x1="27.39" y1="22.29" x2="27.39" y2="25.61" fill="none" stroke="#000" stroke-linecap="round" stroke-linejoin="round"/><line x1="37.38" y1="21.75" x2="37.38" y2="18.43" fill="none" stroke="#000" stroke-linecap="round" stroke-linejoin="round"/><line x1="29.73" y1="21.75" x2="29.73" y2="18.43" fill="none" stroke="#000" stroke-linecap="round" stroke-linejoin="round"/><line x1="25" y1="21.75" x2="25" y2="18.43" fill="none" stroke="#000" stroke-linecap="round" stroke-linejoin="round"/><line x1="12.42" y1="21.75" x2="12.42" y2="18.43" fill="none" stroke="#000" stroke-linecap="round" stroke-linejoin="round"/><line x1="20.03" y1="21.75" x2="20.03" y2="18.43" fill="none" stroke="#000" stroke-linecap="round" stroke-linejoin="round"/></g></svg>