<?xml version="1.0" encoding="UTF-8"?><svg xmlns="http://www.w3.org/2000/svg" width="48" height="48" viewBox="0 0 48 48"><g  transform="translate(0.0000,0.0000) scale(1.000000)"><g transform="translate(0.0000,0.0000)"><g stroke-width="1.07805" transform="translate(2.2014,2.2014) scale(0.927602)">
  <desc>
    Whistle 2 Streamline Icon: https://streamlinehq.com
  </desc>
  <defs></defs>
  <path d="M25.947916666666664 30.84570833333333a4.895833333333333 4.895833333333333 0 1 0 9.791666666666666 0 4.895833333333333 4.895833333333333 0 1 0 -9.791666666666666 0" stroke-miterlimit="10" fill="none" stroke="#000000" stroke-width="1.07805"></path>
  <path d="M19.583333333333332 18.604166666666664v-0.47a1.975958333333333 1.975958333333333 0 0 0 -1.975958333333333 -1.975958333333333H3.427083333333333a1.9583333333333333 1.9583333333333333 0 0 0 -1.9583333333333333 1.9583333333333333v5.959208333333334a1.9700833333333332 1.9700833333333332 0 0 0 1.9583333333333333 1.9583333333333333c11.7265 0.05875 12.887791666666667 7.715833333333333 13.57125 9.668291666666667a14.712958333333333 14.712958333333333 0 0 0 19.855541666666664 8.575541666666666 14.491666666666667 14.491666666666667 0 0 0 8.366 -10.361541666666668 14.703166666666666 14.703166666666666 0 0 0 -14.376125 -17.758166666666664h-1.9583333333333333V18.604166666666664a1.9583333333333333 1.9583333333333333 0 0 1 -1.9583333333333333 1.9583333333333333H21.541666666666664a1.9583333333333333 1.9583333333333333 0 0 1 -1.9583333333333333 -1.9583333333333333Z" stroke-linejoin="round" stroke-linecap="round" fill="none" stroke="#000000" stroke-width="1.07805"></path>
  <path d="M13.21875 5.3834583333333335 17.625 9.789708333333332" stroke-linecap="round" stroke-miterlimit="10" fill="none" stroke="#000000" stroke-width="1.07805"></path>
  <path d="m34.760416666666664 5.3834583333333335 -4.40625 4.40625" stroke-linecap="round" stroke-miterlimit="10" fill="none" stroke="#000000" stroke-width="1.07805"></path>
  <path d="m23.989583333333332 1.4667916666666667 0 6.854166666666666" stroke-linecap="round" stroke-miterlimit="10" fill="none" stroke="#000000" stroke-width="1.07805"></path>
</g></g></g></svg>