<?xml version="1.0" encoding="UTF-8"?><svg id="Layer_2" xmlns="http://www.w3.org/2000/svg" viewBox="0 0 64 64"><g transform="translate(-4.1219,-3.9237) scale(1.497806)" stroke-width="0.890191"><path d="M30.24,38.66h-12.48c-4.05,0-4.83,1.34-4.83,3.02h0v-.12l.02,1.3h22.29l-.02-1.3v.12h0c0-1.68-.79-3.02-4.83-3.02h-12.48" fill="none" stroke="#000" stroke-linecap="round" stroke-linejoin="round"/><path d="M36.13,10.02h3.87c.28,0,.52.23.52.52" fill="none" stroke="#000" stroke-linecap="round" stroke-linejoin="round"/><path d="M40.52,10.97v-.47.59c0,3.37-.95,6.22-3.08,8.92-.82,1.08-1.92,1.52-2.81,1.93" fill="none" stroke="#000" stroke-linecap="round" stroke-linejoin="round"/><path d="M12.13,10.02h-3.87c-.28,0-.52.23-.52.52" fill="none" stroke="#000" stroke-linecap="round" stroke-linejoin="round"/><path d="M7.73,10.97v-.47s0,.59,0,.59c0,3.37.95,6.22,3.08,8.92.82,1.08,1.92,1.52,2.81,1.93" fill="none" stroke="#000" stroke-linecap="round" stroke-linejoin="round"/><path d="M18.18,28.67h0s-.01-.02-.02-.02l.02.02Z" fill="none" stroke="#000" stroke-linecap="round" stroke-linejoin="round"/><path d="M35.27,5.07H12.89c-.41,0-.75.33-.75.75l.21,9.29c.06,2.71.57,5.41,1.69,7.88.78,1.7,1.77,3.28,2.96,4.63.35.37.73.72,1.15,1.03v.02c.34.26.68.53.98.85,1.05,1.11,1.9,2.8,2.27,4.07h0c.33,1.32.28,3.35.14,5.07h5.12c-.13-1.72-.18-3.75.14-5.07h0c.36-1.27,1.21-2.96,2.27-4.07.31-.33.65-.6.99-.86l-.02.02.02-.02c.57-.43,1.08-.94,1.5-1.5,1.37-1.74,2.46-3.7,3.23-5.81.74-2.05,1.05-4.24,1.09-6.42l.14-9.1c0-.42-.35-.75-.75-.75Z" fill="none" stroke="#000" stroke-linecap="round" stroke-linejoin="round"/><polygon points="24.08 10.76 25.49 15.08 30.06 15.08 26.37 17.75 27.78 22.08 24.08 19.41 20.38 22.08 21.8 17.75 18.1 15.08 22.67 15.08 24.09 10.76 24.08 10.76" fill="none" stroke="#000" stroke-linecap="round" stroke-linejoin="round"/></g></svg>