<?xml version="1.0" encoding="UTF-8"?><svg xmlns="http://www.w3.org/2000/svg" width="47" height="48" viewBox="0 0 47 48"><g  transform="translate(0.0000,0.0000) scale(1.000000)"><g transform="translate(-0.5000,0.0000)"><g transform="translate(0.5000,0.0000) scale(1.000000)"><g transform="translate(-2.3947,-2.3263) scale(1.078947)" stroke-width="0.926829"><rect x="9.1" y="12.65" width="29.83" height="20.71" rx=".85" ry=".85" transform="translate(1.01 47.02) rotate(-90)" fill="none" stroke="#000" stroke-linecap="round" stroke-linejoin="round"/><path d="M37.29,40.57V6.33c0-.49-.39-.88-.88-.88H11.62c-.49,0-.88.39-.88.88v34.2s26.55.04,26.55.04Z" fill="none" stroke="#000" stroke-linecap="round" stroke-linejoin="round"/><rect x="22.6" y="23.5" width="2.83" height="36.93" rx=".85" ry=".85" transform="translate(-17.96 65.98) rotate(-90)" fill="none" stroke="#000" stroke-linecap="round" stroke-linejoin="round"/><line x1="24.01" y1="8.12" x2="24.01" y2="37.79" fill="none" stroke="#000" stroke-linecap="round" stroke-linejoin="round"/><line x1="13.7" y1="23.01" x2="34.28" y2="23.01" fill="none" stroke="#000" stroke-linecap="round" stroke-linejoin="round"/></g></g></g></g></svg>