<?xml version="1.0" encoding="UTF-8"?><svg xmlns="http://www.w3.org/2000/svg" width="44" height="48" viewBox="0 0 44 48"><g  transform="translate(0.0000,0.0000) scale(1.000000)"><g transform="translate(-2.0000,0.0000)"><g transform="translate(2.0000,0.0000) scale(1.000000)"><g transform="translate(-4.0317,-2.0317) scale(1.084656)" stroke-width="0.921951"><line x1="6.96" y1="19.78" x2="41.04" y2="19.78" fill="none" stroke="#000" stroke-linecap="round" stroke-linejoin="round"/><path d="M19.6,13.19v-.48h0v-5.44c0-1.19-.97-2.16-2.16-2.16s-2.16.97-2.16,2.16v5.95l4.31-.03h0Z" fill="none" stroke="#000" stroke-linecap="round" stroke-linejoin="round"/><path d="M32.73,13.19v-.48h0v-5.44c0-1.19-.97-2.16-2.16-2.16s-2.16.97-2.16,2.16v5.95l4.31-.03h0Z" fill="none" stroke="#000" stroke-linecap="round" stroke-linejoin="round"/><path d="M40.15,10.29h-7.42v2.49h0v.48h0l-4.32.03v-3s-8.81,0-8.81,0v2.49h0v.48h0l-4.32.03v-3s-7.42,0-7.42,0c-.5,0-.9.4-.9.9v30.8c0,.5.4.9.9.9h32.29c.5,0,.9-.4.9-.9V11.19c0-.5-.4-.9-.9-.9h0Z" fill="none" stroke="#000" stroke-linecap="round" stroke-linejoin="round"/><path d="M25.94,37.84h0l-1.75-1.77-.04-.03s-.06-.03-.11-.03c-.04,0-.08,0-.12.03h-.03s-1.71,1.75-1.71,1.75" fill="none" stroke="#000" stroke-linecap="round" stroke-linejoin="round"/><path d="M27.82,35.03h0l-3.5-3.54-.08-.06c-.09-.06-.13-.05-.22-.06-.08,0-.17.02-.24.05l-.05.02-3.43,3.48" fill="none" stroke="#000" stroke-linecap="round" stroke-linejoin="round"/><path d="M20.25,27.8h0l3.5,3.54.08.06c.09.06.13.05.22.06.08,0,.17-.02.24-.05l.05-.02,3.43-3.48" fill="none" stroke="#000" stroke-linecap="round" stroke-linejoin="round"/><path d="M22.16,24.62h0l1.75,1.77.04.03s.06.03.11.03c.04,0,.08,0,.12-.03h.03s1.71-1.75,1.71-1.75" fill="none" stroke="#000" stroke-linecap="round" stroke-linejoin="round"/><line x1="24.03" y1="23.78" x2="24.03" y2="38.71" fill="none" stroke="#000" stroke-linecap="round" stroke-linejoin="round"/><path d="M17.5,33.13h0l1.77-1.75.03-.04s.03-.06.03-.11c0-.04,0-.08-.03-.12v-.03s-1.75-1.71-1.75-1.71" fill="none" stroke="#000" stroke-linecap="round" stroke-linejoin="round"/><path d="M30.71,29.36h0l-1.77,1.75-.03.04s-.03.06-.03.11c0,.04,0,.08.03.12v.03s1.75,1.71,1.75,1.71" fill="none" stroke="#000" stroke-linecap="round" stroke-linejoin="round"/><line x1="31.56" y1="31.23" x2="16.62" y2="31.23" fill="none" stroke="#000" stroke-linecap="round" stroke-linejoin="round"/></g></g></g></g></svg>