<?xml version="1.0" encoding="UTF-8"?><svg xmlns="http://www.w3.org/2000/svg" width="43.4" height="48" viewBox="0 0 43.4 48"><g  transform="translate(0.0000,0.0000) scale(1.000000)"><g transform="translate(-2.3000,0.0000)"><g transform="translate(2.3000,0.0000) scale(1.000000)"><g transform="translate(-4.1549,-1.9090) scale(1.081794)" stroke-width="0.924390"><path d="M22.19,26.71v-11.56c0-1.01.82-1.83,1.83-1.83s1.83.82,1.83,1.83v11.56" fill="none" stroke="#000" stroke-linecap="round" stroke-linejoin="round"/><path d="M25.85,29.93v-11.61c0-1.01.82-1.83,1.83-1.83s1.83.82,1.83,1.83v13.51" fill="none" stroke="#000" stroke-linecap="round" stroke-linejoin="round"/><path d="M18.56,29.95v-11.56c0-1.01.82-1.83,1.83-1.83s1.83.82,1.83,1.83v11.92" fill="none" stroke="#000" stroke-linecap="round" stroke-linejoin="round"/><path d="M29.49,31.06v-5.48c0-1.01.89-1.65,1.88-1.65s1.83.82,1.83,1.83v5.17c.02,6.58-4.11,11.92-9.15,11.92s-9.12-5.34-9.12-11.92v-5.17c0-1.01.82-1.83,1.83-1.83s1.83.82,1.83,1.83v5.48" fill="none" stroke="#000" stroke-linecap="round" stroke-linejoin="round"/><path d="M39.47,5.04H10.98s-2.64,0-2.64,0c-.66,0-1.18.54-1.18,1.18l.1,23.99c0,.66.54,1.18,1.18,1.18h6.49c0-.16-.02-.32-.02-.48v-5.17c0-1.01.82-1.83,1.83-1.83s1.76.77,1.81,1.74v-7.28c0-1.01.82-1.83,1.83-1.83s1.76.77,1.81,1.74v-3.15c0-1.01.82-1.83,1.83-1.83s1.83.82,1.83,1.83v3.17c0-1.01.82-1.83,1.83-1.83s1.83.82,1.83,1.83v7.18c.05-.96.9-1.58,1.86-1.58s1.83.82,1.83,1.83v5.17c0,.16-.01.32-.02.48h6.28c.66,0,1.18-.54,1.18-1.18V6.22c0-.66-.54-1.18-1.18-1.18Z" fill="none" stroke="#000" stroke-linecap="round" stroke-linejoin="round"/></g></g></g></g></svg>