<?xml version="1.0" encoding="UTF-8"?><svg id="Layer_2" xmlns="http://www.w3.org/2000/svg" viewBox="0 0 64 64"><g transform="translate(-4.4933,3.8178) scale(1.511111)" stroke-width="0.882353"><rect x="31.74" y="10.67" width="6.02" height="26.72" rx=".85" ry=".85" fill="none" stroke="#000" stroke-linecap="round" stroke-linejoin="round"/><path d="M6.57,20.95h3.15v-5.95h-3.15c-.63,0-1.13.51-1.13,1.13l-.02,3.7h.02c0,.63.51,1.13,1.13,1.13Z" fill="none" stroke="#000" stroke-linecap="round" stroke-linejoin="round"/><path d="M15.76,20.99h16v-5.95H15.76v5.95Z" fill="none" stroke="#000" stroke-linecap="round" stroke-linejoin="round"/><path d="M41.73,15.03h-3.94v5.95h3.94c.63,0,1.13-.51,1.13-1.13v-3.7c0-.63-.51-1.13-1.13-1.13Z" fill="none" stroke="#000" stroke-linecap="round" stroke-linejoin="round"/><path d="M6.57,26.9h3.15v-5.95h-3.15c-.63,0-1.13.51-1.13,1.13l-.02,3.7h.02c0,.63.51,1.13,1.13,1.13Z" fill="none" stroke="#000" stroke-linecap="round" stroke-linejoin="round"/><path d="M15.76,26.94h16v-5.95H15.76v5.95Z" fill="none" stroke="#000" stroke-linecap="round" stroke-linejoin="round"/><path d="M41.73,20.98h-3.94v5.95h3.94c.63,0,1.13-.51,1.13-1.13v-3.7c0-.63-.51-1.13-1.13-1.13Z" fill="none" stroke="#000" stroke-linecap="round" stroke-linejoin="round"/><path d="M6.57,32.85h3.15v-5.95h-3.15c-.63,0-1.13.51-1.13,1.13l-.02,3.7h.02c0,.63.51,1.13,1.13,1.13Z" fill="none" stroke="#000" stroke-linecap="round" stroke-linejoin="round"/><path d="M15.76,32.88h16v-5.95H15.76v5.95Z" fill="none" stroke="#000" stroke-linecap="round" stroke-linejoin="round"/><path d="M41.73,26.93h-3.94v5.95h3.94c.63,0,1.13-.51,1.13-1.13v-3.7c0-.63-.51-1.13-1.13-1.13Z" fill="none" stroke="#000" stroke-linecap="round" stroke-linejoin="round"/><circle cx="34.75" cy="17.83" r="1.17" fill="none" stroke="#000" stroke-linecap="round" stroke-linejoin="round"/><circle cx="34.75" cy="29.95" r="1.17" fill="none" stroke="#000" stroke-linecap="round" stroke-linejoin="round"/><rect x="9.69" y="10.67" width="6.02" height="26.72" rx=".85" ry=".85" fill="none" stroke="#000" stroke-linecap="round" stroke-linejoin="round"/><circle cx="12.7" cy="17.83" r="1.17" fill="none" stroke="#000" stroke-linecap="round" stroke-linejoin="round"/><circle cx="12.7" cy="29.95" r="1.17" fill="none" stroke="#000" stroke-linecap="round" stroke-linejoin="round"/></g></svg>