<?xml version="1.0" encoding="UTF-8"?><svg xmlns="http://www.w3.org/2000/svg" width="48" height="48" viewBox="0 0 48 48"><g  transform="translate(0.0000,0.0000) scale(1.000000)"><g transform="translate(0.0000,0.0000)"><g transform="translate(0.0000,0.0000) scale(1.000000)"><g transform="translate(-2.0317,-2.0317) scale(1.084656)" stroke-width="0.921951"><path d="M24.01,42.86c10.41,0,18.86-8.44,18.86-18.86S34.41,5.14,24.01,5.14h0c-10.42,0-18.87,8.45-18.87,18.86s8.45,18.86,18.86,18.86h.01Z" fill="none" stroke="#000" stroke-linecap="round" stroke-linejoin="round"/><path d="M20.83,5.44c1.01.23,2.37,2.26,2.37,3.55,0,1.14-.49,2.11-1.33,2.74l-6.58,5.27c-1.37,1.08-3.05,1.59-4.15.25-1.08-1.37-1.02-3.23.32-4.33l1.16-.94-.4-2.39h.01s-.01-.31-.01-.31" fill="none" stroke="#000" stroke-linecap="round" stroke-linejoin="round"/><path d="M29.34,26.96l3.91,5.3c1.88,3.2-.94,5.11-2.53,5.83-1.39.56-2.98-.12-3.52-1.52l-.4-1.02c-.88.55-3.61.22-4.53-.69-.81-.8-1.15-1.84-.99-2.88l.93-8.38c.21-1.74,1.78-2.99,3.51-2.82,1.74.21,2.99,1.78,2.82,3.51l-.14,1.27.94,1.39Z" fill="none" stroke="#000" stroke-linecap="round" stroke-linejoin="round"/><path d="M5.51,27.78c.94-3.59,4.46-3.46,6.09-2.84,1.38.58,2.02,2.19,1.41,3.56l-.44,1c1.01.23,2.71,2.4,2.71,3.69,0,1.14-.49,2.11-1.33,2.74l-2.6,2.08" fill="none" stroke="#000" stroke-linecap="round" stroke-linejoin="round"/><path d="M32.56,7.53l.04,7.85c0,2.94,1.65,3.52,3.02,3.42h1.75l.63.87c.85,1.2,2.53,1.46,3.71.59.25-.17.47-.4.63-.65l-.25-1.03h0" fill="none" stroke="#000" stroke-linecap="round" stroke-linejoin="round"/></g></g></g></g></svg>