<?xml version="1.0" encoding="UTF-8"?><svg id="Layer_2" xmlns="http://www.w3.org/2000/svg" viewBox="0 0 64 64"><g transform="translate(-4.6961,-4.3912) scale(1.530104)" stroke-width="0.871401"><line x1="14.21" y1="40.35" x2="7.65" y2="33.79" fill="none" stroke="#000" stroke-linecap="round" stroke-linejoin="round"/><line x1="38.25" y1="16.54" x2="31.58" y2="9.86" fill="none" stroke="#000" stroke-linecap="round" stroke-linejoin="round"/><path d="M33.11,8.03L7.92,33.09c-.33.33-.81.77-.81,1.19l-1.61,7.57v.11c.05.11.07.13.14.2.09.07.27.14.27.14h.07l7.89-1.53c.32-.13.17-.07.49-.34l25.8-25.29-.22-.29-6.68-6.68-.14-.14h0Z" fill="none" stroke="#000" stroke-linecap="round" stroke-linejoin="round"/><path d="M40.16,15.15c.84-.9,2.33-3.08,2.33-4.41,0-2.78-2.26-5.04-5.04-5.04-1.31,0-3.43,1.51-4.33,2.33" fill="none" stroke="#000" stroke-linecap="round" stroke-linejoin="round"/><line x1="9.75" y1="35.9" x2="33.58" y2="12.06" fill="none" stroke="#000" stroke-linecap="round" stroke-linejoin="round"/><line x1="12.15" y1="38.3" x2="35.99" y2="14.46" fill="none" stroke="#000" stroke-linecap="round" stroke-linejoin="round"/><line x1="6.34" y1="38.99" x2="9.01" y2="41.66" fill="none" stroke="#000" stroke-linecap="round" stroke-linejoin="round"/></g></svg>