<?xml version="1.0" encoding="UTF-8"?><svg xmlns="http://www.w3.org/2000/svg" width="40.1" height="48" viewBox="0 0 40.1 48"><g  transform="translate(0.0000,0.0000) scale(1.000000)"><g transform="translate(-4.0000,0.0000)"><g transform="translate(4.0000,0.0000) scale(1.000000)"><g transform="translate(-5.9775,-2.0317) scale(1.084656)" stroke-width="0.921951">
  <!-- Generator: Adobe Illustrator 30.3.0, SVG Export Plug-In . SVG Version: 2.1.3 Build 182)  -->
  <defs>
    <style>
      .st0 {
        fill: none;
        stroke: #000;
        stroke-linecap: round;
        stroke-linejoin: round;
      }
    </style>
  </defs>
  <line class="st0" x1="8.84" y1="18.23" x2="38.78" y2="18.23"/>
  <path class="st0" d="M20.05,12.36v-.43h0v-4.84c0-1.06-.86-1.92-1.92-1.92s-1.92.86-1.92,1.92v5.3l3.84-.03h0Z"/>
  <path class="st0" d="M31.74,12.36v-.43h0v-4.84c0-1.06-.86-1.92-1.92-1.92s-1.92.86-1.92,1.92v5.3l3.84-.03h0Z"/>
  <path class="st0" d="M38.34,9.78h-6.61v2.22h0v.43h0l-3.85.03v-2.67h-7.84v2.22h0v.43h0l-3.85.03v-2.67h-6.61c-.45,0-.8.36-.8.8v27.84c0,.45-.07.39.38.39h29.17c.45,0,.8-.03.8-.03V10.58c0-.45-.36-.8-.8-.8h.01Z"/>
  <path class="st0" d="M8.79,38.82l.04,3.26c0,.45.36.8.81.8h28.73c.45,0,.81-.36.81-.8l-.03-3.29-30.35.03h-.01Z"/>
  <path class="st0" d="M8.79,38.82l.02,1.29c0,.45.39.8.84.8h28.71c.45,0,.81-.36.81-.8v-1.32l-30.37.03h-.01Z"/>
  <rect class="st0" x="33.31" y="20.48" width="3.73" height="3.95" rx=".85" ry=".85" transform="translate(12.72 57.62) rotate(-90)"/>
  <rect class="st0" x="22.09" y="20.48" width="3.73" height="3.95" rx=".85" ry=".85" transform="translate(1.5 46.4) rotate(-90)"/>
  <rect class="st0" x="27.67" y="20.48" width="3.73" height="3.95" rx=".85" ry=".85" transform="translate(7.08 51.98) rotate(-90)"/>
  <rect class="st0" x="16.38" y="20.48" width="3.73" height="3.95" rx=".85" ry=".85" transform="translate(-4.21 40.69) rotate(-90)"/>
  <rect class="st0" x="10.77" y="20.48" width="3.73" height="3.95" rx=".85" ry=".85" transform="translate(-9.81 35.09) rotate(-90)"/>
  <rect class="st0" x="33.31" y="26.77" width="3.73" height="3.95" rx=".85" ry=".85" transform="translate(6.43 63.92) rotate(-90)"/>
  <rect class="st0" x="22.09" y="26.77" width="3.73" height="3.95" rx=".85" ry=".85" transform="translate(-4.79 52.7) rotate(-90)"/>
  <rect class="st0" x="27.67" y="26.77" width="3.73" height="3.95" rx=".85" ry=".85" transform="translate(.78 58.28) rotate(-90)"/>
  <rect class="st0" x="16.38" y="26.77" width="3.73" height="3.95" rx=".85" ry=".85" transform="translate(-10.51 46.99) rotate(-90)"/>
  <rect class="st0" x="10.77" y="26.77" width="3.73" height="3.95" rx=".85" ry=".85" transform="translate(-16.11 41.38) rotate(-90)"/>
  <rect class="st0" x="33.31" y="33" width="3.73" height="3.95" rx=".85" ry=".85" transform="translate(.2 70.15) rotate(-90)"/>
  <rect class="st0" x="22.09" y="33" width="3.73" height="3.95" rx=".85" ry=".85" transform="translate(-11.02 58.93) rotate(-90)"/>
  <rect class="st0" x="27.67" y="33" width="3.73" height="3.95" rx=".85" ry=".85" transform="translate(-5.45 64.5) rotate(-90)"/>
  <rect class="st0" x="16.38" y="33" width="3.73" height="3.95" rx=".85" ry=".85" transform="translate(-16.73 53.22) rotate(-90)"/>
  <rect class="st0" x="10.77" y="33" width="3.73" height="3.95" rx=".85" ry=".85" transform="translate(-22.34 47.61) rotate(-90)"/>
</g></g></g></g></svg>