<svg viewBox="843.14 602.35 165.19 174.00" xmlns="http://www.w3.org/2000/svg" xmlns:xlink="http://www.w3.org/1999/xlink" width="64" height="64" overflow="hidden"><defs>
<style>
.cls-1, .cls-2, .cls-3, .cls-4, .cls-5, .cls-6, .cls-7 {
fill: none;
}

.cls-2 {
stroke-width: 1px;
}

.cls-2, .cls-3, .cls-4, .cls-5, .cls-6, .cls-7 {
stroke: #231f20;
}

.cls-2, .cls-3, .cls-4, .cls-5, .cls-7 {
stroke-linejoin: round;
}

.cls-2, .cls-3, .cls-4, .cls-7 {
stroke-linecap: round;
}

.cls-3 {
stroke-width: 1px;
}

.cls-4 {
stroke-width: 1px;
}

.cls-8 {
fill: #231f20;
}

.cls-6 {
stroke-miterlimit: 10;
}

.cls-9 {
clip-path: url(#clippath-1);
}

.cls-10 {
font-family: MyriadHebrew-Regular, 'Myriad Hebrew';
font-size: 22px;
}

.cls-11 {
clip-path: url(#clippath);
}
</style>
<clipPath id="clippath">
<path class="cls-1" d="M280.1,111.04l.02.3v47.83c0-.06,100.25,0,100.25,0v-44.21l-.06-4.2c-2.35-.64-4.76-1.19-7.22-1.66l-.12.36c-8.22,19.61-24,32.47-42.34,32.47s-34.27-13.08-42.47-32.77l-.15-.09c-2.75.57-5.3,1.2-7.91,1.97Z" />
</clipPath>
<clipPath id="clippath-1">
<rect class="cls-1" x="279.08" y="108.56" width="101.29" height="51.14" />
</clipPath>
</defs>

<g>
<path class="cls-7" d="M102.23,87.98l-.03.09-.1.27c-.67,1.19-1.92,1.96-3.38,1.96-1.75,0-3.23-1.15-3.72-2.74l-4.64-14.66c-.27-.74-.41-1.53-.41-2.36,0-3.83,3.1-6.93,6.93-6.93,1.05,0,2.05.24,2.94.66l.05-.52c.12-1.4.23-1.88.44-3.24l.04-.3s-.36-.14-.4-.15c-1-.31-2.07-.48-3.17-.48-5.9,0-10.67,4.78-10.67,10.67,0,1.28.22,2.5.64,3.64l7.15,22.58c.76,2.44,3.04,4.22,5.74,4.22s5.11-1.88,5.8-4.44l-.06-.12-.07-.15c-1.25-2.57-2.16-5.14-3.03-8h-.05Z" />
<path class="cls-7" d="M90.35,72.9c-.27-.74-.41-1.53-.41-2.36,0-3.83,3.1-6.93,6.93-6.93,1.05,0,2.05.24,2.94.66-.17,1.87-.26,3.78-.26,5.71,0,6.37.98,12.42,2.68,18v.09l-.13.27c-.67,1.19-1.92,1.96-3.38,1.96-1.75,0-3.23-1.15-3.72-2.74l-4.64-14.66h-.01,0Z" />
<path class="cls-7" d="M173.51,87.91l.03.09.1.27c.67,1.19,1.92,1.96,3.38,1.96,1.75,0,3.23-1.15,3.72-2.74l4.64-14.66c.27-.74.41-1.53.41-2.36,0-3.83-3.1-6.93-6.93-6.93-1.05,0-2.05.24-2.94.66l-.05-.52c-.12-1.4-.23-1.88-.44-3.24l-.04-.3s.36-.14.4-.15c1-.31,2.07-.48,3.17-.48,5.9,0,10.67,4.78,10.67,10.67,0,1.28-.22,2.5-.64,3.64l-7.15,22.58c-.76,2.44-3.04,4.22-5.74,4.22s-5.11-1.88-5.8-4.44l.06-.12.07-.15c1.25-2.57,2.16-5.14,3.03-8h.05,0Z" />
<path class="cls-7" d="M185.39,72.83c.27-.74.41-1.53.41-2.36,0-3.83-3.1-6.93-6.93-6.93-1.05,0-2.05.24-2.94.66.17,1.87.26,3.78.26,5.71,0,6.37-.98,12.42-2.68,18v.09l.13.27c.67,1.19,1.92,1.96,3.38,1.96,1.75,0,3.23-1.15,3.72-2.74l4.64-14.66h0,0Z" />
<g>
<path class="cls-7" d="M105.08,38.9c-2.31,3.19-4,8.53-5.3,13.74-.31,1.25-.87,3.98-1.09,6.84.53.11,1.06.26,1.62.49l.05.02.27.07c2.74-1.3,4.82-5.46,6.18-13.13.65-3.65.52-6.09.34-7.39-.71-.2-1.4-.42-2.07-.63h0Z" />
<path class="cls-7" d="M165.33,30.37c.06.03.12.08.17.11.06.04.12.07.17.11-.19-.12-.35-.22-.35-.22h.01Z" />
<path class="cls-7" d="M175.41,60.13c-3.03-2.54-6.02-6.44-7.32-16-.6-4.37-.81-5.36-.81-5.36-8.35,2.78-18.32,4.43-29.29,4.58-12.11.16-24.81-1.74-33.76-4.83-.16-.06-.23-.25-.14-.4,5.59-8.74,19.93-14.82,34.91-15.02,10.02-.14,19.83,3.03,26.5,7.38.25.15.49.31.75.49,4.71,3.35,10.71,11.69,12.35,19.96.31,1.58.92,5.21,1.04,8.57-1.94,0-4.24.63-4.24.63h0Z" />
</g>
<path class="cls-7" d="M168.09,44.13c-.54-4.38-.81-5.36-.81-5.36-8.11,2.85-18.07,4.4-29.29,4.58-10.6.18-21.98-1.39-30.58-3.83l-.22.35c.1,1.41.13,4.14-.38,7.05-1.36,7.66-3.75,11.95-6.48,13.25-.47,3.12-.73,6.34-.73,9.63,0,27.4,17.13,49.61,38.27,49.61s38.27-22.21,38.27-49.61c0-3.33-.26-6.59-.74-9.74-3.21-2.29-6.27-7.54-7.31-15.93Z" />
</g>

<line class="cls-6" x1="94.08" y1="109.88" x2="94.08" y2="159.33" />

<line class="cls-5" x1="117.76" y1="111.68" x2="117.76" y2="159.33" />

<line class="cls-7" x1="69.89" y1="119.97" x2="69.86" y2="159.33" />

<line class="cls-7" x1="74.07" y1="116.48" x2="74.04" y2="159.33" />

<line class="cls-7" x1="98.25" y1="109.15" x2="98.22" y2="159.33" />

<line class="cls-7" x1="121.38" y1="118.61" x2="121.38" y2="159.33" />

<line class="cls-7" x1="125.14" y1="128.24" x2="125.14" y2="159.33" />

<line class="cls-5" x1="158.16" y1="159.33" x2="158.16" y2="111.68" />

<line class="cls-7" x1="154.54" y1="159.33" x2="154.54" y2="118.61" />

<line class="cls-7" x1="150.78" y1="159.33" x2="150.78" y2="128.24" />

<line class="cls-7" x1="102.23" y1="108.34" x2="102.23" y2="159.33" />

<line class="cls-6" x1="181.66" y1="140.84" x2="181.66" y2="109.32" />

<line class="cls-7" x1="177.53" y1="140.84" x2="177.49" y2="108.85" />

<line class="cls-7" x1="173.51" y1="140.84" x2="173.51" y2="108.34" />

<line class="cls-7" x1="78.22" y1="114.6" x2="78.22" y2="159.33" />

<line class="cls-7" x1="205.5" y1="159.33" x2="205.47" y2="119.97" />

<line class="cls-7" x1="201.32" y1="159.33" x2="201.29" y2="116.48" />

<line class="cls-7" x1="197.14" y1="159.33" x2="197.14" y2="114.6" />

<line class="cls-5" x1="64.77" y1="148.86" x2="134.04" y2="148.86" />

<line class="cls-5" x1="64.77" y1="144.51" x2="131.79" y2="144.51" />

<path class="cls-7" d="M167.16,159.33v-16.7c0-.73.59-1.33,1.33-1.33h21.09c.73,0,1.33.59,1.33,1.33v16.7h-23.75Z" />

<line class="cls-7" x1="148.47" y1="132.89" x2="210.3" y2="132.97" />

<line class="cls-7" x1="64.77" y1="132.89" x2="127" y2="132.89" />

<line class="cls-5" x1="150.16" y1="128.54" x2="210.3" y2="128.62" />

<line class="cls-7" x1="65.62" y1="128.54" x2="125.16" y2="128.54" />

<path class="cls-7" d="M137.87,119.41c-6.81,0-13.2-2.32-18.75-6.36l18.6,45.4,19.18-45.61c-5.61,4.18-12.1,6.58-19.03,6.58h0Z" />

<g>
<path class="cls-7" d="M146.34,90.68c-1.95,2.57-5.03,4.22-8.5,4.22-3.68,0-6.93-1.87-8.85-4.71" />
<path class="cls-7" d="M146.16,54.96c1.91-1.78,4.47-2.87,7.28-2.87,2.98,0,5.68,1.22,7.62,3.2" />
<path class="cls-7" d="M114.68,54.96c1.91-1.78,4.47-2.87,7.28-2.87,2.98,0,5.68,1.22,7.62,3.2" />
<path class="cls-7" d="M127.38,63.56c-1.55.87-3.33,1.37-5.23,1.37s-3.73-.51-5.29-1.4" />
<path class="cls-7" d="M158.87,63.56c-1.55.87-3.33,1.37-5.23,1.37s-3.73-.51-5.29-1.4" />
<circle class="cls-7" cx="153.61" cy="57.43" r="1.66" />
<circle class="cls-7" cx="122.12" cy="57.43" r="1.66" />
<path class="cls-7" d="M113.45,59.93c1.95-2.57,5.03-4.22,8.5-4.22,3.68,0,6.93,1.87,8.85,4.71" />
<path class="cls-7" d="M144.94,59.93c1.95-2.57,5.03-4.22,8.5-4.22,3.68,0,6.93,1.87,8.85,4.71" />
</g>

<path class="cls-7" d="M163.06,107.43c13.9.67,27.04,3.19,37.88,8.76l-.12-.08c6.44,3.55,9.95,10.78,9.95,19.59v.8-1.26,24.09H64.55v-24.09,1.26-.8c0-8.81,3.51-16.04,9.95-19.59l-.12.08c10.84-5.57,24.23-8.47,38.14-9.14,6.74,7.69,15.58,12.36,25.26,12.36s17.26-4.32,24.17-11.07l1.1-.92h0Z" />

<line class="cls-7" x1="190.91" y1="144.57" x2="210.3" y2="144.59" />

<line class="cls-5" x1="143.27" y1="144.51" x2="167.16" y2="144.54" />

<line class="cls-7" x1="190.91" y1="148.92" x2="210.3" y2="148.95" />

<line class="cls-5" x1="141.75" y1="148.86" x2="167.16" y2="148.89" />

<g>
<path class="cls-7" d="M367.64,70.92c-7.48,0-13.77-12.1-15.68-21.06-3.95-.88-7.42-3.6-9.85-7.48-2.94,3.72-6.93,5.26-11.35,5.26s-8.42-2.3-11.35-6.02c-2.43,3.88-5.9,6.6-9.86,7.48-1.92,8.96-8.87,16.11-16.35,16.11-.45,0-.89-.04-1.33-.09,2.05,25.18,13.57,53.88,38.94,54.17,22.86.26,36.13-23.29,38.18-48.47-.44.05-.89.09-1.34.09h-.01Z" />
<g>
<path class="cls-7" d="M338.9,92.44c-1.95,2.57-5.03,4.22-8.5,4.22-3.68,0-6.93-1.87-8.85-4.71" />
<path class="cls-7" d="M338.72,56.72c1.91-1.78,4.47-2.87,7.28-2.87,2.98,0,5.68,1.22,7.62,3.2" />
<path class="cls-7" d="M307.23,56.72c1.91-1.78,4.47-2.87,7.28-2.87,2.98,0,5.68,1.22,7.62,3.2" />
<path class="cls-7" d="M319.94,65.32c-1.55.87-3.33,1.37-5.23,1.37s-3.73-.51-5.29-1.4" />
<path class="cls-7" d="M351.43,65.32c-1.55.87-3.33,1.37-5.23,1.37s-3.73-.51-5.29-1.4" />
<circle class="cls-7" cx="346.17" cy="59.18" r="1.66" />
<circle class="cls-7" cx="314.68" cy="59.18" r="1.66" />
<path class="cls-7" d="M306,61.69c1.95-2.57,5.03-4.22,8.5-4.22,3.68,0,6.93,1.87,8.85,4.71" />
<path class="cls-7" d="M337.49,61.69c1.95-2.57,5.03-4.22,8.5-4.22,3.68,0,6.93,1.87,8.85,4.71" />
</g>
<path class="cls-7" d="M356.21,107.31c13.9.67,27.04,3.19,37.88,8.76l-.12-.08c6.44,3.55,9.95,10.78,9.95,19.59v.8-1.26,24.09h-146.22v-24.09,1.26-.8c0-8.81,3.51-16.04,9.95-19.59l-.12.08c10.84-5.57,24.87-8.57,38.78-9.24,6.74,7.69,13.94,12.46,24.62,12.46s17.26-4.32,24.17-11.07l1.1-.92h0Z" />
<path class="cls-7" d="M299.14,95.05c-1.28.42-3.79.99-5.17.99-9,0-16.3-9.52-16.3-21.26,0-2.75.41-5.37,1.14-7.78-3.97-3.88-6.55-10.04-6.55-17.01,0-8.7,4.01-16.17,9.75-19.46.71-10.89,8.01-17.16,16.23-19.44,3.07-.86,9.07-.86,11.55,1.14,5.96-8.46,11.51-11.73,21.01-11.73s16.65,3.43,22.61,11.9c2.49-2.01,7.82-2.04,11.09-.89,8.05,2.81,14.39,8.14,15.1,19.03,5.74,3.29,9.75,10.76,9.75,19.46,0,6.97-2.58,13.13-6.55,17.01.73,2.41,1.14,5.03,1.14,7.78,0,11.74-7.3,21.26-16.3,21.26-1.39,0-3.23-.53-4.52-.96l.36-.77c2.85-6.13,4.94-16,5.55-23.48-.44.05-.89.09-1.34.09-7.48,0-13.77-12.1-15.68-21.06-3.95-.88-7.42-3.6-9.85-7.48-2.94,3.72-6.93,5.26-11.35,5.26s-8.42-2.3-11.35-6.02c-2.43,3.88-5.9,6.6-9.86,7.48-1.92,8.96-8.87,16.11-16.35,16.11-.45,0-.89-.04-1.33-.09.64,8.03,2.97,21.27,7.03,29.53l.2.39h-.01Z" />
<g class="cls-11">
<g>
<path class="cls-7" d="M298.08,119.28c-.89,0-1.71.25-2.41.68.43-.71.68-1.53.68-2.42,0-2.58-2.09-4.67-4.67-4.67s-4.67,2.09-4.67,4.67c0,.88.25,1.71.68,2.42-.7-.43-1.53-.68-2.41-.68-2.58,0-4.67,2.09-4.67,4.67s2.09,4.67,4.67,4.67c.88,0,1.71-.25,2.41-.68-.43.7-.68,1.53-.68,2.41,0,2.58,2.09,4.67,4.67,4.67s4.67-2.09,4.67-4.67c0-.88-.25-1.71-.68-2.41.7.43,1.53.68,2.41.68,2.58,0,4.67-2.09,4.67-4.67s-2.09-4.67-4.67-4.67Z" />
<path class="cls-7" d="M316.89,150.62c-.85.25-1.57.73-2.12,1.34.21-.8.21-1.66-.04-2.51-.74-2.47-3.34-3.87-5.81-3.13s-3.87,3.34-3.13,5.81c.25.85.73,1.57,1.34,2.12-.8-.21-1.66-.21-2.51.04-2.47.74-3.87,3.34-3.13,5.81s3.34,3.87,5.81,3.13c.85-.25,1.57-.73,2.12-1.34-.21.8-.21,1.66.04,2.51.74,2.47,3.34,3.87,5.81,3.13s3.87-3.34,3.13-5.81c-.25-.85-.73-1.57-1.34-2.12.8.21,1.66.21,2.51-.04,2.47-.74,3.87-3.34,3.13-5.81s-3.34-3.87-5.81-3.13Z" />
<path class="cls-7" d="M379.55,109.14c-.83-.32-1.69-.37-2.5-.23.65-.51,1.18-1.19,1.49-2.01.92-2.41-.29-5.11-2.7-6.02s-5.11.29-6.02,2.7c-.32.83-.37,1.69-.23,2.5-.51-.65-1.19-1.18-2.01-1.49-2.41-.92-5.11.29-6.02,2.7s.29,5.11,2.7,6.02c.83.32,1.69.37,2.5.23-.65.51-1.18,1.19-1.49,2.01-.92,2.41.29,5.11,2.7,6.02s5.11-.29,6.02-2.7c.32-.83.37-1.69.23-2.5.51.65,1.19,1.18,2.01,1.49,2.41.92,5.11-.29,6.02-2.7s-.29-5.11-2.7-6.02Z" />
<path class="cls-7" d="M370.49,143.62c-.84-.27-1.7-.29-2.51-.1.63-.54,1.12-1.24,1.4-2.08.8-2.45-.54-5.09-2.99-5.89s-5.09.54-5.89,2.99c-.27.84-.29,1.7-.1,2.51-.54-.63-1.24-1.12-2.08-1.4-2.45-.8-5.09.54-5.89,2.99s.54,5.09,2.99,5.89c.84.27,1.7.29,2.51.1-.63.54-1.12,1.24-1.4,2.08-.8,2.45.54,5.09,2.99,5.89s5.09-.54,5.89-2.99c.27-.84.29-1.7.1-2.51.54.63,1.24,1.12,2.08,1.4,2.45.8,5.09-.54,5.89-2.99s-.54-5.09-2.99-5.89Z" />
<path class="cls-7" d="M337.76,130.62c-.88,0-1.71.25-2.42.68.43-.7.68-1.53.68-2.42,0-2.58-2.09-4.67-4.67-4.67s-4.67,2.09-4.67,4.67c0,.89.25,1.71.68,2.42-.7-.43-1.53-.68-2.41-.68-2.58,0-4.67,2.09-4.67,4.67s2.09,4.67,4.67,4.67c.88,0,1.71-.25,2.41-.68-.43.71-.68,1.53-.68,2.42,0,2.58,2.09,4.67,4.67,4.67s4.67-2.09,4.67-4.67c0-.89-.25-1.71-.68-2.42.71.43,1.53.68,2.42.68,2.58,0,4.67-2.09,4.67-4.67s-2.09-4.67-4.67-4.67Z" />
<path class="cls-7" d="M278.8,151.17c-.89,0-1.71.25-2.42.68.43-.7.68-1.53.68-2.41,0-2.58-2.09-4.67-4.67-4.67s-4.67,2.09-4.67,4.67c0,.89.25,1.71.68,2.41-.7-.43-1.53-.68-2.41-.68-2.58,0-4.67,2.09-4.67,4.67s2.09,4.67,4.67,4.67c.88,0,1.71-.25,2.41-.68-.43.71-.68,1.53-.68,2.41,0,2.58,2.09,4.67,4.67,4.67s4.67-2.09,4.67-4.67c0-.88-.25-1.71-.68-2.41.7.43,1.53.68,2.42.68,2.58,0,4.67-2.09,4.67-4.67s-2.09-4.67-4.67-4.67Z" />
</g>
</g>
<g class="cls-9">
<path class="cls-7" d="M372.59,109.13c2.46.47,4.87,1.01,7.22,1.66l.06,4.2v44.21s-100.25-.06-100.25,0v-47.83l-.02-.3c2.61-.78,5.16-1.4,7.91-1.97l.15.08c8.2,19.7,24.08,32.77,42.47,32.77s34.12-12.86,42.34-32.47l.12-.36h0Z" />
</g>
</g>

<g>
<path class="cls-7" d="M555.84,143.18v-.31.18c-.04-6.07-2.48-11.06-6.93-13.51l.08.05c-7.56-3.88-14.37-5.08-24.06-5.55l-.77.64c-.62.46-1.3.92-2,1.38-5.01,3.52-10.92,5.57-17.27,5.57-4.62,0-9.02-1.09-13-3.04-2.58-1.16-4.82-2.59-6.41-4.17-.15-.13-.3-.26-.45-.39-9.66.47-16.69,1.69-24.23,5.56l.08-.05c-4.46,2.46-6.9,7.44-6.93,13.51v-.18,16.78h101.9v-16.47h-.01Z" />
<path class="cls-7" d="M524.8,124.29l.26-.22c6.38.31,11.52.94,16.44,2.44v-39.12h-.77c-1.07.79-2.24,1.5-3.51,2.11l.02.15c.25,1.85.37,3.62.37,5.55,0,11.86-5.03,22.4-12.81,29.09Z" />
<path class="cls-7" d="M468.4,86.68c3.88,3.19,9.42,4.19,15.56,4.19,10.5,0,19.2-5.84,20.93-13.52,1.72,7.67,10.43,13.52,20.93,13.52,5.87,0,11.19-.82,15.03-3.77l.53-.42c-4.3-18.12-19-31.47-36.49-31.47s-32.19,13.35-36.49,31.47h0Z" />
<path class="cls-7" d="M525.82,90.92c-10.5,0-19.2-5.84-20.93-13.52-1.72,7.67-10.43,13.52-20.93,13.52-4.15,0-7.85-.42-11.28-1.5-.26,1.85-.39,3.74-.39,5.66,0,20.23,14.59,36.63,32.6,36.63s32.6-16.4,32.6-36.63c0-1.93-.13-3.82-.39-5.66-3.14,1.03-7.13,1.5-11.28,1.5h0Z" />
<path class="cls-7" d="M513.57,114.93c-1.95,2.57-5.03,4.22-8.5,4.22-3.68,0-6.93-1.87-8.85-4.71" />
<path class="cls-7" d="M485.1,124.29l-.26-.22c-6.38.31-11.52.86-16.44,2.36v-39.05h.77c1.07.79,2.24,1.5,3.51,2.11l-.02.15c-.25,1.85-.37,3.62-.37,5.55,0,11.86,5.03,22.4,12.81,29.09h0Z" />
<path class="cls-7" d="M470.02,126l-.03,33.63,70.24.06-.11-30.9v-2.64c-1.65-.45-3.8-.74-5.51-1.07l.02-.07c-5.73,13.65-16.71,22.61-29.48,22.61s-26.81-14.93-29.54-22.69c-.06-.17-5.59,1.06-5.59,1.06h0Z" />
<path class="cls-7" d="M495.73,101.3c-1.55-.61-3.33-.96-5.23-.96s-3.73.36-5.29.98" />
<circle class="cls-7" cx="490.47" cy="98.21" r="1.66" />
<path class="cls-7" d="M481.79,97.73c1.95-2.57,5.03-4.22,8.5-4.22,3.68,0,6.93,1.87,8.85,4.71" />
<path class="cls-7" d="M524.58,101.3c-1.55-.61-3.33-.96-5.23-.96s-3.73.36-5.29.98" />
<circle class="cls-7" cx="519.32" cy="98.21" r="1.66" />
<path class="cls-7" d="M510.64,97.73c1.95-2.57,5.03-4.22,8.5-4.22,3.68,0,6.93,1.87,8.85,4.71" />
</g>

<g>
<path class="cls-7" d="M704.44,143.23v-.31.18c-.04-6.07-2.48-11.06-6.93-13.51l.08.05c-7.56-3.88-14.37-5.08-24.06-5.55l-.77.64c-.62.46-1.3.92-2,1.38-5.01,3.52-10.92,5.57-17.27,5.57-4.62,0-9.02-1.09-13-3.04-2.58-1.16-4.82-2.59-6.41-4.17-.15-.13-.3-.26-.45-.39-9.66.47-16.69,1.69-24.23,5.56l.08-.05c-4.46,2.46-6.9,7.44-6.93,13.51v-.18,16.78h101.9v-16.47h-.01Z" />
<path class="cls-7" d="M662.16,113.78c-1.95,2.57-5.03,4.22-8.5,4.22-3.68,0-6.93-1.87-8.85-4.71" />
<path class="cls-7" d="M644.32,101.35c-1.55-.61-3.33-.96-5.23-.96s-3.73.36-5.29.98" />
<circle class="cls-7" cx="639.06" cy="98.25" r="1.66" />
<path class="cls-7" d="M630.38,97.77c1.95-2.57,5.03-4.22,8.5-4.22,3.68,0,6.93,1.87,8.85,4.71" />
<path class="cls-7" d="M673.17,101.35c-1.55-.61-3.33-.96-5.23-.96s-3.73.36-5.29.98" />
<circle class="cls-7" cx="667.91" cy="98.25" r="1.66" />
<path class="cls-7" d="M659.23,97.77c1.95-2.57,5.03-4.22,8.5-4.22,3.68,0,6.93,1.87,8.85,4.71" />
<path class="cls-7" d="M675.38,88.05c-8.39,0-16.03-3.44-21.81-9.09l-.08.06c-5.77,5.62-13.39,9.04-21.75,9.04-3.34,0-6.56-.55-9.6-1.57-.75,3-1.16,6.16-1.16,9.42,0,19.65,14.59,35.57,32.58,35.57s32.58-15.93,32.58-35.57c0-3.26-.41-6.42-1.16-9.42-3.03,1.01-6.25,1.57-9.6,1.57h0Z" />
<path class="cls-7" d="M686.38,85.6c-3.93-15.12-17.16-25.24-32.89-25.24s-28.96,10.12-32.89,25.24h.02c3.25,2.05,7.63,2.45,11.12,2.45,8.74,0,15.64-3.29,21.67-8.9l.09-.06c6.04,5.65,13.11,8.96,21.88,8.96,3.5,0,7.85-.92,10.97-2.44h.03Z" />
<path class="cls-7" d="M673.57,124.15l.03-.07c9.69.47,16.5,1.67,24.06,5.55l-.08-.05c4.46,2.46,6.9,7.44,6.93,13.51v-.18,16.78h-101.9v-16.78.18c.04-6.07,2.48-11.06,6.93-13.51l-.08.05c7.54-3.87,14.31-5.09,23.97-5.56l.15.13c.39.38,4.68,3.3,6.9,4.42l14.09,20.38,12.71-20.83,6.28-4.02h0Z" />
</g>

<g>
<path class="cls-7" d="M819.41,135.24c-25.78,0-46.68-20.9-46.68-46.68,0-7.42,1.74-14.43,4.82-20.67-19.97,5.29-34.7,23.48-34.7,45.12,0,25.78,20.9,46.68,46.68,46.68,18.36,0,34.23-10.6,41.85-26.01-3.82,1.01-7.84,1.56-11.98,1.56h.01Z" />
<polygon class="cls-7" points="807.59 92.51 810.51 101.49 819.94 101.49 812.31 107.03 815.23 116.01 807.59 110.46 799.96 116.01 802.87 107.03 795.24 101.49 804.68 101.49 807.59 92.51" />
<polygon class="cls-7" points="795.24 78.59 796.97 83.91 802.56 83.91 798.04 87.19 799.76 92.51 795.24 89.23 790.72 92.51 792.44 87.19 787.92 83.91 793.51 83.91 795.24 78.59" />
</g>

<g>
<polygon class="cls-7" points="933.16 5.01 919.66 5.01 869.74 159.7 883.23 159.7 933.16 5.01" />
<polygon class="cls-7" points="1050.72 5.01 1064.22 5.01 1113.14 159.7 1099.65 159.7 1050.72 5.01" />
<rect class="cls-6" x="917.26" y="107.26" width="149.37" height="8.5" />
<polygon class="cls-6" points="913.57 23.62 916.4 15.1 916.4 15.1 904.29 15.09 904.29 23.59 913.57 23.62" />
<polygon class="cls-6" points="1070.18 23.59 1067.43 15.09 1067.43 15.09 1079.66 15.09 1079.66 23.59 1070.18 23.59" />
<polygon class="cls-6" points="927.18 23.62 1056.62 23.59 1056.62 23.59 1053.87 15.09 929.92 15.09 927.18 23.62" />
<line class="cls-7" x1="934.13" y1="15.47" x2="928.61" y2="107.18" />
<line class="cls-7" x1="1049.75" y1="15.33" x2="1055.27" y2="107.18" />
<rect class="cls-7" x="934.16" y="66.89" width="115.57" height="40.29" />
</g>

<g>
<circle class="cls-7" cx="1217.82" cy="317.57" r="7.88" />
<circle class="cls-7" cx="1252.26" cy="308.62" r="7.88" />
<line class="cls-7" x1="1260.12" y1="308.41" x2="1260.12" y2="266.65" />
<line class="cls-7" x1="1225.7" y1="317.28" x2="1225.7" y2="275.07" />
<polygon class="cls-7" points="1225.7 283.53 1260.08 274.53 1260.08 266.03 1225.7 275.03 1225.7 283.53" />
<circle class="cls-7" cx="1259.58" cy="335.07" r="7.88" />
<circle class="cls-7" cx="1294.02" cy="326.13" r="7.88" />
<line class="cls-7" x1="1301.88" y1="325.92" x2="1301.88" y2="284.15" />
<line class="cls-7" x1="1267.46" y1="334.78" x2="1267.46" y2="292.58" />
<polygon class="cls-7" points="1267.46 301.04 1301.83 292.04 1301.83 283.53 1267.46 292.53 1267.46 301.04" />
</g>

<g>
<g>
<rect class="cls-7" x="82.69" y="303.68" width="76.15" height="35.82" />
<line class="cls-7" x1="92.27" y1="289.74" x2="92.27" y2="303.44" />
<path class="cls-7" d="M158.85,307.01c0,5.26-4.26,9.52-9.52,9.52s-9.52-4.26-9.52-9.52c0,5.26-4.26,9.52-9.52,9.52s-9.52-4.26-9.52-9.52v.11c0,5.26-4.26,9.52-9.52,9.52s-9.52-4.26-9.52-9.52c0,5.26-4.26,9.52-9.52,9.52s-9.52-4.26-9.52-9.52v-3.44h76.15v3.33h.01Z" />
<path class="cls-7" d="M95.62,285.02c.13.37.2.76.2,1.18,0,1.96-1.59,3.55-3.55,3.55s-3.55-1.59-3.55-3.55c0-.36.05-.7.15-1.03h0c.62-2,3.39-5.3,3.39-5.3,0,0,2.68,3.16,3.36,5.15h0Z" />
<line class="cls-7" x1="111.05" y1="289.74" x2="111.05" y2="303.44" />
<path class="cls-7" d="M114.4,285.02c.13.37.2.76.2,1.18,0,1.96-1.59,3.55-3.55,3.55s-3.55-1.59-3.55-3.55c0-.36.05-.7.15-1.03h0c.62-2,3.39-5.3,3.39-5.3,0,0,2.68,3.16,3.36,5.15h0Z" />
<line class="cls-7" x1="129.83" y1="289.74" x2="129.83" y2="303.44" />
<path class="cls-7" d="M133.17,285.02c.13.37.2.76.2,1.18,0,1.96-1.59,3.55-3.55,3.55s-3.55-1.59-3.55-3.55c0-.36.05-.7.15-1.03h0c.62-2,3.39-5.3,3.39-5.3,0,0,2.68,3.16,3.36,5.15h0Z" />
<line class="cls-7" x1="148.86" y1="289.74" x2="148.86" y2="303.44" />
<path class="cls-7" d="M152.21,285.02c.13.37.2.76.2,1.18,0,1.96-1.59,3.55-3.55,3.55s-3.55-1.59-3.55-3.55c0-.36.05-.7.15-1.03h0c.62-2,3.39-5.3,3.39-5.3,0,0,2.68,3.16,3.36,5.15h0Z" />
</g>
<path class="cls-7" d="M159.2,344.32h-77.48c-1.33,0-2.41-1.08-2.41-2.41s1.08-2.41,2.41-2.41h77.48c1.33,0,2.41,1.08,2.41,2.41s-1.08,2.41-2.41,2.41Z" />
</g>

<g>
<ellipse class="cls-7" cx="182.11" cy="242.85" rx="26.88" ry="35.07" />
<path class="cls-7" d="M184.7,277.75c-.85.11-1.72.17-2.59.17s-1.74-.06-2.59-.17h-1.22l-3.38,8.5h14.38l-3.96-8.5h-.64Z" />
<path class="cls-7" d="M180.42,286.26c3.13,0,5.67,2.54,5.67,5.67s-2.54,5.67-5.67,5.67" />
<path class="cls-7" d="M180.59,308.93c-3.13,0-5.67-2.54-5.67-5.67s2.54-5.67,5.67-5.67" />
<path class="cls-7" d="M180.24,308.93c3.13,0,5.67,2.54,5.67,5.67s-2.54,5.67-5.67,5.67" />
<path class="cls-7" d="M180.24,331.61c3.13,0,5.67,2.54,5.67,5.67s-2.54,5.67-5.67,5.67" />
<path class="cls-7" d="M180.59,331.61c-3.13,0-5.67-2.54-5.67-5.67s2.54-5.67,5.67-5.67" />
</g>

<g>
<path class="cls-7" d="M489.39,280.94c0-5.26,4.26-9.52,9.52-9.52s9.52,4.26,9.52,9.52c0-5.26,4.26-9.52,9.52-9.52s9.52,4.26,9.52,9.52v-.11" />
<path class="cls-7" d="M468.68,282.54c0-.78.63-1.42,1.42-1.42h27.58v18.79h-27.58c-.78,0-1.42-.63-1.42-1.42h0v-15.95h0Z" />
<path class="cls-7" d="M548.62,299.92h-27.58v-18.79h27.58c.78,0,1.42.63,1.42,1.42v15.95c0,.78-.63,1.42-1.42,1.42h0Z" />
<rect class="cls-7" x="497.59" y="281.13" width="23.42" height="18.79" />
<path class="cls-7" d="M473.84,341.53v-41.64h27.41v43.05h-26c-.78,0-1.42-.63-1.42-1.42h.01Z" />
<line class="cls-7" x1="498.94" y1="299.9" x2="517.73" y2="299.9" />
<rect class="cls-7" x="501.22" y="299.9" width="15.88" height="43.05" />
<path class="cls-7" d="M543.09,342.95h-26v-43.05h27.41v41.64c0,.78-.63,1.42-1.42,1.42h.01Z" />
</g>

<g>
<circle class="cls-7" cx="663.86" cy="276.48" r="39.4" />
<path class="cls-7" d="M701.61,264.64c1.19,3.75,1.81,7.7,1.81,11.84s-.66,8.28-1.89,12.09h0l28.92-11.85-28.86-12.13.02.05h0Z" />
<path class="cls-7" d="M652.15,238.91c3.79-1.22,7.68-1.82,11.88-1.82s8.01.62,11.72,1.77l.19.06-11.81-28.82-12.14,28.86.16-.05h0Z" />
<path class="cls-7" d="M628.98,258.48c3.63-7.05,9.32-12.86,16.27-16.64l.68-.35-28.83-12.12,11.85,29.05.02.06h.01Z" />
<path class="cls-7" d="M626.47,288.4c-1.21-3.78-1.83-7.73-1.83-11.91s.54-8.03,1.84-11.95l.02-.05-28.89,11.84,28.89,12.15-.02-.07h-.01Z" />
<path class="cls-7" d="M645.62,311.38c-7.26-3.78-12.98-9.7-16.71-16.99h0l-12.1,28.92,29-11.83-.19-.1h0Z" />
<path class="cls-7" d="M675.87,314.07c-3.74,1.18-7.72,1.81-11.84,1.81-4.4,0-8.07-.53-12.02-1.87l-.16-.05,11.88,28.99,12-28.53.15-.35h-.01Z" />
<path class="cls-7" d="M682,311.55l28.76,12.04-11.79-28.89-.02.04c-3.77,7.2-9.61,13.04-16.85,16.76l-.1.05h0Z" />
<path class="cls-7" d="M682.09,241.47c7.2,3.73,13.14,9.63,16.88,16.82l.13-.3,11.94-28.33-28.95,11.81h0Z" />
</g>

<g>
<line class="cls-7" x1="782.86" y1="303.73" x2="796.81" y2="342.21" />
<polygon class="cls-7" points="847.2 287.34 858.98 319.83 796.86 342.34 782.8 303.56 839.71 282.94 847.2 287.34" />
<polygon class="cls-7" points="794.89 342.95 774.26 307.23 833.98 272.75 839.71 282.94 780.37 304.37 794.89 342.95" />
<polygon class="cls-7" points="847.41 287.92 858.98 319.83 795.19 342.95 780.37 304.37 839.68 282.96 842.04 289.69 847.41 287.92" />
</g>

<g>
<line class="cls-7" x1="922.27" y1="256.79" x2="924.36" y2="306.17" />
<path class="cls-7" d="M984.48,342.94h-55.52c-2.51.01-4.54-2.02-4.54-4.53v-47.12c0-17.84,14.46-32.3,32.3-32.3s32.3,14.46,32.3,32.3v47.12c0,2.51-2.03,4.54-4.54,4.54h0Z" />
<path class="cls-7" d="M931.57,291.29c0-13.89,11.26-25.15,25.15-25.15s25.15,11.26,25.15,25.15" />
<path class="cls-7" d="M931.73,321.37v-11.13c0-.78.63-1.42,1.42-1.42h47.15c.78,0,1.42.63,1.42,1.42v12.25-.59,11.13c0,.78-.63,1.42-1.42,1.42h-47.15c-.78,0-1.42-.63-1.42-1.42v-12.25.59Z" />
<path class="cls-7" d="M947.2,260.13c0-5.26,4.26-9.52,9.52-9.52s9.52,4.26,9.52,9.52" />
<path class="cls-7" d="M935.55,256.3l3.01,8.2h0c-4.13,2.8-7.54,6.45-10.01,10.81l-.04.07-6.13-18.06c-.06-.16-.1-.34-.1-.52,0-.78.63-1.42,1.42-1.42h10.52c.61,0,1.13.38,1.33.92h0Z" />
<line class="cls-7" x1="991.17" y1="256.79" x2="989.09" y2="306.17" />
<path class="cls-7" d="M977.9,256.3l-3.01,8.2h0c4.13,2.8,7.54,6.45,10.01,10.81l.04.07,6.13-18.06c.06-.16.1-.34.1-.52,0-.78-.63-1.42-1.42-1.42h-10.52c-.61,0-1.13.38-1.33.92h0Z" />
</g>

<g>
<path class="cls-7" d="M1064.53,253.03c0-3.13,2.41-5.79,5.54-5.79h.13l20.69.12h0c3.13,0,5.67,2.54,5.67,5.67v31.17c0,3.13-2.54,5.67-5.67,5.67h-20.69c-3.13,0-5.67-2.54-5.67-5.67v-31.17Z" />
<path class="cls-7" d="M1100.84,253.03c0-3.13,2.41-5.79,5.54-5.79h.13l20.69.12h0c3.13,0,5.67,2.54,5.67,5.67v31.17c0,3.13-2.54,5.67-5.67,5.67h-20.69c-3.13,0-5.67-2.54-5.67-5.67v-31.17Z" />
<ellipse class="cls-7" cx="1052.93" cy="261.87" rx="2.95" ry="3.85" />
<line class="cls-7" x1="1116.86" y1="311.22" x2="1081.59" y2="311.22" />
<line class="cls-7" x1="1116.86" y1="315.02" x2="1081.59" y2="315.02" />
<line class="cls-7" x1="1058.89" y1="265.72" x2="1052.79" y2="265.72" />
<ellipse class="cls-7" cx="1144.47" cy="261.81" rx="2.95" ry="3.85" />
<line class="cls-7" x1="1138.51" y1="265.66" x2="1144.61" y2="265.66" />
<circle class="cls-7" cx="1070.86" cy="311.22" r="5.67" />
<circle class="cls-7" cx="1126.54" cy="310.59" r="5.67" />
<path class="cls-7" d="M1064.67,330.14c-3.13,0-5.67-2.54-5.67-5.67h-.11l.11-75.69h0c0-3.13,2.54-5.67,5.67-5.67h68.17c3.13,0,5.67,2.54,5.67,5.67v75.69c0,3.13-2.54,5.67-5.67,5.67h-68.17Z" />
<path class="cls-7" d="M1066.16,330.92v8.61c0,1.89,1.53,3.42,3.42,3.42s3.42-1.53,3.42-3.42v-8.61c0-.27-.04-.52-.1-.77h-6.65c-.06.25-.1.51-.1.77h.01,0Z" />
<path class="cls-7" d="M1124.95,330.92v8.61c0,1.89,1.53,3.42,3.42,3.42s3.42-1.53,3.42-3.42v-8.61c0-.27-.04-.52-.1-.77h-6.65c-.06.25-.1.51-.1.77h0Z" />
</g>

<g>
<ellipse class="cls-7" cx="1278.98" cy="122.83" rx="2.95" ry="3.85" />
<line class="cls-7" x1="1283.97" y1="126.68" x2="1278.84" y2="126.68" />
<ellipse class="cls-7" cx="1354.85" cy="122.83" rx="2.95" ry="3.85" />
<line class="cls-7" x1="1349.86" y1="126.68" x2="1354.99" y2="126.68" />
<circle class="cls-7" cx="1296.77" cy="137.1" r="5.67" />
<circle class="cls-7" cx="1337.65" cy="136.47" r="5.67" />
<path class="cls-7" d="M1290.44,147.66v8.61c0,1.89,1.53,3.42,3.42,3.42s3.42-1.53,3.42-3.42v-8.61c0-.27-.04-.52-.1-.77h-6.65c-.06.25-.1.51-.1.77h0Z" />
<path class="cls-7" d="M1337.84,147.66v8.61c0,1.89,1.53,3.42,3.42,3.42s3.42-1.53,3.42-3.42v-8.61c0-.27-.04-.52-.1-.77h-6.65c-.06.25-.1.51-.1.77h0Z" />
<path class="cls-7" d="M1292.07,99.76h49.63-.02c.66,0,1.22.45,1.37,1.07h0l6.72,25.85h-65.81l6.73-25.88h0c.16-.6.71-1.05,1.37-1.05h.01Z" />
<path class="cls-7" d="M1283.97,145.47v-18.79h65.81v18.79c0,.78-.63,1.42-1.42,1.42h-62.97c-.78,0-1.42-.63-1.42-1.42h0Z" />
<path class="cls-7" d="M1342.47,123.18h-51.18c-.78,0-1.42-.63-1.42-1.42,0-.16.03-.3.08-.46l4.25-17h0c.16-.6.71-1.05,1.37-1.05h42.63-.02c.66,0,1.22.45,1.37,1.07h0l4.29,17.1c.03.11.04.22.04.34,0,.78-.63,1.42-1.42,1.42h.01Z" />
</g>

<g>
<path class="cls-7" d="M1202.91,159.69h-14.91c-2.2,0-3.98-1.78-3.98-3.97h0l.05-12.14h0c.22-3.71,1.87-7.71,3.79-10.17l14.97-.03c2.36,2.5,3.79,6,4.04,10.2h0c0,.17.03,1.68.03,1.68v10.46h0c0,2.2-1.78,3.97-3.98,3.97h-.01Z" />
<path class="cls-7" d="M1204.63,131.19c-1.06-3.05-3.6-5.41-6.77-6.22v-3.35c0-1.3-1.05-2.36-2.36-2.36s-2.36,1.05-2.36,2.36v3.33c-3.18.78-5.75,3.12-6.83,6.16h0c-.07.18-.1.38-.1.59,0,.93.76,1.69,1.69,1.69h15.09c.93,0,1.69-.76,1.69-1.69,0-.17,0-.35-.06-.51h.01Z" />
</g>

<g>
<path class="cls-7" d="M305.01,543.27c0-3.37,2.73-6.11,6.11-6.11s6.11,2.73,6.11,6.11c0-3.37,2.73-6.11,6.11-6.11s6.11,2.73,6.11,6.11v-.07l.25.07c0-3.37,2.73-6.11,6.11-6.11s6.11,2.73,6.11,6.11c0-3.37,2.73-6.11,6.11-6.11s6.11,2.73,6.11,6.11v-.07" />
<path class="cls-7" d="M305.01,550.1c0-3.37,2.73-6.11,6.11-6.11s6.11,2.73,6.11,6.11c0-3.37,2.73-6.11,6.11-6.11s6.11,2.73,6.11,6.11v-.07l.25.07c0-3.37,2.73-6.11,6.11-6.11s6.11,2.73,6.11,6.11c0-3.37,2.73-6.11,6.11-6.11s6.11,2.73,6.11,6.11v-.07" />
<path class="cls-7" d="M329.19,490.05l30.79,7.9c.5,0,.91.41.91.91l-10.94,30.11c-.3.63-.78.77-1.29.77h-39.88c-.5,0-.99-.14-1.29-.77l-10.94-30.11c0-.5.41-.91.91-.91l31.26-7.9h0c.07-.02.15-.03.22-.03.08,0,.16.01.24.03h.01Z" />
<path class="cls-7" d="M328.73,490.05c.07-.02.15-.03.22-.03.08,0,.16.01.24.03l18.14,4.65v-16.74c0-.5-.41-.91-.91-.91h-35.42c-.5,0-.91.41-.91.91v16.79l18.61-4.7h.03Z" />
<path class="cls-7" d="M328.7,477.06h12.22v-3.86c0-.5-.41-.91-.91-.91h-22.59c-.5,0-.91.41-.91.91v3.86h12.19Z" />
<line class="cls-7" x1="328.9" y1="472.67" x2="328.9" y2="466.62" />
</g>

<g>
<g>
<circle class="cls-2" cx="152.34" cy="492.54" r="26.7" transform="translate(-27 9.18) rotate(-3.17)" />
<path class="cls-7" d="M204.97,511.51v-27.68c0-2.41,1.95-4.36,4.36-4.36s4.36,1.95,4.36,4.36v27.68" />
<path class="cls-7" d="M213.73,519.25v-27.82c0-2.41,1.95-4.36,4.36-4.36s4.36,1.95,4.36,4.36v32.34" />
<path class="cls-7" d="M196.26,519.29v-27.68c0-2.41,1.95-4.36,4.36-4.36s4.36,1.95,4.36,4.36v28.54" />
<path class="cls-7" d="M222.47,521.95l.03-13.14c0-2.41,2.09-3.97,4.49-3.97s4.36,1.95,4.36,4.36l.04,12.37c0,15.77-9.89,28.55-21.98,28.55s-21.85-12.78-21.85-28.55v-12.37c0-2.41,1.95-4.36,4.36-4.36s4.36,1.95,4.36,4.36l.03,13.14" />
<path class="cls-7" d="M90.58,511.51v-27.68c0-2.41,1.95-4.36,4.36-4.36s4.36,1.95,4.36,4.36v27.68" />
<path class="cls-7" d="M99.34,519.25v-27.82c0-2.41,1.95-4.36,4.36-4.36s4.36,1.95,4.36,4.36v32.34" />
<path class="cls-7" d="M81.88,519.29v-27.68c0-2.41,1.95-4.36,4.36-4.36s4.36,1.95,4.36,4.36v28.54" />
<path class="cls-7" d="M108.08,521.95l.03-13.14c0-2.41,2.09-3.97,4.49-3.97s4.36,1.95,4.36,4.36l.04,12.37c0,15.77-9.89,28.55-21.98,28.55s-21.85-12.78-21.85-28.55v-12.37c0-2.41,1.95-4.36,4.36-4.36s4.36,1.95,4.36,4.36l.03,13.14" />
</g>
<path class="cls-7" d="M169.01,529.2c0,.07.02.14.02.21,0,.78-.63,1.42-1.42,1.42h-30.58.05c-.78,0-1.42-.63-1.42-1.42,0-.12.02-.24.04-.35h0l2.03-14.17c4.2,2.75,9.21,4.35,14.6,4.35s10.41-1.6,14.6-4.35l2.06,14.31h.02,0Z" />
</g>

<g>
<path class="cls-7" d="M470.25,523.4c0,6.84-2.58,13.09-6.82,17.81-1.5,1.69-3.23,3.19-5.14,4.45-4.22,2.81-9.28,4.44-14.73,4.44-14.75,0-26.7-11.96-26.7-26.7s11.95-26.7,26.7-26.7c5.45,0,10.51,1.63,14.73,4.44-1.88,1.23-3.59,2.71-5.09,4.38-2.88-1.57-6.18-2.46-9.68-2.46-11.2,0-20.27,9.08-20.27,20.28s9.07,20.27,20.27,20.27c3.47,0,6.74-.87,9.6-2.42,1.91-1.02,3.65-2.36,5.14-3.93,3.42-3.63,5.53-8.53,5.53-13.92s-2.11-10.3-5.53-13.93c1.47-1.56,3.19-2.89,5.09-3.91,4.29,4.73,6.9,11.01,6.9,17.9h0Z" />
<path class="cls-7" d="M499.72,523.4c0,14.74-11.95,26.7-26.7,26.7-5.45,0-10.51-1.63-14.73-4.44,1.91-1.26,3.64-2.76,5.14-4.45,2.85,1.54,6.1,2.4,9.56,2.4,11.19,0,20.27-9.08,20.27-20.27s-9.08-20.28-20.27-20.28c-3.49,0-6.77.88-9.64,2.44-1.9,1.02-3.62,2.35-5.09,3.91-3.44,3.63-5.55,8.54-5.55,13.93s2.11,10.29,5.55,13.92c-1.49,1.57-3.23,2.91-5.14,3.93-4.23-4.72-6.8-10.96-6.8-17.79s2.6-13.15,6.88-17.88c1.5-1.67,3.21-3.15,5.09-4.38,4.22-2.81,9.28-4.44,14.73-4.44,14.75,0,26.7,11.95,26.7,26.7h0Z" />
</g>

<g>
<ellipse class="cls-4" cx="1301.81" cy="679.24" rx="21.26" ry="16.3" transform="translate(-25.32 1307.59) rotate(-52.89)" />
<ellipse class="cls-3" cx="1313.55" cy="719.65" rx="16.3" ry="21.26" transform="translate(215.36 1738.12) rotate(-71.56)" />
<g>
<line class="cls-7" x1="1282.11" y1="712.64" x2="1293.3" y2="712.64" />
<path class="cls-7" d="M1282.11,740.31v-19.18c0-7.01-1.11-20.74,5.73-25.8h0" />
</g>
<path class="cls-7" d="M1279.03,688.93c-1.61-3.46-4.77-7.9-8.26-10.59-1.02-.79-2.12-1.42-3.2-2.03h0l.07.04h0c-6.84-4.15-22.35-6.8-22.35-6.8,0,0-.02,16.36,3.06,23.71h0c1.61,3.46,4.7,7.86,8.19,10.55,1.02.79,2.12,1.42,3.2,2.03h0c6.84,4.15,22.35,6.8,22.35,6.8,0,0,.02-16.36-3.06-23.71h0Z" />
</g>

<g>
<circle class="cls-7" cx="609.28" cy="481.33" r="1.42" />
<line class="cls-7" x1="599.56" y1="540.19" x2="599.56" y2="550.1" />
<line class="cls-7" x1="597.83" y1="550.1" x2="601.28" y2="550.1" />
<line class="cls-7" x1="592.83" y1="540.19" x2="592.83" y2="550.1" />
<line class="cls-7" x1="591.11" y1="550.1" x2="594.55" y2="550.1" />
<path class="cls-7" d="M626.42,484.19l-7.7-2.16.03.07c.36,1.04.57,2.05.66,3.18.06.78.06,1.53.01,2.26l.26-.11,6.75-3.25h-.01Z" />
<path class="cls-7" d="M551.49,521.19l15.38-9.13,12.04-6.96,13.13-7.58h-.02c.19-.09.4-.15.63-.14.18,0,.34.04.5.09,5.5,1.98,9.4,7.03,9.62,12.9,0,.2.01.41.01.61,0,10.73-13.04,19.42-29.12,19.42-2.29,0-4.52-.18-6.65-.51-6.38-.99-11.73-3.19-15.7-6.44h0c-.3-.26-.49-.64-.49-1.07,0-.51.27-.95.67-1.2h0Z" />
<path class="cls-7" d="M616.52,494.56c2.23-2.53,3.23-5.56,2.94-9.27-.5-6.37-5.68-11.58-12.17-12.2-4.08-.39-7.84.99-10.57,3.45s-4.27,6.12-4.27,9.83l.07,11.02c.11-.02.34.02.34.02,5.82,1.81,9.64,6.97,9.87,13.07,0,.2.01.41.01.61,0,10.73-13.04,19.42-29.12,19.42-.95,0-1.78-.02-2.71-.08l-.12.13-16,16.78-.57.53,28.47-8.78.17-.05c.14-.05.29-.07.45-.07.19,0,.38.04.55.11,2.94,1,6.06,1.53,9.35,1.53,15.78,0,28.57-12.53,28.57-28,0-6.08-1.98-11.7-5.34-16.29h0c-.16-.23-.26-.51-.26-.82,0-.36.13-.69.35-.93h0Z" />
</g>

<g>
<path class="cls-7" d="M1074.54,652.9h-2.04l-23.77-.02h0c-2.91,0-5.27-2.36-5.27-5.27s2.36-5.27,5.27-5.27h25.86-.17s2.04-.01,2.04-.01l13.37.02h0c2.91,0,5.27,2.36,5.27,5.27s-2.36,5.27-5.27,5.27h-15.47.17s.01.01.01.01Z" />
<rect class="cls-7" x="1041.67" y="678.19" width="55.65" height="49.05" />
<path class="cls-7" d="M1097.33,726.81h0c0,.16-.04-64.53-.04-64.53l.07,76h0c0,2.08-1.69,3.76-3.76,3.76h-48.12c-2.08,0-3.76-1.68-3.76-3.76h0l.05-75.97h0c0-5.18,4.2-9.38,9.38-9.38h0l36.77-.03c5.18,0,9.38,4.2,9.38,9.38" />
</g>

<g>
<g>
<circle class="cls-8" cx="802.91" cy="733.31" r="1.66" />
<circle class="cls-8" cx="823" cy="733.31" r="1.66" />
</g>
<path class="cls-7" d="M794.81,743.91c-3.12,0-5.66-2.54-5.66-5.67h-.11l.11-9.56h0c0-3.13,2.53-5.67,5.66-5.67l36.6-.19c2.68,0,4.93,1.87,5.51,4.38.1.41.15.85.15,1.29v9.56c0,3.13-2.53,5.67-5.66,5.67l-36.6.19h0Z" />
<circle class="cls-7" cx="789.33" cy="677.12" r="5.67" />
<circle class="cls-7" cx="836.25" cy="677.95" r="5.67" />
<path class="cls-7" d="M835.78,716.02c.34-9.27,3.68-17.49,8.72-22.87l.02.02c4.08-4.13,6.6-9.8,6.6-16.07,0-12.62-10.23-22.85-22.85-22.85h-11.1c3.48,4.22,5.9,10.15,5.9,16.3,0,4.55-1.07,8.58-3.08,12.19l-.33.85c-1.18,2.94-1.6,5.58-1.6,9.01,0,11.8,7.53,21.59,17.72,23.41h0Z" />
<path class="cls-7" d="M790.2,716.02c-.34-9.27-3.68-17.49-8.72-22.87l-.02.02c-4.08-4.13-6.6-9.8-6.6-16.07,0-12.62,10.23-22.85,22.85-22.85h11.1c-3.48,4.22-5.9,10.15-5.9,16.3,0,4.55,1.07,8.58,3.08,12.19l.33.85c1.18,2.94,1.6,5.58,1.6,9.01,0,11.8-7.53,21.59-17.72,23.41h0Z" />
<path class="cls-7" d="M777.41,665.92c-7.33,0-13.27-5.94-13.27-13.27,0-1.81.36-3.53,1.02-5.1h0c2.4,5.82,8.76,9.97,16.24,9.97,2.38,0,4.67-.37,6.72-1.19.94-.38,1.71-.74,2.64-1.01h0c-5.63,1.77-10.12,5.23-12.94,10.3l-.4.29h0Z" />
<path class="cls-7" d="M848.5,665.92c7.33,0,13.27-5.94,13.27-13.27,0-1.81-.36-3.53-1.02-5.1h0c-2.4,5.82-8.76,9.97-16.24,9.97-2.38,0-4.67-.37-6.72-1.19-.94-.38-1.71-.74-2.64-1.01h0c5.63,1.77,10.12,5.23,12.94,10.3l.4.29h0Z" />
<path class="cls-7" d="M836.95,727.25c-.73-3.04-1.13-6.29-1.13-9.66,0-9.92,3.42-18.75,8.75-24.44l.02.02c4.08-4.13,6.6-9.8,6.6-16.07,0-12.62-10.23-22.85-22.85-22.85h-30.56c-12.62,0-22.85,10.23-22.85,22.85,0,6.63,2.83,12.61,7.34,16.78l-1.99-2.05c6.08,5.58,10.08,15.04,10.08,25.76,0,3.24-.44,6.68-1.12,9.62l.04-.16c.72-2.31,2.87-3.98,5.41-3.98l36.68-.19c2.69,0,4.94,1.87,5.52,4.38h.06,0Z" />
<path class="cls-7" d="M865.42,671.76h0c-1.21-2.59-3.56-5.9-6.17-7.91-.61-.47-1.26-.86-1.91-1.23-2.35,2.11-5.44,3.4-8.85,3.4l-.4-.29s-.03-.05-.05-.07c1.99,3.39,3.13,7.33,3.13,11.54,0,2.33-.35,4.58-1,6.7.27.16.55.33.82.48,5.11,3.1,16.69,5.08,16.69,5.08,0,0,.02-12.22-2.28-17.7h.02,0Z" />
<path class="cls-7" d="M760.64,671.76h0c1.21-2.59,3.56-5.9,6.17-7.91.61-.47,1.26-.86,1.91-1.23,2.35,2.11,5.44,3.4,8.85,3.4l.4-.29s.03-.05.05-.07c-1.99,3.39-3.13,7.33-3.13,11.54,0,2.33.35,4.58,1,6.7-.27.16-.55.33-.82.48-5.11,3.1-16.69,5.08-16.69,5.08,0,0-.02-12.22,2.28-17.7h-.02,0Z" />
<path class="cls-7" d="M836.93,727.06c-.73-3.04-1.13-6.29-1.13-9.66,0-9.92,3.42-18.75,8.75-24.44l.02.02c4.08-4.13,6.6-9.8,6.6-16.07,0-12.62-10.23-22.85-22.85-22.85h-30.56c-12.62,0-22.85,10.23-22.85,22.85,0,6.63,2.83,12.61,7.34,16.78l-1.99-2.05c6.08,5.58,10.08,15.04,10.08,25.76,0,3.24-.44,6.68-1.12,9.62l.04-.16c.72-2.31,2.87-3.98,5.41-3.98l36.68-.19c2.69,0,4.94,1.87,5.52,4.38h.06,0Z" />
</g>

<g>
<path class="cls-7" d="M722.18,713.86c-.32-1.75.8-4.3.8-4.3,1.92-4.5,4.57-9.99,9.96-15.47,7.34-7.45,16.65-10.89,22.28-12.77-6.21-1.34-18.71,3.23-28.78,9.41-1.11.68-2.18,1.38-3.22,2.08.66-1.89,1.45-3.84,2.39-5.85,4.28-9.12,11.87-14.99,16.53-18.34-6.36.45-16.56,8.29-23.89,16.96-.91,1.08-1.77,2.16-2.57,3.23.21-3.84,1.36-8.12,3.43-12.55,4.28-9.12,13.9-14.24,19.87-17.12-8.95-.5-21.9,6.32-30.61,14.49-.72.67-1.4,1.35-2.06,2.03-1.2-2.55-2.68-5.21-4.42-7.87-6.17-9.4-15.3-18.27-21.56-19.4,4.2,3.83,10.99,10.47,14.07,19.99,3.01,9.31,3.41,17.35.98,21.83-.02-.01-.03-.02-.05-.03-9.85-6.52-22.18-11.53-28.43-10.41,5.56,2.08,14.75,5.85,21.82,13.55s10.42,15.46,9.99,20.44l23.48.11h0Z" />
<path class="cls-7" d="M723.43,723.29h-26.48c-1.33,0-2.41-1.08-2.41-2.41s1.08-2.41,2.41-2.41h26.48c1.33,0,2.41,1.08,2.41,2.41s-1.08,2.41-2.41,2.41Z" />
<path class="cls-7" d="M723.43,718.65h-26.48c-1.33,0-2.41-1.08-2.41-2.41s1.08-2.41,2.41-2.41h26.48c1.33,0,2.41,1.08,2.41,2.41s-1.08,2.41-2.41,2.41Z" />
<path class="cls-7" d="M722,723.69l-.06,11.74v-.59,5.13c0,.78-.63,1.42-1.42,1.42l-20.52-.09c-.78,0-1.42-.63-1.42-1.42v-6.25.59l.06-10.62" />
</g>

<g>
<path class="cls-7" d="M1278.78,502.95c1.65,0,3.26.16,4.79.46v-5.7h-9.44v5.67c1.49-.28,3.04-.43,4.65-.43Z" />
<path class="cls-7" d="M1271.27,504.5c-2.1,0-3.8-1.7-3.8-3.8s1.7-3.8,3.8-3.8" />
<path class="cls-7" d="M1269.92,489.5c0-1.86,1.43-3.44,3.29-3.44h.08l12.3.07h0c1.86,0,3.37,1.51,3.37,3.37v4.86c0,1.86-1.51,3.37-3.37,3.37h-12.3c-1.86,0-3.37-1.51-3.37-3.37v-4.86Z" />
<path class="cls-7" d="M1295.34,552.73h-33c-1.49,0-2.7-1.2-2.7-2.7v-28.01c0-10.6,8.6-19.2,19.2-19.2s19.2,8.6,19.2,19.2v28.01c0,1.49-1.21,2.7-2.7,2.7h0Z" />
</g>

<g>
<path class="cls-7" d="M274.26,317.02h-11.48c-1.33,0-2.41-1.08-2.41-2.41s1.08-2.41,2.41-2.41h11.48c1.33,0,2.41,1.08,2.41,2.41s-1.08,2.41-2.41,2.41Z" />
<path class="cls-7" d="M263.17,317.02v24.6c0,.73.59,1.33,1.33,1.33h8.64c.73,0,1.33-.59,1.33-1.33v-24.6h-11.3Z" />
<path class="cls-7" d="M272.28,283.44c.26.26.42.62.42,1.01h0l-.06,3.37v24.28h-8.25v-20.28l.02-2.99.07-4.36h0v-.02c0-.36.15-.7.38-.94h0l3.32-3.51.04-.04c.07-.04.15-.06.23-.06s.12,0,.21.05l.08.06,3.55,3.43h-.01Z" />
</g>

<path class="cls-7" d="M915.84,483.42c-5.76-14.66-17.44-24.63-30.93-24.63-19.2,0-34.77,20.3-34.77,45.35l.53,45.96h103.51v-30.17c0-18.07-14.65-32.7-32.72-32.7h0c-2.44,0-4.55-1.45-5.5-3.54-.04-.09-.08-.19-.12-.28h0Z" />

<g>
<line class="cls-7" x1="1088.44" y1="499.52" x2="1088.44" y2="550.1" />
<path class="cls-7" d="M1090.1,476.67c0-7.95-7.42-14.56-17.24-16,.39-1.23.62-2.51.62-3.83,0-6.75-5.36-12.51-12.99-14.99-.43-8.71-9.75-15.68-21.22-15.68-.1,0-.2.01-.3.01s-.2-.01-.3-.01c-11.47,0-20.79,6.97-21.22,15.68-7.62,2.48-12.99,8.24-12.99,14.99,0,1.32.23,2.6.62,3.83-9.82,1.44-17.24,8.05-17.24,16,0,6.9,5.59,12.78,13.48,15.16,1.83,7.58,10.48,13.32,20.89,13.32,6.24,0,11.83-2.07,15.72-5.36,3.89,3.28,9.48,5.36,15.72,5.36,10.16,0,18.64-5.47,20.75-12.77,9.04-1.88,15.69-8.19,15.69-15.71h.01Z" />
<path class="cls-7" d="M1123.23,460.67c.39-1.23.62-2.51.62-3.83,0-6.75-5.36-12.51-12.99-14.99-.43-8.71-9.75-15.68-21.22-15.68-.1,0-.2.01-.3.01s-.2-.01-.3-.01c-11.47,0-20.79,6.97-21.22,15.68-1.29.42-2.52.94-3.67,1.54,5.62,2.93,9.32,7.85,9.32,13.45,0,1.32-.23,2.6-.62,3.83,9.82,1.44,17.24,8.05,17.24,16,0,7.52-6.65,13.84-15.69,15.71-1.4,4.86-5.63,8.89-11.29,11.05,2.85,1.09,6.06,1.72,9.47,1.72,6.24,0,11.83-2.07,15.72-5.36,3.89,3.28,9.48,5.36,15.72,5.36,10.16,0,18.64-5.47,20.75-12.77,9.04-1.88,15.69-8.19,15.69-15.71,0-7.95-7.42-14.56-17.24-16h.01Z" />
<line class="cls-7" x1="1138.81" y1="499.52" x2="1138.81" y2="550.1" />
<path class="cls-7" d="M1173.6,460.67c.39-1.23.62-2.51.62-3.83,0-6.75-5.36-12.51-12.99-14.99-.43-8.71-9.75-15.68-21.22-15.68-.1,0-.2.01-.3.01s-.2-.01-.3-.01c-11.47,0-20.79,6.97-21.22,15.68-1.29.42-2.52.94-3.67,1.54,5.62,2.93,9.32,7.85,9.32,13.45,0,1.32-.23,2.6-.62,3.83,9.82,1.44,17.24,8.05,17.24,16,0,7.52-6.65,13.84-15.69,15.71-1.4,4.86-5.63,8.89-11.29,11.05,2.85,1.09,6.06,1.72,9.47,1.72,6.24,0,11.83-2.07,15.72-5.36,3.89,3.28,9.48,5.36,15.72,5.36,10.16,0,18.64-5.47,20.75-12.77,9.04-1.88,15.69-8.19,15.69-15.71,0-7.95-7.42-14.56-17.24-16h.01Z" />
<line class="cls-7" x1="1038.07" y1="499.52" x2="1038.07" y2="550.1" />
</g>

<g>
<path class="cls-7" d="M134.21,678.17c0-2.51,0,19.94,0,19.94v-22.2c0-.99-.7-1.79-1.56-1.79h-53.75c-.86,0-1.56.8-1.56,1.79v22.2-19.94" />
<g>
<ellipse class="cls-7" cx="68.26" cy="697.14" rx="2.95" ry="3.85" />
<line class="cls-7" x1="73.25" y1="700.99" x2="68.12" y2="700.99" />
<ellipse class="cls-7" cx="144.13" cy="697.14" rx="2.95" ry="3.85" />
<line class="cls-7" x1="139.14" y1="700.99" x2="144.27" y2="700.99" />
<circle class="cls-7" cx="88.59" cy="709.75" r="5.67" />
<circle class="cls-7" cx="124.53" cy="709.12" r="5.67" />
<path class="cls-7" d="M79.72,726.4v8.61c0,1.89,1.53,3.42,3.42,3.42s3.42-1.53,3.42-3.42v-8.61c0-.27-.04-.52-.1-.77h-6.65c-.06.25-.1.51-.1.77h.01Z" />
<path class="cls-7" d="M127.12,726.4v8.61c0,1.89,1.53,3.42,3.42,3.42s3.42-1.53,3.42-3.42v-8.61c0-.27-.04-.52-.1-.77h-6.65c-.06.25-.1.51-.1.77h.01Z" />
<polygon class="cls-7" points="73.39 718.35 73.12 701.02 138.93 701.02 138.93 718.41 73.39 718.35" />
<path class="cls-7" d="M139.52,718.42h-66.98c-.78,0-1.42.63-1.42,1.42v2.56-.77,2.56c0,.78.63,1.42,1.42,1.42h66.97c.78,0,1.42-.63,1.42-1.42v-2.56c0-1.99,0,.77,0,.77v-2.56c0-.78-.63-1.42-1.42-1.42h.01Z" />
</g>
<path class="cls-7" d="M127.66,678.7h-44.02c-.7,0-1.27.57-1.27,1.27v13.78-12.17,13.78c0,.7.57,1.27,1.27,1.27h44.02c.7,0,1.27-.57,1.27-1.27v-13.78c0-1.79,0,12.17,0,12.17v-13.78c0-.7-.57-1.27-1.27-1.27Z" />
<polyline class="cls-7" points="77.34 698.1 77.34 701.02 134.21 701.02 134.21 698.1" />
</g>

<g>
<g>
<g>
<path class="cls-7" d="M287.1,690.87c.33-2.45.85-5.61,1.52-7.87,4.42-14.86,18.46-24.78,33.62-24.78h.06c15.16,0,29.24,9.91,33.62,24.78.56,1.9,1.1,5.26,1.47,7.87h-70.3.01Z" />
<path class="cls-7" d="M298.72,690.87h-11.62c.33-2.45.85-5.61,1.52-7.87.5-1.69,1.13-3.31,1.86-4.86h0c.21,0,.42.03.63.06h0c2.96.47,5,3.28,4.53,6.24l-.35,2.18,2.1,2.1c.62.62,1.06,1.37,1.32,2.16h.01Z" />
<path class="cls-7" d="M305.75,662.98l.04-.69c5-2.63,9.73-4.09,15.54-4.09h.66c1.55.96,2.59,2.68,2.59,4.63s-1,3.6-2.5,4.57l-11.7,8.51c-2.43,1.76-5.85,1.21-7.61-1.21h0c-1.76-2.43-1.21-5.85,1.21-7.61l1.78-1.29v-2.83h-.01Z" />
<path class="cls-7" d="M253.79,690.87h-11.62c.33-2.45.85-5.61,1.52-7.87.5-1.69,1.13-3.31,1.86-4.86h0c.21,0,.42.03.63.06h0c2.96.47,5,3.28,4.53,6.24l-.35,2.18,2.1,2.1c.62.62,1.06,1.37,1.32,2.16h.01Z" />
<path class="cls-7" d="M260.82,662.98l.04-.69c5-2.63,9.73-4.09,15.54-4.09h.66c1.55.96,2.59,2.68,2.59,4.63s-1,3.6-2.5,4.57l-11.7,8.51c-2.43,1.76-5.85,1.21-7.61-1.21h0c-1.76-2.43-1.21-5.85,1.21-7.61l1.78-1.29v-2.83h-.01Z" />
<path class="cls-7" d="M208.64,690.87h-11.62c.33-2.45.85-5.61,1.52-7.87.5-1.69,1.13-3.31,1.86-4.86h0c.21,0,.42.03.63.06h0c2.96.47,5,3.28,4.53,6.24l-.35,2.18,2.1,2.1c.62.62,1.06,1.37,1.32,2.16h0Z" />
<path class="cls-7" d="M215.67,662.98l.04-.69c5-2.63,9.73-4.09,15.54-4.09h.66c1.55.96,2.59,2.68,2.59,4.63s-1,3.6-2.5,4.57l-11.7,8.51c-2.43,1.76-5.85,1.21-7.61-1.21h0c-1.76-2.43-1.21-5.85,1.21-7.61l1.78-1.29v-2.83h0Z" />
<path class="cls-7" d="M355.92,683c-2.26-7.66-6.53-13.6-12.76-17.95l-.58-.37c-2.68.34-4.76,2.64-4.76,5.41v7.92c0,3,2.45,5.45,5.45,5.45h2.97l1.29,1.78c1.76,2.43,5.18,2.97,7.61,1.21h0c.52-.37.95-.82,1.29-1.32l-.52-2.12h0Z" />
<path class="cls-7" d="M299.68,666.13c-.97-.86-2-1.67-3.09-2.43l-.58-.37c-2.68.34-4.76,2.64-4.76,5.41v7.92" />
<path class="cls-7" d="M254.57,666.13c-.97-.86-2-1.67-3.09-2.43l-.58-.37c-2.68.34-4.76,2.64-4.76,5.41v7.92" />
<path class="cls-7" d="M315,690.87h18.23c.5-.98.72-2.14.52-3.35-.43-2.66-2.84-4.56-5.54-4.56h-1.62c-1.26-2.08-4.54-2.62-7.56-1.19-2.79,1.33-4.41,3.9-3.99,6.09,0,0,0,.02-.03.03-1.07.78-1.16,2.31,0,2.97h1.11-1.12Z" />
<path class="cls-7" d="M268.35,690.87h18.23c.5-.98.72-2.14.52-3.35-.43-2.66-2.84-4.56-5.54-4.56h-1.62c-1.26-2.08-4.54-2.62-7.56-1.19-2.79,1.33-4.41,3.9-3.99,6.09,0,0,0,.02-.03.03-1.07.78-1.16,2.31,0,2.97h1.11-1.12Z" />
<path class="cls-7" d="M223.91,690.87h18.23c.5-.98.72-2.14.52-3.35-.43-2.66-2.84-4.56-5.54-4.56h-1.62c-1.26-2.08-4.54-2.62-7.56-1.19-2.79,1.33-4.41,3.9-3.99,6.09,0,0,0,.02-.03.03-1.07.78-1.16,2.31,0,2.97h1.11-1.12Z" />
<path class="cls-7" d="M359.21,695.73h-73.92c-1.33,0-2.41-1.08-2.41-2.41s1.08-2.41,2.41-2.41h73.92c1.33,0,2.41,1.08,2.41,2.41s-1.08,2.41-2.41,2.41h0Z" />
</g>
<g>
<path class="cls-7" d="M313.08,705.9c-1.55-.61-3.33-.96-5.23-.96s-3.73.36-5.29.98" />
<path class="cls-7" d="M327.63,721.22c-1.55-.61-3.33-.96-5.23-.96s-3.73.36-5.29.98" />
<circle class="cls-7" cx="307.82" cy="702.8" r="1.66" />
<path class="cls-7" d="M299.14,704.84c1.95-2.57,5.03-4.22,8.5-4.22,3.68,0,6.93,1.87,8.85,4.71" />
<path class="cls-7" d="M341.93,705.9c-1.55-.61-3.33-.96-5.23-.96s-3.73.36-5.29.98" />
<circle class="cls-7" cx="336.67" cy="702.8" r="1.66" />
<path class="cls-7" d="M327.99,704.84c1.95-2.57,5.03-4.22,8.5-4.22,3.68,0,6.93,1.87,8.85,4.71" />
</g>
<path class="cls-7" d="M324.98,738.43h-5.48c-1.33,0-2.41-1.08-2.41-2.41s1.08-2.41,2.41-2.41h5.48c1.33,0,2.41,1.08,2.41,2.41s-1.08,2.41-2.41,2.41Z" />
<path class="cls-7" d="M354.53,695.73h-64.58c-.19,1.54-.29,3.12-.29,4.72,0,17.75,11.91,32.46,27.48,35.14.21-1.12,1.18-1.97,2.37-1.97h5.48c1.18,0,2.16.85,2.37,1.97,15.57-2.68,27.47-17.39,27.47-35.14,0-1.6-.1-3.17-.29-4.72h-.01Z" />
</g>
<g>
<path class="cls-7" d="M222.94,705.9c-1.55-.61-3.33-.96-5.23-.96s-3.73.36-5.29.98" />
<path class="cls-7" d="M237.48,721.22c-1.55-.61-3.33-.96-5.23-.96s-3.73.36-5.29.98" />
<circle class="cls-7" cx="217.67" cy="702.8" r="1.66" />
<path class="cls-7" d="M209,704.84c1.95-2.57,5.03-4.22,8.5-4.22,3.68,0,6.93,1.87,8.85,4.71" />
<path class="cls-7" d="M245.21,705c-1.42.13-2.76.45-3.95.93" />
<path class="cls-7" d="M237.85,704.84c1.64-2.16,4.08-3.67,6.89-4.1" />
</g>
<path class="cls-7" d="M234.84,738.43h-5.48c-1.33,0-2.41-1.08-2.41-2.41s1.08-2.41,2.41-2.41h5.48c1.33,0,2.41,1.08,2.41,2.41s-1.08,2.41-2.41,2.41Z" />
<path class="cls-7" d="M244.66,700.45c0-1.6.1-3.17.29-4.72h-45.14c-.19,1.54-.29,3.12-.29,4.72,0,17.75,11.91,32.46,27.48,35.14.21-1.12,1.18-1.97,2.37-1.97h5.48c1.18,0,2.16.85,2.37,1.97,6.73-1.16,12.77-4.56,17.46-9.49-6.17-6.47-10.01-15.57-10.01-25.65h-.01Z" />
<g>
<path class="cls-7" d="M268,705.9c-1.55-.61-3.33-.96-5.23-.96s-3.73.36-5.29.98" />
<path class="cls-7" d="M282.54,721.22c-1.55-.61-3.33-.96-5.23-.96s-3.73.36-5.29.98" />
<circle class="cls-7" cx="262.73" cy="702.8" r="1.66" />
<path class="cls-7" d="M254.06,704.84c1.95-2.57,5.03-4.22,8.5-4.22,3.68,0,6.93,1.87,8.85,4.71" />
<path class="cls-7" d="M290.27,705c-1.42.13-2.76.45-3.95.93" />
<path class="cls-7" d="M282.91,704.84c1.64-2.16,4.08-3.67,6.89-4.1" />
</g>
<path class="cls-7" d="M279.9,738.43h-5.48c-1.33,0-2.41-1.08-2.41-2.41s1.08-2.41,2.41-2.41h5.48c1.33,0,2.41,1.08,2.41,2.41s-1.08,2.41-2.41,2.41Z" />
<path class="cls-7" d="M289.72,700.45c0-1.6.1-3.17.29-4.72h-45.14c-.19,1.54-.29,3.12-.29,4.72,0,17.75,11.91,32.46,27.48,35.14.21-1.12,1.18-1.97,2.37-1.97h5.48c1.18,0,2.16.85,2.37,1.97,6.73-1.16,12.77-4.56,17.46-9.49-6.17-6.47-10.01-15.57-10.01-25.65h0Z" />
<path class="cls-7" d="M242.12,690.69h0c.33-2.45.85-5.61,1.52-7.87,1.99-6.68,5.92-12.35,11.02-16.58-6.22-5.08-14.16-8.03-22.42-8.03h-.06c-15.16,0-29.2,9.92-33.62,24.78-.67,2.27-1.19,5.42-1.52,7.87h0" />
<path class="cls-7" d="M312.48,690.68h-25.2c.33-2.47.85-5.64,1.52-7.92,1.99-6.72,5.92-12.43,11.02-16.69-6.22-5.12-14.16-8.08-22.42-8.08h-.06c-15.16,0-29.2,9.98-33.62,24.93-.67,2.28-1.19,5.46-1.52,7.92h70.3s-.02-.11-.02-.16h0Z" />
<path class="cls-7" d="M195.27,695.81l46.7-.11c-1.33,0-2.41-1.07-2.42-2.4s1.07-2.41,2.4-2.42l-46.7.11c-1.33,0-2.41,1.08-2.4,2.42s1.08,2.41,2.42,2.4Z" />
</g>

<g>
<path class="cls-7" d="M415.49,709h0c-.02-.2,0-.4.08-.6.21-.59.78-.96,1.38-.94h0l64-.18c.15,0,.31.03.46.08.55.2.91.7.94,1.26l.13,28.09h0c.02.2,0,.4-.08.6-.21.59-.78.96-1.38.94h0l-64.32.18c-.15,0-.31-.03-.46-.08-.55-.2-.91-.7-.94-1.26l.18-28.09h.01Z" />
<path class="cls-7" d="M412.49,706.07l-.1,27.97c.03.55.38,1.06.94,1.26.15.05.31.08.46.08h1.61l-.12-26.41h0c-.02-.2,0-.4.08-.6.21-.59.78-.96,1.38-.94h0l62.69-.18v-1.68c-.02-.55-.37-1.06-.93-1.26-.15-.05-.31-.08-.46-.08l-64.09.3h0c-.6-.02-1.17.34-1.38.94-.07.2-.1.4-.08.6h0Z" />
<path class="cls-7" d="M409.44,703.02l-.1,27.97c.03.55.38,1.06.94,1.26.15.05.31.08.46.08h1.61l-.12-26.41h0c-.02-.2,0-.4.08-.6.21-.59.78-.96,1.38-.94h0l62.69-.18v-1.68c-.02-.55-.37-1.06-.93-1.26-.15-.05-.31-.08-.46-.08l-64.09.3h0c-.6-.02-1.17.34-1.38.94-.07.2-.1.4-.08.6h0Z" />
<g>
<path class="cls-7" d="M434.22,725.34c0-5.32,4.31-9.63,9.63-9.63s9.63,4.31,9.63,9.63" />
<path class="cls-7" d="M463.06,723.21c0,5.32-4.31,9.63-9.63,9.63s-9.63-4.31-9.63-9.63" />
</g>
</g>

<g>
<path class="cls-7" d="M573.21,680.65c1.56,5.68,3.13,9.86,2.19,19.67-.85,8.83-10.64,25.35-10.64,25.35" />
<path class="cls-7" d="M576.08,718.36c1.11-.26,2.59-.92,3.59-1.77.29-.25.54-.53.78-.81h0l-.02.02h0c1.62-1.75,3.33-6.11,3.33-6.11,0,0-4.77-.99-7.1-.53h0c-1.11.26-2.58.9-3.57,1.76-.29.25-.54.53-.78.81h0c-1.62,1.75-3.33,6.11-3.33,6.11,0,0,4.77.99,7.1.53h0Z" />
<g>
<path class="cls-7" d="M580.29,715.79l.02-.02-.02.02h0Z" />
<path class="cls-7" d="M583.62,709.68s-4.77-.99-7.1-.53c-.5.12-1.08.33-1.66.59v-5.64h-11.29v20.6c0,.73.59,1.33,1.33,1.33h8.64c.73,0,1.33-.59,1.33-1.33v-6.22c.39-.01.76-.05,1.08-.11h0c1.11-.26,2.59-.92,3.59-1.77.29-.25.53-.52.77-.79h0c1.62-1.75,3.33-6.11,3.33-6.11l-.02-.02h0Z" />
</g>
<path class="cls-7" d="M581.79,703.99c1.11-.26,2.59-.92,3.59-1.77.29-.25.54-.53.78-.81h0l-.02.02h0c1.62-1.75,3.33-6.11,3.33-6.11,0,0-4.77-.99-7.1-.53h0c-1.11.26-2.58.9-3.57,1.76-.29.25-.54.53-.78.81h0c-1.62,1.75-3.33,6.11-3.33,6.11,0,0,4.77.99,7.1.53h0Z" />
<path class="cls-7" d="M574.07,703.55s-4.74-1.12-6.66-2.51c-.55-.44-1.16-1.07-1.67-1.76h-2.75c-1.33,0-2.41,1.08-2.41,2.41s1.08,2.41,2.41,2.41h11.48c.47,0,.91-.14,1.28-.37-.85-.14-1.44-.26-1.44-.26" />
<path class="cls-7" d="M581.65,684.61c.98-.58,2.2-1.65,2.89-2.76.2-.33.36-.67.51-1.01h0v.02h-.01c1.03-2.15,1.35-6.83,1.35-6.83,0,0-4.85.48-6.94,1.61h0c-.98.58-2.19,1.63-2.88,2.74-.2.33-.36.67-.51,1.01h0c-1.03,2.15-1.35,6.83-1.35,6.83,0,0,4.85-.48,6.94-1.61h0Z" />
<path class="cls-7" d="M571.11,692.44c.89.71,1.96,1.93,2.5,3.12.16.35.27.71.37,1.07h0v-.02h0c.73,2.27.44,6.95.44,6.95,0,0-4.74-1.12-6.66-2.51h0c-.89-.71-1.96-1.9-2.5-3.1-.16-.35-.27-.71-.37-1.07h0c-.73-2.27-.44-6.95-.44-6.95,0,0,4.74,1.12,6.66,2.51h0Z" />
<path class="cls-7" d="M568.56,676.55c1.05.43,2.41,1.32,3.26,2.32.25.29.45.61.65.92h0v-.02h-.01c1.32,1.98,2.32,6.56,2.32,6.56,0,0-4.87.22-7.09-.6h0c-1.05-.43-2.4-1.3-3.25-2.3-.25-.29-.45-.61-.65-.92h0c-1.32-1.98-2.32-6.56-2.32-6.56,0,0,4.87-.22,7.09.6h0Z" />
<g>
<path class="cls-7" d="M568.56,676.55h0c1.05.43,2.41,1.31,3.26,2.32.24.29.44.6.63.9h0v.02s.01-.01,0-.02h0c.28.41.54.94.78,1.52v-11.4l.06-3.37c0-.4-.16-.75-.42-1.01l-3.55-3.43-.08-.06c-.09-.05-.13-.05-.21-.05s-.15.02-.23.06l-.04.04-3.31,3.51c-.23.25-.37.58-.38.94v.02l-.07,4.36-.02,2.99v2.09c1.29.07,2.66.23,3.58.57h0Z" />
<path class="cls-7" d="M567.68,685.74c-.85-.35-1.88-.99-2.7-1.74v6.05c1.26.33,4.37,1.09,5.91,2.21l.26.18c.7.56,1.5,1.43,2.08,2.36v-8.43c-1.62,0-4.13-.1-5.55-.62h0Z" />
</g>
<path class="cls-7" d="M564.98,673.7l.02-2.99.07-4.36v-.02c0-.36.15-.7.38-.94l.8-.85c-2.16-.92-4.89-1.56-4.89-1.56,0,0-.29,4.68.44,6.95.1.35.21.72.37,1.07.54,1.2,1.6,2.39,2.5,3.1.09.07.2.14.31.2v-.6h0Z" />
<g>
<path class="cls-7" d="M580.24,715.77l-.02.02h0l.02-.02Z" />
<path class="cls-7" d="M572.34,679.87h0s0,.01.01.02v-.02h-.01Z" />
<path class="cls-7" d="M598.37,679h-12.93c.55-2.24.74-4.96.74-4.96,0,0-4.85.48-6.94,1.61-.55.33-1.17.81-1.73,1.36l-4.38-7.59v11.97c-.24-.57-.5-1.1-.78-1.52h0c-.19-.31-.39-.62-.63-.9-.85-1-1.79-1.75-2.84-2.18l-.73-.29c-.92-.34-1.98-.34-3.27-.41l-.02-1.59-2.01-2.13-3.48,5.93c-.26.44-.72.7-1.23.7h-18.89l9.43,16.34c.26.45.26,1.01,0,1.47l-9.43,16.34h18.89c.51,0,.98.27,1.23.71l4.23,7.33v3.61c0,.73.59,1.33,1.33,1.33h1.52l2.36,4.09,2.36-4.09h2.39c.73,0,1.33-.59,1.33-1.33v-5.12l.74-1.28c.08-.01.17-.02.24-.04h0c1.11-.26,2.59-.92,3.59-1.77.29-.25.53-.52.77-.79h0c.46-.49.92-1.19,1.35-1.94.25-.44.72-.72,1.23-.72h15.57l-8.84-16.34c-.23-.42-.23-.93,0-1.35l8.84-16.44h0Z" />
</g>
<path class="cls-7" d="M605.78,675.05h-19.38c.08-.7.11-1.16.11-1.16,0,0-2.94.29-5.24.95l-12.08-20.92-5.48,9.49c-1.32-.41-2.39-.66-2.39-.66,0,0-.15,2.49.04,4.72l-3.98,6.89c-.25.43-.7.69-1.19.69h-23.6l11.75,20.36c.28.48.28,1.06,0,1.54l-11.75,20.36h23.49c.56,0,1.08.3,1.37.79l11.74,20.34,11.8-20.44c.25-.43.7-.69,1.19-.69h23.6l-11.8-20.44c-.25-.43-.25-.95,0-1.37l11.8-20.44h0Z" />
</g>

<g>
<g>
<line class="cls-7" x1="949.39" y1="706.78" x2="944.44" y2="714.61" />
<line class="cls-7" x1="943.04" y1="708.16" x2="950.79" y2="713.23" />
</g>
<path class="cls-7" d="M992.07,709.49c0-2.4-1.95-4.34-4.34-4.34s-4.34,1.95-4.34,4.34c0,.8.26,1.55.6,2.2h0l3.76,7.39,3.78-7.47h0c.35-.63.55-1.35.55-2.12h0ZM987.75,712.04c-1.43,0-2.59-1.16-2.59-2.59s1.16-2.59,2.59-2.59,2.59,1.16,2.59,2.59-1.16,2.59-2.59,2.59Z" />
<g>
<polygon class="cls-7" points="936.37 689.67 936.07 732.63 957.59 738.72 957.59 697.75 936.37 689.67" />
<polygon class="cls-7" points="957.83 697.84 957.59 697.75 957.59 738.72 957.97 738.82 977.87 731.23 977.87 689.63 957.83 697.84" />
<polygon class="cls-7" points="998.79 740.31 998.57 698.08 977.96 689.59 977.87 689.63 977.87 731.23 978.09 731.14 998.79 740.31" />
</g>
<path class="cls-7" d="M946.76,711.22c2.29,6.04,2.78,11.43,8.65,11.59s6.91-7.68,13.06-7.84,8.65,6.86,14.04,6.86,5.21-2.75,5.21-2.75" />
</g>

<g>
<path class="cls-7" d="M402.38,302.06c0-16.23-13.16-29.39-29.39-29.39s-29.39,13.16-29.39,29.39c0,10.4,5.41,19.53,13.56,24.75-.27-1.44-.43-2.92-.46-4.46-.09-4.3.81-8.32,2.42-11.71-4.51-2.99-7.38-7.4-7.38-12.33,0-9,9.52-16.3,21.26-16.3s21.26,7.3,21.26,16.3c0,4.99-2.93,9.45-7.54,12.44,1.55,3.17,2.49,6.88,2.58,10.88.04,1.76-.11,3.47-.38,5.12,8.1-5.23,13.48-14.34,13.48-24.7h-.02Z" />
<path class="cls-7" d="M357.24,326.5c1.78,9.56,8.47,16.61,16.3,16.44,7.65-.17,13.9-7.19,15.45-16.49" />
<g>
<circle class="cls-7" cx="363.88" cy="297.13" r="4.4" />
<circle class="cls-7" cx="382.1" cy="297.13" r="4.4" />
</g>
<g>
<circle class="cls-8" cx="369.42" cy="318.06" r="1.42" />
<circle class="cls-8" cx="376.57" cy="318.06" r="1.42" />
</g>
<path class="cls-7" d="M395.99,283.79c2.27,2.96,3.95,6.11,5.17,10.06,1.03,3.35,1.23,6.06,1.17,9.32v.98s1.69-.08,2.81-.35c4.49-1.11,6.88-7.11,5.32-13.4s-6.46-10.48-10.95-9.37c-1.32.33-2.92,1.32-3.83,2.37l.31.39h0Z" />
<path class="cls-7" d="M350.11,283.79c-2.27,2.96-3.95,6.11-5.17,10.06-1.03,3.35-1.23,6.06-1.17,9.32v.98s-1.69-.08-2.81-.35c-4.49-1.11-6.88-7.11-5.32-13.4,1.55-6.29,6.46-10.48,10.95-9.37,1.32.33,2.92,1.32,3.83,2.37l-.31.39h0Z" />
</g>

<path class="cls-7" d="M382.02,328.73c-1.95,2.57-5.03,4.22-8.5,4.22-3.68,0-6.93-1.87-8.85-4.71" />

<g>
<g>
<g>
<g>
<path class="cls-7" d="M677.56,540.46l4.43-3.37c6.07,7.99,17.73,9.34,26.03,3.03,8.3-6.31,10.1-17.9,4.03-25.89l4.04-3.07.39-.3h0c8.17,10.74,6.09,26.08-4.66,34.25s-26.08,6.09-34.25-4.66h-.01Z" />
<path class="cls-7" d="M693.68,543.57l1.79-8.18-1.79,8.18ZM693.63,543.92c4.87.71,10.08-.5,14.38-3.78l-6.36-8.36c-1.63,1.24-3.68,1.57-5.63,1.1l-2.39,11.04h0Z" />
<path class="cls-7" d="M693.63,543.91l1.42-6.53-1.42,6.53ZM696.02,532.87c-1.7-.41-3.32-1.43-4.52-3l-9.52,7.24c2.92,3.84,7.13,6.15,11.64,6.81l2.39-11.04h.01Z" />
<path class="cls-7" d="M706.84,526.77l8.36.44-8.36-.44ZM704.26,526.64c-.06,2.01-.93,3.9-2.55,5.14l6.38,8.35c4.3-3.28,6.85-7.99,7.46-12.87l-11.28-.62h-.01Z" />
<path class="cls-7" d="M684.74,510.04l13.84.29c-.09,4.23-3.26,7.59-7.08,7.51s-6.85-3.57-6.76-7.8Z" />
<path class="cls-7" d="M677.91,522.15l6.49-5.29-6.49,5.29ZM677.66,522.39c3.37,3.58,8.2,5.87,13.61,5.99l.22-10.51c-2.04-.04-3.86-1.06-5.09-2.64l-8.74,7.16h0Z" />
<path class="cls-7" d="M677.66,522.38l5.17-4.24-5.17,4.24ZM686.4,515.22c-1.08-1.38-1.71-3.19-1.67-5.16l-11.96-.25c-.1,4.83,1.76,9.25,4.89,12.57l8.74-7.16h0Z" />
<path class="cls-7" d="M698.66,517.17l4.41,3.92-4.41-3.92ZM696.73,515.46c-1.3,1.53-3.15,2.48-5.19,2.44l-.2,10.51c.73.01,1.45-.01,2.16-.08" />
<path class="cls-7" d="M700.18,518.52l9.39-2.44c.61-1.73.95-3.57.99-5.49l-11.96-.22c-.04,1.97-.74,3.75-1.87,5.09l6.35,5.64" />
<path class="cls-7" d="M691.5,529.85l2-1.52.08-.06,8.93-6.79c2.56,3.37,2.17,7.97-.87,10.29-3.04,2.31-7.58,1.46-10.15-1.91h.01Z" />
<path class="cls-7" d="M708.87,526.89l6.67.37-6.67-.37ZM715.54,527.26c.56-4.52-.55-9.2-3.48-13.03l-2.52,1.92-6.47,4.94-.51.39c1.2,1.57,1.75,3.4,1.7,5.15l11.28.62h0Z" />
<path class="cls-7" d="M710.54,510.58l5.56.12h0c0,.15,0,.3-.01.45" />
<path class="cls-7" d="M686.09,533.99c-11.01-2.57-19.11-12.55-18.86-24.31l5.56.12c-.21,10.03,8.07,18.34,18.5,18.56" />
</g>
<g>
<path class="cls-7" d="M739.59,484.25c0-2.57-.78-4.17-2.15-6.34h0" />
<path class="cls-7" d="M710.24,510.58l5.86.11s8.28,8.07,4.34,21.94" />
</g>
</g>
<path class="cls-7" d="M736.77,470.71c-.52-1.12-1.54-2.55-2.66-3.41-.33-.25-.68-.46-1.03-.65h.02c-2.2-1.33-7.2-2.18-7.2-2.18,0,0,0,5.27.98,7.64h0c.52,1.12,1.51,2.53,2.64,3.4.33.25.68.46,1.03.65h0c2.2,1.34,7.2,2.19,7.2,2.19,0,0,0-5.27-.98-7.64h0Z" />
<path class="cls-7" d="M746.57,480.65c.87-.87,1.87-2.31,2.31-3.66.13-.4.2-.8.27-1.19h0v.03h0c.51-2.53-.38-7.52-.38-7.52,0,0-4.96,1.78-6.85,3.51h0c-.87.87-1.87,2.28-2.3,3.63-.13.4-.2.8-.27,1.19h0c-.51,2.53.38,7.52.38,7.52,0,0,4.96-1.78,6.85-3.51h-.01Z" />
</g>
<g>
<path class="cls-7" d="M797.75,540.35l-4.43-3.37c-6.07,7.99-17.73,9.34-26.03,3.03-8.3-6.31-10.1-17.9-4.03-25.89l-4.04-3.07-.39-.3h0c-8.17,10.74-6.09,26.08,4.66,34.25,10.74,8.17,26.08,6.09,34.25-4.66h.01Z" />
<path class="cls-7" d="M779.83,535.29l1.79,8.18-1.79-8.18ZM779.28,532.77c-1.95.47-4,.14-5.63-1.1l-6.36,8.36c4.31,3.28,9.52,4.49,14.38,3.78l-2.39-11.04h0Z" />
<path class="cls-7" d="M780.26,537.28l1.42,6.53-1.42-6.53ZM781.67,543.81c4.51-.66,8.72-2.97,11.64-6.81l-9.52-7.24c-1.19,1.57-2.82,2.59-4.52,3l2.39,11.04h.01Z" />
<path class="cls-7" d="M760.11,527.11l8.36-.44-8.36.44ZM759.76,527.15c.61,4.88,3.15,9.58,7.46,12.87l6.38-8.35c-1.62-1.24-2.49-3.13-2.55-5.14l-11.28.62h-.01Z" />
<path class="cls-7" d="M790.57,509.94l-13.84.29c.09,4.23,3.26,7.59,7.08,7.51s6.85-3.57,6.76-7.8Z" />
<path class="cls-7" d="M790.9,516.75l6.49,5.29-6.49-5.29ZM788.91,515.12c-1.23,1.58-3.05,2.6-5.09,2.64l.22,10.51c5.41-.11,10.24-2.4,13.61-5.99l-8.74-7.16h0Z" />
<path class="cls-7" d="M792.47,518.04l5.17,4.24-5.17-4.24ZM797.64,522.28c3.12-3.32,4.99-7.75,4.89-12.57l-11.96.25c.04,1.97-.59,3.78-1.67,5.16l8.74,7.16h0Z" />
<path class="cls-7" d="M772.23,520.99l4.41-3.92-4.41,3.92ZM781.8,528.23c.71.06,1.43.09,2.16.08l-.2-10.51c-2.04.04-3.89-.91-5.19-2.44" />
<path class="cls-7" d="M775.12,518.42l-2.89,2.57,6.35-5.64c-1.13-1.34-1.84-3.12-1.87-5.09l-11.96.22c.04,1.92.38,3.76.99,5.49" />
<path class="cls-7" d="M783.8,529.75l-2-1.52-.08-.06-8.93-6.79c-2.56,3.37-2.17,7.97.87,10.29s7.58,1.46,10.15-1.91h-.01Z" />
<path class="cls-7" d="M759.76,527.15l6.67-.37-6.67.37ZM771.05,526.53c-.05-1.75.5-3.59,1.7-5.15l-.51-.39-6.47-4.94-2.52-1.92c-2.93,3.84-4.04,8.51-3.48,13.03l11.28-.62h0Z" />
<path class="cls-7" d="M764.77,510.48l-5.56.12h0c0,.15,0,.3.01.45" />
<path class="cls-7" d="M789.22,533.89c11.01-2.57,19.11-12.55,18.86-24.31l-5.56.12c.21,10.03-8.07,18.34-18.5,18.56" />
</g>
<path class="cls-7" d="M763.1,514.24l1.65-3.75c-.43-14.62-12.41-26.17-27.13-26.17s-26.73,11.6-27.17,26.22l5.89.13s7.63,8.03,4.11,21.97c4.64,3.71,10.76,6,17.17,6s12.59-2.48,17.25-6.24c-2.26-7.44-.73-15.43,4.15-21.85l5.73-.05-1.65,3.74Z" />
</g>

<g>
<g>
<circle class="cls-7" cx="1176.98" cy="711.6" r="3.31" />
<path class="cls-7" d="M1198.39,710.03c-8.36,0-15.14,6.78-15.14,15.14s6.78,15.14,15.14,15.14,15.14-6.78,15.14-15.14-6.78-15.14-15.14-15.14ZM1198.32,735.25c-5.48,0-9.92-4.44-9.92-9.92s4.44-9.92,9.92-9.92,9.92,4.44,9.92,9.92-4.44,9.92-9.92,9.92Z" />
<path class="cls-7" d="M1156.68,710.03c-8.36,0-15.14,6.78-15.14,15.14s6.78,15.14,15.14,15.14,15.14-6.78,15.14-15.14-6.78-15.14-15.14-15.14ZM1156.6,735.25c-5.48,0-9.92-4.44-9.92-9.92s4.44-9.92,9.92-9.92,9.92,4.44,9.92,9.92-4.44,9.92-9.92,9.92Z" />
</g>
<path class="cls-7" d="M1193.01,710.98c-4.27,1.2-8.6,6.29-9.51,11.2l-5.69-1.71-.27-.07h0c-.1,0-.2.02-.29.05h0l-5.53,1.69c-1.23-5.82-6.26-10.58-10.99-11.63v-.5c.01-3.13,1.95-5.67,4.35-5.67h23.63c2.4,0,4.35,2.36,4.35,5.49l-.06,1.15h.01Z" />
</g></svg>